<?xml version="1.0" encoding="UTF-8"?>
<!DOCTYPE svg PUBLIC "-//W3C//DTD SVG 1.1//EN" "http://www.w3.org/Graphics/SVG/1.1/DTD/svg11.dtd">
<!-- Creator: CorelDRAW 2018 (64-Bit) -->
<svg xmlns="http://www.w3.org/2000/svg" xml:space="preserve" width="254mm" height="84.6661mm" version="1.1" style="shape-rendering:geometricPrecision; text-rendering:geometricPrecision; image-rendering:optimizeQuality; fill-rule:evenodd; clip-rule:evenodd"
viewBox="0 0 25400 8466.61"
 xmlns:xlink="http://www.w3.org/1999/xlink">
 <defs>
  <style type="text/css">
   <![CDATA[
    .str0 {stroke:white;stroke-width:34.1;stroke-linecap:round;stroke-linejoin:round;stroke-miterlimit:22.9256}
    .fil8 {fill:none;fill-rule:nonzero}
    .fil0 {fill:#001501}
    .fil11 {fill:#1EC01E}
    .fil16 {fill:#1EC01E;fill-rule:nonzero}
    .fil9 {fill:white;fill-rule:nonzero}
    .fil13 {fill:url(#id0)}
    .fil14 {fill:url(#id1)}
    .fil10 {fill:url(#id2)}
    .fil12 {fill:url(#id3)}
    .fil15 {fill:url(#id4)}
    .fil5 {fill:url(#id5);fill-opacity:0.400000}
    .fil6 {fill:url(#id6);fill-opacity:0.400000}
    .fil7 {fill:url(#id7);fill-opacity:0.400000}
    .fil2 {fill:url(#id8);fill-opacity:0.701961}
    .fil3 {fill:url(#id9);fill-opacity:0.701961}
    .fil1 {fill:url(#id10);fill-opacity:0.701961}
    .fil4 {fill:url(#id11);fill-opacity:0.701961}
   ]]>
  </style>
  <linearGradient id="id0" gradientUnits="userSpaceOnUse" x1="7951.87" y1="4378.64" x2="8768.53" y2="4370.66">
   <stop offset="0" style="stop-opacity:1; stop-color:#1EC01E"/>
   <stop offset="0.631373" style="stop-opacity:1; stop-color:#1D6E1D"/>
   <stop offset="1" style="stop-opacity:1; stop-color:#1C1C1C"/>
  </linearGradient>
  <linearGradient id="id1" gradientUnits="userSpaceOnUse" x1="8389.6" y1="2930.24" x2="8820.35" y2="1896.47">
   <stop offset="0" style="stop-opacity:1; stop-color:#1EC01E"/>
   <stop offset="0.65098" style="stop-opacity:1; stop-color:#1D6E1D"/>
   <stop offset="1" style="stop-opacity:1; stop-color:#1C1C1C"/>
  </linearGradient>
  <linearGradient id="id2" gradientUnits="userSpaceOnUse" x1="9773.44" y1="3827.55" x2="10066.69" y2="4626.58">
   <stop offset="0" style="stop-opacity:1; stop-color:#1EC01E"/>
   <stop offset="0.678431" style="stop-opacity:1; stop-color:#1D6E1D"/>
   <stop offset="1" style="stop-opacity:1; stop-color:#1C1C1C"/>
  </linearGradient>
  <linearGradient id="id3" gradientUnits="userSpaceOnUse" x1="7528.13" y1="3673.27" x2="7808.11" y2="4610.13">
   <stop offset="0" style="stop-opacity:1; stop-color:#1EC01E"/>
   <stop offset="0.529412" style="stop-opacity:1; stop-color:#1D6E1D"/>
   <stop offset="1" style="stop-opacity:1; stop-color:#1C1C1C"/>
  </linearGradient>
  <linearGradient id="id4" gradientUnits="userSpaceOnUse" x1="9632.82" y1="2860.46" x2="10210.8" y2="3758.76">
   <stop offset="0" style="stop-opacity:1; stop-color:#1EC01E"/>
   <stop offset="0.670588" style="stop-opacity:1; stop-color:#1D6E1D"/>
   <stop offset="1" style="stop-opacity:1; stop-color:#1C1C1C"/>
  </linearGradient>
  <linearGradient id="id5" gradientUnits="userSpaceOnUse" x1="25400" y1="2696.7" x2="14373.73" y2="2696.7">
   <stop offset="0" style="stop-opacity:1; stop-color:#1EC01E"/>
   <stop offset="1" style="stop-opacity:1; stop-color:#001501"/>
  </linearGradient>
  <linearGradient id="id6" gradientUnits="userSpaceOnUse" x1="25400" y1="1995.2" x2="16779.86" y2="1995.2">
   <stop offset="0" style="stop-opacity:1; stop-color:#001501"/>
   <stop offset="0.270588" style="stop-opacity:1; stop-color:#0F6A0F"/>
   <stop offset="1" style="stop-opacity:1; stop-color:#1EC01E"/>
  </linearGradient>
  <linearGradient id="id7" gradientUnits="userSpaceOnUse" xlink:href="#id5" x1="25399.97" y1="923.82" x2="14895.54" y2="923.82">
  </linearGradient>
  <linearGradient id="id8" gradientUnits="userSpaceOnUse" x1="5313.49" y1="289.33" x2="10897.88" y2="9287.33">
   <stop offset="0" style="stop-opacity:1; stop-color:#1BA11B"/>
   <stop offset="1" style="stop-opacity:1; stop-color:#002E02"/>
  </linearGradient>
  <linearGradient id="id9" gradientUnits="userSpaceOnUse" x1="9934.48" y1="9155.4" x2="3414.18" y2="1696.69">
   <stop offset="0" style="stop-opacity:1; stop-color:#189418"/>
   <stop offset="1" style="stop-opacity:1; stop-color:#003D03"/>
  </linearGradient>
  <linearGradient id="id10" gradientUnits="userSpaceOnUse" x1="19001.62" y1="4283.54" x2="0" y2="4283.54">
   <stop offset="0" style="stop-opacity:1; stop-color:#1DAD1D"/>
   <stop offset="1" style="stop-opacity:1; stop-color:#001501"/>
  </linearGradient>
  <linearGradient id="id11" gradientUnits="userSpaceOnUse" x1="1143.3" y1="2828.45" x2="8074.36" y2="7625.07">
   <stop offset="0" style="stop-opacity:1; stop-color:#1BAB1B"/>
   <stop offset="0.541176" style="stop-opacity:1; stop-color:#0E6E0F"/>
   <stop offset="1" style="stop-opacity:1; stop-color:#003002"/>
  </linearGradient>
 </defs>
 <g id="Layer_x0020_1">
  <metadata id="CorelCorpID_0Corel-Layer"/>
  <g id="_2288183000544">
   <path class="fil0" d="M25400 423.33l0 7619.95c0,232.83 -285.77,423.33 -635.02,423.33l-24129.98 0c-349.25,0 -635,-190.5 -635,-423.33l0 -7619.95c0,-232.83 285.75,-423.33 635,-423.33l24129.98 0c349.25,0 635.02,190.5 635.02,423.33z"/>
   <g>
    <path class="fil1" d="M635 8466.61l6300.42 0 12066.2 0 -18776.12 -8366.13c-137.45,77.67 -225.18,193.41 -225.48,322.18l-0.02 2876.34 0 4744.28c0,232.83 285.75,423.33 635,423.33z"/>
    <path class="fil2" d="M635 8466.61l5282 0 10294.37 0 -16211.37 -7356.57 0 6933.24c0,232.83 285.75,423.33 635,423.33z"/>
    <path class="fil3" d="M-0 8043.28l0 -5657.8c2546.98,1157.94 6996.52,3184.98 13348.65,6081.13l-5201.27 0 -7512.38 0c-349.25,0 -635,-190.5 -635,-423.33z"/>
    <path class="fil4" d="M3591.65 8466.61l5626.01 0c-6145.11,-4319.8 -9217.66,-6479.71 -9217.66,-6479.71l0 2365.04 0.02 3692.02c0.56,232.51 286.08,422.65 634.98,422.65l2956.65 0z"/>
   </g>
   <g>
    <path class="fil5" d="M24764.98 0l-10391.25 0c7350.84,3595.59 11026.27,5393.39 11026.27,5393.39l0 -809.8 -0.03 -4161.62c-1.12,-232.21 -286.42,-421.97 -634.99,-421.97z"/>
    <path class="fil6" d="M25400 423.33l0 175.81 -0.03 3391.25c-5746.75,-2660.26 -8620.11,-3990.39 -8620.11,-3990.39l7985.12 0c349.25,0 635.02,190.5 635.02,423.33z"/>
    <path class="fil7" d="M24764.98 0l-9869.44 0c7002.95,1231.76 10504.43,1847.65 10504.43,1847.65l0 -1425.68c-1.12,-232.21 -286.42,-421.97 -634.99,-421.97z"/>
   </g>
   <g>
    <g>
     <polygon class="fil8 str0" points="9150.43,6879.48 9150.43,6252.35 9038.45,6252.35 9038.45,6879.48 "/>
    </g>
    <g>
     <polygon id="1" class="fil8 str0" points="9755.17,6252.35 9755.17,6651.32 9352.01,6340.89 9240.03,6255.04 9240.03,6879.48 9352.01,6879.48 9352.01,6483.19 9755.17,6793.62 9867.16,6879.48 9867.16,6253.25 "/>
    </g>
    <g>
     <polygon id="2" class="fil8 str0" points="9956.75,6252.35 9956.75,6364.34 10213.87,6364.34 10213.87,6879.48 10325.86,6879.48 10325.86,6364.34 10582.98,6364.34 10582.98,6252.35 "/>
    </g>
    <g>
     <path id="3" class="fil8 str0" d="M11090.06 6590.1c0,0 0,0 0,0 17.02,-1.79 33.15,-6.27 48.38,-13.43 58.23,-26.88 98.55,-86.01 98.55,-154.1 0,-46.59 -18.82,-88.69 -49.28,-119.15 -30.46,-30.46 -72.57,-49.28 -119.15,-49.28l-395.99 0 0 627.13 111.99 0 0 -288.48 111.98 0c40.32,0 75.26,21.5 94.97,53.76l2.69 5.37 60.02 117.36 57.34 111.99 125.43 0 -57.34 -111.99 -89.59 -179.18zm-305.5 -108.4l0 -115.57 284 0c19.71,0 33.15,8.96 40.31,16.13 6.27,6.27 17.02,20.6 17.02,41.21 0,22.39 -13.43,43 -34.04,51.96 -7.17,3.58 -15.23,5.37 -23.29,5.37l-284 0.9z"/>
    </g>
    <g>
     <path id="4" class="fil8 str0" d="M11619.54 6252.35c-172.91,0 -313.57,140.66 -313.57,313.56 0,172.91 140.66,313.57 313.57,313.57 172.91,0 313.56,-140.66 313.56,-313.57 0,-172.9 -140.65,-313.56 -313.56,-313.56zm0 515.14c-111.09,0 -201.58,-90.48 -201.58,-201.58 0,-111.09 90.49,-201.57 201.58,-201.57 111.09,0 201.58,90.48 201.58,201.57 0,111.1 -90.49,201.58 -201.58,201.58z"/>
    </g>
    <g>
     <path id="5" class="fil8 str0" d="M12314.76 6252.35l-313.56 0 0 627.13 313.56 0c86.01,0 163.95,-34.94 220.39,-92.28 6.27,-6.27 12.54,-12.54 17.92,-18.81 46.59,-54.65 74.36,-125.43 74.36,-202.48 0,-173.8 -140.66,-313.56 -313.57,-313.56l0.9 0zm-0.9 516.04l-201.57 0 0 -404.05 201.57 0c111.1,0 201.58,90.63 201.58,202.02 0,111.39 -90.48,202.03 -201.58,202.03z"/>
    </g>
    <g>
     <path id="6" class="fil8 str0" d="M13233.06 6252.35l0 313.56c0,111.1 -90.49,201.58 -201.58,201.58 -111.09,0 -201.58,-90.48 -201.58,-201.58l0 -313.56 -111.98 0 0 313.56c0,172.91 140.65,313.57 313.56,313.57 172.91,0 313.57,-140.66 313.57,-313.57l0 -313.56 -111.99 0z"/>
    </g>
    <g>
     <path id="7" class="fil8 str0" d="M13739.24 6364.34l313.57 0 0 -111.99 -313.57 0c-172.91,0 -313.56,140.66 -313.56,313.56 0,172.91 140.65,313.57 313.56,313.57l313.57 0 0 -111.99 -313.57 0c-111.09,0 -201.58,-90.48 -201.58,-201.58 0,-111.09 90.49,-201.57 201.58,-201.57z"/>
    </g>
    <g>
     <polygon id="8" class="fil8 str0" points="14142.4,6252.35 14142.4,6364.34 14399.52,6364.34 14399.52,6879.48 14511.51,6879.48 14511.51,6364.34 14768.63,6364.34 14768.63,6252.35 "/>
    </g>
    <g>
     <polygon id="9" class="fil8 str0" points="14971.1,6879.48 14971.1,6252.35 14859.12,6252.35 14859.12,6879.48 "/>
    </g>
    <g>
     <path id="10" class="fil8 str0" d="M15352.76 6252.35c-172.91,0 -313.57,140.66 -313.57,313.56 0,172.91 140.66,313.57 313.57,313.57 172.91,0 313.56,-140.66 313.56,-313.57 0,-172.9 -140.65,-313.56 -313.56,-313.56zm0 515.14c-111.09,0 -201.58,-90.48 -201.58,-201.58 0,-111.09 90.49,-201.57 201.58,-201.57 111.09,0 201.58,90.48 201.58,201.57 0,111.1 -90.49,201.58 -201.58,201.58z"/>
    </g>
    <g>
     <polygon id="11" class="fil8 str0" points="16249.56,6252.35 16249.56,6651.32 15846.4,6340.89 15734.42,6255.04 15734.42,6879.48 15846.4,6879.48 15846.4,6483.19 16249.56,6793.62 16361.55,6879.48 16361.55,6253.25 "/>
    </g>
    <polygon id="12" class="fil9" points="9150.43,6879.48 9150.43,6252.35 9038.45,6252.35 9038.45,6879.48 "/>
    <polygon id="13" class="fil9" points="9755.17,6252.35 9755.17,6651.32 9352.01,6340.89 9240.03,6255.04 9240.03,6879.48 9352.01,6879.48 9352.01,6483.19 9755.17,6793.62 9867.16,6879.48 9867.16,6253.25 "/>
    <polygon id="14" class="fil9" points="9956.75,6252.35 9956.75,6364.34 10213.87,6364.34 10213.87,6879.48 10325.86,6879.48 10325.86,6364.34 10582.98,6364.34 10582.98,6252.35 "/>
    <path id="15" class="fil9" d="M11090.06 6590.1c0,0 0,0 0,0 17.02,-1.79 33.15,-6.27 48.38,-13.43 58.23,-26.88 98.55,-86.01 98.55,-154.1 0,-46.59 -18.82,-88.69 -49.28,-119.15 -30.46,-30.46 -72.57,-49.28 -119.15,-49.28l-395.99 0 0 627.13 111.99 0 0 -288.48 111.98 0c40.32,0 75.26,21.5 94.97,53.76l2.69 5.37 60.02 117.36 57.34 111.99 125.43 0 -57.34 -111.99 -89.59 -179.18zm-305.5 -108.4l0 -115.57 284 0c19.71,0 33.15,8.96 40.31,16.13 6.27,6.27 17.02,20.6 17.02,41.21 0,22.39 -13.43,43 -34.04,51.96 -7.17,3.58 -15.23,5.37 -23.29,5.37l-284 0.9z"/>
    <path id="16" class="fil9" d="M11619.54 6252.35c-172.91,0 -313.57,140.66 -313.57,313.56 0,172.91 140.66,313.57 313.57,313.57 172.91,0 313.56,-140.66 313.56,-313.57 0,-172.9 -140.65,-313.56 -313.56,-313.56zm0 515.14c-111.09,0 -201.58,-90.48 -201.58,-201.58 0,-111.09 90.49,-201.57 201.58,-201.57 111.09,0 201.58,90.48 201.58,201.57 0,111.1 -90.49,201.58 -201.58,201.58z"/>
    <path id="17" class="fil9" d="M12314.76 6252.35l-313.56 0 0 627.13 313.56 0c86.01,0 163.95,-34.94 220.39,-92.28 6.27,-6.27 12.54,-12.54 17.92,-18.81 46.59,-54.65 74.36,-125.43 74.36,-202.48 0,-173.8 -140.66,-313.56 -313.57,-313.56l0.9 0zm-0.9 516.04l-201.57 0 0 -404.05 201.57 0c111.1,0 201.58,90.63 201.58,202.02 0,111.39 -90.48,202.03 -201.58,202.03z"/>
    <path id="18" class="fil9" d="M13233.06 6252.35l0 313.56c0,111.1 -90.49,201.58 -201.58,201.58 -111.09,0 -201.58,-90.48 -201.58,-201.58l0 -313.56 -111.98 0 0 313.56c0,172.91 140.65,313.57 313.56,313.57 172.91,0 313.57,-140.66 313.57,-313.57l0 -313.56 -111.99 0z"/>
    <path id="19" class="fil9" d="M13739.24 6364.34l313.57 0 0 -111.99 -313.57 0c-172.91,0 -313.56,140.66 -313.56,313.56 0,172.91 140.65,313.57 313.56,313.57l313.57 0 0 -111.99 -313.57 0c-111.09,0 -201.58,-90.48 -201.58,-201.58 0,-111.09 90.49,-201.57 201.58,-201.57z"/>
    <polygon id="20" class="fil9" points="14142.4,6252.35 14142.4,6364.34 14399.52,6364.34 14399.52,6879.48 14511.51,6879.48 14511.51,6364.34 14768.63,6364.34 14768.63,6252.35 "/>
    <polygon id="21" class="fil9" points="14971.1,6879.48 14971.1,6252.35 14859.12,6252.35 14859.12,6879.48 "/>
    <path id="22" class="fil9" d="M15352.76 6252.35c-172.91,0 -313.57,140.66 -313.57,313.56 0,172.91 140.66,313.57 313.57,313.57 172.91,0 313.56,-140.66 313.56,-313.57 0,-172.9 -140.65,-313.56 -313.56,-313.56zm0 515.14c-111.09,0 -201.58,-90.48 -201.58,-201.58 0,-111.09 90.49,-201.57 201.58,-201.57 111.09,0 201.58,90.48 201.58,201.57 0,111.1 -90.49,201.58 -201.58,201.58z"/>
    <polygon id="23" class="fil9" points="16249.56,6252.35 16249.56,6651.32 15846.4,6340.89 15734.42,6255.04 15734.42,6879.48 15846.4,6879.48 15846.4,6483.19 16249.56,6793.62 16361.55,6879.48 16361.55,6253.25 "/>
    <g>
     <g>
      <path class="fil10" d="M10091.15 3935.67l0.05 -991.63c0,0 -176.69,101.71 -525.63,302.59l-1.4 993.29 526.98 -304.25z"/>
      <polygon class="fil11" points="10091.19,4543.34 10091.15,3935.67 8179.85,5039.1 8706.18,5342.99 "/>
      <polygon class="fil12" points="7846.76,3857.45 7846.76,2640.56 7321.13,2944.03 7321.14,4160.19 "/>
      <path class="fil13" d="M7845.81 4846.26l337.58 -194.91 -2.07 -604.68 -860.21 496.63c57.44,33.1 238.25,137.61 524.7,302.96z"/>
      <path class="fil14" d="M8180.95 4652.76c-0.11,-939.75 -0.17,-2205.04 -0.17,-2205.04 349.91,201.87 524.87,302.81 524.87,302.81 0,535.92 0,1597.34 0,1597.34 -349.81,201.96 -524.7,304.89 -524.7,304.89z"/>
      <path class="fil15" d="M8180.77 2447.72c923.2,532.6 1384.8,798.91 1384.8,798.91 348.94,-200.88 525.63,-302.59 525.63,-302.59 -921.88,-533.95 -1385.04,-799.65 -1385.04,-799.65 -350.26,202.22 -525.39,303.33 -525.39,303.33z"/>
     </g>
     <g>
      <path class="fil16" d="M11136.24 3676.85c-66.87,-9.11 -120.05,-62.3 -129.17,-129.15l0 -743.04 -189.93 0 0 724.8c0,53.18 12.15,103.33 34.94,148.91 31.91,66.86 86.62,121.56 153.47,154.99 45.59,22.79 95.74,34.95 148.92,34.95l539.43 0 0 -189.94 -557.66 -1.52z"/>
      <polygon id="1" class="fil16" points="12035.78,3868.31 12035.78,2804.66 11845.85,2804.66 11845.85,3868.31 "/>
      <polygon id="2" class="fil16" points="12187.74,2804.66 12187.74,2994.6 12623.84,2994.6 12623.84,3868.31 12813.78,3868.31 12813.78,2994.6 13249.88,2994.6 13249.88,2804.66 "/>
      <path id="3" class="fil16" d="M13690.54 2994.6l776.47 0 0 -189.94 -776.47 0c-158.03,0 -285.68,129.16 -285.68,287.19l0 489.27c0,158.03 127.65,287.19 285.68,287.19l776.47 0 0 -189.94 -776.47 0c-53.18,0 -97.25,-44.06 -97.25,-97.25l0 -200.57 683.78 0 0 -189.94 -683.78 0 0 -98.76c0,-53.19 44.07,-97.25 97.25,-97.25z"/>
      <path id="4" class="fil16" d="M14618.96 2804.66l0 1063.65 531.83 0c145.87,0 278.07,-59.26 373.8,-156.51 10.63,-10.64 21.27,-21.27 30.39,-31.91 79.01,-92.69 126.12,-212.73 126.12,-343.41 0,-294.78 -238.57,-531.82 -531.83,-531.82l-530.31 0zm188.42 189.94l341.89 0c188.42,0 341.89,153.72 341.89,342.64 0,188.93 -153.47,342.65 -341.89,342.65l-341.89 0 0 -685.29z"/>
      <path id="5" class="fil16" d="M16121.76 2994.6l776.47 0 0 -189.94 -776.47 0c-158.03,0 -285.68,129.16 -285.68,287.19l0 489.27c0,158.03 127.65,287.19 285.68,287.19l776.47 0 0 -189.94 -776.47 0c-53.18,0 -97.25,-44.06 -97.25,-97.25l0 -200.57 683.78 0 0 -189.94 -683.78 0 0 -98.76c0,-53.19 44.07,-97.25 97.25,-97.25z"/>
      <path id="6" class="fil16" d="M17012.19 3872.87l3.04 -3.04 -3.04 0 0 3.04zm1063.66 -3.04l-1.52 0 1.52 3.04 0 -3.04zm0 -1065.17l-238.56 0 -291.75 378.86 -291.74 -378.86 -240.09 0 411.79 534.1 -408.75 531.07 240.09 0 290.22 -375.82 290.23 375.82 240.08 0 -410.27 -531.07 411.79 -534.1 -3.04 0z"/>
      <path class="fil16" d="M11564.66 4682.78c-9.88,0 -17.66,-2.66 -23.36,-7.98 -5.7,-5.32 -8.55,-12.72 -8.55,-22.22l0 -295.12c0,-24.69 7.22,-44.06 21.65,-58.12 14.44,-14.05 34.57,-21.08 60.4,-21.08l96.86 0c56.22,0 98.85,11.78 127.91,35.33 29.06,23.55 43.58,58.3 43.58,104.26 0,45.2 -14.33,79.48 -43.01,102.84 -28.68,23.36 -70.55,35.04 -125.63,35.04l-116.81 0 0 96.85c0,9.12 -3.03,16.43 -9.11,21.94 -6.08,5.5 -14.06,8.26 -23.93,8.26zm149.28 -178.33c69.13,0 103.69,-28.87 103.69,-86.6 0,-30.39 -8.64,-52.8 -25.92,-67.23 -17.28,-14.43 -43.02,-21.65 -77.2,-21.65l-90.6 0c-8.35,0 -14.81,2.66 -19.37,7.98 -4.56,5.31 -6.84,12.53 -6.84,21.65l0 145.85 116.24 0z"/>
      <path id="1" class="fil16" d="M12307.8 4358.03c0,-24.69 7.22,-44.16 21.65,-58.4 14.44,-14.25 34.76,-21.37 60.97,-21.37l103.12 0c55.07,0 96.57,11.02 124.49,33.05 27.91,22.03 41.87,54.5 41.87,97.42 0,40.64 -12.34,72.17 -37.03,94.58 -24.69,22.41 -58.87,33.61 -102.55,33.61l94.57 95.72c6.08,6.08 9.12,12.72 9.12,19.94 0,7.98 -3.8,15.19 -11.4,21.65 -7.21,5.32 -14.24,7.98 -21.08,7.98 -9.49,0 -18.61,-4.56 -27.34,-13.68l-125.35 -129.9 -64.38 0 0 113.38c0,9.5 -3.13,17 -9.4,22.51 -6.26,5.5 -14.34,8.26 -24.21,8.26 -10.26,0 -18.33,-2.76 -24.22,-8.26 -5.88,-5.51 -8.83,-13.01 -8.83,-22.51l0 -293.98zm185.17 128.19c36.46,0 62.2,-5.8 77.2,-17.38 15,-11.58 22.5,-31.62 22.5,-60.11 0,-27.72 -8.16,-47.67 -24.5,-59.82 -16.33,-12.15 -41.4,-18.23 -75.2,-18.23l-92.87 0c-7.97,0 -14.24,2.56 -18.8,7.69 -4.56,5.13 -6.84,12.25 -6.84,21.36l0 126.49 118.51 0z"/>
      <path id="2" class="fil16" d="M13270.87 4682.78c-42.16,0 -79.1,-8.55 -110.81,-25.64 -31.72,-17.09 -56.12,-41.21 -73.21,-72.36 -17.1,-31.14 -25.64,-66.85 -25.64,-107.11 0,-40.26 8.54,-75.96 25.64,-107.11 17.09,-31.15 41.49,-55.26 73.21,-72.36 31.71,-17.09 68.65,-25.64 110.81,-25.64 42.16,0 79.1,8.55 110.82,25.64 31.71,17.1 56.12,41.21 73.21,72.36 17.09,31.15 25.64,66.85 25.64,107.11 0,40.26 -8.55,75.97 -25.64,107.11 -17.09,31.15 -41.5,55.27 -73.21,72.36 -31.72,17.09 -68.66,25.64 -110.82,25.64zm0 -51.85c44.44,0 79.58,-13.67 105.4,-41.02 25.83,-27.35 38.75,-64.76 38.75,-112.24 0,-47.86 -13.2,-85.37 -39.6,-112.52 -26.4,-27.16 -62.39,-40.74 -107.97,-40.74 -28.86,0 -53.93,6.27 -75.2,18.8 -21.27,12.54 -37.61,30.39 -49,53.56 -11.39,23.17 -17.09,50.14 -17.09,80.9 0,31.53 5.88,58.78 17.66,81.76 11.77,22.98 28.49,40.64 50.14,52.98 21.65,12.35 47.29,18.52 76.91,18.52z"/>
      <path id="3" class="fil16" d="M14029.96 4682.78c-9.88,0 -17.76,-2.66 -23.64,-7.98 -5.89,-5.32 -8.84,-12.72 -8.84,-22.22l0 -323.61 -116.79 0c-9.88,0 -17.47,-2.19 -22.79,-6.55 -5.32,-4.37 -7.98,-10.54 -7.98,-18.52 0,-8.36 2.66,-14.72 7.98,-19.09 5.32,-4.36 12.91,-6.55 22.79,-6.55l298.55 0c9.88,0 17.57,2.19 23.08,6.55 5.5,4.37 8.26,10.73 8.26,19.09 0,7.98 -2.76,14.15 -8.26,18.52 -5.51,4.36 -13.2,6.55 -23.08,6.55l-116.8 0 0 323.61c0,9.12 -2.94,16.43 -8.83,21.94 -5.88,5.5 -13.77,8.26 -23.65,8.26z"/>
      <path id="4" class="fil16" d="M14789.63 4682.78c-42.16,0 -79.1,-8.55 -110.81,-25.64 -31.72,-17.09 -56.12,-41.21 -73.21,-72.36 -17.1,-31.14 -25.64,-66.85 -25.64,-107.11 0,-40.26 8.54,-75.96 25.64,-107.11 17.09,-31.15 41.49,-55.26 73.21,-72.36 31.71,-17.09 68.65,-25.64 110.81,-25.64 42.16,0 79.1,8.55 110.82,25.64 31.71,17.1 56.12,41.21 73.21,72.36 17.09,31.15 25.64,66.85 25.64,107.11 0,40.26 -8.55,75.97 -25.64,107.11 -17.09,31.15 -41.5,55.27 -73.21,72.36 -31.72,17.09 -68.66,25.64 -110.82,25.64zm0 -51.85c44.44,0 79.58,-13.67 105.4,-41.02 25.83,-27.35 38.75,-64.76 38.75,-112.24 0,-47.86 -13.2,-85.37 -39.6,-112.52 -26.4,-27.16 -62.39,-40.74 -107.97,-40.74 -28.86,0 -53.93,6.27 -75.2,18.8 -21.27,12.54 -37.61,30.39 -49,53.56 -11.39,23.17 -17.09,50.14 -17.09,80.9 0,31.53 5.88,58.78 17.66,81.76 11.77,22.98 28.49,40.64 50.14,52.98 21.65,12.35 47.29,18.52 76.91,18.52z"/>
      <path id="5" class="fil16" d="M15620.51 4682.78c-41.78,0 -78.15,-8.26 -109.1,-24.79 -30.96,-16.52 -54.7,-40.16 -71.22,-70.93 -16.52,-30.76 -24.78,-67.04 -24.78,-108.82 0,-41.78 8.26,-78.15 24.78,-109.1 16.52,-30.96 40.17,-54.79 70.93,-71.51 30.77,-16.71 67.04,-25.07 108.82,-25.07 34.19,0 65.9,5.89 95.15,17.67 29.25,11.77 51.28,27.72 66.09,47.85 4.18,6.08 6.27,11.59 6.27,16.53 0,8.35 -4.37,15.76 -13.11,22.22 -4.93,3.04 -10.06,4.55 -15.38,4.55 -4.94,0 -9.78,-1.13 -14.53,-3.41 -4.75,-2.28 -8.83,-5.32 -12.25,-9.12 -12.53,-15.19 -28.01,-26.4 -46.43,-33.61 -18.42,-7.22 -40.36,-10.83 -65.81,-10.83 -43.68,0 -77.77,13.58 -102.26,40.74 -24.5,27.15 -36.75,64.85 -36.75,113.09 0,47.48 12.34,84.8 37.03,111.95 24.69,27.16 58.87,40.74 102.55,40.74 51.66,0 91.35,-14.81 119.08,-44.44 9.12,-9.11 18.42,-13.67 27.92,-13.67 6.07,0 11.58,1.9 16.52,5.69 7.6,6.46 11.39,13.49 11.39,21.09 0,6.45 -2.28,12.53 -6.83,18.23 -16.34,20.13 -39.32,35.99 -68.94,47.57 -29.63,11.59 -62.67,17.38 -99.14,17.38z"/>
      <path id="6" class="fil16" d="M16421.19 4682.78c-42.16,0 -79.1,-8.55 -110.81,-25.64 -31.72,-17.09 -56.12,-41.21 -73.21,-72.36 -17.1,-31.14 -25.64,-66.85 -25.64,-107.11 0,-40.26 8.54,-75.96 25.64,-107.11 17.09,-31.15 41.49,-55.26 73.21,-72.36 31.71,-17.09 68.65,-25.64 110.81,-25.64 42.17,0 79.11,8.55 110.83,25.64 31.71,17.1 56.12,41.21 73.21,72.36 17.09,31.15 25.64,66.85 25.64,107.11 0,40.26 -8.55,75.97 -25.64,107.11 -17.09,31.15 -41.5,55.27 -73.21,72.36 -31.72,17.09 -68.66,25.64 -110.83,25.64zm0 -51.85c44.45,0 79.59,-13.67 105.41,-41.02 25.83,-27.35 38.75,-64.76 38.75,-112.24 0,-47.86 -13.2,-85.37 -39.6,-112.52 -26.4,-27.16 -62.39,-40.74 -107.98,-40.74 -28.86,0 -53.93,6.27 -75.2,18.8 -21.27,12.54 -37.61,30.39 -49,53.56 -11.39,23.17 -17.09,50.14 -17.09,80.9 0,31.53 5.88,58.78 17.66,81.76 11.77,22.98 28.49,40.64 50.14,52.98 21.65,12.35 47.29,18.52 76.91,18.52z"/>
      <path id="7" class="fil16" d="M17140.97 4677.08c-26.58,0 -47.38,-7.12 -62.38,-21.37 -15.01,-14.24 -22.51,-34.08 -22.51,-59.53l0 -293.42c0,-9.49 2.85,-16.9 8.55,-22.22 5.7,-5.32 13.48,-7.98 23.36,-7.98 9.87,0 17.76,2.76 23.64,8.27 5.89,5.5 8.83,12.81 8.83,21.93l0 293.99c0,9.11 2.38,16.33 7.13,21.65 4.74,5.31 11.3,7.97 19.65,7.97l184.6 0c20.51,0 30.76,8.55 30.76,25.64 0,7.98 -2.66,14.15 -7.97,18.52 -5.32,4.37 -12.92,6.55 -22.79,6.55l-190.87 0z"/>
     </g>
    </g>
   </g>
  </g>
 </g>
</svg>
