<?xml version="1.0" encoding="UTF-8"?>
<!DOCTYPE svg PUBLIC "-//W3C//DTD SVG 1.1//EN" "http://www.w3.org/Graphics/SVG/1.1/DTD/svg11.dtd">
<!-- Creator: CorelDRAW 2018 (64-Bit) -->
<svg xmlns="http://www.w3.org/2000/svg" xml:space="preserve" width="254mm" height="84.6661mm" version="1.1" style="shape-rendering:geometricPrecision; text-rendering:geometricPrecision; image-rendering:optimizeQuality; fill-rule:evenodd; clip-rule:evenodd"
viewBox="0 0 25400 8466.61"
 xmlns:xlink="http://www.w3.org/1999/xlink">
 <defs>
  <style type="text/css">
   <![CDATA[
    .str0 {stroke:white;stroke-width:34.1;stroke-linecap:round;stroke-linejoin:round;stroke-miterlimit:22.9256}
    .fil12 {fill:none;fill-rule:nonzero}
    .fil0 {fill:#001501}
    .fil1 {fill:#002402}
    .fil2 {fill:#003603}
    .fil3 {fill:#004704}
    .fil4 {fill:#005E05}
    .fil6 {fill:#4BAF4B}
    .fil11 {fill:#4BAF4B;fill-rule:nonzero}
    .fil13 {fill:white;fill-rule:nonzero}
    .fil5 {fill:url(#id0)}
    .fil7 {fill:url(#id1)}
    .fil9 {fill:url(#id2)}
    .fil10 {fill:url(#id3)}
    .fil8 {fill:url(#id4)}
   ]]>
  </style>
  <linearGradient id="id0" gradientUnits="userSpaceOnUse" x1="9671.03" y1="3828.3" x2="9966.91" y2="4634.5">
   <stop offset="0" style="stop-opacity:1; stop-color:#4BAF4B"/>
   <stop offset="0.678431" style="stop-opacity:1; stop-color:#265826"/>
   <stop offset="1" style="stop-opacity:1; stop-color:black"/>
  </linearGradient>
  <linearGradient id="id1" gradientUnits="userSpaceOnUse" x1="7405.55" y1="3672.63" x2="7688.05" y2="4617.89">
   <stop offset="0" style="stop-opacity:1; stop-color:#4BAF4B"/>
   <stop offset="0.529412" style="stop-opacity:1; stop-color:#376937"/>
   <stop offset="1" style="stop-opacity:1; stop-color:#222222"/>
  </linearGradient>
  <linearGradient id="id2" gradientUnits="userSpaceOnUse" x1="8274.77" y1="2922.93" x2="8709.38" y2="1879.87">
   <stop offset="0" style="stop-opacity:1; stop-color:#4BAF4B"/>
   <stop offset="0.65098" style="stop-opacity:1; stop-color:#3B5826"/>
   <stop offset="1" style="stop-opacity:1; stop-color:#2B0000"/>
  </linearGradient>
  <linearGradient id="id3" gradientUnits="userSpaceOnUse" x1="9529.14" y1="2852.53" x2="10112.31" y2="3758.9">
   <stop offset="0" style="stop-opacity:1; stop-color:#4BAF4B"/>
   <stop offset="0.670588" style="stop-opacity:1; stop-color:#265826"/>
   <stop offset="1" style="stop-opacity:1; stop-color:black"/>
  </linearGradient>
  <linearGradient id="id4" gradientUnits="userSpaceOnUse" x1="7833.09" y1="4384.34" x2="8657.09" y2="4376.28">
   <stop offset="0" style="stop-opacity:1; stop-color:#4BAF4B"/>
   <stop offset="0.631373" style="stop-opacity:1; stop-color:#265826"/>
   <stop offset="1" style="stop-opacity:1; stop-color:black"/>
  </linearGradient>
 </defs>
 <g id="Layer_x0020_1">
  <metadata id="CorelCorpID_0Corel-Layer"/>
  <g id="_1606645677760">
   <g>
    <path class="fil0" d="M25400 423.33l0 7619.95c0,232.83 -285.77,423.33 -635.02,423.33l-24129.98 0c-349.25,0 -635,-190.5 -635,-423.33l0 -7619.95c0,-232.83 285.75,-423.33 635,-423.33l24129.98 0c349.25,0 635.02,190.5 635.02,423.33z"/>
    <path class="fil1" d="M635 8466.61l6300.42 0 12066.2 0 -18776.12 -8366.13c-137.45,77.67 -225.18,193.41 -225.48,322.18l-0.02 2876.34 0 4744.28c0,232.83 285.75,423.33 635,423.33z"/>
    <path class="fil2" d="M635 8466.61l5282 0 10294.37 0 -16211.37 -7356.57 0 6933.24c0,232.83 285.75,423.33 635,423.33z"/>
    <path class="fil3" d="M-0 8043.28l0 -5657.8c2546.98,1157.94 6996.52,3184.98 13348.65,6081.13l-5201.27 0 -7512.38 0c-349.25,0 -635,-190.5 -635,-423.33z"/>
    <path class="fil4" d="M3591.65 8466.61l5626.01 0c-6145.11,-4319.8 -9217.66,-6479.71 -9217.66,-6479.71l0 2365.04 0.02 3692.02c0.56,232.51 286.08,422.65 634.98,422.65l2956.65 0z"/>
    <path class="fil1" d="M24764.98 0l-10391.25 0c7350.84,3595.59 11026.27,5393.39 11026.27,5393.39l0 -809.8 -0.03 -4161.62c-1.12,-232.21 -286.42,-421.97 -634.99,-421.97z"/>
    <path class="fil2" d="M25400 423.33l0 175.81 -0.03 3391.25c-5746.75,-2660.26 -8620.11,-3990.39 -8620.11,-3990.39l7985.12 0c349.25,0 635.02,190.5 635.02,423.33z"/>
    <path class="fil3" d="M24764.98 0l-9869.44 0c7002.95,1231.76 10504.43,1847.65 10504.43,1847.65l0 -1425.68c-1.12,-232.21 -286.42,-421.97 -634.99,-421.97z"/>
   </g>
   <g>
    <g>
     <path class="fil5" d="M9991.6 3937.39l0.05 -1000.53c0,0 -178.28,102.62 -530.35,305.3l-1.42 1002.21 531.72 -306.98z"/>
     <polygon class="fil6" points="9991.64,4550.51 9991.6,3937.39 8063.12,5050.73 8594.19,5357.34 "/>
     <polygon class="fil7" points="7727.05,3858.46 7727.05,2630.66 7196.69,2936.85 7196.7,4163.93 "/>
     <path class="fil8" d="M7726.08 4856.15l340.62 -196.66 -2.09 -610.11 -867.94 501.1c57.95,33.38 240.4,138.84 529.41,305.67z"/>
     <path class="fil9" d="M8064.23 4660.92c-0.1,-948.19 -0.17,-2224.83 -0.17,-2224.83 353.06,203.68 529.58,305.52 529.58,305.52 0,540.73 0,1611.68 0,1611.68 -352.94,203.77 -529.41,307.63 -529.41,307.63z"/>
     <path class="fil10" d="M8064.06 2436.08c931.49,537.39 1397.24,806.08 1397.24,806.08 352.07,-202.68 530.35,-305.3 530.35,-305.3 -930.16,-538.75 -1397.48,-806.83 -1397.48,-806.83 -353.41,204.03 -530.11,306.05 -530.11,306.05z"/>
    </g>
    <g>
     <path class="fil11" d="M11117.19 3674.67c-68.23,-9.3 -122.5,-63.58 -131.81,-131.81l0 -758.29 -193.83 0 0 739.68c0,54.28 12.4,105.45 35.66,151.97 32.57,68.23 88.39,124.06 156.62,158.17 46.52,23.26 97.7,35.67 151.97,35.67l550.5 0 0 -193.84 -569.11 -1.55z"/>
     <polygon id="1" class="fil11" points="12035.2,3870.06 12035.2,2784.57 11841.37,2784.57 11841.37,3870.06 "/>
     <polygon id="2" class="fil11" points="12190.29,2784.57 12190.29,2978.41 12635.34,2978.41 12635.34,3870.06 12829.17,3870.06 12829.17,2978.41 13274.22,2978.41 13274.22,2784.57 "/>
     <path id="3" class="fil11" d="M13723.94 2978.41l792.41 0 0 -193.84 -792.41 0c-161.28,0 -291.54,131.81 -291.54,293.08l0 499.33c0,161.27 130.26,293.08 291.54,293.08l792.41 0 0 -193.84 -792.41 0c-54.28,0 -99.25,-44.97 -99.25,-99.24l0 -204.69 697.82 0 0 -193.84 -697.82 0 0 -100.8c0,-54.27 44.97,-99.24 99.25,-99.24z"/>
     <path id="4" class="fil11" d="M14671.42 2784.57l0 1085.49 542.75 0c148.87,0 283.78,-60.48 381.47,-159.72 10.86,-10.86 21.71,-21.71 31.02,-32.57 80.63,-94.59 128.7,-217.09 128.7,-350.46 0,-300.83 -243.46,-542.74 -542.74,-542.74l-541.2 0zm192.28 193.84l348.92 0c192.29,0 348.91,156.88 348.91,349.68 0,192.8 -156.62,349.68 -348.91,349.68l-348.92 0 0 -699.36z"/>
     <path id="5" class="fil11" d="M16205.07 2978.41l792.42 0 0 -193.84 -792.42 0c-161.28,0 -291.53,131.81 -291.53,293.08l0 499.33c0,161.27 130.25,293.08 291.53,293.08l792.42 0 0 -193.84 -792.42 0c-54.28,0 -99.25,-44.97 -99.25,-99.24l0 -204.69 697.83 0 0 -193.84 -697.83 0 0 -100.8c0,-54.27 44.97,-99.24 99.25,-99.24z"/>
     <path id="6" class="fil11" d="M17113.79 3874.71l3.1 -3.1 -3.1 0 0 3.1zm1085.5 -3.1l-1.55 0 1.55 3.1 0 -3.1zm0 -1087.04l-243.46 0 -297.75 386.64 -297.73 -386.64 -245.01 0 420.24 545.07 -417.14 541.97 245.01 0 296.18 -383.54 296.2 383.54 245.01 0 -418.7 -541.97 420.25 -545.07 -3.1 0z"/>
     <path class="fil11" d="M11686.64 4703.01c-9.62,0 -17.21,-2.59 -22.76,-7.77 -5.55,-5.18 -8.33,-12.4 -8.33,-21.65l0 -287.6c0,-24.06 7.04,-42.93 21.1,-56.63 14.07,-13.69 33.68,-20.54 58.85,-20.54l94.39 0c54.78,0 96.32,11.47 124.64,34.42 28.31,22.95 42.47,56.82 42.47,101.6 0,44.05 -13.97,77.45 -41.92,100.22 -27.94,22.76 -68.75,34.14 -122.42,34.14l-113.81 0 0 94.39c0,8.88 -2.97,16 -8.89,21.37 -5.92,5.37 -13.69,8.05 -23.32,8.05zm145.47 -173.78c67.36,0 101.04,-28.13 101.04,-84.39 0,-29.61 -8.42,-51.44 -25.26,-65.51 -16.84,-14.06 -41.92,-21.1 -75.23,-21.1l-88.28 0c-8.14,0 -14.43,2.59 -18.87,7.78 -4.44,5.18 -6.66,12.21 -6.66,21.09l0 142.13 113.26 0z"/>
     <path id="1" class="fil11" d="M12410.82 4386.55c0,-24.06 7.03,-43.03 21.1,-56.91 14.06,-13.88 33.86,-20.82 59.4,-20.82l100.49 0c53.67,0 94.11,10.73 121.31,32.2 27.21,21.47 40.81,53.12 40.81,94.94 0,39.61 -12.03,70.33 -36.09,92.16 -24.06,21.84 -57.37,32.76 -99.93,32.76l92.16 93.27c5.92,5.93 8.88,12.4 8.88,19.44 0,7.77 -3.7,14.8 -11.1,21.09 -7.03,5.19 -13.88,7.78 -20.54,7.78 -9.26,0 -18.14,-4.44 -26.65,-13.33l-122.15 -126.58 -62.73 0 0 110.48c0,9.25 -3.06,16.56 -9.16,21.93 -6.11,5.37 -13.98,8.05 -23.6,8.05 -9.99,0 -17.86,-2.68 -23.6,-8.05 -5.73,-5.37 -8.6,-12.68 -8.6,-21.93l0 -286.48zm180.44 124.92c35.53,0 60.61,-5.65 75.23,-16.94 14.62,-11.28 21.93,-30.81 21.93,-58.57 0,-27.02 -7.96,-46.45 -23.88,-58.3 -15.91,-11.84 -40.34,-17.76 -73.28,-17.76l-90.5 0c-7.77,0 -13.88,2.5 -18.32,7.49 -4.44,5 -6.66,11.94 -6.66,20.82l0 123.26 115.48 0z"/>
     <path id="2" class="fil11" d="M13349.29 4703.01c-41.09,0 -77.08,-8.33 -107.99,-24.98 -30.9,-16.66 -54.69,-40.16 -71.34,-70.51 -16.66,-30.35 -24.99,-65.15 -24.99,-104.38 0,-39.23 8.33,-74.03 24.99,-104.38 16.65,-30.35 40.44,-53.85 71.34,-70.51 30.91,-16.65 66.9,-24.98 107.99,-24.98 41.08,0 77.08,8.33 107.99,24.98 30.91,16.66 54.69,40.16 71.35,70.51 16.65,30.35 24.98,65.15 24.98,104.38 0,39.23 -8.33,74.03 -24.98,104.38 -16.66,30.35 -40.44,53.85 -71.35,70.51 -30.91,16.65 -66.91,24.98 -107.99,24.98zm0 -50.52c43.3,0 77.54,-13.33 102.71,-39.98 25.18,-26.65 37.76,-63.1 37.76,-109.37 0,-46.64 -12.86,-83.19 -38.59,-109.65 -25.73,-26.47 -60.8,-39.7 -105.21,-39.7 -28.13,0 -52.56,6.11 -73.29,18.32 -20.73,12.22 -36.64,29.61 -47.75,52.19 -11.1,22.58 -16.65,48.86 -16.65,78.84 0,30.72 5.73,57.28 17.21,79.67 11.47,22.39 27.76,39.61 48.86,51.63 21.09,12.03 46.08,18.05 74.95,18.05z"/>
     <path id="3" class="fil11" d="M14089 4703.01c-9.62,0 -17.3,-2.59 -23.04,-7.77 -5.74,-5.18 -8.61,-12.4 -8.61,-21.65l0 -315.36 -113.81 0c-9.63,0 -17.03,-2.13 -22.21,-6.38 -5.18,-4.26 -7.77,-10.27 -7.77,-18.05 0,-8.14 2.59,-14.34 7.77,-18.6 5.18,-4.25 12.58,-6.38 22.21,-6.38l290.92 0c9.63,0 17.12,2.13 22.49,6.38 5.36,4.26 8.05,10.46 8.05,18.6 0,7.78 -2.69,13.79 -8.05,18.05 -5.37,4.25 -12.86,6.38 -22.49,6.38l-113.81 0 0 315.36c0,8.88 -2.87,16 -8.61,21.37 -5.74,5.37 -13.42,8.05 -23.04,8.05z"/>
     <path id="4" class="fil11" d="M14829.26 4703.01c-41.09,0 -77.08,-8.33 -107.99,-24.98 -30.9,-16.66 -54.69,-40.16 -71.34,-70.51 -16.66,-30.35 -24.99,-65.15 -24.99,-104.38 0,-39.23 8.33,-74.03 24.99,-104.38 16.65,-30.35 40.44,-53.85 71.34,-70.51 30.91,-16.65 66.9,-24.98 107.99,-24.98 41.08,0 77.09,8.33 107.99,24.98 30.91,16.66 54.69,40.16 71.35,70.51 16.65,30.35 24.98,65.15 24.98,104.38 0,39.23 -8.33,74.03 -24.98,104.38 -16.66,30.35 -40.44,53.85 -71.35,70.51 -30.9,16.65 -66.91,24.98 -107.99,24.98zm0 -50.52c43.3,0 77.55,-13.33 102.72,-39.98 25.17,-26.65 37.75,-63.1 37.75,-109.37 0,-46.64 -12.86,-83.19 -38.58,-109.65 -25.73,-26.47 -60.81,-39.7 -105.22,-39.7 -28.13,0 -52.56,6.11 -73.29,18.32 -20.73,12.22 -36.64,29.61 -47.75,52.19 -11.1,22.58 -16.65,48.86 -16.65,78.84 0,30.72 5.73,57.28 17.21,79.67 11.47,22.39 27.76,39.61 48.86,51.63 21.09,12.03 46.08,18.05 74.95,18.05z"/>
     <path id="5" class="fil11" d="M15638.93 4703.01c-40.72,0 -76.16,-8.05 -106.32,-24.15 -30.17,-16.1 -53.3,-39.14 -69.4,-69.12 -16.1,-29.98 -24.16,-65.33 -24.16,-106.04 0,-40.72 8.06,-76.16 24.16,-106.33 16.1,-30.16 39.14,-53.39 69.12,-69.67 29.98,-16.29 65.33,-24.43 106.04,-24.43 33.31,0 64.22,5.74 92.72,17.21 28.5,11.47 49.97,27.02 64.4,46.64 4.07,5.92 6.11,11.29 6.11,16.1 0,8.14 -4.26,15.36 -12.77,21.65 -4.81,2.96 -9.81,4.44 -14.99,4.44 -4.81,0 -9.53,-1.11 -14.16,-3.33 -4.62,-2.22 -8.6,-5.18 -11.93,-8.88 -12.22,-14.81 -27.3,-25.73 -45.25,-32.76 -17.95,-7.03 -39.33,-10.55 -64.13,-10.55 -42.56,0 -75.78,13.23 -99.66,39.7 -23.87,26.46 -35.81,63.2 -35.81,110.21 0,46.26 12.03,82.63 36.09,109.09 24.06,26.47 57.37,39.7 99.94,39.7 50.33,0 89.01,-14.44 116.03,-43.31 8.89,-8.88 17.96,-13.32 27.21,-13.32 5.92,0 11.29,1.85 16.1,5.55 7.4,6.29 11.1,13.14 11.1,20.54 0,6.3 -2.22,12.22 -6.66,17.77 -15.91,19.62 -38.31,35.07 -67.18,46.36 -28.87,11.29 -61.07,16.93 -96.6,16.93z"/>
     <path id="6" class="fil11" d="M16419.17 4703.01c-41.09,0 -77.09,-8.33 -108,-24.98 -30.9,-16.66 -54.69,-40.16 -71.34,-70.51 -16.66,-30.35 -24.99,-65.15 -24.99,-104.38 0,-39.23 8.33,-74.03 24.99,-104.38 16.65,-30.35 40.44,-53.85 71.34,-70.51 30.91,-16.65 66.91,-24.98 108,-24.98 41.08,0 77.08,8.33 107.98,24.98 30.91,16.66 54.69,40.16 71.35,70.51 16.65,30.35 24.98,65.15 24.98,104.38 0,39.23 -8.33,74.03 -24.98,104.38 -16.66,30.35 -40.44,53.85 -71.35,70.51 -30.9,16.65 -66.9,24.98 -107.98,24.98zm0 -50.52c43.3,0 77.54,-13.33 102.71,-39.98 25.17,-26.65 37.75,-63.1 37.75,-109.37 0,-46.64 -12.86,-83.19 -38.58,-109.65 -25.73,-26.47 -60.8,-39.7 -105.21,-39.7 -28.13,0 -52.56,6.11 -73.3,18.32 -20.73,12.22 -36.64,29.61 -47.75,52.19 -11.1,22.58 -16.65,48.86 -16.65,78.84 0,30.72 5.73,57.28 17.21,79.67 11.47,22.39 27.76,39.61 48.86,51.63 21.1,12.03 46.09,18.05 74.96,18.05z"/>
     <path id="7" class="fil11" d="M17120.56 4697.46c-25.91,0 -46.17,-6.94 -60.79,-20.82 -14.62,-13.88 -21.93,-33.22 -21.93,-58.02l0 -285.93c0,-9.25 2.77,-16.47 8.33,-21.65 5.55,-5.18 13.14,-7.77 22.76,-7.77 9.62,0 17.3,2.68 23.04,8.05 5.74,5.37 8.61,12.49 8.61,21.37l0 286.49c0,8.88 2.31,15.91 6.94,21.09 4.62,5.19 11.01,7.78 19.15,7.78l179.88 0c19.99,0 29.99,8.33 29.99,24.98 0,7.77 -2.6,13.79 -7.78,18.05 -5.18,4.25 -12.58,6.38 -22.21,6.38l-185.99 0z"/>
    </g>
   </g>
   <g>
    <polygon class="fil12 str0" points="9149.84,6879.48 9149.84,6252.35 9037.86,6252.35 9037.86,6879.48 "/>
   </g>
   <g>
    <polygon id="1" class="fil12 str0" points="9754.58,6252.35 9754.58,6651.32 9351.42,6340.89 9239.44,6255.04 9239.44,6879.48 9351.42,6879.48 9351.42,6483.19 9754.58,6793.62 9866.57,6879.48 9866.57,6253.25 "/>
   </g>
   <g>
    <polygon id="2" class="fil12 str0" points="9956.16,6252.35 9956.16,6364.34 10213.28,6364.34 10213.28,6879.48 10325.27,6879.48 10325.27,6364.34 10582.39,6364.34 10582.39,6252.35 "/>
   </g>
   <g>
    <path id="3" class="fil12 str0" d="M11089.47 6590.1c0,0 0,0 0,0 17.02,-1.79 33.15,-6.27 48.38,-13.43 58.23,-26.88 98.55,-86.01 98.55,-154.1 0,-46.59 -18.82,-88.69 -49.28,-119.15 -30.46,-30.46 -72.57,-49.28 -119.15,-49.28l-395.99 0 0 627.13 111.99 0 0 -288.48 111.98 0c40.32,0 75.26,21.5 94.97,53.76l2.69 5.37 60.02 117.36 57.34 111.99 125.43 0 -57.34 -111.99 -89.59 -179.18zm-305.5 -108.4l0 -115.57 284 0c19.71,0 33.15,8.96 40.31,16.13 6.27,6.27 17.02,20.6 17.02,41.21 0,22.39 -13.43,43 -34.04,51.96 -7.17,3.58 -15.23,5.37 -23.29,5.37l-284 0.9z"/>
   </g>
   <g>
    <path id="4" class="fil12 str0" d="M11618.95 6252.35c-172.91,0 -313.57,140.66 -313.57,313.56 0,172.91 140.66,313.57 313.57,313.57 172.91,0 313.56,-140.66 313.56,-313.57 0,-172.9 -140.65,-313.56 -313.56,-313.56zm0 515.14c-111.09,0 -201.58,-90.48 -201.58,-201.58 0,-111.09 90.49,-201.57 201.58,-201.57 111.09,0 201.58,90.48 201.58,201.57 0,111.1 -90.49,201.58 -201.58,201.58z"/>
   </g>
   <g>
    <path id="5" class="fil12 str0" d="M12314.17 6252.35l-313.56 0 0 627.13 313.56 0c86.01,0 163.95,-34.94 220.39,-92.28 6.27,-6.27 12.54,-12.54 17.92,-18.81 46.59,-54.65 74.36,-125.43 74.36,-202.48 0,-173.8 -140.66,-313.56 -313.57,-313.56l0.9 0zm-0.9 516.04l-201.57 0 0 -404.05 201.57 0c111.1,0 201.58,90.63 201.58,202.02 0,111.39 -90.48,202.03 -201.58,202.03z"/>
   </g>
   <g>
    <path id="6" class="fil12 str0" d="M13232.47 6252.35l0 313.56c0,111.1 -90.49,201.58 -201.58,201.58 -111.09,0 -201.58,-90.48 -201.58,-201.58l0 -313.56 -111.98 0 0 313.56c0,172.91 140.65,313.57 313.56,313.57 172.91,0 313.57,-140.66 313.57,-313.57l0 -313.56 -111.99 0z"/>
   </g>
   <g>
    <path id="7" class="fil12 str0" d="M13738.65 6364.34l313.57 0 0 -111.99 -313.57 0c-172.91,0 -313.56,140.66 -313.56,313.56 0,172.91 140.65,313.57 313.56,313.57l313.57 0 0 -111.99 -313.57 0c-111.09,0 -201.58,-90.48 -201.58,-201.58 0,-111.09 90.49,-201.57 201.58,-201.57z"/>
   </g>
   <g>
    <polygon id="8" class="fil12 str0" points="14141.81,6252.35 14141.81,6364.34 14398.93,6364.34 14398.93,6879.48 14510.92,6879.48 14510.92,6364.34 14768.04,6364.34 14768.04,6252.35 "/>
   </g>
   <g>
    <polygon id="9" class="fil12 str0" points="14970.51,6879.48 14970.51,6252.35 14858.53,6252.35 14858.53,6879.48 "/>
   </g>
   <g>
    <path id="10" class="fil12 str0" d="M15352.17 6252.35c-172.91,0 -313.57,140.66 -313.57,313.56 0,172.91 140.66,313.57 313.57,313.57 172.91,0 313.56,-140.66 313.56,-313.57 0,-172.9 -140.65,-313.56 -313.56,-313.56zm0 515.14c-111.09,0 -201.58,-90.48 -201.58,-201.58 0,-111.09 90.49,-201.57 201.58,-201.57 111.09,0 201.58,90.48 201.58,201.57 0,111.1 -90.49,201.58 -201.58,201.58z"/>
   </g>
   <g>
    <polygon id="11" class="fil12 str0" points="16248.97,6252.35 16248.97,6651.32 15845.81,6340.89 15733.83,6255.04 15733.83,6879.48 15845.81,6879.48 15845.81,6483.19 16248.97,6793.62 16360.96,6879.48 16360.96,6253.25 "/>
   </g>
   <polygon id="12" class="fil13" points="9149.84,6879.48 9149.84,6252.35 9037.86,6252.35 9037.86,6879.48 "/>
   <polygon id="13" class="fil13" points="9754.58,6252.35 9754.58,6651.32 9351.42,6340.89 9239.44,6255.04 9239.44,6879.48 9351.42,6879.48 9351.42,6483.19 9754.58,6793.62 9866.57,6879.48 9866.57,6253.25 "/>
   <polygon id="14" class="fil13" points="9956.16,6252.35 9956.16,6364.34 10213.28,6364.34 10213.28,6879.48 10325.27,6879.48 10325.27,6364.34 10582.39,6364.34 10582.39,6252.35 "/>
   <path id="15" class="fil13" d="M11089.47 6590.1c0,0 0,0 0,0 17.02,-1.79 33.15,-6.27 48.38,-13.43 58.23,-26.88 98.55,-86.01 98.55,-154.1 0,-46.59 -18.82,-88.69 -49.28,-119.15 -30.46,-30.46 -72.57,-49.28 -119.15,-49.28l-395.99 0 0 627.13 111.99 0 0 -288.48 111.98 0c40.32,0 75.26,21.5 94.97,53.76l2.69 5.37 60.02 117.36 57.34 111.99 125.43 0 -57.34 -111.99 -89.59 -179.18zm-305.5 -108.4l0 -115.57 284 0c19.71,0 33.15,8.96 40.31,16.13 6.27,6.27 17.02,20.6 17.02,41.21 0,22.39 -13.43,43 -34.04,51.96 -7.17,3.58 -15.23,5.37 -23.29,5.37l-284 0.9z"/>
   <path id="16" class="fil13" d="M11618.95 6252.35c-172.91,0 -313.57,140.66 -313.57,313.56 0,172.91 140.66,313.57 313.57,313.57 172.91,0 313.56,-140.66 313.56,-313.57 0,-172.9 -140.65,-313.56 -313.56,-313.56zm0 515.14c-111.09,0 -201.58,-90.48 -201.58,-201.58 0,-111.09 90.49,-201.57 201.58,-201.57 111.09,0 201.58,90.48 201.58,201.57 0,111.1 -90.49,201.58 -201.58,201.58z"/>
   <path id="17" class="fil13" d="M12314.17 6252.35l-313.56 0 0 627.13 313.56 0c86.01,0 163.95,-34.94 220.39,-92.28 6.27,-6.27 12.54,-12.54 17.92,-18.81 46.59,-54.65 74.36,-125.43 74.36,-202.48 0,-173.8 -140.66,-313.56 -313.57,-313.56l0.9 0zm-0.9 516.04l-201.57 0 0 -404.05 201.57 0c111.1,0 201.58,90.63 201.58,202.02 0,111.39 -90.48,202.03 -201.58,202.03z"/>
   <path id="18" class="fil13" d="M13232.47 6252.35l0 313.56c0,111.1 -90.49,201.58 -201.58,201.58 -111.09,0 -201.58,-90.48 -201.58,-201.58l0 -313.56 -111.98 0 0 313.56c0,172.91 140.65,313.57 313.56,313.57 172.91,0 313.57,-140.66 313.57,-313.57l0 -313.56 -111.99 0z"/>
   <path id="19" class="fil13" d="M13738.65 6364.34l313.57 0 0 -111.99 -313.57 0c-172.91,0 -313.56,140.66 -313.56,313.56 0,172.91 140.65,313.57 313.56,313.57l313.57 0 0 -111.99 -313.57 0c-111.09,0 -201.58,-90.48 -201.58,-201.58 0,-111.09 90.49,-201.57 201.58,-201.57z"/>
   <polygon id="20" class="fil13" points="14141.81,6252.35 14141.81,6364.34 14398.93,6364.34 14398.93,6879.48 14510.92,6879.48 14510.92,6364.34 14768.04,6364.34 14768.04,6252.35 "/>
   <polygon id="21" class="fil13" points="14970.51,6879.48 14970.51,6252.35 14858.53,6252.35 14858.53,6879.48 "/>
   <path id="22" class="fil13" d="M15352.17 6252.35c-172.91,0 -313.57,140.66 -313.57,313.56 0,172.91 140.66,313.57 313.57,313.57 172.91,0 313.56,-140.66 313.56,-313.57 0,-172.9 -140.65,-313.56 -313.56,-313.56zm0 515.14c-111.09,0 -201.58,-90.48 -201.58,-201.58 0,-111.09 90.49,-201.57 201.58,-201.57 111.09,0 201.58,90.48 201.58,201.57 0,111.1 -90.49,201.58 -201.58,201.58z"/>
   <polygon id="23" class="fil13" points="16248.97,6252.35 16248.97,6651.32 15845.81,6340.89 15733.83,6255.04 15733.83,6879.48 15845.81,6879.48 15845.81,6483.19 16248.97,6793.62 16360.96,6879.48 16360.96,6253.25 "/>
  </g>
 </g>
</svg>
