<?xml version="1.0" encoding="UTF-8"?>
<!DOCTYPE svg PUBLIC "-//W3C//DTD SVG 1.1//EN" "http://www.w3.org/Graphics/SVG/1.1/DTD/svg11.dtd">
<!-- Creator: CorelDRAW 2018 (64-Bit) -->
<svg xmlns="http://www.w3.org/2000/svg" xml:space="preserve" width="254mm" height="84.6668mm" version="1.1" style="shape-rendering:geometricPrecision; text-rendering:geometricPrecision; image-rendering:optimizeQuality; fill-rule:evenodd; clip-rule:evenodd"
viewBox="0 0 25400.26 8466.77"
 xmlns:xlink="http://www.w3.org/1999/xlink">
 <defs>
  <style type="text/css">
   <![CDATA[
    .str3 {stroke:#003D00;stroke-width:20;stroke-miterlimit:22.9256}
    .str5 {stroke:#EA8823;stroke-width:20;stroke-miterlimit:22.9256}
    .str9 {stroke:white;stroke-width:20;stroke-miterlimit:22.9256}
    .str7 {stroke:#DA7D2D;stroke-width:7.62;stroke-miterlimit:22.9256}
    .str6 {stroke:#EA8823;stroke-width:7.62;stroke-miterlimit:10}
    .str8 {stroke:#FEEA3B;stroke-width:7.62;stroke-miterlimit:22.9256}
    .str4 {stroke:#003D00;stroke-width:100;stroke-linecap:round;stroke-linejoin:round;stroke-miterlimit:22.9256}
    .str10 {stroke:white;stroke-width:57.35;stroke-linecap:round;stroke-linejoin:round;stroke-miterlimit:22.9256}
    .str1 {stroke:white;stroke-width:250;stroke-linecap:round;stroke-linejoin:round;stroke-miterlimit:22.9256}
    .str2 {stroke:white;stroke-width:250;stroke-linecap:round;stroke-linejoin:round;stroke-miterlimit:10}
    .str0 {stroke:white;stroke-width:250;stroke-linecap:round;stroke-linejoin:round;stroke-miterlimit:22.9256}
    .fil15 {fill:none}
    .fil17 {fill:none;fill-rule:nonzero}
    .fil16 {fill:black}
    .fil0 {fill:#001501}
    .fil19 {fill:#003D00}
    .fil9 {fill:#1EC01E}
    .fil26 {fill:#DA7D2D}
    .fil33 {fill:#E3FFEA}
    .fil22 {fill:#FDCF0A}
    .fil27 {fill:#FEEA3B}
    .fil7 {fill:white}
    .fil31 {fill:#004704;fill-rule:nonzero}
    .fil32 {fill:#008707;fill-rule:nonzero}
    .fil30 {fill:#00B509;fill-rule:nonzero}
    .fil28 {fill:#157D15;fill-rule:nonzero}
    .fil14 {fill:#1EC01E;fill-rule:nonzero}
    .fil29 {fill:#E3FFEA;fill-rule:nonzero}
    .fil20 {fill:#EA8823;fill-rule:nonzero}
    .fil24 {fill:#FAAB28;fill-rule:nonzero}
    .fil21 {fill:#FBDE18;fill-rule:nonzero}
    .fil23 {fill:#FDB427;fill-rule:nonzero}
    .fil18 {fill:white;fill-rule:nonzero}
    .fil25 {fill:#F7DB5E;fill-rule:nonzero;fill-opacity:0.600000}
    .fil3 {fill:url(#id2)}
    .fil1 {fill:url(#id3)}
    .fil4 {fill:url(#id4)}
    .fil2 {fill:url(#id5)}
    .fil6 {fill:url(#id6)}
    .fil5 {fill:url(#id7)}
    .fil10 {fill:url(#id8)}
    .fil8 {fill:url(#id9)}
    .fil11 {fill:url(#id10)}
    .fil12 {fill:url(#id11)}
    .fil13 {fill:url(#id12)}
   ]]>
  </style>
     <mask id="id0">
  <linearGradient id="id1" gradientUnits="userSpaceOnUse" x1="4341.25" y1="1101.56" x2="4556.31" y2="1288.38">
   <stop offset="0" style="stop-opacity:1; stop-color:white"/>
   <stop offset="1" style="stop-opacity:0; stop-color:white"/>
  </linearGradient>
      <rect style="fill:url(#id1)" x="751.44" y="564.93" width="4428.26" height="1139.84"/>
     </mask>
  <linearGradient id="id2" gradientUnits="userSpaceOnUse" x1="18193.42" y1="6331.44" x2="25004.02" y2="2912.6">
   <stop offset="0" style="stop-opacity:1; stop-color:#157D15"/>
   <stop offset="1" style="stop-opacity:1; stop-color:#001501"/>
  </linearGradient>
  <linearGradient id="id3" gradientUnits="userSpaceOnUse" x1="15659.89" y1="-217.1" x2="20738.82" y2="8683.87">
   <stop offset="0" style="stop-opacity:1; stop-color:#1BAB1B"/>
   <stop offset="1" style="stop-opacity:1; stop-color:#001501"/>
  </linearGradient>
  <linearGradient id="id4" gradientUnits="userSpaceOnUse" xlink:href="#id3" x1="24316.56" y1="1355.33" x2="12082.15" y2="7111.43">
  </linearGradient>
  <linearGradient id="id5" gradientUnits="userSpaceOnUse" xlink:href="#id3" x1="4456.71" y1="9445.4" x2="23597.26" y2="925">
  </linearGradient>
  <linearGradient id="id6" gradientUnits="userSpaceOnUse" xlink:href="#id3" x1="3592.91" y1="4295.18" x2="5577.64" y2="8890.67">
  </linearGradient>
  <linearGradient id="id7" gradientUnits="userSpaceOnUse" xlink:href="#id3" x1="12653.98" y1="9959.34" x2="4719.83" y2="627.72">
  </linearGradient>
  <linearGradient id="id8" gradientUnits="userSpaceOnUse" x1="1101.75" y1="1115.21" x2="1179.83" y2="1376.47">
   <stop offset="0" style="stop-opacity:1; stop-color:#1EC01E"/>
   <stop offset="0.529412" style="stop-opacity:1; stop-color:#1D6E1D"/>
   <stop offset="1" style="stop-opacity:1; stop-color:#1C1C1C"/>
  </linearGradient>
  <linearGradient id="id9" gradientUnits="userSpaceOnUse" x1="1727.91" y1="1158.24" x2="1809.69" y2="1381.06">
   <stop offset="0" style="stop-opacity:1; stop-color:#1EC01E"/>
   <stop offset="0.678431" style="stop-opacity:1; stop-color:#1D6E1D"/>
   <stop offset="1" style="stop-opacity:1; stop-color:#1C1C1C"/>
  </linearGradient>
  <linearGradient id="id10" gradientUnits="userSpaceOnUse" x1="1219.92" y1="1311.92" x2="1447.66" y2="1309.69">
   <stop offset="0" style="stop-opacity:1; stop-color:#1EC01E"/>
   <stop offset="0.631373" style="stop-opacity:1; stop-color:#1D6E1D"/>
   <stop offset="1" style="stop-opacity:1; stop-color:#1C1C1C"/>
  </linearGradient>
  <linearGradient id="id11" gradientUnits="userSpaceOnUse" x1="1341.99" y1="908" x2="1462.11" y2="619.72">
   <stop offset="0" style="stop-opacity:1; stop-color:#1EC01E"/>
   <stop offset="0.65098" style="stop-opacity:1; stop-color:#1D6E1D"/>
   <stop offset="1" style="stop-opacity:1; stop-color:#1C1C1C"/>
  </linearGradient>
  <linearGradient id="id12" gradientUnits="userSpaceOnUse" x1="1688.7" y1="888.55" x2="1849.88" y2="1139.06">
   <stop offset="0" style="stop-opacity:1; stop-color:#1EC01E"/>
   <stop offset="0.670588" style="stop-opacity:1; stop-color:#1D6E1D"/>
   <stop offset="1" style="stop-opacity:1; stop-color:#1C1C1C"/>
  </linearGradient>
 </defs>
 <g id="Layer_x0020_1">
  <metadata id="CorelCorpID_0Corel-Layer"/>
  <g id="_2288085947760">
   <g>
    <path class="fil0" d="M-0 8043.42l0 -7620.08c0,-232.84 190.49,-423.34 423.33,-423.34l24553.59 0c232.84,0 423.33,190.5 423.33,423.34l0 7620.08c0,232.84 -190.49,423.34 -423.33,423.34l-24553.59 0c-232.84,0 -423.33,-190.5 -423.33,-423.34z"/>
    <path class="fil1" d="M25400.26 8043.42l0 -7620.08c0,-232.84 -190.49,-423.34 -423.33,-423.34l-13978.47 0 14236.17 8378.68c100.56,-77.58 165.64,-199.17 165.64,-335.25z"/>
    <path class="fil2" d="M2653.71 8466.77l22323.22 0c232.84,0 423.33,-190.5 423.33,-423.34l0 -6139.79 -22746.55 6563.14z"/>
    <path class="fil3" d="M20588.19 5644.03c-67.7,68.47 -134.54,136.07 -200.51,202.79 -1109.35,1121.96 -1972.85,1995.27 -2590.51,2619.95l7179.75 0c232.84,0 423.33,-190.5 423.33,-423.34l0 -2937.15 0 -4328.99c-1919.09,1940.9 -3523.12,3563.15 -4812.07,4866.75z"/>
    <path class="fil4" d="M21606.48 4614.17c-1991.71,-1154.66 -4644.74,-2692.72 -7959.1,-4614.17l-2648.93 0c3943.05,2320.68 7139.63,4202.02 9589.74,5644.03 79.18,46.6 157.57,92.73 235.19,138.41l4411.24 2596.24c100.56,-77.59 165.64,-199.17 165.64,-335.25l0 -1229.87c-507.89,-294.44 -1290.17,-747.96 -2346.86,-1360.56 -435.66,-252.56 -917.97,-532.18 -1446.91,-838.82z"/>
    <path class="fil5" d="M1.58 2120.29l-0.78 3136.91 -0.7 2794.26c4.33,229.17 193.08,415.3 423.23,415.3l16950.47 0 -17372.23 -6346.47z"/>
    <path class="fil6" d="M9170.54 8441.53l-5339.06 -2167.19 -3831.48 -1555.25 0 3324.33c0,222.76 174.35,406.74 393.33,422.26l8777.21 -24.16z"/>
   </g>
   <g>
    <polygon class="fil7" style="mask:url(#id0)" points="761.44,574.93 2483.6,574.93 2503.6,574.93 5169.69,574.93 4206.91,1694.77 2503.6,1694.77 2483.6,1694.77 761.44,1694.77 "/>
    <g>
     <g>
      <path class="fil8" d="M1816.51 1188.39l0.01 -276.54c0,0 -49.27,28.36 -146.58,84.38l-0.39 277 146.96 -84.84z"/>
      <polygon class="fil9" points="1816.52,1357.85 1816.51,1188.39 1283.49,1496.11 1430.27,1580.85 "/>
      <polygon class="fil10" points="1190.61,1166.57 1190.61,827.22 1044.02,911.85 1044.03,1251 "/>
      <path class="fil11" d="M1190.34 1442.32l94.14 -54.35 -0.58 -168.63 -239.88 138.5c16.01,9.22 66.44,38.37 146.32,84.48z"/>
      <path class="fil12" d="M1283.8 1388.36c-0.03,-262.07 -0.05,-614.93 -0.05,-614.93 97.58,56.3 146.37,84.45 146.37,84.45 0,149.45 0,445.45 0,445.45 -97.55,56.32 -146.32,85.02 -146.32,85.02z"/>
      <path class="fil13" d="M1283.75 773.44c257.45,148.53 386.18,222.79 386.18,222.79 97.31,-56.02 146.58,-84.38 146.58,-84.38 -257.08,-148.9 -386.24,-223 -386.24,-223 -97.68,56.4 -146.52,84.59 -146.52,84.59z"/>
     </g>
     <g>
      <path class="fil14" d="M2107.95 1116.21c-18.64,-2.54 -33.47,-17.37 -36.02,-36.02l0 -207.21 -52.96 0 0 202.13c0,14.83 3.39,28.81 9.74,41.52 8.9,18.65 24.16,33.9 42.8,43.22 12.71,6.36 26.7,9.75 41.53,9.75l150.42 0 0 -52.97 -155.51 -0.42z"/>
      <polygon id="1" class="fil14" points="2358.8,1169.6 2358.8,872.98 2305.84,872.98 2305.84,1169.6 "/>
      <polygon id="2" class="fil14" points="2401.18,872.98 2401.18,925.95 2522.8,925.95 2522.8,1169.6 2575.77,1169.6 2575.77,925.95 2697.38,925.95 2697.38,872.98 "/>
      <path id="3" class="fil14" d="M2820.26 925.95l216.55 0 0 -52.97 -216.55 0c-44.07,0 -79.66,36.02 -79.66,80.09l0 136.44c0,44.07 35.59,80.09 79.66,80.09l216.55 0 0 -52.97 -216.55 0c-14.83,0 -27.12,-12.29 -27.12,-27.12l0 -55.93 190.7 0 0 -52.97 -190.7 0 0 -27.54c0,-14.83 12.29,-27.12 27.12,-27.12z"/>
      <path id="4" class="fil14" d="M3079.18 872.98l0 296.62 148.31 0c40.68,0 77.54,-16.53 104.24,-43.65 2.96,-2.96 5.93,-5.93 8.47,-8.89 22.04,-25.85 35.17,-59.33 35.17,-95.77 0,-82.2 -66.53,-148.31 -148.31,-148.31l-147.88 0zm52.54 52.97l95.34 0c52.55,0 95.34,42.87 95.34,95.55 0,52.69 -42.79,95.56 -95.34,95.56l-95.34 0 0 -191.11z"/>
      <path id="5" class="fil14" d="M3498.26 925.95l216.54 0 0 -52.97 -216.54 0c-44.07,0 -79.66,36.02 -79.66,80.09l0 136.44c0,44.07 35.59,80.09 79.66,80.09l216.54 0 0 -52.97 -216.54 0c-14.83,0 -27.12,-12.29 -27.12,-27.12l0 -55.93 190.69 0 0 -52.97 -190.69 0 0 -27.54c0,-14.83 12.29,-27.12 27.12,-27.12z"/>
      <path id="6" class="fil14" d="M3746.57 1170.87l0.85 -0.85 -0.85 0 0 0.85zm296.63 -0.85l-0.42 0 0.42 0.85 0 -0.85zm0 -297.04l-66.53 0 -81.36 105.65 -81.36 -105.65 -66.95 0 114.83 148.95 -113.99 148.09 66.96 0 80.93 -104.8 80.94 104.8 66.96 0 -114.41 -148.09 114.83 -148.95 -0.85 0z"/>
      <path class="fil14" d="M2227.43 1396.73c-2.76,0 -4.93,-0.74 -6.52,-2.23 -1.59,-1.48 -2.38,-3.54 -2.38,-6.19l0 -82.3c0,-6.89 2.01,-12.29 6.04,-16.21 4.02,-3.92 9.63,-5.88 16.84,-5.88l27.01 0c15.67,0 27.56,3.29 35.67,9.85 8.1,6.57 12.15,16.26 12.15,29.08 0,12.6 -4,22.16 -12,28.68 -7.99,6.51 -19.67,9.77 -35.03,9.77l-32.57 0 0 27.01c0,2.54 -0.85,4.58 -2.54,6.12 -1.7,1.53 -3.92,2.3 -6.67,2.3zm41.62 -49.73c19.28,0 28.92,-8.05 28.92,-24.15 0,-8.47 -2.41,-14.72 -7.23,-18.75 -4.82,-4.02 -12,-6.04 -21.53,-6.04l-25.26 0c-2.33,0 -4.13,0.75 -5.4,2.23 -1.27,1.48 -1.91,3.49 -1.91,6.04l0 40.67 32.41 0z"/>
      <path id="1" class="fil14" d="M2434.66 1306.17c0,-6.89 2.01,-12.32 6.04,-16.29 4.02,-3.97 9.69,-5.96 17,-5.96l28.75 0c15.36,0 26.93,3.08 34.72,9.22 7.78,6.14 11.68,15.2 11.68,27.17 0,11.33 -3.45,20.12 -10.33,26.37 -6.88,6.25 -16.42,9.38 -28.6,9.38l26.38 26.69c1.69,1.69 2.54,3.55 2.54,5.56 0,2.22 -1.06,4.23 -3.18,6.04 -2.01,1.48 -3.97,2.22 -5.88,2.22 -2.65,0 -5.19,-1.27 -7.62,-3.81l-34.96 -36.23 -17.95 0 0 31.62c0,2.65 -0.88,4.74 -2.62,6.28 -1.75,1.53 -4,2.3 -6.76,2.3 -2.86,0 -5.11,-0.77 -6.75,-2.3 -1.64,-1.54 -2.46,-3.63 -2.46,-6.28l0 -81.98zm51.64 35.75c10.16,0 17.34,-1.62 21.52,-4.85 4.19,-3.23 6.28,-8.82 6.28,-16.76 0,-7.73 -2.28,-13.3 -6.83,-16.68 -4.56,-3.39 -11.55,-5.09 -20.97,-5.09l-25.9 0c-2.23,0 -3.97,0.72 -5.25,2.15 -1.27,1.43 -1.9,3.41 -1.9,5.95l0 35.28 33.05 0z"/>
      <path id="2" class="fil14" d="M2703.24 1396.73c-11.75,0 -22.05,-2.38 -30.91,-7.15 -8.84,-4.77 -15.65,-11.49 -20.42,-20.18 -4.76,-8.68 -7.14,-18.64 -7.14,-29.87 0,-11.23 2.38,-21.18 7.14,-29.87 4.77,-8.68 11.58,-15.41 20.42,-20.18 8.86,-4.76 19.16,-7.14 30.91,-7.14 11.76,0 22.06,2.38 30.91,7.14 8.84,4.77 15.64,11.5 20.41,20.18 4.77,8.69 7.15,18.64 7.15,29.87 0,11.23 -2.38,21.19 -7.15,29.87 -4.77,8.69 -11.57,15.41 -20.41,20.18 -8.85,4.77 -19.15,7.15 -30.91,7.15zm0 -14.46c12.4,0 22.19,-3.81 29.4,-11.44 7.2,-7.62 10.8,-18.06 10.8,-31.3 0,-13.34 -3.68,-23.8 -11.04,-31.38 -7.36,-7.57 -17.4,-11.36 -30.11,-11.36 -8.05,0 -15.04,1.75 -20.97,5.25 -5.94,3.49 -10.5,8.47 -13.68,14.93 -3.17,6.46 -4.76,13.98 -4.76,22.56 0,8.79 1.64,16.39 4.92,22.8 3.29,6.41 7.95,11.33 13.99,14.78 6.04,3.44 13.19,5.16 21.45,5.16z"/>
      <path id="3" class="fil14" d="M2914.93 1396.73c-2.75,0 -4.95,-0.74 -6.59,-2.23 -1.65,-1.48 -2.47,-3.54 -2.47,-6.19l0 -90.25 -32.57 0c-2.75,0 -4.87,-0.6 -6.35,-1.82 -1.48,-1.22 -2.23,-2.94 -2.23,-5.17 0,-2.33 0.75,-4.1 2.23,-5.32 1.48,-1.22 3.6,-1.83 6.35,-1.83l83.26 0c2.75,0 4.9,0.61 6.43,1.83 1.54,1.22 2.31,2.99 2.31,5.32 0,2.23 -0.77,3.95 -2.31,5.17 -1.53,1.22 -3.68,1.82 -6.43,1.82l-32.57 0 0 90.25c0,2.54 -0.82,4.58 -2.47,6.12 -1.64,1.53 -3.84,2.3 -6.59,2.3z"/>
      <path id="4" class="fil14" d="M3126.77 1396.73c-11.75,0 -22.05,-2.38 -30.9,-7.15 -8.84,-4.77 -15.65,-11.49 -20.42,-20.18 -4.76,-8.68 -7.14,-18.64 -7.14,-29.87 0,-11.23 2.38,-21.18 7.14,-29.87 4.77,-8.68 11.58,-15.41 20.42,-20.18 8.85,-4.76 19.15,-7.14 30.9,-7.14 11.76,0 22.06,2.38 30.91,7.14 8.84,4.77 15.64,11.5 20.41,20.18 4.77,8.69 7.15,18.64 7.15,29.87 0,11.23 -2.38,21.19 -7.15,29.87 -4.77,8.69 -11.57,15.41 -20.41,20.18 -8.85,4.77 -19.15,7.15 -30.91,7.15zm0 -14.46c12.4,0 22.19,-3.81 29.4,-11.44 7.2,-7.62 10.8,-18.06 10.8,-31.3 0,-13.34 -3.68,-23.8 -11.04,-31.38 -7.36,-7.57 -17.4,-11.36 -30.11,-11.36 -8.05,0 -15.04,1.75 -20.97,5.25 -5.93,3.49 -10.49,8.47 -13.67,14.93 -3.17,6.46 -4.76,13.98 -4.76,22.56 0,8.79 1.64,16.39 4.92,22.8 3.29,6.41 7.95,11.33 13.98,14.78 6.04,3.44 13.19,5.16 21.45,5.16z"/>
      <path id="5" class="fil14" d="M3358.48 1396.73c-11.65,0 -21.79,-2.3 -30.42,-6.91 -8.64,-4.61 -15.26,-11.2 -19.86,-19.78 -4.61,-8.58 -6.91,-18.7 -6.91,-30.35 0,-11.65 2.3,-21.79 6.91,-30.42 4.6,-8.64 11.2,-15.28 19.78,-19.94 8.58,-4.66 18.69,-6.99 30.34,-6.99 9.54,0 18.38,1.64 26.54,4.92 8.15,3.28 14.3,7.73 18.43,13.35 1.16,1.69 1.74,3.23 1.74,4.6 0,2.33 -1.21,4.4 -3.65,6.2 -1.38,0.85 -2.81,1.27 -4.29,1.27 -1.38,0 -2.73,-0.32 -4.05,-0.95 -1.33,-0.64 -2.46,-1.48 -3.42,-2.54 -3.49,-4.24 -7.81,-7.37 -12.95,-9.38 -5.13,-2.01 -11.25,-3.02 -18.35,-3.02 -12.18,0 -21.68,3.79 -28.52,11.36 -6.83,7.58 -10.24,18.09 -10.24,31.54 0,13.24 3.44,23.65 10.32,31.22 6.89,7.57 16.42,11.36 28.6,11.36 14.41,0 25.48,-4.13 33.21,-12.39 2.54,-2.54 5.13,-3.82 7.78,-3.82 1.7,0 3.23,0.53 4.61,1.59 2.12,1.8 3.18,3.76 3.18,5.88 0,1.8 -0.64,3.5 -1.91,5.09 -4.55,5.61 -10.96,10.03 -19.22,13.26 -8.26,3.23 -17.48,4.85 -27.65,4.85z"/>
      <path id="6" class="fil14" d="M3581.77 1396.73c-11.75,0 -22.05,-2.38 -30.9,-7.15 -8.84,-4.77 -15.65,-11.49 -20.42,-20.18 -4.76,-8.68 -7.14,-18.64 -7.14,-29.87 0,-11.23 2.38,-21.18 7.14,-29.87 4.77,-8.68 11.58,-15.41 20.42,-20.18 8.85,-4.76 19.15,-7.14 30.9,-7.14 11.76,0 22.06,2.38 30.91,7.14 8.84,4.77 15.64,11.5 20.41,20.18 4.77,8.69 7.15,18.64 7.15,29.87 0,11.23 -2.38,21.19 -7.15,29.87 -4.77,8.69 -11.57,15.41 -20.41,20.18 -8.85,4.77 -19.15,7.15 -30.91,7.15zm0 -14.46c12.4,0 22.19,-3.81 29.4,-11.44 7.2,-7.62 10.8,-18.06 10.8,-31.3 0,-13.34 -3.68,-23.8 -11.04,-31.38 -7.36,-7.57 -17.4,-11.36 -30.11,-11.36 -8.05,0 -15.04,1.75 -20.97,5.25 -5.93,3.49 -10.49,8.47 -13.67,14.93 -3.17,6.46 -4.76,13.98 -4.76,22.56 0,8.79 1.64,16.39 4.92,22.8 3.29,6.41 7.95,11.33 13.98,14.78 6.04,3.44 13.19,5.16 21.45,5.16z"/>
      <path id="7" class="fil14" d="M3782.51 1395.14c-7.41,0 -13.21,-1.99 -17.4,-5.96 -4.18,-3.97 -6.27,-9.5 -6.27,-16.6l0 -81.82c0,-2.65 0.79,-4.72 2.38,-6.2 1.59,-1.48 3.76,-2.22 6.51,-2.22 2.76,0 4.96,0.76 6.6,2.3 1.64,1.53 2.46,3.57 2.46,6.12l0 81.98c0,2.54 0.66,4.55 1.99,6.04 1.32,1.48 3.15,2.22 5.48,2.22l51.48 0c5.71,0 8.57,2.38 8.57,7.15 0,2.22 -0.74,3.94 -2.22,5.16 -1.48,1.22 -3.6,1.83 -6.35,1.83l-53.23 0z"/>
     </g>
    </g>
   </g>
   <g>
    <g>
     <g>
      <path class="fil15 str0" d="M20566.13 3989.5c242.19,874.64 828.13,144.94 1298.84,796.62m-1102.57 -2707.35c103.77,935.99 1049.13,290.66 1050.62,1189.15m215.37 -1634.79c336.72,673.47 157.01,1024.88 -54.27,1366.03 -225.95,364.87 -488.05,718.02 -193.12,1440.92 117.48,389.33 161.88,760.43 133.21,1113.27m1103.75 -2473.94c-197.3,953.03 -1140.15,97.6 -1194.34,1520.56"/>
     </g>
     <g>
      <path class="fil15 str1" d="M22358.15 3136.28c0,-323.15 261.97,-585.13 585.13,-585.13 5.02,0 10.02,0.07 15.01,0.19l0.05 0 0.04 0 0.15 0.01c4.8,0.12 9.59,0.29 14.36,0.54l0.41 0.02 0.09 0 0.52 0.03c4.77,0.24 9.52,0.54 14.26,0.91l0.13 0.01 0.03 0c4.67,0.36 9.33,0.77 13.98,1.24l0.62 0.06 0.18 0.01 0.85 0.1c4.41,0.45 8.81,0.95 13.18,1.5l0.45 0.06 0.21 0.02 0.94 0.13c4.3,0.56 8.59,1.16 12.85,1.8l0.55 0.08 0.25 0.03 1.15 0.19c4.36,0.68 8.69,1.39 13.02,2.16l0.3 0.05 0.63 0.12c4.33,0.78 8.66,1.61 12.96,2.49l0.42 0.08 0.33 0.06 1.06 0.23c3.83,0.79 7.65,1.63 11.45,2.49l3.35 0.77c3.63,0.85 7.25,1.73 10.86,2.65l3.68 0.96 9.91 2.68 3.63 1.03c3.29,0.94 6.57,1.91 9.84,2.92l4.56 1.42c2.97,0.94 5.94,1.89 8.89,2.88l5.67 1.93 7.81 2.76 5.2 1.9 8.52 3.24 5.05 2 7.02 2.87 6.75 2.85 6.21 2.72 6.78 3.07 0.29 0.13 4.28 1.99 1.17 0.55 7.34 3.54 4.23 2.09 1.02 0.52 7.37 3.77 4.17 2.19 0.65 0.35 7.62 4.13 4.11 2.29 0.39 0.22 7.76 4.45 0.05 0.03c185.54,98.13 311.99,293.05 311.99,517.55 0,323.16 -261.97,585.14 -585.13,585.14 -107.41,0 -208.04,-28.97 -294.56,-79.48 -185.57,-98.12 -312.04,-293.06 -312.04,-517.59z"/>
      <path id="1" class="fil16" d="M22358.15 3136.28c0,-323.15 261.97,-585.13 585.13,-585.13 5.02,0 10.02,0.07 15.01,0.19l0.05 0 0.04 0 0.15 0.01c4.8,0.12 9.59,0.29 14.36,0.54l0.41 0.02 0.09 0 0.52 0.03c4.77,0.24 9.52,0.54 14.26,0.91l0.13 0.01 0.03 0c4.67,0.36 9.33,0.77 13.98,1.24l0.62 0.06 0.18 0.01 0.85 0.1c4.41,0.45 8.81,0.95 13.18,1.5l0.45 0.06 0.21 0.02 0.94 0.13c4.3,0.56 8.59,1.16 12.85,1.8l0.55 0.08 0.25 0.03 1.15 0.19c4.36,0.68 8.69,1.39 13.02,2.16l0.3 0.05 0.63 0.12c4.33,0.78 8.66,1.61 12.96,2.49l0.42 0.08 0.33 0.06 1.06 0.23c3.83,0.79 7.65,1.63 11.45,2.49l3.35 0.77c3.63,0.85 7.25,1.73 10.86,2.65l3.68 0.96 9.91 2.68 3.63 1.03c3.29,0.94 6.57,1.91 9.84,2.92l4.56 1.42c2.97,0.94 5.94,1.89 8.89,2.88l5.67 1.93 7.81 2.76 5.2 1.9 8.52 3.24 5.05 2 7.02 2.87 6.75 2.85 6.21 2.72 6.78 3.07 0.29 0.13 4.28 1.99 1.17 0.55 7.34 3.54 4.23 2.09 1.02 0.52 7.37 3.77 4.17 2.19 0.65 0.35 7.62 4.13 4.11 2.29 0.39 0.22 7.76 4.45 0.05 0.03c185.54,98.13 311.99,293.05 311.99,517.55 0,323.16 -261.97,585.14 -585.13,585.14 -107.41,0 -208.04,-28.97 -294.56,-79.48 -185.57,-98.12 -312.04,-293.06 -312.04,-517.59z"/>
     </g>
     <g>
      <path class="fil15 str1" d="M20209.78 2250.69c0,-323.15 261.96,-585.13 585.13,-585.13 5.02,0 10.02,0.07 15.01,0.19l0.05 0 0.04 0 0.15 0.01c4.8,0.12 9.59,0.29 14.36,0.54l0.41 0.02 0.09 0 0.52 0.03c4.77,0.24 9.52,0.54 14.26,0.91l0.13 0.01 0.03 0c4.67,0.36 9.33,0.77 13.98,1.24l0.62 0.06 0.18 0.01 0.85 0.1c4.41,0.45 8.81,0.95 13.18,1.5l0.45 0.06 0.21 0.02 0.94 0.13c4.3,0.56 8.59,1.16 12.85,1.8l0.55 0.08 0.25 0.03 1.15 0.19c4.36,0.68 8.69,1.39 13.02,2.16l0.3 0.05 0.63 0.12c4.33,0.78 8.66,1.61 12.96,2.49l0.42 0.08 0.33 0.06 1.06 0.23c3.83,0.79 7.65,1.63 11.45,2.49l3.35 0.77c3.63,0.85 7.25,1.73 10.86,2.65l3.68 0.96 9.91 2.68 3.63 1.03c3.29,0.94 6.57,1.91 9.84,2.92l4.56 1.42c2.97,0.94 5.94,1.89 8.89,2.88l5.67 1.93 7.81 2.76 5.2 1.9 8.52 3.24 5.05 2 7.02 2.87 6.75 2.85 6.21 2.72 6.78 3.07 0.29 0.13 4.28 1.99 1.17 0.55 7.34 3.54 4.23 2.09 1.02 0.52 7.37 3.77 4.17 2.19 0.65 0.35 7.62 4.13 4.11 2.29 0.39 0.22 7.76 4.45 0.05 0.03c185.54,98.13 311.99,293.05 311.99,517.55 0,323.16 -261.97,585.14 -585.13,585.14 -107.39,0 -208.01,-28.95 -294.52,-79.45 -185.59,-98.1 -312.08,-293.07 -312.08,-517.62z"/>
      <path id="1" class="fil16" d="M20209.78 2250.69c0,-323.15 261.96,-585.13 585.13,-585.13 5.02,0 10.02,0.07 15.01,0.19l0.05 0 0.04 0 0.15 0.01c4.8,0.12 9.59,0.29 14.36,0.54l0.41 0.02 0.09 0 0.52 0.03c4.77,0.24 9.52,0.54 14.26,0.91l0.13 0.01 0.03 0c4.67,0.36 9.33,0.77 13.98,1.24l0.62 0.06 0.18 0.01 0.85 0.1c4.41,0.45 8.81,0.95 13.18,1.5l0.45 0.06 0.21 0.02 0.94 0.13c4.3,0.56 8.59,1.16 12.85,1.8l0.55 0.08 0.25 0.03 1.15 0.19c4.36,0.68 8.69,1.39 13.02,2.16l0.3 0.05 0.63 0.12c4.33,0.78 8.66,1.61 12.96,2.49l0.42 0.08 0.33 0.06 1.06 0.23c3.83,0.79 7.65,1.63 11.45,2.49l3.35 0.77c3.63,0.85 7.25,1.73 10.86,2.65l3.68 0.96 9.91 2.68 3.63 1.03c3.29,0.94 6.57,1.91 9.84,2.92l4.56 1.42c2.97,0.94 5.94,1.89 8.89,2.88l5.67 1.93 7.81 2.76 5.2 1.9 8.52 3.24 5.05 2 7.02 2.87 6.75 2.85 6.21 2.72 6.78 3.07 0.29 0.13 4.28 1.99 1.17 0.55 7.34 3.54 4.23 2.09 1.02 0.52 7.37 3.77 4.17 2.19 0.65 0.35 7.62 4.13 4.11 2.29 0.39 0.22 7.76 4.45 0.05 0.03c185.54,98.13 311.99,293.05 311.99,517.55 0,323.16 -261.97,585.14 -585.13,585.14 -107.39,0 -208.01,-28.95 -294.52,-79.45 -185.59,-98.1 -312.08,-293.07 -312.08,-517.62z"/>
     </g>
     <g>
      <path class="fil15 str1" d="M22588.65 4328.09c-194.83,412.17 -404.81,605.01 -679.68,547.81 -75.7,-269.06 150.85,-451.66 679.68,-547.81z"/>
      <path id="1" class="fil16" d="M22588.65 4328.09c-194.83,412.17 -404.81,605.01 -679.68,547.81 -75.7,-269.06 150.85,-451.66 679.68,-547.81z"/>
     </g>
     <g>
      <path class="fil15 str1" d="M21091.51 3150.03c161.11,340.84 334.75,500.3 562.05,453 62.61,-222.5 -124.74,-373.51 -562.05,-453z"/>
      <path id="1" class="fil16" d="M21091.51 3150.03c161.11,340.84 334.75,500.3 562.05,453 62.61,-222.5 -124.74,-373.51 -562.05,-453z"/>
     </g>
     <g>
      <path class="fil15 str1" d="M20835.27 3393.22l0.05 0.03c185.54,98.12 311.99,293.04 311.99,517.55 0,323.16 -261.97,585.14 -585.13,585.14 -107.41,0 -208.04,-28.97 -294.56,-79.48 -185.57,-98.12 -312.04,-293.06 -312.04,-517.59 0,-323.16 261.97,-585.13 585.13,-585.13 5.02,0 10.02,0.07 15.01,0.19l0.05 0 0.04 0 0.15 0.01c4.8,0.12 9.59,0.29 14.36,0.54l0.41 0.02 0.09 0 0.52 0.03c4.77,0.24 9.52,0.54 14.26,0.91l0.13 0.01 0.03 0c4.67,0.36 9.33,0.77 13.98,1.24l0.62 0.06 0.18 0.01 0.85 0.1c4.41,0.45 8.81,0.95 13.18,1.5l0.45 0.06 0.21 0.02 0.94 0.13c4.3,0.56 8.59,1.16 12.85,1.8l0.55 0.08 0.25 0.03 1.15 0.19c4.36,0.68 8.69,1.39 13.02,2.16l0.3 0.05 0.63 0.12c4.33,0.78 8.66,1.61 12.96,2.49l0.42 0.08 0.33 0.06 1.06 0.23c3.83,0.79 7.65,1.63 11.45,2.49l3.35 0.77c3.63,0.85 7.25,1.73 10.86,2.65l3.68 0.96 9.91 2.68 3.63 1.03c3.29,0.94 6.57,1.91 9.84,2.92l4.56 1.42 8.89 2.88 5.94 2.02 6.69 2.36 7.02 2.57 6.43 2.45 6.98 2.76 0.16 0.06 4.4 1.79 1.32 0.55 7.08 2.99 6.21 2.72 6.78 3.07 0.29 0.13 4.28 1.99 1.17 0.55 7.34 3.54 4.23 2.09 1.02 0.52 7.37 3.77 4.17 2.19 0.65 0.35 7.62 4.13 4.11 2.29 0.39 0.22 7.76 4.45z"/>
      <path id="1" class="fil16" d="M20835.27 3393.22l0.05 0.03c185.54,98.12 311.99,293.04 311.99,517.55 0,323.16 -261.97,585.14 -585.13,585.14 -107.41,0 -208.04,-28.97 -294.56,-79.48 -185.57,-98.12 -312.04,-293.06 -312.04,-517.59 0,-323.16 261.97,-585.13 585.13,-585.13 5.02,0 10.02,0.07 15.01,0.19l0.05 0 0.04 0 0.15 0.01c4.8,0.12 9.59,0.29 14.36,0.54l0.41 0.02 0.09 0 0.52 0.03c4.77,0.24 9.52,0.54 14.26,0.91l0.13 0.01 0.03 0c4.67,0.36 9.33,0.77 13.98,1.24l0.62 0.06 0.18 0.01 0.85 0.1c4.41,0.45 8.81,0.95 13.18,1.5l0.45 0.06 0.21 0.02 0.94 0.13c4.3,0.56 8.59,1.16 12.85,1.8l0.55 0.08 0.25 0.03 1.15 0.19c4.36,0.68 8.69,1.39 13.02,2.16l0.3 0.05 0.63 0.12c4.33,0.78 8.66,1.61 12.96,2.49l0.42 0.08 0.33 0.06 1.06 0.23c3.83,0.79 7.65,1.63 11.45,2.49l3.35 0.77c3.63,0.85 7.25,1.73 10.86,2.65l3.68 0.96 9.91 2.68 3.63 1.03c3.29,0.94 6.57,1.91 9.84,2.92l4.56 1.42 8.89 2.88 5.94 2.02 6.69 2.36 7.02 2.57 6.43 2.45 6.98 2.76 0.16 0.06 4.4 1.79 1.32 0.55 7.08 2.99 6.21 2.72 6.78 3.07 0.29 0.13 4.28 1.99 1.17 0.55 7.34 3.54 4.23 2.09 1.02 0.52 7.37 3.77 4.17 2.19 0.65 0.35 7.62 4.13 4.11 2.29 0.39 0.22 7.76 4.45z"/>
     </g>
     <g>
      <path class="fil15 str1" d="M21562.76 1438.89c0,-323.15 261.96,-585.13 585.13,-585.13 5.02,0 10.02,0.07 15.01,0.19l0.05 0 0.04 0 0.15 0.01c4.8,0.12 9.59,0.29 14.36,0.54l0.41 0.02 0.09 0 0.52 0.03c4.77,0.24 9.52,0.54 14.26,0.91l0.13 0.01 0.03 0c4.67,0.36 9.33,0.77 13.98,1.24l0.62 0.06 0.18 0.01 0.85 0.1c4.41,0.45 8.81,0.95 13.18,1.5l0.45 0.06 0.21 0.02 0.94 0.13c4.3,0.56 8.59,1.16 12.85,1.8l0.55 0.08 0.25 0.03 1.15 0.19c4.36,0.68 8.69,1.39 13.02,2.16l0.3 0.05 0.63 0.12c4.33,0.78 8.66,1.61 12.96,2.49l0.42 0.08 0.33 0.06 1.06 0.23c3.83,0.79 7.65,1.63 11.45,2.49l3.35 0.77c3.63,0.85 7.25,1.73 10.86,2.65l3.68 0.96 9.91 2.68 3.63 1.03c3.29,0.94 6.57,1.91 9.84,2.92l4.56 1.42c2.97,0.94 5.94,1.89 8.89,2.88l5.67 1.93 7.81 2.76 5.2 1.9 8.52 3.24 5.05 2 7.02 2.87 6.75 2.85 6.21 2.72 6.78 3.07 0.29 0.13 4.28 1.99 1.17 0.55 7.34 3.54 4.23 2.09 1.02 0.52 7.37 3.77 4.17 2.19 0.65 0.35 7.62 4.13 4.11 2.29 0.39 0.22 7.76 4.45 0.05 0.03c185.54,98.13 311.99,293.05 311.99,517.55 0,323.16 -261.97,585.14 -585.13,585.14 -107.39,0 -208.01,-28.95 -294.52,-79.45 -185.59,-98.1 -312.08,-293.07 -312.08,-517.62z"/>
      <path id="1" class="fil16" d="M21562.76 1438.89c0,-323.15 261.96,-585.13 585.13,-585.13 5.02,0 10.02,0.07 15.01,0.19l0.05 0 0.04 0 0.15 0.01c4.8,0.12 9.59,0.29 14.36,0.54l0.41 0.02 0.09 0 0.52 0.03c4.77,0.24 9.52,0.54 14.26,0.91l0.13 0.01 0.03 0c4.67,0.36 9.33,0.77 13.98,1.24l0.62 0.06 0.18 0.01 0.85 0.1c4.41,0.45 8.81,0.95 13.18,1.5l0.45 0.06 0.21 0.02 0.94 0.13c4.3,0.56 8.59,1.16 12.85,1.8l0.55 0.08 0.25 0.03 1.15 0.19c4.36,0.68 8.69,1.39 13.02,2.16l0.3 0.05 0.63 0.12c4.33,0.78 8.66,1.61 12.96,2.49l0.42 0.08 0.33 0.06 1.06 0.23c3.83,0.79 7.65,1.63 11.45,2.49l3.35 0.77c3.63,0.85 7.25,1.73 10.86,2.65l3.68 0.96 9.91 2.68 3.63 1.03c3.29,0.94 6.57,1.91 9.84,2.92l4.56 1.42c2.97,0.94 5.94,1.89 8.89,2.88l5.67 1.93 7.81 2.76 5.2 1.9 8.52 3.24 5.05 2 7.02 2.87 6.75 2.85 6.21 2.72 6.78 3.07 0.29 0.13 4.28 1.99 1.17 0.55 7.34 3.54 4.23 2.09 1.02 0.52 7.37 3.77 4.17 2.19 0.65 0.35 7.62 4.13 4.11 2.29 0.39 0.22 7.76 4.45 0.05 0.03c185.54,98.13 311.99,293.05 311.99,517.55 0,323.16 -261.97,585.14 -585.13,585.14 -107.39,0 -208.01,-28.95 -294.52,-79.45 -185.59,-98.1 -312.08,-293.07 -312.08,-517.62z"/>
     </g>
     <g>
      <path class="fil17 str2" d="M22984.51 5120.26l0.49 0c13.54,0 24.51,-13.49 24.51,-30.09l0 -0.94c0,-15.92 -10.49,-28.8 -23.46,-28.8l-2368.64 0c-133.64,0 -241.99,132.9 -241.99,296.83 0,163.96 108.35,296.84 241.99,296.84l1473.62 0 0 13.09 -894.24 0 -50.94 0 -240.76 0 -50.93 0 -140.2 0c-90.54,0 -163.95,75.07 -163.95,167.65l0 169.95c0,92.56 73.41,167.62 163.95,167.62l140.19 0 50.94 0 240.76 0 50.93 0 1387.98 0 50.94 0 240.76 0 50.93 0 140.21 0c90.55,0 163.95,-75.06 163.95,-167.62l0 -169.95c0,-92.58 -73.4,-167.65 -163.95,-167.65l-140.21 0 -50.93 0 -240.76 0 -50.94 0 -298.32 0 -0.56 -13.09 695.19 0c15.71,0 28.45,-15.63 28.45,-34.88l0 -1.69c0,-17.92 -11.83,-32.45 -26.45,-32.45l1.45 0 -3.36 -16.04c-27.7,-131.97 -29.64,-269.94 -5.83,-402.77l0.36 0c1.57,-8.75 2.98,-17.53 4.71,-26.26l0.09 -0.47 0.1 -0.47 0.09 -0.46 0.09 -0.47 0.1 -0.47 0.1 -0.47 0.09 -0.46 0.1 -0.47 3.36 -16.01zm-859.76 533.85l131.46 0 13.32 13.09 -157.86 0 13.08 -13.09zm-1465.8 1162.56l-0.36 0c-1.6,-8.91 -3.03,-17.84 -4.8,-26.73l-0.1 -0.47 -0.09 -0.46 -0.09 -0.47 -0.1 -0.47 -0.1 -0.47 -0.09 -0.46 -0.1 -0.47 -3.36 -16.01 -0.49 0c-13.54,0 -24.51,-13.49 -24.51,-30.09l0 -0.94c0,-15.92 10.49,-28.8 23.46,-28.8l2368.64 0c133.64,0 242,132.9 242,296.83 0,163.96 -108.36,296.84 -242,296.84l-2363.65 0c-15.71,0 -28.45,-15.63 -28.45,-34.88l0 -1.69c0,-17.92 11.83,-32.45 26.45,-32.45l-1.45 0 3.36 -16.04c27.71,-131.97 29.64,-269.94 5.83,-402.77zm2361.56 -541.47l0.39 0c1.74,-7.87 3.31,-15.78 5.22,-23.64l0.1 -0.41 0.1 -0.41 0.1 -0.4 0.11 -0.41 0.1 -0.4 0.1 -0.41 3.59 -13.93 0.54 0c14.45,0 26.16,-11.71 26.16,-26.18l0 -0.83c0,-13.81 -11.22,-25.02 -25.05,-25.02l-2527.18 0c-142.59,0 -258.2,115.59 -258.2,258.18 0,142.62 115.61,258.2 258.2,258.2l2521.89 0c16.76,0 30.34,-13.58 30.34,-30.34l0 -1.49c0,-15.56 -12.64,-28.22 -28.22,-28.22l1.52 0 -3.59 -13.92c-29.55,-114.81 -31.62,-234.83 -6.22,-350.37zm-492.33 1039.47l0 -0.7 27.23 -2.76 -27.23 0 44.1 0 0 3.46 113.69 0 0 -0.7 27.23 -2.76 -27.23 0 44.1 0 0 3.46 100.77 0 0 -3.46 44.12 0 0 3.46 88.4 0c90.56,0 163.95,75.06 163.95,167.65l0 169.94c0,92.57 -73.39,167.63 -163.95,167.63l-2353.64 0c-90.55,0 -163.96,-75.06 -163.96,-167.63l0 -169.94c0,-92.59 73.41,-167.65 163.96,-167.65l114.45 0 0 -3.47 44.1 0 0 3.47 155.16 0 0 -3.47 44.11 0 0 3.47 1560.64 0z"/>
      <path id="1" class="fil18" d="M22984.51 5120.26l0.49 0c13.54,0 24.51,-13.49 24.51,-30.09l0 -0.94c0,-15.92 -10.49,-28.8 -23.46,-28.8l-2368.64 0c-133.64,0 -241.99,132.9 -241.99,296.83 0,163.96 108.35,296.84 241.99,296.84l1473.62 0 0 13.09 -894.24 0 -50.94 0 -240.76 0 -50.93 0 -140.2 0c-90.54,0 -163.95,75.07 -163.95,167.65l0 169.95c0,92.56 73.41,167.62 163.95,167.62l140.19 0 50.94 0 240.76 0 50.93 0 1387.98 0 50.94 0 240.76 0 50.93 0 140.21 0c90.55,0 163.95,-75.06 163.95,-167.62l0 -169.95c0,-92.58 -73.4,-167.65 -163.95,-167.65l-140.21 0 -50.93 0 -240.76 0 -50.94 0 -298.32 0 -0.56 -13.09 695.19 0c15.71,0 28.45,-15.63 28.45,-34.88l0 -1.69c0,-17.92 -11.83,-32.45 -26.45,-32.45l1.45 0 -3.36 -16.04c-27.7,-131.97 -29.64,-269.94 -5.83,-402.77l0.36 0c1.57,-8.75 2.98,-17.53 4.71,-26.26l0.09 -0.47 0.1 -0.47 0.09 -0.46 0.09 -0.47 0.1 -0.47 0.1 -0.47 0.09 -0.46 0.1 -0.47 3.36 -16.01zm-859.76 533.85l131.46 0 13.32 13.09 -157.86 0 13.08 -13.09zm-1465.8 1162.56l-0.36 0c-1.6,-8.91 -3.03,-17.84 -4.8,-26.73l-0.1 -0.47 -0.09 -0.46 -0.09 -0.47 -0.1 -0.47 -0.1 -0.47 -0.09 -0.46 -0.1 -0.47 -3.36 -16.01 -0.49 0c-13.54,0 -24.51,-13.49 -24.51,-30.09l0 -0.94c0,-15.92 10.49,-28.8 23.46,-28.8l2368.64 0c133.64,0 242,132.9 242,296.83 0,163.96 -108.36,296.84 -242,296.84l-2363.65 0c-15.71,0 -28.45,-15.63 -28.45,-34.88l0 -1.69c0,-17.92 11.83,-32.45 26.45,-32.45l-1.45 0 3.36 -16.04c27.71,-131.97 29.64,-269.94 5.83,-402.77zm2361.56 -541.47l0.39 0c1.74,-7.87 3.31,-15.78 5.22,-23.64l0.1 -0.41 0.1 -0.41 0.1 -0.4 0.11 -0.41 0.1 -0.4 0.1 -0.41 3.59 -13.93 0.54 0c14.45,0 26.16,-11.71 26.16,-26.18l0 -0.83c0,-13.81 -11.22,-25.02 -25.05,-25.02l-2527.18 0c-142.59,0 -258.2,115.59 -258.2,258.18 0,142.62 115.61,258.2 258.2,258.2l2521.89 0c16.76,0 30.34,-13.58 30.34,-30.34l0 -1.49c0,-15.56 -12.64,-28.22 -28.22,-28.22l1.52 0 -3.59 -13.92c-29.55,-114.81 -31.62,-234.83 -6.22,-350.37zm-492.33 1039.47l0 -0.7 27.23 -2.76 -27.23 0 44.1 0 0 3.46 113.69 0 0 -0.7 27.23 -2.76 -27.23 0 44.1 0 0 3.46 100.77 0 0 -3.46 44.12 0 0 3.46 88.4 0c90.56,0 163.95,75.06 163.95,167.65l0 169.94c0,92.57 -73.39,167.63 -163.95,167.63l-2353.64 0c-90.55,0 -163.96,-75.06 -163.96,-167.63l0 -169.94c0,-92.59 73.41,-167.65 163.96,-167.65l114.45 0 0 -3.47 44.1 0 0 3.47 155.16 0 0 -3.47 44.11 0 0 3.47 1560.64 0z"/>
     </g>
    </g>
    <g>
     <path class="fil19 str3" d="M22588.65 4328.09c-194.83,412.17 -404.81,605.01 -679.68,547.81 -75.7,-269.06 150.85,-451.66 679.68,-547.81z"/>
     <path class="fil19 str3" d="M21091.51 3150.03c161.11,340.84 334.75,500.3 562.05,453 62.61,-222.5 -124.74,-373.51 -562.05,-453z"/>
     <g>
      <path class="fil15 str4" d="M20566.13 3989.5c242.19,874.64 828.13,144.94 1298.84,796.62m-1102.57 -2707.35c103.77,935.99 1049.13,290.66 1050.62,1189.15m215.37 -1634.79c336.72,673.47 157.01,1024.88 -54.27,1366.03 -225.95,364.87 -488.05,718.02 -193.12,1440.92 117.48,389.33 161.88,760.43 133.21,1113.27m1103.75 -2473.94c-197.3,953.03 -1140.15,97.6 -1194.34,1520.56"/>
     </g>
     <g>
      <path class="fil20 str5" d="M21584.23 1450.82c0,-323.15 261.97,-585.13 585.14,-585.13 323.16,0 585.14,261.97 585.14,585.13 0,323.16 -261.97,585.14 -585.14,585.14 -323.16,0 -585.14,-261.97 -585.14,-585.14z"/>
      <path class="fil21" d="M21562.76 1438.89c0,-323.15 261.97,-585.13 585.13,-585.13 323.16,0 585.14,261.97 585.14,585.13 0,323.16 -261.97,585.14 -585.14,585.14 -323.15,0 -585.13,-261.97 -585.13,-585.14z"/>
      <path class="fil22" d="M21562.76 1438.89l1170.26 0c0,-323.15 -261.97,-585.13 -585.14,-585.13 -323.15,0 -585.13,261.97 -585.13,585.13z"/>
      <path class="fil20 str6" d="M21635.42 1428.31c0,-274.26 222.33,-496.6 496.6,-496.6 274.25,0 496.59,222.33 496.59,496.6 0,274.26 -222.33,496.6 -496.59,496.6 -274.26,0 -496.6,-222.33 -496.6,-496.6z"/>
      <path class="fil23" d="M21651.3 1438.89c0,-274.25 222.32,-496.59 496.59,-496.59 274.26,0 496.61,222.33 496.61,496.59 0,274.26 -222.34,496.6 -496.61,496.6 -274.26,0 -496.59,-222.33 -496.59,-496.6z"/>
      <path class="fil24" d="M22407.71 1015.05c49.44,77.21 78.12,169 78.12,267.49 0,274.26 -222.33,496.6 -496.6,496.6 -95.25,0 -184.22,-26.84 -259.81,-73.33 88.25,137.78 242.69,229.1 418.46,229.1 274.26,0 496.61,-222.33 496.61,-496.6 0,-179.01 -94.74,-335.87 -236.78,-423.26z"/>
      <path class="fil25" d="M21738.28 1484.34c0,-242.1 196.26,-438.35 438.36,-438.35 141.51,0 267.34,67.07 347.49,171.13 -75.69,-131.41 -217.57,-219.87 -380.12,-219.87 -242.1,0 -438.36,196.26 -438.36,438.36 0,100.59 33.91,193.24 90.88,267.21 -37.05,-64.31 -58.25,-138.92 -58.25,-218.48z"/>
      <g>
       <path class="fil26 str7" d="M21974.14 1558.63l95.1 -10.21c5.73,34.41 17.19,59.57 34.62,75.74 6.49,6.03 13.83,10.93 22.01,14.69l0 -145.24c-41.32,-12.94 -71.07,-28.24 -89.23,-45.99 -29.56,-28.82 -44.29,-63.95 -44.29,-105.42 0,-26.63 6.97,-51.67 20.8,-74.89 13.93,-23.23 33.94,-40.86 60.14,-53.02 15.62,-7.25 33.13,-12.34 52.58,-15.26l0 -52.95 87.05 0 0 53.03c38.57,5.65 69.08,19.12 91.46,40.47 30.58,29.06 46.55,67.73 48.11,116.24l-97.79 3.65c-4.15,-26.99 -13.03,-46.32 -26.63,-58.12 -4.35,-3.77 -9.4,-6.94 -15.15,-9.52l0 116.55c35.51,10.1 62.58,20.58 81.24,31.21 22.7,13.02 40.47,30.65 53.27,53.14 12.82,22.49 19.23,50.21 19.23,83.16 0,29.91 -7.65,58 -23.04,84.14 -15.4,26.14 -37.1,45.6 -65.2,58.24 -18.74,8.52 -40.59,14.17 -65.5,16.98l0 52.1 -87.05 0 0 -53.49c-38.46,-6.09 -69.52,-20.15 -93.16,-42.22 -32.72,-30.39 -52.16,-74.77 -58.57,-133.01zm238.78 85.08c12.92,-3.57 23.63,-9.19 32.11,-16.87 15.85,-14.35 23.84,-31.13 23.84,-50.34 0,-12.4 -3.38,-22.86 -10.01,-31.61 -6.63,-8.63 -18.32,-16.17 -34.95,-22.5 -2.79,-1.07 -6.45,-2.34 -10.99,-3.8l0 125.12zm-87.05 -354.35c-9.59,3.13 -17.94,7.54 -25.04,13.2 -10.24,8.15 -15.41,18.97 -15.41,32.6 0,12.4 4.84,22.97 14.5,31.73 5.34,4.92 13.99,9.9 25.95,14.97l0 -92.5z"/>
       <path class="fil27 str8" d="M21948.42 1532.73l95.09 -10.21c5.74,34.41 17.21,59.57 34.62,75.75 6.5,6.02 13.84,10.92 22.02,14.69l0 -145.25c-41.32,-12.93 -71.06,-28.24 -89.23,-45.99 -29.56,-28.81 -44.29,-63.96 -44.29,-105.41 0,-26.63 6.97,-51.68 20.8,-74.9 13.94,-23.22 33.94,-40.86 60.13,-53.02 15.63,-7.25 33.13,-12.33 52.59,-15.26l0 -52.95 87.06 0 0 53.04c38.56,5.64 69.07,19.11 91.46,40.47 30.57,29.05 46.53,67.72 48.11,116.23l-97.79 3.65c-4.17,-26.99 -13.05,-46.32 -26.65,-58.11 -4.34,-3.78 -9.39,-6.95 -15.13,-9.52l0 116.54c35.5,10.1 62.58,20.57 81.23,31.22 22.7,13.01 40.46,30.64 53.28,53.13 12.81,22.49 19.22,50.21 19.22,83.16 0,29.91 -7.64,58 -23.04,84.14 -15.41,26.15 -37.1,45.6 -65.2,58.25 -18.75,8.51 -40.59,14.16 -65.49,16.97l0 52.09 -87.06 0 0 -53.48c-38.45,-6.09 -69.51,-20.15 -93.17,-42.21 -32.7,-30.4 -52.15,-74.78 -58.56,-133.02zm238.79 85.09c12.91,-3.57 23.62,-9.2 32.11,-16.88 15.84,-14.35 23.83,-31.12 23.83,-50.33 0,-12.41 -3.38,-22.86 -10,-31.62 -6.64,-8.63 -18.33,-16.17 -34.97,-22.49 -2.78,-1.08 -6.44,-2.34 -10.97,-3.8l0 125.12zm-87.06 -354.35c-9.58,3.12 -17.94,7.53 -25.05,13.2 -10.22,8.14 -15.4,18.96 -15.4,32.58 0,12.41 4.83,22.98 14.51,31.74 5.32,4.92 13.97,9.91 25.94,14.98l0 -92.5z"/>
      </g>
      <path class="fil18" d="M22512.4 1101.69c81.96,88.56 132.09,207.02 132.09,337.2 0,274.26 -222.34,496.6 -496.61,496.6 -154.46,0 -292.45,-70.53 -383.52,-181.13 90.7,98.01 220.42,159.4 364.51,159.4 274.26,0 496.6,-222.34 496.6,-496.6 0,-119.81 -42.43,-229.69 -113.07,-315.47z"/>
      <polygon class="fil7 str9" points="22420.37,1026.51 22449.39,1048.06 22460.67,974.94 22471.48,1048.13 22500.99,1026.51 22479.43,1055.54 22552.55,1066.82 22479.36,1077.62 22500.99,1107.13 22471.96,1085.57 22460.67,1158.69 22449.88,1085.51 22420.37,1107.13 22441.93,1078.1 22368.81,1066.82 22441.99,1056.02 "/>
     </g>
     <g>
      <path class="fil20 str5" d="M20231.25 2262.62c0,-323.15 261.97,-585.13 585.14,-585.13 323.15,0 585.13,261.97 585.13,585.13 0,323.16 -261.97,585.14 -585.13,585.14 -323.16,0 -585.14,-261.97 -585.14,-585.14z"/>
      <path class="fil21" d="M20209.78 2250.69c0,-323.15 261.96,-585.13 585.13,-585.13 323.16,0 585.14,261.97 585.14,585.13 0,323.16 -261.97,585.14 -585.14,585.14 -323.16,0 -585.13,-261.97 -585.13,-585.14z"/>
      <path class="fil22" d="M20209.78 2250.69l1170.26 0c0,-323.15 -261.97,-585.13 -585.14,-585.13 -323.16,0 -585.13,261.97 -585.13,585.13z"/>
      <path class="fil20 str6" d="M20282.44 2240.11c0,-274.26 222.32,-496.6 496.59,-496.6 274.26,0 496.6,222.33 496.6,496.6 0,274.25 -222.33,496.59 -496.6,496.59 -274.26,0 -496.59,-222.33 -496.59,-496.59z"/>
      <path class="fil23" d="M20298.31 2250.69c0,-274.26 222.33,-496.6 496.6,-496.6 274.25,0 496.6,222.33 496.6,496.6 0,274.26 -222.34,496.6 -496.6,496.6 -274.26,0 -496.6,-222.33 -496.6,-496.6z"/>
      <path class="fil24" d="M21054.72 1826.85c49.45,77.2 78.12,168.99 78.12,267.48 0,274.27 -222.33,496.61 -496.59,496.61 -95.25,0 -184.22,-26.84 -259.82,-73.34 88.26,137.78 242.7,229.11 418.47,229.11 274.25,0 496.6,-222.33 496.6,-496.61 0,-179 -94.73,-335.86 -236.78,-423.25z"/>
      <path class="fil25" d="M20385.3 2296.13c0,-242.1 196.26,-438.36 438.36,-438.36 141.51,0 267.33,67.08 347.49,171.14 -75.7,-131.41 -217.58,-219.88 -380.12,-219.88 -242.1,0 -438.36,196.26 -438.36,438.36 0,100.6 33.9,193.25 90.88,267.22 -37.05,-64.32 -58.25,-138.92 -58.25,-218.48z"/>
      <g>
       <path class="fil26 str7" d="M20621.16 2370.41l95.09 -10.2c5.74,34.4 17.2,59.57 34.63,75.74 6.49,6.03 13.83,10.93 22.01,14.69l0 -145.24c-41.32,-12.94 -71.07,-28.24 -89.23,-45.99 -29.57,-28.82 -44.29,-63.95 -44.29,-105.42 0,-26.63 6.97,-51.67 20.8,-74.89 13.93,-23.23 33.94,-40.86 60.13,-53.02 15.62,-7.25 33.13,-12.34 52.59,-15.26l0 -52.95 87.05 0 0 53.03c38.57,5.64 69.07,19.11 91.46,40.47 30.57,29.06 46.54,67.73 48.11,116.24l-97.79 3.64c-4.16,-26.98 -13.04,-46.32 -26.64,-58.11 -4.34,-3.78 -9.4,-6.95 -15.14,-9.52l0 116.55c35.51,10.09 62.58,20.58 81.23,31.21 22.7,13.01 40.47,30.64 53.28,53.14 12.81,22.49 19.22,50.21 19.22,83.16 0,29.91 -7.64,57.99 -23.04,84.14 -15.4,26.14 -37.09,45.59 -65.2,58.24 -18.73,8.51 -40.58,14.16 -65.49,16.97l0 52.1 -87.05 0 0 -53.48c-38.46,-6.1 -69.52,-20.16 -93.17,-42.22 -32.71,-30.39 -52.16,-74.77 -58.56,-133.02zm238.78 85.09c12.92,-3.57 23.63,-9.2 32.11,-16.87 15.85,-14.35 23.83,-31.13 23.83,-50.34 0,-12.41 -3.37,-22.86 -10,-31.61 -6.63,-8.63 -18.32,-16.18 -34.96,-22.5 -2.78,-1.07 -6.45,-2.34 -10.98,-3.8l0 125.12zm-87.05 -354.35c-9.59,3.13 -17.94,7.53 -25.05,13.2 -10.23,8.15 -15.4,18.97 -15.4,32.59 0,12.4 4.84,22.98 14.5,31.74 5.33,4.91 13.98,9.9 25.95,14.97l0 -92.5z"/>
       <path class="fil27 str8" d="M20595.44 2344.52l95.09 -10.21c5.73,34.41 17.2,59.57 34.62,75.74 6.49,6.03 13.84,10.93 22.02,14.7l0 -145.25c-41.33,-12.93 -71.07,-28.24 -89.24,-45.99 -29.56,-28.82 -44.28,-63.96 -44.28,-105.42 0,-26.62 6.97,-51.67 20.79,-74.9 13.94,-23.22 33.95,-40.85 60.14,-53.01 15.62,-7.25 33.13,-12.34 52.59,-15.26l0 -52.95 87.05 0 0 53.04c38.56,5.64 69.08,19.11 91.46,40.46 30.58,29.06 46.54,67.73 48.11,116.24l-97.79 3.65c-4.16,-27 -13.04,-46.32 -26.64,-58.12 -4.35,-3.77 -9.39,-6.94 -15.14,-9.51l0 116.54c35.5,10.1 62.58,20.57 81.24,31.21 22.7,13.02 40.45,30.65 53.27,53.13 12.82,22.5 19.22,50.22 19.22,83.17 0,29.91 -7.64,58 -23.04,84.14 -15.4,26.14 -37.1,45.6 -65.19,58.24 -18.75,8.52 -40.59,14.17 -65.5,16.98l0 52.09 -87.05 0 0 -53.48c-38.46,-6.09 -69.52,-20.15 -93.17,-42.22 -32.71,-30.39 -52.15,-74.77 -58.56,-133.01zm238.78 85.08c12.91,-3.57 23.62,-9.19 32.11,-16.87 15.85,-14.35 23.83,-31.13 23.83,-50.33 0,-12.41 -3.37,-22.87 -10,-31.62 -6.64,-8.63 -18.33,-16.17 -34.96,-22.49 -2.78,-1.08 -6.44,-2.35 -10.98,-3.81l0 125.12zm-87.05 -354.35c-9.59,3.13 -17.95,7.54 -25.05,13.2 -10.23,8.15 -15.4,18.97 -15.4,32.59 0,12.41 4.83,22.98 14.5,31.73 5.33,4.93 13.98,9.91 25.95,14.98l0 -92.5z"/>
      </g>
      <path class="fil18" d="M21159.41 1913.49c81.97,88.56 132.09,207.02 132.09,337.2 0,274.26 -222.34,496.6 -496.6,496.6 -154.46,0 -292.45,-70.53 -383.53,-181.13 90.71,98.01 220.43,159.4 364.52,159.4 274.25,0 496.59,-222.34 496.59,-496.61 0,-119.8 -42.43,-229.68 -113.07,-315.46z"/>
      <polygon class="fil7 str9" points="21067.38,1838.3 21096.41,1859.86 21107.69,1786.74 21118.49,1859.93 21148,1838.3 21126.44,1867.33 21199.57,1878.62 21126.38,1889.41 21148,1918.92 21118.97,1897.36 21107.69,1970.49 21096.89,1897.3 21067.38,1918.92 21088.94,1889.9 21015.82,1878.62 21089,1867.81 "/>
     </g>
     <g>
      <path class="fil20 str5" d="M22379.62 3148.21c0,-323.15 261.97,-585.13 585.14,-585.13 323.15,0 585.13,261.97 585.13,585.13 0,323.16 -261.97,585.14 -585.13,585.14 -323.16,0 -585.14,-261.97 -585.14,-585.14z"/>
      <path class="fil21" d="M22358.15 3136.28c0,-323.15 261.97,-585.13 585.13,-585.13 323.16,0 585.14,261.97 585.14,585.13 0,323.16 -261.97,585.14 -585.14,585.14 -323.15,0 -585.13,-261.97 -585.13,-585.14z"/>
      <path class="fil22" d="M22358.15 3136.28l1170.26 0c0,-323.15 -261.97,-585.13 -585.14,-585.13 -323.15,0 -585.13,261.97 -585.13,585.13z"/>
      <path class="fil20 str6" d="M22430.81 3125.7c0,-274.26 222.33,-496.6 496.59,-496.6 274.26,0 496.6,222.33 496.6,496.6 0,274.25 -222.33,496.59 -496.6,496.59 -274.25,0 -496.59,-222.33 -496.59,-496.59z"/>
      <path class="fil23" d="M22446.68 3136.28c0,-274.26 222.33,-496.6 496.6,-496.6 274.25,0 496.6,222.33 496.6,496.6 0,274.26 -222.34,496.6 -496.6,496.6 -274.26,0 -496.6,-222.33 -496.6,-496.6z"/>
      <path class="fil24" d="M23203.09 2712.44c49.45,77.2 78.12,168.99 78.12,267.48 0,274.27 -222.32,496.61 -496.59,496.61 -95.25,0 -184.22,-26.84 -259.81,-73.34 88.25,137.78 242.69,229.11 418.46,229.11 274.25,0 496.6,-222.33 496.6,-496.61 0,-179 -94.73,-335.86 -236.78,-423.25z"/>
      <path class="fil25" d="M22533.67 3181.72c0,-242.1 196.26,-438.36 438.36,-438.36 141.51,0 267.33,67.07 347.49,171.14 -75.7,-131.41 -217.58,-219.88 -380.12,-219.88 -242.1,0 -438.36,196.26 -438.36,438.36 0,100.6 33.91,193.25 90.88,267.22 -37.05,-64.32 -58.25,-138.92 -58.25,-218.48z"/>
      <g>
       <path class="fil26 str7" d="M22769.53 3256l95.09 -10.2c5.74,34.4 17.2,59.57 34.63,75.74 6.49,6.03 13.83,10.93 22.01,14.69l0 -145.24c-41.32,-12.94 -71.07,-28.24 -89.23,-45.99 -29.57,-28.82 -44.29,-63.96 -44.29,-105.42 0,-26.63 6.97,-51.67 20.8,-74.89 13.93,-23.23 33.94,-40.86 60.13,-53.02 15.62,-7.25 33.13,-12.34 52.59,-15.26l0 -52.96 87.05 0 0 53.04c38.57,5.64 69.07,19.11 91.46,40.47 30.57,29.06 46.54,67.73 48.11,116.24l-97.79 3.64c-4.16,-26.98 -13.04,-46.32 -26.64,-58.11 -4.34,-3.78 -9.4,-6.95 -15.14,-9.52l0 116.55c35.51,10.09 62.58,20.58 81.23,31.21 22.7,13.01 40.47,30.64 53.28,53.14 12.81,22.49 19.22,50.21 19.22,83.16 0,29.91 -7.64,57.99 -23.04,84.14 -15.4,26.14 -37.09,45.59 -65.19,58.24 -18.74,8.51 -40.59,14.16 -65.5,16.97l0 52.1 -87.05 0 0 -53.48c-38.46,-6.1 -69.52,-20.16 -93.17,-42.22 -32.71,-30.39 -52.15,-74.77 -58.56,-133.02zm238.78 85.09c12.92,-3.57 23.63,-9.2 32.11,-16.87 15.85,-14.35 23.83,-31.13 23.83,-50.34 0,-12.41 -3.37,-22.86 -10,-31.61 -6.63,-8.63 -18.32,-16.18 -34.96,-22.5 -2.78,-1.07 -6.45,-2.34 -10.98,-3.8l0 125.12zm-87.05 -354.35c-9.59,3.13 -17.94,7.53 -25.05,13.2 -10.23,8.15 -15.4,18.97 -15.4,32.59 0,12.4 4.84,22.98 14.5,31.74 5.33,4.91 13.98,9.9 25.95,14.97l0 -92.5z"/>
       <path class="fil27 str8" d="M22743.81 3230.11l95.09 -10.21c5.73,34.41 17.2,59.57 34.62,75.74 6.49,6.03 13.84,10.93 22.02,14.7l0 -145.25c-41.33,-12.94 -71.07,-28.24 -89.23,-45.99 -29.56,-28.82 -44.29,-63.96 -44.29,-105.42 0,-26.62 6.97,-51.67 20.79,-74.9 13.94,-23.22 33.95,-40.85 60.14,-53.01 15.62,-7.25 33.13,-12.34 52.59,-15.26l0 -52.95 87.05 0 0 53.04c38.56,5.64 69.08,19.11 91.46,40.46 30.58,29.06 46.54,67.73 48.11,116.24l-97.79 3.65c-4.16,-27 -13.04,-46.32 -26.64,-58.12 -4.35,-3.77 -9.39,-6.94 -15.14,-9.51l0 116.54c35.5,10.1 62.58,20.57 81.24,31.21 22.7,13.02 40.46,30.65 53.27,53.13 12.82,22.5 19.23,50.22 19.23,83.17 0,29.91 -7.65,58 -23.05,84.14 -15.4,26.14 -37.1,45.6 -65.19,58.24 -18.75,8.52 -40.59,14.17 -65.5,16.98l0 52.09 -87.05 0 0 -53.48c-38.46,-6.09 -69.52,-20.15 -93.17,-42.22 -32.71,-30.39 -52.15,-74.77 -58.56,-133.01zm238.78 85.08c12.91,-3.57 23.62,-9.19 32.11,-16.87 15.85,-14.35 23.84,-31.13 23.84,-50.33 0,-12.41 -3.38,-22.87 -10.01,-31.62 -6.64,-8.63 -18.33,-16.17 -34.96,-22.49 -2.78,-1.08 -6.44,-2.35 -10.98,-3.81l0 125.12zm-87.05 -354.35c-9.59,3.13 -17.95,7.54 -25.05,13.2 -10.23,8.15 -15.4,18.97 -15.4,32.59 0,12.41 4.83,22.98 14.5,31.73 5.33,4.93 13.98,9.91 25.95,14.98l0 -92.5z"/>
      </g>
      <path class="fil18" d="M23307.78 2799.08c81.97,88.56 132.09,207.02 132.09,337.2 0,274.26 -222.34,496.6 -496.6,496.6 -154.46,0 -292.45,-70.54 -383.53,-181.13 90.71,98.01 220.43,159.4 364.52,159.4 274.25,0 496.59,-222.34 496.59,-496.61 0,-119.8 -42.42,-229.68 -113.07,-315.46z"/>
      <polygon class="fil7 str9" points="23215.75,2723.89 23244.78,2745.45 23256.06,2672.33 23266.86,2745.52 23296.37,2723.89 23274.81,2752.92 23347.94,2764.21 23274.75,2775 23296.37,2804.51 23267.34,2782.95 23256.06,2856.07 23245.26,2782.89 23215.75,2804.51 23237.31,2775.49 23164.19,2764.21 23237.37,2753.4 "/>
     </g>
     <g>
      <path class="fil20 str5" d="M19977.05 3910.8c0,-323.16 261.97,-585.13 585.14,-585.13 323.15,0 585.13,261.96 585.13,585.13 0,323.16 -261.97,585.14 -585.13,585.14 -323.16,0 -585.14,-261.97 -585.14,-585.14z"/>
      <path class="fil21" d="M19955.58 3898.87c0,-323.16 261.97,-585.13 585.13,-585.13 323.16,0 585.14,261.96 585.14,585.13 0,323.16 -261.97,585.14 -585.14,585.14 -323.15,0 -585.13,-261.97 -585.13,-585.14z"/>
      <path class="fil22" d="M19955.58 3898.87l1170.26 0c0,-323.16 -261.97,-585.13 -585.14,-585.13 -323.15,0 -585.13,261.96 -585.13,585.13z"/>
      <path class="fil20 str6" d="M20028.25 3888.28c0,-274.25 222.33,-496.59 496.59,-496.59 274.26,0 496.6,222.33 496.6,496.59 0,274.26 -222.33,496.6 -496.6,496.6 -274.25,0 -496.59,-222.33 -496.59,-496.6z"/>
      <path class="fil23" d="M20044.12 3898.87c0,-274.26 222.33,-496.6 496.6,-496.6 274.26,0 496.6,222.33 496.6,496.6 0,274.25 -222.33,496.59 -496.6,496.59 -274.26,0 -496.6,-222.33 -496.6,-496.59z"/>
      <path class="fil24" d="M20800.52 3475.03c49.45,77.2 78.12,168.99 78.12,267.48 0,274.27 -222.32,496.6 -496.59,496.6 -95.25,0 -184.22,-26.84 -259.81,-73.33 88.25,137.78 242.69,229.1 418.46,229.1 274.26,0 496.6,-222.33 496.6,-496.6 0,-179.01 -94.73,-335.87 -236.78,-423.25z"/>
      <path class="fil25" d="M20131.11 3944.3c0,-242.1 196.26,-438.35 438.36,-438.35 141.51,0 267.34,67.07 347.49,171.13 -75.7,-131.4 -217.58,-219.87 -380.12,-219.87 -242.1,0 -438.36,196.26 -438.36,438.36 0,100.59 33.91,193.24 90.88,267.22 -37.05,-64.32 -58.25,-138.92 -58.25,-218.49z"/>
      <g>
       <path class="fil26 str7" d="M20366.97 4018.59l95.1 -10.21c5.73,34.41 17.19,59.57 34.62,75.75 6.49,6.02 13.83,10.92 22.01,14.69l0 -145.25c-41.32,-12.93 -71.07,-28.24 -89.23,-45.99 -29.57,-28.81 -44.29,-63.95 -44.29,-105.41 0,-26.63 6.97,-51.68 20.8,-74.9 13.93,-23.22 33.94,-40.86 60.13,-53.02 15.62,-7.25 33.13,-12.33 52.59,-15.26l0 -52.95 87.05 0 0 53.04c38.57,5.64 69.07,19.11 91.46,40.47 30.57,29.05 46.54,67.72 48.11,116.23l-97.79 3.65c-4.16,-26.99 -13.04,-46.32 -26.64,-58.11 -4.34,-3.78 -9.4,-6.95 -15.14,-9.52l0 116.54c35.51,10.1 62.58,20.58 81.23,31.22 22.7,13.01 40.47,30.64 53.28,53.14 12.82,22.48 19.22,50.2 19.22,83.15 0,29.91 -7.64,58 -23.04,84.14 -15.4,26.15 -37.09,45.6 -65.19,58.25 -18.74,8.51 -40.59,14.16 -65.5,16.97l0 52.1 -87.05 0 0 -53.49c-38.46,-6.09 -69.52,-20.15 -93.17,-42.21 -32.71,-30.4 -52.15,-74.78 -58.56,-133.02zm238.78 85.09c12.92,-3.57 23.63,-9.2 32.11,-16.88 15.85,-14.35 23.83,-31.12 23.83,-50.33 0,-12.41 -3.37,-22.86 -10,-31.62 -6.63,-8.63 -18.32,-16.17 -34.96,-22.49 -2.78,-1.08 -6.45,-2.34 -10.98,-3.8l0 125.12zm-87.05 -354.35c-9.59,3.12 -17.94,7.53 -25.05,13.2 -10.23,8.14 -15.4,18.96 -15.4,32.59 0,12.4 4.84,22.97 14.5,31.73 5.33,4.92 13.98,9.91 25.95,14.98l0 -92.5z"/>
       <path class="fil27 str8" d="M20341.25 3992.69l95.09 -10.2c5.73,34.41 17.2,59.57 34.62,75.74 6.49,6.03 13.84,10.93 22.02,14.69l0 -145.24c-41.33,-12.94 -71.07,-28.24 -89.23,-45.99 -29.56,-28.82 -44.29,-63.96 -44.29,-105.42 0,-26.63 6.97,-51.67 20.79,-74.9 13.94,-23.22 33.95,-40.85 60.14,-53.01 15.63,-7.25 33.13,-12.34 52.59,-15.26l0 -52.95 87.05 0 0 53.03c38.56,5.64 69.08,19.12 91.46,40.47 30.58,29.06 46.54,67.73 48.11,116.24l-97.79 3.65c-4.16,-27 -13.04,-46.33 -26.64,-58.12 -4.35,-3.77 -9.39,-6.94 -15.14,-9.52l0 116.55c35.5,10.1 62.58,20.57 81.24,31.21 22.7,13.01 40.46,30.64 53.27,53.13 12.82,22.5 19.23,50.22 19.23,83.17 0,29.91 -7.65,57.99 -23.05,84.14 -15.4,26.14 -37.1,45.6 -65.19,58.24 -18.75,8.51 -40.59,14.16 -65.5,16.98l0 52.09 -87.05 0 0 -53.48c-38.46,-6.1 -69.52,-20.16 -93.17,-42.22 -32.71,-30.39 -52.15,-74.77 -58.56,-133.02zm238.78 85.09c12.91,-3.57 23.62,-9.19 32.11,-16.87 15.85,-14.35 23.84,-31.13 23.84,-50.34 0,-12.4 -3.38,-22.86 -10.01,-31.61 -6.64,-8.63 -18.33,-16.17 -34.96,-22.5 -2.78,-1.07 -6.44,-2.34 -10.98,-3.8l0 125.12zm-87.05 -354.35c-9.59,3.13 -17.95,7.53 -25.05,13.2 -10.23,8.15 -15.4,18.97 -15.4,32.59 0,12.4 4.83,22.98 14.5,31.73 5.33,4.92 13.98,9.91 25.95,14.98l0 -92.5z"/>
      </g>
      <path class="fil18" d="M20905.21 3561.66c81.97,88.56 132.09,207.03 132.09,337.21 0,274.25 -222.33,496.59 -496.6,496.59 -154.46,0 -292.45,-70.53 -383.53,-181.13 90.71,98.02 220.43,159.4 364.52,159.4 274.25,0 496.59,-222.33 496.59,-496.6 0,-119.8 -42.42,-229.68 -113.07,-315.47z"/>
      <polygon class="fil7 str9" points="20813.18,3486.48 20842.21,3508.04 20853.49,3434.92 20864.29,3508.11 20893.8,3486.48 20872.25,3515.51 20945.37,3526.79 20872.18,3537.59 20893.8,3567.1 20864.77,3545.54 20853.49,3618.66 20842.69,3545.48 20813.18,3567.1 20834.74,3538.08 20761.62,3526.79 20834.8,3515.99 "/>
     </g>
    </g>
    <g>
     <g>
      <path class="fil28" d="M20651.17 5585.09c-104.64,0 -189.47,-104.04 -189.47,-232.41 0,-128.35 84.83,-232.41 189.47,-232.41l2333.82 0c13.54,0 24.51,-13.49 24.51,-30.09l0 -0.94c0,-15.92 -10.49,-28.8 -23.46,-28.8l-2368.64 0c-133.64,0 -241.99,132.9 -241.99,296.83 0,163.96 108.35,296.84 241.99,296.84l2363.65 0c15.71,0 28.45,-15.63 28.45,-34.88l0 -1.69c0,-17.92 -11.83,-32.45 -26.45,-32.45l-2331.88 0z"/>
      <path class="fil29" d="M20461.7 5352.67l0 0c0,128.37 84,232.41 187.61,232.41l2335.19 0 -3.36 -16.04c-29.79,-141.94 -29.79,-290.81 0,-432.77l3.36 -16.01 -2335.19 0c-103.61,0 -187.61,104.06 -187.61,232.41z"/>
      <path class="fil30" d="M20516.73 5398.71l0 0c0,-128.37 83.99,-232.43 187.6,-232.43l2271.34 0c1.8,-10 3.38,-20.04 5.47,-30l3.36 -16.01 -2335.19 0c-103.61,0 -187.61,104.06 -187.61,232.41 0,94.97 46.05,176.52 111.93,212.58 -35.04,-42.24 -56.9,-101.2 -56.9,-166.55z"/>
      <g>
       <polygon class="fil31" points="20719.7,5290.59 21740.22,5290.59 21740.22,5273.51 20719.7,5273.51 "/>
       <g>
        <polygon class="fil31" points="21459.21,5426.4 22479.74,5426.4 22479.74,5409.31 21459.21,5409.31 "/>
        <polygon class="fil31" points="22091.02,5421.11 22091.02,5687.86 22189.89,5588.95 22287.17,5684.53 22275.89,5420.14 "/>
       </g>
      </g>
     </g>
     <g>
      <path class="fil28" d="M22983.11 7235.48c104.64,0 189.46,-104.04 189.46,-232.41 0,-128.35 -84.82,-232.41 -189.46,-232.41l-2333.83 0c-13.54,0 -24.51,-13.49 -24.51,-30.09l0 -0.94c0,-15.92 10.49,-28.8 23.46,-28.8l2368.64 0c133.64,0 242,132.9 242,296.83 0,163.96 -108.36,296.84 -242,296.84l-2363.65 0c-15.71,0 -28.45,-15.63 -28.45,-34.88l0 -1.69c0,-17.92 11.83,-32.45 26.45,-32.45l2331.89 0z"/>
      <path class="fil29" d="M23172.57 7003.07l0 0c0,128.37 -84,232.41 -187.61,232.41l-2335.19 0 3.36 -16.04c29.8,-141.94 29.8,-290.81 0,-432.77l-3.36 -16.01 2335.19 0c103.61,0 187.61,104.06 187.61,232.41z"/>
      <path class="fil30" d="M23117.54 7049.1l0 0c0,-128.37 -83.99,-232.43 -187.6,-232.43l-2271.34 0c-1.8,-10 -3.38,-20.04 -5.47,-30l-3.36 -16.01 2335.19 0c103.61,0 187.61,104.06 187.61,232.41 0,94.97 -46.04,176.52 -111.93,212.58 35.04,-42.24 56.9,-101.2 56.9,-166.55z"/>
      <polygon class="fil31" points="21895.71,6911.28 20875.19,6911.28 20875.19,6894.2 21895.71,6894.2 "/>
      <polygon class="fil31" points="22621.15,7077.79 21600.62,7077.79 21600.62,7060.69 22621.15,7060.69 "/>
      <polygon class="fil31" points="21142.67,6903.93 21142.67,7170.69 21043.8,7071.78 20946.51,7167.35 20957.79,6902.96 "/>
     </g>
     <g>
      <path class="fil28" d="M20540.84 6639.5c-111.66,0 -202.17,-90.5 -202.17,-202.15 0,-111.63 90.51,-202.15 202.17,-202.15l2490.03 0c14.45,0 26.16,-11.71 26.16,-26.18l0 -0.83c0,-13.81 -11.22,-25.02 -25.05,-25.02l-2527.18 0c-142.59,0 -258.2,115.59 -258.2,258.18 0,142.62 115.61,258.2 258.2,258.2l2521.89 0c16.76,0 30.34,-13.58 30.34,-30.34l0 -1.49c0,-15.56 -12.64,-28.22 -28.22,-28.22l-2487.97 0z"/>
      <path class="fil29" d="M20338.67 6437.35l0 0c0,111.65 89.63,202.15 200.16,202.15l2491.5 0 -3.59 -13.92c-31.78,-123.48 -31.78,-252.98 0,-376.45l3.59 -13.93 -2491.5 0c-110.53,0 -200.16,90.52 -200.16,202.15z"/>
      <path class="fil30" d="M20397.38 6477.38l0 0c0,-111.64 89.61,-202.17 200.17,-202.17l2423.35 0c1.92,-8.68 3.63,-17.42 5.83,-26.08l3.59 -13.93 -2491.5 0c-110.53,0 -200.16,90.52 -200.16,202.15 0,82.61 49.12,153.54 119.42,184.9 -37.42,-36.74 -60.71,-88.01 -60.71,-144.87z"/>
      <polygon class="fil32" points="22759.83,6421.46 21977.23,6421.46 21977.23,6406.64 22759.83,6406.64 "/>
      <polygon class="fil32" points="21720.01,6466.41 20631.16,6466.41 20631.16,6451.55 21720.01,6451.55 "/>
      <polygon class="fil32" points="22597.05,6567.4 21814.45,6567.4 21814.45,6552.58 22597.05,6552.58 "/>
     </g>
     <g>
      <path class="fil30" d="M22963.38 7819.9l-2353.64 0c-90.55,0 -163.96,-75.06 -163.96,-167.63l0 -169.94c0,-92.59 73.41,-167.65 163.96,-167.65l2353.64 0c90.56,0 163.95,75.06 163.95,167.65l0 169.94c0,92.57 -73.39,167.63 -163.95,167.63z"/>
      <polygon class="fil31" points="22830.85,7816.44 22874.97,7816.44 22874.97,7311.21 22830.85,7311.21 "/>
      <polygon class="fil31" points="22730.08,7816.44 22685.98,7816.44 22685.98,7313.97 22713.21,7311.21 22685.98,7311.21 22730.08,7311.21 "/>
      <polygon class="fil31" points="20768.28,7816.44 20724.18,7816.44 20724.18,7491.52 20724.18,7311.2 20768.28,7311.2 20768.28,7487.06 "/>
      <polygon class="fil31" points="20967.55,7816.44 20923.44,7816.44 20923.44,7472.59 20923.44,7311.2 20967.55,7311.2 20967.55,7468.11 "/>
      <polygon class="fil31" points="22572.29,7816.44 22528.19,7816.44 22528.19,7313.97 22555.42,7311.21 22528.19,7311.21 22572.29,7311.21 "/>
     </g>
     <g>
      <path class="fil30" d="M23067.6 6172.42l-2353.65 0c-90.54,0 -163.95,-75.06 -163.95,-167.62l0 -169.95c0,-92.58 73.41,-167.65 163.95,-167.65l2353.65 0c90.55,0 163.95,75.07 163.95,167.65l0 169.95c0,92.56 -73.4,167.62 -163.95,167.62z"/>
      <polygon class="fil31" points="22927.38,6172.42 22781.53,5919.81 22927.38,5667.2 22876.45,5667.2 22756.07,5875.7 22635.69,5667.2 22584.75,5667.2 22730.6,5919.81 22584.75,6172.42 22635.69,6172.42 22756.07,5963.92 22876.45,6172.42 "/>
      <polygon class="fil31" points="20854.13,6172.42 20999.98,5919.81 20854.14,5667.2 20905.07,5667.2 21025.46,5875.7 21145.84,5667.2 21196.78,5667.2 21050.93,5919.81 21196.77,6172.42 21145.84,6172.42 21025.46,5963.92 20905.07,6172.42 "/>
      <path class="fil33" d="M22044.89 5941.18l0.01 -110.35c-102.59,-59.42 -154.13,-88.98 -154.13,-88.98 -38.98,22.5 -58.47,33.75 -58.47,33.75l0.01 177.96 -95.67 55.24c6.39,3.68 26.51,15.31 58.39,33.71l37.29 -21.53 0.02 -0.01 0.04 -0.02 0.07 -0.05 0.1 -0.05 0.05 -0.03 0 0c2.47,-1.45 21.84,-12.83 58.11,-33.77 0,0 0,-118.12 0,-177.75l95.7 55.2 -0.16 110.54 58.64 -33.86 -212.69 122.79 58.57 33.82 154.12 -88.99 0 -67.62zm-249.76 -8.71l0 -135.41 -58.49 33.77 0.01 135.34 58.48 -33.7z"/>
     </g>
    </g>
   </g>
   <g>
    <polygon class="fil17 str10" points="1654.82,6416.93 1654.82,6775.35 1019.81,6775.35 1019.81,6416.93 843.43,6416.93 843.43,7404.72 1019.81,7404.72 1019.81,6951.74 1654.82,6951.74 1654.82,7404.72 1831.21,7404.72 1831.21,6416.93 "/>
   </g>
   <g>
    <path id="1" class="fil17 str10" d="M2432.35 6416.93c-272.35,0 -493.9,221.55 -493.9,493.9 0,272.35 221.54,493.9 493.9,493.9 272.34,0 493.9,-221.54 493.9,-493.9 0,-272.34 -221.55,-493.9 -493.9,-493.9zm0 811.4c-174.98,0 -317.5,-142.52 -317.5,-317.5 0,-174.98 142.52,-317.5 317.5,-317.5 174.98,0 317.5,142.52 317.5,317.5 0,174.98 -142.52,317.5 -317.5,317.5z"/>
   </g>
   <g>
    <polygon id="2" class="fil17 str10" points="4163.8,6416.93 3980.36,6416.93 3802.56,7012.42 3652.98,6804.99 3624.76,6765.48 3544.32,6655.41 3463.89,6765.48 3435.67,6804.99 3286.08,7012.42 3286.08,7012.42 3286.08,7012.42 3108.28,6416.93 2924.84,6416.93 3154.85,7191.63 3218.35,7403.31 3218.35,7403.31 3218.35,7403.31 3348.17,7224.09 3542.91,6954.57 3739.06,7224.09 3739.06,7224.09 3868.88,7404.72 3868.88,7404.72 3868.88,7404.72 3932.38,7191.63 3932.38,7191.63 "/>
   </g>
   <g>
    <polygon id="3" class="fil17 str10" points="4992.14,6416.93 4992.14,6593.32 5397.13,6593.32 5397.13,7404.72 5573.52,7404.72 5573.52,6593.32 5978.51,6593.32 5978.51,6416.93 "/>
   </g>
   <g>
    <path id="4" class="fil17 str10" d="M6487.93 6416.93c-272.35,0 -493.9,221.55 -493.9,493.9 0,272.35 221.54,493.9 493.9,493.9 272.34,0 493.9,-221.54 493.9,-493.9 0,-272.34 -221.55,-493.9 -493.9,-493.9zm0 811.4c-174.98,0 -317.5,-142.52 -317.5,-317.5 0,-174.98 142.52,-317.5 317.5,-317.5 174.98,0 317.5,142.52 317.5,317.5 0,174.98 -142.52,317.5 -317.5,317.5z"/>
   </g>
   <g>
    <path id="5" class="fil17 str10" d="M8587.67 6416.93l0 493.9c0,174.98 -142.52,317.5 -317.5,317.5 -174.97,0 -317.5,-142.52 -317.5,-317.5l0 -493.9 -176.38 0 0 493.9c0,272.35 221.54,493.9 493.89,493.9 272.35,0 493.9,-221.54 493.9,-493.9l0 -493.9 -176.39 0z"/>
   </g>
   <g>
    <path id="6" class="fil17 str10" d="M9839.34 6689.28l0 -5.65c0,-146.75 -119.94,-266.7 -266.7,-266.7l-400.75 0c-146.76,0 -265.29,119.95 -265.29,266.7l0 5.65c0,56.44 16.93,108.65 46.56,150.99 9.88,15.52 21.17,29.63 33.87,42.33 47.98,46.57 112.89,74.79 184.86,74.79l355.6 0c74.78,0 136.87,60.68 136.87,135.46 0,74.79 -62.09,135.47 -136.87,135.47l-309.04 0c-74.79,0 -135.46,-60.68 -135.46,-135.47l-176.39 0c0,172.16 139.7,311.86 311.85,311.86l309.04 0c172.15,0 311.85,-139.7 311.85,-311.86 0,-74.78 -26.81,-143.93 -70.56,-197.55 -4.23,-4.23 -7.05,-8.47 -11.28,-12.7 -56.45,-62.09 -138.29,-101.6 -230.01,-101.6l-355.6 0c-49.39,0 -90.32,-40.92 -90.32,-90.31l0 -5.65c0,-49.38 40.93,-90.31 90.32,-90.31l400.75 0c49.39,0 90.31,40.93 90.31,90.31l0 5.65 176.39 -1.41z"/>
   </g>
   <g>
    <path id="7" class="fil17 str10" d="M10247.16 6593.32l721.08 0 0 -176.39 -721.08 0c-146.76,0 -265.29,119.95 -265.29,266.7l0 454.38c0,146.76 118.53,266.7 265.29,266.7l721.08 0 0 -176.39 -721.08 0c-49.39,0 -90.32,-40.92 -90.32,-90.31l0 -186.27 635.01 0 0 -176.39 -635.01 0 0 -91.72c0,-49.39 40.93,-90.31 90.32,-90.31z"/>
   </g>
   <g>
    <path id="8" class="fil17 str10" d="M12063.28 6416.93c-146.76,0 -265.29,119.95 -265.29,266.7l0 721.09 174.97 0 0 -452.97 636.42 0 0 -176.39 -635 0 0 -91.72c0,-49.39 40.92,-90.31 90.31,-90.31l721.08 0 0 -176.39 -722.49 0z"/>
   </g>
   <g>
    <polygon id="9" class="fil17 str10" points="13568.95,7228.32 13155.49,6416.93 12742.03,7228.32 12651.72,7404.72 12849.28,7404.72 12939.59,7228.32 13155.49,6804.99 13371.4,7228.32 13461.71,7404.72 13659.26,7404.72 "/>
   </g>
   <g>
    <path id="10" class="fil17 str10" d="M14400.1 6948.92c0,0 0,0 0,0 26.81,-2.82 52.21,-9.88 76.2,-21.17 91.72,-42.33 155.22,-135.46 155.22,-242.71 0,-73.37 -29.63,-139.7 -77.61,-187.67 -47.98,-47.98 -114.3,-77.61 -187.67,-77.61l-623.73 0 0 987.78 176.39 0 0 -454.38 176.39 0c63.5,0 118.54,33.87 149.58,84.67l4.23 8.47 94.55 184.85 90.31 176.39 197.55 0 -90.31 -176.39 -141.11 -282.22zm-481.19 -170.74l0 -182.04 447.33 0c31.04,0 52.21,14.12 63.49,25.4 9.88,9.88 26.82,32.46 26.82,64.92 0,35.27 -21.17,67.73 -53.63,81.84 -11.29,5.64 -23.98,8.47 -36.68,8.47l-447.33 1.41z"/>
   </g>
   <g>
    <polygon id="11" class="fil17 str10" points="15585.44,6552.4 15267.94,6796.52 14950.43,6552.4 14774.05,6416.93 14774.05,7404.72 14950.43,7404.72 14950.43,6775.35 15124,6908 15267.94,7019.48 15411.88,6908 15585.44,6775.35 15585.44,7404.72 15761.83,7404.72 15761.83,6416.93 "/>
   </g>
   <g>
    <polygon id="12" class="fil17 str10" points="16079.33,7404.72 16079.33,6416.93 15902.95,6416.93 15902.95,7404.72 "/>
   </g>
   <g>
    <polygon id="13" class="fil17 str10" points="17031.84,6416.93 17031.84,7045.35 16396.84,6556.4 16220.46,6421.17 16220.46,7404.72 16396.84,7404.72 16396.84,6780.53 17031.84,7269.48 17208.24,7404.72 17208.24,6418.34 "/>
   </g>
   <g>
    <path id="14" class="fil17 str10" d="M17843.24 6593.32l493.9 0 0 -176.39 -493.9 0c-272.34,0 -493.89,221.55 -493.89,493.9 0,272.35 221.54,493.9 493.89,493.9l493.9 0 0 -541.88 -493.9 0 0 176.39 317.5 0 0 189.09 -317.5 0c-174.97,0 -317.5,-142.52 -317.5,-317.5 0,-174.98 142.53,-317.5 317.5,-317.5z"/>
   </g>
   <polygon id="15" class="fil18" points="1654.82,6416.93 1654.82,6775.35 1019.81,6775.35 1019.81,6416.93 843.43,6416.93 843.43,7404.72 1019.81,7404.72 1019.81,6951.74 1654.82,6951.74 1654.82,7404.72 1831.21,7404.72 1831.21,6416.93 "/>
   <path id="16" class="fil18" d="M2432.35 6416.93c-272.35,0 -493.9,221.55 -493.9,493.9 0,272.35 221.54,493.9 493.9,493.9 272.34,0 493.9,-221.54 493.9,-493.9 0,-272.34 -221.55,-493.9 -493.9,-493.9zm0 811.4c-174.98,0 -317.5,-142.52 -317.5,-317.5 0,-174.98 142.52,-317.5 317.5,-317.5 174.98,0 317.5,142.52 317.5,317.5 0,174.98 -142.52,317.5 -317.5,317.5z"/>
   <polygon id="17" class="fil18" points="4163.8,6416.93 3980.36,6416.93 3802.56,7012.42 3652.98,6804.99 3624.76,6765.48 3544.32,6655.41 3463.89,6765.48 3435.67,6804.99 3286.08,7012.42 3286.08,7012.42 3286.08,7012.42 3108.28,6416.93 2924.84,6416.93 3154.85,7191.63 3218.35,7403.31 3218.35,7403.31 3218.35,7403.31 3348.17,7224.09 3542.91,6954.57 3739.06,7224.09 3739.06,7224.09 3868.88,7404.72 3868.88,7404.72 3868.88,7404.72 3932.38,7191.63 3932.38,7191.63 "/>
   <polygon id="18" class="fil18" points="4992.14,6416.93 4992.14,6593.32 5397.13,6593.32 5397.13,7404.72 5573.52,7404.72 5573.52,6593.32 5978.51,6593.32 5978.51,6416.93 "/>
   <path id="19" class="fil18" d="M6487.93 6416.93c-272.35,0 -493.9,221.55 -493.9,493.9 0,272.35 221.54,493.9 493.9,493.9 272.34,0 493.9,-221.54 493.9,-493.9 0,-272.34 -221.55,-493.9 -493.9,-493.9zm0 811.4c-174.98,0 -317.5,-142.52 -317.5,-317.5 0,-174.98 142.52,-317.5 317.5,-317.5 174.98,0 317.5,142.52 317.5,317.5 0,174.98 -142.52,317.5 -317.5,317.5z"/>
   <path id="20" class="fil18" d="M8587.67 6416.93l0 493.9c0,174.98 -142.52,317.5 -317.5,317.5 -174.97,0 -317.5,-142.52 -317.5,-317.5l0 -493.9 -176.38 0 0 493.9c0,272.35 221.54,493.9 493.89,493.9 272.35,0 493.9,-221.54 493.9,-493.9l0 -493.9 -176.39 0z"/>
   <path id="21" class="fil18" d="M9839.34 6689.28l0 -5.65c0,-146.75 -119.94,-266.7 -266.7,-266.7l-400.75 0c-146.76,0 -265.29,119.95 -265.29,266.7l0 5.65c0,56.44 16.93,108.65 46.56,150.99 9.88,15.52 21.17,29.63 33.87,42.33 47.98,46.57 112.89,74.79 184.86,74.79l355.6 0c74.78,0 136.87,60.68 136.87,135.46 0,74.79 -62.09,135.47 -136.87,135.47l-309.04 0c-74.79,0 -135.46,-60.68 -135.46,-135.47l-176.39 0c0,172.16 139.7,311.86 311.85,311.86l309.04 0c172.15,0 311.85,-139.7 311.85,-311.86 0,-74.78 -26.81,-143.93 -70.56,-197.55 -4.23,-4.23 -7.05,-8.47 -11.28,-12.7 -56.45,-62.09 -138.29,-101.6 -230.01,-101.6l-355.6 0c-49.39,0 -90.32,-40.92 -90.32,-90.31l0 -5.65c0,-49.38 40.93,-90.31 90.32,-90.31l400.75 0c49.39,0 90.31,40.93 90.31,90.31l0 5.65 176.39 -1.41z"/>
   <path id="22" class="fil18" d="M10247.16 6593.32l721.08 0 0 -176.39 -721.08 0c-146.76,0 -265.29,119.95 -265.29,266.7l0 454.38c0,146.76 118.53,266.7 265.29,266.7l721.08 0 0 -176.39 -721.08 0c-49.39,0 -90.32,-40.92 -90.32,-90.31l0 -186.27 635.01 0 0 -176.39 -635.01 0 0 -91.72c0,-49.39 40.93,-90.31 90.32,-90.31z"/>
   <path id="23" class="fil18" d="M12063.28 6416.93c-146.76,0 -265.29,119.95 -265.29,266.7l0 721.09 174.97 0 0 -452.97 636.42 0 0 -176.39 -635 0 0 -91.72c0,-49.39 40.92,-90.31 90.31,-90.31l721.08 0 0 -176.39 -722.49 0z"/>
   <polygon id="24" class="fil18" points="13568.95,7228.32 13155.49,6416.93 12742.03,7228.32 12651.72,7404.72 12849.28,7404.72 12939.59,7228.32 13155.49,6804.99 13371.4,7228.32 13461.71,7404.72 13659.26,7404.72 "/>
   <path id="25" class="fil18" d="M14400.1 6948.92c0,0 0,0 0,0 26.81,-2.82 52.21,-9.88 76.2,-21.17 91.72,-42.33 155.22,-135.46 155.22,-242.71 0,-73.37 -29.63,-139.7 -77.61,-187.67 -47.98,-47.98 -114.3,-77.61 -187.67,-77.61l-623.73 0 0 987.78 176.39 0 0 -454.38 176.39 0c63.5,0 118.54,33.87 149.58,84.67l4.23 8.47 94.55 184.85 90.31 176.39 197.55 0 -90.31 -176.39 -141.11 -282.22zm-481.19 -170.74l0 -182.04 447.33 0c31.04,0 52.21,14.12 63.49,25.4 9.88,9.88 26.82,32.46 26.82,64.92 0,35.27 -21.17,67.73 -53.63,81.84 -11.29,5.64 -23.98,8.47 -36.68,8.47l-447.33 1.41z"/>
   <polygon id="26" class="fil18" points="15585.44,6552.4 15267.94,6796.52 14950.43,6552.4 14774.05,6416.93 14774.05,7404.72 14950.43,7404.72 14950.43,6775.35 15124,6908 15267.94,7019.48 15411.88,6908 15585.44,6775.35 15585.44,7404.72 15761.83,7404.72 15761.83,6416.93 "/>
   <polygon id="27" class="fil18" points="16079.33,7404.72 16079.33,6416.93 15902.95,6416.93 15902.95,7404.72 "/>
   <polygon id="28" class="fil18" points="17031.84,6416.93 17031.84,7045.35 16396.84,6556.4 16220.46,6421.17 16220.46,7404.72 16396.84,7404.72 16396.84,6780.53 17031.84,7269.48 17208.24,7404.72 17208.24,6418.34 "/>
   <path id="29" class="fil18" d="M17843.24 6593.32l493.9 0 0 -176.39 -493.9 0c-272.34,0 -493.89,221.55 -493.89,493.9 0,272.35 221.54,493.9 493.89,493.9l493.9 0 0 -541.88 -493.9 0 0 176.39 317.5 0 0 189.09 -317.5 0c-174.97,0 -317.5,-142.52 -317.5,-317.5 0,-174.98 142.53,-317.5 317.5,-317.5z"/>
  </g>
 </g>
</svg>
