<?xml version="1.0" encoding="UTF-8"?>
<!DOCTYPE svg PUBLIC "-//W3C//DTD SVG 1.1//EN" "http://www.w3.org/Graphics/SVG/1.1/DTD/svg11.dtd">
<!-- Creator: CorelDRAW 2018 (64-Bit) -->
<svg xmlns="http://www.w3.org/2000/svg" xml:space="preserve" width="254mm" height="84.6667mm" version="1.1" style="shape-rendering:geometricPrecision; text-rendering:geometricPrecision; image-rendering:optimizeQuality; fill-rule:evenodd; clip-rule:evenodd"
viewBox="0 0 25400 8466.67"
 xmlns:xlink="http://www.w3.org/1999/xlink">
 <defs>
  <style type="text/css">
   <![CDATA[
    .str1 {stroke:white;stroke-width:300;stroke-miterlimit:22.9256}
    .str4 {stroke:#009607;stroke-width:20;stroke-miterlimit:22.9256}
    .str3 {stroke:#FFF8FF;stroke-width:20;stroke-miterlimit:22.9256}
    .str2 {stroke:white;stroke-width:20;stroke-miterlimit:22.9256}
    .str0 {stroke:white;stroke-width:57.32;stroke-linecap:round;stroke-linejoin:round;stroke-miterlimit:22.9256}
    .fil4 {fill:none}
    .fil6 {fill:none;fill-rule:nonzero}
    .fil0 {fill:#001501}
    .fil1 {fill:#002402}
    .fil2 {fill:#003603}
    .fil3 {fill:#004704}
    .fil5 {fill:#005E05}
    .fil17 {fill:#009607}
    .fil18 {fill:#00B509}
    .fil10 {fill:#4BAF4B}
    .fil20 {fill:#FFF8FF}
    .fil19 {fill:white}
    .fil16 {fill:white}
    .fil22 {fill:white}
    .fil21 {fill:#009607;fill-rule:nonzero}
    .fil15 {fill:#4BAF4B;fill-rule:nonzero}
    .fil7 {fill:white;fill-rule:nonzero}
    .fil8 {fill:black;fill-opacity:0.749020}
    .fil9 {fill:url(#id0)}
    .fil11 {fill:url(#id1)}
    .fil12 {fill:url(#id2)}
    .fil14 {fill:url(#id3)}
    .fil13 {fill:url(#id4)}
   ]]>
  </style>
  <linearGradient id="id0" gradientUnits="userSpaceOnUse" x1="1735.15" y1="1419.46" x2="1813.78" y2="1633.71">
   <stop offset="0" style="stop-opacity:1; stop-color:#4BAF4B"/>
   <stop offset="0.678431" style="stop-opacity:1; stop-color:#265826"/>
   <stop offset="1" style="stop-opacity:1; stop-color:black"/>
  </linearGradient>
  <linearGradient id="id1" gradientUnits="userSpaceOnUse" x1="1133.11" y1="1378.1" x2="1208.18" y2="1629.3">
   <stop offset="0" style="stop-opacity:1; stop-color:#4BAF4B"/>
   <stop offset="0.529412" style="stop-opacity:1; stop-color:#376937"/>
   <stop offset="1" style="stop-opacity:1; stop-color:#222222"/>
  </linearGradient>
  <linearGradient id="id2" gradientUnits="userSpaceOnUse" x1="1246.72" y1="1567.23" x2="1465.7" y2="1565.09">
   <stop offset="0" style="stop-opacity:1; stop-color:#4BAF4B"/>
   <stop offset="0.631373" style="stop-opacity:1; stop-color:#265826"/>
   <stop offset="1" style="stop-opacity:1; stop-color:black"/>
  </linearGradient>
  <linearGradient id="id3" gradientUnits="userSpaceOnUse" x1="1697.44" y1="1160.16" x2="1852.42" y2="1401.02">
   <stop offset="0" style="stop-opacity:1; stop-color:#4BAF4B"/>
   <stop offset="0.670588" style="stop-opacity:1; stop-color:#265826"/>
   <stop offset="1" style="stop-opacity:1; stop-color:black"/>
  </linearGradient>
  <linearGradient id="id4" gradientUnits="userSpaceOnUse" x1="1364.1" y1="1178.87" x2="1479.6" y2="901.68">
   <stop offset="0" style="stop-opacity:1; stop-color:#4BAF4B"/>
   <stop offset="0.65098" style="stop-opacity:1; stop-color:#3B5826"/>
   <stop offset="1" style="stop-opacity:1; stop-color:#2B0000"/>
  </linearGradient>
 </defs>
 <g id="Layer_x0020_1">
  <metadata id="CorelCorpID_0Corel-Layer"/>
  <g id="_2517074555632">
   <g>
    <rect class="fil0" x="0" y="0.01" width="25399.99" height="8466.66" rx="423.33" ry="423.33"/>
    <path class="fil1" d="M14274.27 0c5894.61,1065.61 9603.17,1736.04 11125.73,2011.28l0 -1587.94c0,-232.83 -190.5,-423.33 -423.34,-423.33l-10702.39 -0.01z"/>
    <path class="fil2" d="M9421.12 0c8581.77,1732.93 13908.07,2808.48 15978.88,3226.64l0 -1215.36c-1522.56,-275.24 -5231.12,-945.67 -11125.67,-2011.27l-4853.21 -0.01z"/>
    <path class="fil3" d="M19239.05 6458.15c4107.3,-1816.51 6160.95,-2724.76 6160.95,-2724.76 0,0 -6207.48,-1244.46 -18622.45,-3733.38l-6354.21 0c-232.84,0 -423.34,190.5 -423.34,423.33l0 2452.61c12533.87,2311.91 19239.05,3582.2 19239.05,3582.2z"/>
    <path class="fil3" d="M21604.79 8466.67c0,0 -5475.26,-1145.29 -16425.76,-3435.89 0,0 -1726.35,632.76 -5179.03,1898.26l0 1114.3c0,232.83 190.5,423.33 423.34,423.33l21181.45 0z"/>
    <path class="fil1" d="M6726.46 6466.98c1629.08,-770.34 2443.63,-1155.51 2443.63,-1155.51 10166,2103.46 15248.99,3155.19 15248.99,3155.19 -4483.14,0 -8294.75,0.01 -8294.75,0.01l-9397.87 -1999.69z"/>
    <path class="fil2" d="M423.34 0.01c577.68,-0.01 866.52,-0.01 866.52,-0.01 0,0 11560.69,2342.23 24110.14,4948.07l0 1683.04c0,0 -13951.28,-2935.98 -25400,-5328.95 0,-585.88 0,-878.82 0,-878.82 7.41,-139.21 57.32,-246.68 149.75,-322.42 69.92,-62.51 161.12,-96.15 273.59,-100.91z"/>
    <path class="fil4" d="M-0 5628.59c6139.5,1892.05 9209.25,2838.08 9209.25,2838.08"/>
    <path class="fil5" d="M1927.44 6222.58c-604.8,-186.39 -1247.28,-384.39 -1927.44,-593.99l0 1300.45 0 1114.3c0,232.83 190.5,423.33 423.34,423.33l8785.91 0c0,0 -2427.28,-748.03 -7281.81,-2244.09z"/>
   </g>
   <g>
    <polygon class="fil6 str0" points="1941.65,7180.65 1416.56,6150.19 891.48,7180.65 776.78,7404.66 1027.68,7404.66 1142.37,7180.65 1416.56,6643.02 1690.75,7180.65 1805.45,7404.66 2056.34,7404.66 "/>
   </g>
   <g>
    <path id="1" class="fil6 str0" d="M3194.32 6248.76c-60.93,-60.94 -145.16,-98.57 -238.35,-98.57l-790.31 0 0 0 0 0 0 1254.47 224.01 0 0 -577.06 600.35 0 0 -1.79c3.59,0 7.17,0 10.76,0 34.05,-3.58 66.3,-12.54 96.77,-26.88 116.49,-53.76 197.13,-172.04 197.13,-308.24 0,-93.19 -37.63,-177.42 -98.57,-240.14l-1.79 -1.79zm-189.96 345.87c-14.34,7.17 -30.47,10.75 -46.59,10.75l-568.1 0 0 -231.18 568.1 0c39.42,0 66.3,17.92 80.64,32.26 12.54,12.55 34.05,41.22 34.05,82.44 0,44.8 -26.88,86.02 -68.1,103.94l0 1.79z"/>
   </g>
   <g>
    <path id="2" class="fil6 str0" d="M4502.55 6248.76c-60.93,-60.94 -145.16,-98.57 -238.35,-98.57l-790.31 0 0 0 0 0 0 1254.47 224.01 0 0 -577.06 600.35 0 0 -1.79c3.59,0 7.17,0 10.76,0 34.05,-3.58 66.3,-12.54 96.77,-26.88 116.49,-53.76 197.13,-172.04 197.13,-308.24 0,-93.19 -37.63,-177.42 -98.57,-240.14l-1.79 -1.79zm-189.96 345.87c-14.34,7.17 -30.47,10.75 -46.59,10.75l-568.1 0 0 -231.18 568.1 0c39.42,0 66.3,17.92 80.64,32.26 12.54,12.55 34.05,41.22 34.05,82.44 0,44.8 -26.88,86.02 -68.1,103.94l0 1.79z"/>
   </g>
   <g>
    <path id="3" class="fil6 str0" d="M5613.65 6825.81c0,0 0,0 0,0 34.05,-3.58 66.31,-12.54 96.77,-26.88 116.49,-53.76 197.14,-172.04 197.14,-308.24 0,-93.19 -37.64,-177.42 -98.57,-238.35 -60.93,-60.93 -145.16,-98.57 -238.35,-98.57l-792.11 0 0 1254.47 224.02 0 0 -577.05 224.01 0c80.64,0 150.53,43.01 189.96,107.52l5.38 10.76 120.07 234.76 114.69 224.01 250.9 0 -114.7 -224.01 -179.21 -358.42zm-611.1 -216.84l0 -231.18 568.09 0c39.43,0 66.31,17.92 80.65,32.25 12.54,12.55 34.05,41.22 34.05,82.44 0,44.8 -26.89,86.02 -68.1,103.94 -14.34,7.17 -30.47,10.76 -46.6,10.76l-568.09 1.79z"/>
   </g>
   <g>
    <path id="4" class="fil6 str0" d="M6672.78 6150.19c-345.88,0 -627.24,281.36 -627.24,627.24 0,345.87 281.36,627.23 627.24,627.23 345.87,0 627.23,-281.36 627.23,-627.23 0,-345.88 -281.36,-627.24 -627.23,-627.24zm0 1030.46c-222.22,0 -403.22,-181 -403.22,-403.22 0,-222.23 181,-403.23 403.22,-403.23 222.22,0 403.22,181 403.22,403.23 0,222.22 -181,403.22 -403.22,403.22z"/>
   </g>
   <g>
    <polygon id="5" class="fil6 str0" points="8391.4,6150.19 8276.71,6374.2 8002.52,6911.83 7728.33,6374.2 7613.63,6150.19 7362.74,6150.19 7477.43,6374.2 8002.52,7404.66 8527.6,6374.2 8642.3,6150.19 "/>
   </g>
   <g>
    <polygon id="6" class="fil6 str0" points="9461.29,7180.65 8936.2,6150.19 8411.12,7180.65 8296.42,7404.66 8547.31,7404.66 8662.01,7180.65 8936.2,6643.02 9210.39,7180.65 9325.09,7404.66 9575.98,7404.66 "/>
   </g>
   <g>
    <path id="7" class="fil6 str0" d="M10013.26 7178.86c-78.86,-10.76 -141.58,-73.48 -152.33,-152.33l0 -876.34 -224.02 0 0 854.83c0,62.73 14.34,121.86 41.22,175.63 37.64,78.85 102.15,143.37 181.01,182.79 53.76,26.88 112.9,41.22 175.62,41.22l636.2 0 0 -224.01 -657.7 -1.79z"/>
   </g>
   <polygon id="8" class="fil7" points="1941.65,7180.65 1416.56,6150.19 891.48,7180.65 776.78,7404.66 1027.68,7404.66 1142.37,7180.65 1416.56,6643.02 1690.75,7180.65 1805.45,7404.66 2056.34,7404.66 "/>
   <path id="9" class="fil7" d="M3194.32 6248.76c-60.93,-60.94 -145.16,-98.57 -238.35,-98.57l-790.31 0 0 0 0 0 0 1254.47 224.01 0 0 -577.06 600.35 0 0 -1.79c3.59,0 7.17,0 10.76,0 34.05,-3.58 66.3,-12.54 96.77,-26.88 116.49,-53.76 197.13,-172.04 197.13,-308.24 0,-93.19 -37.63,-177.42 -98.57,-240.14l-1.79 -1.79zm-189.96 345.87c-14.34,7.17 -30.47,10.75 -46.59,10.75l-568.1 0 0 -231.18 568.1 0c39.42,0 66.3,17.92 80.64,32.26 12.54,12.55 34.05,41.22 34.05,82.44 0,44.8 -26.88,86.02 -68.1,103.94l0 1.79z"/>
   <path id="10" class="fil7" d="M4502.55 6248.76c-60.93,-60.94 -145.16,-98.57 -238.35,-98.57l-790.31 0 0 0 0 0 0 1254.47 224.01 0 0 -577.06 600.35 0 0 -1.79c3.59,0 7.17,0 10.76,0 34.05,-3.58 66.3,-12.54 96.77,-26.88 116.49,-53.76 197.13,-172.04 197.13,-308.24 0,-93.19 -37.63,-177.42 -98.57,-240.14l-1.79 -1.79zm-189.96 345.87c-14.34,7.17 -30.47,10.75 -46.59,10.75l-568.1 0 0 -231.18 568.1 0c39.42,0 66.3,17.92 80.64,32.26 12.54,12.55 34.05,41.22 34.05,82.44 0,44.8 -26.88,86.02 -68.1,103.94l0 1.79z"/>
   <path id="11" class="fil7" d="M5613.65 6825.81c0,0 0,0 0,0 34.05,-3.58 66.31,-12.54 96.77,-26.88 116.49,-53.76 197.14,-172.04 197.14,-308.24 0,-93.19 -37.64,-177.42 -98.57,-238.35 -60.93,-60.93 -145.16,-98.57 -238.35,-98.57l-792.11 0 0 1254.47 224.02 0 0 -577.05 224.01 0c80.64,0 150.53,43.01 189.96,107.52l5.38 10.76 120.07 234.76 114.69 224.01 250.9 0 -114.7 -224.01 -179.21 -358.42zm-611.1 -216.84l0 -231.18 568.09 0c39.43,0 66.31,17.92 80.65,32.25 12.54,12.55 34.05,41.22 34.05,82.44 0,44.8 -26.89,86.02 -68.1,103.94 -14.34,7.17 -30.47,10.76 -46.6,10.76l-568.09 1.79z"/>
   <path id="12" class="fil7" d="M6672.78 6150.19c-345.88,0 -627.24,281.36 -627.24,627.24 0,345.87 281.36,627.23 627.24,627.23 345.87,0 627.23,-281.36 627.23,-627.23 0,-345.88 -281.36,-627.24 -627.23,-627.24zm0 1030.46c-222.22,0 -403.22,-181 -403.22,-403.22 0,-222.23 181,-403.23 403.22,-403.23 222.22,0 403.22,181 403.22,403.23 0,222.22 -181,403.22 -403.22,403.22z"/>
   <polygon id="13" class="fil7" points="8391.4,6150.19 8276.71,6374.2 8002.52,6911.83 7728.33,6374.2 7613.63,6150.19 7362.74,6150.19 7477.43,6374.2 8002.52,7404.66 8527.6,6374.2 8642.3,6150.19 "/>
   <polygon id="14" class="fil7" points="9461.29,7180.65 8936.2,6150.19 8411.12,7180.65 8296.42,7404.66 8547.31,7404.66 8662.01,7180.65 8936.2,6643.02 9210.39,7180.65 9325.09,7404.66 9575.98,7404.66 "/>
   <path id="15" class="fil7" d="M10013.26 7178.86c-78.86,-10.76 -141.58,-73.48 -152.33,-152.33l0 -876.34 -224.02 0 0 854.83c0,62.73 14.34,121.86 41.22,175.63 37.64,78.85 102.15,143.37 181.01,182.79 53.76,26.88 112.9,41.22 175.62,41.22l636.2 0 0 -224.01 -657.7 -1.79z"/>
   <g>
    <path class="fil8" d="M1067.64 846.65l2944.73 0c121.54,0 220.97,99.43 220.97,220.97l0 658.74c0,121.54 -99.43,220.96 -220.97,220.96l-2944.73 0c-121.54,0 -220.97,-99.42 -220.97,-220.96l0 -658.74c0,-121.54 99.43,-220.97 220.97,-220.97z"/>
    <g>
     <g>
      <path class="fil9" d="M1820.34 1448.46l0.02 -265.89c0,0 -47.38,27.27 -140.94,81.13l-0.38 266.34 141.3 -81.58z"/>
      <polygon class="fil10" points="1820.35,1611.4 1820.34,1448.46 1307.86,1744.33 1448.98,1825.81 "/>
      <polygon class="fil11" points="1218.54,1427.48 1218.54,1101.19 1077.6,1182.56 1077.61,1508.66 "/>
      <path class="fil12" d="M1218.29 1692.62l90.52 -52.26 -0.56 -162.14 -230.65 133.17c15.4,8.87 63.88,36.89 140.69,81.23z"/>
      <path class="fil13" d="M1308.15 1640.74c-0.03,-251.99 -0.05,-591.26 -0.05,-591.26 93.83,54.13 140.74,81.2 140.74,81.2 0,143.7 0,428.3 0,428.3 -93.79,54.15 -140.69,81.76 -140.69,81.76z"/>
      <path class="fil14" d="M1308.1 1049.48c247.55,142.81 371.32,214.22 371.32,214.22 93.56,-53.86 140.94,-81.13 140.94,-81.13 -247.19,-143.18 -371.38,-214.42 -371.38,-214.42 -93.92,54.22 -140.88,81.33 -140.88,81.33z"/>
     </g>
     <g>
      <path class="fil15" d="M2119.47 1378.64c-18.14,-2.48 -32.56,-16.9 -35.03,-35.03l0 -201.52 -51.52 0 0 196.57c0,14.43 3.3,28.02 9.48,40.39 8.66,18.13 23.49,32.97 41.63,42.03 12.36,6.18 25.96,9.48 40.38,9.48l146.3 0 0 -51.51 -151.24 -0.41z"/>
      <polygon id="1" class="fil15" points="2363.43,1430.56 2363.43,1142.09 2311.91,1142.09 2311.91,1430.56 "/>
      <polygon id="2" class="fil15" points="2404.63,1142.09 2404.63,1193.6 2522.91,1193.6 2522.91,1430.56 2574.42,1430.56 2574.42,1193.6 2692.69,1193.6 2692.69,1142.09 "/>
      <path id="3" class="fil15" d="M2812.2 1193.6l210.57 0 0 -51.51 -210.57 0c-42.86,0 -77.47,35.03 -77.47,77.89l0 132.69c0,42.86 34.61,77.89 77.47,77.89l210.57 0 0 -51.51 -210.57 0c-14.42,0 -26.37,-11.95 -26.37,-26.38l0 -54.39 185.43 0 0 -51.52 -185.43 0 0 -26.78c0,-14.43 11.95,-26.38 26.37,-26.38z"/>
      <path id="4" class="fil15" d="M3063.98 1142.09l0 288.47 144.24 0c39.56,0 75.41,-16.07 101.38,-42.45 2.88,-2.88 5.77,-5.77 8.24,-8.65 21.43,-25.14 34.2,-57.69 34.2,-93.13 0,-79.95 -64.7,-144.24 -144.23,-144.24l-143.83 0zm51.11 51.51l92.72 0c51.1,0 92.72,41.69 92.72,92.93 0,51.24 -41.62,92.93 -92.72,92.93l-92.72 0 0 -185.86z"/>
      <path id="5" class="fil15" d="M3471.55 1193.6l210.58 0 0 -51.51 -210.58 0c-42.86,0 -77.47,35.03 -77.47,77.89l0 132.69c0,42.86 34.61,77.89 77.47,77.89l210.58 0 0 -51.51 -210.58 0c-14.42,0 -26.37,-11.95 -26.37,-26.38l0 -54.39 185.44 0 0 -51.52 -185.44 0 0 -26.78c0,-14.43 11.95,-26.38 26.37,-26.38z"/>
      <path id="6" class="fil15" d="M3713.04 1431.8l0.83 -0.83 -0.83 0 0 0.83zm288.47 -0.83l-0.41 0 0.41 0.83 0 -0.83zm0 -288.88l-64.7 0 -79.12 102.75 -79.12 -102.75 -65.12 0 111.68 144.85 -110.85 144.03 65.11 0 78.71 -101.92 78.71 101.92 65.11 0 -111.26 -144.03 111.68 -144.85 -0.83 0z"/>
      <path class="fil15" d="M2270.79 1651.93c-2.56,0 -4.57,-0.69 -6.05,-2.07 -1.47,-1.38 -2.21,-3.29 -2.21,-5.75l0 -76.41c0,-6.39 1.87,-11.4 5.61,-15.04 3.73,-3.64 8.94,-5.46 15.63,-5.46l25.08 0c14.55,0 25.59,3.05 33.11,9.14 7.52,6.1 11.28,15.1 11.28,27 0,11.7 -3.71,20.57 -11.13,26.62 -7.43,6.05 -18.27,9.07 -32.53,9.07l-30.23 0 0 25.08c0,2.36 -0.79,4.25 -2.36,5.68 -1.58,1.42 -3.64,2.14 -6.2,2.14zm38.65 -46.17c17.89,0 26.84,-7.48 26.84,-22.42 0,-7.87 -2.24,-13.67 -6.71,-17.41 -4.48,-3.73 -11.14,-5.6 -19.99,-5.6l-23.45 0c-2.16,0 -3.83,0.69 -5.01,2.06 -1.18,1.38 -1.77,3.25 -1.77,5.61l0 37.76 30.09 0z"/>
      <path id="1" class="fil15" d="M2463.18 1567.85c0,-6.39 1.87,-11.43 5.61,-15.12 3.73,-3.69 9,-5.53 15.78,-5.53l26.7 0c14.26,0 25,2.85 32.23,8.55 7.22,5.71 10.84,14.12 10.84,25.23 0,10.52 -3.2,18.68 -9.59,24.48 -6.39,5.8 -15.24,8.7 -26.55,8.7l24.49 24.78c1.57,1.58 2.36,3.3 2.36,5.17 0,2.06 -0.99,3.93 -2.95,5.6 -1.87,1.38 -3.69,2.07 -5.46,2.07 -2.46,0 -4.82,-1.18 -7.08,-3.54l-32.45 -33.63 -16.67 0 0 29.35c0,2.46 -0.81,4.4 -2.43,5.83 -1.63,1.42 -3.72,2.14 -6.27,2.14 -2.66,0 -4.75,-0.72 -6.27,-2.14 -1.53,-1.43 -2.29,-3.37 -2.29,-5.83l0 -76.11zm47.94 33.19c9.44,0 16.1,-1.5 19.99,-4.5 3.88,-3 5.82,-8.19 5.82,-15.56 0,-7.18 -2.11,-12.34 -6.34,-15.49 -4.23,-3.15 -10.72,-4.72 -19.47,-4.72l-24.04 0c-2.07,0 -3.69,0.66 -4.87,1.99 -1.18,1.33 -1.77,3.17 -1.77,5.53l0 32.75 30.68 0z"/>
      <path id="2" class="fil15" d="M2712.51 1651.93c-10.92,0 -20.48,-2.22 -28.69,-6.64 -8.21,-4.43 -14.53,-10.67 -18.95,-18.74 -4.43,-8.06 -6.64,-17.3 -6.64,-27.73 0,-10.42 2.21,-19.66 6.64,-27.73 4.42,-8.06 10.74,-14.3 18.95,-18.73 8.21,-4.42 17.77,-6.64 28.69,-6.64 10.91,0 20.48,2.22 28.69,6.64 8.21,4.43 14.53,10.67 18.95,18.73 4.43,8.07 6.64,17.31 6.64,27.73 0,10.43 -2.21,19.67 -6.64,27.73 -4.42,8.07 -10.74,14.31 -18.95,18.74 -8.21,4.42 -17.78,6.64 -28.69,6.64zm0 -13.43c11.5,0 20.6,-3.54 27.29,-10.62 6.68,-7.08 10.03,-16.76 10.03,-29.06 0,-12.39 -3.42,-22.1 -10.26,-29.13 -6.83,-7.03 -16.15,-10.54 -27.95,-10.54 -7.47,0 -13.96,1.62 -19.47,4.86 -5.5,3.25 -9.73,7.87 -12.68,13.87 -2.95,6 -4.43,12.98 -4.43,20.94 0,8.17 1.53,15.22 4.58,21.17 3.04,5.95 7.37,10.52 12.98,13.72 5.6,3.19 12.24,4.79 19.91,4.79z"/>
      <path id="3" class="fil15" d="M2909.03 1651.93c-2.56,0 -4.6,-0.69 -6.12,-2.07 -1.53,-1.38 -2.29,-3.29 -2.29,-5.75l0 -83.78 -30.23 0c-2.56,0 -4.53,-0.57 -5.9,-1.7 -1.38,-1.13 -2.07,-2.73 -2.07,-4.79 0,-2.17 0.69,-3.81 2.07,-4.94 1.37,-1.13 3.34,-1.7 5.9,-1.7l77.29 0c2.55,0 4.54,0.57 5.97,1.7 1.42,1.13 2.14,2.77 2.14,4.94 0,2.06 -0.72,3.66 -2.14,4.79 -1.43,1.13 -3.42,1.7 -5.97,1.7l-30.24 0 0 83.78c0,2.36 -0.76,4.25 -2.29,5.68 -1.52,1.42 -3.56,2.14 -6.12,2.14z"/>
      <path id="4" class="fil15" d="M3105.7 1651.93c-10.92,0 -20.48,-2.22 -28.69,-6.64 -8.21,-4.43 -14.53,-10.67 -18.95,-18.74 -4.43,-8.06 -6.64,-17.3 -6.64,-27.73 0,-10.42 2.21,-19.66 6.64,-27.73 4.42,-8.06 10.74,-14.3 18.95,-18.73 8.21,-4.42 17.77,-6.64 28.69,-6.64 10.91,0 20.48,2.22 28.69,6.64 8.21,4.43 14.53,10.67 18.95,18.73 4.43,8.07 6.64,17.31 6.64,27.73 0,10.43 -2.21,19.67 -6.64,27.73 -4.42,8.07 -10.74,14.31 -18.95,18.74 -8.21,4.42 -17.78,6.64 -28.69,6.64zm0 -13.43c11.5,0 20.6,-3.54 27.29,-10.62 6.68,-7.08 10.03,-16.76 10.03,-29.06 0,-12.39 -3.42,-22.1 -10.26,-29.13 -6.83,-7.03 -16.15,-10.54 -27.95,-10.54 -7.47,0 -13.96,1.62 -19.47,4.86 -5.5,3.25 -9.73,7.87 -12.68,13.87 -2.95,6 -4.43,12.98 -4.43,20.94 0,8.17 1.53,15.22 4.58,21.17 3.04,5.95 7.37,10.52 12.98,13.72 5.6,3.19 12.24,4.79 19.91,4.79z"/>
      <path id="5" class="fil15" d="M3320.81 1651.93c-10.82,0 -20.23,-2.14 -28.25,-6.42 -8.01,-4.28 -14.16,-10.4 -18.44,-18.37 -4.27,-7.96 -6.41,-17.35 -6.41,-28.17 0,-10.81 2.14,-20.23 6.41,-28.24 4.28,-8.02 10.4,-14.19 18.37,-18.52 7.96,-4.32 17.35,-6.49 28.17,-6.49 8.85,0 17.06,1.53 24.63,4.58 7.57,3.05 13.27,7.18 17.1,12.39 1.08,1.57 1.63,3 1.63,4.27 0,2.17 -1.14,4.09 -3.4,5.76 -1.28,0.78 -2.6,1.18 -3.97,1.18 -1.28,0 -2.53,-0.3 -3.76,-0.89 -1.23,-0.59 -2.29,-1.37 -3.17,-2.36 -3.25,-3.93 -7.25,-6.83 -12.02,-8.7 -4.77,-1.87 -10.45,-2.8 -17.04,-2.8 -11.31,0 -20.13,3.51 -26.48,10.54 -6.34,7.03 -9.51,16.79 -9.51,29.28 0,12.29 3.2,21.96 9.59,28.99 6.39,7.03 15.24,10.54 26.55,10.54 13.37,0 23.65,-3.83 30.83,-11.5 2.36,-2.36 4.76,-3.54 7.21,-3.54 1.58,0 3,0.49 4.28,1.47 1.97,1.67 2.95,3.49 2.95,5.46 0,1.67 -0.59,3.24 -1.77,4.72 -4.23,5.21 -10.17,9.32 -17.84,12.32 -7.67,3 -16.22,4.5 -25.66,4.5z"/>
      <path id="6" class="fil15" d="M3528.09 1651.93c-10.92,0 -20.48,-2.22 -28.69,-6.64 -8.21,-4.43 -14.53,-10.67 -18.95,-18.74 -4.43,-8.06 -6.64,-17.3 -6.64,-27.73 0,-10.42 2.21,-19.66 6.64,-27.73 4.42,-8.06 10.74,-14.3 18.95,-18.73 8.21,-4.42 17.77,-6.64 28.69,-6.64 10.91,0 20.48,2.22 28.69,6.64 8.21,4.43 14.53,10.67 18.95,18.73 4.43,8.07 6.64,17.31 6.64,27.73 0,10.43 -2.21,19.67 -6.64,27.73 -4.42,8.07 -10.74,14.31 -18.95,18.74 -8.21,4.42 -17.78,6.64 -28.69,6.64zm0 -13.43c11.5,0 20.6,-3.54 27.29,-10.62 6.68,-7.08 10.03,-16.76 10.03,-29.06 0,-12.39 -3.42,-22.1 -10.26,-29.13 -6.83,-7.03 -16.15,-10.54 -27.95,-10.54 -7.47,0 -13.96,1.62 -19.47,4.86 -5.5,3.25 -9.73,7.87 -12.68,13.87 -2.95,6 -4.43,12.98 -4.43,20.94 0,8.17 1.53,15.22 4.58,21.17 3.04,5.95 7.37,10.52 12.98,13.72 5.6,3.19 12.24,4.79 19.91,4.79z"/>
      <path id="7" class="fil15" d="M3714.44 1650.45c-6.89,0 -12.27,-1.84 -16.16,-5.53 -3.88,-3.69 -5.82,-8.83 -5.82,-15.42l0 -75.96c0,-2.46 0.74,-4.37 2.21,-5.75 1.48,-1.38 3.49,-2.07 6.05,-2.07 2.55,0 4.59,0.72 6.12,2.14 1.52,1.43 2.29,3.32 2.29,5.68l0 76.11c0,2.36 0.61,4.23 1.84,5.61 1.23,1.37 2.92,2.06 5.09,2.06l47.79 0c5.31,0 7.96,2.21 7.96,6.64 0,2.06 -0.69,3.66 -2.06,4.79 -1.38,1.13 -3.35,1.7 -5.9,1.7l-49.41 0z"/>
     </g>
    </g>
   </g>
   <g>
    <path class="fil16 str1" d="M18741.53 1665.71c-308.92,-16.59 -464.76,119.41 -467.52,409.96 -14.3,1162.26 -28.14,2202.44 -47.5,3071.48 -19.36,869.01 -44.26,1568.89 -80.68,2052.5 -25.81,232.85 51.64,339.66 272.49,319.75 651.49,-15.92 1308.05,-21.88 1968.76,-19.23 660.7,2.64 1326.03,15.92 1995.96,38.47 231.91,1.99 347.65,-90.22 346.72,-276.63 -18.91,-531.37 -36.89,-1043.51 -53.03,-1534.41 -16.12,-490.9 -30.88,-962.57 -44.26,-1413.67 -0.46,-301.84 -3.69,-615.62 -8.75,-940.67 -5.07,-325.06 -12.45,-663.39 -22.6,-1012.99 -2.77,-427.22 -104.2,-607.66 -393.29,-601.03 -165.06,1.33 -327.82,1.99 -487.34,1.99 -25.37,-41.79 -72.39,-74.3 -142.02,-78.94 -219.46,0 -329.2,0 -329.2,0 25.83,-137.99 -24.43,-189.73 -150.77,-199.02 -237.44,-9.95 -356.4,-15.26 -356.4,-15.26 124.49,-326.37 50.72,-505.49 -220.39,-537.99 -232.38,-23.23 -305.23,153.24 -217.16,502.84 -252.21,-9.95 -378.54,-14.6 -378.54,-14.6 -137.4,-1.99 -207.02,56.39 -178.43,212.95 -233.77,-3.98 -350.87,-5.97 -350.87,-5.97 -72.4,0.66 -123.11,31.84 -151.69,73.64 -172.44,-9.96 -340.27,-20.57 -503.49,-33.17z"/>
    <path class="fil17" d="M18741.53 1647.13c-308.92,-17.25 -464.76,120.08 -467.52,411.3 -14.3,1166.23 -28.14,2209.07 -47.5,3080.76 -19.36,871.67 -44.26,1574.2 -80.68,2059.13 -25.81,234.18 51.64,340.99 272.49,321.08 651.49,-15.92 1308.05,-21.88 1968.76,-19.23 660.7,2.64 1326.03,15.92 1995.96,38.47 231.91,1.99 347.65,-90.22 346.72,-277.95 -18.91,-532.7 -36.89,-1045.5 -53.03,-1538.39 -16.13,-492.9 -30.88,-965.89 -44.26,-1418.98 -0.46,-302.5 -3.69,-616.95 -8.75,-943.33 -5.07,-326.38 -12.45,-665.38 -22.6,-1016.31 -2.77,-428.54 -104.2,-609.64 -393.29,-602.35 -171.14,1.37 -339.39,1.98 -504.73,1.89 9.19,11.13 16.55,23.3 22.11,36.09 14.08,10.31 -880.02,-63.17 -2505.97,-63.65 6.51,-12.68 14.87,-24.67 25.07,-35.52 -172.43,-9.87 -340.02,-20.89 -502.78,-33.01z"/>
    <path class="fil17" d="M21725.21 1779.31c-21.97,-50.53 -71.97,-91.33 -151.81,-96.35 -220.38,0 -330.59,0 -330.59,0 26.29,-138.66 -24.43,-190.41 -151.68,-199.69 -238.38,-9.96 -357.79,-15.26 -357.79,-15.26 124.95,-326.37 51.18,-505.49 -221.32,-537.99 -233.76,-23.23 -306.61,153.24 -218.54,502.84 -253.13,-9.95 -379.92,-14.6 -379.92,-14.6 -138.31,-1.99 -207.94,57.05 -179.35,212.95 -235.15,-3.32 -352.26,-5.31 -352.26,-5.31 -82.27,0.24 -136.99,39.66 -162.71,89.76 1684.74,52.74 2520.05,73.96 2505.97,63.65z"/>
    <path class="fil18" d="M18857.51 1734.2c-287.76,-16.41 -432.93,114.18 -435.5,391.13 -13.32,1109.06 -26.21,2100.77 -44.25,2929.73 -18.03,828.94 -41.23,1497.03 -75.15,1958.19 -24.05,222.7 48.1,324.27 253.83,305.34 606.87,-15.14 1218.48,-20.81 1833.95,-18.29 615.46,2.52 1235.23,15.14 1859.29,36.59 216.03,1.89 323.84,-85.8 322.98,-264.33 -17.61,-506.59 -34.36,-994.24 -49.39,-1462.97 -15.04,-468.73 -28.78,-918.54 -41.24,-1349.42 -0.43,-287.67 -3.44,-586.71 -8.15,-897.08 -4.73,-310.38 -11.6,-632.76 -21.05,-966.49 -2.58,-407.53 -97.07,-579.76 -366.36,-572.83 -619.76,5.06 -1198.73,-0.64 -1736.88,-15.14 -538.16,-14.51 -1035.52,-39.74 -1492.08,-74.43z"/>
    <path class="fil19 str2" d="M18734.15 7158.52c995.91,-10.61 1779.26,-16.58 2349.14,-16.58 569.88,0 927.67,3.98 1072.44,13.93 152.61,5.31 235.14,-68.33 229.61,-234.84 -34.57,-655.42 -61.78,-1387.14 -81.15,-2193.81 -19.36,-806.68 -31.35,-1689.64 -35.96,-2648.22 -6.45,-116.1 -50.26,-161.2 -160.45,-158.55 -581.86,-2.65 -1144.37,-15.94 -1687.04,-39.15 -542.67,-23.22 -1066.45,-57.71 -1570.86,-102.16 -138.32,-9.95 -194.57,59.71 -192.73,199.68 -36.42,1647.85 -63.62,2883.74 -81.6,3706.99 -17.98,823.26 -27.2,1235.22 -27.2,1235.22 -0.47,163.2 54.4,236.83 185.8,237.49z"/>
    <path class="fil20" d="M20547.11 980.07c-141.55,13.27 -225,88.23 -249.9,225.56 -18.44,-201.67 65.02,-277.3 249.9,-225.56z"/>
    <path class="fil20 str3" d="M20514.79 1087.89c54.17,0 98.21,43.8 98.21,98.19 0,54.39 -44.04,98.18 -98.21,98.18 -54.16,0 -98.66,-43.79 -98.66,-98.18 0,-54.39 44.5,-98.19 98.66,-98.19z"/>
    <g>
     <path class="fil18 str4" d="M19068.42 3407.75c104.21,0 208.87,0 313.53,0 38.27,0 69.63,31.18 69.63,69.66 0,104.81 0,208.96 0,313.11 0,38.48 -31.36,69.66 -69.63,69.66 -104.66,0 -209.32,0 -313.53,0 -38.26,0 -69.61,-31.18 -69.61,-69.66 0,-104.15 0,-208.3 0,-313.11 0,-38.48 31.35,-69.66 69.61,-69.66z"/>
     <g>
      <path class="fil18 str4" d="M19685.34 3498.64c372.54,0 745.08,0 1117.62,0 372.54,0 745.55,0 1118.55,0 7.37,0 13.83,5.96 13.83,13.92 0,21.24 0,41.8 0,62.37 0,7.96 -6.46,13.92 -13.83,13.92 -373,0 -746.01,0 -1118.55,0 -372.54,0 -745.08,0 -1117.62,0 -7.38,0 -13.84,-5.96 -13.84,-13.92 0,-20.57 0,-41.13 0,-62.37 0,-7.96 6.46,-13.92 13.84,-13.92z"/>
      <path class="fil18 str4" d="M19685.34 3679.08c266.95,0 533.91,0 800.87,0 266.95,0 533.91,0 801.33,0 7.84,0 13.83,5.97 13.83,13.93 0,21.22 0,41.79 0,62.36 0,7.96 -5.99,13.93 -13.83,13.93 -267.42,0 -534.38,0 -801.33,0 -266.96,0 -533.92,0 -800.87,0 -7.38,0 -13.84,-5.97 -13.84,-13.93 0,-20.57 0,-41.14 0,-62.36 0,-7.96 6.46,-13.93 13.84,-13.93z"/>
     </g>
     <path class="fil16" d="M19080.41 3628.66c5.53,17.91 63.17,86.24 77.92,104.81 6.46,6.64 12.91,11.28 25.83,12.61 22.13,1.32 29.04,-11.95 35.49,-19.24 49.34,-55.72 98.68,-111.45 148.01,-167.17 0.46,-2.66 0.92,-5.31 1.84,-7.96 4.62,-25.87 -24.43,-37.82 -40.57,-24.55 -2.77,1.99 -5.08,3.98 -7.38,5.97 -2.31,1.98 -4.61,3.98 -6.92,5.97 -28.58,26.53 -98.2,87.57 -126.79,106.14 -9.22,-3.31 -41.96,-36.48 -53.02,-45.1 -25.36,-20.57 -59.02,-3.99 -54.41,28.52z"/>
    </g>
    <g>
     <path class="fil18 str4" d="M19068.42 4293.37c104.21,0 208.87,0 313.53,0 38.27,0 69.63,31.84 69.63,69.66 0,104.81 0,209.63 0,313.78 0,38.47 -31.36,69.65 -69.63,69.65 -104.66,0 -209.32,0 -313.53,0 -38.26,0 -69.61,-31.18 -69.61,-69.65 0,-104.15 0,-208.97 0,-313.78 0,-37.82 31.35,-69.66 69.61,-69.66z"/>
     <g>
      <path class="fil18 str4" d="M19685.34 4384.25c372.54,0 745.08,0 1117.62,0 372.54,0 745.55,0 1118.55,0 7.37,0 13.83,6.63 13.83,13.93 0,21.23 0,42.46 0,63.02 0,7.96 -6.46,13.94 -13.83,13.94 -373,0 -746.01,0 -1118.55,0 -372.54,0 -745.08,0 -1117.62,0 -7.38,0 -13.84,-5.98 -13.84,-13.94 0,-20.56 0,-41.79 0,-63.02 0,-7.3 6.46,-13.93 13.84,-13.93z"/>
      <path class="fil18 str4" d="M19685.34 4564.7c266.95,0 533.91,0 800.87,0 266.95,0 533.91,0 801.33,0 7.84,0 13.83,6.62 13.83,13.92 0,21.23 0,42.46 0,63.03 0,7.3 -5.99,13.92 -13.83,13.92 -267.42,0 -534.38,0 -801.33,0 -266.96,0 -533.92,0 -800.87,0 -7.38,0 -13.84,-6.62 -13.84,-13.92 0,-20.57 0,-41.8 0,-63.03 0,-7.3 6.46,-13.92 13.84,-13.92z"/>
     </g>
     <path class="fil16" d="M19080.41 4514.94c5.53,17.91 63.17,85.58 77.92,104.81 6.46,6.64 12.91,11.28 25.83,12.61 22.13,1.33 29.04,-11.95 35.49,-19.24 49.34,-55.72 98.68,-111.45 148.01,-167.17 0.46,-2.66 0.92,-5.31 1.84,-7.96 4.62,-25.87 -24.43,-37.82 -40.57,-24.55 -2.77,1.99 -5.07,3.99 -7.38,5.97 -2.3,1.99 -4.61,3.98 -6.92,5.97 -28.58,26.53 -98.2,87.57 -126.79,106.15 -9.22,-3.33 -41.96,-36.5 -53.02,-45.12 -25.36,-20.56 -59.02,-3.98 -54.41,28.53z"/>
    </g>
    <g>
     <path class="fil18 str4" d="M19068.42 5178.98c104.21,0 208.87,0 313.53,0 38.27,0 69.63,31.18 69.63,69.67 0,104.81 0,208.95 0,313.11 0,38.47 -31.36,69.66 -69.63,69.66 -104.66,0 -209.32,0 -313.53,0 -38.26,0 -69.61,-31.19 -69.61,-69.66 0,-104.16 0,-208.3 0,-313.11 0,-38.49 31.35,-69.67 69.61,-69.67z"/>
     <g>
      <path class="fil18 str4" d="M19685.34 5269.87c372.54,0 745.08,0 1117.62,0 372.54,0 745.55,0 1118.55,0 7.37,0 13.83,5.97 13.83,13.93 0,21.23 0,41.8 0,62.36 0,7.96 -6.46,13.93 -13.83,13.93 -373,0 -746.01,0 -1118.55,0 -372.54,0 -745.08,0 -1117.62,0 -7.38,0 -13.84,-5.97 -13.84,-13.93 0,-20.56 0,-41.13 0,-62.36 0,-7.96 6.46,-13.93 13.84,-13.93z"/>
      <path class="fil18 str4" d="M19685.34 5450.31c266.95,0 533.91,0 800.87,0 266.95,0 533.91,0 801.33,0 7.84,0 13.83,5.97 13.83,13.93 0,21.23 0,41.79 0,62.35 0,7.97 -5.99,13.94 -13.83,13.94 -267.42,0 -534.38,0 -801.33,0 -266.96,0 -533.92,0 -800.87,0 -7.38,0 -13.84,-5.97 -13.84,-13.94 0,-20.56 0,-41.12 0,-62.35 0,-7.96 6.46,-13.93 13.84,-13.93z"/>
     </g>
     <path class="fil16" d="M19080.41 5399.89c5.53,17.92 63.17,86.25 77.92,104.82 6.46,6.63 12.91,11.27 25.83,12.6 22.13,1.33 29.04,-11.94 35.49,-19.24 49.34,-55.05 98.68,-110.78 148.01,-166.51 0.46,-2.65 0.92,-5.3 1.84,-8.62 4.62,-25.87 -24.43,-37.81 -40.57,-24.55 -2.77,2 -5.08,3.99 -7.38,5.97 -2.31,1.99 -4.61,4.65 -6.92,6.64 -28.58,25.87 -98.2,86.9 -126.79,106.14 -9.22,-3.98 -41.96,-37.15 -53.02,-45.77 -25.36,-20.56 -59.02,-3.98 -54.41,28.52z"/>
    </g>
    <g>
     <path class="fil18 str4" d="M21807.16 6175.39c-298.77,0 -597.54,0 -895.85,0 -7.84,0 -14.3,6.63 -14.3,14.59 0,14.6 0,28.53 0,42.46 0,7.96 6.46,13.93 14.3,13.93 298.31,0 597.08,0 895.85,0 7.84,0 14.3,-5.97 14.3,-13.93 0,-13.93 0,-27.86 0,-42.46 0,-7.96 -6.46,-14.59 -14.3,-14.59z"/>
     <path class="fil18 str4" d="M21807.16 6306.08c-298.77,0 -597.54,0 -895.85,0 -7.84,0 -14.3,5.96 -14.3,13.92 0,14.6 0,28.53 0,42.46 0,7.96 6.46,14.6 14.3,14.6 298.31,0 597.08,0 895.85,0 7.84,0 14.3,-6.64 14.3,-14.6 0,-13.93 0,-27.86 0,-42.46 0,-7.96 -6.46,-13.92 -14.3,-13.92z"/>
    </g>
    <path class="fil21" d="M19387.02 2552.65c-37.34,0 -74.69,0 -111.58,0 -5.53,17.91 -11.06,35.16 -16.13,52.41 -33.66,0 -66.86,0 -100.05,0 39.65,-106.15 79.3,-212.28 119.42,-318.43 35.95,0 71.92,0 107.88,0 39.65,106.15 79.31,212.28 119.42,318.43 -34.58,0 -69.16,0 -103.28,0 -5.54,-17.25 -10.61,-34.5 -15.68,-52.41zm-20.74 -68.99c-11.99,-37.82 -23.52,-75.62 -35.05,-114.1 -11.53,38.48 -23.05,76.28 -34.58,114.1 23.05,0 46.11,0 69.63,0zm170.13 -197.03c54.41,0 108.81,0 163.68,0 35.5,0 62.52,8.33 80.23,25.21 17.79,16.96 26.74,41.13 26.74,72.98 0,31.84 -10.21,56.99 -29.05,74.96 -19.42,18.51 -49.34,27.2 -88.99,27.2 -17.98,0 -35.96,0 -53.94,0 0,39.8 0,78.94 0,118.08 -33.2,0 -65.93,0 -98.67,0 0,-106.15 0,-212.28 0,-318.43zm98.67 135.99c7.83,0 16.14,0 24.43,0 18.91,0 32.28,-3.32 40.12,-9.95 7.83,-6.63 11.52,-14.59 11.52,-25.2 0,-9.95 -3.51,-18.3 -10.14,-25.21 -6.75,-7.03 -18.91,-10.61 -37.8,-10.61 -9.69,0 -18.91,0 -28.13,0 0,23.88 0,47.76 0,70.97zm222.69 -135.99c54.41,0 108.81,0 163.68,0 35.5,0 62.31,8.57 79.76,25.21 18.04,17.19 26.75,41.13 26.75,72.98 0,31.84 -9.85,56.87 -29.05,74.96 -19.53,18.39 -48.88,27.2 -88.53,27.2 -17.97,0 -35.96,0 -53.94,0 0,39.8 0,78.94 0,118.08 -33.2,0 -65.93,0 -98.67,0 0,-106.15 0,-212.28 0,-318.43zm98.67 135.99c7.84,0 15.67,0 23.98,0 19.36,0 32.83,-3.2 40.57,-9.95 7.48,-6.51 11.52,-14.59 11.52,-25.2 0,-9.95 -3.74,-18.54 -10.14,-25.21 -6.95,-7.24 -19.36,-10.61 -37.8,-10.61 -9.68,0 -18.91,0 -28.13,0 0,23.88 0,47.76 0,70.97zm224.08 182.44c0,-106.15 0,-212.28 0,-318.43 54.4,0 109.27,0 164.14,0 29.97,0 53.48,2.66 69.62,7.96 16.14,5.31 28.9,14.71 38.73,29.2 9.52,14.02 14.75,31.17 14.75,51.74 0,17.25 -3.72,32.5 -11.53,45.77 -7.39,12.59 -17.44,23.36 -30.88,31.18 -8.23,4.78 -19.83,9.29 -34.59,12.6 11.53,3.99 20.23,7.39 25.37,11.28 3.61,2.73 9.2,8.64 16.13,17.25 6.43,7.97 11.05,14.61 13.37,19.24 15.66,31.19 31.82,61.69 47.96,92.21 -37.36,0 -74.24,0 -111.12,0 -17.52,-31.85 -34.98,-64.39 -52.57,-96.86 -6.84,-12.64 -12.68,-20.87 -17.98,-24.54 -7.15,-4.97 -15.21,-7.3 -23.97,-7.3 -3.23,0 -5.99,0 -8.76,0 0,43.12 0,86.24 0,128.7 -33.2,0 -65.93,0 -98.67,0zm98.67 -189.07c13.83,0 27.66,0 41.5,0 4.61,0 13.36,-1.34 26.27,-3.98 6.45,-1.32 11.68,-4.86 15.68,-10.61 3.85,-5.54 6.46,-11.28 6.46,-17.91 0,-10.62 -3.4,-18.39 -9.68,-23.88 -6.62,-5.79 -18.91,-8.63 -36.9,-8.63 -14.75,0 -29.04,0 -43.33,0 0,21.89 0,43.78 0,65.01zm225.92 29.85c0,-51.74 14.46,-92.05 43.34,-120.73 29.21,-29.02 69.17,-43.78 120.8,-43.78 53.03,0 94.23,14.43 122.64,42.46 28.75,28.35 42.89,68.32 42.89,120.07 0,37.14 -5.82,67.1 -18.45,90.88 -12.73,23.97 -30.84,42.56 -54.4,55.72 -23.92,13.37 -53.49,19.9 -88.53,19.9 -35.96,0 -65.94,-5.97 -89.44,-17.25 -23.51,-11.27 -42.45,-29.17 -57.18,-54.39 -14.31,-24.53 -21.67,-55.73 -21.67,-92.88zm98.21 0.67c0,31.84 5.99,55.07 17.98,68.99 11.98,13.93 28.13,21.23 48.87,21.23 21.21,0 37.38,-7.27 48.87,-20.57 12.02,-13.9 17.52,-38.47 17.52,-74.29 0,-29.86 -5.86,-51.86 -17.98,-65.68 -12.3,-14.04 -28.58,-20.57 -49.33,-20.57 -19.82,0 -35.97,7.3 -47.95,21.23 -11.99,13.93 -17.98,37.15 -17.98,69.66zm234.22 -159.88c34.12,0 68.24,0 102.82,0 23.97,76.95 47.95,153.24 71.93,229.53 23.51,-76.29 47.02,-152.58 70.54,-229.53 33.19,0 66.39,0 99.59,0 -39.66,106.15 -78.85,212.28 -118.04,318.43 -35.49,0 -71,0 -106.51,0 -40.1,-106.15 -80.22,-212.28 -120.33,-318.43zm547.29 266.02c-37.35,0 -74.24,0 -111.12,0 -5.53,17.91 -11.06,35.16 -16.14,52.41 -33.65,0 -67.31,0 -100.51,0 39.65,-106.15 79.76,-212.28 119.87,-318.43 35.97,0 71.93,0 107.9,0 39.65,106.15 79.3,212.28 118.96,318.43 -34.59,0 -68.71,0 -102.83,0 -5.53,-17.25 -11.06,-34.5 -16.13,-52.41zm-20.75 -68.99c-11.53,-37.82 -23.05,-75.62 -34.58,-114.1 -11.99,38.48 -23.52,76.28 -35.04,114.1 23.05,0 46.11,0 69.62,0zm171.05 -197.03c32.74,0 65.47,0 98.21,0 0,80.28 0,160.54 0,240.15 51.18,0 102.36,0 154,0 0,26.54 0,52.41 0,78.28 -84.38,0 -168.29,0 -252.21,0 0,-106.15 0,-212.28 0,-318.43z"/>
    <path class="fil22" d="M19929.08 1447.02c-74.11,30.66 -123.99,85.22 -149.64,163.7 -19.35,-114.01 30.53,-168.58 149.64,-163.7z"/>
   </g>
  </g>
 </g>
</svg>
