<?xml version="1.0" encoding="UTF-8"?>
<!DOCTYPE svg PUBLIC "-//W3C//DTD SVG 1.1//EN" "http://www.w3.org/Graphics/SVG/1.1/DTD/svg11.dtd">
<!-- Creator: CorelDRAW 2018 (64-Bit) -->
<svg xmlns="http://www.w3.org/2000/svg" xml:space="preserve" width="254mm" height="84.6667mm" version="1.1" style="shape-rendering:geometricPrecision; text-rendering:geometricPrecision; image-rendering:optimizeQuality; fill-rule:evenodd; clip-rule:evenodd"
viewBox="0 0 25400 8466.67"
 xmlns:xlink="http://www.w3.org/1999/xlink">
 <defs>
  <style type="text/css">
   <![CDATA[
    .str0 {stroke:white;stroke-width:300;stroke-miterlimit:22.9256}
    .str3 {stroke:#009607;stroke-width:20;stroke-miterlimit:22.9256}
    .str2 {stroke:#FFF8FF;stroke-width:20;stroke-miterlimit:22.9256}
    .str1 {stroke:white;stroke-width:20;stroke-miterlimit:22.9256}
    .str4 {stroke:white;stroke-width:57.32;stroke-linecap:round;stroke-linejoin:round;stroke-miterlimit:22.9256}
    .fil7 {fill:none}
    .fil22 {fill:none;fill-rule:nonzero}
    .fil0 {fill:#001501}
    .fil10 {fill:#009607}
    .fil11 {fill:#00B509}
    .fil16 {fill:#1EC01E}
    .fil13 {fill:#FFF8FF}
    .fil12 {fill:white}
    .fil9 {fill:white}
    .fil14 {fill:#009607;fill-rule:nonzero}
    .fil21 {fill:#1EC01E;fill-rule:nonzero}
    .fil23 {fill:white;fill-rule:nonzero}
    .fil3 {fill:url(#id2)}
    .fil1 {fill:url(#id3)}
    .fil5 {fill:url(#id4)}
    .fil8 {fill:url(#id5)}
    .fil4 {fill:url(#id6)}
    .fil2 {fill:url(#id7)}
    .fil6 {fill:url(#id8)}
    .fil17 {fill:url(#id9)}
    .fil15 {fill:url(#id10)}
    .fil18 {fill:url(#id11)}
    .fil19 {fill:url(#id12)}
    .fil20 {fill:url(#id13)}
   ]]>
  </style>
     <mask id="id0">
  <linearGradient id="id1" gradientUnits="userSpaceOnUse" x1="4341.34" y1="1101.54" x2="4556.39" y2="1288.36">
   <stop offset="0" style="stop-opacity:1; stop-color:white"/>
   <stop offset="1" style="stop-opacity:0; stop-color:white"/>
  </linearGradient>
      <rect style="fill:url(#id1)" x="751.56" y="564.91" width="4428.21" height="1139.83"/>
     </mask>
  <linearGradient id="id2" gradientUnits="userSpaceOnUse" x1="401.56" y1="968.8" x2="24998.44" y2="5489.36">
   <stop offset="0" style="stop-opacity:1; stop-color:#1BAB1B"/>
   <stop offset="1" style="stop-opacity:1; stop-color:#021E03"/>
  </linearGradient>
  <linearGradient id="id3" gradientUnits="userSpaceOnUse" x1="14274.28" y1="1005.64" x2="25400" y2="1005.64">
   <stop offset="0" style="stop-opacity:1; stop-color:#1BAB1B"/>
   <stop offset="1" style="stop-opacity:1; stop-color:#001501"/>
  </linearGradient>
  <linearGradient id="id4" gradientUnits="userSpaceOnUse" xlink:href="#id3" x1="15385.18" y1="8695.25" x2="15760.38" y2="5082.88">
  </linearGradient>
  <linearGradient id="id5" gradientUnits="userSpaceOnUse" xlink:href="#id3" x1="1423" y1="4843.64" x2="7786.24" y2="9251.61">
  </linearGradient>
  <linearGradient id="id6" gradientUnits="userSpaceOnUse" x1="7143.27" y1="11958.19" x2="14461.53" y2="1539.26">
   <stop offset="0" style="stop-opacity:1; stop-color:#157D15"/>
   <stop offset="1" style="stop-opacity:1; stop-color:#001501"/>
  </linearGradient>
  <linearGradient id="id7" gradientUnits="userSpaceOnUse" xlink:href="#id6" x1="23326.76" y1="5164.6" x2="11494.35" y2="-1937.98">
  </linearGradient>
  <linearGradient id="id8" gradientUnits="userSpaceOnUse" xlink:href="#id6" x1="-0.01" y1="3315.55" x2="25400" y2="3315.55">
  </linearGradient>
  <linearGradient id="id9" gradientUnits="userSpaceOnUse" x1="1101.87" y1="1115.19" x2="1179.95" y2="1376.45">
   <stop offset="0" style="stop-opacity:1; stop-color:#1EC01E"/>
   <stop offset="0.529412" style="stop-opacity:1; stop-color:#1D6E1D"/>
   <stop offset="1" style="stop-opacity:1; stop-color:#1C1C1C"/>
  </linearGradient>
  <linearGradient id="id10" gradientUnits="userSpaceOnUse" x1="1728.02" y1="1158.22" x2="1809.8" y2="1381.04">
   <stop offset="0" style="stop-opacity:1; stop-color:#1EC01E"/>
   <stop offset="0.678431" style="stop-opacity:1; stop-color:#1D6E1D"/>
   <stop offset="1" style="stop-opacity:1; stop-color:#1C1C1C"/>
  </linearGradient>
  <linearGradient id="id11" gradientUnits="userSpaceOnUse" x1="1220.04" y1="1311.9" x2="1447.78" y2="1309.67">
   <stop offset="0" style="stop-opacity:1; stop-color:#1EC01E"/>
   <stop offset="0.631373" style="stop-opacity:1; stop-color:#1D6E1D"/>
   <stop offset="1" style="stop-opacity:1; stop-color:#1C1C1C"/>
  </linearGradient>
  <linearGradient id="id12" gradientUnits="userSpaceOnUse" x1="1342.11" y1="907.98" x2="1462.23" y2="619.7">
   <stop offset="0" style="stop-opacity:1; stop-color:#1EC01E"/>
   <stop offset="0.65098" style="stop-opacity:1; stop-color:#1D6E1D"/>
   <stop offset="1" style="stop-opacity:1; stop-color:#1C1C1C"/>
  </linearGradient>
  <linearGradient id="id13" gradientUnits="userSpaceOnUse" x1="1688.81" y1="888.53" x2="1849.99" y2="1139.04">
   <stop offset="0" style="stop-opacity:1; stop-color:#1EC01E"/>
   <stop offset="0.670588" style="stop-opacity:1; stop-color:#1D6E1D"/>
   <stop offset="1" style="stop-opacity:1; stop-color:#1C1C1C"/>
  </linearGradient>
 </defs>
 <g id="Layer_x0020_1">
  <metadata id="CorelCorpID_0Corel-Layer"/>
  <g id="_2288109029136">
   <g>
    <rect class="fil0" x="0" y="0.01" width="25399.99" height="8466.66" rx="423.33" ry="423.33"/>
    <path class="fil1" d="M14274.27 0c5894.61,1065.61 9603.17,1736.04 11125.73,2011.28l0 -1587.94c0,-232.83 -190.5,-423.33 -423.34,-423.33l-10702.39 -0.01z"/>
    <path class="fil2" d="M9421.12 0c8581.77,1732.93 13908.07,2808.48 15978.88,3226.64l0 -1215.36c-1522.56,-275.24 -5231.12,-945.67 -11125.67,-2011.27l-4853.21 -0.01z"/>
    <path class="fil3" d="M19239.05 6458.15c4107.3,-1816.51 6160.95,-2724.76 6160.95,-2724.76 0,0 -6207.48,-1244.46 -18622.45,-3733.38l-6354.21 0c-232.84,0 -423.34,190.5 -423.34,423.33l0 2452.61c12533.87,2311.91 19239.05,3582.2 19239.05,3582.2z"/>
    <path class="fil4" d="M21604.79 8466.67c0,0 -5475.26,-1145.29 -16425.76,-3435.89 0,0 -1726.35,632.76 -5179.03,1898.26l0 1114.3c0,232.83 190.5,423.33 423.34,423.33l21181.45 0z"/>
    <path class="fil5" d="M6726.46 6466.98c1629.08,-770.34 2443.63,-1155.51 2443.63,-1155.51 10166,2103.46 15248.99,3155.19 15248.99,3155.19 -4483.14,0 -8712.11,0.01 -8712.11,0.01l-8980.51 -1999.69z"/>
    <path class="fil6" d="M423.34 0.01c577.68,-0.01 866.52,-0.01 866.52,-0.01 0,0 11560.69,2342.23 24110.14,4948.07l0 1683.04c0,0 -13951.28,-2935.98 -25400,-5328.95 0,-585.88 0,-878.82 0,-878.82 7.41,-139.21 57.32,-246.68 149.75,-322.42 69.92,-62.51 161.12,-96.15 273.59,-100.91z"/>
    <path class="fil7" d="M-0 5628.59c6139.5,1892.05 9209.25,2838.08 9209.25,2838.08"/>
    <path class="fil8" d="M1927.44 6222.58c-604.8,-186.39 -1247.28,-384.39 -1927.44,-593.99l0 1300.45 0 1114.3c0,232.83 190.5,423.33 423.34,423.33l8785.91 0c0,0 -2427.28,-748.03 -7281.81,-2244.09z"/>
   </g>
   <g>
    <path class="fil9 str0" d="M18741.53 1665.71c-308.92,-16.59 -464.76,119.41 -467.52,409.96 -14.3,1162.26 -28.14,2202.44 -47.5,3071.48 -19.36,869.01 -44.26,1568.89 -80.68,2052.5 -25.81,232.85 51.64,339.66 272.49,319.75 651.49,-15.92 1308.05,-21.88 1968.76,-19.23 660.7,2.64 1326.03,15.92 1995.96,38.47 231.91,1.99 347.65,-90.22 346.72,-276.63 -18.91,-531.37 -36.89,-1043.51 -53.03,-1534.41 -16.12,-490.9 -30.88,-962.57 -44.26,-1413.67 -0.46,-301.84 -3.69,-615.62 -8.75,-940.67 -5.07,-325.06 -12.45,-663.39 -22.6,-1012.99 -2.77,-427.22 -104.2,-607.66 -393.29,-601.03 -165.06,1.33 -327.82,1.99 -487.34,1.99 -25.37,-41.79 -72.39,-74.3 -142.02,-78.94 -219.46,0 -329.2,0 -329.2,0 25.83,-137.99 -24.43,-189.73 -150.77,-199.02 -237.44,-9.95 -356.4,-15.26 -356.4,-15.26 124.49,-326.37 50.72,-505.49 -220.39,-537.99 -232.38,-23.23 -305.23,153.24 -217.16,502.84 -252.21,-9.95 -378.54,-14.6 -378.54,-14.6 -137.4,-1.99 -207.02,56.39 -178.43,212.95 -233.77,-3.98 -350.87,-5.97 -350.87,-5.97 -72.4,0.66 -123.11,31.84 -151.69,73.64 -172.44,-9.96 -340.27,-20.57 -503.49,-33.17z"/>
    <path class="fil10" d="M18741.53 1647.13c-308.92,-17.25 -464.76,120.08 -467.52,411.3 -14.3,1166.23 -28.14,2209.07 -47.5,3080.76 -19.36,871.67 -44.26,1574.2 -80.68,2059.13 -25.81,234.18 51.64,340.99 272.49,321.08 651.49,-15.92 1308.05,-21.88 1968.76,-19.23 660.7,2.64 1326.03,15.92 1995.96,38.47 231.91,1.99 347.65,-90.22 346.72,-277.95 -18.91,-532.7 -36.89,-1045.5 -53.03,-1538.39 -16.13,-492.9 -30.88,-965.89 -44.26,-1418.98 -0.46,-302.5 -3.69,-616.95 -8.75,-943.33 -5.07,-326.38 -12.45,-665.38 -22.6,-1016.31 -2.77,-428.54 -104.2,-609.64 -393.29,-602.35 -171.14,1.37 -339.39,1.98 -504.73,1.89 9.19,11.13 16.55,23.3 22.11,36.09 14.08,10.31 -880.02,-63.17 -2505.97,-63.65 6.51,-12.68 14.87,-24.67 25.07,-35.52 -172.43,-9.87 -340.02,-20.89 -502.78,-33.01z"/>
    <path class="fil10" d="M21725.21 1779.31c-21.97,-50.53 -71.97,-91.33 -151.81,-96.35 -220.38,0 -330.59,0 -330.59,0 26.29,-138.66 -24.43,-190.41 -151.68,-199.69 -238.38,-9.96 -357.79,-15.26 -357.79,-15.26 124.95,-326.37 51.18,-505.49 -221.32,-537.99 -233.76,-23.23 -306.61,153.24 -218.54,502.84 -253.13,-9.95 -379.92,-14.6 -379.92,-14.6 -138.31,-1.99 -207.94,57.05 -179.35,212.95 -235.15,-3.32 -352.26,-5.31 -352.26,-5.31 -82.27,0.24 -136.99,39.66 -162.71,89.76 1684.74,52.74 2520.05,73.96 2505.97,63.65z"/>
    <path class="fil11" d="M18857.51 1734.2c-287.76,-16.41 -432.93,114.18 -435.5,391.13 -13.32,1109.06 -26.21,2100.77 -44.25,2929.73 -18.03,828.94 -41.23,1497.03 -75.15,1958.19 -24.05,222.7 48.1,324.27 253.83,305.34 606.87,-15.14 1218.48,-20.81 1833.95,-18.29 615.46,2.52 1235.23,15.14 1859.29,36.59 216.03,1.89 323.84,-85.8 322.98,-264.33 -17.61,-506.59 -34.36,-994.24 -49.39,-1462.97 -15.04,-468.73 -28.78,-918.54 -41.24,-1349.42 -0.43,-287.67 -3.44,-586.71 -8.15,-897.08 -4.73,-310.38 -11.6,-632.76 -21.05,-966.49 -2.58,-407.53 -97.07,-579.76 -366.36,-572.83 -619.76,5.06 -1198.73,-0.64 -1736.88,-15.14 -538.16,-14.51 -1035.52,-39.74 -1492.08,-74.43z"/>
    <path class="fil12 str1" d="M18734.15 7158.52c995.91,-10.61 1779.26,-16.58 2349.14,-16.58 569.88,0 927.67,3.98 1072.44,13.93 152.61,5.31 235.14,-68.33 229.61,-234.84 -34.57,-655.42 -61.78,-1387.14 -81.15,-2193.81 -19.36,-806.68 -31.35,-1689.64 -35.96,-2648.22 -6.45,-116.1 -50.26,-161.2 -160.45,-158.55 -581.86,-2.65 -1144.37,-15.94 -1687.04,-39.15 -542.67,-23.22 -1066.45,-57.71 -1570.86,-102.16 -138.32,-9.95 -194.57,59.71 -192.73,199.68 -36.42,1647.85 -63.62,2883.74 -81.6,3706.99 -17.98,823.26 -27.2,1235.22 -27.2,1235.22 -0.47,163.2 54.4,236.83 185.8,237.49z"/>
    <path class="fil13" d="M20547.11 980.07c-141.55,13.27 -225,88.23 -249.9,225.56 -18.44,-201.67 65.02,-277.3 249.9,-225.56z"/>
    <path class="fil13 str2" d="M20514.79 1087.89c54.17,0 98.21,43.8 98.21,98.19 0,54.39 -44.04,98.18 -98.21,98.18 -54.16,0 -98.66,-43.79 -98.66,-98.18 0,-54.39 44.5,-98.19 98.66,-98.19z"/>
    <g>
     <path class="fil11 str3" d="M19068.42 3407.75c104.21,0 208.87,0 313.53,0 38.27,0 69.63,31.18 69.63,69.66 0,104.81 0,208.96 0,313.11 0,38.48 -31.36,69.66 -69.63,69.66 -104.66,0 -209.32,0 -313.53,0 -38.26,0 -69.61,-31.18 -69.61,-69.66 0,-104.15 0,-208.3 0,-313.11 0,-38.48 31.35,-69.66 69.61,-69.66z"/>
     <g>
      <path class="fil11 str3" d="M19685.34 3498.64c372.54,0 745.08,0 1117.62,0 372.54,0 745.55,0 1118.55,0 7.37,0 13.83,5.96 13.83,13.92 0,21.24 0,41.8 0,62.37 0,7.96 -6.46,13.92 -13.83,13.92 -373,0 -746.01,0 -1118.55,0 -372.54,0 -745.08,0 -1117.62,0 -7.38,0 -13.84,-5.96 -13.84,-13.92 0,-20.57 0,-41.13 0,-62.37 0,-7.96 6.46,-13.92 13.84,-13.92z"/>
      <path class="fil11 str3" d="M19685.34 3679.08c266.95,0 533.91,0 800.87,0 266.95,0 533.91,0 801.33,0 7.84,0 13.83,5.97 13.83,13.93 0,21.22 0,41.79 0,62.36 0,7.96 -5.99,13.93 -13.83,13.93 -267.42,0 -534.38,0 -801.33,0 -266.96,0 -533.92,0 -800.87,0 -7.38,0 -13.84,-5.97 -13.84,-13.93 0,-20.57 0,-41.14 0,-62.36 0,-7.96 6.46,-13.93 13.84,-13.93z"/>
     </g>
     <path class="fil9" d="M19080.41 3628.66c5.53,17.91 63.17,86.24 77.92,104.81 6.46,6.64 12.91,11.28 25.83,12.61 22.13,1.32 29.04,-11.95 35.49,-19.24 49.34,-55.72 98.68,-111.45 148.01,-167.17 0.46,-2.66 0.92,-5.31 1.84,-7.96 4.62,-25.87 -24.43,-37.82 -40.57,-24.55 -2.77,1.99 -5.08,3.98 -7.38,5.97 -2.31,1.98 -4.61,3.98 -6.92,5.97 -28.58,26.53 -98.2,87.57 -126.79,106.14 -9.22,-3.31 -41.96,-36.48 -53.02,-45.1 -25.36,-20.57 -59.02,-3.99 -54.41,28.52z"/>
    </g>
    <g>
     <path class="fil11 str3" d="M19068.42 4293.37c104.21,0 208.87,0 313.53,0 38.27,0 69.63,31.84 69.63,69.66 0,104.81 0,209.63 0,313.78 0,38.47 -31.36,69.65 -69.63,69.65 -104.66,0 -209.32,0 -313.53,0 -38.26,0 -69.61,-31.18 -69.61,-69.65 0,-104.15 0,-208.97 0,-313.78 0,-37.82 31.35,-69.66 69.61,-69.66z"/>
     <g>
      <path class="fil11 str3" d="M19685.34 4384.25c372.54,0 745.08,0 1117.62,0 372.54,0 745.55,0 1118.55,0 7.37,0 13.83,6.63 13.83,13.93 0,21.23 0,42.46 0,63.02 0,7.96 -6.46,13.94 -13.83,13.94 -373,0 -746.01,0 -1118.55,0 -372.54,0 -745.08,0 -1117.62,0 -7.38,0 -13.84,-5.98 -13.84,-13.94 0,-20.56 0,-41.79 0,-63.02 0,-7.3 6.46,-13.93 13.84,-13.93z"/>
      <path class="fil11 str3" d="M19685.34 4564.7c266.95,0 533.91,0 800.87,0 266.95,0 533.91,0 801.33,0 7.84,0 13.83,6.62 13.83,13.92 0,21.23 0,42.46 0,63.03 0,7.3 -5.99,13.92 -13.83,13.92 -267.42,0 -534.38,0 -801.33,0 -266.96,0 -533.92,0 -800.87,0 -7.38,0 -13.84,-6.62 -13.84,-13.92 0,-20.57 0,-41.8 0,-63.03 0,-7.3 6.46,-13.92 13.84,-13.92z"/>
     </g>
     <path class="fil9" d="M19080.41 4514.94c5.53,17.91 63.17,85.58 77.92,104.81 6.46,6.64 12.91,11.28 25.83,12.61 22.13,1.33 29.04,-11.95 35.49,-19.24 49.34,-55.72 98.68,-111.45 148.01,-167.17 0.46,-2.66 0.92,-5.31 1.84,-7.96 4.62,-25.87 -24.43,-37.82 -40.57,-24.55 -2.77,1.99 -5.07,3.99 -7.38,5.97 -2.3,1.99 -4.61,3.98 -6.92,5.97 -28.58,26.53 -98.2,87.57 -126.79,106.15 -9.22,-3.33 -41.96,-36.5 -53.02,-45.12 -25.36,-20.56 -59.02,-3.98 -54.41,28.53z"/>
    </g>
    <g>
     <path class="fil11 str3" d="M19068.42 5178.98c104.21,0 208.87,0 313.53,0 38.27,0 69.63,31.18 69.63,69.67 0,104.81 0,208.95 0,313.11 0,38.47 -31.36,69.66 -69.63,69.66 -104.66,0 -209.32,0 -313.53,0 -38.26,0 -69.61,-31.19 -69.61,-69.66 0,-104.16 0,-208.3 0,-313.11 0,-38.49 31.35,-69.67 69.61,-69.67z"/>
     <g>
      <path class="fil11 str3" d="M19685.34 5269.87c372.54,0 745.08,0 1117.62,0 372.54,0 745.55,0 1118.55,0 7.37,0 13.83,5.97 13.83,13.93 0,21.23 0,41.8 0,62.36 0,7.96 -6.46,13.93 -13.83,13.93 -373,0 -746.01,0 -1118.55,0 -372.54,0 -745.08,0 -1117.62,0 -7.38,0 -13.84,-5.97 -13.84,-13.93 0,-20.56 0,-41.13 0,-62.36 0,-7.96 6.46,-13.93 13.84,-13.93z"/>
      <path class="fil11 str3" d="M19685.34 5450.31c266.95,0 533.91,0 800.87,0 266.95,0 533.91,0 801.33,0 7.84,0 13.83,5.97 13.83,13.93 0,21.23 0,41.79 0,62.35 0,7.97 -5.99,13.94 -13.83,13.94 -267.42,0 -534.38,0 -801.33,0 -266.96,0 -533.92,0 -800.87,0 -7.38,0 -13.84,-5.97 -13.84,-13.94 0,-20.56 0,-41.12 0,-62.35 0,-7.96 6.46,-13.93 13.84,-13.93z"/>
     </g>
     <path class="fil9" d="M19080.41 5399.89c5.53,17.92 63.17,86.25 77.92,104.82 6.46,6.63 12.91,11.27 25.83,12.6 22.13,1.33 29.04,-11.94 35.49,-19.24 49.34,-55.05 98.68,-110.78 148.01,-166.51 0.46,-2.65 0.92,-5.3 1.84,-8.62 4.62,-25.87 -24.43,-37.81 -40.57,-24.55 -2.77,2 -5.08,3.99 -7.38,5.97 -2.31,1.99 -4.61,4.65 -6.92,6.64 -28.58,25.87 -98.2,86.9 -126.79,106.14 -9.22,-3.98 -41.96,-37.15 -53.02,-45.77 -25.36,-20.56 -59.02,-3.98 -54.41,28.52z"/>
    </g>
    <g>
     <path class="fil11 str3" d="M21807.16 6175.39c-298.77,0 -597.54,0 -895.85,0 -7.84,0 -14.3,6.63 -14.3,14.59 0,14.6 0,28.53 0,42.46 0,7.96 6.46,13.93 14.3,13.93 298.31,0 597.08,0 895.85,0 7.84,0 14.3,-5.97 14.3,-13.93 0,-13.93 0,-27.86 0,-42.46 0,-7.96 -6.46,-14.59 -14.3,-14.59z"/>
     <path class="fil11 str3" d="M21807.16 6306.08c-298.77,0 -597.54,0 -895.85,0 -7.84,0 -14.3,5.96 -14.3,13.92 0,14.6 0,28.53 0,42.46 0,7.96 6.46,14.6 14.3,14.6 298.31,0 597.08,0 895.85,0 7.84,0 14.3,-6.64 14.3,-14.6 0,-13.93 0,-27.86 0,-42.46 0,-7.96 -6.46,-13.92 -14.3,-13.92z"/>
    </g>
    <path class="fil14" d="M19387.02 2552.65c-37.34,0 -74.69,0 -111.58,0 -5.53,17.91 -11.06,35.16 -16.13,52.41 -33.66,0 -66.86,0 -100.05,0 39.65,-106.15 79.3,-212.28 119.42,-318.43 35.95,0 71.92,0 107.88,0 39.65,106.15 79.31,212.28 119.42,318.43 -34.58,0 -69.16,0 -103.28,0 -5.54,-17.25 -10.61,-34.5 -15.68,-52.41zm-20.74 -68.99c-11.99,-37.82 -23.52,-75.62 -35.05,-114.1 -11.53,38.48 -23.05,76.28 -34.58,114.1 23.05,0 46.11,0 69.63,0zm170.13 -197.03c54.41,0 108.81,0 163.68,0 35.5,0 62.52,8.33 80.23,25.21 17.79,16.96 26.74,41.13 26.74,72.98 0,31.84 -10.21,56.99 -29.05,74.96 -19.42,18.51 -49.34,27.2 -88.99,27.2 -17.98,0 -35.96,0 -53.94,0 0,39.8 0,78.94 0,118.08 -33.2,0 -65.93,0 -98.67,0 0,-106.15 0,-212.28 0,-318.43zm98.67 135.99c7.83,0 16.14,0 24.43,0 18.91,0 32.28,-3.32 40.12,-9.95 7.83,-6.63 11.52,-14.59 11.52,-25.2 0,-9.95 -3.51,-18.3 -10.14,-25.21 -6.75,-7.03 -18.91,-10.61 -37.8,-10.61 -9.69,0 -18.91,0 -28.13,0 0,23.88 0,47.76 0,70.97zm222.69 -135.99c54.41,0 108.81,0 163.68,0 35.5,0 62.31,8.57 79.76,25.21 18.04,17.19 26.75,41.13 26.75,72.98 0,31.84 -9.85,56.87 -29.05,74.96 -19.53,18.39 -48.88,27.2 -88.53,27.2 -17.97,0 -35.96,0 -53.94,0 0,39.8 0,78.94 0,118.08 -33.2,0 -65.93,0 -98.67,0 0,-106.15 0,-212.28 0,-318.43zm98.67 135.99c7.84,0 15.67,0 23.98,0 19.36,0 32.83,-3.2 40.57,-9.95 7.48,-6.51 11.52,-14.59 11.52,-25.2 0,-9.95 -3.74,-18.54 -10.14,-25.21 -6.95,-7.24 -19.36,-10.61 -37.8,-10.61 -9.68,0 -18.91,0 -28.13,0 0,23.88 0,47.76 0,70.97zm224.08 182.44c0,-106.15 0,-212.28 0,-318.43 54.4,0 109.27,0 164.14,0 29.97,0 53.48,2.66 69.62,7.96 16.14,5.31 28.9,14.71 38.73,29.2 9.52,14.02 14.75,31.17 14.75,51.74 0,17.25 -3.72,32.5 -11.53,45.77 -7.39,12.59 -17.44,23.36 -30.88,31.18 -8.23,4.78 -19.83,9.29 -34.59,12.6 11.53,3.99 20.23,7.39 25.37,11.28 3.61,2.73 9.2,8.64 16.13,17.25 6.43,7.97 11.05,14.61 13.37,19.24 15.66,31.19 31.82,61.69 47.96,92.21 -37.36,0 -74.24,0 -111.12,0 -17.52,-31.85 -34.98,-64.39 -52.57,-96.86 -6.84,-12.64 -12.68,-20.87 -17.98,-24.54 -7.15,-4.97 -15.21,-7.3 -23.97,-7.3 -3.23,0 -5.99,0 -8.76,0 0,43.12 0,86.24 0,128.7 -33.2,0 -65.93,0 -98.67,0zm98.67 -189.07c13.83,0 27.66,0 41.5,0 4.61,0 13.36,-1.34 26.27,-3.98 6.45,-1.32 11.68,-4.86 15.68,-10.61 3.85,-5.54 6.46,-11.28 6.46,-17.91 0,-10.62 -3.4,-18.39 -9.68,-23.88 -6.62,-5.79 -18.91,-8.63 -36.9,-8.63 -14.75,0 -29.04,0 -43.33,0 0,21.89 0,43.78 0,65.01zm225.92 29.85c0,-51.74 14.46,-92.05 43.34,-120.73 29.21,-29.02 69.17,-43.78 120.8,-43.78 53.03,0 94.23,14.43 122.64,42.46 28.75,28.35 42.89,68.32 42.89,120.07 0,37.14 -5.82,67.1 -18.45,90.88 -12.73,23.97 -30.84,42.56 -54.4,55.72 -23.92,13.37 -53.49,19.9 -88.53,19.9 -35.96,0 -65.94,-5.97 -89.44,-17.25 -23.51,-11.27 -42.45,-29.17 -57.18,-54.39 -14.31,-24.53 -21.67,-55.73 -21.67,-92.88zm98.21 0.67c0,31.84 5.99,55.07 17.98,68.99 11.98,13.93 28.13,21.23 48.87,21.23 21.21,0 37.38,-7.27 48.87,-20.57 12.02,-13.9 17.52,-38.47 17.52,-74.29 0,-29.86 -5.86,-51.86 -17.98,-65.68 -12.3,-14.04 -28.58,-20.57 -49.33,-20.57 -19.82,0 -35.97,7.3 -47.95,21.23 -11.99,13.93 -17.98,37.15 -17.98,69.66zm234.22 -159.88c34.12,0 68.24,0 102.82,0 23.97,76.95 47.95,153.24 71.93,229.53 23.51,-76.29 47.02,-152.58 70.54,-229.53 33.19,0 66.39,0 99.59,0 -39.66,106.15 -78.85,212.28 -118.04,318.43 -35.49,0 -71,0 -106.51,0 -40.1,-106.15 -80.22,-212.28 -120.33,-318.43zm547.29 266.02c-37.35,0 -74.24,0 -111.12,0 -5.53,17.91 -11.06,35.16 -16.14,52.41 -33.65,0 -67.31,0 -100.51,0 39.65,-106.15 79.76,-212.28 119.87,-318.43 35.97,0 71.93,0 107.9,0 39.65,106.15 79.3,212.28 118.96,318.43 -34.59,0 -68.71,0 -102.83,0 -5.53,-17.25 -11.06,-34.5 -16.13,-52.41zm-20.75 -68.99c-11.53,-37.82 -23.05,-75.62 -34.58,-114.1 -11.99,38.48 -23.52,76.28 -35.04,114.1 23.05,0 46.11,0 69.62,0zm171.05 -197.03c32.74,0 65.47,0 98.21,0 0,80.28 0,160.54 0,240.15 51.18,0 102.36,0 154,0 0,26.54 0,52.41 0,78.28 -84.38,0 -168.29,0 -252.21,0 0,-106.15 0,-212.28 0,-318.43z"/>
    <path class="fil12" d="M19929.08 1447.02c-74.11,30.66 -123.99,85.22 -149.64,163.7 -19.35,-114.01 30.53,-168.58 149.64,-163.7z"/>
   </g>
   <g>
    <polygon class="fil9" style="mask:url(#id0)" points="761.56,574.91 2483.7,574.91 2503.7,574.91 5169.77,574.91 4207,1694.74 2503.7,1694.74 2483.7,1694.74 761.56,1694.74 "/>
    <g>
     <g>
      <path class="fil15" d="M1816.62 1188.37l0.01 -276.54c0,0 -49.27,28.36 -146.58,84.38l-0.39 277 146.96 -84.84z"/>
      <polygon class="fil16" points="1816.63,1357.83 1816.62,1188.37 1283.61,1496.08 1430.39,1580.82 "/>
      <polygon class="fil17" points="1190.73,1166.55 1190.73,827.2 1044.14,911.83 1044.15,1250.98 "/>
      <path class="fil18" d="M1190.46 1442.3l94.14 -54.35 -0.58 -168.63 -239.88 138.5c16.01,9.22 66.44,38.37 146.32,84.48z"/>
      <path class="fil19" d="M1283.92 1388.34c-0.03,-262.07 -0.05,-614.92 -0.05,-614.92 97.58,56.3 146.37,84.45 146.37,84.45 0,149.45 0,445.45 0,445.45 -97.55,56.32 -146.32,85.02 -146.32,85.02z"/>
      <path class="fil20" d="M1283.87 773.42c257.45,148.53 386.18,222.79 386.18,222.79 97.31,-56.02 146.58,-84.38 146.58,-84.38 -257.08,-148.9 -386.24,-223 -386.24,-223 -97.68,56.4 -146.52,84.59 -146.52,84.59z"/>
     </g>
     <g>
      <path class="fil21" d="M2108.06 1116.19c-18.64,-2.54 -33.47,-17.37 -36.02,-36.02l0 -207.21 -52.96 0 0 202.13c0,14.83 3.39,28.81 9.74,41.52 8.9,18.65 24.16,33.9 42.8,43.22 12.71,6.36 26.7,9.75 41.53,9.75l150.42 0 0 -52.97 -155.51 -0.42z"/>
      <polygon id="1" class="fil21" points="2358.91,1169.58 2358.91,872.96 2305.95,872.96 2305.95,1169.58 "/>
      <polygon id="2" class="fil21" points="2401.29,872.96 2401.29,925.93 2522.9,925.93 2522.9,1169.58 2575.87,1169.58 2575.87,925.93 2697.48,925.93 2697.48,872.96 "/>
      <path id="3" class="fil21" d="M2820.36 925.93l216.55 0 0 -52.97 -216.55 0c-44.07,0 -79.66,36.02 -79.66,80.09l0 136.44c0,44.07 35.59,80.09 79.66,80.09l216.55 0 0 -52.97 -216.55 0c-14.83,0 -27.12,-12.29 -27.12,-27.12l0 -55.93 190.7 0 0 -52.97 -190.7 0 0 -27.54c0,-14.83 12.29,-27.12 27.12,-27.12z"/>
      <path id="4" class="fil21" d="M3079.28 872.96l0 296.62 148.31 0c40.68,0 77.54,-16.53 104.24,-43.65 2.96,-2.96 5.93,-5.93 8.47,-8.89 22.04,-25.85 35.17,-59.33 35.17,-95.77 0,-82.2 -66.53,-148.31 -148.31,-148.31l-147.88 0zm52.54 52.97l95.34 0c52.55,0 95.34,42.87 95.34,95.55 0,52.69 -42.79,95.56 -95.34,95.56l-95.34 0 0 -191.11z"/>
      <path id="5" class="fil21" d="M3498.35 925.93l216.54 0 0 -52.97 -216.54 0c-44.07,0 -79.66,36.02 -79.66,80.09l0 136.44c0,44.07 35.59,80.09 79.66,80.09l216.54 0 0 -52.97 -216.54 0c-14.83,0 -27.12,-12.29 -27.12,-27.12l0 -55.93 190.69 0 0 -52.97 -190.69 0 0 -27.54c0,-14.83 12.29,-27.12 27.12,-27.12z"/>
      <path id="6" class="fil21" d="M3746.66 1170.85l0.85 -0.85 -0.85 0 0 0.85zm296.63 -0.85l-0.42 0 0.42 0.85 0 -0.85zm0 -297.04l-66.53 0 -81.36 105.65 -81.36 -105.65 -66.95 0 114.83 148.95 -113.99 148.09 66.96 0 80.93 -104.8 80.94 104.8 66.96 0 -114.41 -148.09 114.83 -148.95 -0.85 0z"/>
      <path class="fil21" d="M2227.54 1396.71c-2.76,0 -4.93,-0.74 -6.52,-2.23 -1.59,-1.48 -2.38,-3.54 -2.38,-6.19l0 -82.3c0,-6.89 2.01,-12.29 6.04,-16.21 4.02,-3.92 9.63,-5.88 16.84,-5.88l27.01 0c15.67,0 27.56,3.29 35.67,9.85 8.1,6.57 12.15,16.26 12.15,29.08 0,12.6 -4,22.16 -12,28.68 -7.99,6.51 -19.67,9.77 -35.03,9.77l-32.57 0 0 27.01c0,2.54 -0.85,4.58 -2.54,6.12 -1.7,1.53 -3.92,2.3 -6.67,2.3zm41.62 -49.73c19.28,0 28.92,-8.05 28.92,-24.15 0,-8.47 -2.41,-14.72 -7.23,-18.75 -4.82,-4.02 -12,-6.04 -21.53,-6.04l-25.26 0c-2.33,0 -4.13,0.75 -5.4,2.23 -1.27,1.48 -1.91,3.49 -1.91,6.04l0 40.67 32.41 0z"/>
      <path id="1" class="fil21" d="M2434.77 1306.15c0,-6.89 2.01,-12.32 6.04,-16.29 4.02,-3.97 9.69,-5.96 17,-5.96l28.75 0c15.36,0 26.93,3.08 34.72,9.22 7.78,6.14 11.68,15.2 11.68,27.17 0,11.33 -3.45,20.12 -10.33,26.37 -6.88,6.25 -16.42,9.38 -28.6,9.38l26.38 26.69c1.69,1.69 2.54,3.55 2.54,5.56 0,2.22 -1.06,4.23 -3.18,6.04 -2.01,1.48 -3.97,2.22 -5.88,2.22 -2.65,0 -5.19,-1.27 -7.62,-3.81l-34.96 -36.23 -17.95 0 0 31.62c0,2.65 -0.88,4.74 -2.62,6.28 -1.75,1.53 -4,2.3 -6.76,2.3 -2.86,0 -5.11,-0.77 -6.75,-2.3 -1.64,-1.54 -2.46,-3.63 -2.46,-6.28l0 -81.98zm51.64 35.75c10.16,0 17.34,-1.62 21.52,-4.85 4.19,-3.23 6.28,-8.82 6.28,-16.76 0,-7.73 -2.28,-13.3 -6.83,-16.68 -4.56,-3.39 -11.55,-5.09 -20.97,-5.09l-25.9 0c-2.23,0 -3.97,0.72 -5.25,2.15 -1.27,1.43 -1.9,3.41 -1.9,5.95l0 35.28 33.05 0z"/>
      <path id="2" class="fil21" d="M2703.34 1396.71c-11.75,0 -22.05,-2.38 -30.91,-7.15 -8.84,-4.77 -15.65,-11.49 -20.42,-20.18 -4.76,-8.68 -7.14,-18.64 -7.14,-29.87 0,-11.23 2.38,-21.18 7.14,-29.87 4.77,-8.68 11.58,-15.41 20.42,-20.18 8.86,-4.76 19.16,-7.14 30.91,-7.14 11.76,0 22.06,2.38 30.91,7.14 8.84,4.77 15.64,11.5 20.41,20.18 4.77,8.69 7.15,18.64 7.15,29.87 0,11.23 -2.38,21.19 -7.15,29.87 -4.77,8.69 -11.57,15.41 -20.41,20.18 -8.85,4.77 -19.15,7.15 -30.91,7.15zm0 -14.46c12.4,0 22.19,-3.81 29.4,-11.44 7.2,-7.62 10.8,-18.06 10.8,-31.3 0,-13.34 -3.68,-23.8 -11.04,-31.38 -7.36,-7.57 -17.4,-11.36 -30.11,-11.36 -8.05,0 -15.04,1.75 -20.97,5.25 -5.94,3.49 -10.5,8.47 -13.68,14.93 -3.17,6.46 -4.76,13.98 -4.76,22.56 0,8.79 1.64,16.39 4.92,22.8 3.29,6.41 7.95,11.33 13.99,14.78 6.04,3.44 13.19,5.16 21.45,5.16z"/>
      <path id="3" class="fil21" d="M2915.03 1396.71c-2.75,0 -4.95,-0.74 -6.59,-2.23 -1.65,-1.48 -2.47,-3.54 -2.47,-6.19l0 -90.25 -32.57 0c-2.75,0 -4.87,-0.6 -6.35,-1.82 -1.48,-1.22 -2.23,-2.94 -2.23,-5.17 0,-2.33 0.75,-4.1 2.23,-5.32 1.48,-1.22 3.6,-1.83 6.35,-1.83l83.26 0c2.75,0 4.9,0.61 6.43,1.83 1.54,1.22 2.31,2.99 2.31,5.32 0,2.23 -0.77,3.95 -2.31,5.17 -1.53,1.22 -3.68,1.82 -6.43,1.82l-32.57 0 0 90.25c0,2.54 -0.82,4.58 -2.47,6.12 -1.64,1.53 -3.84,2.3 -6.59,2.3z"/>
      <path id="4" class="fil21" d="M3126.87 1396.71c-11.75,0 -22.05,-2.38 -30.9,-7.15 -8.84,-4.77 -15.65,-11.49 -20.42,-20.18 -4.76,-8.68 -7.14,-18.64 -7.14,-29.87 0,-11.23 2.38,-21.18 7.14,-29.87 4.77,-8.68 11.58,-15.41 20.42,-20.18 8.85,-4.76 19.15,-7.14 30.9,-7.14 11.76,0 22.06,2.38 30.91,7.14 8.84,4.77 15.64,11.5 20.41,20.18 4.77,8.69 7.15,18.64 7.15,29.87 0,11.23 -2.38,21.19 -7.15,29.87 -4.77,8.69 -11.57,15.41 -20.41,20.18 -8.85,4.77 -19.15,7.15 -30.91,7.15zm0 -14.46c12.4,0 22.19,-3.81 29.4,-11.44 7.2,-7.62 10.8,-18.06 10.8,-31.3 0,-13.34 -3.68,-23.8 -11.04,-31.38 -7.36,-7.57 -17.4,-11.36 -30.11,-11.36 -8.05,0 -15.04,1.75 -20.97,5.25 -5.93,3.49 -10.49,8.47 -13.67,14.93 -3.17,6.46 -4.76,13.98 -4.76,22.56 0,8.79 1.64,16.39 4.92,22.8 3.29,6.41 7.95,11.33 13.98,14.78 6.04,3.44 13.19,5.16 21.45,5.16z"/>
      <path id="5" class="fil21" d="M3358.58 1396.71c-11.65,0 -21.79,-2.3 -30.42,-6.91 -8.64,-4.61 -15.26,-11.2 -19.86,-19.78 -4.61,-8.58 -6.91,-18.7 -6.91,-30.35 0,-11.65 2.3,-21.79 6.91,-30.42 4.6,-8.64 11.2,-15.28 19.78,-19.94 8.58,-4.66 18.69,-6.99 30.34,-6.99 9.54,0 18.38,1.64 26.54,4.92 8.15,3.28 14.3,7.73 18.43,13.35 1.16,1.69 1.74,3.23 1.74,4.6 0,2.33 -1.21,4.4 -3.65,6.2 -1.38,0.85 -2.81,1.27 -4.29,1.27 -1.38,0 -2.73,-0.32 -4.05,-0.95 -1.33,-0.64 -2.46,-1.48 -3.42,-2.54 -3.49,-4.24 -7.81,-7.37 -12.95,-9.38 -5.13,-2.01 -11.25,-3.02 -18.35,-3.02 -12.18,0 -21.68,3.79 -28.52,11.36 -6.83,7.58 -10.24,18.09 -10.24,31.54 0,13.24 3.44,23.65 10.32,31.22 6.89,7.57 16.42,11.36 28.6,11.36 14.41,0 25.48,-4.13 33.21,-12.39 2.54,-2.54 5.13,-3.82 7.78,-3.82 1.7,0 3.23,0.53 4.61,1.59 2.12,1.8 3.18,3.76 3.18,5.88 0,1.8 -0.64,3.5 -1.91,5.09 -4.55,5.61 -10.96,10.03 -19.22,13.26 -8.26,3.23 -17.48,4.85 -27.65,4.85z"/>
      <path id="6" class="fil21" d="M3581.86 1396.71c-11.75,0 -22.05,-2.38 -30.9,-7.15 -8.84,-4.77 -15.65,-11.49 -20.42,-20.18 -4.76,-8.68 -7.14,-18.64 -7.14,-29.87 0,-11.23 2.38,-21.18 7.14,-29.87 4.77,-8.68 11.58,-15.41 20.42,-20.18 8.85,-4.76 19.15,-7.14 30.9,-7.14 11.76,0 22.06,2.38 30.91,7.14 8.84,4.77 15.64,11.5 20.41,20.18 4.77,8.69 7.15,18.64 7.15,29.87 0,11.23 -2.38,21.19 -7.15,29.87 -4.77,8.69 -11.57,15.41 -20.41,20.18 -8.85,4.77 -19.15,7.15 -30.91,7.15zm0 -14.46c12.4,0 22.19,-3.81 29.4,-11.44 7.2,-7.62 10.8,-18.06 10.8,-31.3 0,-13.34 -3.68,-23.8 -11.04,-31.38 -7.36,-7.57 -17.4,-11.36 -30.11,-11.36 -8.05,0 -15.04,1.75 -20.97,5.25 -5.93,3.49 -10.49,8.47 -13.67,14.93 -3.17,6.46 -4.76,13.98 -4.76,22.56 0,8.79 1.64,16.39 4.92,22.8 3.29,6.41 7.95,11.33 13.98,14.78 6.04,3.44 13.19,5.16 21.45,5.16z"/>
      <path id="7" class="fil21" d="M3782.6 1395.12c-7.41,0 -13.21,-1.99 -17.4,-5.96 -4.18,-3.97 -6.27,-9.5 -6.27,-16.6l0 -81.82c0,-2.65 0.79,-4.72 2.38,-6.2 1.59,-1.48 3.76,-2.22 6.51,-2.22 2.76,0 4.96,0.76 6.6,2.3 1.64,1.53 2.46,3.57 2.46,6.12l0 81.98c0,2.54 0.66,4.55 1.99,6.04 1.32,1.48 3.15,2.22 5.48,2.22l51.48 0c5.71,0 8.57,2.38 8.57,7.15 0,2.22 -0.74,3.94 -2.22,5.16 -1.48,1.22 -3.6,1.83 -6.35,1.83l-53.23 0z"/>
     </g>
    </g>
   </g>
   <g>
    <polygon class="fil22 str4" points="1941.65,7180.65 1416.56,6150.19 891.48,7180.65 776.78,7404.66 1027.68,7404.66 1142.37,7180.65 1416.56,6643.02 1690.75,7180.65 1805.45,7404.66 2056.34,7404.66 "/>
   </g>
   <g>
    <path id="1" class="fil22 str4" d="M3194.32 6248.76c-60.93,-60.94 -145.16,-98.57 -238.35,-98.57l-790.31 0 0 0 0 0 0 1254.47 224.01 0 0 -577.06 600.35 0 0 -1.79c3.59,0 7.17,0 10.76,0 34.05,-3.58 66.3,-12.54 96.77,-26.88 116.49,-53.76 197.13,-172.04 197.13,-308.24 0,-93.19 -37.63,-177.42 -98.57,-240.14l-1.79 -1.79zm-189.96 345.87c-14.34,7.17 -30.47,10.75 -46.59,10.75l-568.1 0 0 -231.18 568.1 0c39.42,0 66.3,17.92 80.64,32.26 12.54,12.55 34.05,41.22 34.05,82.44 0,44.8 -26.88,86.02 -68.1,103.94l0 1.79z"/>
   </g>
   <g>
    <path id="2" class="fil22 str4" d="M4502.55 6248.76c-60.93,-60.94 -145.16,-98.57 -238.35,-98.57l-790.31 0 0 0 0 0 0 1254.47 224.01 0 0 -577.06 600.35 0 0 -1.79c3.59,0 7.17,0 10.76,0 34.05,-3.58 66.3,-12.54 96.77,-26.88 116.49,-53.76 197.13,-172.04 197.13,-308.24 0,-93.19 -37.63,-177.42 -98.57,-240.14l-1.79 -1.79zm-189.96 345.87c-14.34,7.17 -30.47,10.75 -46.59,10.75l-568.1 0 0 -231.18 568.1 0c39.42,0 66.3,17.92 80.64,32.26 12.54,12.55 34.05,41.22 34.05,82.44 0,44.8 -26.88,86.02 -68.1,103.94l0 1.79z"/>
   </g>
   <g>
    <path id="3" class="fil22 str4" d="M5613.65 6825.81c0,0 0,0 0,0 34.05,-3.58 66.31,-12.54 96.77,-26.88 116.49,-53.76 197.14,-172.04 197.14,-308.24 0,-93.19 -37.64,-177.42 -98.57,-238.35 -60.93,-60.93 -145.16,-98.57 -238.35,-98.57l-792.11 0 0 1254.47 224.02 0 0 -577.05 224.01 0c80.64,0 150.53,43.01 189.96,107.52l5.38 10.76 120.07 234.76 114.69 224.01 250.9 0 -114.7 -224.01 -179.21 -358.42zm-611.1 -216.84l0 -231.18 568.09 0c39.43,0 66.31,17.92 80.65,32.25 12.54,12.55 34.05,41.22 34.05,82.44 0,44.8 -26.89,86.02 -68.1,103.94 -14.34,7.17 -30.47,10.76 -46.6,10.76l-568.09 1.79z"/>
   </g>
   <g>
    <path id="4" class="fil22 str4" d="M6672.78 6150.19c-345.88,0 -627.24,281.36 -627.24,627.24 0,345.87 281.36,627.23 627.24,627.23 345.87,0 627.23,-281.36 627.23,-627.23 0,-345.88 -281.36,-627.24 -627.23,-627.24zm0 1030.46c-222.22,0 -403.22,-181 -403.22,-403.22 0,-222.23 181,-403.23 403.22,-403.23 222.22,0 403.22,181 403.22,403.23 0,222.22 -181,403.22 -403.22,403.22z"/>
   </g>
   <g>
    <polygon id="5" class="fil22 str4" points="8391.4,6150.19 8276.71,6374.2 8002.52,6911.83 7728.33,6374.2 7613.63,6150.19 7362.74,6150.19 7477.43,6374.2 8002.52,7404.66 8527.6,6374.2 8642.3,6150.19 "/>
   </g>
   <g>
    <polygon id="6" class="fil22 str4" points="9461.29,7180.65 8936.2,6150.19 8411.12,7180.65 8296.42,7404.66 8547.31,7404.66 8662.01,7180.65 8936.2,6643.02 9210.39,7180.65 9325.09,7404.66 9575.98,7404.66 "/>
   </g>
   <g>
    <path id="7" class="fil22 str4" d="M10013.26 7178.86c-78.86,-10.76 -141.58,-73.48 -152.33,-152.33l0 -876.34 -224.02 0 0 854.83c0,62.73 14.34,121.86 41.22,175.63 37.64,78.85 102.15,143.37 181.01,182.79 53.76,26.88 112.9,41.22 175.62,41.22l636.2 0 0 -224.01 -657.7 -1.79z"/>
   </g>
   <polygon id="8" class="fil23" points="1941.65,7180.65 1416.56,6150.19 891.48,7180.65 776.78,7404.66 1027.68,7404.66 1142.37,7180.65 1416.56,6643.02 1690.75,7180.65 1805.45,7404.66 2056.34,7404.66 "/>
   <path id="9" class="fil23" d="M3194.32 6248.76c-60.93,-60.94 -145.16,-98.57 -238.35,-98.57l-790.31 0 0 0 0 0 0 1254.47 224.01 0 0 -577.06 600.35 0 0 -1.79c3.59,0 7.17,0 10.76,0 34.05,-3.58 66.3,-12.54 96.77,-26.88 116.49,-53.76 197.13,-172.04 197.13,-308.24 0,-93.19 -37.63,-177.42 -98.57,-240.14l-1.79 -1.79zm-189.96 345.87c-14.34,7.17 -30.47,10.75 -46.59,10.75l-568.1 0 0 -231.18 568.1 0c39.42,0 66.3,17.92 80.64,32.26 12.54,12.55 34.05,41.22 34.05,82.44 0,44.8 -26.88,86.02 -68.1,103.94l0 1.79z"/>
   <path id="10" class="fil23" d="M4502.55 6248.76c-60.93,-60.94 -145.16,-98.57 -238.35,-98.57l-790.31 0 0 0 0 0 0 1254.47 224.01 0 0 -577.06 600.35 0 0 -1.79c3.59,0 7.17,0 10.76,0 34.05,-3.58 66.3,-12.54 96.77,-26.88 116.49,-53.76 197.13,-172.04 197.13,-308.24 0,-93.19 -37.63,-177.42 -98.57,-240.14l-1.79 -1.79zm-189.96 345.87c-14.34,7.17 -30.47,10.75 -46.59,10.75l-568.1 0 0 -231.18 568.1 0c39.42,0 66.3,17.92 80.64,32.26 12.54,12.55 34.05,41.22 34.05,82.44 0,44.8 -26.88,86.02 -68.1,103.94l0 1.79z"/>
   <path id="11" class="fil23" d="M5613.65 6825.81c0,0 0,0 0,0 34.05,-3.58 66.31,-12.54 96.77,-26.88 116.49,-53.76 197.14,-172.04 197.14,-308.24 0,-93.19 -37.64,-177.42 -98.57,-238.35 -60.93,-60.93 -145.16,-98.57 -238.35,-98.57l-792.11 0 0 1254.47 224.02 0 0 -577.05 224.01 0c80.64,0 150.53,43.01 189.96,107.52l5.38 10.76 120.07 234.76 114.69 224.01 250.9 0 -114.7 -224.01 -179.21 -358.42zm-611.1 -216.84l0 -231.18 568.09 0c39.43,0 66.31,17.92 80.65,32.25 12.54,12.55 34.05,41.22 34.05,82.44 0,44.8 -26.89,86.02 -68.1,103.94 -14.34,7.17 -30.47,10.76 -46.6,10.76l-568.09 1.79z"/>
   <path id="12" class="fil23" d="M6672.78 6150.19c-345.88,0 -627.24,281.36 -627.24,627.24 0,345.87 281.36,627.23 627.24,627.23 345.87,0 627.23,-281.36 627.23,-627.23 0,-345.88 -281.36,-627.24 -627.23,-627.24zm0 1030.46c-222.22,0 -403.22,-181 -403.22,-403.22 0,-222.23 181,-403.23 403.22,-403.23 222.22,0 403.22,181 403.22,403.23 0,222.22 -181,403.22 -403.22,403.22z"/>
   <polygon id="13" class="fil23" points="8391.4,6150.19 8276.71,6374.2 8002.52,6911.83 7728.33,6374.2 7613.63,6150.19 7362.74,6150.19 7477.43,6374.2 8002.52,7404.66 8527.6,6374.2 8642.3,6150.19 "/>
   <polygon id="14" class="fil23" points="9461.29,7180.65 8936.2,6150.19 8411.12,7180.65 8296.42,7404.66 8547.31,7404.66 8662.01,7180.65 8936.2,6643.02 9210.39,7180.65 9325.09,7404.66 9575.98,7404.66 "/>
   <path id="15" class="fil23" d="M10013.26 7178.86c-78.86,-10.76 -141.58,-73.48 -152.33,-152.33l0 -876.34 -224.02 0 0 854.83c0,62.73 14.34,121.86 41.22,175.63 37.64,78.85 102.15,143.37 181.01,182.79 53.76,26.88 112.9,41.22 175.62,41.22l636.2 0 0 -224.01 -657.7 -1.79z"/>
  </g>
 </g>
</svg>
