<?xml version="1.0" encoding="UTF-8"?>
<!DOCTYPE svg PUBLIC "-//W3C//DTD SVG 1.1//EN" "http://www.w3.org/Graphics/SVG/1.1/DTD/svg11.dtd">
<!-- Creator: CorelDRAW 2018 (64-Bit) -->
<svg xmlns="http://www.w3.org/2000/svg" xml:space="preserve" width="254mm" height="84.6667mm" version="1.1" style="shape-rendering:geometricPrecision; text-rendering:geometricPrecision; image-rendering:optimizeQuality; fill-rule:evenodd; clip-rule:evenodd"
viewBox="0 0 25400 8466.67"
 xmlns:xlink="http://www.w3.org/1999/xlink">
 <defs>
  <style type="text/css">
   <![CDATA[
    .str7 {stroke:#008707;stroke-width:25;stroke-miterlimit:22.9256}
    .str8 {stroke:#00B509;stroke-width:25;stroke-miterlimit:22.9256}
    .str1 {stroke:#007A06;stroke-width:20;stroke-miterlimit:22.9256}
    .str2 {stroke:#009607;stroke-width:20;stroke-miterlimit:22.9256}
    .str4 {stroke:#00B509;stroke-width:20;stroke-miterlimit:22.9256}
    .str3 {stroke:white;stroke-width:20;stroke-miterlimit:22.9256}
    .str5 {stroke:white;stroke-width:20;stroke-miterlimit:22.9256}
    .str0 {stroke:white;stroke-width:336.01;stroke-linecap:round;stroke-linejoin:round;stroke-miterlimit:22.9256}
    .str6 {stroke:white;stroke-width:39.28;stroke-linecap:round;stroke-linejoin:round;stroke-miterlimit:22.9256}
    .str9 {stroke:white;stroke-width:57.35;stroke-linecap:round;stroke-linejoin:round;stroke-miterlimit:22.9256}
    .fil16 {fill:none}
    .fil45 {fill:none;fill-rule:nonzero}
    .fil0 {fill:#001501}
    .fil18 {fill:#007A06}
    .fil22 {fill:#008707}
    .fil19 {fill:#009607}
    .fil20 {fill:#00B509}
    .fil10 {fill:#1EC01E}
    .fil21 {fill:white}
    .fil8 {fill:white}
    .fil42 {fill:#FEFEFE;fill-rule:nonzero}
    .fil35 {fill:#FDEEE0;fill-rule:nonzero}
    .fil27 {fill:#FBDAA8;fill-rule:nonzero}
    .fil44 {fill:#F9FAFA;fill-rule:nonzero}
    .fil36 {fill:#F5DCC0;fill-rule:nonzero}
    .fil40 {fill:#F4D4B0;fill-rule:nonzero}
    .fil37 {fill:#F3CA93;fill-rule:nonzero}
    .fil28 {fill:#EFC58C;fill-rule:nonzero}
    .fil24 {fill:#E8B981;fill-rule:nonzero}
    .fil43 {fill:#E5E5E3;fill-rule:nonzero}
    .fil23 {fill:#E3E3E2;fill-rule:nonzero}
    .fil26 {fill:#D8A775;fill-rule:nonzero}
    .fil41 {fill:#D6D5D2;fill-rule:nonzero}
    .fil25 {fill:#D39F70;fill-rule:nonzero}
    .fil30 {fill:#CBCCCB;fill-rule:nonzero}
    .fil31 {fill:#B8B9B8;fill-rule:nonzero}
    .fil29 {fill:#9CA19E;fill-rule:nonzero}
    .fil17 {fill:#007A06;fill-rule:nonzero}
    .fil39 {fill:#009607;fill-rule:nonzero}
    .fil38 {fill:#00B509;fill-rule:nonzero}
    .fil32 {fill:#0C4F0D;fill-rule:nonzero}
    .fil15 {fill:#1EC01E;fill-rule:nonzero}
    .fil33 {fill:white;fill-rule:nonzero}
    .fil34 {fill:white;fill-rule:nonzero}
    .fil1 {fill:url(#id2)}
    .fil2 {fill:url(#id3)}
    .fil6 {fill:url(#id4)}
    .fil3 {fill:url(#id5)}
    .fil7 {fill:url(#id6)}
    .fil4 {fill:url(#id7)}
    .fil5 {fill:url(#id8)}
    .fil11 {fill:url(#id9)}
    .fil9 {fill:url(#id10)}
    .fil12 {fill:url(#id11)}
    .fil13 {fill:url(#id12)}
    .fil14 {fill:url(#id13)}
   ]]>
  </style>
     <mask id="id0">
  <linearGradient id="id1" gradientUnits="userSpaceOnUse" x1="4341.34" y1="1101.55" x2="4556.39" y2="1288.37">
   <stop offset="0" style="stop-opacity:1; stop-color:white"/>
   <stop offset="1" style="stop-opacity:0; stop-color:white"/>
  </linearGradient>
      <rect style="fill:url(#id1)" x="751.56" y="564.92" width="4428.21" height="1139.83"/>
     </mask>
  <linearGradient id="id2" gradientUnits="userSpaceOnUse" x1="-0" y1="4233.34" x2="25400" y2="4233.34">
   <stop offset="0" style="stop-opacity:1; stop-color:#0F570F"/>
   <stop offset="1" style="stop-opacity:1; stop-color:#001501"/>
  </linearGradient>
  <linearGradient id="id3" gradientUnits="userSpaceOnUse" x1="11950.99" y1="-378.89" x2="13509.79" y2="8845.56">
   <stop offset="0" style="stop-opacity:1; stop-color:#1BAB1B"/>
   <stop offset="1" style="stop-opacity:1; stop-color:#001501"/>
  </linearGradient>
  <linearGradient id="id4" gradientUnits="userSpaceOnUse" xlink:href="#id3" x1="14053.72" y1="-871.98" x2="18587.46" y2="8585.39">
  </linearGradient>
  <linearGradient id="id5" gradientUnits="userSpaceOnUse" x1="16529.18" y1="9974.64" x2="10903.7" y2="-1507.96">
   <stop offset="0" style="stop-opacity:1; stop-color:#157D15"/>
   <stop offset="0.678431" style="stop-opacity:1; stop-color:#0B490B"/>
   <stop offset="1" style="stop-opacity:1; stop-color:#001501"/>
  </linearGradient>
  <linearGradient id="id6" gradientUnits="userSpaceOnUse" x1="16683.87" y1="6085.6" x2="15957.32" y2="-140.78">
   <stop offset="0" style="stop-opacity:1; stop-color:#126912"/>
   <stop offset="1" style="stop-opacity:1; stop-color:#001501"/>
  </linearGradient>
  <linearGradient id="id7" gradientUnits="userSpaceOnUse" xlink:href="#id6" x1="22106.86" y1="3918.61" x2="17832.25" y2="9580.84">
  </linearGradient>
  <linearGradient id="id8" gradientUnits="userSpaceOnUse" xlink:href="#id3" x1="13447.78" y1="8963.85" x2="15058.23" y2="974.13">
  </linearGradient>
  <linearGradient id="id9" gradientUnits="userSpaceOnUse" x1="1101.87" y1="1115.2" x2="1179.95" y2="1376.46">
   <stop offset="0" style="stop-opacity:1; stop-color:#1EC01E"/>
   <stop offset="0.529412" style="stop-opacity:1; stop-color:#1D6E1D"/>
   <stop offset="1" style="stop-opacity:1; stop-color:#1C1C1C"/>
  </linearGradient>
  <linearGradient id="id10" gradientUnits="userSpaceOnUse" x1="1728.02" y1="1158.23" x2="1809.8" y2="1381.05">
   <stop offset="0" style="stop-opacity:1; stop-color:#1EC01E"/>
   <stop offset="0.678431" style="stop-opacity:1; stop-color:#1D6E1D"/>
   <stop offset="1" style="stop-opacity:1; stop-color:#1C1C1C"/>
  </linearGradient>
  <linearGradient id="id11" gradientUnits="userSpaceOnUse" x1="1220.04" y1="1311.91" x2="1447.78" y2="1309.68">
   <stop offset="0" style="stop-opacity:1; stop-color:#1EC01E"/>
   <stop offset="0.631373" style="stop-opacity:1; stop-color:#1D6E1D"/>
   <stop offset="1" style="stop-opacity:1; stop-color:#1C1C1C"/>
  </linearGradient>
  <linearGradient id="id12" gradientUnits="userSpaceOnUse" x1="1342.11" y1="907.99" x2="1462.23" y2="619.71">
   <stop offset="0" style="stop-opacity:1; stop-color:#1EC01E"/>
   <stop offset="0.65098" style="stop-opacity:1; stop-color:#1D6E1D"/>
   <stop offset="1" style="stop-opacity:1; stop-color:#1C1C1C"/>
  </linearGradient>
  <linearGradient id="id13" gradientUnits="userSpaceOnUse" x1="1688.81" y1="888.54" x2="1849.99" y2="1139.05">
   <stop offset="0" style="stop-opacity:1; stop-color:#1EC01E"/>
   <stop offset="0.670588" style="stop-opacity:1; stop-color:#1D6E1D"/>
   <stop offset="1" style="stop-opacity:1; stop-color:#1C1C1C"/>
  </linearGradient>
 </defs>
 <g id="Layer_x0020_1">
  <metadata id="CorelCorpID_0Corel-Layer"/>
  <g id="_2287719396656">
   <g>
    <rect class="fil0" transform="matrix(5.27807E-14 -0.931475 1.99289 2.46697E-14 -0.00192331 8466.66)" width="9089.52" height="12745.32" rx="454.48" ry="454.48"/>
    <path class="fil1" d="M8734.68 4414.88c-2559.66,809.29 -5471.22,1729.84 -8734.66,2761.63l0 866.81 -0.02 1.37c0.75,232.22 190.96,421.98 423.33,421.98l16660.45 0 3177.49 0 4715.4 0c232.83,0 423.33,-190.5 423.33,-423.35l0 -329.93 0 -1768.56 0 -5521.49c0,-232.62 -190.14,-422.97 -422.67,-423.33l-0.66 0 -2278.39 0c0,0 -2003.72,633.52 -6011.17,1900.56 -858.18,271.32 -1808.24,571.7 -2850.19,901.14 -1054.26,333.33 -2202.6,696.39 -3445.01,1089.2 -534.97,169.15 -1087.38,343.8 -1657.23,523.97z"/>
    <path class="fil2" d="M25400 8043.32l0 -7619.98c0,-232.62 -190.14,-422.97 -422.67,-423.33l-0.66 0 -24553.34 0 -0.69 0c-153.02,0.24 -287.68,82.77 -361.86,205.47 7695.72,3734.69 13370.05,6488.43 17023,8261.19l7892.89 0c232.83,0 423.33,-190.5 423.33,-423.35z"/>
    <path class="fil3" d="M25400 8043.32l0 -7619.98c0,-232.62 -190.14,-422.97 -422.67,-423.33l-0.66 0 -22943.8 0c8657.73,4036.2 14952.49,6952.12 18228.4,8466.66l4715.4 0c232.83,0 423.33,-190.5 423.33,-423.35z"/>
    <path class="fil4" d="M16079.94 7979.5c-497.81,157.4 -1011.41,319.78 -1540.83,487.17l2544.67 0 3177.49 0 4715.4 0c232.83,0 423.33,-190.5 423.33,-423.35l0 -329.93 0 -1768.56 0 -912.04c-351.55,111.15 -741.15,234.32 -1168.77,369.53 -711.17,224.85 -1527.52,482.95 -2449.07,774.32 -1124.59,355.55 -2405.82,760.64 -3843.72,1215.26 -592.87,187.45 -1212.38,383.32 -1858.5,587.6z"/>
    <path class="fil5" d="M8921.78 8466.67c-3877.18,0 -5815.76,0 -5815.76,0 14862.65,-4663.56 22293.98,-6995.34 22293.98,-6995.34 0,1141.84 0,1712.75 0,1712.75 -10985.48,3521.72 -16478.22,5282.59 -16478.22,5282.59z"/>
    <path class="fil6" d="M25400 7713.39l0 -7290.05c0,-232.62 -190.14,-422.97 -422.67,-423.33l-0.66 0 -17735.49 0c10642.58,4520.69 16695.53,7091.82 18158.82,7713.38z"/>
    <path class="fil7" d="M25400 5944.83l0 -5521.49c0,-232.62 -190.14,-422.97 -422.67,-423.33l-0.66 0 -12384.1 0c6914.17,3209.35 11183.31,5190.95 12807.43,5944.82zm-423.33 -5944.82l-17735.49 0 17735.49 0z"/>
   </g>
   <g>
    <polygon class="fil8" style="mask:url(#id0)" points="761.56,574.92 2483.7,574.92 2503.7,574.92 5169.77,574.92 4207,1694.75 2503.7,1694.75 2483.7,1694.75 761.56,1694.75 "/>
    <g>
     <g>
      <path class="fil9" d="M1816.62 1188.38l0.01 -276.54c0,0 -49.27,28.36 -146.58,84.38l-0.39 277 146.96 -84.84z"/>
      <polygon class="fil10" points="1816.63,1357.84 1816.62,1188.38 1283.61,1496.09 1430.39,1580.83 "/>
      <polygon class="fil11" points="1190.73,1166.56 1190.73,827.21 1044.14,911.84 1044.15,1250.99 "/>
      <path class="fil12" d="M1190.46 1442.31l94.14 -54.35 -0.58 -168.63 -239.88 138.5c16.01,9.22 66.44,38.37 146.32,84.48z"/>
      <path class="fil13" d="M1283.92 1388.35c-0.03,-262.07 -0.05,-614.92 -0.05,-614.92 97.58,56.3 146.37,84.45 146.37,84.45 0,149.45 0,445.45 0,445.45 -97.55,56.32 -146.32,85.02 -146.32,85.02z"/>
      <path class="fil14" d="M1283.87 773.43c257.45,148.53 386.18,222.79 386.18,222.79 97.31,-56.02 146.58,-84.38 146.58,-84.38 -257.08,-148.9 -386.24,-223 -386.24,-223 -97.68,56.4 -146.52,84.59 -146.52,84.59z"/>
     </g>
     <g>
      <path class="fil15" d="M2108.06 1116.2c-18.64,-2.54 -33.47,-17.37 -36.02,-36.02l0 -207.21 -52.96 0 0 202.13c0,14.83 3.39,28.81 9.74,41.52 8.9,18.65 24.16,33.9 42.8,43.22 12.71,6.36 26.7,9.75 41.53,9.75l150.42 0 0 -52.97 -155.51 -0.42z"/>
      <polygon id="1" class="fil15" points="2358.91,1169.59 2358.91,872.97 2305.95,872.97 2305.95,1169.59 "/>
      <polygon id="2" class="fil15" points="2401.29,872.97 2401.29,925.94 2522.9,925.94 2522.9,1169.59 2575.87,1169.59 2575.87,925.94 2697.48,925.94 2697.48,872.97 "/>
      <path id="3" class="fil15" d="M2820.36 925.94l216.55 0 0 -52.97 -216.55 0c-44.07,0 -79.66,36.02 -79.66,80.09l0 136.44c0,44.07 35.59,80.09 79.66,80.09l216.55 0 0 -52.97 -216.55 0c-14.83,0 -27.12,-12.29 -27.12,-27.12l0 -55.93 190.7 0 0 -52.97 -190.7 0 0 -27.54c0,-14.83 12.29,-27.12 27.12,-27.12z"/>
      <path id="4" class="fil15" d="M3079.28 872.97l0 296.62 148.31 0c40.68,0 77.54,-16.53 104.24,-43.65 2.96,-2.96 5.93,-5.93 8.47,-8.89 22.04,-25.85 35.17,-59.33 35.17,-95.77 0,-82.2 -66.53,-148.31 -148.31,-148.31l-147.88 0zm52.54 52.97l95.34 0c52.55,0 95.34,42.87 95.34,95.55 0,52.69 -42.79,95.56 -95.34,95.56l-95.34 0 0 -191.11z"/>
      <path id="5" class="fil15" d="M3498.35 925.94l216.54 0 0 -52.97 -216.54 0c-44.07,0 -79.66,36.02 -79.66,80.09l0 136.44c0,44.07 35.59,80.09 79.66,80.09l216.54 0 0 -52.97 -216.54 0c-14.83,0 -27.12,-12.29 -27.12,-27.12l0 -55.93 190.69 0 0 -52.97 -190.69 0 0 -27.54c0,-14.83 12.29,-27.12 27.12,-27.12z"/>
      <path id="6" class="fil15" d="M3746.66 1170.86l0.85 -0.85 -0.85 0 0 0.85zm296.63 -0.85l-0.42 0 0.42 0.85 0 -0.85zm0 -297.04l-66.53 0 -81.36 105.65 -81.36 -105.65 -66.95 0 114.83 148.95 -113.99 148.09 66.96 0 80.93 -104.8 80.94 104.8 66.96 0 -114.41 -148.09 114.83 -148.95 -0.85 0z"/>
      <path class="fil15" d="M2227.54 1396.72c-2.76,0 -4.93,-0.74 -6.52,-2.23 -1.59,-1.48 -2.38,-3.54 -2.38,-6.19l0 -82.3c0,-6.89 2.01,-12.29 6.04,-16.21 4.02,-3.92 9.63,-5.88 16.84,-5.88l27.01 0c15.67,0 27.56,3.29 35.67,9.85 8.1,6.57 12.15,16.26 12.15,29.08 0,12.6 -4,22.16 -12,28.68 -7.99,6.51 -19.67,9.77 -35.03,9.77l-32.57 0 0 27.01c0,2.54 -0.85,4.58 -2.54,6.12 -1.7,1.53 -3.92,2.3 -6.67,2.3zm41.62 -49.73c19.28,0 28.92,-8.05 28.92,-24.15 0,-8.47 -2.41,-14.72 -7.23,-18.75 -4.82,-4.02 -12,-6.04 -21.53,-6.04l-25.26 0c-2.33,0 -4.13,0.75 -5.4,2.23 -1.27,1.48 -1.91,3.49 -1.91,6.04l0 40.67 32.41 0z"/>
      <path id="1" class="fil15" d="M2434.77 1306.16c0,-6.89 2.01,-12.32 6.04,-16.29 4.02,-3.97 9.69,-5.96 17,-5.96l28.75 0c15.36,0 26.93,3.08 34.72,9.22 7.78,6.14 11.68,15.2 11.68,27.17 0,11.33 -3.45,20.12 -10.33,26.37 -6.88,6.25 -16.42,9.38 -28.6,9.38l26.38 26.69c1.69,1.69 2.54,3.55 2.54,5.56 0,2.22 -1.06,4.23 -3.18,6.04 -2.01,1.48 -3.97,2.22 -5.88,2.22 -2.65,0 -5.19,-1.27 -7.62,-3.81l-34.96 -36.23 -17.95 0 0 31.62c0,2.65 -0.88,4.74 -2.62,6.28 -1.75,1.53 -4,2.3 -6.76,2.3 -2.86,0 -5.11,-0.77 -6.75,-2.3 -1.64,-1.54 -2.46,-3.63 -2.46,-6.28l0 -81.98zm51.64 35.75c10.16,0 17.34,-1.62 21.52,-4.85 4.19,-3.23 6.28,-8.82 6.28,-16.76 0,-7.73 -2.28,-13.3 -6.83,-16.68 -4.56,-3.39 -11.55,-5.09 -20.97,-5.09l-25.9 0c-2.23,0 -3.97,0.72 -5.25,2.15 -1.27,1.43 -1.9,3.41 -1.9,5.95l0 35.28 33.05 0z"/>
      <path id="2" class="fil15" d="M2703.34 1396.72c-11.75,0 -22.05,-2.38 -30.91,-7.15 -8.84,-4.77 -15.65,-11.49 -20.42,-20.18 -4.76,-8.68 -7.14,-18.64 -7.14,-29.87 0,-11.23 2.38,-21.18 7.14,-29.87 4.77,-8.68 11.58,-15.41 20.42,-20.18 8.86,-4.76 19.16,-7.14 30.91,-7.14 11.76,0 22.06,2.38 30.91,7.14 8.84,4.77 15.64,11.5 20.41,20.18 4.77,8.69 7.15,18.64 7.15,29.87 0,11.23 -2.38,21.19 -7.15,29.87 -4.77,8.69 -11.57,15.41 -20.41,20.18 -8.85,4.77 -19.15,7.15 -30.91,7.15zm0 -14.46c12.4,0 22.19,-3.81 29.4,-11.44 7.2,-7.62 10.8,-18.06 10.8,-31.3 0,-13.34 -3.68,-23.8 -11.04,-31.38 -7.36,-7.57 -17.4,-11.36 -30.11,-11.36 -8.05,0 -15.04,1.75 -20.97,5.25 -5.94,3.49 -10.5,8.47 -13.68,14.93 -3.17,6.46 -4.76,13.98 -4.76,22.56 0,8.79 1.64,16.39 4.92,22.8 3.29,6.41 7.95,11.33 13.99,14.78 6.04,3.44 13.19,5.16 21.45,5.16z"/>
      <path id="3" class="fil15" d="M2915.03 1396.72c-2.75,0 -4.95,-0.74 -6.59,-2.23 -1.65,-1.48 -2.47,-3.54 -2.47,-6.19l0 -90.25 -32.57 0c-2.75,0 -4.87,-0.6 -6.35,-1.82 -1.48,-1.22 -2.23,-2.94 -2.23,-5.17 0,-2.33 0.75,-4.1 2.23,-5.32 1.48,-1.22 3.6,-1.83 6.35,-1.83l83.26 0c2.75,0 4.9,0.61 6.43,1.83 1.54,1.22 2.31,2.99 2.31,5.32 0,2.23 -0.77,3.95 -2.31,5.17 -1.53,1.22 -3.68,1.82 -6.43,1.82l-32.57 0 0 90.25c0,2.54 -0.82,4.58 -2.47,6.12 -1.64,1.53 -3.84,2.3 -6.59,2.3z"/>
      <path id="4" class="fil15" d="M3126.87 1396.72c-11.75,0 -22.05,-2.38 -30.9,-7.15 -8.84,-4.77 -15.65,-11.49 -20.42,-20.18 -4.76,-8.68 -7.14,-18.64 -7.14,-29.87 0,-11.23 2.38,-21.18 7.14,-29.87 4.77,-8.68 11.58,-15.41 20.42,-20.18 8.85,-4.76 19.15,-7.14 30.9,-7.14 11.76,0 22.06,2.38 30.91,7.14 8.84,4.77 15.64,11.5 20.41,20.18 4.77,8.69 7.15,18.64 7.15,29.87 0,11.23 -2.38,21.19 -7.15,29.87 -4.77,8.69 -11.57,15.41 -20.41,20.18 -8.85,4.77 -19.15,7.15 -30.91,7.15zm0 -14.46c12.4,0 22.19,-3.81 29.4,-11.44 7.2,-7.62 10.8,-18.06 10.8,-31.3 0,-13.34 -3.68,-23.8 -11.04,-31.38 -7.36,-7.57 -17.4,-11.36 -30.11,-11.36 -8.05,0 -15.04,1.75 -20.97,5.25 -5.93,3.49 -10.49,8.47 -13.67,14.93 -3.17,6.46 -4.76,13.98 -4.76,22.56 0,8.79 1.64,16.39 4.92,22.8 3.29,6.41 7.95,11.33 13.98,14.78 6.04,3.44 13.19,5.16 21.45,5.16z"/>
      <path id="5" class="fil15" d="M3358.58 1396.72c-11.65,0 -21.79,-2.3 -30.42,-6.91 -8.64,-4.61 -15.26,-11.2 -19.86,-19.78 -4.61,-8.58 -6.91,-18.7 -6.91,-30.35 0,-11.65 2.3,-21.79 6.91,-30.42 4.6,-8.64 11.2,-15.28 19.78,-19.94 8.58,-4.66 18.69,-6.99 30.34,-6.99 9.54,0 18.38,1.64 26.54,4.92 8.15,3.28 14.3,7.73 18.43,13.35 1.16,1.69 1.74,3.23 1.74,4.6 0,2.33 -1.21,4.4 -3.65,6.2 -1.38,0.85 -2.81,1.27 -4.29,1.27 -1.38,0 -2.73,-0.32 -4.05,-0.95 -1.33,-0.64 -2.46,-1.48 -3.42,-2.54 -3.49,-4.24 -7.81,-7.37 -12.95,-9.38 -5.13,-2.01 -11.25,-3.02 -18.35,-3.02 -12.18,0 -21.68,3.79 -28.52,11.36 -6.83,7.58 -10.24,18.09 -10.24,31.54 0,13.24 3.44,23.65 10.32,31.22 6.89,7.57 16.42,11.36 28.6,11.36 14.41,0 25.48,-4.13 33.21,-12.39 2.54,-2.54 5.13,-3.82 7.78,-3.82 1.7,0 3.23,0.53 4.61,1.59 2.12,1.8 3.18,3.76 3.18,5.88 0,1.8 -0.64,3.5 -1.91,5.09 -4.55,5.61 -10.96,10.03 -19.22,13.26 -8.26,3.23 -17.48,4.85 -27.65,4.85z"/>
      <path id="6" class="fil15" d="M3581.86 1396.72c-11.75,0 -22.05,-2.38 -30.9,-7.15 -8.84,-4.77 -15.65,-11.49 -20.42,-20.18 -4.76,-8.68 -7.14,-18.64 -7.14,-29.87 0,-11.23 2.38,-21.18 7.14,-29.87 4.77,-8.68 11.58,-15.41 20.42,-20.18 8.85,-4.76 19.15,-7.14 30.9,-7.14 11.76,0 22.06,2.38 30.91,7.14 8.84,4.77 15.64,11.5 20.41,20.18 4.77,8.69 7.15,18.64 7.15,29.87 0,11.23 -2.38,21.19 -7.15,29.87 -4.77,8.69 -11.57,15.41 -20.41,20.18 -8.85,4.77 -19.15,7.15 -30.91,7.15zm0 -14.46c12.4,0 22.19,-3.81 29.4,-11.44 7.2,-7.62 10.8,-18.06 10.8,-31.3 0,-13.34 -3.68,-23.8 -11.04,-31.38 -7.36,-7.57 -17.4,-11.36 -30.11,-11.36 -8.05,0 -15.04,1.75 -20.97,5.25 -5.93,3.49 -10.49,8.47 -13.67,14.93 -3.17,6.46 -4.76,13.98 -4.76,22.56 0,8.79 1.64,16.39 4.92,22.8 3.29,6.41 7.95,11.33 13.98,14.78 6.04,3.44 13.19,5.16 21.45,5.16z"/>
      <path id="7" class="fil15" d="M3782.6 1395.13c-7.41,0 -13.21,-1.99 -17.4,-5.96 -4.18,-3.97 -6.27,-9.5 -6.27,-16.6l0 -81.82c0,-2.65 0.79,-4.72 2.38,-6.2 1.59,-1.48 3.76,-2.22 6.51,-2.22 2.76,0 4.96,0.76 6.6,2.3 1.64,1.53 2.46,3.57 2.46,6.12l0 81.98c0,2.54 0.66,4.55 1.99,6.04 1.32,1.48 3.15,2.22 5.48,2.22l51.48 0c5.71,0 8.57,2.38 8.57,7.15 0,2.22 -0.74,3.94 -2.22,5.16 -1.48,1.22 -3.6,1.83 -6.35,1.83l-53.23 0z"/>
     </g>
    </g>
   </g>
   <g>
    <g>
     <path class="fil16 str0" d="M22832.4 6239.97l1108.37 234.6c48.91,10.35 89.88,-22.77 91.08,-73.63l50.56 -2162.37c1.18,-50.85 -37.85,-100.91 -86.77,-111.26l-1108.35 -234.59c-48.92,-10.36 -89.9,22.77 -91.08,73.62l-7.54 322.56 -3.95 168.56c-17.78,-0.59 -65.07,3.25 -125.41,50.73l-575.71 -324.73c0,0 -148.96,-99.74 -297.92,-162.86 -88.16,-37.38 -194.06,-86.72 -257.07,-116.64 -20.52,-9.74 -48.11,-22.31 -80.5,-36.77l0 -1874.16c0,-78.45 -64.17,-142.63 -142.62,-142.63l-187.78 0 -9.85 0 -189.13 0c-28.45,-158.68 -133.1,-233.46 -299.15,-234.15 13.58,-2.24 27.64,-4.05 42.19,-5.45l-4190.69 -1.55c-4.66,2.79 -262.19,3.84 -323.26,241.15l-808.32 0 -4.62 0 -9.86 0c-70.5,0 -128.16,57.67 -128.16,128.17l0 9.84 0 4.62 0 3421.67 0 273.87 0 128.33c0,78.44 64.18,142.6 142.64,142.6l2350.42 0c-7.12,13.5 -11.16,28.84 -11.16,45.1l0 586.57 0.01 0.01 0.03 2.49 0.01 0.01c0.51,20.02 7.14,38.57 18.09,53.87l-178.28 0c-14.37,0 -26.13,11.76 -26.13,26.14l0 157.6c0,14.38 11.76,26.14 26.13,26.14l1561.05 0c14.37,0 26.13,-11.76 26.13,-26.14l0 -157.6c0,-14.38 -11.76,-26.14 -26.13,-26.14l-141.9 0c11.4,-15.93 18.14,-35.4 18.14,-56.38l0 -586.57c0,-16.26 -4.04,-31.6 -11.16,-45.1l2360.74 0c78.45,0 142.62,-64.16 142.62,-142.6l0 -1166.16 1.91 -0.67 0.26 -0.09 2.62 -0.93 0.16 -0.05 2.7 -0.97 0.05 -0.01 2.74 -0.97 0.06 -0.01 2.66 -0.94 0.16 -0.06 2.54 -0.88 0.27 -0.11 2.41 -0.84 0.37 -0.12 2.29 -0.79 0.48 -0.16 2.18 -0.75 0.57 -0.19 2.06 -0.71 0.67 -0.22 1.95 -0.66 0.76 -0.26 1.84 -0.6 0.86 -0.3 1.73 -0.56 0.95 -0.31 1.61 -0.53 1.05 -0.33 1.51 -0.48 1.15 -0.37 1.39 -0.44 1.23 -0.39 1.29 -0.39 1.33 -0.42 1.18 -0.36 1.42 -0.42 1.07 -0.33 1.52 -0.44 0.97 -0.28 1.6 -0.48 0.86 -0.24 1.7 -0.48 0.76 -0.22 1.78 -0.49 0.67 -0.18 1.86 -0.5 0.57 -0.15 1.94 -0.51 0.47 -0.11 2.04 -0.52 0.37 -0.1 2.11 -0.52 0.28 -0.06 2.2 -0.52 0.19 -0.04 2.27 -0.52 0.09 -0.02 2.37 -0.52c81.69,-17.4 232.46,28.9 353.2,111.22l3.13 2.15 1.19 0.83 2.28 1.59 2.63 1.86 1.14 0.81 4.1 2.91 0.26 0.18 4.14 2.98 1.92 1.38 2.8 2.02 3.8 2.77 1.2 0.87 5.3 3.87 0.65 0.47 4.94 3.62 2.73 2 3.13 2.31 5.05 3.72 1.1 0.81 6.4 4.74 1.17 0.86 5.5 4.09 3.65 2.71 3.28 2.45 6.33 4.72 0.85 0.63 7.41 5.54 1.8 1.35 5.87 4.39 4.63 3.47 3.26 2.45 7.65 5.75 0.48 0.36 8.35 6.27 2.49 1.89 6.06 4.56 5.66 4.27 3.11 2.34 8.98 6.77 0.01 0.02 9.16 6.92 3.29 2.5 6.07 4.59 6.73 5.1 2.83 2.13 9.72 7.38 0.59 0.45 9.32 7.07 4.14 3.15 5.93 4.5 7.83 5.95 2.41 1.83 10.39 7.91 1.25 0.95 9.3 7.07 5.03 3.83 5.67 4.31 8.92 6.81 1.91 1.45 10.95 8.36 1.97 1.5 9.13 6.97 5.94 4.54 5.27 4.02 10.02 7.65 1.32 1.01 11.43 8.74 2.74 2.09 8.81 6.74 6.86 5.25 4.78 3.65 11.06 8.48 0.68 0.51 11.82 9.06 3.52 2.69 8.39 6.42 7.76 5.95 4.21 3.23 12.05 9.24 0.03 0.02 12.08 9.26 4.31 3.32 7.87 6.02 8.64 6.65 3.58 2.73 12.26 9.42 0.75 0.58 11.56 8.87 5.11 3.93 16.72 12.85 2.88 2.21 24.8 19.06 5.88 4.52 6.54 5.03 10.26 7.9 2.16 1.66 9.81 7.55c2.8,77.95 13.86,127.49 13.86,127.49 0,0 129.51,165.45 327.08,359.59l-10.44 446.37 0 0.13 -1.13 48.33c-1.19,50.85 37.84,100.91 86.75,111.26z"/>
     <path id="1" class="fil8" d="M22832.4 6239.97l1108.37 234.6c48.91,10.35 89.88,-22.77 91.08,-73.63l50.56 -2162.37c1.18,-50.85 -37.85,-100.91 -86.77,-111.26l-1108.35 -234.59c-48.92,-10.36 -89.9,22.77 -91.08,73.62l-7.54 322.56 -3.95 168.56c-17.78,-0.59 -65.07,3.25 -125.41,50.73l-575.71 -324.73c0,0 -148.96,-99.74 -297.92,-162.86 -88.16,-37.38 -194.06,-86.72 -257.07,-116.64 -20.52,-9.74 -48.11,-22.31 -80.5,-36.77l0 -1874.16c0,-78.45 -64.17,-142.63 -142.62,-142.63l-187.78 0 -9.85 0 -189.13 0c-28.45,-158.68 -133.1,-233.46 -299.15,-234.15 13.58,-2.24 27.64,-4.05 42.19,-5.45l-4190.69 -1.55c-4.66,2.79 -262.19,3.84 -323.26,241.15l-808.32 0 -4.62 0 -9.86 0c-70.5,0 -128.16,57.67 -128.16,128.17l0 9.84 0 4.62 0 3421.67 0 273.87 0 128.33c0,78.44 64.18,142.6 142.64,142.6l2350.42 0c-7.12,13.5 -11.16,28.84 -11.16,45.1l0 586.57 0.01 0.01 0.03 2.49 0.01 0.01c0.51,20.02 7.14,38.57 18.09,53.87l-178.28 0c-14.37,0 -26.13,11.76 -26.13,26.14l0 157.6c0,14.38 11.76,26.14 26.13,26.14l1561.05 0c14.37,0 26.13,-11.76 26.13,-26.14l0 -157.6c0,-14.38 -11.76,-26.14 -26.13,-26.14l-141.9 0c11.4,-15.93 18.14,-35.4 18.14,-56.38l0 -586.57c0,-16.26 -4.04,-31.6 -11.16,-45.1l2360.74 0c78.45,0 142.62,-64.16 142.62,-142.6l0 -1166.16 1.91 -0.67 0.26 -0.09 2.62 -0.93 0.16 -0.05 2.7 -0.97 0.05 -0.01 2.74 -0.97 0.06 -0.01 2.66 -0.94 0.16 -0.06 2.54 -0.88 0.27 -0.11 2.41 -0.84 0.37 -0.12 2.29 -0.79 0.48 -0.16 2.18 -0.75 0.57 -0.19 2.06 -0.71 0.67 -0.22 1.95 -0.66 0.76 -0.26 1.84 -0.6 0.86 -0.3 1.73 -0.56 0.95 -0.31 1.61 -0.53 1.05 -0.33 1.51 -0.48 1.15 -0.37 1.39 -0.44 1.23 -0.39 1.29 -0.39 1.33 -0.42 1.18 -0.36 1.42 -0.42 1.07 -0.33 1.52 -0.44 0.97 -0.28 1.6 -0.48 0.86 -0.24 1.7 -0.48 0.76 -0.22 1.78 -0.49 0.67 -0.18 1.86 -0.5 0.57 -0.15 1.94 -0.51 0.47 -0.11 2.04 -0.52 0.37 -0.1 2.11 -0.52 0.28 -0.06 2.2 -0.52 0.19 -0.04 2.27 -0.52 0.09 -0.02 2.37 -0.52c81.69,-17.4 232.46,28.9 353.2,111.22l3.13 2.15 1.19 0.83 2.28 1.59 2.63 1.86 1.14 0.81 4.1 2.91 0.26 0.18 4.14 2.98 1.92 1.38 2.8 2.02 3.8 2.77 1.2 0.87 5.3 3.87 0.65 0.47 4.94 3.62 2.73 2 3.13 2.31 5.05 3.72 1.1 0.81 6.4 4.74 1.17 0.86 5.5 4.09 3.65 2.71 3.28 2.45 6.33 4.72 0.85 0.63 7.41 5.54 1.8 1.35 5.87 4.39 4.63 3.47 3.26 2.45 7.65 5.75 0.48 0.36 8.35 6.27 2.49 1.89 6.06 4.56 5.66 4.27 3.11 2.34 8.98 6.77 0.01 0.02 9.16 6.92 3.29 2.5 6.07 4.59 6.73 5.1 2.83 2.13 9.72 7.38 0.59 0.45 9.32 7.07 4.14 3.15 5.93 4.5 7.83 5.95 2.41 1.83 10.39 7.91 1.25 0.95 9.3 7.07 5.03 3.83 5.67 4.31 8.92 6.81 1.91 1.45 10.95 8.36 1.97 1.5 9.13 6.97 5.94 4.54 5.27 4.02 10.02 7.65 1.32 1.01 11.43 8.74 2.74 2.09 8.81 6.74 6.86 5.25 4.78 3.65 11.06 8.48 0.68 0.51 11.82 9.06 3.52 2.69 8.39 6.42 7.76 5.95 4.21 3.23 12.05 9.24 0.03 0.02 12.08 9.26 4.31 3.32 7.87 6.02 8.64 6.65 3.58 2.73 12.26 9.42 0.75 0.58 11.56 8.87 5.11 3.93 16.72 12.85 2.88 2.21 24.8 19.06 5.88 4.52 6.54 5.03 10.26 7.9 2.16 1.66 9.81 7.55c2.8,77.95 13.86,127.49 13.86,127.49 0,0 129.51,165.45 327.08,359.59l-10.44 446.37 0 0.13 -1.13 48.33c-1.19,50.85 37.84,100.91 86.75,111.26z"/>
    </g>
    <g>
     <g>
      <g>
       <path class="fil17" d="M20330.55 1979.73l0.1 13.38 -6.65 -6.48 -0.35 -20.87 0.29 -20.3 0.91 -19.74 1.53 -19.16 2.15 -18.59 2.76 -18.01 3.35 -17.44 3.94 -16.86 4.54 -16.29 5.12 -15.7 5.69 -15.12 6.25 -14.53 6.82 -13.96 7.37 -13.36 7.92 -12.76 8.46 -12.17 8.98 -11.57 9.51 -10.97 10.02 -10.36 10.53 -9.76 11.01 -9.14 11.5 -8.53 11.97 -7.92 12.43 -7.3 12.89 -6.67 13.32 -6.06 13.76 -5.44 14.18 -4.82 14.6 -4.21 15 -3.59 15.4 -2.96 15.77 -2.35 1.66 13.28 -15.25 2.27 -14.84 2.86 -14.42 3.45 -14.02 4.03 -13.58 4.62 -13.16 5.2 -12.72 5.78 -12.27 6.37 -11.83 6.94 -11.39 7.52 -10.92 8.11 -10.45 8.68 -9.99 9.26 -9.52 9.84 -9.03 10.43 -8.54 11.01 -8.06 11.59 -7.56 12.18 -7.05 12.76 -6.52 13.36 -6.01 13.95 -5.47 14.54 -4.94 15.14 -4.38 15.73 -3.82 16.32 -3.25 16.92 -2.68 17.51 -2.09 18.11 -1.49 18.68 -0.89 19.3 -0.29 19.88 0.35 20.47 -6.65 -6.48zm6.65 6.48c0.11,3.69 -2.75,6.79 -6.39,6.9 -3.64,0.11 -6.7,-2.79 -6.81,-6.48l13.2 -0.42zm255.3 4.77l-261.85 2.13 -0.1 -13.38 261.85 -2.13 0.05 0 0.05 13.38zm-0.1 -13.38c3.64,-0.02 6.63,2.95 6.65,6.64 0.02,3.69 -2.91,6.72 -6.55,6.74l-0.1 -13.38zm333.22 13.38l-333.17 0 0 -13.38 333.17 0 6.59 7.04 -6.59 6.34zm0 -13.38c3.64,0 6.6,3 6.6,6.69 0,3.69 -2.96,6.69 -6.6,6.69l0 -13.38zm-332.34 -354.2l-1.66 -13.28 0.56 -0.05 20.98 -0.51 20.39 0.22 19.8 0.97 19.19 1.73 18.58 2.49 17.97 3.25 17.34 4.03 16.71 4.8 16.08 5.59 15.43 6.39 14.78 7.19 14.1 7.99 13.43 8.8 12.75 9.61 12.04 10.42 11.33 11.24 10.62 12.04 9.88 12.87 9.14 13.67 8.4 14.48 7.66 15.3 6.89 16.09 6.14 16.92 5.36 17.72 4.6 18.53 3.83 19.34 3.07 20.17 2.28 20.98 1.49 21.82 0.72 22.64 -0.08 23.47 -0.87 24.32 -13.18 -0.7 0.85 -23.88 0.08 -23.03 -0.7 -22.14 -1.47 -21.3 -2.22 -20.44 -2.97 -19.57 -3.71 -18.74 -4.44 -17.87 -5.16 -17.06 -5.88 -16.2 -6.59 -15.39 -7.28 -14.56 -7.98 -13.76 -8.66 -12.95 -9.34 -12.15 -10.02 -11.38 -10.69 -10.6 -11.38 -9.84 -12.03 -9.07 -12.71 -8.34 -13.38 -7.57 -14.06 -6.83 -14.71 -6.09 -15.38 -5.35 -16.05 -4.62 -16.7 -3.87 -17.35 -3.15 -18 -2.41 -18.65 -1.67 -19.28 -0.95 -19.91 -0.22 -20.54 0.51 0.56 -0.05zm-0.56 0.05c-3.64,0.15 -6.73,-2.72 -6.87,-6.41 -0.14,-3.69 2.69,-6.82 6.33,-6.97l0.54 13.38z"/>
       <path id="1" class="fil18" d="M20592.45 1616.76c-167.55,21.4 -268.91,146.06 -261.85,369.66l261.85 -2.13 333.17 0c13.41,-261.64 -108.51,-376.9 -333.17,-367.53z"/>
      </g>
      <g>
       <rect class="fil19" x="17678.76" y="5907.31" width="1277.15" height="781.17" rx="91.13" ry="97.3"/>
       <path class="fil20" d="M17780.92 6688.47l1080.71 0 0 -552.12c0,-51.08 -43.88,-92.86 -97.51,-92.86l-1078.05 0c-2.46,0 -4.89,0.07 -7.31,0.24l0 547.45c0,53.52 45.96,97.29 102.16,97.29z"/>
       <rect class="fil18" x="17492.49" y="6647.55" width="1613.31" height="209.88" rx="115.11" ry="26.14"/>
      </g>
      <rect class="fil18 str1" x="15196.86" y="1850.39" width="6251.26" height="4109.11" rx="142.63" ry="142.63"/>
      <rect class="fil19 str2" x="15196.86" y="1850.39" width="6049.02" height="3976.17" rx="138.02" ry="138.02"/>
      <circle class="fil21 str3" cx="18221.36" cy="5682.3" r="80.46"/>
      <rect class="fil20 str4" x="15196.86" y="1850.4" width="6049.02" height="3692.47" rx="138.02" ry="128.17"/>
      <rect class="fil21 str3" x="15407.08" y="1978.72" width="5628.58" height="3435.82" rx="128.42" ry="119.26"/>
      <g>
       <path class="fil20" d="M20341.61 4777.11l-4206.79 0 0 -2800.22 0.34 0c-11.16,-363.6 330.54,-364.43 335.91,-367.64l4190.69 1.54c-224.78,21.56 -334.11,143.61 -327.95,366.1l7.8 0 0 2800.22z"/>
       <path class="fil8" d="M17310.3 2489.99l65.49 19.76c-4.39,18.34 -11.31,33.7 -20.81,45.96 -9.46,12.32 -21.16,21.61 -35.23,27.85 -14.01,6.25 -31.84,9.4 -53.51,9.4 -26.32,0 -47.76,-3.83 -64.47,-11.43 -16.65,-7.64 -31,-21.09 -43.09,-40.27 -12.1,-19.19 -18.18,-43.84 -18.18,-73.77 0,-39.95 10.63,-70.66 31.9,-92.16 21.33,-21.43 51.42,-32.18 90.36,-32.18 30.44,0 54.4,6.13 71.84,18.45 17.39,12.33 30.39,31.23 38.82,56.77l-65.82 14.57c-2.31,-7.31 -4.73,-12.65 -7.26,-16.03 -4.22,-5.68 -9.33,-10.07 -15.36,-13.11 -6.07,-3.1 -12.83,-4.62 -20.31,-4.62 -16.99,0 -29.99,6.81 -38.99,20.38 -6.8,10.06 -10.24,25.93 -10.24,47.48 0,26.79 4.05,45.06 12.21,55.03 8.15,9.9 19.58,14.85 34.32,14.85 14.29,0 25.1,-3.99 32.41,-12.04 7.31,-7.99 12.6,-19.64 15.92,-34.89zm92.1 -21.77c0,-39.43 10.97,-70.16 32.97,-92.1 22,-22 52.61,-32.97 91.88,-32.97 40.22,0 71.23,10.8 93,32.35 21.77,21.61 32.63,51.87 32.63,90.76 0,28.24 -4.73,51.36 -14.23,69.42 -9.51,18.06 -23.3,32.13 -41.24,42.2 -18.01,10.07 -40.4,15.08 -67.24,15.08 -27.23,0 -49.79,-4.34 -67.68,-13 -17.84,-8.72 -32.35,-22.45 -43.44,-41.24 -11.08,-18.74 -16.65,-42.25 -16.65,-70.5zm74.6 0.17c0,24.37 4.56,41.91 13.62,52.55 9.11,10.64 21.49,15.98 37.13,15.98 16.04,0 28.53,-5.23 37.3,-15.64 8.84,-10.46 13.22,-29.14 13.22,-56.21 0,-22.73 -4.61,-39.32 -13.77,-49.79 -9.23,-10.52 -21.66,-15.75 -37.42,-15.75 -15.08,0 -27.23,5.34 -36.35,15.97 -9.17,10.64 -13.73,28.31 -13.73,52.89zm216.73 -121.19l69.71 0 90.64 133.46 0 -133.46 70.55 0 0 241.71 -70.55 0 -90.14 -132.73 0 132.73 -70.21 0 0 -241.71zm263.64 0l227.19 0 0 59.76 -76.29 0 0 181.95 -74.6 0 0 -181.95 -76.3 0 0 -59.76zm261.68 241.71l0 -241.71 124.45 0c23.07,0 40.74,1.97 52.89,5.97 12.21,3.94 22.06,11.3 29.54,21.99 7.48,10.75 11.2,23.86 11.2,39.28 0,13.38 -2.87,24.98 -8.61,34.71 -5.68,9.79 -13.56,17.67 -23.64,23.75 -6.35,3.82 -15.13,7.03 -26.21,9.56 8.89,2.98 15.36,5.91 19.41,8.88 2.7,1.97 6.69,6.26 11.93,12.72 5.17,6.47 8.66,11.48 10.41,15.02l36.28 69.83 -84.39 0 -39.89 -73.71c-5.06,-9.56 -9.57,-15.75 -13.5,-18.62 -5.41,-3.72 -11.54,-5.57 -18.35,-5.57l-6.57 0 0 97.9 -74.95 0zm74.95 -143.47l31.56 0c3.37,0 10.01,-1.13 19.8,-3.32 4.95,-0.96 9,-3.49 12.09,-7.59 3.16,-4.12 4.74,-8.78 4.74,-14.07 0,-7.83 -2.48,-13.85 -7.43,-18.01 -4.95,-4.22 -14.23,-6.3 -27.91,-6.3l-32.85 0 0 49.29zm335.32 103.63l-84.63 0 -12.15 39.84 -76.23 0 90.97 -241.71 81.76 0 90.58 241.71 -78.21 0 -12.09 -39.84zm-15.82 -52.32l-26.38 -86.87 -26.5 86.87 52.88 0zm284.64 -6.76l65.49 19.76c-4.39,18.34 -11.31,33.7 -20.81,45.96 -9.46,12.32 -21.16,21.61 -35.23,27.85 -14.01,6.25 -31.85,9.4 -53.51,9.4 -26.32,0 -47.76,-3.83 -64.47,-11.43 -16.66,-7.64 -31.01,-21.09 -43.1,-40.27 -12.09,-19.19 -18.17,-43.84 -18.17,-73.77 0,-39.95 10.63,-70.66 31.9,-92.16 21.32,-21.43 51.42,-32.18 90.35,-32.18 30.44,0 54.41,6.13 71.85,18.45 17.39,12.33 30.39,31.23 38.82,56.77l-65.82 14.57c-2.31,-7.31 -4.73,-12.65 -7.26,-16.03 -4.22,-5.68 -9.34,-10.07 -15.36,-13.11 -6.07,-3.1 -12.83,-4.62 -20.31,-4.62 -16.99,0 -29.99,6.81 -38.99,20.38 -6.81,10.06 -10.24,25.93 -10.24,47.48 0,26.79 4.05,45.06 12.21,55.03 8.15,9.9 19.58,14.85 34.32,14.85 14.29,0 25.1,-3.99 32.41,-12.04 7.31,-7.99 12.6,-19.64 15.92,-34.89zm84.67 -142.79l227.19 0 0 59.76 -76.29 0 0 181.95 -74.6 0 0 -181.95 -76.3 0 0 -59.76z"/>
       <polygon class="fil8 str5" points="17007.72,2946.62 19468.69,2946.62 19468.69,2951.65 17007.72,2951.65 "/>
       <polygon class="fil8 str5" points="16502.39,3207.62 19974.04,3207.62 19974.04,3212.65 16502.39,3212.65 "/>
       <polygon class="fil8 str5" points="16502.39,3394.08 19974.04,3394.08 19974.04,3399.11 16502.39,3399.11 "/>
       <polygon class="fil8 str5" points="16502.39,3580.54 19974.04,3580.54 19974.04,3585.58 16502.39,3585.58 "/>
       <polygon class="fil8 str5" points="16502.39,3767.02 19974.04,3767.02 19974.04,3772.04 16502.39,3772.04 "/>
       <polygon class="fil8 str5" points="16502.39,3953.48 19974.04,3953.48 19974.04,3958.51 16502.39,3958.51 "/>
       <g>
        <path class="fil16 str6" d="M19364.64 4229.24c-28.67,154.7 -56.3,277.04 -82.88,367.01 -19.71,63.59 -54.69,68.78 -104.92,15.6 -55.91,-85.79 -65.89,-150.31 -29.95,-193.55 29.15,-26.88 83.28,-1.95 162.39,74.76 96.46,74.64 131.27,27.64 177.91,-67.51 13.03,-23.78 26.95,-21.52 26,5.51 -4.22,66.02 -7.2,88.47 -4.13,103.23 3.43,16.57 9.94,15.99 22.07,4.35 14.95,-14.33 37.55,-47.05 67.82,-98.15 18,-26.57 32.46,-22.44 41.89,8.65 4.41,19.4 5.66,41.33 3.97,64.24 -2.93,36.19 16.75,42.48 47.86,14.38 67.68,-68.01 93.23,-62.3 120.53,-34.97"/>
       </g>
      </g>
     </g>
     <g id="_2287719398320">
      <g>
       <rect class="fil22 str7" transform="matrix(0.245243 0.0519083 -0.00575796 0.246269 22798.4 3873.89)" width="5244.6" height="9531.28" rx="362.61" ry="362.61"/>
       <rect class="fil20 str8" transform="matrix(0.235825 0.0499149 -0.00553684 0.236811 22797.5 3912.02)" width="5244.6" height="9531.28" rx="362.61" ry="362.61"/>
       <rect class="fil21 str8" transform="matrix(0.212416 0.0449599 -0.00498721 0.213304 22856.2 4037.05)" width="5244.6" height="9531.28" rx="362.61" ry="362.61"/>
       <g>
        <g>
         <circle class="fil8" transform="matrix(0.146861 0.0310846 -0.00344807 0.147475 23394 4093.09)" r="144.52"/>
         <circle class="fil8" transform="matrix(0.0833148 0.0176344 -0.00195611 0.0836631 23444.4 4103.74)" r="144.52"/>
        </g>
        <path class="fil19" d="M23893.25 4256.54l-959.99 -203.19c-42.36,-8.97 -77.83,18.5 -78.83,61.04l-0.42 18.24 1114.03 235.8 0.43 -18.24c0.99,-42.54 -32.85,-84.68 -75.22,-93.65z"/>
        <g>
         <rect class="fil8" transform="matrix(0.0958819 0.0202944 -0.0027287 0.116707 22931.6 4073.64)" width="169.79" height="466.92"/>
         <rect class="fil8" transform="matrix(0.0958819 0.0202944 -0.00245583 0.105036 22953.9 4083.84)" width="169.79" height="466.92"/>
         <rect class="fil8" transform="matrix(0.0958819 0.0202944 -0.00218296 0.0933656 22976.6 4094.13)" width="169.79" height="466.92"/>
         <rect class="fil8" transform="matrix(0.0958819 0.0202944 -0.00191009 0.0816949 22999 4104.35)" width="169.79" height="466.92"/>
        </g>
        <rect class="fil8" transform="matrix(0.235825 0.0499149 -0.00553684 0.236811 23807.3 4258.99)" width="356.69" height="230.11"/>
        <rect class="fil8" transform="matrix(0.0364293 0.00771065 -0.00338437 0.14475 23786.1 4265.15)" width="356.69" height="230.11"/>
       </g>
      </g>
      <g>
       <path class="fil23" d="M22832.44 5705.97c119.39,109.1 183.89,-186.15 336.78,-512.86 152.89,-326.71 333.52,-606.41 217.39,-621.96 -217.16,-29.07 -473.05,188.86 -569.52,505.26 -96.46,316.39 -93.64,463.31 15.35,629.56z"/>
       <path class="fil24" d="M20686.43 3910.36l-398.29 126.02 47.29 631.95c0,0 13.15,71.87 78.66,59.5 101.53,-19.21 123.78,-104.5 123.78,-104.5l59.47 -5.39c0,0 22.81,67.88 136.36,-2.35 113.55,-70.26 253.66,-619.26 253.66,-619.26l-300.93 -85.97z"/>
       <path class="fil25" d="M20567.93 4477.37c-19.19,-64.87 -31.78,-167 -38.37,-203.03 -6.61,-36.06 1.8,-53.47 34.85,-93.11 33.06,-39.64 103.95,-102.69 103.95,-102.69l-64.87 19.2c0,0 -76.19,64.89 -97.94,95.49 -35.45,49.85 -31.27,96.09 -14.48,207.83 9.47,63.02 38.59,204.67 33,252.51 10.28,-17.09 13.8,-30.24 13.8,-30.24l33.14 -2.99c4.61,-48.71 7.12,-108.53 -3.08,-142.97z"/>
       <path class="fil26" d="M20713.49 4404.44c-20.77,4.33 -41.55,7.84 -61.63,10.05 -0.85,-33.01 -1.87,-63.7 -1.99,-85.2 -0.09,-18.1 -0.09,-34.5 0.12,-49.46 21.77,-12.49 40.94,-23.6 56.77,-32.83 0.36,44.04 0.85,108.1 6.73,157.44zm-6.88 -172.52c-13.34,-16.03 -29.77,-41.34 -41.84,-61.58 0.59,-1.5 1.22,-2.97 1.87,-4.44 13.72,8.88 27.09,19.01 39.65,30.37 -0.26,4.1 -0.29,8.45 -0.12,13.15 0.22,5.91 0.34,13.55 0.44,22.5z"/>
       <path class="fil27" d="M23442.15 4949.73l-1358.56 -766.27c0,0 -148.95,-99.75 -297.91,-162.87 -88.16,-37.38 -194.07,-86.71 -257.07,-116.62 -153.15,-72.73 -700.32,-302.94 -700.32,-302.94 0,0 -126.13,-68.52 -234.29,61.21 -48.45,58.1 -147.8,133.31 -147.8,133.31l-314.8 91.83c0,0 -133.97,28.78 -79.94,183.77 23.58,67.63 62.38,320.79 62.38,320.79 0,0 23.99,117.75 90.68,81.73 66.69,-36.02 108.16,-129.72 103.37,-182.59 -4.79,-52.86 -5.96,-176 -5.96,-176 0,0 94.58,-6.05 240.29,4.88 80.49,6.03 220.43,79.94 242.61,214.5 8.52,51.77 -58.9,121.93 -127.99,131.53 -108.99,15.13 45.59,245.7 45.59,245.7 0,0 250.5,0.64 466.15,-2.28 172.98,-2.35 273.93,-64.8 355.63,-82.19 81.7,-17.4 232.46,28.89 353.19,111.23 120.7,82.32 1066.59,816.04 1066.59,816.04l498.16 -604.76z"/>
       <path class="fil24" d="M20303.05 4180.07c-0.54,-23.23 -0.85,-43.58 -1,-55.07 16.23,0.84 27.51,0.9 27.51,0.9 0,0 -11.26,23.65 -26.51,54.17z"/>
       <path class="fil28" d="M20252.79 4275.01c-9.61,6.4 -19.14,12.79 -28.53,19.16 5.71,-40.65 25.44,-131.38 -2.24,-141.88 -20.78,-7.87 -33.39,-17.56 -53.14,-35.14 -33.34,-29.69 -26.72,-55.88 -26.72,-55.88 0,0 22.52,27.94 59.16,46.27 23.24,11.63 70.54,15.9 100.73,17.46 0.15,11.49 0.46,31.84 1,55.07 -15.18,30.35 -34.31,67.49 -50.26,94.94z"/>
       <path class="fil29" d="M20848.93 4242.43c-13.78,8.06 -33.51,27.66 -36.18,7.3 -2.66,-20.39 -0.88,-41.07 34.46,-67.5 35.35,-26.44 37.97,-14.1 45.21,-5.64 7.25,8.47 8.49,6.6 70.66,-33.21 62.18,-39.82 313.1,-219.02 345.24,-243.62 33.52,-25.65 24.88,-23.93 -20.27,-78.94 26.03,34.15 73.22,63.29 9.66,116.6 -63.54,53.3 -395.64,277.41 -448.78,305.01z"/>
       <path class="fil30" d="M21309.6 3937.87c51.58,-39.56 42.82,-70.84 24.81,-110.55 -5.9,-13 -35.27,-5.44 -19.68,16.72 40.62,57.66 -5.13,93.83 -5.13,93.83z"/>
       <path class="fil31" d="M21290.02 3847.55c23.59,25.72 57.53,42.27 7.27,78.55 -58.83,42.44 -254.41,183.57 -386.21,268.99 -37.67,24.4 1.52,-23.62 -53.59,9.53 -55.11,33.15 -69.94,83.96 31.31,23.05 101.24,-60.9 281.07,-187.93 420.8,-289.8 71.21,-51.9 5.78,-94.21 -21.55,-117.05 -28.65,-23.98 1.97,26.73 1.97,26.73z"/>
       <path class="fil32" d="M19987.77 4559.76c-15.29,8.92 -31.09,10.45 -35.25,3.32 -4.14,-7.09 4.91,-20.13 20.22,-29.06l15.03 25.74z"/>
       <path class="fil32" d="M20121.13 4531.48c-23.93,10.78 -54.88,24.22 -89.21,29.93 -38.88,6.46 -48.18,6.67 -58.28,-10.58 -10.08,-17.26 -5.32,-25.27 19.37,-55.95 21.83,-27.13 48.75,-47.49 69.88,-63.06l58.24 99.66z"/>
       <path class="fil33" d="M20654.7 4152.8c-14.58,-23.46 -41.83,-73.11 -47.57,-96.83 -121.37,70.93 -489.15,289.33 -582.71,395.97 -5.1,19.46 -11.86,39.86 3.96,66.9 15.81,27.06 36.9,31.19 56.33,36.28 138.85,-29.18 509.64,-242.42 631.01,-313.36 -17.84,-16.63 -47.76,-64.74 -61.02,-88.96z"/>
       <path class="fil32" d="M20603.33 4182.81c-25.61,-43.83 -55.72,-116.06 -10.82,-142.3 144.75,-84.61 566.29,-326.84 731.87,-361.64 34.05,-3.1 53.87,23.06 65.19,44.43 13.05,20.35 26.13,50.46 6.72,78.6 -111.6,127.21 -529.54,375.59 -674.27,460.18 -44.92,26.26 -93.07,-35.42 -118.69,-79.27z"/>
       <path class="fil34" d="M21399.64 3769.38c-9.26,5.42 -26.91,-7.52 -39.43,-28.94 -12.5,-21.38 -15.11,-43.12 -5.85,-48.53 9.29,-5.41 26.92,7.53 39.43,28.93 12.48,21.4 15.13,43.13 5.85,48.54z"/>
       <path class="fil27" d="M21082.07 4710.58c0,0 -475.82,1.13 -521.7,-4.34 -55.56,-6.63 -118.2,-62.35 -167.27,-99.77 -85.87,-65.49 -209.6,-144.24 -209.6,-144.24 0,0 -40.84,-46.25 0.63,-103.3 27.72,-38.14 82.03,-59.29 128.56,-51.63 91.31,15.05 192.16,96.18 255.08,106.79 128.55,21.66 368.06,-80 368.06,-80l146.24 376.49z"/>
       <path class="fil35" d="M20251.37 4494.41c0,0 -47.82,-30.91 -62.46,-45.98 -17.75,-18.25 -9.29,-84.1 50.49,-104.5 25.58,-8.74 104.67,15.38 96.4,34.56 -15.89,36.85 -35.17,71.47 -45.34,105.73 -5.31,17.84 -23.17,21.29 -39.09,10.19z"/>
       <path class="fil36" d="M21339.36 4685.97c-48.26,12.72 -104.18,22.54 -170.78,23.44 -28.48,0.38 -57.55,0.71 -86.58,0.98l0 0c29.03,-0.27 58.11,-0.59 86.58,-0.98 66.6,-0.9 122.52,-10.72 170.78,-23.44l0 0z"/>
       <path class="fil37" d="M22493.08 5205.94c-261.83,-201.77 -552.35,-424.3 -615.68,-467.49 -120.73,-82.34 -271.49,-128.63 -353.19,-111.23 -50.24,10.69 -107.77,38.43 -184.85,58.75 -48.26,12.72 -104.18,22.54 -170.78,23.44 -28.47,0.39 -57.55,0.71 -86.58,0.98l-16.09 -41.4c65.23,-13.69 125.54,-29.12 161.56,-44.85 105.72,-46.24 174.82,-92.47 276.94,-105.05 102.13,-12.58 195.24,-14.37 372.41,102.82 81.5,53.9 355.65,234.84 627.95,414.51 -11.58,67.56 -13.29,125.82 -11.69,169.52z"/>
       <path class="fil36" d="M21055.11 4710.63c-86.23,0.72 -170.22,0.98 -234.6,1.08 0.02,0 0.02,0 0.02,0 64.23,-0.1 148.01,-0.37 234.05,-1.08 0.18,0 0.35,0.01 0.53,0z"/>
       <path class="fil37" d="M21054.58 4710.63c-86.04,0.71 -169.82,0.98 -234.05,1.08 2.78,-0.41 5.65,-0.84 8.61,-1.28 91.6,0.32 181.65,0.26 225.44,0.2z"/>
       <path class="fil37" d="M21082 4710.39c-8.97,0.09 -17.95,0.16 -26.89,0.24 -0.18,0.01 -0.35,0 -0.53,0 -43.79,0.06 -133.84,0.12 -225.44,-0.2 58.74,-8.75 151.91,-23.61 236.77,-41.44l16.09 41.4 0 0z"/>
       <path class="fil38" d="M23137.42 5864.64l-635.35 -573.41c0,0 -58.08,-262.59 112.94,-555.14 135.51,-231.71 261.96,-207.4 261.96,-207.4l980.18 472.76 -719.73 863.19z"/>
       <path class="fil39" d="M23444.2 5496.71l-306.78 367.93 -635.35 -573.41 0 0 0 0c0,0 -0.01,-0.01 0,-0.01l0 0c-0.4,-1.81 -36.76,-169.76 35.96,-386.04 261.16,192.03 624.11,411.11 906.17,591.53z"/>
       <path class="fil36" d="M20560.47 4706.25c-0.03,0 -0.06,-0.01 -0.1,-0.01 -19.48,-2.32 -39.83,-10.69 -60.16,-22.17l0 0c20.33,11.48 40.68,19.85 60.16,22.17 0.04,0 0.08,0 0.1,0.01z"/>
       <path class="fil37" d="M20684.6 4709.48c-62.33,-0.64 -110.82,-1.68 -124.13,-3.23 -0.02,-0.01 -0.06,-0.01 -0.1,-0.01 -19.48,-2.32 -39.83,-10.69 -60.16,-22.17 -37.66,-21.27 -75.25,-53.29 -107.11,-77.6 -85.87,-65.49 -209.6,-144.24 -209.6,-144.24l0 0 0 0c-0.21,-0.23 -38.4,-44.04 -2.24,-98.89 2.94,5.19 2.7,14.28 7.59,24.51 -11.66,24.16 -10.08,50.15 0.06,60.58 14.64,15.07 62.46,45.98 62.46,45.98 12.62,8.79 26.45,8.46 34.29,-0.94 2.05,-2.46 3.69,-5.55 4.8,-9.25 1.02,-3.42 2.12,-6.85 3.31,-10.28 21.61,10.74 44.22,20.61 66.96,32.21 29.61,15.1 102.43,44.4 102.87,57.3 3.99,117.32 141.22,133.6 221,146.03z"/>
       <path class="fil40" d="M20285.66 4493.47c-7.84,9.4 -21.67,9.73 -34.29,0.94 0,0 -47.82,-30.91 -62.46,-45.98 -10.14,-10.43 -11.72,-36.42 -0.06,-60.58 1.08,2.27 2.43,4.58 4.1,6.92 27.59,38.6 62.69,60.23 100.82,79.17 -1.19,3.43 -2.29,6.86 -3.31,10.28 -1.11,3.7 -2.75,6.79 -4.8,9.25z"/>
       <path class="fil41" d="M22929.38 5676.87c-57.19,-145.86 -77.07,-360.24 46.16,-578.32 104.77,-185.42 235.38,-305.07 369.44,-344.13l-468.01 -225.73c0,0 -126.45,-24.31 -261.97,207.41 -171,292.54 -112.93,555.13 -112.93,555.13l427.31 385.64z"/>
       <path class="fil42" d="M22430.14 5274.29c0,0 -70.75,-316.2 100.25,-608.74 135.52,-231.72 261.97,-207.41 261.97,-207.41 0,0 362.47,58.4 594.25,113.01 -192.81,116.54 -346.1,208.65 -461.83,485.08 -115.74,276.42 -127.08,439.09 -92.34,649.74 -239.25,-223.4 -402.3,-431.68 -402.3,-431.68z"/>
       <path class="fil41" d="M22721.06 5373.89c21.54,30.42 23.91,65.77 5.29,78.96 -18.62,13.19 -51.17,-0.79 -72.71,-31.2 -21.55,-30.41 -23.91,-65.74 -5.29,-78.93 18.62,-13.2 51.17,0.77 72.71,31.17z"/>
       <path class="fil43" d="M22634.09 5336.51c18.63,-13.19 51.17,0.77 72.72,31.18 21.54,30.42 23.91,65.75 5.29,78.95l-14.02 7.14c-18.62,13.18 -51.18,-0.79 -72.71,-31.2 -21.55,-30.41 -23.91,-65.75 -5.28,-78.93l14 -7.14z"/>
       <path class="fil44" d="M22692.8 5374.83c21.53,30.4 23.9,65.75 5.28,78.95 -18.62,13.18 -51.18,-0.79 -72.71,-31.2 -21.55,-30.41 -23.91,-65.75 -5.28,-78.93 18.61,-13.19 51.16,0.77 72.71,31.18z"/>
       <path class="fil43" d="M22636.97 5387.75c4.4,5.23 10.45,7.41 13.51,4.85 3.05,-2.58 1.97,-8.9 -2.43,-14.15 -4.4,-5.24 -10.45,-7.4 -13.5,-4.84 -3.06,2.57 -1.98,8.89 2.42,14.14z"/>
       <path class="fil43" d="M22662.87 5420.11c4.41,5.23 10.45,7.4 13.52,4.85 3.05,-2.58 1.97,-8.9 -2.43,-14.14 -4.4,-5.25 -10.45,-7.41 -13.51,-4.86 -3.05,2.58 -1.97,8.9 2.42,14.15z"/>
      </g>
     </g>
    </g>
   </g>
   <g>
    <polygon class="fil45 str9" points="861.6,3373.01 861.6,3559.69 1290.22,3559.69 1290.22,4418.41 1476.89,4418.41 1476.89,3559.69 1905.51,3559.69 1905.51,3373.01 "/>
   </g>
   <g>
    <path id="1" class="fil45 str9" d="M2444.64 3373.01c-288.23,0 -522.7,234.47 -522.7,522.7 0,288.23 234.47,522.7 522.7,522.7 288.23,0 522.7,-234.47 522.7,-522.7 0,-288.23 -234.47,-522.7 -522.7,-522.7zm0 858.72c-185.19,0 -336.02,-150.84 -336.02,-336.02 0,-185.19 150.83,-336.02 336.02,-336.02 185.19,0 336.02,150.83 336.02,336.02 0,185.18 -150.83,336.02 -336.02,336.02z"/>
   </g>
   <g>
    <polygon id="2" class="fil45 str9" points="4126.24,3373.01 3849.96,3373.01 3558.74,3640.33 3419.85,3767.27 3266.03,3907.66 3266.03,3373.01 3079.35,3373.01 3079.35,4418.41 3266.03,4418.41 3266.03,4160.05 3530.36,3919.6 3891.77,4418.41 4121.76,4418.41 3669.25,3792.66 "/>
   </g>
   <g>
    <path id="3" class="fil45 str9" d="M4468.24 3559.69l763.14 0 0 -186.68 -763.14 0c-155.32,0 -280.77,126.94 -280.77,282.26l0 480.88c0,155.32 125.45,282.26 280.77,282.26l763.14 0 0 -186.68 -763.14 0c-52.27,0 -95.58,-43.31 -95.58,-95.58l0 -197.13 672.04 0 0 -186.68 -672.04 0 0 -97.07c0,-52.27 43.31,-95.58 95.58,-95.58z"/>
   </g>
   <g>
    <polygon id="4" class="fil45 str9" points="6239.44,3373.01 6239.44,4038.08 5567.4,3520.61 5380.72,3377.49 5380.72,4418.41 5567.4,4418.41 5567.4,3757.82 6239.44,4275.29 6426.12,4418.41 6426.12,3374.5 "/>
   </g>
   <g>
    <path id="5" class="fil45 str9" d="M7610.41 3801.62c-65.71,0 -120.97,-55.25 -120.97,-122.46 0,-65.71 55.26,-120.97 120.97,-120.97l539.13 0 0 -186.67 -539.13 0c-168.76,0 -306.16,137.39 -306.16,306.15 0,83.63 32.86,159.8 86.62,215.05 -53.76,55.26 -86.62,131.42 -86.62,215.06 0,168.75 137.4,306.15 306.16,306.15l539.13 0 0 -428.61 186.68 0 0 -188.18 -725.81 4.48zm353.94 425.63l-352.45 0c-65.71,0 -120.97,-55.26 -120.97,-120.97 0,-67.2 55.26,-122.46 120.97,-122.46l352.45 0 0 243.43z"/>
   </g>
   <g>
    <path id="6" class="fil45 str9" d="M1850.25 5154.67l0 -5.97c0,-155.32 -126.94,-282.26 -282.26,-282.26l-424.13 0c-155.32,0 -280.77,126.94 -280.77,282.26l0 5.97c0,59.74 17.93,115 49.29,159.8 10.45,16.43 22.4,31.36 35.84,44.8 50.78,49.28 119.47,79.15 195.64,79.15l376.34 0c79.16,0 144.87,64.22 144.87,143.37 0,79.15 -65.71,143.37 -144.87,143.37l-327.06 0c-79.15,0 -143.37,-64.22 -143.37,-143.37l-186.68 0c0,182.2 147.85,330.05 330.05,330.05l327.06 0c182.2,0 330.05,-147.85 330.05,-330.05 0,-79.15 -28.37,-152.33 -74.67,-209.08 -4.48,-4.48 -7.47,-8.96 -11.95,-13.44 -59.73,-65.71 -146.35,-107.53 -243.43,-107.53l-376.34 0c-52.27,0 -95.58,-43.31 -95.58,-95.58l0 -5.97c0,-52.27 43.31,-95.58 95.58,-95.58l424.13 0c52.27,0 95.58,43.31 95.58,95.58l0 5.97 186.68 -1.49z"/>
   </g>
   <g>
    <polygon id="7" class="fil45 str9" points="2858.31,5009.81 2522.29,5268.17 2186.27,5009.81 1999.59,4866.44 1999.59,5911.84 2186.27,5911.84 2186.27,5245.77 2369.96,5386.15 2522.29,5504.13 2674.62,5386.15 2858.31,5245.77 2858.31,5911.84 3044.99,5911.84 3044.99,4866.44 "/>
   </g>
   <g>
    <polygon id="8" class="fil45 str9" points="4105.32,5725.16 3667.75,4866.44 3230.17,5725.16 3134.59,5911.84 3343.67,5911.84 3439.25,5725.16 3667.75,5277.13 3896.24,5725.16 3991.82,5911.84 4200.9,5911.84 "/>
   </g>
   <g>
    <path id="9" class="fil45 str9" d="M4984.96 5429.46c0,0 0,0 0,0 28.37,-2.98 55.25,-10.45 80.64,-22.4 97.07,-44.8 164.28,-143.37 164.28,-256.87 0,-77.66 -31.36,-147.85 -82.14,-198.63 -50.78,-50.77 -120.97,-82.13 -198.63,-82.13l-660.09 0 0 1045.4 186.68 0 0 -480.89 186.68 0c67.2,0 125.44,35.84 158.3,89.61l4.48 8.96 100.06 195.64 95.58 186.68 209.08 0 -95.58 -186.68 -149.34 -298.69zm-509.26 -180.7l0 -192.66 473.41 0c32.86,0 55.26,14.94 67.21,26.89 10.45,10.45 28.37,34.35 28.37,68.69 0,37.34 -22.4,71.69 -56.75,86.62 -11.94,5.98 -25.38,8.96 -38.83,8.96l-473.41 1.5z"/>
   </g>
   <g>
    <polygon id="10" class="fil45 str9" points="5331.43,4866.44 5331.43,5053.12 5760.05,5053.12 5760.05,5911.84 5946.72,5911.84 5946.72,5053.12 6375.34,5053.12 6375.34,4866.44 "/>
   </g>
   <g>
    <path id="11" class="fil45 str9" d="M1369.37 6546.55l522.7 0 0 -186.68 -522.7 0c-288.23,0 -522.7,234.47 -522.7,522.7 0,288.23 234.47,522.7 522.7,522.7l522.7 0 0 -186.68 -522.7 0c-185.19,0 -336.02,-150.84 -336.02,-336.02 0,-185.19 150.83,-336.02 336.02,-336.02z"/>
   </g>
   <g>
    <path id="12" class="fil45 str9" d="M2462.56 6359.87c-288.23,0 -522.7,234.47 -522.7,522.7 0,288.23 234.47,522.7 522.7,522.7 288.23,0 522.7,-234.47 522.7,-522.7 0,-288.23 -234.47,-522.7 -522.7,-522.7zm0 858.72c-185.19,0 -336.02,-150.84 -336.02,-336.02 0,-185.19 150.83,-336.02 336.02,-336.02 185.19,0 336.02,150.83 336.02,336.02 0,185.18 -150.83,336.02 -336.02,336.02z"/>
   </g>
   <g>
    <polygon id="13" class="fil45 str9" points="3957.48,6359.87 3957.48,7024.94 3285.44,6507.47 3098.76,6364.35 3098.76,7405.27 3285.44,7405.27 3285.44,6744.68 3957.48,7262.15 4144.16,7405.27 4144.16,6361.36 "/>
   </g>
   <g>
    <polygon id="14" class="fil45 str9" points="4293.5,6359.87 4293.5,6546.55 4722.12,6546.55 4722.12,7405.27 4908.79,7405.27 4908.79,6546.55 5337.41,6546.55 5337.41,6359.87 "/>
   </g>
   <g>
    <path id="15" class="fil45 str9" d="M6182.69 6922.89c0,0 0,0 0,0 28.37,-2.98 55.25,-10.45 80.64,-22.4 97.07,-44.8 164.28,-143.37 164.28,-256.87 0,-77.66 -31.36,-147.85 -82.14,-198.63 -50.78,-50.77 -120.97,-82.13 -198.63,-82.13l-660.09 0 0 1045.4 186.68 0 0 -480.89 186.68 0c67.2,0 125.44,35.84 158.3,89.61l4.48 8.96 100.06 195.64 95.58 186.68 209.08 0 -95.58 -186.68 -149.34 -298.69zm-509.26 -180.7l0 -192.66 473.41 0c32.86,0 55.26,14.94 67.21,26.89 10.45,10.45 28.37,34.35 28.37,68.69 0,37.34 -22.4,71.69 -56.75,86.62 -11.94,5.98 -25.38,8.96 -38.83,8.96l-473.41 1.5z"/>
   </g>
   <g>
    <polygon id="16" class="fil45 str9" points="7489.43,7218.59 7051.86,6359.87 6614.28,7218.59 6518.7,7405.27 6727.78,7405.27 6823.36,7218.59 7051.86,6770.56 7280.35,7218.59 7375.93,7405.27 7585.01,7405.27 "/>
   </g>
   <g>
    <path id="17" class="fil45 str9" d="M8050.97 6546.55l522.7 0 0 -186.68 -522.7 0c-288.23,0 -522.7,234.47 -522.7,522.7 0,288.23 234.47,522.7 522.7,522.7l522.7 0 0 -186.68 -522.7 0c-185.19,0 -336.02,-150.84 -336.02,-336.02 0,-185.19 150.83,-336.02 336.02,-336.02z"/>
   </g>
   <g>
    <polygon id="18" class="fil45 str9" points="8723.01,6359.87 8723.01,6546.55 9151.63,6546.55 9151.63,7405.27 9338.3,7405.27 9338.3,6546.55 9766.92,6546.55 9766.92,6359.87 "/>
   </g>
   <polygon id="19" class="fil34" points="861.6,3373.01 861.6,3559.69 1290.22,3559.69 1290.22,4418.41 1476.89,4418.41 1476.89,3559.69 1905.51,3559.69 1905.51,3373.01 "/>
   <path id="20" class="fil34" d="M2444.64 3373.01c-288.23,0 -522.7,234.47 -522.7,522.7 0,288.23 234.47,522.7 522.7,522.7 288.23,0 522.7,-234.47 522.7,-522.7 0,-288.23 -234.47,-522.7 -522.7,-522.7zm0 858.72c-185.19,0 -336.02,-150.84 -336.02,-336.02 0,-185.19 150.83,-336.02 336.02,-336.02 185.19,0 336.02,150.83 336.02,336.02 0,185.18 -150.83,336.02 -336.02,336.02z"/>
   <polygon id="21" class="fil34" points="4126.24,3373.01 3849.96,3373.01 3558.74,3640.33 3419.85,3767.27 3266.03,3907.66 3266.03,3373.01 3079.35,3373.01 3079.35,4418.41 3266.03,4418.41 3266.03,4160.05 3530.36,3919.6 3891.77,4418.41 4121.76,4418.41 3669.25,3792.66 "/>
   <path id="22" class="fil34" d="M4468.24 3559.69l763.14 0 0 -186.68 -763.14 0c-155.32,0 -280.77,126.94 -280.77,282.26l0 480.88c0,155.32 125.45,282.26 280.77,282.26l763.14 0 0 -186.68 -763.14 0c-52.27,0 -95.58,-43.31 -95.58,-95.58l0 -197.13 672.04 0 0 -186.68 -672.04 0 0 -97.07c0,-52.27 43.31,-95.58 95.58,-95.58z"/>
   <polygon id="23" class="fil34" points="6239.44,3373.01 6239.44,4038.08 5567.4,3520.61 5380.72,3377.49 5380.72,4418.41 5567.4,4418.41 5567.4,3757.82 6239.44,4275.29 6426.12,4418.41 6426.12,3374.5 "/>
   <path id="24" class="fil34" d="M7610.41 3801.62c-65.71,0 -120.97,-55.25 -120.97,-122.46 0,-65.71 55.26,-120.97 120.97,-120.97l539.13 0 0 -186.67 -539.13 0c-168.76,0 -306.16,137.39 -306.16,306.15 0,83.63 32.86,159.8 86.62,215.05 -53.76,55.26 -86.62,131.42 -86.62,215.06 0,168.75 137.4,306.15 306.16,306.15l539.13 0 0 -428.61 186.68 0 0 -188.18 -725.81 4.48zm353.94 425.63l-352.45 0c-65.71,0 -120.97,-55.26 -120.97,-120.97 0,-67.2 55.26,-122.46 120.97,-122.46l352.45 0 0 243.43z"/>
   <path id="25" class="fil34" d="M1850.25 5154.67l0 -5.97c0,-155.32 -126.94,-282.26 -282.26,-282.26l-424.13 0c-155.32,0 -280.77,126.94 -280.77,282.26l0 5.97c0,59.74 17.93,115 49.29,159.8 10.45,16.43 22.4,31.36 35.84,44.8 50.78,49.28 119.47,79.15 195.64,79.15l376.34 0c79.16,0 144.87,64.22 144.87,143.37 0,79.15 -65.71,143.37 -144.87,143.37l-327.06 0c-79.15,0 -143.37,-64.22 -143.37,-143.37l-186.68 0c0,182.2 147.85,330.05 330.05,330.05l327.06 0c182.2,0 330.05,-147.85 330.05,-330.05 0,-79.15 -28.37,-152.33 -74.67,-209.08 -4.48,-4.48 -7.47,-8.96 -11.95,-13.44 -59.73,-65.71 -146.35,-107.53 -243.43,-107.53l-376.34 0c-52.27,0 -95.58,-43.31 -95.58,-95.58l0 -5.97c0,-52.27 43.31,-95.58 95.58,-95.58l424.13 0c52.27,0 95.58,43.31 95.58,95.58l0 5.97 186.68 -1.49z"/>
   <polygon id="26" class="fil34" points="2858.31,5009.81 2522.29,5268.17 2186.27,5009.81 1999.59,4866.44 1999.59,5911.84 2186.27,5911.84 2186.27,5245.77 2369.96,5386.15 2522.29,5504.13 2674.62,5386.15 2858.31,5245.77 2858.31,5911.84 3044.99,5911.84 3044.99,4866.44 "/>
   <polygon id="27" class="fil34" points="4105.32,5725.16 3667.75,4866.44 3230.17,5725.16 3134.59,5911.84 3343.67,5911.84 3439.25,5725.16 3667.75,5277.13 3896.24,5725.16 3991.82,5911.84 4200.9,5911.84 "/>
   <path id="28" class="fil34" d="M4984.96 5429.46c0,0 0,0 0,0 28.37,-2.98 55.25,-10.45 80.64,-22.4 97.07,-44.8 164.28,-143.37 164.28,-256.87 0,-77.66 -31.36,-147.85 -82.14,-198.63 -50.78,-50.77 -120.97,-82.13 -198.63,-82.13l-660.09 0 0 1045.4 186.68 0 0 -480.89 186.68 0c67.2,0 125.44,35.84 158.3,89.61l4.48 8.96 100.06 195.64 95.58 186.68 209.08 0 -95.58 -186.68 -149.34 -298.69zm-509.26 -180.7l0 -192.66 473.41 0c32.86,0 55.26,14.94 67.21,26.89 10.45,10.45 28.37,34.35 28.37,68.69 0,37.34 -22.4,71.69 -56.75,86.62 -11.94,5.98 -25.38,8.96 -38.83,8.96l-473.41 1.5z"/>
   <polygon id="29" class="fil34" points="5331.43,4866.44 5331.43,5053.12 5760.05,5053.12 5760.05,5911.84 5946.72,5911.84 5946.72,5053.12 6375.34,5053.12 6375.34,4866.44 "/>
   <path id="30" class="fil34" d="M1369.37 6546.55l522.7 0 0 -186.68 -522.7 0c-288.23,0 -522.7,234.47 -522.7,522.7 0,288.23 234.47,522.7 522.7,522.7l522.7 0 0 -186.68 -522.7 0c-185.19,0 -336.02,-150.84 -336.02,-336.02 0,-185.19 150.83,-336.02 336.02,-336.02z"/>
   <path id="31" class="fil34" d="M2462.56 6359.87c-288.23,0 -522.7,234.47 -522.7,522.7 0,288.23 234.47,522.7 522.7,522.7 288.23,0 522.7,-234.47 522.7,-522.7 0,-288.23 -234.47,-522.7 -522.7,-522.7zm0 858.72c-185.19,0 -336.02,-150.84 -336.02,-336.02 0,-185.19 150.83,-336.02 336.02,-336.02 185.19,0 336.02,150.83 336.02,336.02 0,185.18 -150.83,336.02 -336.02,336.02z"/>
   <polygon id="32" class="fil34" points="3957.48,6359.87 3957.48,7024.94 3285.44,6507.47 3098.76,6364.35 3098.76,7405.27 3285.44,7405.27 3285.44,6744.68 3957.48,7262.15 4144.16,7405.27 4144.16,6361.36 "/>
   <polygon id="33" class="fil34" points="4293.5,6359.87 4293.5,6546.55 4722.12,6546.55 4722.12,7405.27 4908.79,7405.27 4908.79,6546.55 5337.41,6546.55 5337.41,6359.87 "/>
   <path id="34" class="fil34" d="M6182.69 6922.89c0,0 0,0 0,0 28.37,-2.98 55.25,-10.45 80.64,-22.4 97.07,-44.8 164.28,-143.37 164.28,-256.87 0,-77.66 -31.36,-147.85 -82.14,-198.63 -50.78,-50.77 -120.97,-82.13 -198.63,-82.13l-660.09 0 0 1045.4 186.68 0 0 -480.89 186.68 0c67.2,0 125.44,35.84 158.3,89.61l4.48 8.96 100.06 195.64 95.58 186.68 209.08 0 -95.58 -186.68 -149.34 -298.69zm-509.26 -180.7l0 -192.66 473.41 0c32.86,0 55.26,14.94 67.21,26.89 10.45,10.45 28.37,34.35 28.37,68.69 0,37.34 -22.4,71.69 -56.75,86.62 -11.94,5.98 -25.38,8.96 -38.83,8.96l-473.41 1.5z"/>
   <polygon id="35" class="fil34" points="7489.43,7218.59 7051.86,6359.87 6614.28,7218.59 6518.7,7405.27 6727.78,7405.27 6823.36,7218.59 7051.86,6770.56 7280.35,7218.59 7375.93,7405.27 7585.01,7405.27 "/>
   <path id="36" class="fil34" d="M8050.97 6546.55l522.7 0 0 -186.68 -522.7 0c-288.23,0 -522.7,234.47 -522.7,522.7 0,288.23 234.47,522.7 522.7,522.7l522.7 0 0 -186.68 -522.7 0c-185.19,0 -336.02,-150.84 -336.02,-336.02 0,-185.19 150.83,-336.02 336.02,-336.02z"/>
   <polygon id="37" class="fil34" points="8723.01,6359.87 8723.01,6546.55 9151.63,6546.55 9151.63,7405.27 9338.3,7405.27 9338.3,6546.55 9766.92,6546.55 9766.92,6359.87 "/>
  </g>
 </g>
</svg>
