<?xml version="1.0" encoding="UTF-8"?>
<!DOCTYPE svg PUBLIC "-//W3C//DTD SVG 1.1//EN" "http://www.w3.org/Graphics/SVG/1.1/DTD/svg11.dtd">
<!-- Creator: CorelDRAW 2018 (64-Bit) -->
<svg xmlns="http://www.w3.org/2000/svg" xml:space="preserve" width="254mm" height="84.6666mm" version="1.1" style="shape-rendering:geometricPrecision; text-rendering:geometricPrecision; image-rendering:optimizeQuality; fill-rule:evenodd; clip-rule:evenodd"
viewBox="0 0 25399.96 8466.66"
 xmlns:xlink="http://www.w3.org/1999/xlink">
 <defs>
  <style type="text/css">
   <![CDATA[
    .str2 {stroke:white;stroke-width:20;stroke-miterlimit:22.9256;stroke-opacity:0.901961}
    .str1 {stroke:white;stroke-width:384.9;stroke-linecap:round;stroke-linejoin:round;stroke-miterlimit:22.9256}
    .str0 {stroke:white;stroke-width:57.35;stroke-linecap:round;stroke-linejoin:round;stroke-miterlimit:22.9256}
    .fil19 {fill:none}
    .fil9 {fill:none;fill-rule:nonzero}
    .fil33 {fill:#DC7524}
    .fil0 {fill:#001501}
    .fil20 {fill:#009607}
    .fil21 {fill:#00B509}
    .fil13 {fill:#1EC01E}
    .fil22 {fill:#1EC01E}
    .fil31 {fill:#DC7524}
    .fil32 {fill:#FEEA3B}
    .fil11 {fill:white}
    .fil24 {fill:#FBDDC7;fill-rule:nonzero}
    .fil29 {fill:#F4A935;fill-rule:nonzero}
    .fil23 {fill:#F6CAAC;fill-rule:nonzero}
    .fil27 {fill:#F4C440;fill-rule:nonzero}
    .fil25 {fill:#F4CE4C;fill-rule:nonzero}
    .fil26 {fill:#F3E666;fill-rule:nonzero}
    .fil28 {fill:#F3DD4E;fill-rule:nonzero}
    .fil18 {fill:#1EC01E;fill-rule:nonzero}
    .fil10 {fill:white;fill-rule:nonzero}
    .fil30 {fill:white;fill-opacity:0.901961}
    .fil8 {fill:url(#id2)}
    .fil5 {fill:url(#id3)}
    .fil4 {fill:url(#id4)}
    .fil6 {fill:url(#id5)}
    .fil2 {fill:url(#id6)}
    .fil1 {fill:url(#id7)}
    .fil3 {fill:url(#id8)}
    .fil7 {fill:url(#id9)}
    .fil14 {fill:url(#id10)}
    .fil12 {fill:url(#id11)}
    .fil15 {fill:url(#id12)}
    .fil16 {fill:url(#id13)}
    .fil17 {fill:url(#id14)}
   ]]>
  </style>
      <mask id="id0">
  <linearGradient id="id1" gradientUnits="userSpaceOnUse" x1="4341.32" y1="1101.54" x2="4556.37" y2="1288.36">
   <stop offset="0" style="stop-opacity:1; stop-color:white"/>
   <stop offset="1" style="stop-opacity:0; stop-color:white"/>
  </linearGradient>
       <rect style="fill:url(#id1)" x="751.54" y="564.91" width="4428.21" height="1139.83"/>
      </mask>
  <linearGradient id="id2" gradientUnits="userSpaceOnUse" x1="24838.08" y1="2509.73" x2="15759" y2="6428.66">
   <stop offset="0" style="stop-opacity:1; stop-color:#1BAB1B"/>
   <stop offset="1" style="stop-opacity:1; stop-color:#001501"/>
  </linearGradient>
  <linearGradient id="id3" gradientUnits="userSpaceOnUse" xlink:href="#id2" x1="16289.54" y1="3755.19" x2="25399.96" y2="3755.19">
  </linearGradient>
  <linearGradient id="id4" gradientUnits="userSpaceOnUse" xlink:href="#id2" x1="4406.65" y1="5470.74" x2="5041.04" y2="8687.83">
  </linearGradient>
  <linearGradient id="id5" gradientUnits="userSpaceOnUse" xlink:href="#id2" x1="7013.97" y1="8469.3" x2="10409.45" y2="-2.64">
  </linearGradient>
  <linearGradient id="id6" gradientUnits="userSpaceOnUse" xlink:href="#id2" x1="10218.42" y1="2081.35" x2="8004.32" y2="8517.31">
  </linearGradient>
  <linearGradient id="id7" gradientUnits="userSpaceOnUse" xlink:href="#id2" x1="10117.77" y1="104.24" x2="3245.78" y2="8362.42">
  </linearGradient>
  <linearGradient id="id8" gradientUnits="userSpaceOnUse" xlink:href="#id2" x1="18510.21" y1="7825.33" x2="23900.31" y2="2534.07">
  </linearGradient>
  <linearGradient id="id9" gradientUnits="userSpaceOnUse" xlink:href="#id2" x1="16789.1" y1="149.33" x2="21859.54" y2="8334.19">
  </linearGradient>
  <linearGradient id="id10" gradientUnits="userSpaceOnUse" x1="1101.85" y1="1115.19" x2="1179.93" y2="1376.45">
   <stop offset="0" style="stop-opacity:1; stop-color:#1EC01E"/>
   <stop offset="0.529412" style="stop-opacity:1; stop-color:#1D6E1D"/>
   <stop offset="1" style="stop-opacity:1; stop-color:#1C1C1C"/>
  </linearGradient>
  <linearGradient id="id11" gradientUnits="userSpaceOnUse" x1="1728" y1="1158.22" x2="1809.78" y2="1381.04">
   <stop offset="0" style="stop-opacity:1; stop-color:#1EC01E"/>
   <stop offset="0.678431" style="stop-opacity:1; stop-color:#1D6E1D"/>
   <stop offset="1" style="stop-opacity:1; stop-color:#1C1C1C"/>
  </linearGradient>
  <linearGradient id="id12" gradientUnits="userSpaceOnUse" x1="1220.02" y1="1311.9" x2="1447.76" y2="1309.67">
   <stop offset="0" style="stop-opacity:1; stop-color:#1EC01E"/>
   <stop offset="0.631373" style="stop-opacity:1; stop-color:#1D6E1D"/>
   <stop offset="1" style="stop-opacity:1; stop-color:#1C1C1C"/>
  </linearGradient>
  <linearGradient id="id13" gradientUnits="userSpaceOnUse" x1="1342.09" y1="907.98" x2="1462.21" y2="619.7">
   <stop offset="0" style="stop-opacity:1; stop-color:#1EC01E"/>
   <stop offset="0.65098" style="stop-opacity:1; stop-color:#1D6E1D"/>
   <stop offset="1" style="stop-opacity:1; stop-color:#1C1C1C"/>
  </linearGradient>
  <linearGradient id="id14" gradientUnits="userSpaceOnUse" x1="1688.79" y1="888.53" x2="1849.97" y2="1139.04">
   <stop offset="0" style="stop-opacity:1; stop-color:#1EC01E"/>
   <stop offset="0.670588" style="stop-opacity:1; stop-color:#1D6E1D"/>
   <stop offset="1" style="stop-opacity:1; stop-color:#1C1C1C"/>
  </linearGradient>
 </defs>
 <g id="Layer_x0020_1">
  <metadata id="CorelCorpID_0Corel-Layer"/>
  <g id="_1830148386048">
   <g>
    <g>
     <path class="fil0" d="M-0 8043.34l0 -7620.02c0,-232.83 190.48,-423.32 423.32,-423.32l24553.31 0c232.83,0 423.33,190.49 423.33,423.32l0 7620.02c0,232.83 -190.5,423.32 -423.33,423.32l-24553.31 0c-232.84,0 -423.32,-190.49 -423.32,-423.32z"/>
     <path class="fil1" d="M423.32 8466.66l2135.4 0c4543.03,-3559.93 8144.63,-6382.15 10804.82,-8466.66l-7999.06 0c-1583.88,1241.1 -3371.98,2642.29 -5364.48,4203.59l0 3839.75c0,232.83 190.48,423.32 423.32,423.32z"/>
     <path class="fil2" d="M4144.5 8466.66l3699.26 0c2427.35,-1902.09 4505.51,-3530.53 6234.47,-4885.32 -641.45,-502.59 -1258,-985.7 -1849.63,-1449.34 -2235.84,1752.04 -4930.54,3863.59 -8084.1,6334.66z"/>
     <path class="fil3" d="M25399.94 1892.74c-1363.66,1068.59 -4160.12,3259.9 -8389.37,6573.92l7966.06 0c232.31,0 422.46,-189.65 423.31,-421.77l0 -6152.15z"/>
     <path class="fil4" d="M6.7 5691.91c-7.61,886.06 -8.72,1687.59 -3.34,2404.65 22.89,180.4 160.47,326.33 336.77,361.82l9105.23 8.28 2.3 0c-6294.01,-1849.83 -9440.96,-2774.75 -9440.96,-2774.75z"/>
     <path class="fil5" d="M16289.56 5989.14c618.35,484.59 1265.51,991.67 1941.39,1521.25 3551.37,-2782.87 5941,-4655.43 7168.99,-5617.65l0 -1470.97c-0.85,-232.12 -191,-421.77 -423.31,-421.77l-1044.01 0c-1413.59,1107.71 -3961.31,3104.09 -7643.06,5989.14z"/>
     <path class="fil6" d="M2474.07 8466.66l1670.43 0c4561.74,-3574.51 8163.35,-6396.73 10804.92,-8466.66l-1670.53 0c-2660.18,2084.51 -6261.79,4906.73 -10804.82,8466.66z"/>
     <path class="fil7" d="M24057.04 8466.51l-10812.52 -8453.66c1775.63,0 2663.44,0 2663.44,0l9492 7395.26 0 635.23c0,232.83 -190.5,423.32 -423.33,423.32l-56.9 0c-581.08,-3.57 -862.69,-0.15 -862.69,-0.15z"/>
     <path class="fil8" d="M17324.19 6799.89c-670.52,525.42 -1379.54,1081.01 -2127.07,1666.77l1813.44 0c420.98,-329.88 827.76,-648.64 1220.35,-956.27 3551.41,-2782.87 5941.09,-4655.43 7169.05,-5617.65l0 -1421.01c-1174.32,920.19 -3866.24,3029.58 -8075.77,6328.16z"/>
    </g>
    <g>
     <path class="fil9 str0" d="M1223 7178.86c-78.85,-10.75 -141.58,-73.47 -152.33,-152.33l0 -876.34 -224.01 0 0 854.84c0,62.72 14.33,121.86 41.21,175.62 37.64,78.86 102.16,143.37 181.01,182.8 53.76,26.88 112.9,41.22 175.63,41.22l636.2 0 0 -224.02 -657.71 -1.79z"/>
    </g>
    <g>
     <path id="1" class="fil9 str0" d="M2398.64 6374.2l915.77 0 0 -224.01 -915.77 0c-186.38,0 -336.92,152.33 -336.92,338.71l0 577.06c0,186.38 150.54,338.71 336.92,338.71l915.77 0 0 -224.02 -915.77 0c-62.73,0 -114.7,-51.97 -114.7,-114.69l0 -236.56 806.46 0 0 -224.02 -806.46 0 0 -116.48c0,-62.73 51.97,-114.7 114.7,-114.7z"/>
    </g>
    <g>
     <polygon id="2" class="fil9 str0" points="4524.1,6150.19 4524.1,6948.28 3717.64,6327.31 3493.63,6155.56 3493.63,7404.67 3717.64,7404.67 3717.64,6611.96 4524.1,7232.93 4748.11,7404.67 4748.11,6151.98 "/>
    </g>
    <g>
     <path id="3" class="fil9 str0" d="M4927.33 6150.19l0 1254.48 627.24 0c172.04,0 327.96,-69.89 440.86,-184.59 12.54,-12.54 25.09,-25.09 35.84,-37.63 93.19,-109.32 148.75,-250.9 148.75,-405.02 0,-347.67 -281.36,-627.24 -627.24,-627.24l-625.45 0zm222.22 224.01l403.23 0c222.22,0 403.22,181.3 403.22,404.12 0,222.82 -181,404.13 -403.22,404.13l-403.23 0 0 -808.25z"/>
    </g>
    <g>
     <polygon id="4" class="fil9 str0" points="6585.04,7404.67 6585.04,6150.19 6361.03,6150.19 6361.03,7404.67 "/>
    </g>
    <g>
     <polygon id="5" class="fil9 str0" points="7794.73,6150.19 7794.73,6948.28 6988.27,6327.31 6764.26,6155.56 6764.26,7404.67 6988.27,7404.67 6988.27,6611.96 7794.73,7232.93 8018.74,7404.67 8018.74,6151.98 "/>
    </g>
    <g>
     <path id="6" class="fil9 str0" d="M8825.2 6374.2l627.24 0 0 -224.01 -627.24 0c-345.88,0 -627.24,281.36 -627.24,627.24 0,345.88 281.36,627.24 627.24,627.24l627.24 0 0 -688.17 -627.24 0 0 224.01 403.23 0 0 240.14 -403.23 0c-222.22,0 -403.23,-181 -403.23,-403.22 0,-222.22 181.01,-403.23 403.23,-403.23z"/>
    </g>
    <path id="7" class="fil10" d="M1223 7178.86c-78.85,-10.75 -141.58,-73.47 -152.33,-152.33l0 -876.34 -224.01 0 0 854.84c0,62.72 14.33,121.86 41.21,175.62 37.64,78.86 102.16,143.37 181.01,182.8 53.76,26.88 112.9,41.22 175.63,41.22l636.2 0 0 -224.02 -657.71 -1.79z"/>
    <path id="8" class="fil10" d="M2398.64 6374.2l915.77 0 0 -224.01 -915.77 0c-186.38,0 -336.92,152.33 -336.92,338.71l0 577.06c0,186.38 150.54,338.71 336.92,338.71l915.77 0 0 -224.02 -915.77 0c-62.73,0 -114.7,-51.97 -114.7,-114.69l0 -236.56 806.46 0 0 -224.02 -806.46 0 0 -116.48c0,-62.73 51.97,-114.7 114.7,-114.7z"/>
    <polygon id="9" class="fil10" points="4524.1,6150.19 4524.1,6948.28 3717.64,6327.31 3493.63,6155.56 3493.63,7404.67 3717.64,7404.67 3717.64,6611.96 4524.1,7232.93 4748.11,7404.67 4748.11,6151.98 "/>
    <path id="10" class="fil10" d="M4927.33 6150.19l0 1254.48 627.24 0c172.04,0 327.96,-69.89 440.86,-184.59 12.54,-12.54 25.09,-25.09 35.84,-37.63 93.19,-109.32 148.75,-250.9 148.75,-405.02 0,-347.67 -281.36,-627.24 -627.24,-627.24l-625.45 0zm222.22 224.01l403.23 0c222.22,0 403.22,181.3 403.22,404.12 0,222.82 -181,404.13 -403.22,404.13l-403.23 0 0 -808.25z"/>
    <polygon id="11" class="fil10" points="6585.04,7404.67 6585.04,6150.19 6361.03,6150.19 6361.03,7404.67 "/>
    <polygon id="12" class="fil10" points="7794.73,6150.19 7794.73,6948.28 6988.27,6327.31 6764.26,6155.56 6764.26,7404.67 6988.27,7404.67 6988.27,6611.96 7794.73,7232.93 8018.74,7404.67 8018.74,6151.98 "/>
    <path id="13" class="fil10" d="M8825.2 6374.2l627.24 0 0 -224.01 -627.24 0c-345.88,0 -627.24,281.36 -627.24,627.24 0,345.88 281.36,627.24 627.24,627.24l627.24 0 0 -688.17 -627.24 0 0 224.01 403.23 0 0 240.14 -403.23 0c-222.22,0 -403.23,-181 -403.23,-403.22 0,-222.22 181.01,-403.23 403.23,-403.23z"/>
    <g>
     <polygon class="fil11" style="mask:url(#id0)" points="761.54,574.91 2483.68,574.91 2503.68,574.91 5169.75,574.91 4206.98,1694.74 2503.68,1694.74 2483.68,1694.74 761.54,1694.74 "/>
     <g>
      <g>
       <path class="fil12" d="M1816.6 1188.37l0.01 -276.54c0,0 -49.27,28.36 -146.58,84.38l-0.39 277 146.96 -84.84z"/>
       <polygon class="fil13" points="1816.61,1357.83 1816.6,1188.37 1283.59,1496.08 1430.37,1580.82 "/>
       <polygon class="fil14" points="1190.71,1166.55 1190.71,827.2 1044.12,911.83 1044.13,1250.98 "/>
       <path class="fil15" d="M1190.44 1442.3l94.14 -54.35 -0.58 -168.63 -239.88 138.5c16.01,9.22 66.44,38.37 146.32,84.48z"/>
       <path class="fil16" d="M1283.9 1388.34c-0.03,-262.07 -0.05,-614.92 -0.05,-614.92 97.58,56.3 146.37,84.45 146.37,84.45 0,149.45 0,445.45 0,445.45 -97.55,56.32 -146.32,85.02 -146.32,85.02z"/>
       <path class="fil17" d="M1283.85 773.42c257.45,148.53 386.18,222.79 386.18,222.79 97.31,-56.02 146.58,-84.38 146.58,-84.38 -257.08,-148.9 -386.24,-223 -386.24,-223 -97.68,56.4 -146.52,84.59 -146.52,84.59z"/>
      </g>
      <g>
       <path class="fil18" d="M2108.04 1116.19c-18.64,-2.54 -33.47,-17.37 -36.02,-36.02l0 -207.21 -52.96 0 0 202.13c0,14.83 3.39,28.81 9.74,41.52 8.9,18.65 24.16,33.9 42.8,43.22 12.71,6.36 26.7,9.75 41.53,9.75l150.42 0 0 -52.97 -155.51 -0.42z"/>
       <polygon id="1" class="fil18" points="2358.89,1169.58 2358.89,872.96 2305.93,872.96 2305.93,1169.58 "/>
       <polygon id="2" class="fil18" points="2401.27,872.96 2401.27,925.93 2522.88,925.93 2522.88,1169.58 2575.85,1169.58 2575.85,925.93 2697.46,925.93 2697.46,872.96 "/>
       <path id="3" class="fil18" d="M2820.34 925.93l216.55 0 0 -52.97 -216.55 0c-44.07,0 -79.66,36.02 -79.66,80.09l0 136.44c0,44.07 35.59,80.09 79.66,80.09l216.55 0 0 -52.97 -216.55 0c-14.83,0 -27.12,-12.29 -27.12,-27.12l0 -55.93 190.7 0 0 -52.97 -190.7 0 0 -27.54c0,-14.83 12.29,-27.12 27.12,-27.12z"/>
       <path id="4" class="fil18" d="M3079.26 872.96l0 296.62 148.31 0c40.68,0 77.54,-16.53 104.24,-43.65 2.96,-2.96 5.93,-5.93 8.47,-8.89 22.04,-25.85 35.17,-59.33 35.17,-95.77 0,-82.2 -66.53,-148.31 -148.31,-148.31l-147.88 0zm52.54 52.97l95.34 0c52.55,0 95.34,42.87 95.34,95.55 0,52.69 -42.79,95.56 -95.34,95.56l-95.34 0 0 -191.11z"/>
       <path id="5" class="fil18" d="M3498.33 925.93l216.54 0 0 -52.97 -216.54 0c-44.07,0 -79.66,36.02 -79.66,80.09l0 136.44c0,44.07 35.59,80.09 79.66,80.09l216.54 0 0 -52.97 -216.54 0c-14.83,0 -27.12,-12.29 -27.12,-27.12l0 -55.93 190.69 0 0 -52.97 -190.69 0 0 -27.54c0,-14.83 12.29,-27.12 27.12,-27.12z"/>
       <path id="6" class="fil18" d="M3746.64 1170.85l0.85 -0.85 -0.85 0 0 0.85zm296.63 -0.85l-0.42 0 0.42 0.85 0 -0.85zm0 -297.04l-66.53 0 -81.36 105.65 -81.36 -105.65 -66.95 0 114.83 148.95 -113.99 148.09 66.96 0 80.93 -104.8 80.94 104.8 66.96 0 -114.41 -148.09 114.83 -148.95 -0.85 0z"/>
       <path class="fil18" d="M2227.52 1396.71c-2.76,0 -4.93,-0.74 -6.52,-2.23 -1.59,-1.48 -2.38,-3.54 -2.38,-6.19l0 -82.3c0,-6.89 2.01,-12.29 6.04,-16.21 4.02,-3.92 9.63,-5.88 16.84,-5.88l27.01 0c15.67,0 27.56,3.29 35.67,9.85 8.1,6.57 12.15,16.26 12.15,29.08 0,12.6 -4,22.16 -12,28.68 -7.99,6.51 -19.67,9.77 -35.03,9.77l-32.57 0 0 27.01c0,2.54 -0.85,4.58 -2.54,6.12 -1.7,1.53 -3.92,2.3 -6.67,2.3zm41.62 -49.73c19.28,0 28.92,-8.05 28.92,-24.15 0,-8.47 -2.41,-14.72 -7.23,-18.75 -4.82,-4.02 -12,-6.04 -21.53,-6.04l-25.26 0c-2.33,0 -4.13,0.75 -5.4,2.23 -1.27,1.48 -1.91,3.49 -1.91,6.04l0 40.67 32.41 0z"/>
       <path id="1" class="fil18" d="M2434.75 1306.15c0,-6.89 2.01,-12.32 6.04,-16.29 4.02,-3.97 9.69,-5.96 17,-5.96l28.75 0c15.36,0 26.93,3.08 34.72,9.22 7.78,6.14 11.68,15.2 11.68,27.17 0,11.33 -3.45,20.12 -10.33,26.37 -6.88,6.25 -16.42,9.38 -28.6,9.38l26.38 26.69c1.69,1.69 2.54,3.55 2.54,5.56 0,2.22 -1.06,4.23 -3.18,6.04 -2.01,1.48 -3.97,2.22 -5.88,2.22 -2.65,0 -5.19,-1.27 -7.62,-3.81l-34.96 -36.23 -17.95 0 0 31.62c0,2.65 -0.88,4.74 -2.62,6.28 -1.75,1.53 -4,2.3 -6.76,2.3 -2.86,0 -5.11,-0.77 -6.75,-2.3 -1.64,-1.54 -2.46,-3.63 -2.46,-6.28l0 -81.98zm51.64 35.75c10.16,0 17.34,-1.62 21.52,-4.85 4.19,-3.23 6.28,-8.82 6.28,-16.76 0,-7.73 -2.28,-13.3 -6.83,-16.68 -4.56,-3.39 -11.55,-5.09 -20.97,-5.09l-25.9 0c-2.23,0 -3.97,0.72 -5.25,2.15 -1.27,1.43 -1.9,3.41 -1.9,5.95l0 35.28 33.05 0z"/>
       <path id="2" class="fil18" d="M2703.32 1396.71c-11.75,0 -22.05,-2.38 -30.91,-7.15 -8.84,-4.77 -15.65,-11.49 -20.42,-20.18 -4.76,-8.68 -7.14,-18.64 -7.14,-29.87 0,-11.23 2.38,-21.18 7.14,-29.87 4.77,-8.68 11.58,-15.41 20.42,-20.18 8.86,-4.76 19.16,-7.14 30.91,-7.14 11.76,0 22.06,2.38 30.91,7.14 8.84,4.77 15.64,11.5 20.41,20.18 4.77,8.69 7.15,18.64 7.15,29.87 0,11.23 -2.38,21.19 -7.15,29.87 -4.77,8.69 -11.57,15.41 -20.41,20.18 -8.85,4.77 -19.15,7.15 -30.91,7.15zm0 -14.46c12.4,0 22.19,-3.81 29.4,-11.44 7.2,-7.62 10.8,-18.06 10.8,-31.3 0,-13.34 -3.68,-23.8 -11.04,-31.38 -7.36,-7.57 -17.4,-11.36 -30.11,-11.36 -8.05,0 -15.04,1.75 -20.97,5.25 -5.94,3.49 -10.5,8.47 -13.68,14.93 -3.17,6.46 -4.76,13.98 -4.76,22.56 0,8.79 1.64,16.39 4.92,22.8 3.29,6.41 7.95,11.33 13.99,14.78 6.04,3.44 13.19,5.16 21.45,5.16z"/>
       <path id="3" class="fil18" d="M2915.01 1396.71c-2.75,0 -4.95,-0.74 -6.59,-2.23 -1.65,-1.48 -2.47,-3.54 -2.47,-6.19l0 -90.25 -32.57 0c-2.75,0 -4.87,-0.6 -6.35,-1.82 -1.48,-1.22 -2.23,-2.94 -2.23,-5.17 0,-2.33 0.75,-4.1 2.23,-5.32 1.48,-1.22 3.6,-1.83 6.35,-1.83l83.26 0c2.75,0 4.9,0.61 6.43,1.83 1.54,1.22 2.31,2.99 2.31,5.32 0,2.23 -0.77,3.95 -2.31,5.17 -1.53,1.22 -3.68,1.82 -6.43,1.82l-32.57 0 0 90.25c0,2.54 -0.82,4.58 -2.47,6.12 -1.64,1.53 -3.84,2.3 -6.59,2.3z"/>
       <path id="4" class="fil18" d="M3126.85 1396.71c-11.75,0 -22.05,-2.38 -30.9,-7.15 -8.84,-4.77 -15.65,-11.49 -20.42,-20.18 -4.76,-8.68 -7.14,-18.64 -7.14,-29.87 0,-11.23 2.38,-21.18 7.14,-29.87 4.77,-8.68 11.58,-15.41 20.42,-20.18 8.85,-4.76 19.15,-7.14 30.9,-7.14 11.76,0 22.06,2.38 30.91,7.14 8.84,4.77 15.64,11.5 20.41,20.18 4.77,8.69 7.15,18.64 7.15,29.87 0,11.23 -2.38,21.19 -7.15,29.87 -4.77,8.69 -11.57,15.41 -20.41,20.18 -8.85,4.77 -19.15,7.15 -30.91,7.15zm0 -14.46c12.4,0 22.19,-3.81 29.4,-11.44 7.2,-7.62 10.8,-18.06 10.8,-31.3 0,-13.34 -3.68,-23.8 -11.04,-31.38 -7.36,-7.57 -17.4,-11.36 -30.11,-11.36 -8.05,0 -15.04,1.75 -20.97,5.25 -5.93,3.49 -10.49,8.47 -13.67,14.93 -3.17,6.46 -4.76,13.98 -4.76,22.56 0,8.79 1.64,16.39 4.92,22.8 3.29,6.41 7.95,11.33 13.98,14.78 6.04,3.44 13.19,5.16 21.45,5.16z"/>
       <path id="5" class="fil18" d="M3358.56 1396.71c-11.65,0 -21.79,-2.3 -30.42,-6.91 -8.64,-4.61 -15.26,-11.2 -19.86,-19.78 -4.61,-8.58 -6.91,-18.7 -6.91,-30.35 0,-11.65 2.3,-21.79 6.91,-30.42 4.6,-8.64 11.2,-15.28 19.78,-19.94 8.58,-4.66 18.69,-6.99 30.34,-6.99 9.54,0 18.38,1.64 26.54,4.92 8.15,3.28 14.3,7.73 18.43,13.35 1.16,1.69 1.74,3.23 1.74,4.6 0,2.33 -1.21,4.4 -3.65,6.2 -1.38,0.85 -2.81,1.27 -4.29,1.27 -1.38,0 -2.73,-0.32 -4.05,-0.95 -1.33,-0.64 -2.46,-1.48 -3.42,-2.54 -3.49,-4.24 -7.81,-7.37 -12.95,-9.38 -5.13,-2.01 -11.25,-3.02 -18.35,-3.02 -12.18,0 -21.68,3.79 -28.52,11.36 -6.83,7.58 -10.24,18.09 -10.24,31.54 0,13.24 3.44,23.65 10.32,31.22 6.89,7.57 16.42,11.36 28.6,11.36 14.41,0 25.48,-4.13 33.21,-12.39 2.54,-2.54 5.13,-3.82 7.78,-3.82 1.7,0 3.23,0.53 4.61,1.59 2.12,1.8 3.18,3.76 3.18,5.88 0,1.8 -0.64,3.5 -1.91,5.09 -4.55,5.61 -10.96,10.03 -19.22,13.26 -8.26,3.23 -17.48,4.85 -27.65,4.85z"/>
       <path id="6" class="fil18" d="M3581.84 1396.71c-11.75,0 -22.05,-2.38 -30.9,-7.15 -8.84,-4.77 -15.65,-11.49 -20.42,-20.18 -4.76,-8.68 -7.14,-18.64 -7.14,-29.87 0,-11.23 2.38,-21.18 7.14,-29.87 4.77,-8.68 11.58,-15.41 20.42,-20.18 8.85,-4.76 19.15,-7.14 30.9,-7.14 11.76,0 22.06,2.38 30.91,7.14 8.84,4.77 15.64,11.5 20.41,20.18 4.77,8.69 7.15,18.64 7.15,29.87 0,11.23 -2.38,21.19 -7.15,29.87 -4.77,8.69 -11.57,15.41 -20.41,20.18 -8.85,4.77 -19.15,7.15 -30.91,7.15zm0 -14.46c12.4,0 22.19,-3.81 29.4,-11.44 7.2,-7.62 10.8,-18.06 10.8,-31.3 0,-13.34 -3.68,-23.8 -11.04,-31.38 -7.36,-7.57 -17.4,-11.36 -30.11,-11.36 -8.05,0 -15.04,1.75 -20.97,5.25 -5.93,3.49 -10.49,8.47 -13.67,14.93 -3.17,6.46 -4.76,13.98 -4.76,22.56 0,8.79 1.64,16.39 4.92,22.8 3.29,6.41 7.95,11.33 13.98,14.78 6.04,3.44 13.19,5.16 21.45,5.16z"/>
       <path id="7" class="fil18" d="M3782.58 1395.12c-7.41,0 -13.21,-1.99 -17.4,-5.96 -4.18,-3.97 -6.27,-9.5 -6.27,-16.6l0 -81.82c0,-2.65 0.79,-4.72 2.38,-6.2 1.59,-1.48 3.76,-2.22 6.51,-2.22 2.76,0 4.96,0.76 6.6,2.3 1.64,1.53 2.46,3.57 2.46,6.12l0 81.98c0,2.54 0.66,4.55 1.99,6.04 1.32,1.48 3.15,2.22 5.48,2.22l51.48 0c5.71,0 8.57,2.38 8.57,7.15 0,2.22 -0.74,3.94 -2.22,5.16 -1.48,1.22 -3.6,1.83 -6.35,1.83l-53.23 0z"/>
      </g>
     </g>
    </g>
   </g>
   <g>
    <g>
     <path class="fil19 str1" d="M23568.22 5766.9c30.23,74.91 46.06,152.2 46.06,231.2 0,688.57 -1201.38,1246.74 -2683.33,1246.74 -1481.97,0 -2683.34,-558.17 -2683.34,-1246.74 0,-78.98 15.83,-156.24 46.06,-231.14 -1.35,-9.8 -2.53,-19.62 -3.44,-29.47 31.61,-376.21 322.93,-715.05 777.51,-963.62 -5.19,-9.41 -9.76,-18.91 -13.76,-28.47 -13.11,-30.83 -19.99,-62.26 -20.92,-93.69l-0.35 0 0 -186.28 0.18 0c1.18,-32.11 8.67,-64.13 22.47,-95.4 -90.32,26.24 -192.19,50.93 -271.2,0.66 -52.59,-33.48 -96.66,-98.49 -72.28,-155.84 9.04,-21.1 25.99,-37.65 43.34,-52.73 77.86,-67.54 168.53,-114.12 264.26,-152.16 2.42,-0.94 4.84,-1.87 7.24,-2.89 82.67,-32.33 168.95,-58.49 254.05,-86.38 33.66,-38.01 78.01,-73.65 133.07,-105.44 119,-68.71 269.13,-108.53 424.51,-119.58 28.7,-10.78 57.68,-20.82 87.04,-29.5l11.35 -2282.11c0.54,-109.37 86.64,-180.52 191.35,-158.11l1978.12 423.39c104.7,22.41 189.91,130.23 189.37,239.61l-13.26 2666.36c740.47,242.84 1247.07,679.12 1289.34,1182.18 -0.9,9.83 -2.1,19.63 -3.44,29.41z"/>
     <path id="1" class="fil11" d="M23568.22 5766.9c30.23,74.91 46.06,152.2 46.06,231.2 0,688.57 -1201.38,1246.74 -2683.33,1246.74 -1481.97,0 -2683.34,-558.17 -2683.34,-1246.74 0,-78.98 15.83,-156.24 46.06,-231.14 -1.35,-9.8 -2.53,-19.62 -3.44,-29.47 31.61,-376.21 322.93,-715.05 777.51,-963.62 -5.19,-9.41 -9.76,-18.91 -13.76,-28.47 -13.11,-30.83 -19.99,-62.26 -20.92,-93.69l-0.35 0 0 -186.28 0.18 0c1.18,-32.11 8.67,-64.13 22.47,-95.4 -90.32,26.24 -192.19,50.93 -271.2,0.66 -52.59,-33.48 -96.66,-98.49 -72.28,-155.84 9.04,-21.1 25.99,-37.65 43.34,-52.73 77.86,-67.54 168.53,-114.12 264.26,-152.16 2.42,-0.94 4.84,-1.87 7.24,-2.89 82.67,-32.33 168.95,-58.49 254.05,-86.38 33.66,-38.01 78.01,-73.65 133.07,-105.44 119,-68.71 269.13,-108.53 424.51,-119.58 28.7,-10.78 57.68,-20.82 87.04,-29.5l11.35 -2282.11c0.54,-109.37 86.64,-180.52 191.35,-158.11l1978.12 423.39c104.7,22.41 189.91,130.23 189.37,239.61l-13.26 2666.36c740.47,242.84 1247.07,679.12 1289.34,1182.18 -0.9,9.83 -2.1,19.63 -3.44,29.41z"/>
    </g>
    <g>
     <g>
      <ellipse class="fil20" cx="20930.94" cy="5998.1" rx="2683.33" ry="1246.74"/>
      <path class="fil21" d="M20930.95 4351.04c1418.47,0 2575.87,614.73 2640.71,1386.44 -64.84,702.49 -1222.25,1262.09 -2640.71,1262.09 -1418.47,0 -2575.88,-559.6 -2640.72,-1262.09 64.84,-771.71 1222.24,-1386.44 2640.72,-1386.44z"/>
     </g>
     <g>
      <rect class="fil20" transform="matrix(0.764423 0.163617 -0.00382964 0.77 19937.7 1185.21)" width="3085.76" height="5997.68" rx="249.02" ry="249.02"/>
      <rect class="fil11" transform="matrix(0.674734 0.14442 0.00135256 0.718487 20045.5 1356.29)" width="3085.76" height="5997.68" rx="249.02" ry="249.02"/>
      <rect class="fil20" transform="matrix(0.741114 0.158628 0.0685582 0.562485 20726.1 1607.43)" width="845.53" height="175.48" rx="87.74" ry="87.74"/>
      <circle class="fil20" transform="matrix(0.741114 0.158628 0.0927499 0.760966 21513.4 1824.02)" r="70.91"/>
      <path class="fil22" d="M20334.49 2958.43c50.77,751.93 305.41,1274.22 763.94,1566.87 11.19,7.37 16.71,10.75 24.67,12.92l23.05 0.09c458.53,-42.71 713.17,-426.19 763.94,-1150.46l0 -175.69 0 -1.82c-199.09,-99.09 -457.04,-231.63 -773.86,-397.57 -19.57,-10.83 -7.98,-7.15 -27.88,-7.6 -316.82,-6.75 -574.77,-14.83 -773.86,-24.26l0 1.82 0 175.7z"/>
     </g>
     <g>
      <g>
       <path class="fil23" d="M21528.89 3889.87c-2.62,36.12 -21.18,69.18 -50.03,91.07 -135.28,102.64 -169.34,131.03 -308.92,229.82 -48.03,34.04 -92.6,64.85 -130.85,90.59 -71.83,48.25 -121.74,78.26 -132.27,76.64 -54.73,-8.37 -104.6,-101.57 -141.85,-142.57 -106.25,-117.06 -239.05,-206.24 -370.46,-294.21 -30.2,-20.22 -60.47,-40.51 -91.74,-58.99 -39.38,-23.27 -63.6,-65.56 -63.18,-111.32 0.54,-57.47 39.26,-108.24 95.04,-122.15 47.3,-11.8 93.43,-38.62 134.93,-65.54 52,-33.71 324.11,-255.76 427.29,-272 50.89,-8.01 103.85,-3.02 154.1,9.23 45.97,11.26 88.64,34.18 128.77,58.92 149.35,91.84 300.24,241.93 341.93,417.67 7.31,31.07 9.49,62.04 7.24,92.84z"/>
       <path class="fil23" d="M21169.94 4210.76c-48.03,34.04 -13.81,5.82 -52.08,31.56 33.04,-109.42 34.09,-148.65 -28.37,-260.23 -40.8,-72.76 -122.42,-132.07 -179.19,-198.61 35.59,18.3 69.49,60.36 100.37,86.84 52,44.35 87.71,94.53 123.75,152.97 36.93,59.9 41.82,118.12 35.52,187.47z"/>
       <path class="fil24" d="M21049.08 4445.61c-5.84,16.41 -12.14,32.83 -18.77,49.04 -16.55,40.74 -35.04,80.67 -53.4,119.54 -28.42,59.95 -56.95,120.19 -94.73,174.67 -3.57,5.09 -7.13,10.05 -10.8,15.02 -8.46,11.45 -17.37,22.5 -26.66,33.29 -48.93,57.02 -108.49,104.92 -174.89,140.24 -73.71,39.12 -664.73,426.94 -776.63,475.59 -135.47,58.82 -240.53,-56.89 -233.3,-75.51l-0.34 0.25c-25.12,21.19 -48.51,40.28 -70.54,57.82 -117.67,93.42 -196.53,140.11 -299.24,192.18 -154.31,78.33 -286.98,-5.36 -252.88,-59.9l-0.67 0.66 -0.07 0.13c-12.99,13.81 -31.09,27.95 -52.59,40.42 -69.68,40.66 -175.08,64.65 -257.36,9.18 -66.46,-44.84 31.16,-217.76 88.59,-273.72 -20.11,5.83 -39.73,13.34 -59.43,20.57 -25.33,9.32 -50.67,18.16 -77.26,22.32 -47.25,7.36 -102.24,-4.36 -127.91,-44.69 -41.21,-64.74 16.21,-145.61 70.02,-200.34 9.85,-9.99 82.95,-60.98 186.67,-135.56 5.22,-3.75 10.45,-7.56 15.81,-11.37 100.23,-72.31 226.01,-164.64 350.16,-262.59 11.66,-9.18 23.24,-18.43 34.84,-27.68 132.26,-105.8 259.77,-216.55 349.3,-314.57 1.8,-2.01 3.66,-4.1 5.48,-6.11 23.31,-25.85 43.88,-50.78 61.1,-74.42 11.86,-16.23 22.04,-31.77 30.48,-46.71 18.29,-32.04 28.34,-60.91 28.34,-85.57 0,-3.41 -5.61,-4.34 -15.81,-3.28 -16.4,1.74 -44.62,8.72 -80.32,19.09 -151.9,44.04 -438.95,149.57 -526.32,175.09 -91.45,26.72 -195.44,53.13 -275.78,2 -52.61,-33.48 -96.68,-98.5 -72.29,-155.84 9.04,-21.1 25.99,-37.65 43.34,-52.74 77.86,-67.53 168.52,-114.1 264.26,-152.15 2.42,-0.94 4.83,-1.87 7.24,-2.9 115.98,-45.35 239.06,-78.58 355.99,-121.41 143.79,-52.65 281.21,-121.46 423.65,-177.67 63.87,-25.14 129,-47.85 196.33,-60.91 110.09,-21.25 224.85,-14.69 332.53,16.34 114.91,24.59 238.4,60.99 315.38,97.42 175.81,83.22 369.72,186.88 424.13,373.61 29.95,102.65 10.78,208.58 -25.65,311.17z"/>
       <path class="fil23" d="M19102.91 4308.99c-20.44,-48.72 -24.8,-238.39 -83.43,-299.03 2.42,-0.94 4.83,-1.87 7.24,-2.9 75.77,49.39 167.31,199.07 76.19,301.93z"/>
       <path class="fil23" d="M19681.68 4627.31c-12.81,43.43 -85.63,91.54 -121.68,121.88 -63.51,53.61 -132.61,99.58 -198.4,150.29 -128.78,99.18 -244.97,213.94 -375.15,311.03 -61.57,45.83 -114.84,82.02 -171.65,134 -20.11,5.83 -39.73,13.34 -59.43,20.57 81.87,-91.19 206.29,-156.85 297.22,-235.11 145.86,-125.42 316.32,-232.69 453,-367.97 48.17,-47.71 107.47,-125.97 176.09,-134.69z"/>
       <path class="fil23" d="M19847.67 4516.67c172,0 336.22,-0.73 500.65,-54.33 187.15,-61.02 371.38,-172.21 573.35,-172.78 -173.13,1.74 -351.66,125.58 -509.07,185.2 -109.09,41.35 -217.3,60.51 -333.04,76.66 -46.68,6.52 -97.4,3.73 -148.32,0.93 -67.62,-3.71 -135.56,-7.41 -194.8,10.67l111.23 -46.35z"/>
       <path class="fil23" d="M21049.08 4445.61c-5.84,16.41 -12.14,32.83 -18.77,49.04 -9.57,-10.18 -19.56,-19.96 -27.54,-28.6 -28.27,-30.83 -66.32,-52.47 -92,-85.04 46.44,-21.31 110.36,32.09 138.31,64.6z"/>
      </g>
      <g>
       <path class="fil25" d="M20010.48 4237.04l0 923.05c-10.11,0.61 -20.2,1.11 -30.3,1.47 -7.18,0.24 -14.47,0.36 -21.64,0.49 -21.3,0.36 -42.47,0.24 -63.75,-0.49 -7.18,-0.12 -14.47,-0.36 -21.77,-0.73 -21.29,-0.97 -42.58,-2.43 -63.75,-4.62 -7.3,-0.61 -14.47,-1.34 -21.65,-2.08 -21.41,-2.42 -42.69,-5.35 -63.74,-8.98 -7.3,-1.11 -14.49,-2.33 -21.65,-3.66 -21.54,-4.02 -42.83,-8.51 -63.76,-13.63 -7.29,-1.69 -14.59,-3.52 -21.76,-5.46 -21.66,-5.73 -42.83,-11.93 -63.63,-18.87 -7.29,-2.43 -14.6,-4.87 -21.78,-7.53 -14.35,-5.12 -28.34,-10.47 -42.2,-16.18l0 -766.26c13.86,-5.6 27.85,-10.95 42.2,-15.94 7.18,-2.55 14.49,-4.99 21.78,-7.29 20.8,-6.83 41.97,-13.02 63.63,-18.48 7.17,-1.85 14.47,-3.67 21.76,-5.37 20.93,-4.87 42.22,-9.23 63.76,-13.02 7.16,-1.33 14.35,-2.55 21.65,-3.65 21.05,-3.41 42.33,-6.21 63.74,-8.38 7.18,-0.74 14.49,-1.46 21.65,-2.07 21.17,-1.96 42.46,-3.3 63.75,-4.02 7.3,-0.36 14.48,-0.61 21.77,-0.74 21.28,-0.47 42.45,-0.47 63.75,0.13 7.17,0.12 14.46,0.38 21.64,0.72 10.1,0.37 20.19,0.99 30.3,1.59z"/>
       <path class="fil26" d="M20691.45 4533.01l0 194.02 -0.11 0c-0.25,38.94 -9.5,77.98 -27.62,115.82 -6.19,12.89 -13.38,25.78 -21.78,38.43 -16.9,25.68 -38.18,50.62 -63.73,74.45 -6.83,6.44 -14.12,12.77 -21.66,19.1 -19.22,15.81 -40.39,31.27 -63.75,45.86 -7.05,4.5 -14.33,8.88 -21.77,13.14l-0.97 0.61c-20.08,11.55 -40.98,22.37 -62.64,32.23 -7.18,3.54 -14.49,6.69 -21.78,9.74 -20.69,9 -41.97,17.15 -63.75,24.58 -7.04,2.54 -14.35,4.85 -21.66,7.17 -20.79,6.7 -42.08,12.66 -63.73,18.01 -7.17,1.81 -14.35,3.64 -21.66,5.1 -20.92,4.97 -42.2,9.25 -63.74,12.77 -7.18,1.33 -14.47,2.57 -21.77,3.54 -21.04,3.27 -42.33,5.96 -63.74,8.15 -7.18,0.72 -14.35,1.45 -21.66,1.94 -11.08,0.97 -22.26,1.83 -33.45,2.42l0 -923.05c11.19,0.72 22.37,1.58 33.45,2.68 7.19,0.59 14.48,1.33 21.66,2.07 21.41,2.31 42.7,5.1 63.74,8.51 7.3,1.22 14.59,2.42 21.77,3.77 21.54,3.77 42.82,8.15 63.74,13.15 7.31,1.7 14.49,3.41 21.66,5.34 21.65,5.47 42.94,11.68 63.73,18.49 7.31,2.31 14.49,4.74 21.66,7.3 21.78,7.54 43.06,15.93 63.75,25.06 7.29,3.05 14.6,6.32 21.78,9.85 20.42,9.38 40.25,19.71 59.23,30.66 1.47,0.84 2.93,1.71 4.38,2.55 7.44,4.38 14.72,8.89 21.77,13.39 23.36,14.84 44.64,30.41 63.75,46.59 7.67,6.21 14.83,12.66 21.66,19.09 25.66,24.21 46.83,49.26 63.73,75.06 2.82,4.13 5.37,8.28 7.79,12.41l41.72 0z"/>
       <path class="fil27" d="M19489.1 4313.56l0 766.26c-7.18,-3.04 -14.37,-6.09 -21.53,-9.37 -3.41,-1.46 -6.81,-2.93 -10.22,-4.49 -3.9,-1.84 -7.67,-3.54 -11.44,-5.48 -18.37,-8.66 -36.24,-18.01 -53.51,-27.98 -3.42,-1.96 -6.83,-4.02 -10.22,-6.09 -7.42,-4.38 -14.73,-8.87 -21.79,-13.63 -23.36,-15.08 -44.51,-31.01 -63.62,-47.42 -7.65,-6.6 -14.84,-13.28 -21.77,-19.97 -25.91,-25.18 -47.21,-51.45 -63.75,-78.57 -8.51,-13.88 -15.68,-27.98 -21.64,-42.22 -13.64,-32.11 -20.81,-64.85 -21.78,-97.57l-0.36 0 0 -194.02 38.79 0c1.58,-2.8 3.16,-5.47 4.99,-8.28 16.43,-27.01 37.71,-53.28 63.75,-78.34 6.93,-6.81 14.12,-13.37 21.77,-19.81 18.98,-16.31 40.26,-32.13 63.62,-47.09 7.06,-4.62 14.37,-9.12 21.79,-13.38 2.3,-1.46 4.48,-2.8 6.8,-4.13 18.25,-10.47 37.34,-20.33 56.93,-29.45 3.77,-1.82 7.67,-3.65 11.44,-5.35 3.41,-1.58 6.81,-3.04 10.22,-4.51 7.05,-3.14 14.22,-6.2 21.53,-9.11z"/>
       <path class="fil28" d="M20470 4857.18c-296.64,171.28 -779.12,170.41 -1077.64,-1.96 -298.52,-172.33 -300.02,-450.88 -3.38,-622.16 296.66,-171.29 779.14,-170.4 1077.64,1.95 298.51,172.33 300.02,450.9 3.38,622.17z"/>
       <path class="fil29" d="M20636.21 4547.79c0,96.64 -68.76,189.26 -193.89,261.43 -134.42,77.72 -314.98,120.47 -507.96,120.47 -194.82,0 -377.55,-43.36 -514.47,-122.33 -12.69,-7.44 -24.45,-14.87 -35.91,-22.6 -104.39,-69.4 -161.07,-154.57 -161.07,-242.53 0,-44.61 14.87,-88.9 43.67,-130.4 32.52,-48.02 83.31,-92.29 149.91,-131.02 134.73,-77.42 315,-120.49 508.27,-120.49 147.74,0 288.67,25.09 407.61,71.54 37.78,14.88 73.41,31.91 106.55,51.13 122.04,70.29 191.72,160.11 196.67,253.04 0.62,4.02 0.62,7.73 0.62,11.76z"/>
       <polygon class="fil30 str2" points="20554.1,4392.26 20550.24,4430.94 20623.93,4400.97 20562.37,4451.35 20598.62,4466.63 20559.93,4462.78 20589.9,4536.47 20539.53,4474.91 20524.25,4511.16 20528.1,4472.47 20454.41,4502.44 20515.96,4452.07 20479.72,4436.78 20518.4,4440.64 20488.43,4366.95 20538.81,4428.5 "/>
       <g>
        <path class="fil31" d="M20176.51 4760.76l166.37 -151.78c-101.06,-196.22 -152.26,-294.41 -152.26,-294.41 -106.36,-12.55 -159.54,-18.82 -159.54,-18.82 0,0 -134.09,122.35 -268.27,244.8l-261.08 -30.8c6.33,12.19 26.18,50.65 57.68,111.53l101.77 12.01 0.04 0 0.11 0.02 0.59 0.07 0 -0.01c6.75,0.76 59.9,6.73 158.91,18.41 0,0 178.08,-162.47 267.99,-244.5l94.6 182.74 -166.93 151.86 -420.36 -49.59 57.86 111.88 420.58 49.61 101.94 -93.02zm-451.01 -290.71l204.16 -186.27 -159.61 -18.83 -204.04 186.16 159.49 18.94z"/>
        <path class="fil32" d="M20170.82 4726.66l166.38 -151.78c-101.06,-196.22 -152.26,-294.42 -152.26,-294.42 -106.36,-12.54 -159.54,-18.81 -159.54,-18.81 0,0 -134.09,122.35 -268.27,244.79l-261.08 -30.8c6.32,12.2 26.18,50.66 57.68,111.54l101.77 12.01 0.03 0 0.12 0.02 0.59 0.06 0 0c6.75,0.76 59.89,6.73 158.91,18.41 0,0 178.08,-162.47 267.99,-244.5l94.6 182.74 -166.94 151.86 -420.35 -49.59 57.86 111.88 420.57 49.61 101.94 -93.02zm-451 -290.71l204.16 -186.27 -159.62 -18.83 -204.03 186.16 159.49 18.94z"/>
       </g>
      </g>
      <g>
       <path class="fil25" d="M19842.13 4181.26l0 886.27c-9.7,0.58 -19.39,1.06 -29.09,1.41 -6.89,0.23 -13.89,0.34 -20.77,0.47 -20.45,0.34 -40.78,0.22 -61.21,-0.47 -6.9,-0.12 -13.9,-0.35 -20.9,-0.7 -20.45,-0.94 -40.88,-2.33 -61.21,-4.44 -7.02,-0.58 -13.9,-1.29 -20.8,-1.99 -20.55,-2.33 -40.98,-5.14 -61.19,-8.63 -7.02,-1.07 -13.92,-2.24 -20.79,-3.52 -20.68,-3.85 -41.13,-8.17 -61.22,-13.08 -7,-1.62 -14.01,-3.38 -20.9,-5.25 -20.79,-5.49 -41.12,-11.44 -61.09,-18.11 -7,-2.33 -14.01,-4.68 -20.91,-7.23 -13.78,-4.92 -27.21,-10.05 -40.52,-15.54l0 -735.72c13.31,-5.38 26.74,-10.52 40.52,-15.31 6.9,-2.45 13.91,-4.8 20.91,-7.01 19.97,-6.55 40.3,-12.5 61.09,-17.74 6.89,-1.77 13.9,-3.52 20.9,-5.15 20.09,-4.67 40.54,-8.87 61.22,-12.5 6.87,-1.28 13.77,-2.45 20.79,-3.5 20.21,-3.28 40.64,-5.97 61.19,-8.06 6.9,-0.7 13.91,-1.39 20.8,-1.98 20.33,-1.88 40.76,-3.17 61.21,-3.86 7,-0.35 13.89,-0.59 20.9,-0.71 20.43,-0.45 40.76,-0.45 61.21,0.12 6.88,0.12 13.88,0.36 20.77,0.69 9.7,0.36 19.39,0.95 29.09,1.54z"/>
       <path class="fil26" d="M20495.98 4465.43l0 186.29 -0.11 0c-0.24,37.39 -9.12,74.87 -26.52,111.2 -5.95,12.38 -12.84,24.76 -20.91,36.9 -16.23,24.66 -36.66,48.6 -61.19,71.49 -6.56,6.19 -13.56,12.26 -20.8,18.34 -18.45,15.18 -38.78,30.02 -61.21,44.03 -6.76,4.32 -13.76,8.53 -20.9,12.61l-0.93 0.59c-19.28,11.09 -39.35,21.48 -60.15,30.95 -6.89,3.4 -13.91,6.42 -20.91,9.35 -19.86,8.64 -40.3,16.47 -61.21,23.6 -6.76,2.44 -13.78,4.66 -20.79,6.88 -19.97,6.43 -40.41,12.16 -61.2,17.3 -6.88,1.74 -13.78,3.49 -20.79,4.9 -20.09,4.77 -40.52,8.87 -61.2,12.25 -6.9,1.28 -13.9,2.47 -20.91,3.4 -20.2,3.14 -40.65,5.73 -61.2,7.83 -6.89,0.69 -13.78,1.4 -20.79,1.86 -10.64,0.93 -21.38,1.76 -32.13,2.33l0 -886.27c10.75,0.68 21.49,1.51 32.13,2.56 6.89,0.57 13.9,1.28 20.79,1.99 20.55,2.22 41,4.9 61.2,8.17 7.01,1.17 14.01,2.33 20.91,3.62 20.68,3.63 41.11,7.83 61.2,12.62 7.01,1.64 13.91,3.28 20.79,5.14 20.79,5.24 41.23,11.21 61.2,17.75 7.01,2.22 13.91,4.55 20.79,7.01 20.91,7.24 41.35,15.3 61.21,24.06 7,2.93 14.02,6.07 20.91,9.46 19.61,9 38.65,18.92 56.87,29.43 1.42,0.82 2.81,1.64 4.21,2.45 7.14,4.21 14.14,8.54 20.9,12.86 22.43,14.25 42.87,29.2 61.21,44.73 7.36,5.97 14.24,12.16 20.8,18.33 24.63,23.25 44.96,47.3 61.19,72.08 2.7,3.96 5.15,7.94 7.48,11.91l40.06 0z"/>
       <path class="fil27" d="M19341.53 4254.73l0 735.72c-6.9,-2.91 -13.79,-5.84 -20.68,-9 -3.27,-1.39 -6.53,-2.81 -9.81,-4.31 -3.74,-1.76 -7.36,-3.4 -10.98,-5.26 -17.64,-8.31 -34.8,-17.29 -51.38,-26.86 -3.28,-1.88 -6.56,-3.86 -9.81,-5.85 -7.13,-4.2 -14.14,-8.51 -20.92,-13.08 -22.43,-14.49 -42.74,-29.78 -61.09,-45.54 -7.35,-6.33 -14.24,-12.74 -20.9,-19.17 -24.88,-24.18 -45.33,-49.4 -61.21,-75.44 -8.17,-13.33 -15.05,-26.87 -20.78,-40.54 -13.1,-30.83 -19.98,-62.26 -20.91,-93.68l-0.35 0 0 -186.29 37.25 0c1.52,-2.69 3.03,-5.26 4.79,-7.95 15.78,-25.93 36.21,-51.16 61.21,-75.22 6.66,-6.54 13.55,-12.84 20.9,-19.02 18.23,-15.66 38.66,-30.85 61.09,-45.21 6.78,-4.44 13.79,-8.76 20.92,-12.85 2.21,-1.4 4.31,-2.69 6.53,-3.97 17.52,-10.05 35.85,-19.52 54.66,-28.27 3.62,-1.75 7.36,-3.5 10.98,-5.14 3.28,-1.52 6.54,-2.92 9.81,-4.33 6.78,-3.02 13.66,-5.95 20.68,-8.74z"/>
       <path class="fil28" d="M20283.35 4776.68c-284.82,164.46 -748.08,163.62 -1034.7,-1.88 -286.63,-165.46 -288.07,-432.91 -3.25,-597.37 284.84,-164.46 748.09,-163.61 1034.7,1.87 286.63,165.47 288.07,432.94 3.25,597.38z"/>
       <path class="fil29" d="M20442.94 4479.62c0,92.79 -66.02,181.72 -186.17,251.01 -129.06,74.63 -302.43,115.68 -487.72,115.68 -187.05,0 -362.51,-41.64 -493.97,-117.46 -12.19,-7.14 -23.48,-14.28 -34.49,-21.7 -100.23,-66.64 -154.65,-148.42 -154.65,-232.87 0,-42.83 14.28,-85.35 41.94,-125.2 31.22,-46.11 79.99,-88.61 143.93,-125.8 129.37,-74.34 302.45,-115.69 488.02,-115.69 141.86,0 277.18,24.09 391.38,68.69 36.26,14.29 70.48,30.64 102.3,49.09 117.18,67.49 184.08,153.73 188.83,242.96 0.6,3.86 0.6,7.42 0.6,11.29z"/>
       <polygon class="fil30 str2" points="20364.1,4330.29 20360.39,4367.43 20431.14,4338.65 20372.04,4387.03 20406.85,4401.7 20369.7,4398 20398.48,4468.75 20350.1,4409.64 20335.43,4444.45 20339.14,4407.3 20268.38,4436.08 20327.48,4387.71 20292.69,4373.03 20329.83,4376.74 20301.05,4305.99 20349.42,4365.08 "/>
       <g>
        <path class="fil31" d="M20001.55 4684.11l159.75 -145.74c-97.04,-188.4 -146.2,-282.68 -146.2,-282.68 -102.12,-12.05 -153.18,-18.07 -153.18,-18.07 0,0 -128.75,117.48 -257.59,235.04l-250.67 -29.57c6.07,11.71 25.14,48.64 55.38,107.1l97.71 11.52 0.04 0.01 0.11 0.01 0.56 0.07 0.01 -0.01c6.48,0.73 57.5,6.46 152.58,17.68 0,0 170.98,-156 257.31,-234.76l90.83 175.46 -160.29 145.81 -403.6 -47.62 55.55 107.43 403.82 47.63 97.88 -89.31zm-433.04 -279.14l196.03 -178.84 -153.26 -18.08 -195.9 178.74 153.13 18.18z"/>
        <path class="fil32" d="M19996.09 4651.36l159.75 -145.73c-97.03,-188.4 -146.19,-282.68 -146.19,-282.68 -102.12,-12.05 -153.19,-18.07 -153.19,-18.07 0,0 -128.75,117.48 -257.58,235.04l-250.68 -29.57c6.08,11.71 25.14,48.63 55.38,107.09l97.72 11.53 0.03 0 0.12 0.02 0.56 0.06 0 0c6.48,0.73 57.51,6.46 152.58,17.68 0,0 170.98,-156 257.31,-234.76l90.83 175.45 -160.28 145.82 -403.61 -47.62 55.56 107.42 403.81 47.64 97.88 -89.32zm-433.03 -279.13l196.02 -178.84 -153.25 -18.08 -195.91 178.74 153.14 18.18z"/>
       </g>
      </g>
      <g>
       <path class="fil25" d="M20010.59 3819.08l0 886.28c-9.71,0.58 -19.4,1.06 -29.09,1.41 -6.9,0.22 -13.9,0.34 -20.78,0.47 -20.45,0.34 -40.78,0.22 -61.21,-0.47 -6.9,-0.12 -13.9,-0.35 -20.9,-0.71 -20.45,-0.93 -40.88,-2.32 -61.21,-4.43 -7.01,-0.59 -13.9,-1.29 -20.79,-2 -20.56,-2.33 -40.99,-5.14 -61.2,-8.62 -7.01,-1.07 -13.91,-2.24 -20.79,-3.52 -20.68,-3.86 -41.13,-8.17 -61.22,-13.08 -7,-1.62 -14.01,-3.38 -20.89,-5.25 -20.8,-5.5 -41.12,-11.45 -61.09,-18.12 -7.01,-2.33 -14.02,-4.67 -20.92,-7.22 -13.77,-4.92 -27.21,-10.06 -40.52,-15.54l0 -735.73c13.31,-5.38 26.75,-10.51 40.52,-15.31 6.9,-2.45 13.91,-4.79 20.92,-7 19.97,-6.55 40.29,-12.5 61.09,-17.74 6.88,-1.77 13.89,-3.52 20.89,-5.15 20.09,-4.68 40.54,-8.87 61.22,-12.5 6.88,-1.28 13.78,-2.45 20.79,-3.51 20.21,-3.27 40.64,-5.96 61.2,-8.05 6.89,-0.71 13.91,-1.4 20.79,-1.98 20.33,-1.88 40.76,-3.17 61.21,-3.86 7,-0.35 13.9,-0.59 20.9,-0.71 20.43,-0.45 40.76,-0.45 61.21,0.12 6.88,0.12 13.88,0.36 20.78,0.69 9.69,0.36 19.38,0.95 29.09,1.53z"/>
       <path class="fil26" d="M20664.43 4103.26l0 186.29 -0.11 0c-0.24,37.38 -9.12,74.87 -26.51,111.2 -5.95,12.38 -12.85,24.76 -20.92,36.9 -16.23,24.65 -36.66,48.6 -61.19,71.49 -6.56,6.18 -13.55,12.26 -20.8,18.34 -18.45,15.17 -38.78,30.02 -61.21,44.02 -6.76,4.33 -13.76,8.54 -20.9,12.62l-0.93 0.59c-19.28,11.09 -39.35,21.48 -60.14,30.95 -6.9,3.39 -13.91,6.41 -20.92,9.34 -19.86,8.65 -40.29,16.47 -61.21,23.61 -6.76,2.43 -13.77,4.66 -20.79,6.88 -19.97,6.43 -40.4,12.15 -61.2,17.3 -6.88,1.74 -13.77,3.49 -20.79,4.89 -20.09,4.78 -40.52,8.88 -61.2,12.26 -6.89,1.28 -13.9,2.47 -20.91,3.4 -20.2,3.14 -40.64,5.72 -61.2,7.82 -6.89,0.7 -13.77,1.4 -20.79,1.87 -10.64,0.93 -21.38,1.76 -32.12,2.33l0 -886.28c10.74,0.69 21.48,1.52 32.12,2.57 6.9,0.57 13.9,1.28 20.79,1.99 20.56,2.22 41,4.89 61.2,8.17 7.01,1.17 14.02,2.33 20.91,3.62 20.68,3.62 41.11,7.83 61.2,12.62 7.02,1.64 13.91,3.28 20.79,5.14 20.8,5.24 41.23,11.21 61.2,17.75 7.02,2.22 13.91,4.54 20.79,7.01 20.92,7.24 41.35,15.29 61.21,24.05 7.01,2.93 14.02,6.07 20.92,9.47 19.6,9 38.64,18.92 56.86,29.43 1.42,0.81 2.82,1.64 4.21,2.45 7.14,4.21 14.14,8.54 20.9,12.86 22.43,14.25 42.87,29.2 61.21,44.73 7.36,5.97 14.24,12.16 20.8,18.33 24.64,23.25 44.96,47.3 61.19,72.07 2.7,3.97 5.15,7.95 7.48,11.92l40.06 0z"/>
       <path class="fil27" d="M19509.98 3892.55l0 735.73c-6.9,-2.91 -13.79,-5.84 -20.67,-9 -3.28,-1.4 -6.54,-2.81 -9.82,-4.31 -3.74,-1.76 -7.36,-3.4 -10.98,-5.26 -17.64,-8.31 -34.8,-17.3 -51.38,-26.87 -3.28,-1.87 -6.55,-3.85 -9.81,-5.84 -7.12,-4.21 -14.14,-8.52 -20.92,-13.09 -22.43,-14.48 -42.74,-29.77 -61.09,-45.53 -7.34,-6.33 -14.24,-12.75 -20.9,-19.18 -24.88,-24.17 -45.32,-49.4 -61.21,-75.44 -8.17,-13.32 -15.05,-26.86 -20.78,-40.53 -13.1,-30.83 -19.98,-62.26 -20.91,-93.68l-0.35 0 0 -186.29 37.25 0c1.52,-2.69 3.03,-5.26 4.79,-7.95 15.78,-25.93 36.21,-51.16 61.21,-75.23 6.66,-6.53 13.56,-12.83 20.9,-19.02 18.23,-15.65 38.66,-30.84 61.09,-45.21 6.78,-4.43 13.8,-8.76 20.92,-12.84 2.21,-1.4 4.31,-2.69 6.53,-3.97 17.52,-10.05 35.85,-19.52 54.66,-28.27 3.62,-1.75 7.36,-3.51 10.98,-5.15 3.28,-1.51 6.54,-2.91 9.82,-4.32 6.77,-3.02 13.66,-5.95 20.67,-8.75z"/>
       <path class="fil28" d="M20451.8 4414.51c-284.82,164.46 -748.08,163.62 -1034.7,-1.88 -286.63,-165.46 -288.07,-432.92 -3.25,-597.38 284.84,-164.46 748.09,-163.6 1034.71,1.88 286.62,165.47 288.06,432.93 3.24,597.38z"/>
       <path class="fil29" d="M20611.39 4117.44c0,92.79 -66.02,181.72 -186.17,251.02 -129.06,74.63 -302.43,115.68 -487.71,115.68 -187.06,0 -362.52,-41.64 -493.98,-117.47 -12.19,-7.13 -23.47,-14.27 -34.48,-21.7 -100.23,-66.63 -154.65,-148.41 -154.65,-232.86 0,-42.84 14.27,-85.36 41.93,-125.2 31.22,-46.11 79.99,-88.62 143.94,-125.8 129.36,-74.34 302.44,-115.69 488.01,-115.69 141.86,0 277.18,24.08 391.38,68.69 36.27,14.29 70.48,30.64 102.3,49.09 117.18,67.49 184.08,153.73 188.83,242.96 0.6,3.86 0.6,7.42 0.6,11.28z"/>
       <polygon class="fil30 str2" points="20532.55,3968.11 20528.84,4005.25 20599.59,3976.48 20540.49,4024.85 20575.3,4039.53 20538.15,4035.82 20566.93,4106.58 20518.56,4047.47 20503.89,4082.27 20507.59,4045.13 20436.84,4073.91 20495.93,4025.54 20461.14,4010.86 20498.28,4014.57 20469.5,3943.82 20517.87,4002.91 "/>
       <g>
        <path class="fil31" d="M20170 4321.93l159.75 -145.73c-97.03,-188.4 -146.19,-282.68 -146.19,-282.68 -102.13,-12.05 -153.19,-18.07 -153.19,-18.07 0,0 -128.75,117.48 -257.58,235.04l-250.68 -29.57c6.07,11.71 25.14,48.63 55.38,107.09l97.71 11.53 0.04 0 0.11 0.02 0.57 0.06 0 0c6.48,0.73 57.51,6.46 152.58,17.68 0,0 170.98,-156 257.31,-234.76l90.83 175.45 -160.28 145.82 -403.61 -47.62 55.56 107.42 403.81 47.64 97.88 -89.32zm-433.04 -279.13l196.03 -178.84 -153.26 -18.08 -195.9 178.74 153.13 18.18z"/>
        <path class="fil32" d="M20164.55 4289.19l159.74 -145.73c-97.03,-188.41 -146.19,-282.69 -146.19,-282.69 -102.12,-12.04 -153.18,-18.07 -153.18,-18.07 0,0 -128.75,117.48 -257.59,235.05l-250.68 -29.57c6.08,11.71 25.14,48.63 55.38,107.09l97.72 11.53 0.04 0 0.11 0.02 0.56 0.06 0 0c6.49,0.72 57.51,6.46 152.58,17.68 0,0 170.99,-156 257.31,-234.76l90.83 175.45 -160.28 145.81 -403.6 -47.61 55.55 107.42 403.82 47.64 97.88 -89.32zm-433.04 -279.13l196.02 -178.84 -153.25 -18.08 -195.91 178.74 153.14 18.18z"/>
       </g>
      </g>
     </g>
     <g>
      <g>
       <g>
        <path class="fil25" d="M21733.27 6339.29l0 471.1c-5.16,0.31 -10.31,0.56 -15.46,0.75 -3.67,0.12 -7.39,0.18 -11.04,0.25 -10.88,0.18 -21.68,0.12 -32.54,-0.25 -3.67,-0.07 -7.39,-0.19 -11.11,-0.38 -10.87,-0.49 -21.73,-1.24 -32.54,-2.35 -3.73,-0.32 -7.38,-0.69 -11.05,-1.07 -10.93,-1.23 -21.79,-2.73 -32.53,-4.58 -3.73,-0.57 -7.4,-1.19 -11.05,-1.87 -10.99,-2.05 -21.86,-4.34 -32.54,-6.95 -3.72,-0.87 -7.45,-1.8 -11.11,-2.79 -11.05,-2.93 -21.86,-6.09 -32.47,-9.63 -3.72,-1.24 -7.45,-2.49 -11.12,-3.85 -7.32,-2.61 -14.46,-5.34 -21.54,-8.25l0 -391.08c7.08,-2.86 14.22,-5.59 21.54,-8.14 3.67,-1.3 7.4,-2.54 11.12,-3.72 10.61,-3.48 21.42,-6.64 32.47,-9.43 3.66,-0.94 7.39,-1.87 11.11,-2.74 10.68,-2.48 21.55,-4.71 32.54,-6.64 3.65,-0.68 7.32,-1.31 11.05,-1.86 10.74,-1.75 21.6,-3.18 32.53,-4.29 3.67,-0.37 7.39,-0.74 11.05,-1.05 10.81,-1 21.67,-1.68 32.54,-2.05 3.72,-0.19 7.39,-0.31 11.11,-0.38 10.86,-0.24 21.66,-0.24 32.54,0.07 3.65,0.06 7.37,0.19 11.04,0.36 5.15,0.2 10.3,0.51 15.46,0.82z"/>
        <path class="fil26" d="M22080.82 6490.34l0 99.02 -0.06 0c-0.12,19.88 -4.84,39.8 -14.09,59.11 -3.16,6.58 -6.83,13.16 -11.12,19.62 -8.62,13.1 -19.49,25.83 -32.53,38 -3.48,3.28 -7.2,6.51 -11.05,9.75 -9.81,8.06 -20.61,15.95 -32.54,23.4 -3.59,2.3 -7.31,4.53 -11.1,6.7l-0.5 0.32c-10.25,5.89 -20.92,11.42 -31.97,16.45 -3.67,1.8 -7.39,3.41 -11.12,4.97 -10.55,4.59 -21.42,8.75 -32.53,12.54 -3.6,1.3 -7.33,2.48 -11.06,3.66 -10.61,3.42 -21.47,6.46 -32.53,9.19 -3.65,0.93 -7.32,1.86 -11.05,2.61 -10.68,2.53 -21.54,4.71 -32.53,6.51 -3.66,0.68 -7.38,1.31 -11.11,1.81 -10.74,1.67 -21.61,3.04 -32.53,4.16 -3.67,0.37 -7.32,0.74 -11.05,0.99 -5.66,0.49 -11.37,0.93 -17.08,1.24l0 -471.1c5.71,0.36 11.42,0.8 17.08,1.36 3.66,0.31 7.38,0.68 11.05,1.06 10.92,1.18 21.79,2.6 32.53,4.34 3.73,0.62 7.45,1.24 11.11,1.93 10.99,1.92 21.85,4.16 32.53,6.71 3.73,0.87 7.4,1.74 11.05,2.73 11.06,2.78 21.92,5.96 32.53,9.43 3.73,1.18 7.4,2.42 11.06,3.73 11.11,3.85 21.98,8.13 32.53,12.78 3.73,1.56 7.45,3.23 11.12,5.04 10.42,4.78 20.54,10.05 30.23,15.64 0.75,0.43 1.49,0.87 2.24,1.3 3.79,2.24 7.51,4.54 11.1,6.84 11.93,7.57 22.79,15.52 32.54,23.77 3.91,3.18 7.57,6.46 11.05,9.75 13.1,12.35 23.91,25.14 32.53,38.31 1.44,2.11 2.74,4.22 3.98,6.33l21.29 0z"/>
        <path class="fil27" d="M21467.17 6378.34l0 391.08c-3.66,-1.55 -7.33,-3.11 -10.99,-4.79 -1.74,-0.74 -3.47,-1.49 -5.21,-2.29 -1.99,-0.93 -3.91,-1.8 -5.84,-2.79 -9.37,-4.42 -18.5,-9.2 -27.31,-14.28 -1.74,-1 -3.48,-2.06 -5.22,-3.11 -3.78,-2.24 -7.51,-4.53 -11.11,-6.96 -11.93,-7.7 -22.72,-15.83 -32.48,-24.2 -3.9,-3.37 -7.57,-6.78 -11.11,-10.19 -13.22,-12.85 -24.09,-26.26 -32.53,-40.1 -4.35,-7.09 -8,-14.28 -11.05,-21.55 -6.96,-16.39 -10.62,-33.1 -11.11,-49.8l-0.19 0 0 -99.02 19.8 0c0.81,-1.43 1.61,-2.79 2.55,-4.22 8.38,-13.79 19.25,-27.2 32.53,-39.99 3.54,-3.48 7.21,-6.82 11.11,-10.11 9.69,-8.32 20.55,-16.4 32.48,-24.03 3.6,-2.36 7.33,-4.66 11.11,-6.83 1.18,-0.74 2.29,-1.43 3.48,-2.11 9.31,-5.34 19.05,-10.37 29.05,-15.03 1.93,-0.93 3.91,-1.86 5.84,-2.73 1.74,-0.81 3.47,-1.55 5.21,-2.3 3.61,-1.61 7.26,-3.16 10.99,-4.65z"/>
        <path class="fil28" d="M21967.8 6655.79c-151.4,87.42 -397.64,86.97 -550,-1 -152.35,-87.95 -153.12,-230.12 -1.72,-317.54 151.4,-87.42 397.65,-86.96 549.99,1 152.36,87.95 153.12,230.13 1.73,317.54z"/>
        <path class="fil29" d="M22052.63 6497.88c0,49.32 -35.09,96.6 -98.96,133.43 -68.6,39.67 -160.76,61.49 -259.25,61.49 -99.43,0 -192.69,-22.14 -262.57,-62.44 -6.48,-3.79 -12.48,-7.59 -18.33,-11.53 -53.27,-35.42 -82.2,-78.89 -82.2,-123.79 0,-22.76 7.59,-45.36 22.29,-66.55 16.59,-24.5 42.52,-47.1 76.51,-66.86 68.76,-39.52 160.76,-61.5 259.4,-61.5 75.41,0 147.33,12.8 208.04,36.51 19.28,7.6 37.46,16.29 54.38,26.1 62.28,35.87 97.85,81.71 100.37,129.14 0.32,2.06 0.32,3.95 0.32,6z"/>
        <polygon class="fil30 str2" points="22010.72,6418.51 22008.75,6438.25 22046.36,6422.95 22014.94,6448.67 22033.44,6456.46 22013.7,6454.5 22028.99,6492.1 22003.28,6460.69 21995.48,6479.19 21997.45,6459.44 21959.84,6474.74 21991.26,6449.03 21972.76,6441.23 21992.5,6443.2 21977.21,6405.59 22002.92,6437 "/>
       </g>
       <g>
        <path class="fil33" d="M21796.67 6581.84c2.16,-3.11 26.49,-106.04 27.3,-109.33l26.28 -109.19 -113.24 30.15c-5.61,1.5 -11,2.85 -16.35,4.29 -21.73,5.82 -43.03,11.55 -64.85,17.38l-48.5 12.96c-3.7,0.99 -13.97,3.36 -16.54,4.98 -0.56,-0.15 -0.3,-0.59 -0.35,-0.59l-0.93 0.86 -0.09 0.07 41.83 110.08c1.01,2.8 1.99,5.04 2.96,7.68 1.06,2.88 1.72,5.55 3.65,8.45l153.71 22.42c2.51,0.39 2.71,0.95 5.12,-0.21zm-254.67 65.02c5.65,-0.5 62.59,-12.67 73.61,-14.73l132.8 -26.76c4.98,-1.09 9.82,-2.04 14.82,-2.97 2.64,-0.49 4.69,-0.97 7.41,-1.45 2.5,-0.45 5.2,-0.77 7.38,-1.96 -3.6,-1.44 -153.9,-22.18 -157.93,-23.74l-48.01 -125.9c-1.22,1.95 -0.55,1.03 -0.86,3.11l-10.75 71c-1.19,8.47 -2.68,16.26 -3.7,24.68 -0.51,4.25 -1.1,8.09 -1.82,12.35l-12.95 86.37z"/>
        <path class="fil32" d="M21778.09 6568.42c2.16,-3.12 26.5,-106.04 27.3,-109.33l26.29 -109.19 -113.24 30.15c-5.62,1.5 -11.01,2.85 -16.35,4.28 -21.74,5.83 -43.04,11.56 -64.86,17.39l-48.5 12.96c-3.7,0.98 -13.97,3.35 -16.54,4.98 -0.55,-0.15 -0.29,-0.6 -0.35,-0.59l-0.93 0.85 -0.08 0.08 41.83 110.08c1.01,2.8 1.98,5.04 2.96,7.68 1.05,2.88 1.71,5.55 3.64,8.44l153.72 22.43c2.5,0.39 2.7,0.94 5.11,-0.21zm-254.66 65.02c5.64,-0.5 62.59,-12.67 73.6,-14.73l132.8 -26.76c4.98,-1.09 9.82,-2.04 14.82,-2.97 2.64,-0.5 4.7,-0.97 7.41,-1.45 2.51,-0.46 5.21,-0.77 7.38,-1.97 -3.6,-1.44 -153.9,-22.17 -157.93,-23.73l-48.01 -125.9c-1.22,1.94 -0.55,1.03 -0.85,3.11l-10.76 71c-1.19,8.47 -2.68,16.26 -3.7,24.68 -0.51,4.24 -1.1,8.09 -1.81,12.34l-12.95 86.38z"/>
       </g>
      </g>
      <g>
       <g>
        <path class="fil25" d="M21130.96 6389.57l0 475.25c-5.2,0.32 -10.4,0.58 -15.6,0.76 -3.69,0.12 -7.45,0.19 -11.14,0.25 -10.96,0.19 -21.86,0.12 -32.82,-0.25 -3.7,-0.06 -7.45,-0.18 -11.21,-0.38 -10.96,-0.5 -21.92,-1.25 -32.82,-2.37 -3.76,-0.32 -7.45,-0.7 -11.15,-1.07 -11.02,-1.25 -21.98,-2.76 -32.82,-4.63 -3.76,-0.57 -7.46,-1.2 -11.15,-1.89 -11.09,-2.06 -22.05,-4.38 -32.82,-7.01 -3.76,-0.87 -7.52,-1.82 -11.21,-2.82 -11.15,-2.94 -22.05,-6.13 -32.76,-9.71 -3.75,-1.25 -7.52,-2.51 -11.21,-3.88 -7.39,-2.63 -14.6,-5.39 -21.73,-8.33l0 -394.53c7.13,-2.88 14.34,-5.63 21.73,-8.21 3.69,-1.31 7.46,-2.57 11.21,-3.75 10.71,-3.51 21.61,-6.7 32.76,-9.52 3.69,-0.95 7.45,-1.88 11.21,-2.76 10.77,-2.5 21.73,-4.75 32.82,-6.7 3.69,-0.69 7.39,-1.31 11.15,-1.88 10.84,-1.76 21.8,-3.2 32.82,-4.32 3.7,-0.38 7.46,-0.75 11.15,-1.06 10.9,-1.01 21.86,-1.7 32.82,-2.07 3.76,-0.19 7.45,-0.32 11.21,-0.38 10.96,-0.24 21.86,-0.24 32.82,0.06 3.69,0.07 7.45,0.2 11.14,0.37 5.2,0.2 10.4,0.51 15.6,0.83z"/>
        <path class="fil26" d="M21481.58 6541.95l0 99.9 -0.06 0c-0.12,20.05 -4.89,40.15 -14.22,59.63 -3.19,6.64 -6.88,13.28 -11.21,19.79 -8.7,13.22 -19.66,26.06 -32.82,38.33 -3.51,3.32 -7.26,6.58 -11.15,9.84 -9.89,8.14 -20.79,16.1 -32.82,23.61 -3.63,2.32 -7.38,4.57 -11.21,6.76l-0.5 0.32c-10.33,5.94 -21.1,11.52 -32.25,16.6 -3.7,1.82 -7.46,3.43 -11.21,5.01 -10.66,4.63 -21.61,8.83 -32.83,12.65 -3.62,1.31 -7.38,2.5 -11.15,3.69 -10.71,3.45 -21.66,6.52 -32.82,9.28 -3.68,0.93 -7.38,1.87 -11.14,2.62 -10.78,2.56 -21.73,4.76 -32.82,6.58 -3.7,0.68 -7.45,1.32 -11.21,1.82 -10.83,1.68 -21.8,3.07 -32.82,4.2 -3.7,0.37 -7.39,0.75 -11.15,1 -5.71,0.5 -11.47,0.94 -17.23,1.24l0 -475.25c5.76,0.37 11.52,0.81 17.23,1.37 3.7,0.31 7.45,0.69 11.15,1.07 11.02,1.19 21.99,2.62 32.82,4.38 3.76,0.63 7.51,1.25 11.21,1.94 11.09,1.94 22.04,4.2 32.82,6.77 3.76,0.88 7.46,1.76 11.14,2.75 11.16,2.82 22.11,6.02 32.82,9.52 3.77,1.19 7.46,2.44 11.15,3.76 11.22,3.89 22.17,8.2 32.83,12.9 3.75,1.57 7.51,3.26 11.21,5.08 10.51,4.82 20.72,10.14 30.5,15.78 0.75,0.44 1.5,0.88 2.25,1.31 3.83,2.26 7.58,4.58 11.21,6.9 12.03,7.64 22.99,15.66 32.82,23.99 3.95,3.2 7.64,6.51 11.15,9.83 13.22,12.46 24.12,25.36 32.82,38.64 1.45,2.13 2.76,4.27 4.01,6.39l21.48 0z"/>
        <path class="fil27" d="M20862.52 6428.96l0 394.53c-3.7,-1.56 -7.4,-3.13 -11.09,-4.82 -1.76,-0.75 -3.51,-1.51 -5.26,-2.31 -2.01,-0.95 -3.95,-1.83 -5.89,-2.83 -9.46,-4.45 -18.66,-9.27 -27.55,-14.4 -1.76,-1.01 -3.52,-2.07 -5.27,-3.14 -3.81,-2.25 -7.58,-4.56 -11.21,-7.01 -12.03,-7.77 -22.92,-15.97 -32.76,-24.42 -3.94,-3.4 -7.64,-6.84 -11.21,-10.28 -13.34,-12.97 -24.31,-26.49 -32.82,-40.46 -4.38,-7.14 -8.07,-14.4 -11.14,-21.74 -7.03,-16.53 -10.72,-33.38 -11.22,-50.23l-0.19 0 0 -99.9 19.98 0c0.81,-1.44 1.63,-2.82 2.57,-4.26 8.46,-13.91 19.42,-27.43 32.82,-40.34 3.57,-3.5 7.27,-6.88 11.21,-10.2 9.77,-8.39 20.73,-16.54 32.76,-24.24 3.63,-2.38 7.4,-4.7 11.21,-6.89 1.19,-0.75 2.31,-1.44 3.51,-2.13 9.39,-5.39 19.22,-10.46 29.31,-15.16 1.94,-0.94 3.95,-1.88 5.89,-2.76 1.75,-0.81 3.5,-1.56 5.26,-2.32 3.63,-1.62 7.32,-3.19 11.09,-4.69z"/>
        <path class="fil28" d="M21367.56 6708.86c-152.73,88.19 -401.15,87.74 -554.85,-1.01 -153.7,-88.73 -154.48,-232.15 -1.74,-320.34 152.74,-88.19 401.16,-87.73 554.85,1.01 153.7,88.73 154.47,232.16 1.74,320.34z"/>
        <path class="fil29" d="M21453.14 6549.56c0,49.76 -35.4,97.45 -99.83,134.6 -69.21,40.02 -162.18,62.04 -261.54,62.04 -100.3,0 -194.39,-22.33 -264.89,-62.99 -6.53,-3.83 -12.59,-7.66 -18.49,-11.64 -53.75,-35.73 -82.93,-79.58 -82.93,-124.87 0,-22.97 7.66,-45.77 22.49,-67.14 16.74,-24.72 42.89,-47.52 77.18,-67.46 69.37,-39.86 162.19,-62.04 261.7,-62.04 76.07,0 148.63,12.92 209.87,36.84 19.45,7.66 37.8,16.43 54.86,26.32 62.84,36.19 98.71,82.44 101.26,130.29 0.32,2.07 0.32,3.98 0.32,6.05z"/>
        <polygon class="fil30 str2" points="21410.86,6469.48 21408.87,6489.4 21446.81,6473.97 21415.12,6499.91 21433.79,6507.78 21413.87,6505.79 21429.3,6543.73 21403.36,6512.04 21395.49,6530.7 21397.48,6510.78 21359.54,6526.21 21391.23,6500.28 21372.57,6492.41 21392.48,6494.39 21377.05,6456.45 21402.99,6488.14 "/>
       </g>
       <g>
        <path class="fil31" d="M21186.45 6389.42l59.26 70.22 15.75 18.73 -25.38 3.08 -28.18 3.44 -42.83 -50.73 -70.39 8.62 -16.44 -19.48 -15.33 -18.16 24.96 -3.65 98.58 -12.07zm-33.13 69.33l25.11 29.75 -0.85 0.11 -40.08 4.9 -24.66 -29.21 -0.45 -0.54 40.93 -5.01zm43.25 51.24l25.34 30.03 -17.11 35.83 -69.98 8.57 -28.39 59.41 -44.13 5.41 -26.53 -31.43 28.4 -59.42 -42.07 -49.84 17.12 -35.83 43.28 -5.3 0.45 0.54 42.8 50.7 69.97 -8.56 0.85 -0.11zm-178.76 86.53l-24.1 -28.56 16.36 -34.23 24.1 28.55 -16.36 34.24zm174.95 4.51l-16.36 34.24 -40.08 4.91 16.36 -34.24 40.08 -4.91zm86.84 -101.24l25.37 30.07 -17.12 35.82 -53.59 6.56 17.12 -35.82 -25.35 -30.04 30.02 -3.67 0 0.01 4.59 -0.57 18.96 -2.36zm-232.27 -74.04l17.46 20.68 -43.28 5.3 -17.12 35.83 -32.22 -38.17 17.12 -35.83 43.21 -5.29 14.7 17.51 0.13 -0.03zm47.35 242.68l-21.38 44.74 -44.13 5.4 -26.53 -31.43 21.38 -44.74 26.53 31.43 44.13 -5.4zm-110 -2.58l-14.77 -17.5 -59.26 -70.21 39.32 -82.29 10.17 -21.28 14.77 17.5 17.45 20.67 -28.12 58.83 41.81 49.54 0 0 -11.21 23.46 -10.16 21.28zm291.14 -74.99l-10.17 21.28 -39.32 82.29 -98.58 12.07 -24.56 3 10.17 -21.27 11.2 -23.46 69.56 -8.51 28.11 -58.84 29.03 -3.55 24.56 -3.01z"/>
        <path class="fil32" d="M21172.95 6384.45l59.26 70.22 15.75 18.73 -25.38 3.07 -28.18 3.45 -42.83 -50.73 -70.39 8.61 -16.45 -19.48 -15.32 -18.16 24.96 -3.64 98.58 -12.07zm-33.13 69.33l25.11 29.75 -0.85 0.11 -40.08 4.9 -24.66 -29.21 -0.45 -0.54 40.93 -5.01zm43.25 51.24l25.34 30.03 -17.12 35.83 -69.97 8.56 -28.39 59.42 -44.13 5.4 -26.53 -31.43 28.39 -59.42 -42.06 -49.84 17.12 -35.82 43.28 -5.3 0.45 0.54 42.8 50.7 69.97 -8.57 0.85 -0.1zm-178.77 86.52l-24.09 -28.55 16.36 -34.24 24.09 28.56 -16.36 34.23zm174.96 4.52l-16.36 34.23 -40.08 4.91 16.36 -34.23 40.08 -4.91zm86.84 -101.25l25.37 30.07 -17.12 35.83 -53.59 6.56 17.12 -35.83 -25.35 -30.03 30.02 -3.68 0 0.01 4.58 -0.57 18.97 -2.36zm-232.27 -74.03l17.46 20.68 -43.28 5.3 -17.12 35.83 -32.22 -38.18 17.12 -35.82 43.21 -5.29 14.7 17.51 0.13 -0.03zm47.34 242.68l-21.37 44.73 -44.13 5.41 -26.53 -31.44 21.38 -44.73 26.53 31.43 44.12 -5.4zm-109.99 -2.59l-14.77 -17.49 -59.26 -70.22 39.32 -82.28 10.17 -21.29 14.77 17.5 17.44 20.68 -28.11 58.83 41.81 49.54 0 0 -11.21 23.46 -10.16 21.27zm291.14 -74.98l-10.17 21.28 -39.32 82.29 -98.58 12.06 -24.56 3.01 10.16 -21.28 11.21 -23.45 69.55 -8.52 28.12 -58.83 29.03 -3.55 24.56 -3.01z"/>
       </g>
      </g>
      <g>
       <g>
        <path class="fil25" d="M20570.66 6448.2l0 375.17c-4.11,0.25 -8.21,0.45 -12.31,0.6 -2.92,0.1 -5.88,0.15 -8.79,0.2 -8.66,0.14 -17.27,0.09 -25.92,-0.2 -2.92,-0.05 -5.88,-0.15 -8.84,-0.3 -8.66,-0.39 -17.31,-0.98 -25.91,-1.87 -2.97,-0.25 -5.89,-0.55 -8.81,-0.85 -8.7,-0.99 -17.35,-2.18 -25.9,-3.65 -2.97,-0.45 -5.89,-0.95 -8.8,-1.49 -8.76,-1.63 -17.41,-3.46 -25.91,-5.54 -2.97,-0.68 -5.94,-1.43 -8.85,-2.22 -8.8,-2.33 -17.41,-4.84 -25.86,-7.67 -2.97,-0.98 -5.93,-1.98 -8.85,-3.06 -5.84,-2.08 -11.52,-4.25 -17.16,-6.57l0 -311.44c5.64,-2.28 11.32,-4.46 17.16,-6.49 2.92,-1.03 5.88,-2.02 8.85,-2.96 8.45,-2.77 17.06,-5.29 25.86,-7.51 2.91,-0.75 5.88,-1.49 8.85,-2.18 8.5,-1.98 17.15,-3.75 25.91,-5.29 2.91,-0.54 5.83,-1.04 8.8,-1.48 8.55,-1.39 17.2,-2.53 25.9,-3.41 2.92,-0.3 5.89,-0.6 8.81,-0.84 8.6,-0.8 17.25,-1.35 25.91,-1.64 2.96,-0.14 5.88,-0.25 8.84,-0.3 8.65,-0.19 17.26,-0.19 25.92,0.05 2.91,0.05 5.87,0.16 8.79,0.3 4.1,0.15 8.2,0.4 12.31,0.64z"/>
        <path class="fil26" d="M20847.44 6568.5l0 78.86 -0.04 0c-0.1,15.82 -3.86,31.69 -11.23,47.07 -2.52,5.24 -5.44,10.48 -8.85,15.62 -6.87,10.44 -15.52,20.57 -25.91,30.26 -2.77,2.62 -5.73,5.19 -8.8,7.77 -7.81,6.42 -16.41,12.7 -25.91,18.63 -2.86,1.83 -5.82,3.61 -8.85,5.34l-0.39 0.25c-8.16,4.7 -16.66,9.1 -25.46,13.1 -2.92,1.44 -5.89,2.72 -8.85,3.96 -8.41,3.66 -17.06,6.97 -25.91,9.99 -2.87,1.03 -5.84,1.97 -8.81,2.91 -8.45,2.73 -17.1,5.15 -25.9,7.33 -2.91,0.73 -5.83,1.48 -8.8,2.07 -8.51,2.02 -17.16,3.76 -25.91,5.19 -2.92,0.54 -5.88,1.04 -8.85,1.44 -8.55,1.32 -17.21,2.42 -25.91,3.31 -2.92,0.29 -5.83,0.59 -8.8,0.79 -4.5,0.39 -9.05,0.74 -13.6,0.98l0 -375.17c4.55,0.3 9.1,0.65 13.6,1.09 2.92,0.24 5.88,0.54 8.8,0.84 8.7,0.94 17.36,2.08 25.91,3.46 2.97,0.5 5.93,0.99 8.85,1.53 8.75,1.54 17.4,3.32 25.91,5.35 2.97,0.69 5.89,1.38 8.8,2.17 8.8,2.22 17.45,4.75 25.9,7.51 2.97,0.95 5.89,1.93 8.81,2.97 8.85,3.07 17.5,6.48 25.91,10.19 2.96,1.24 5.93,2.57 8.85,4 8.3,3.81 16.36,8.01 24.07,12.46 0.6,0.35 1.19,0.7 1.78,1.04 3.03,1.78 5.99,3.61 8.85,5.44 9.5,6.03 18.15,12.36 25.91,18.94 3.12,2.52 6.03,5.14 8.8,7.76 10.43,9.84 19.04,20.02 25.91,30.51 1.14,1.67 2.18,3.36 3.17,5.04l16.95 0z"/>
        <path class="fil27" d="M20358.75 6479.31l0 311.44c-2.92,-1.24 -5.84,-2.48 -8.75,-3.81 -1.39,-0.6 -2.77,-1.19 -4.15,-1.83 -1.59,-0.74 -3.12,-1.44 -4.65,-2.22 -7.47,-3.52 -14.73,-7.33 -21.75,-11.38 -1.39,-0.79 -2.78,-1.63 -4.16,-2.47 -3.01,-1.78 -5.98,-3.61 -8.85,-5.54 -9.5,-6.13 -18.09,-12.61 -25.86,-19.28 -3.11,-2.68 -6.03,-5.39 -8.85,-8.11 -10.53,-10.24 -19.18,-20.91 -25.91,-31.94 -3.46,-5.64 -6.37,-11.37 -8.79,-17.16 -5.55,-13.05 -8.46,-26.35 -8.86,-39.65l-0.14 0 0 -78.86 15.76 0c0.65,-1.14 1.29,-2.23 2.03,-3.37 6.68,-10.97 15.33,-21.65 25.91,-31.84 2.82,-2.77 5.74,-5.43 8.85,-8.05 7.72,-6.63 16.36,-13.06 25.86,-19.14 2.87,-1.87 5.84,-3.71 8.85,-5.44 0.94,-0.59 1.83,-1.14 2.77,-1.68 7.42,-4.25 15.18,-8.26 23.14,-11.97 1.53,-0.73 3.11,-1.48 4.65,-2.17 1.38,-0.64 2.76,-1.23 4.15,-1.83 2.87,-1.28 5.78,-2.52 8.75,-3.7z"/>
        <path class="fil28" d="M20757.43 6700.25c-120.56,69.62 -316.66,69.27 -437.99,-0.79 -121.34,-70.04 -121.95,-183.26 -1.38,-252.88 120.57,-69.61 316.67,-69.25 438,0.8 121.33,70.04 121.94,183.26 1.37,252.87z"/>
        <path class="fil29" d="M20824.99 6574.5c0,39.28 -27.95,76.93 -78.81,106.26 -54.63,31.59 -128.02,48.97 -206.45,48.97 -79.19,0 -153.46,-17.63 -209.11,-49.72 -5.16,-3.03 -9.93,-6.05 -14.59,-9.19 -42.43,-28.21 -65.47,-62.82 -65.47,-98.58 0,-18.13 6.04,-36.13 17.75,-52.99 13.22,-19.52 33.86,-37.51 60.93,-53.26 54.76,-31.47 128.03,-48.97 206.58,-48.97 60.05,0 117.33,10.2 165.68,29.08 15.35,6.05 29.83,12.97 43.3,20.78 49.6,28.57 77.93,65.07 79.94,102.85 0.25,1.63 0.25,3.14 0.25,4.77z"/>
        <polygon class="fil30 str2" points="20791.62,6511.29 20790.05,6527.01 20820,6514.83 20794.98,6535.31 20809.71,6541.52 20793.99,6539.95 20806.17,6569.9 20785.69,6544.88 20779.48,6559.62 20781.05,6543.89 20751.1,6556.07 20776.12,6535.6 20761.39,6529.39 20777.11,6530.96 20764.93,6501.01 20785.4,6526.02 "/>
       </g>
       <g>
        <path class="fil31" d="M20521.36 6451.62c-5.86,7.89 -22.7,27.16 -25.25,32.75 9.59,3.2 17.73,5.3 26.28,7.92 -8.09,11.83 -93.91,119.86 -98.06,123.42 -7.92,-1.97 -11.34,-3.05 -25.84,-7.47l-25.58 33.06c15.41,5.02 49.31,13.58 60.29,18.48l-17.32 22.55c8.37,2.52 28.91,8.39 34.15,10 8.83,-10.99 12.78,-18.44 18.45,-21.57 4.21,-2.32 14.67,1.13 14.89,4.08 0.29,3.79 -10.86,15.91 -15.43,22.16 9.6,3.19 24.31,7.67 33.94,10.34l17.93 -22.74c28.14,8.29 70.69,1.29 92.99,-17.3 13.16,-10.97 24.7,-25.12 29.05,-38.46 5.06,-15.48 -3.95,-21.75 -11.53,-29.95 6.33,-5 44.22,-0.17 70.16,-49.1 4.01,-7.54 5.3,-16.46 3.2,-23.31l-2.45 -6.17c-4.98,-9.37 -19.69,-17.22 -33.18,-23.19l18.28 -24.03 -34.7 -10.63 -18.13 22.6 -15.39 -4.38 17.17 -22.56c-6.55,-2.34 -28.27,-9.18 -35.14,-10.86 -4.83,5.36 -8.93,11.01 -13.16,16.56 -6.45,8.46 -6.99,4.38 -19.11,1.76 -14.99,-4.62 -31.2,-9.97 -46.51,-13.96zm-43.69 180.09c8.77,3.61 46.63,15.15 55.94,16.84 19.31,3.52 31.45,-0.33 43.46,-15.01 10.57,-12.93 8.47,-23.87 -7.09,-30.72 -7.01,-3.09 -48.35,-15.77 -56.09,-16.91l-36.22 45.8zm97.42 -123.12c-6.07,6.11 -13.91,17.52 -19.42,24.51 -20.23,25.7 -24.77,17.28 26.12,32.8 10.02,3.06 12.74,4.76 23.31,3.64 0.27,-0.03 3.46,-0.43 3.99,-0.52 0.3,-0.05 0.71,-0.13 1,-0.18 19.98,-3.87 36.72,-26.22 27.55,-37.36 -6.97,-8.47 -45.75,-19.01 -62.55,-22.89z"/>
        <path class="fil32" d="M20506.67 6447.18c-5.86,7.89 -22.7,27.15 -25.25,32.75 9.59,3.2 17.73,5.29 26.28,7.92 -8.09,11.83 -93.91,119.86 -98.06,123.42 -7.92,-1.97 -11.34,-3.05 -25.84,-7.47l-25.58 33.06c15.42,5.01 49.31,13.57 60.29,18.48l-17.32 22.55c8.37,2.52 28.91,8.39 34.15,10 8.83,-11 12.78,-18.44 18.45,-21.57 4.21,-2.33 14.67,1.13 14.89,4.08 0.29,3.79 -10.86,15.9 -15.43,22.15 9.6,3.2 24.31,7.68 33.94,10.35l17.93 -22.75c28.14,8.3 70.69,1.3 92.99,-17.29 13.16,-10.98 24.7,-25.12 29.06,-38.46 5.05,-15.48 -3.96,-21.75 -11.54,-29.95 6.33,-5.01 44.22,-0.18 70.17,-49.1 4,-7.54 5.29,-16.46 3.19,-23.31l-2.45 -6.17c-4.98,-9.38 -19.69,-17.22 -33.17,-23.19l18.27 -24.03 -34.7 -10.63 -18.13 22.6 -15.39 -4.38 17.17 -22.56c-6.55,-2.34 -28.26,-9.18 -35.14,-10.86 -4.82,5.36 -8.93,11.01 -13.16,16.55 -6.45,8.46 -6.99,4.38 -19.11,1.76 -14.99,-4.61 -31.2,-9.96 -46.51,-13.95zm-43.69 180.09c8.78,3.61 46.63,15.15 55.94,16.84 19.31,3.51 31.45,-0.33 43.46,-15.01 10.57,-12.93 8.47,-23.87 -7.09,-30.73 -7.01,-3.09 -48.34,-15.76 -56.09,-16.91l-36.22 45.81zm97.42 -123.12c-6.07,6.11 -13.91,17.51 -19.42,24.5 -20.23,25.7 -24.77,17.28 26.12,32.81 10.02,3.05 12.74,4.76 23.31,3.64 0.27,-0.03 3.46,-0.43 3.99,-0.53 0.3,-0.05 0.71,-0.12 1,-0.18 19.98,-3.87 36.72,-26.21 27.55,-37.35 -6.96,-8.47 -45.75,-19.02 -62.55,-22.89z"/>
       </g>
      </g>
     </g>
    </g>
   </g>
  </g>
 </g>
</svg>
