<?xml version="1.0" encoding="UTF-8"?>
<!DOCTYPE svg PUBLIC "-//W3C//DTD SVG 1.1//EN" "http://www.w3.org/Graphics/SVG/1.1/DTD/svg11.dtd">
<!-- Creator: CorelDRAW 2018 (64-Bit) -->
<svg xmlns="http://www.w3.org/2000/svg" xml:space="preserve" width="254mm" height="84.6666mm" version="1.1" style="shape-rendering:geometricPrecision; text-rendering:geometricPrecision; image-rendering:optimizeQuality; fill-rule:evenodd; clip-rule:evenodd"
viewBox="0 0 25399.96 8466.66"
 xmlns:xlink="http://www.w3.org/1999/xlink">
 <defs>
  <style type="text/css">
   <![CDATA[
    .str4 {stroke:#113A28;stroke-width:7.62;stroke-miterlimit:22.9256;stroke-opacity:0.149020}
    .str5 {stroke:#19A119;stroke-width:20;stroke-miterlimit:22.9256}
    .str1 {stroke:white;stroke-width:20;stroke-miterlimit:22.9256}
    .str6 {stroke:white;stroke-width:373.76;stroke-linecap:round;stroke-linejoin:round;stroke-miterlimit:22.9256}
    .str3 {stroke:white;stroke-width:336.08;stroke-linecap:round;stroke-linejoin:round;stroke-miterlimit:22.9256}
    .str2 {stroke:white;stroke-width:336.08;stroke-linecap:round;stroke-linejoin:round;stroke-miterlimit:22.9256}
    .str0 {stroke:white;stroke-width:57.35;stroke-linecap:round;stroke-linejoin:round;stroke-miterlimit:22.9256}
    .fil20 {fill:none}
    .fil10 {fill:none;fill-rule:nonzero}
    .fil48 {fill:#DCDCDB}
    .fil0 {fill:#001501}
    .fil38 {fill:#19A119}
    .fil2 {fill:#1BAB1B}
    .fil14 {fill:#1EC01E}
    .fil25 {fill:white}
    .fil26 {fill:white}
    .fil12 {fill:white}
    .fil19 {fill:#1EC01E;fill-rule:nonzero}
    .fil11 {fill:white;fill-rule:nonzero}
    .fil41 {fill:#19A119;fill-opacity:0.149020}
    .fil49 {fill:white}
    .fil1 {fill:url(#id12)}
    .fil5 {fill:url(#id13)}
    .fil4 {fill:url(#id14)}
    .fil8 {fill:url(#id15)}
    .fil6 {fill:url(#id16)}
    .fil3 {fill:url(#id17)}
    .fil7 {fill:url(#id18)}
    .fil45 {fill:url(#id19)}
    .fil23 {fill:url(#id20)}
    .fil29 {fill:url(#id21)}
    .fil46 {fill:url(#id22)}
    .fil35 {fill:url(#id23)}
    .fil22 {fill:url(#id24)}
    .fil33 {fill:url(#id25)}
    .fil36 {fill:url(#id26)}
    .fil31 {fill:url(#id27)}
    .fil30 {fill:url(#id28)}
    .fil9 {fill:url(#id29)}
    .fil15 {fill:url(#id30)}
    .fil13 {fill:url(#id31)}
    .fil16 {fill:url(#id32)}
    .fil17 {fill:url(#id33)}
    .fil43 {fill:url(#id34)}
    .fil18 {fill:url(#id35)}
    .fil34 {fill:url(#id36);fill-rule:nonzero}
    .fil21 {fill:url(#id37);fill-rule:nonzero}
    .fil44 {fill:url(#id38);fill-rule:nonzero}
    .fil42 {fill:url(#id39);fill-rule:nonzero}
    .fil24 {fill:url(#id40);fill-rule:nonzero}
    .fil47 {fill:url(#id41);fill-rule:nonzero}
    .fil54 {fill:url(#id42);fill-rule:nonzero}
    .fil37 {fill:url(#id43);fill-rule:nonzero}
    .fil32 {fill:url(#id44);fill-rule:nonzero}
    .fil28 {fill:url(#id45);fill-opacity:0.149020}
    .fil27 {fill:url(#id46);fill-opacity:0.149020}
    .fil40 {fill:url(#id47);fill-opacity:0.149020}
    .fil39 {fill:url(#id48);fill-opacity:0.149020}
    .fil50 {fill:url(#id49);fill-opacity:0.200000}
    .fil51 {fill:url(#id50);fill-opacity:0.200000}
    .fil53 {fill:url(#id51);fill-opacity:0.200000}
    .fil52 {fill:url(#id52);fill-opacity:0.200000}
   ]]>
  </style>
      <mask id="id0">
  <linearGradient id="id1" gradientUnits="userSpaceOnUse" x1="4341.32" y1="1101.54" x2="4556.37" y2="1288.36">
   <stop offset="0" style="stop-opacity:1; stop-color:white"/>
   <stop offset="1" style="stop-opacity:0; stop-color:white"/>
  </linearGradient>
       <rect style="fill:url(#id1)" x="751.54" y="564.91" width="4428.21" height="1139.83"/>
      </mask>
      <mask id="id2">
  <linearGradient id="id3" gradientUnits="userSpaceOnUse" x1="22022.59" y1="6256.43" x2="22157.46" y2="1603.44">
   <stop offset="0" style="stop-opacity:1; stop-color:white"/>
   <stop offset="1" style="stop-opacity:0; stop-color:white"/>
  </linearGradient>
       <rect style="fill:url(#id3)" x="19711.68" y="536.96" width="4726.07" height="5145.04"/>
      </mask>
      <mask id="id4">
  <linearGradient id="id5" gradientUnits="userSpaceOnUse" x1="12276.16" y1="6256.43" x2="12411.03" y2="1603.44">
   <stop offset="0" style="stop-opacity:1; stop-color:white"/>
   <stop offset="1" style="stop-opacity:0; stop-color:white"/>
  </linearGradient>
       <rect style="fill:url(#id5)" x="9965.26" y="536.96" width="4726.07" height="5145.04"/>
      </mask>
         <clipPath id="id6">
          <path d="M11208.84 2601.54l2238.94 0c18.1,0 32.92,16.13 32.92,35.84l0 2518.07c0,19.72 -14.82,35.85 -32.92,35.85l-2238.94 0c-18.09,0 -32.92,-16.13 -32.92,-35.85l0 -2518.07c0,-19.71 14.83,-35.84 32.92,-35.84z"/>
         </clipPath>
         <mask id="id7">
  <linearGradient id="id8" gradientUnits="userSpaceOnUse" x1="13456.2" y1="2798.07" x2="12878.55" y2="3265.49">
   <stop offset="0" style="stop-opacity:1; stop-color:white"/>
   <stop offset="1" style="stop-opacity:0; stop-color:white"/>
  </linearGradient>
          <rect style="fill:url(#id8)" x="12970.8" y="2831.56" width="353.09" height="353.09"/>
         </mask>
      <mask id="id9">
  <linearGradient id="id10" gradientUnits="userSpaceOnUse" x1="17141.07" y1="6758.65" x2="17297.46" y2="1363.09">
   <stop offset="0" style="stop-opacity:1; stop-color:white"/>
   <stop offset="1" style="stop-opacity:0; stop-color:white"/>
  </linearGradient>
       <rect style="fill:url(#id10)" x="14462.96" y="128.01" width="5477.11" height="5962.94"/>
      </mask>
       <clipPath id="id11">
        <path d="M15802.17 2055.48l2798.67 0c22.62,0 41.15,22.37 41.15,49.7l0 3491.87c0,27.34 -18.53,49.72 -41.15,49.72l-2798.67 0c-22.62,0 -41.15,-22.38 -41.15,-49.72l0 -3491.87c0,-27.33 18.53,-49.7 41.15,-49.7z"/>
       </clipPath>
  <linearGradient id="id12" gradientUnits="userSpaceOnUse" x1="4589.99" y1="4662.83" x2="7032.62" y2="9687.69">
   <stop offset="0" style="stop-opacity:1; stop-color:#1BAB1B"/>
   <stop offset="1" style="stop-opacity:1; stop-color:#001501"/>
  </linearGradient>
  <linearGradient id="id13" gradientUnits="userSpaceOnUse" xlink:href="#id12" x1="-0" y1="2652.74" x2="14373.89" y2="2652.74">
  </linearGradient>
  <linearGradient id="id14" gradientUnits="userSpaceOnUse" xlink:href="#id12" x1="4396.36" y1="2333.73" x2="25399.96" y2="2333.73">
  </linearGradient>
  <linearGradient id="id15" gradientUnits="userSpaceOnUse" xlink:href="#id12" x1="24670.12" y1="8049.43" x2="729.84" y2="2020.53">
  </linearGradient>
  <linearGradient id="id16" gradientUnits="userSpaceOnUse" xlink:href="#id12" x1="1603.2" y1="2341.44" x2="3589.54" y2="-424.77">
  </linearGradient>
  <linearGradient id="id17" gradientUnits="userSpaceOnUse" xlink:href="#id12" x1="10580.93" y1="5733.19" x2="25399.96" y2="5733.19">
  </linearGradient>
  <linearGradient id="id18" gradientUnits="userSpaceOnUse" xlink:href="#id12" x1="21923.17" y1="7825.01" x2="25399.96" y2="7825.01">
  </linearGradient>
  <linearGradient id="id19" gradientUnits="userSpaceOnUse" x1="18248.83" y1="7790.75" x2="18499.99" y2="6670.64">
   <stop offset="0" style="stop-opacity:1; stop-color:#1BAB1B"/>
   <stop offset="0.560784" style="stop-opacity:1; stop-color:#0E600E"/>
   <stop offset="1" style="stop-opacity:1; stop-color:#001501"/>
  </linearGradient>
  <linearGradient id="id20" gradientUnits="userSpaceOnUse" x1="20805.75" y1="7058.26" x2="21406.42" y2="5998.64">
   <stop offset="0" style="stop-opacity:1; stop-color:#00B509"/>
   <stop offset="1" style="stop-opacity:1; stop-color:#001501"/>
  </linearGradient>
  <linearGradient id="id21" gradientUnits="userSpaceOnUse" x1="21819.75" y1="3131.28" x2="22198.48" y2="4216.48">
   <stop offset="0" style="stop-opacity:1; stop-color:#19A119"/>
   <stop offset="0.631373" style="stop-opacity:1; stop-color:#0E640F"/>
   <stop offset="1" style="stop-opacity:1; stop-color:#032604"/>
  </linearGradient>
  <linearGradient id="id22" gradientUnits="userSpaceOnUse" xlink:href="#id20" x1="15664.6" y1="7872.36" x2="16392.1" y2="6589">
  </linearGradient>
  <linearGradient id="id23" gradientUnits="userSpaceOnUse" xlink:href="#id19" x1="11256.18" y1="6990.89" x2="11463.55" y2="6066.04">
  </linearGradient>
  <linearGradient id="id24" gradientUnits="userSpaceOnUse" xlink:href="#id19" x1="22939.47" y1="6990.89" x2="23146.84" y2="6066.04">
  </linearGradient>
  <linearGradient id="id25" gradientUnits="userSpaceOnUse" x1="22074.67" y1="4865.05" x2="22074.77" y2="4937.78">
   <stop offset="0" style="stop-opacity:1; stop-color:#19A119"/>
   <stop offset="1" style="stop-opacity:1; stop-color:#022203"/>
  </linearGradient>
  <linearGradient id="id26" gradientUnits="userSpaceOnUse" xlink:href="#id20" x1="12996.59" y1="7058.26" x2="13597.27" y2="5998.64">
  </linearGradient>
  <linearGradient id="id27" gradientUnits="userSpaceOnUse" x1="21523.38" y1="3845.71" x2="21318.4" y2="3409.1">
   <stop offset="0" style="stop-opacity:1; stop-color:#19A119"/>
   <stop offset="1" style="stop-opacity:1; stop-color:#063607"/>
  </linearGradient>
  <linearGradient id="id28" gradientUnits="userSpaceOnUse" x1="22513.5" y1="3855.05" x2="22921.31" y2="3947">
   <stop offset="0" style="stop-opacity:1; stop-color:#19A119"/>
   <stop offset="1" style="stop-opacity:1; stop-color:#063807"/>
  </linearGradient>
  <linearGradient id="id29" gradientUnits="userSpaceOnUse" xlink:href="#id12" x1="24569.48" y1="7470.46" x2="830.48" y2="996.2">
  </linearGradient>
  <linearGradient id="id30" gradientUnits="userSpaceOnUse" x1="1101.85" y1="1115.19" x2="1179.93" y2="1376.45">
   <stop offset="0" style="stop-opacity:1; stop-color:#1EC01E"/>
   <stop offset="0.529412" style="stop-opacity:1; stop-color:#1D6E1D"/>
   <stop offset="1" style="stop-opacity:1; stop-color:#1C1C1C"/>
  </linearGradient>
  <linearGradient id="id31" gradientUnits="userSpaceOnUse" x1="1728" y1="1158.22" x2="1809.78" y2="1381.04">
   <stop offset="0" style="stop-opacity:1; stop-color:#1EC01E"/>
   <stop offset="0.678431" style="stop-opacity:1; stop-color:#1D6E1D"/>
   <stop offset="1" style="stop-opacity:1; stop-color:#1C1C1C"/>
  </linearGradient>
  <linearGradient id="id32" gradientUnits="userSpaceOnUse" x1="1220.02" y1="1311.9" x2="1447.76" y2="1309.67">
   <stop offset="0" style="stop-opacity:1; stop-color:#1EC01E"/>
   <stop offset="0.631373" style="stop-opacity:1; stop-color:#1D6E1D"/>
   <stop offset="1" style="stop-opacity:1; stop-color:#1C1C1C"/>
  </linearGradient>
  <linearGradient id="id33" gradientUnits="userSpaceOnUse" x1="1342.09" y1="907.98" x2="1462.21" y2="619.7">
   <stop offset="0" style="stop-opacity:1; stop-color:#1EC01E"/>
   <stop offset="0.65098" style="stop-opacity:1; stop-color:#1D6E1D"/>
   <stop offset="1" style="stop-opacity:1; stop-color:#1C1C1C"/>
  </linearGradient>
  <linearGradient id="id34" gradientUnits="userSpaceOnUse" xlink:href="#id25" x1="11688.54" y1="4865.05" x2="11689.13" y2="4937.79">
  </linearGradient>
  <linearGradient id="id35" gradientUnits="userSpaceOnUse" x1="1688.79" y1="888.53" x2="1849.97" y2="1139.04">
   <stop offset="0" style="stop-opacity:1; stop-color:#1EC01E"/>
   <stop offset="0.670588" style="stop-opacity:1; stop-color:#1D6E1D"/>
   <stop offset="1" style="stop-opacity:1; stop-color:#1C1C1C"/>
  </linearGradient>
  <linearGradient id="id36" gradientUnits="userSpaceOnUse" x1="12447.77" y1="6574.98" x2="12208.81" y2="5173.73">
   <stop offset="0" style="stop-opacity:1; stop-color:#1BAB1B"/>
   <stop offset="0.658824" style="stop-opacity:1; stop-color:#0E600E"/>
   <stop offset="1" style="stop-opacity:1; stop-color:#001501"/>
  </linearGradient>
  <linearGradient id="id37" gradientUnits="userSpaceOnUse" xlink:href="#id36" x1="22194.21" y1="6574.98" x2="21955.24" y2="5173.73">
  </linearGradient>
  <linearGradient id="id38" gradientUnits="userSpaceOnUse" xlink:href="#id36" x1="17346.22" y1="7287.02" x2="17056.8" y2="5589.91">
  </linearGradient>
  <linearGradient id="id39" gradientUnits="userSpaceOnUse" xlink:href="#id27" x1="12118.74" y1="4281.3" x2="12749.76" y2="3511.54">
  </linearGradient>
  <linearGradient id="id40" gradientUnits="userSpaceOnUse" x1="21108.59" y1="5107.99" x2="23040.87" y2="6632.22">
   <stop offset="0" style="stop-opacity:1; stop-color:#1BAB1B"/>
   <stop offset="1" style="stop-opacity:1; stop-color:#003803"/>
  </linearGradient>
  <linearGradient id="id41" gradientUnits="userSpaceOnUse" xlink:href="#id40" x1="17206.89" y1="5818.68" x2="17196.13" y2="7047.99">
  </linearGradient>
  <linearGradient id="id42" gradientUnits="userSpaceOnUse" x1="16888.47" y1="3289.04" x2="17514.53" y2="4413.2">
   <stop offset="0" style="stop-opacity:1; stop-color:#063907"/>
   <stop offset="1" style="stop-opacity:1; stop-color:#1BAB1B"/>
  </linearGradient>
  <linearGradient id="id43" gradientUnits="userSpaceOnUse" xlink:href="#id40" x1="11362.15" y1="5107.99" x2="13294.43" y2="6632.22">
  </linearGradient>
  <linearGradient id="id44" gradientUnits="userSpaceOnUse" xlink:href="#id27" x1="21991.86" y1="4990.36" x2="22157.59" y2="4788.2">
  </linearGradient>
  <linearGradient id="id45" gradientUnits="userSpaceOnUse" x1="20922.34" y1="3492.79" x2="22636.44" y2="3492.79">
   <stop offset="0" style="stop-opacity:1; stop-color:#19A119"/>
   <stop offset="1" style="stop-opacity:1; stop-color:white"/>
  </linearGradient>
  <linearGradient id="id46" gradientUnits="userSpaceOnUse" xlink:href="#id45" x1="23054" y1="4006.7" x2="22032.87" y2="4953.99">
  </linearGradient>
  <linearGradient id="id47" gradientUnits="userSpaceOnUse" x1="11175.92" y1="3896.42" x2="13480.69" y2="3896.42">
   <stop offset="0" style="stop-opacity:1; stop-color:#19A119"/>
   <stop offset="0.678431" style="stop-opacity:1; stop-color:#8CD08C"/>
   <stop offset="1" style="stop-opacity:1; stop-color:white"/>
  </linearGradient>
  <linearGradient id="id48" gradientUnits="userSpaceOnUse" xlink:href="#id45" x1="13479.21" y1="4828.51" x2="12716.65" y2="4758">
  </linearGradient>
  <linearGradient id="id49" gradientUnits="userSpaceOnUse" x1="17108.27" y1="3941.04" x2="15455.79" y2="2996.85">
   <stop offset="0" style="stop-opacity:1; stop-color:#169116"/>
   <stop offset="0.760784" style="stop-opacity:1; stop-color:#0E660F"/>
   <stop offset="1" style="stop-opacity:1; stop-color:#063A07"/>
  </linearGradient>
  <linearGradient id="id50" gradientUnits="userSpaceOnUse" x1="18456.24" y1="5484.93" x2="16050.6" y2="5437.43">
   <stop offset="0" style="stop-opacity:1; stop-color:#169216"/>
   <stop offset="0.811765" style="stop-opacity:1; stop-color:#0E660F"/>
   <stop offset="1" style="stop-opacity:1; stop-color:#063907"/>
  </linearGradient>
  <linearGradient id="id51" gradientUnits="userSpaceOnUse" x1="16622.48" y1="3552.59" x2="18640.1" y2="2053.75">
   <stop offset="0" style="stop-opacity:1; stop-color:#169116"/>
   <stop offset="0.529412" style="stop-opacity:1; stop-color:#0E650F"/>
   <stop offset="1" style="stop-opacity:1; stop-color:#063807"/>
  </linearGradient>
  <linearGradient id="id52" gradientUnits="userSpaceOnUse" x1="16795.95" y1="3465.96" x2="18728" y2="6079.88">
   <stop offset="0" style="stop-opacity:1; stop-color:#169216"/>
   <stop offset="1" style="stop-opacity:1; stop-color:#073C08"/>
  </linearGradient>
 </defs>
 <g id="Layer_x0020_1">
  <metadata id="CorelCorpID_0Corel-Layer"/>
  <g id="_2498331165488">
   <g>
    <g>
     <path class="fil0" d="M-0 8043.33l0 -7619.99c0,-232.85 190.48,-423.34 423.34,-423.34l24553.28 0c232.86,0 423.34,190.49 423.34,423.34l0 7619.99c0,232.85 -190.48,423.33 -423.34,423.33l-24553.28 0c-232.86,0 -423.34,-190.48 -423.34,-423.33z"/>
     <path class="fil1" d="M11622.61 8466.66c-2901.78,-644.84 -6775.99,-1505.77 -11622.61,-2582.8l0 2159.47c0,232.85 190.48,423.33 423.34,423.33l11199.27 0z"/>
     <path class="fil2" d="M25399.96 949.12l0 -525.78c0,-232.85 -190.48,-423.34 -423.34,-423.34l-3847.73 0c2145.74,476.83 3569.43,793.2 4271.07,949.12z"/>
     <path class="fil3" d="M25399.96 2999.72c-4939.31,1823.21 -9874.63,3657.61 -14819.03,5466.94l7.73 0 3429.2 0c3794.03,-1400.4 7588.1,-2800.71 11382.1,-4201.2l0 -1265.74z"/>
     <path class="fil4" d="M25399.96 3419.02c-1559.87,-346.64 -6688.41,-1486.31 -15385.62,-3419.02l-5617.98 0c11840.98,2631.33 18842.18,4187.15 21003.6,4667.46l0 -1248.44z"/>
     <path class="fil5" d="M-0 4039.75l0 1265.73c4791.31,-1768.47 9582.59,-3536.99 14373.89,-5305.48l-3429.2 0c-820.3,302.74 -1640.58,605.55 -2460.87,908.32 -2828.01,1043.84 -5655.85,2087.62 -8483.82,3131.43z"/>
     <path class="fil6" d="M-0 1916.67c1730.93,-638.84 3461.83,-1277.76 5192.74,-1916.67l-4769.4 0c-232.86,0 -423.34,190.49 -423.34,423.34l0 1493.33z"/>
     <path class="fil7" d="M21923.17 8466.66l3053.45 0c232.86,0 423.34,-190.48 423.34,-423.33l0 -859.97c-1158.98,427.63 -2317.86,855.52 -3476.79,1283.3z"/>
     <path class="fil8" d="M25399.96 7252.1c-2686.54,-597.01 -11153.2,-2478.48 -25399.96,-5644.44l0 1210.21 25181.06 5595.79c130.25,-72.4 218.9,-211.5 218.9,-370.33l0 -791.23z"/>
     <path class="fil9" d="M423.34 8466.66l2132.68 0c7561.7,-2791.08 15123.37,-5582.25 22685.12,-8373.2 -31.16,-25.06 -65.9,-45.82 -103.3,-61.36l-3072.71 -32.1c-7351.25,2713.48 -14702.56,5426.81 -22053.86,8140.2 44.09,186.57 212.51,326.46 412.07,326.46z"/>
    </g>
    <g>
     <polygon class="fil10 str0" points="2344.55,5626.67 2344.55,6757.82 1201.55,5877.71 884.05,5634.29 884.05,7404.67 1201.55,7404.67 1201.55,6281.14 2344.55,7161.25 2662.05,7404.67 2662.05,5629.21 "/>
    </g>
    <g>
     <path id="1" class="fil10 str0" d="M3396.11 5626.67c-264.16,0 -477.52,215.9 -477.52,480.06l0 1297.94 314.96 0 0 -815.34 1145.54 0 0 -317.5 -1143 0 0 -165.1c0,-88.9 73.66,-162.56 162.56,-162.56l1297.94 0 0 -317.5 -1300.48 0z"/>
    </g>
    <g>
     <polygon id="2" class="fil10 str0" points="4948.05,5626.67 4948.05,5944.17 5677.03,5944.17 5677.03,7404.67 5994.53,7404.67 5994.53,5944.17 6723.51,5944.17 6723.51,5626.67 "/>
    </g>
    <polygon id="3" class="fil11" points="2344.55,5626.67 2344.55,6757.82 1201.55,5877.71 884.05,5634.29 884.05,7404.67 1201.55,7404.67 1201.55,6281.14 2344.55,7161.25 2662.05,7404.67 2662.05,5629.21 "/>
    <path id="4" class="fil11" d="M3396.11 5626.67c-264.16,0 -477.52,215.9 -477.52,480.06l0 1297.94 314.96 0 0 -815.34 1145.54 0 0 -317.5 -1143 0 0 -165.1c0,-88.9 73.66,-162.56 162.56,-162.56l1297.94 0 0 -317.5 -1300.48 0z"/>
    <polygon id="5" class="fil11" points="4948.05,5626.67 4948.05,5944.17 5677.03,5944.17 5677.03,7404.67 5994.53,7404.67 5994.53,5944.17 6723.51,5944.17 6723.51,5626.67 "/>
    <g>
     <polygon class="fil12" style="mask:url(#id0)" points="761.54,574.91 2483.68,574.91 2503.68,574.91 5169.75,574.91 4206.98,1694.74 2503.68,1694.74 2483.68,1694.74 761.54,1694.74 "/>
     <g id="_2498331143664">
      <g>
       <path class="fil13" d="M1816.6 1188.37l0.01 -276.54c0,0 -49.27,28.36 -146.58,84.38l-0.39 277 146.96 -84.84z"/>
       <polygon class="fil14" points="1816.61,1357.83 1816.6,1188.37 1283.59,1496.08 1430.37,1580.82 "/>
       <polygon class="fil15" points="1190.71,1166.55 1190.71,827.2 1044.12,911.83 1044.13,1250.98 "/>
       <path class="fil16" d="M1190.44 1442.3l94.14 -54.35 -0.58 -168.63 -239.88 138.5c16.01,9.22 66.44,38.37 146.32,84.48z"/>
       <path class="fil17" d="M1283.9 1388.34c-0.03,-262.07 -0.05,-614.92 -0.05,-614.92 97.58,56.3 146.37,84.45 146.37,84.45 0,149.45 0,445.45 0,445.45 -97.55,56.32 -146.32,85.02 -146.32,85.02z"/>
       <path class="fil18" d="M1283.85 773.42c257.45,148.53 386.18,222.79 386.18,222.79 97.31,-56.02 146.58,-84.38 146.58,-84.38 -257.08,-148.9 -386.24,-223 -386.24,-223 -97.68,56.4 -146.52,84.59 -146.52,84.59z"/>
      </g>
      <g>
       <path class="fil19" d="M2108.04 1116.19c-18.64,-2.54 -33.47,-17.37 -36.02,-36.02l0 -207.21 -52.96 0 0 202.13c0,14.83 3.39,28.81 9.74,41.52 8.9,18.65 24.16,33.9 42.8,43.22 12.71,6.36 26.7,9.75 41.53,9.75l150.42 0 0 -52.97 -155.51 -0.42z"/>
       <polygon id="1" class="fil19" points="2358.89,1169.58 2358.89,872.96 2305.93,872.96 2305.93,1169.58 "/>
       <polygon id="2" class="fil19" points="2401.27,872.96 2401.27,925.93 2522.88,925.93 2522.88,1169.58 2575.85,1169.58 2575.85,925.93 2697.46,925.93 2697.46,872.96 "/>
       <path id="3" class="fil19" d="M2820.34 925.93l216.55 0 0 -52.97 -216.55 0c-44.07,0 -79.66,36.02 -79.66,80.09l0 136.44c0,44.07 35.59,80.09 79.66,80.09l216.55 0 0 -52.97 -216.55 0c-14.83,0 -27.12,-12.29 -27.12,-27.12l0 -55.93 190.7 0 0 -52.97 -190.7 0 0 -27.54c0,-14.83 12.29,-27.12 27.12,-27.12z"/>
       <path id="4" class="fil19" d="M3079.26 872.96l0 296.62 148.31 0c40.68,0 77.54,-16.53 104.24,-43.65 2.96,-2.96 5.93,-5.93 8.47,-8.89 22.04,-25.85 35.17,-59.33 35.17,-95.77 0,-82.2 -66.53,-148.31 -148.31,-148.31l-147.88 0zm52.54 52.97l95.34 0c52.55,0 95.34,42.87 95.34,95.55 0,52.69 -42.79,95.56 -95.34,95.56l-95.34 0 0 -191.11z"/>
       <path id="5" class="fil19" d="M3498.33 925.93l216.54 0 0 -52.97 -216.54 0c-44.07,0 -79.66,36.02 -79.66,80.09l0 136.44c0,44.07 35.59,80.09 79.66,80.09l216.54 0 0 -52.97 -216.54 0c-14.83,0 -27.12,-12.29 -27.12,-27.12l0 -55.93 190.69 0 0 -52.97 -190.69 0 0 -27.54c0,-14.83 12.29,-27.12 27.12,-27.12z"/>
       <path id="6" class="fil19" d="M3746.64 1170.85l0.85 -0.85 -0.85 0 0 0.85zm296.63 -0.85l-0.42 0 0.42 0.85 0 -0.85zm0 -297.04l-66.53 0 -81.36 105.65 -81.36 -105.65 -66.95 0 114.83 148.95 -113.99 148.09 66.96 0 80.93 -104.8 80.94 104.8 66.96 0 -114.41 -148.09 114.83 -148.95 -0.85 0z"/>
       <path class="fil19" d="M2227.52 1396.71c-2.76,0 -4.93,-0.74 -6.52,-2.23 -1.59,-1.48 -2.38,-3.54 -2.38,-6.19l0 -82.3c0,-6.89 2.01,-12.29 6.04,-16.21 4.02,-3.92 9.63,-5.88 16.84,-5.88l27.01 0c15.67,0 27.56,3.29 35.67,9.85 8.1,6.57 12.15,16.26 12.15,29.08 0,12.6 -4,22.16 -12,28.68 -7.99,6.51 -19.67,9.77 -35.03,9.77l-32.57 0 0 27.01c0,2.54 -0.85,4.58 -2.54,6.12 -1.7,1.53 -3.92,2.3 -6.67,2.3zm41.62 -49.73c19.28,0 28.92,-8.05 28.92,-24.15 0,-8.47 -2.41,-14.72 -7.23,-18.75 -4.82,-4.02 -12,-6.04 -21.53,-6.04l-25.26 0c-2.33,0 -4.13,0.75 -5.4,2.23 -1.27,1.48 -1.91,3.49 -1.91,6.04l0 40.67 32.41 0z"/>
       <path id="1" class="fil19" d="M2434.75 1306.15c0,-6.89 2.01,-12.32 6.04,-16.29 4.02,-3.97 9.69,-5.96 17,-5.96l28.75 0c15.36,0 26.93,3.08 34.72,9.22 7.78,6.14 11.68,15.2 11.68,27.17 0,11.33 -3.45,20.12 -10.33,26.37 -6.88,6.25 -16.42,9.38 -28.6,9.38l26.38 26.69c1.69,1.69 2.54,3.55 2.54,5.56 0,2.22 -1.06,4.23 -3.18,6.04 -2.01,1.48 -3.97,2.22 -5.88,2.22 -2.65,0 -5.19,-1.27 -7.62,-3.81l-34.96 -36.23 -17.95 0 0 31.62c0,2.65 -0.88,4.74 -2.62,6.28 -1.75,1.53 -4,2.3 -6.76,2.3 -2.86,0 -5.11,-0.77 -6.75,-2.3 -1.64,-1.54 -2.46,-3.63 -2.46,-6.28l0 -81.98zm51.64 35.75c10.16,0 17.34,-1.62 21.52,-4.85 4.19,-3.23 6.28,-8.82 6.28,-16.76 0,-7.73 -2.28,-13.3 -6.83,-16.68 -4.56,-3.39 -11.55,-5.09 -20.97,-5.09l-25.9 0c-2.23,0 -3.97,0.72 -5.25,2.15 -1.27,1.43 -1.9,3.41 -1.9,5.95l0 35.28 33.05 0z"/>
       <path id="2" class="fil19" d="M2703.32 1396.71c-11.75,0 -22.05,-2.38 -30.91,-7.15 -8.84,-4.77 -15.65,-11.49 -20.42,-20.18 -4.76,-8.68 -7.14,-18.64 -7.14,-29.87 0,-11.23 2.38,-21.18 7.14,-29.87 4.77,-8.68 11.58,-15.41 20.42,-20.18 8.86,-4.76 19.16,-7.14 30.91,-7.14 11.76,0 22.06,2.38 30.91,7.14 8.84,4.77 15.64,11.5 20.41,20.18 4.77,8.69 7.15,18.64 7.15,29.87 0,11.23 -2.38,21.19 -7.15,29.87 -4.77,8.69 -11.57,15.41 -20.41,20.18 -8.85,4.77 -19.15,7.15 -30.91,7.15zm0 -14.46c12.4,0 22.19,-3.81 29.4,-11.44 7.2,-7.62 10.8,-18.06 10.8,-31.3 0,-13.34 -3.68,-23.8 -11.04,-31.38 -7.36,-7.57 -17.4,-11.36 -30.11,-11.36 -8.05,0 -15.04,1.75 -20.97,5.25 -5.94,3.49 -10.5,8.47 -13.68,14.93 -3.17,6.46 -4.76,13.98 -4.76,22.56 0,8.79 1.64,16.39 4.92,22.8 3.29,6.41 7.95,11.33 13.99,14.78 6.04,3.44 13.19,5.16 21.45,5.16z"/>
       <path id="3" class="fil19" d="M2915.01 1396.71c-2.75,0 -4.95,-0.74 -6.59,-2.23 -1.65,-1.48 -2.47,-3.54 -2.47,-6.19l0 -90.25 -32.57 0c-2.75,0 -4.87,-0.6 -6.35,-1.82 -1.48,-1.22 -2.23,-2.94 -2.23,-5.17 0,-2.33 0.75,-4.1 2.23,-5.32 1.48,-1.22 3.6,-1.83 6.35,-1.83l83.26 0c2.75,0 4.9,0.61 6.43,1.83 1.54,1.22 2.31,2.99 2.31,5.32 0,2.23 -0.77,3.95 -2.31,5.17 -1.53,1.22 -3.68,1.82 -6.43,1.82l-32.57 0 0 90.25c0,2.54 -0.82,4.58 -2.47,6.12 -1.64,1.53 -3.84,2.3 -6.59,2.3z"/>
       <path id="4" class="fil19" d="M3126.85 1396.71c-11.75,0 -22.05,-2.38 -30.9,-7.15 -8.84,-4.77 -15.65,-11.49 -20.42,-20.18 -4.76,-8.68 -7.14,-18.64 -7.14,-29.87 0,-11.23 2.38,-21.18 7.14,-29.87 4.77,-8.68 11.58,-15.41 20.42,-20.18 8.85,-4.76 19.15,-7.14 30.9,-7.14 11.76,0 22.06,2.38 30.91,7.14 8.84,4.77 15.64,11.5 20.41,20.18 4.77,8.69 7.15,18.64 7.15,29.87 0,11.23 -2.38,21.19 -7.15,29.87 -4.77,8.69 -11.57,15.41 -20.41,20.18 -8.85,4.77 -19.15,7.15 -30.91,7.15zm0 -14.46c12.4,0 22.19,-3.81 29.4,-11.44 7.2,-7.62 10.8,-18.06 10.8,-31.3 0,-13.34 -3.68,-23.8 -11.04,-31.38 -7.36,-7.57 -17.4,-11.36 -30.11,-11.36 -8.05,0 -15.04,1.75 -20.97,5.25 -5.93,3.49 -10.49,8.47 -13.67,14.93 -3.17,6.46 -4.76,13.98 -4.76,22.56 0,8.79 1.64,16.39 4.92,22.8 3.29,6.41 7.95,11.33 13.98,14.78 6.04,3.44 13.19,5.16 21.45,5.16z"/>
       <path id="5" class="fil19" d="M3358.56 1396.71c-11.65,0 -21.79,-2.3 -30.42,-6.91 -8.64,-4.61 -15.26,-11.2 -19.86,-19.78 -4.61,-8.58 -6.91,-18.7 -6.91,-30.35 0,-11.65 2.3,-21.79 6.91,-30.42 4.6,-8.64 11.2,-15.28 19.78,-19.94 8.58,-4.66 18.69,-6.99 30.34,-6.99 9.54,0 18.38,1.64 26.54,4.92 8.15,3.28 14.3,7.73 18.43,13.35 1.16,1.69 1.74,3.23 1.74,4.6 0,2.33 -1.21,4.4 -3.65,6.2 -1.38,0.85 -2.81,1.27 -4.29,1.27 -1.38,0 -2.73,-0.32 -4.05,-0.95 -1.33,-0.64 -2.46,-1.48 -3.42,-2.54 -3.49,-4.24 -7.81,-7.37 -12.95,-9.38 -5.13,-2.01 -11.25,-3.02 -18.35,-3.02 -12.18,0 -21.68,3.79 -28.52,11.36 -6.83,7.58 -10.24,18.09 -10.24,31.54 0,13.24 3.44,23.65 10.32,31.22 6.89,7.57 16.42,11.36 28.6,11.36 14.41,0 25.48,-4.13 33.21,-12.39 2.54,-2.54 5.13,-3.82 7.78,-3.82 1.7,0 3.23,0.53 4.61,1.59 2.12,1.8 3.18,3.76 3.18,5.88 0,1.8 -0.64,3.5 -1.91,5.09 -4.55,5.61 -10.96,10.03 -19.22,13.26 -8.26,3.23 -17.48,4.85 -27.65,4.85z"/>
       <path id="6" class="fil19" d="M3581.84 1396.71c-11.75,0 -22.05,-2.38 -30.9,-7.15 -8.84,-4.77 -15.65,-11.49 -20.42,-20.18 -4.76,-8.68 -7.14,-18.64 -7.14,-29.87 0,-11.23 2.38,-21.18 7.14,-29.87 4.77,-8.68 11.58,-15.41 20.42,-20.18 8.85,-4.76 19.15,-7.14 30.9,-7.14 11.76,0 22.06,2.38 30.91,7.14 8.84,4.77 15.64,11.5 20.41,20.18 4.77,8.69 7.15,18.64 7.15,29.87 0,11.23 -2.38,21.19 -7.15,29.87 -4.77,8.69 -11.57,15.41 -20.41,20.18 -8.85,4.77 -19.15,7.15 -30.91,7.15zm0 -14.46c12.4,0 22.19,-3.81 29.4,-11.44 7.2,-7.62 10.8,-18.06 10.8,-31.3 0,-13.34 -3.68,-23.8 -11.04,-31.38 -7.36,-7.57 -17.4,-11.36 -30.11,-11.36 -8.05,0 -15.04,1.75 -20.97,5.25 -5.93,3.49 -10.49,8.47 -13.67,14.93 -3.17,6.46 -4.76,13.98 -4.76,22.56 0,8.79 1.64,16.39 4.92,22.8 3.29,6.41 7.95,11.33 13.98,14.78 6.04,3.44 13.19,5.16 21.45,5.16z"/>
       <path id="7" class="fil19" d="M3782.58 1395.12c-7.41,0 -13.21,-1.99 -17.4,-5.96 -4.18,-3.97 -6.27,-9.5 -6.27,-16.6l0 -81.82c0,-2.65 0.79,-4.72 2.38,-6.2 1.59,-1.48 3.76,-2.22 6.51,-2.22 2.76,0 4.96,0.76 6.6,2.3 1.64,1.53 2.46,3.57 2.46,6.12l0 81.98c0,2.54 0.66,4.55 1.99,6.04 1.32,1.48 3.15,2.22 5.48,2.22l51.48 0c5.71,0 8.57,2.38 8.57,7.15 0,2.22 -0.74,3.94 -2.22,5.16 -1.48,1.22 -3.6,1.83 -6.35,1.83l-53.23 0z"/>
      </g>
     </g>
    </g>
   </g>
   <g>
    <g>
     <polygon class="fil12 str1" style="mask:url(#id2)" points="20693.48,5672 23455.95,5672 24427.75,546.96 19721.68,546.96 "/>
     <g id="_2498331141936">
      <g>
       <path class="fil20 str2" d="M20137.6 6094.07l0 447.67 1936.97 421.09 0.16 0.04 1937.11 -421.13 0 -447.67 -268.58 -573.72 -388.11 -66.73 0 -19.89 0 -2950.07c0,-21.92 -16.45,-39.83 -36.58,-39.83l-2487.69 0c-20.13,0 -36.59,17.91 -36.59,39.83l0 2950.07 0 19.9 -388.08 66.72 -268.61 573.72z"/>
       <path id="1" class="fil12" d="M20137.6 6094.07l0 447.67 1936.97 421.09 0.16 0.04 1937.11 -421.13 0 -447.67 -268.58 -573.72 -388.11 -66.73 0 -19.89 0 -2950.07c0,-21.92 -16.45,-39.83 -36.58,-39.83l-2487.69 0c-20.13,0 -36.59,17.91 -36.59,39.83l0 2950.07 0 19.9 -388.08 66.72 -268.61 573.72z"/>
      </g>
      <g>
       <polygon class="fil20 str2" points="22074.45,6515.16 20137.6,6094.07 22074.73,6515.22 "/>
       <polygon id="1" class="fil12" points="22074.45,6515.16 20137.6,6094.07 22074.73,6515.22 "/>
      </g>
     </g>
     <g>
      <polygon class="fil21" points="20406.2,5520.35 22074.73,5233.48 23743.25,5520.35 24011.84,6094.07 22074.73,6515.22 20137.61,6094.07 "/>
      <polygon class="fil22" points="22074.73,6962.86 24011.84,6541.74 24011.84,6094.07 22074.73,6515.22 22074.45,6515.16 22074.45,6515.23 22074.56,6515.25 22074.56,6962.83 "/>
      <polygon class="fil23" points="22074.56,6962.83 22074.56,6515.25 22074.45,6515.23 22074.45,6515.16 20137.61,6094.07 20137.61,6541.74 "/>
      <polygon class="fil24" points="20546.84,5645 22071.9,5362.7 23605.44,5625.2 23750.37,6025.78 22074.73,6377.52 20399.07,6025.77 "/>
     </g>
     <g>
      <g>
       <path class="fil2" d="M20830.88 2443.82l2487.69 0c20.13,0 36.59,17.92 36.59,39.84l0 3347.24c0,21.93 -16.46,39.84 -36.59,39.84l-2487.69 0c-20.13,0 -36.59,-17.91 -36.59,-39.84l0 -3347.24c0,-21.92 16.46,-39.84 36.59,-39.84z"/>
       <path class="fil25" d="M20794.29 5433.74l0 403.6c0,18.38 16.46,33.4 36.59,33.4l2487.69 0c20.13,0 36.59,-15.02 36.59,-33.4l0 -403.6 -2560.87 0z"/>
      </g>
      <path class="fil26" d="M20955.25 2601.54l2238.94 0c18.1,0 32.92,16.13 32.92,35.84l0 2518.07c0,19.72 -14.82,35.85 -32.92,35.85l-2238.94 0c-18.09,0 -32.91,-16.13 -32.91,-35.85l0 -2518.07c0,-19.71 14.82,-35.84 32.91,-35.84z"/>
      <path class="fil27" d="M23227.11 3769.39l0 1386.06c0,19.71 -14.82,35.85 -32.92,35.85l-1334.43 0 1367.35 -1421.91z"/>
      <path class="fil28" d="M20955.25 2601.54l1681.19 0 -1714.1 1782.51 0 -1746.67c0,-19.71 14.82,-35.84 32.91,-35.84z"/>
      <g>
       <path class="fil29" d="M21798.01 3255.04l0 90.12 0 163.31 0 504.42c-28.49,-12.7 -60.97,-19.96 -96.76,-19.96 -101.41,0 -184.26,59.27 -184.26,132.45 0,73.19 82.85,132.46 184.26,132.46 96.1,0 174.97,-52.62 183.6,-119.76l1.33 0 0 -647.76 526.91 -106.45 0 364.1c-27.84,-12.09 -60.97,-19.35 -96.1,-19.35 -102.08,0 -184.26,59.27 -184.26,132.46 0,72.57 82.18,131.85 184.26,131.85 102.06,0 184.25,-59.28 184.25,-131.85l0 -495.35 0 -209.88 0 -27.81c0,-21.18 -17.23,-38.11 -37.78,-38.11 -2.65,0 -5.3,0.61 -7.95,0.61l-627 127.01c-17.89,3.63 -30.5,19.36 -30.5,37.49z"/>
       <path class="fil30" d="M22751.58 3594.47l-107.56 477.03c-15.37,-11.9 -34.77,-20.87 -56.74,-25.83 -61.15,-13.79 -119.17,10.69 -129.04,54.45 -9.95,44.13 31.95,91.14 93.1,104.93 58.35,13.15 113.06,-7.85 127.06,-47.62l1.95 -4.93 101.89 -451.86c11.58,17.56 25.09,34.02 38.36,49.66 29.33,33.82 62.23,72.28 63.03,113.47 0.34,22.69 -9.71,44.95 -26.53,59.93 -16.42,15.08 -39.92,22.43 -62.39,19.66 -14.24,-2.06 -27.5,8.36 -29.51,22.86 -1.77,13.4 7.13,26.14 20.31,29.11 0.8,0.18 1.6,0.36 2.8,0.63 37.19,4.55 76.4,-7.31 104.41,-32.8 27.84,-24.76 44.31,-62.44 43.98,-100.07 -1,-60.78 -42.65,-108.88 -75.95,-147.43 -28.93,-33.73 -59.52,-73.2 -56.71,-113.58 0.88,-13.22 -7.85,-24.76 -20.24,-27.56 -0.8,-0.18 -1.6,-0.36 -2.4,-0.54 -13.84,-1.96 -26.78,7 -29.82,20.49z"/>
       <path class="fil31" d="M21473.21 3369.21l-127.67 397.66c-12.18,-11.28 -28,-20.39 -46.32,-26.27 -50.97,-16.36 -102.18,0.06 -113.9,36.54 -11.81,36.79 20.27,79.95 71.25,96.32 48.64,15.61 96.78,1.89 111.71,-30.87l2.03 -4.05 120.93 -376.68c8.52,15.81 18.77,30.83 28.87,45.14 22.39,31 47.46,66.22 45.02,101.32 -1.43,19.32 -11.67,37.5 -27.12,48.97 -15.11,11.58 -35.65,16.05 -54.56,12 -11.96,-2.83 -24.03,5.02 -26.84,17.2 -2.52,11.27 4.08,22.78 15.07,26.31 0.67,0.21 1.33,0.43 2.33,0.75 31.3,6.69 65.56,-0.43 91.32,-19.99 25.56,-18.96 42.43,-49.76 45,-81.8 3.76,-51.78 -28.03,-95.86 -53.44,-131.18 -22.06,-30.89 -45.08,-66.78 -39.63,-100.92 1.75,-11.18 -4.81,-21.66 -15.14,-24.98 -0.66,-0.21 -1.33,-0.43 -2,-0.64 -11.62,-2.72 -23.3,3.92 -26.91,15.17z"/>
      </g>
      <g>
       <polygon class="fil32" points="21968.28,4749.56 21958.72,5029 22190.71,4904.56 "/>
       <path class="fil33" d="M21015.09 4865.21l840.3 0 0 72.42 -840.3 0 0 -72.42zm1278.96 0l840.3 0 0 72.42 -840.3 0 0 -72.42z"/>
      </g>
     </g>
    </g>
    <g>
     <polygon class="fil12 str1" style="mask:url(#id4)" points="10947.06,5672 13709.53,5672 14681.33,546.96 9975.26,546.96 "/>
     <g>
      <g>
       <g>
        <polygon class="fil20 str3" points="14265.41,6094.07 12328.28,6515.22 12328.56,6515.16 "/>
        <polygon id="1" class="fil12" points="14265.41,6094.07 12328.28,6515.22 12328.56,6515.16 "/>
       </g>
       <g>
        <path class="fil20 str3" d="M11084.46 2443.83l2487.69 0c20.12,0 36.59,17.91 36.59,39.83l0 2969.97 388.07 66.72 268.6 573.72 0 447.67 -1936.96 421.09 -0.17 0.04 -1937.1 -421.13 0 -447.67 268.58 -573.72 388.11 -66.73 0 -2969.96c0,-21.92 16.45,-39.83 36.59,-39.83z"/>
        <path id="1" class="fil12" d="M11084.46 2443.83l2487.69 0c20.12,0 36.59,17.91 36.59,39.83l0 2969.97 388.07 66.72 268.6 573.72 0 447.67 -1936.96 421.09 -0.17 0.04 -1937.1 -421.13 0 -447.67 268.58 -573.72 388.11 -66.73 0 -2969.96c0,-21.92 16.45,-39.83 36.59,-39.83z"/>
       </g>
      </g>
      <g>
       <g>
        <polygon class="fil34" points="13996.81,5520.35 12328.29,5233.48 10659.76,5520.35 10391.17,6094.07 12328.29,6515.22 14265.41,6094.07 "/>
        <polygon class="fil35" points="12328.29,6962.86 10391.17,6541.74 10391.17,6094.07 12328.29,6515.22 12328.56,6515.16 12328.56,6515.23 12328.45,6515.25 12328.45,6962.83 "/>
        <polygon class="fil36" points="12328.45,6962.83 12328.45,6515.25 12328.56,6515.23 12328.56,6515.16 14265.41,6094.07 14265.41,6541.74 "/>
        <polygon class="fil37" points="13856.18,5645 12331.12,5362.7 10797.58,5625.2 10652.64,6025.78 12328.29,6377.52 14003.94,6025.77 "/>
       </g>
       <g>
        <path class="fil2" d="M11084.46 2443.82l2487.68 0c20.14,0 36.59,17.92 36.59,39.84l0 3347.24c0,21.93 -16.45,39.84 -36.59,39.84l-2487.68 0c-20.14,0 -36.59,-17.91 -36.59,-39.84l0 -3347.24c0,-21.92 16.45,-39.84 36.59,-39.84z"/>
        <path class="fil25" d="M11047.87 5469.53l0 370.55c0,16.87 16.45,30.66 36.59,30.66l2487.68 0c20.14,0 36.59,-13.79 36.59,-30.66l0 -370.55 -2560.86 0z"/>
        <path class="fil26" d="M11208.84 2601.54l2238.94 0c18.1,0 32.92,16.13 32.92,35.84l0 2518.07c0,19.72 -14.82,35.85 -32.92,35.85l-2238.94 0c-18.09,0 -32.92,-16.13 -32.92,-35.85l0 -2518.07c0,-19.71 14.83,-35.84 32.92,-35.84z"/>
        <g style="clip-path:url(#id6)">
         <g>
          <g id="_2498331188848">
           <path id="1" class="fil38" d="M13608.58 4870.7l-180.99 -155.31c80.82,22.43 146.99,80.05 180.99,155.31z"/>
           <path class="fil38" d="M13356.8 4705.22l272.6 233.93c2.58,15.33 3.95,31.06 3.95,47.13l-0.09 6.76 -330.42 -283.55c16.05,-2.84 32.54,-4.32 49.4,-4.32l4.56 0.05z"/>
           <path class="fil38" d="M13257.81 4721.44l370.51 317.95c-2.69,14.07 -6.43,27.77 -11.13,41.02l-398.21 -341.71c12.41,-6.7 25.39,-12.47 38.83,-17.26z"/>
           <path class="fil38" d="M13185.14 4760.23l415.93 356.93c-6.06,11.51 -12.9,22.53 -20.45,33.03l-425.06 -364.76c9.27,-9.07 19.15,-17.48 29.58,-25.2z"/>
           <path class="fil38" d="M13130.03 4814.11l426.13 365.67c-8.87,9.35 -18.4,18.09 -28.48,26.14l-419.21 -359.73c6.46,-11.22 13.67,-21.92 21.56,-32.08z"/>
           <path class="fil38" d="M13091.15 4881.9l403.86 346.57c-11.93,7.05 -24.42,13.23 -37.39,18.48l-379.03 -325.23c3.22,-13.68 7.44,-26.99 12.56,-39.82z"/>
           <path class="fil38" d="M13071.83 4966.49l342.6 293.98c-16.56,3.74 -33.67,6 -51.18,6.68l-290.32 -249.14c-1.17,-10.42 -1.8,-21 -1.8,-31.73 0,-6.65 0.25,-13.25 0.7,-19.79z"/>
           <path class="fil38" d="M13087.55 5081.14l211.07 181.12c-98.09,-18.94 -178,-88.87 -211.07,-181.12z"/>
          </g>
          <g id="_2498331185008">
           <path class="fil38" d="M11437.58 3397.02l-180.98 -155.32c80.82,22.43 146.98,80.05 180.98,155.32z"/>
           <path class="fil38" d="M11185.81 3231.53l272.59 233.94c2.59,15.32 3.96,31.05 3.96,47.12l-0.1 6.76 -330.41 -283.54c16.05,-2.85 32.54,-4.33 49.4,-4.33l4.56 0.05z"/>
           <path class="fil38" d="M11086.81 3247.75l370.52 317.95c-2.69,14.07 -6.43,27.78 -11.13,41.02l-398.21 -341.71c12.41,-6.69 25.38,-12.47 38.82,-17.26z"/>
           <path class="fil38" d="M11014.14 3286.54l415.94 356.93c-6.06,11.52 -12.9,22.54 -20.45,33.04l-425.06 -364.76c9.26,-9.07 19.14,-17.48 29.57,-25.21z"/>
           <path class="fil38" d="M10959.04 3340.43l426.13 365.66c-8.88,9.35 -18.4,18.09 -28.49,26.14l-419.2 -359.73c6.46,-11.21 13.67,-21.92 21.56,-32.07z"/>
           <path class="fil38" d="M10920.16 3408.22l403.86 346.56c-11.93,7.05 -24.42,13.24 -37.4,18.48l-379.02 -325.23c3.22,-13.68 7.44,-26.99 12.56,-39.81z"/>
           <path class="fil38" d="M10900.84 3492.8l342.59 293.99c-16.56,3.73 -33.67,5.99 -51.17,6.68l-290.32 -249.15c-1.17,-10.42 -1.8,-21 -1.8,-31.73 0,-6.65 0.25,-13.25 0.7,-19.79z"/>
           <path class="fil38" d="M10916.56 3607.45l211.07 181.12c-98.09,-18.93 -178.01,-88.87 -211.07,-181.12z"/>
          </g>
         </g>
        </g>
        <path class="fil20" d="M11208.84 2601.54l2238.94 0c18.1,0 32.92,16.13 32.92,35.84l0 2518.07c0,19.72 -14.82,35.85 -32.92,35.85l-2238.94 0c-18.09,0 -32.92,-16.13 -32.92,-35.85l0 -2518.07c0,-19.71 14.83,-35.84 32.92,-35.84z"/>
        <path class="fil39" d="M13480.7 4395.21l0 760.24c0,19.72 -14.82,35.85 -32.92,35.85l-732.62 0 765.54 -796.09z"/>
        <path class="fil40 str4" d="M12283.63 2601.53c-275.1,286.09 -644.34,670.06 -1107.71,1151.94l0 1401.97c0,19.72 14.82,35.86 32.92,35.86l312.42 0c1009.25,-1049.53 1662.4,-1728.75 1959.43,-2037.64l0 -516.28c0,-19.71 -14.82,-35.85 -32.92,-35.85l-1164.14 0z"/>
        <path class="fil41" d="M12328.31 3134.86c420.6,0 761.57,340.96 761.57,761.56 0,420.6 -340.97,761.56 -761.57,761.56 -420.6,0 -761.56,-340.96 -761.56,-761.56 0,-420.6 340.96,-761.56 761.56,-761.56z"/>
        <polygon class="fil42" points="12029.01,3364.41 11992.6,4428.43 12875.94,3954.61 "/>
        <path class="fil38 str5" style="mask:url(#id7)" d="M13283.93 2912.84c52.61,75.43 34.11,179.24 -41.32,231.85 -75.44,52.61 -179.25,34.11 -231.86,-41.32 -52.61,-75.43 -34.1,-179.25 41.33,-231.86 75.43,-52.61 179.24,-34.1 231.85,41.33z"/>
        <g>
         <circle class="fil20 str5" transform="matrix(0.200777 1.90845 -1.90845 0.200777 11502.4 4590.16)" r="66.6"/>
         <circle class="fil20 str5" transform="matrix(0.150141 1.42714 -1.42714 0.150141 11604.8 4644.25)" r="66.6"/>
        </g>
        <polygon class="fil43" points="11268.67,4865.21 13387.94,4865.21 13387.94,4937.63 11268.67,4937.63 "/>
       </g>
      </g>
     </g>
    </g>
    <g>
     <polygon class="fil12 str1" style="mask:url(#id9)" points="15599.85,6080.95 18803.18,6080.95 19930.07,138.01 14472.96,138.01 "/>
     <g>
      <path class="fil20 str6" d="M15646.7 1898.91l3109.61 0c25.16,0 45.73,23.67 45.73,52.64l0 3861.3 0 124.61 420.3 72.26 325.3 694.86 0 542.19 -2346.13 510.05 -0.19 -0.04 -2345.94 -510.01 0 -542.19 325.31 -694.86 420.28 -72.26 0 -124.61 0 -3861.3c0,-28.97 20.57,-52.64 45.73,-52.64z"/>
      <path id="1" class="fil12" d="M15646.7 1898.91l3109.61 0c25.16,0 45.73,23.67 45.73,52.64l0 3861.3 0 124.61 420.3 72.26 325.3 694.86 0 542.19 -2346.13 510.05 -0.19 -0.04 -2345.94 -510.01 0 -542.19 325.31 -694.86 420.28 -72.26 0 -124.61 0 -3861.3c0,-28.97 20.57,-52.64 45.73,-52.64z"/>
     </g>
     <g>
      <polygon class="fil44" points="15180.69,6009.72 17201.51,5662.29 19222.34,6009.72 19547.64,6704.58 17201.51,7214.66 14855.38,6704.58 "/>
      <polygon class="fil45" points="17201.51,7756.82 19547.64,7246.78 19547.64,6704.58 17201.51,7214.66 17201.18,7214.58 17201.18,7214.66 17201.31,7214.69 17201.31,7756.77 "/>
      <polygon class="fil46" points="17201.31,7756.77 17201.31,7214.69 17201.18,7214.66 17201.18,7214.58 14855.38,6704.58 14855.38,7246.78 "/>
      <polygon class="fil47" points="15351.02,6160.69 17198.08,5818.78 19055.43,6136.71 19230.96,6621.87 17201.51,7047.88 15172.05,6621.86 "/>
     </g>
     <g>
      <path class="fil2" d="M15646.7 1898.92l3109.61 0c25.17,0 45.73,23.66 45.73,52.63l0 4422.32c0,28.96 -20.56,52.63 -45.73,52.63l-3109.61 0c-25.17,0 -45.73,-23.67 -45.73,-52.63l0 -4422.32c0,-28.97 20.56,-52.63 45.73,-52.63z"/>
      <path class="fil48" d="M15802.17 2055.48l2798.67 0c22.62,0 41.15,22.37 41.15,49.7l0 3491.87c0,27.34 -18.53,49.72 -41.15,49.72l-2798.67 0c-22.62,0 -41.15,-22.38 -41.15,-49.72l0 -3491.87c0,-27.33 18.53,-49.7 41.15,-49.7z"/>
      <g style="clip-path:url(#id11)">
       <g>
        <polygon id="1" class="fil49" points="15646.06,1336.49 18755.45,1336.49 18755.45,6655.78 15646.06,6655.78 "/>
        <g>
         <path class="fil50" d="M15646.06 1906.76l0 3124.36c391.46,-65.55 668.57,-308.5 1012.42,-521.78 408.67,-253.48 296.49,-1008.81 -71.44,-1219.45 -110.28,-126.06 -342.27,-144.39 -342.27,-639.71 0,-392.57 -312.68,-685.39 -598.71,-743.42z"/>
         <path class="fil51" d="M16634.18 6655.78l1822.3 0 0 -809.49c-160.44,-183.34 -374.77,-278.77 -443.74,-532.37 -143.3,-526.87 -169.89,-528.94 -546.7,-619.11 -17.57,-4.2 -35.89,-8.59 -55.03,-13.24 -466.04,-113.21 -334.62,-166.91 -627.25,-339.45 -8.24,-4.86 -16.51,-9.49 -24.81,-13.89 -217.28,-115.1 -452.2,-70.99 -611.77,148.93 -119.98,165.36 -112.85,330.45 -62.29,498.37 104.15,345.9 392.61,703.79 133.91,1100.72 -104.67,160.6 -116.58,369.96 -103.65,579.53l519.03 0z"/>
         <path class="fil52" d="M17785.83 5217.31c6.97,748.51 -532.63,540.04 -745.61,694.67 -232.22,168.59 -267.14,448.68 -271.72,743.8l1986.95 0 0 -2385.92 0 -1379.8c-65.54,58.2 -136.38,129.45 -169.39,153.13 -143.98,103.29 -347.6,289.69 -501.76,484.6 -78.61,99.38 -144.36,200.98 -182.79,294.9 -155.58,380.21 -242.02,399.78 -224.1,847.01 8.43,210.36 107.69,469.19 108.42,547.61z"/>
         <path class="fil53" d="M17078.23 2789.22c61.62,292.31 541.18,617.83 792.96,598.8 237.18,-17.92 452.5,637.52 602.3,695.43 24.74,9.56 151.47,108.2 281.96,186.41l0 -2933.38 -2102.24 0c-133.4,285.21 -259.54,515.42 27.08,823.32 197.71,212.39 307.92,202.45 397.94,629.42z"/>
        </g>
       </g>
      </g>
      <path class="fil20" d="M15802.17 2055.48l2798.67 0c22.62,0 41.15,22.37 41.15,49.7l0 3491.87c0,27.34 -18.53,49.72 -41.15,49.72l-2798.67 0c-22.62,0 -41.15,-22.38 -41.15,-49.72l0 -3491.87c0,-27.33 18.53,-49.7 41.15,-49.7z"/>
      <path class="fil25" d="M15600.97 5812.85l0 566.75c0,25.81 20.56,46.9 45.73,46.9l3109.61 0c25.17,0 45.73,-21.09 45.73,-46.9l0 -566.75 -3201.07 0z"/>
      <path class="fil54" d="M16067.64 3472.24l220.79 0 287.07 418.39 0 -418.39 223.46 0 0 757.76 -223.46 0 -285.47 -416.1 0 416.1 -222.39 0 0 -757.76zm889.56 0l584.83 0 0 162.98 -347.47 0 0 132.29 297.22 0 0 153.46 -297.22 0 0 309.03 -237.36 0 0 -757.76zm658.61 0l719.56 0 0 187.32 -241.63 0 0 570.44 -236.3 0 0 -570.44 -241.63 0 0 -187.32z"/>
     </g>
    </g>
   </g>
  </g>
 </g>
</svg>
