<?xml version="1.0" encoding="UTF-8"?>
<!DOCTYPE svg PUBLIC "-//W3C//DTD SVG 1.1//EN" "http://www.w3.org/Graphics/SVG/1.1/DTD/svg11.dtd">
<!-- Creator: CorelDRAW 2018 (64-Bit) -->
<svg xmlns="http://www.w3.org/2000/svg" xml:space="preserve" width="254mm" height="84.6666mm" version="1.1" style="shape-rendering:geometricPrecision; text-rendering:geometricPrecision; image-rendering:optimizeQuality; fill-rule:evenodd; clip-rule:evenodd"
viewBox="0 0 25400 8466.66"
 xmlns:xlink="http://www.w3.org/1999/xlink">
 <defs>
  <style type="text/css">
   <![CDATA[
    .str3 {stroke:#007005;stroke-width:7.62;stroke-miterlimit:22.9256;stroke-opacity:0.650980}
    .str0 {stroke:white;stroke-width:25;stroke-miterlimit:22.9256}
    .str2 {stroke:#006B05;stroke-width:7.62;stroke-miterlimit:10}
    .str1 {stroke:white;stroke-width:231.86;stroke-miterlimit:10}
    .str4 {stroke:white;stroke-width:42.33;stroke-linecap:round;stroke-linejoin:round;stroke-miterlimit:22.9256}
    .fil26 {fill:none;fill-rule:nonzero}
    .fil0 {fill:#001501}
    .fil29 {fill:#1EC01E}
    .fil19 {fill:#DA7D2D}
    .fil21 {fill:#EA8823}
    .fil22 {fill:#FAAB28}
    .fil20 {fill:#FEEA3B}
    .fil27 {fill:white}
    .fil15 {fill:#F4A307;fill-rule:nonzero}
    .fil17 {fill:#FDE144;fill-rule:nonzero}
    .fil9 {fill:#004704;fill-rule:nonzero}
    .fil13 {fill:#006B05;fill-rule:nonzero}
    .fil24 {fill:#007005;fill-rule:nonzero}
    .fil23 {fill:#007A06;fill-rule:nonzero}
    .fil11 {fill:#008707;fill-rule:nonzero}
    .fil14 {fill:#009607;fill-rule:nonzero}
    .fil12 {fill:#00B509;fill-rule:nonzero}
    .fil10 {fill:#09395E;fill-rule:nonzero}
    .fil34 {fill:#1EC01E;fill-rule:nonzero}
    .fil16 {fill:#FBDE18;fill-rule:nonzero}
    .fil18 {fill:#FDB427;fill-rule:nonzero}
    .fil8 {fill:white;fill-rule:nonzero}
    .fil25 {fill:#007005;fill-rule:nonzero;fill-opacity:0.650980}
    .fil1 {fill:url(#id2)}
    .fil2 {fill:url(#id3)}
    .fil3 {fill:url(#id4)}
    .fil4 {fill:url(#id5)}
    .fil5 {fill:url(#id6)}
    .fil7 {fill:url(#id7)}
    .fil6 {fill:url(#id8)}
    .fil30 {fill:url(#id9)}
    .fil28 {fill:url(#id10)}
    .fil31 {fill:url(#id11)}
    .fil32 {fill:url(#id12)}
    .fil33 {fill:url(#id13)}
   ]]>
  </style>
     <mask id="id0">
  <linearGradient id="id1" gradientUnits="userSpaceOnUse" x1="4341.34" y1="1101.54" x2="4556.39" y2="1288.36">
   <stop offset="0" style="stop-opacity:1; stop-color:white"/>
   <stop offset="1" style="stop-opacity:0; stop-color:white"/>
  </linearGradient>
      <rect style="fill:url(#id1)" x="751.56" y="564.91" width="4428.21" height="1139.83"/>
     </mask>
  <linearGradient id="id2" gradientUnits="userSpaceOnUse" x1="-0" y1="2116.66" x2="11561.89" y2="2116.66">
   <stop offset="0" style="stop-opacity:1; stop-color:#1BAB1B"/>
   <stop offset="1" style="stop-opacity:1; stop-color:#001501"/>
  </linearGradient>
  <linearGradient id="id3" gradientUnits="userSpaceOnUse" xlink:href="#id2" x1="-0" y1="4233.33" x2="23780.33" y2="4233.33">
  </linearGradient>
  <linearGradient id="id4" gradientUnits="userSpaceOnUse" xlink:href="#id2" x1="3955.24" y1="4361.79" x2="25399.98" y2="4361.79">
  </linearGradient>
  <linearGradient id="id5" gradientUnits="userSpaceOnUse" xlink:href="#id2" x1="19887.57" y1="1697.09" x2="15590.11" y2="9515.82">
  </linearGradient>
  <linearGradient id="id6" gradientUnits="userSpaceOnUse" xlink:href="#id2" x1="19335.56" y1="10216.1" x2="3411.1" y2="-611.11">
  </linearGradient>
  <linearGradient id="id7" gradientUnits="userSpaceOnUse" xlink:href="#id2" x1="-0" y1="5827.32" x2="15378.51" y2="5827.32">
  </linearGradient>
  <linearGradient id="id8" gradientUnits="userSpaceOnUse" x1="15511.06" y1="6719.63" x2="25400" y2="6719.63">
   <stop offset="0" style="stop-opacity:1; stop-color:#126912"/>
   <stop offset="1" style="stop-opacity:1; stop-color:#001501"/>
  </linearGradient>
  <linearGradient id="id9" gradientUnits="userSpaceOnUse" x1="1101.87" y1="1115.19" x2="1179.95" y2="1376.45">
   <stop offset="0" style="stop-opacity:1; stop-color:#1EC01E"/>
   <stop offset="0.529412" style="stop-opacity:1; stop-color:#1D6E1D"/>
   <stop offset="1" style="stop-opacity:1; stop-color:#1C1C1C"/>
  </linearGradient>
  <linearGradient id="id10" gradientUnits="userSpaceOnUse" x1="1728.02" y1="1158.22" x2="1809.8" y2="1381.04">
   <stop offset="0" style="stop-opacity:1; stop-color:#1EC01E"/>
   <stop offset="0.678431" style="stop-opacity:1; stop-color:#1D6E1D"/>
   <stop offset="1" style="stop-opacity:1; stop-color:#1C1C1C"/>
  </linearGradient>
  <linearGradient id="id11" gradientUnits="userSpaceOnUse" x1="1220.04" y1="1311.9" x2="1447.78" y2="1309.67">
   <stop offset="0" style="stop-opacity:1; stop-color:#1EC01E"/>
   <stop offset="0.631373" style="stop-opacity:1; stop-color:#1D6E1D"/>
   <stop offset="1" style="stop-opacity:1; stop-color:#1C1C1C"/>
  </linearGradient>
  <linearGradient id="id12" gradientUnits="userSpaceOnUse" x1="1342.11" y1="907.98" x2="1462.23" y2="619.7">
   <stop offset="0" style="stop-opacity:1; stop-color:#1EC01E"/>
   <stop offset="0.65098" style="stop-opacity:1; stop-color:#1D6E1D"/>
   <stop offset="1" style="stop-opacity:1; stop-color:#1C1C1C"/>
  </linearGradient>
  <linearGradient id="id13" gradientUnits="userSpaceOnUse" x1="1688.81" y1="888.53" x2="1849.99" y2="1139.04">
   <stop offset="0" style="stop-opacity:1; stop-color:#1EC01E"/>
   <stop offset="0.670588" style="stop-opacity:1; stop-color:#1D6E1D"/>
   <stop offset="1" style="stop-opacity:1; stop-color:#1C1C1C"/>
  </linearGradient>
 </defs>
 <g id="Layer_x0020_1">
  <metadata id="CorelCorpID_0Corel-Layer"/>
  <g id="_2287905110752">
   <g>
    <path class="fil0" d="M-0 8043.32l0 -7619.98c0,-232.84 285.74,-423.34 634.99,-423.34l24130.01 0c349.25,0 635,190.5 635,423.34l0 7619.98c0,232.83 -285.75,423.34 -635,423.34l-24130.01 0c-349.25,0 -634.99,-190.51 -634.99,-423.34z"/>
    <path class="fil1" d="M11561.89 0l-11561.89 4233.32 0 -3809.98c0,-232.84 285.74,-423.34 634.99,-423.34l10926.9 0z"/>
    <path class="fil2" d="M23780.33 0l-2253.98 0 -3921.52 0 -17604.83 6562.85 0 1480.47c0,232.83 285.74,423.34 634.99,423.34l431.28 0c15142.7,-5644.44 22714.06,-8466.66 22714.06,-8466.66z"/>
    <path class="fil3" d="M25399.98 961.64l0 -539.66c-0.28,-58.51 -18.6,-114.3 -51.43,-165.05l-21393.31 8209.73 743.53 0 1164.74 0c13024.31,-5003.35 19536.47,-7505.02 19536.47,-7505.02z"/>
    <path class="fil4" d="M25400 2854.97l0 -61.07 -0.02 -47.65c-10214.87,3813.6 -15322.3,5720.41 -15322.3,5720.41l14687.32 0c349.25,0 635,-190.51 635,-423.34l0 -5188.35z"/>
    <path class="fil5" d="M-0 8043.32l0 -6904.99c15164.45,4885.55 22746.67,7328.33 22746.67,7328.33l-22111.68 0c-349.25,0 -634.99,-190.51 -634.99,-423.34z"/>
    <path class="fil6" d="M25400 8043.55l0 -0.23 0 -583.25 -0.02 -2487.46 -9888.92 3494.05 3853.19 0 5400.75 0c349.14,0 634.81,-190.38 635,-423.11z"/>
    <path class="fil7" d="M-0 8043.32l0 -4855.33c10252.34,3519.11 15378.51,5278.67 15378.51,5278.67l-5613.01 0 -9130.51 0c-349.25,0 -634.99,-190.51 -634.99,-423.34z"/>
   </g>
   <g>
    <g>
     <path class="fil8 str0" d="M19875.2 7319.54c-89.45,-54.79 -2193.15,-1364.07 -2193.15,-3049.84l0 -2256 323.86 13.98 4.77 -0.08c69.46,0 443.54,-11.57 1000.48,-240.62 415.5,-171.03 811.86,-536.51 815.83,-540.28l221.45 -205.69 221.37 205.96c3.61,3.5 400.19,368.98 815.62,540.01 556.94,229.18 931.02,240.62 1000.49,240.62l325.91 -8.76 2.86 289.39 0 1961.47c0,1685.77 -2103.85,2995.05 -2193.3,3049.84l-173.09 106.1 -173.1 -106.1z"/>
     <path class="fil9" d="M20957.81 2042.82c-476.28,-196.04 -909.51,-599.88 -909.51,-599.88 0,0 -433.24,403.84 -909.52,599.88 -692.77,285.01 -1147.58,265.41 -1147.58,265.41l0 1961.47c0,1555.92 2057.1,2816.97 2057.1,2816.97 0,0 2057.09,-1261.05 2057.09,-2816.97l0 -1961.47c0,0 -454.66,19.6 -1147.58,-265.41z"/>
     <path class="fil10" d="M20048.44 7086.59l0 0c19.7,-12.12 2017.19,-1244.06 2056.42,-2771.42 -39.38,1533.8 -2053.32,2769.5 -2056.42,2771.42zm2056.42 -2771.42c0.21,-9.72 0.38,-19.51 0.45,-29.24 -0.07,9.73 -0.24,19.52 -0.45,29.24zm0.45 -29.51c0,-0.35 0,-0.56 0,-0.83 0,0.27 0,0.48 0,0.83zm0.08 -2.46c0,-3.58 0,-7.4 0,-11.03 0,3.69 0,7.4 0,11.03zm-1147.58 -2240.38c-471.17,-193.98 -900.24,-591.24 -909.37,-599.75l0 0c1.52,1.44 433.99,404.06 909.37,599.75z"/>
     <path class="fil11" d="M20048.44 7086.59l0 -5643.52c9.13,8.51 438.2,405.77 909.37,599.75l0 0c609.28,250.62 1034.35,265.74 1128.11,265.74 12.82,0 19.47,-0.33 19.47,-0.33l0 1961.47c0,0.82 0,1.63 0,2.47 0,3.63 0,7.45 0,11.03 0,0.46 0,1.16 -0.08,1.63 0,0.27 0,0.48 0,0.83 0,0.06 0,0.14 0,0.27 -0.07,9.73 -0.24,19.52 -0.45,29.24l0 0c-39.23,1527.36 -2036.72,2759.3 -2056.42,2771.42z"/>
    </g>
    <path class="fil8 str1" d="M19128.81 2636.17c-507.93,-292.61 -1142.2,73.95 -1142.2,660.17l0 511.15c-83.24,12.61 -164.47,38.82 -232.62,78.15 -108.89,62.88 -159.66,145.04 -149.09,220.38l0 1964.73c-8.75,64.76 25.55,127.89 104.95,173.73l1818.69 1053.25c157.54,90.99 432.72,79.56 614.63,-25.44 96.24,-55.61 147.07,-126.22 150.3,-193.88l0.89 -808.86c360.93,8.81 726.35,-66.53 1000.92,-226.08 256.83,-149.25 385.96,-344.25 388.28,-539.85l0 -106.85 0 -0.22c0.05,-4.5 0.08,-8.95 0,-13.45l0 -0.21 0 -176.39c7.3,-204.41 -124.31,-410.38 -394.45,-566.34 -382.19,-220.68 -935.94,-280.34 -1409.66,-179.08l0 -526.09c0,-536.01 -286.17,-1031.25 -750.64,-1298.82zm-639.59 1293.82l0 -527.03c0,-248.24 268.47,-403.6 483.68,-279.93 249.95,143.61 404.02,409.88 404.02,698.1l0 622.97 -887.7 -514.11zm3194.34 1452.9l0 13.88 0 -13.88z"/>
    <g>
     <path class="fil12" d="M20167.76 5346.97l-2562.86 -1270.87 0 1994.65c-8.75,64.76 25.55,127.89 104.95,173.73l1818.69 1053.25c157.53,90.99 432.72,79.56 614.63,-25.44 96.24,-55.61 147.07,-126.22 150.3,-193.88l0.88 0.32 -126.59 -1731.76z"/>
     <path class="fil8" d="M18967.75 5646.8c0,-156.28 -110.4,-346.7 -246.6,-425.35 -136.2,-78.62 -246.6,-15.67 -246.6,140.59 0,105.35 50.27,226.1 124.69,317.79l0 495.03 243.82 140.75 0 -495.03c74.42,-5.74 124.69,-68.44 124.69,-173.78z"/>
     <path class="fil13 str2" d="M18641.79 6156.61l0 -495.03c-74.4,-91.68 -124.67,-212.42 -124.67,-317.77 0,-73.49 24.63,-126.02 64.67,-153.21 -64.73,13.63 -107.24,74.54 -107.24,171.44 0,105.35 50.27,226.1 124.69,317.79l0 495.03 243.82 140.75 0 -42.79 -201.27 -116.21z"/>
     <path class="fil14" d="M19528.54 5293.78l-1818.69 -1053.26c-157.52,-90.97 -137.78,-249.83 44.14,-354.88 181.91,-105.01 457.11,-116.43 614.64,-25.48l1818.69 1053.27c157.53,90.95 137.76,249.84 -44.15,354.87 -181.91,105.03 -457.1,116.44 -614.63,25.48z"/>
    </g>
    <path class="fil15" d="M20925.29 5212.97l-95.95 -55.4c-18.95,-10.93 -49.68,-10.83 -68.33,0l-76.31 44.36c-105.79,-43.21 -209.26,-62.27 -310.28,-57.06 -101.16,5.31 -188.05,29.06 -260.79,71.32 -77.24,44.88 -115.6,90.38 -114.84,136.11 0.62,45.8 24.1,95.48 70.43,148.81 3.81,5.51 16.1,19.66 36.2,42.48 43.41,49.35 71.3,87.25 83.52,113.61 12.02,26.43 3.32,48.21 -26.26,65.39 -67.92,39.45 -147.05,33.01 -237.4,-19.15 -52.83,-30.53 -97.82,-67.07 -134.55,-109.88 -18.08,-21.24 -32.78,-42.58 -44.22,-64.34 -3.44,-6.57 -9.39,-12.1 -16.94,-16.47 -24.84,-14.34 -67.12,-15.97 -94.6,0l-108.06 62.8c-15.24,8.85 -20.72,22.29 -12.76,34.16 38.99,56.95 99.69,112.36 182.87,166.18l-89.43 51.97c-18.63,10.82 -18.7,28.63 0.24,39.58l95.95 55.38c18.92,10.94 49.67,10.82 68.3,0l93.73 -54.45c96.94,39.57 196.07,56.55 297.09,51.34 101.18,-5.31 190.36,-30.42 267.77,-75.39 55.57,-32.27 89.35,-65.32 101.56,-99.14 12.4,-33.94 9.68,-68.1 -7.75,-102.49 -17.28,-34.46 -47.35,-73.8 -89.66,-118.38 -34.74,-37.68 -59.34,-65.6 -73.1,-83.73 -13.94,-17.99 -21.05,-36.01 -20.61,-54.04 0.43,-17.99 13.1,-34.35 38.03,-48.83 31.35,-18.21 68.32,-24.89 110.61,-19.98 42.1,4.98 84.41,19.68 126.81,44.17 47.06,27.15 83.74,59.95 109.66,98.4 11.26,16.44 21.05,33.32 29.23,50.27 3.46,7.04 9.71,12.96 17.72,17.59 24.98,14.42 67.08,16.3 94.75,0.22l109.3 -63.51c15.41,-8.96 20.72,-22.29 12.74,-34.16 -15.02,-22.82 -31.71,-43.84 -49.79,-63.01 -23.14,-24.38 -52.24,-48.83 -86.87,-73.21l72.2 -41.96c18.62,-10.82 18.71,-28.62 -0.21,-39.56z"/>
    <path class="fil16" d="M21624.39 5162.83c-62.41,-117.7 -174.12,-228.53 -335.28,-321.62 -178.81,-103.22 -395.18,-171.16 -623.36,-203.94l-77.87 -42.73 -482.4 0 -74.98 41.15c-231.97,32.11 -451.81,100.61 -632.42,205.52 -161,93.57 -271.8,205.15 -332.63,323.56l-55.65 30.51 0 306.57c3.74,196.2 135.15,391.9 394.45,541.62 523.79,302.42 1370.64,302.4 1891.03,0 256.83,-149.25 385.96,-344.25 388.28,-539.85l0 -308.34 -59.17 -32.45z"/>
    <path class="fil17" d="M21289.11 4640.16c-523.98,-302.53 -1370.45,-302.53 -1891.03,0 -520.38,302.42 -517.81,792.84 6.17,1095.38 523.79,302.39 1370.64,302.39 1891.03,-0.03 520.59,-302.53 517.63,-792.95 -6.17,-1095.35z"/>
    <path class="fil15" d="M20342.33 4503.75c-341.42,0 -660.61,76.23 -898.8,214.63 -221.77,128.92 -343.78,294.9 -343.54,467.46 0.25,173.95 124.36,341.36 349.49,471.31 239.74,138.43 559.94,214.68 901.55,214.68l0.08 0c341.44,0 660.58,-76.2 898.71,-214.54 221.78,-128.91 343.79,-294.91 343.54,-467.41 -0.24,-173.98 -124.35,-341.39 -349.48,-471.36 -239.88,-138.51 -560.08,-214.77 -901.55,-214.77z"/>
    <path class="fil18" d="M20392.58 4562.4c-341.42,0 -660.58,76.24 -898.77,214.63 -221.78,128.91 -343.78,294.9 -343.54,467.46 0.25,173.96 124.36,341.36 349.48,471.33 239.75,138.4 559.92,214.66 901.55,214.66l0.08 0c341.45,0 660.58,-76.2 898.72,-214.55 221.75,-128.91 343.79,-294.89 343.54,-467.43 -0.27,-173.95 -124.36,-341.36 -349.49,-471.33 -239.87,-138.51 -560.08,-214.77 -901.57,-214.77z"/>
    <g>
     <path class="fil19" d="M20840.09 5475.87l257.82 -266.2c-178.77,-306.67 -269.26,-460.05 -269.26,-460.05 -173.23,-7.77 -259.85,-11.66 -259.85,-11.66l-415.72 429.34 -425.25 -19.07c11.18,19.06 46.3,79.15 102,174.29l165.77 7.43 0.8 0.04 0.4 0.02 0 -0.01c10.96,0.43 97.49,3.82 258.81,11.06 0,0 275.95,-284.95 415.28,-428.82l-11.9 -20.33 179.18 305.86 -258.72 266.41 -684.68 -30.71 102.33 174.84 685.02 30.71 157.97 -163.15zm-752.86 -418.63l316.36 -326.68 -259.98 -11.66 -316.17 326.49 259.79 11.85z"/>
     <path class="fil20" d="M20819.33 5440.18l257.82 -266.2c-178.78,-306.68 -269.26,-460.06 -269.26,-460.06 -173.24,-7.77 -259.86,-11.65 -259.86,-11.65l-415.72 429.33 -425.25 -19.06c11.19,19.05 46.31,79.15 102,174.29l165.77 7.43 0.8 0.03 0.4 0.02 0.01 0c10.95,0.42 97.49,3.82 258.81,11.06 0,0 275.95,-284.95 415.27,-428.82l-11.9 -20.33 179.18 305.86 -258.72 266.41 -684.67 -30.71 102.32 174.83 685.03 30.71 157.97 -163.14zm-752.87 -418.63l316.37 -326.69 -259.99 -11.66 -316.16 326.5 259.78 11.85z"/>
    </g>
    <path class="fil21" d="M20294.36 6269.59c351.84,8.58 707.97,-62.83 980.02,-214.23 7.02,-3.91 13.99,-7.87 20.9,-11.89 244.3,-141.97 373.05,-325.33 387.03,-511.23 0.72,-9.53 1.14,-19.08 1.25,-28.62l0 -297.09c-1.11,30.94 -5.4,61.85 -12.87,92.54l0 114.47c-0.89,75.1 -20.48,150.11 -58.8,222.48 -0.04,0.08 -0.08,0.15 -0.12,0.23 -27.51,51.87 -64.65,102.39 -111.44,150.6 -0.08,0.09 -0.17,0.18 -0.26,0.27 -57.82,59.53 -130.36,115.54 -217.66,166.27 -288.02,167.37 -676.03,242.11 -1053.93,224.22 -60.42,-2.87 -120.59,-8.09 -180.04,-15.69 -240.56,-30.74 -469.52,-100.25 -657.06,-208.53 -214.82,-124.04 -341.86,-279.63 -381.25,-440.92 8.19,192.63 139.5,383.98 394.12,531 184.19,106.35 408.34,175.3 644.19,206.85 61.57,8.23 123.94,13.92 186.6,17.06 19.75,0.99 39.53,1.72 59.32,2.21z"/>
    <path class="fil22" d="M20401.38 5930.48c341.45,0 660.58,-76.2 898.72,-214.55 221.75,-128.91 343.79,-294.89 343.54,-467.43 -0.04,-26.86 -3.04,-53.56 -8.9,-79.99 -13.16,-59.35 -40.78,-117.34 -81.9,-172.68 4.58,15.77 8.14,31.65 10.66,47.61 1.62,10.27 2.81,20.57 3.56,30.91 0.62,8.65 0.95,17.32 0.96,26.01 0.25,172.54 -121.79,338.52 -343.54,467.43 -193.21,112.25 -439.73,183.59 -708.24,206.51 -62.43,5.33 -126.06,8.04 -190.56,8.04 -42.49,0 -84.64,-1.18 -126.35,-3.51 -51.03,-2.85 -101.4,-7.43 -150.89,-13.69 -193.82,-24.49 -374.23,-74.67 -528.75,-147.56 -33.08,-15.6 -64.98,-32.24 -95.56,-49.9 -112.32,-64.85 -199.49,-139.01 -258.68,-218.65 15.09,51.93 41.32,102.67 78.01,151.33 59.14,78.44 145.48,151.48 256.29,215.46 51.01,29.45 105.66,56.08 163.38,79.76 117.33,48.15 247.36,84.1 385.31,106.74 41.28,6.77 83.28,12.35 125.86,16.7 11.79,1.21 23.64,2.32 35.52,3.34 62.79,5.38 126.75,8.12 191.56,8.12z"/>
    <g>
     <path class="fil23" d="M19128.8 2636.17c-507.92,-292.61 -1142.19,73.96 -1142.19,660.17 0,0 0,827.48 0,828.05 0,80.45 111.97,145.64 250.09,145.64 138.12,0 250.09,-65.19 250.09,-145.64 0,-0.97 -0.21,-1.9 -0.25,-2.86l2.67 0 0 -718.57c0,-248.24 268.48,-403.6 483.69,-279.93 249.95,143.62 404.02,409.88 404.02,698.1l0 1101.79 2.67 0c2.73,79.06 113.45,142.69 249.83,142.69 137.3,0 248.71,-64.45 250.03,-144.21l0 -986.41c0,-536.02 -286.16,-1031.24 -750.65,-1298.82z"/>
     <path class="fil24" d="M19567.84 5061.15c19.7,2.9 40.33,4.45 61.58,4.45 12.25,0 24.28,-0.52 36.06,-1.51l0 -1240.18c0,-312.04 -167.93,-602.66 -438.31,-758.4 -15.28,-8.81 -30.86,-16.47 -46.67,-23.36 240.35,161.57 387.34,434.66 387.34,726.55l0 1292.45z"/>
     <path class="fil25 str3" d="M18606.12 2885.09c-225.71,0 -410.62,183.61 -410.62,409.35l0 952.52c-1.9,7.51 139.99,-4 143.35,-17.2l0 -952.52c0,-183.97 123.29,-339.94 290.6,-391.35 -7.76,-0.45 -15.55,-0.8 -23.33,-0.8z"/>
     <path class="fil25 str3" d="M18851.82 2708.2c129.82,0 254.68,31.63 371.87,93.3 -43.89,-32.69 -89.8,-63.16 -137.83,-90.83 -105.22,-60.6 -218.35,-91.33 -336.22,-91.33 -325.6,0 -677.01,258.83 -677.01,677l0 1.83c100.66,-369.43 450.91,-589.97 779.19,-589.97z"/>
    </g>
   </g>
   <g>
    <path class="fil26 str4" d="M1833.83 6589.65l0 -5.98c0,-155.31 -126.95,-282.25 -282.26,-282.25l-424.13 0c-155.32,0 -280.77,126.94 -280.77,282.25l0 5.98c0,59.73 17.93,114.99 49.29,159.79 10.45,16.43 22.4,31.36 35.84,44.8 50.78,49.29 119.47,79.16 195.64,79.16l376.34 0c79.15,0 144.86,64.21 144.86,143.36 0,79.16 -65.71,143.37 -144.86,143.37l-327.06 0c-79.15,0 -143.37,-64.21 -143.37,-143.37l-186.68 0c0,182.2 147.85,330.05 330.05,330.05l327.06 0c182.2,0 330.05,-147.85 330.05,-330.05 0,-79.15 -28.38,-152.32 -74.68,-209.07 -4.48,-4.48 -7.46,-8.97 -11.94,-13.45 -59.74,-65.71 -146.36,-107.52 -243.43,-107.52l-376.34 0c-52.27,0 -95.58,-43.31 -95.58,-95.58l0 -5.97c0,-52.27 43.31,-95.58 95.58,-95.58l424.13 0c52.27,0 95.58,43.31 95.58,95.58l0 5.97 186.68 -1.49z"/>
   </g>
   <g>
    <polygon id="1" class="fil26 str4" points="1933.88,6301.42 1933.88,6488.09 2362.49,6488.09 2362.49,7346.81 2549.17,7346.81 2549.17,6488.09 2977.78,6488.09 2977.78,6301.42 "/>
   </g>
   <g>
    <polygon id="2" class="fil26 str4" points="3743.91,7160.13 3306.34,6301.42 2868.76,7160.13 2773.18,7346.81 2982.26,7346.81 3077.84,7160.13 3306.34,6712.11 3534.83,7160.13 3630.41,7346.81 3839.49,7346.81 "/>
   </g>
   <g>
    <polygon id="3" class="fil26 str4" points="4974.49,6301.42 4698.2,6301.42 4406.99,6568.74 4268.1,6695.68 4114.28,6836.06 4114.28,6301.42 3927.6,6301.42 3927.6,7346.81 4114.28,7346.81 4114.28,7088.45 4378.61,6848.01 4740.02,7346.81 4970,7346.81 4517.5,6721.07 "/>
   </g>
   <g>
    <polygon id="4" class="fil26 str4" points="5310.51,7346.81 5310.51,6301.42 5123.83,6301.42 5123.83,7346.81 "/>
   </g>
   <g>
    <polygon id="5" class="fil26 str4" points="6318.57,6301.42 6318.57,6966.49 5646.53,6449.02 5459.85,6305.9 5459.85,7346.81 5646.53,7346.81 5646.53,6686.22 6318.57,7203.69 6505.25,7346.81 6505.25,6302.91 "/>
   </g>
   <g>
    <path id="6" class="fil26 str4" d="M7177.29 6488.09l522.7 0 0 -186.67 -522.7 0c-288.23,0 -522.7,234.46 -522.7,522.69 0,288.23 234.47,522.7 522.7,522.7l522.7 0 0 -573.47 -522.7 0 0 186.67 336.02 0 0 200.12 -336.02 0c-185.19,0 -336.02,-150.83 -336.02,-336.02 0,-185.18 150.83,-336.02 336.02,-336.02z"/>
   </g>
   <path id="7" class="fil8" d="M1833.83 6589.65l0 -5.98c0,-155.31 -126.95,-282.25 -282.26,-282.25l-424.13 0c-155.32,0 -280.77,126.94 -280.77,282.25l0 5.98c0,59.73 17.93,114.99 49.29,159.79 10.45,16.43 22.4,31.36 35.84,44.8 50.78,49.29 119.47,79.16 195.64,79.16l376.34 0c79.15,0 144.86,64.21 144.86,143.36 0,79.16 -65.71,143.37 -144.86,143.37l-327.06 0c-79.15,0 -143.37,-64.21 -143.37,-143.37l-186.68 0c0,182.2 147.85,330.05 330.05,330.05l327.06 0c182.2,0 330.05,-147.85 330.05,-330.05 0,-79.15 -28.38,-152.32 -74.68,-209.07 -4.48,-4.48 -7.46,-8.97 -11.94,-13.45 -59.74,-65.71 -146.36,-107.52 -243.43,-107.52l-376.34 0c-52.27,0 -95.58,-43.31 -95.58,-95.58l0 -5.97c0,-52.27 43.31,-95.58 95.58,-95.58l424.13 0c52.27,0 95.58,43.31 95.58,95.58l0 5.97 186.68 -1.49z"/>
   <polygon id="8" class="fil8" points="1933.88,6301.42 1933.88,6488.09 2362.49,6488.09 2362.49,7346.81 2549.17,7346.81 2549.17,6488.09 2977.78,6488.09 2977.78,6301.42 "/>
   <polygon id="9" class="fil8" points="3743.91,7160.13 3306.34,6301.42 2868.76,7160.13 2773.18,7346.81 2982.26,7346.81 3077.84,7160.13 3306.34,6712.11 3534.83,7160.13 3630.41,7346.81 3839.49,7346.81 "/>
   <polygon id="10" class="fil8" points="4974.49,6301.42 4698.2,6301.42 4406.99,6568.74 4268.1,6695.68 4114.28,6836.06 4114.28,6301.42 3927.6,6301.42 3927.6,7346.81 4114.28,7346.81 4114.28,7088.45 4378.61,6848.01 4740.02,7346.81 4970,7346.81 4517.5,6721.07 "/>
   <polygon id="11" class="fil8" points="5310.51,7346.81 5310.51,6301.42 5123.83,6301.42 5123.83,7346.81 "/>
   <polygon id="12" class="fil8" points="6318.57,6301.42 6318.57,6966.49 5646.53,6449.02 5459.85,6305.9 5459.85,7346.81 5646.53,7346.81 5646.53,6686.22 6318.57,7203.69 6505.25,7346.81 6505.25,6302.91 "/>
   <path id="13" class="fil8" d="M7177.29 6488.09l522.7 0 0 -186.67 -522.7 0c-288.23,0 -522.7,234.46 -522.7,522.69 0,288.23 234.47,522.7 522.7,522.7l522.7 0 0 -573.47 -522.7 0 0 186.67 336.02 0 0 200.12 -336.02 0c-185.19,0 -336.02,-150.83 -336.02,-336.02 0,-185.18 150.83,-336.02 336.02,-336.02z"/>
   <g>
    <polygon class="fil27" style="mask:url(#id0)" points="761.56,574.91 2483.7,574.91 2503.7,574.91 5169.77,574.91 4207,1694.74 2503.7,1694.74 2483.7,1694.74 761.56,1694.74 "/>
    <g>
     <g>
      <path class="fil28" d="M1816.62 1188.37l0.01 -276.54c0,0 -49.27,28.36 -146.58,84.38l-0.39 277 146.96 -84.84z"/>
      <polygon class="fil29" points="1816.63,1357.83 1816.62,1188.37 1283.61,1496.08 1430.39,1580.82 "/>
      <polygon class="fil30" points="1190.73,1166.55 1190.73,827.2 1044.14,911.83 1044.15,1250.98 "/>
      <path class="fil31" d="M1190.46 1442.3l94.14 -54.35 -0.58 -168.63 -239.88 138.5c16.01,9.22 66.44,38.37 146.32,84.48z"/>
      <path class="fil32" d="M1283.92 1388.34c-0.03,-262.07 -0.05,-614.92 -0.05,-614.92 97.58,56.3 146.37,84.45 146.37,84.45 0,149.45 0,445.45 0,445.45 -97.55,56.32 -146.32,85.02 -146.32,85.02z"/>
      <path class="fil33" d="M1283.87 773.42c257.45,148.53 386.18,222.79 386.18,222.79 97.31,-56.02 146.58,-84.38 146.58,-84.38 -257.08,-148.9 -386.24,-223 -386.24,-223 -97.68,56.4 -146.52,84.59 -146.52,84.59z"/>
     </g>
     <g>
      <path class="fil34" d="M2108.06 1116.19c-18.64,-2.54 -33.47,-17.37 -36.02,-36.02l0 -207.21 -52.96 0 0 202.13c0,14.83 3.39,28.81 9.74,41.52 8.9,18.65 24.16,33.9 42.8,43.22 12.71,6.36 26.7,9.75 41.53,9.75l150.42 0 0 -52.97 -155.51 -0.42z"/>
      <polygon id="1" class="fil34" points="2358.91,1169.58 2358.91,872.96 2305.95,872.96 2305.95,1169.58 "/>
      <polygon id="2" class="fil34" points="2401.29,872.96 2401.29,925.93 2522.9,925.93 2522.9,1169.58 2575.87,1169.58 2575.87,925.93 2697.48,925.93 2697.48,872.96 "/>
      <path id="3" class="fil34" d="M2820.36 925.93l216.55 0 0 -52.97 -216.55 0c-44.07,0 -79.66,36.02 -79.66,80.09l0 136.44c0,44.07 35.59,80.09 79.66,80.09l216.55 0 0 -52.97 -216.55 0c-14.83,0 -27.12,-12.29 -27.12,-27.12l0 -55.93 190.7 0 0 -52.97 -190.7 0 0 -27.54c0,-14.83 12.29,-27.12 27.12,-27.12z"/>
      <path id="4" class="fil34" d="M3079.28 872.96l0 296.62 148.31 0c40.68,0 77.54,-16.53 104.24,-43.65 2.96,-2.96 5.93,-5.93 8.47,-8.89 22.04,-25.85 35.17,-59.33 35.17,-95.77 0,-82.2 -66.53,-148.31 -148.31,-148.31l-147.88 0zm52.54 52.97l95.34 0c52.55,0 95.34,42.87 95.34,95.55 0,52.69 -42.79,95.56 -95.34,95.56l-95.34 0 0 -191.11z"/>
      <path id="5" class="fil34" d="M3498.35 925.93l216.54 0 0 -52.97 -216.54 0c-44.07,0 -79.66,36.02 -79.66,80.09l0 136.44c0,44.07 35.59,80.09 79.66,80.09l216.54 0 0 -52.97 -216.54 0c-14.83,0 -27.12,-12.29 -27.12,-27.12l0 -55.93 190.69 0 0 -52.97 -190.69 0 0 -27.54c0,-14.83 12.29,-27.12 27.12,-27.12z"/>
      <path id="6" class="fil34" d="M3746.66 1170.85l0.85 -0.85 -0.85 0 0 0.85zm296.63 -0.85l-0.42 0 0.42 0.85 0 -0.85zm0 -297.04l-66.53 0 -81.36 105.65 -81.36 -105.65 -66.95 0 114.83 148.95 -113.99 148.09 66.96 0 80.93 -104.8 80.94 104.8 66.96 0 -114.41 -148.09 114.83 -148.95 -0.85 0z"/>
      <path class="fil34" d="M2227.54 1396.71c-2.76,0 -4.93,-0.74 -6.52,-2.23 -1.59,-1.48 -2.38,-3.54 -2.38,-6.19l0 -82.3c0,-6.89 2.01,-12.29 6.04,-16.21 4.02,-3.92 9.63,-5.88 16.84,-5.88l27.01 0c15.67,0 27.56,3.29 35.67,9.85 8.1,6.57 12.15,16.26 12.15,29.08 0,12.6 -4,22.16 -12,28.68 -7.99,6.51 -19.67,9.77 -35.03,9.77l-32.57 0 0 27.01c0,2.54 -0.85,4.58 -2.54,6.12 -1.7,1.53 -3.92,2.3 -6.67,2.3zm41.62 -49.73c19.28,0 28.92,-8.05 28.92,-24.15 0,-8.47 -2.41,-14.72 -7.23,-18.75 -4.82,-4.02 -12,-6.04 -21.53,-6.04l-25.26 0c-2.33,0 -4.13,0.75 -5.4,2.23 -1.27,1.48 -1.91,3.49 -1.91,6.04l0 40.67 32.41 0z"/>
      <path id="1" class="fil34" d="M2434.77 1306.15c0,-6.89 2.01,-12.32 6.04,-16.29 4.02,-3.97 9.69,-5.96 17,-5.96l28.75 0c15.36,0 26.93,3.08 34.72,9.22 7.78,6.14 11.68,15.2 11.68,27.17 0,11.33 -3.45,20.12 -10.33,26.37 -6.88,6.25 -16.42,9.38 -28.6,9.38l26.38 26.69c1.69,1.69 2.54,3.55 2.54,5.56 0,2.22 -1.06,4.23 -3.18,6.04 -2.01,1.48 -3.97,2.22 -5.88,2.22 -2.65,0 -5.19,-1.27 -7.62,-3.81l-34.96 -36.23 -17.95 0 0 31.62c0,2.65 -0.88,4.74 -2.62,6.28 -1.75,1.53 -4,2.3 -6.76,2.3 -2.86,0 -5.11,-0.77 -6.75,-2.3 -1.64,-1.54 -2.46,-3.63 -2.46,-6.28l0 -81.98zm51.64 35.75c10.16,0 17.34,-1.62 21.52,-4.85 4.19,-3.23 6.28,-8.82 6.28,-16.76 0,-7.73 -2.28,-13.3 -6.83,-16.68 -4.56,-3.39 -11.55,-5.09 -20.97,-5.09l-25.9 0c-2.23,0 -3.97,0.72 -5.25,2.15 -1.27,1.43 -1.9,3.41 -1.9,5.95l0 35.28 33.05 0z"/>
      <path id="2" class="fil34" d="M2703.34 1396.71c-11.75,0 -22.05,-2.38 -30.91,-7.15 -8.84,-4.77 -15.65,-11.49 -20.42,-20.18 -4.76,-8.68 -7.14,-18.64 -7.14,-29.87 0,-11.23 2.38,-21.18 7.14,-29.87 4.77,-8.68 11.58,-15.41 20.42,-20.18 8.86,-4.76 19.16,-7.14 30.91,-7.14 11.76,0 22.06,2.38 30.91,7.14 8.84,4.77 15.64,11.5 20.41,20.18 4.77,8.69 7.15,18.64 7.15,29.87 0,11.23 -2.38,21.19 -7.15,29.87 -4.77,8.69 -11.57,15.41 -20.41,20.18 -8.85,4.77 -19.15,7.15 -30.91,7.15zm0 -14.46c12.4,0 22.19,-3.81 29.4,-11.44 7.2,-7.62 10.8,-18.06 10.8,-31.3 0,-13.34 -3.68,-23.8 -11.04,-31.38 -7.36,-7.57 -17.4,-11.36 -30.11,-11.36 -8.05,0 -15.04,1.75 -20.97,5.25 -5.94,3.49 -10.5,8.47 -13.68,14.93 -3.17,6.46 -4.76,13.98 -4.76,22.56 0,8.79 1.64,16.39 4.92,22.8 3.29,6.41 7.95,11.33 13.99,14.78 6.04,3.44 13.19,5.16 21.45,5.16z"/>
      <path id="3" class="fil34" d="M2915.03 1396.71c-2.75,0 -4.95,-0.74 -6.59,-2.23 -1.65,-1.48 -2.47,-3.54 -2.47,-6.19l0 -90.25 -32.57 0c-2.75,0 -4.87,-0.6 -6.35,-1.82 -1.48,-1.22 -2.23,-2.94 -2.23,-5.17 0,-2.33 0.75,-4.1 2.23,-5.32 1.48,-1.22 3.6,-1.83 6.35,-1.83l83.26 0c2.75,0 4.9,0.61 6.43,1.83 1.54,1.22 2.31,2.99 2.31,5.32 0,2.23 -0.77,3.95 -2.31,5.17 -1.53,1.22 -3.68,1.82 -6.43,1.82l-32.57 0 0 90.25c0,2.54 -0.82,4.58 -2.47,6.12 -1.64,1.53 -3.84,2.3 -6.59,2.3z"/>
      <path id="4" class="fil34" d="M3126.87 1396.71c-11.75,0 -22.05,-2.38 -30.9,-7.15 -8.84,-4.77 -15.65,-11.49 -20.42,-20.18 -4.76,-8.68 -7.14,-18.64 -7.14,-29.87 0,-11.23 2.38,-21.18 7.14,-29.87 4.77,-8.68 11.58,-15.41 20.42,-20.18 8.85,-4.76 19.15,-7.14 30.9,-7.14 11.76,0 22.06,2.38 30.91,7.14 8.84,4.77 15.64,11.5 20.41,20.18 4.77,8.69 7.15,18.64 7.15,29.87 0,11.23 -2.38,21.19 -7.15,29.87 -4.77,8.69 -11.57,15.41 -20.41,20.18 -8.85,4.77 -19.15,7.15 -30.91,7.15zm0 -14.46c12.4,0 22.19,-3.81 29.4,-11.44 7.2,-7.62 10.8,-18.06 10.8,-31.3 0,-13.34 -3.68,-23.8 -11.04,-31.38 -7.36,-7.57 -17.4,-11.36 -30.11,-11.36 -8.05,0 -15.04,1.75 -20.97,5.25 -5.93,3.49 -10.49,8.47 -13.67,14.93 -3.17,6.46 -4.76,13.98 -4.76,22.56 0,8.79 1.64,16.39 4.92,22.8 3.29,6.41 7.95,11.33 13.98,14.78 6.04,3.44 13.19,5.16 21.45,5.16z"/>
      <path id="5" class="fil34" d="M3358.58 1396.71c-11.65,0 -21.79,-2.3 -30.42,-6.91 -8.64,-4.61 -15.26,-11.2 -19.86,-19.78 -4.61,-8.58 -6.91,-18.7 -6.91,-30.35 0,-11.65 2.3,-21.79 6.91,-30.42 4.6,-8.64 11.2,-15.28 19.78,-19.94 8.58,-4.66 18.69,-6.99 30.34,-6.99 9.54,0 18.38,1.64 26.54,4.92 8.15,3.28 14.3,7.73 18.43,13.35 1.16,1.69 1.74,3.23 1.74,4.6 0,2.33 -1.21,4.4 -3.65,6.2 -1.38,0.85 -2.81,1.27 -4.29,1.27 -1.38,0 -2.73,-0.32 -4.05,-0.95 -1.33,-0.64 -2.46,-1.48 -3.42,-2.54 -3.49,-4.24 -7.81,-7.37 -12.95,-9.38 -5.13,-2.01 -11.25,-3.02 -18.35,-3.02 -12.18,0 -21.68,3.79 -28.52,11.36 -6.83,7.58 -10.24,18.09 -10.24,31.54 0,13.24 3.44,23.65 10.32,31.22 6.89,7.57 16.42,11.36 28.6,11.36 14.41,0 25.48,-4.13 33.21,-12.39 2.54,-2.54 5.13,-3.82 7.78,-3.82 1.7,0 3.23,0.53 4.61,1.59 2.12,1.8 3.18,3.76 3.18,5.88 0,1.8 -0.64,3.5 -1.91,5.09 -4.55,5.61 -10.96,10.03 -19.22,13.26 -8.26,3.23 -17.48,4.85 -27.65,4.85z"/>
      <path id="6" class="fil34" d="M3581.86 1396.71c-11.75,0 -22.05,-2.38 -30.9,-7.15 -8.84,-4.77 -15.65,-11.49 -20.42,-20.18 -4.76,-8.68 -7.14,-18.64 -7.14,-29.87 0,-11.23 2.38,-21.18 7.14,-29.87 4.77,-8.68 11.58,-15.41 20.42,-20.18 8.85,-4.76 19.15,-7.14 30.9,-7.14 11.76,0 22.06,2.38 30.91,7.14 8.84,4.77 15.64,11.5 20.41,20.18 4.77,8.69 7.15,18.64 7.15,29.87 0,11.23 -2.38,21.19 -7.15,29.87 -4.77,8.69 -11.57,15.41 -20.41,20.18 -8.85,4.77 -19.15,7.15 -30.91,7.15zm0 -14.46c12.4,0 22.19,-3.81 29.4,-11.44 7.2,-7.62 10.8,-18.06 10.8,-31.3 0,-13.34 -3.68,-23.8 -11.04,-31.38 -7.36,-7.57 -17.4,-11.36 -30.11,-11.36 -8.05,0 -15.04,1.75 -20.97,5.25 -5.93,3.49 -10.49,8.47 -13.67,14.93 -3.17,6.46 -4.76,13.98 -4.76,22.56 0,8.79 1.64,16.39 4.92,22.8 3.29,6.41 7.95,11.33 13.98,14.78 6.04,3.44 13.19,5.16 21.45,5.16z"/>
      <path id="7" class="fil34" d="M3782.6 1395.12c-7.41,0 -13.21,-1.99 -17.4,-5.96 -4.18,-3.97 -6.27,-9.5 -6.27,-16.6l0 -81.82c0,-2.65 0.79,-4.72 2.38,-6.2 1.59,-1.48 3.76,-2.22 6.51,-2.22 2.76,0 4.96,0.76 6.6,2.3 1.64,1.53 2.46,3.57 2.46,6.12l0 81.98c0,2.54 0.66,4.55 1.99,6.04 1.32,1.48 3.15,2.22 5.48,2.22l51.48 0c5.71,0 8.57,2.38 8.57,7.15 0,2.22 -0.74,3.94 -2.22,5.16 -1.48,1.22 -3.6,1.83 -6.35,1.83l-53.23 0z"/>
     </g>
    </g>
   </g>
  </g>
 </g>
</svg>
