<?xml version="1.0" encoding="UTF-8"?>
<!DOCTYPE svg PUBLIC "-//W3C//DTD SVG 1.1//EN" "http://www.w3.org/Graphics/SVG/1.1/DTD/svg11.dtd">
<!-- Creator: CorelDRAW 2018 (64-Bit) -->
<svg xmlns="http://www.w3.org/2000/svg" xml:space="preserve" width="254mm" height="84.6666mm" version="1.1" style="shape-rendering:geometricPrecision; text-rendering:geometricPrecision; image-rendering:optimizeQuality; fill-rule:evenodd; clip-rule:evenodd"
viewBox="0 0 25400 8466.66"
 xmlns:xlink="http://www.w3.org/1999/xlink">
 <defs>
  <style type="text/css">
   <![CDATA[
    .str2 {stroke:white;stroke-width:20;stroke-miterlimit:22.9256;stroke-opacity:0.400000}
    .str3 {stroke:black;stroke-width:7.62;stroke-miterlimit:22.9256}
    .str1 {stroke:white;stroke-width:100;stroke-linecap:round;stroke-linejoin:round;stroke-miterlimit:22.9256}
    .str0 {stroke:white;stroke-width:42.33;stroke-linecap:round;stroke-linejoin:round;stroke-miterlimit:22.9256}
    .fil18 {fill:none}
    .fil8 {fill:none;fill-rule:nonzero}
    .fil22 {fill:black}
    .fil0 {fill:#001501}
    .fil12 {fill:#1EC01E}
    .fil20 {fill:#25092F}
    .fil33 {fill:#2EA7E0}
    .fil25 {fill:#454A75}
    .fil24 {fill:#62688F}
    .fil30 {fill:#8347E5}
    .fil23 {fill:#8A92B2}
    .fil27 {fill:#DCAE12}
    .fil32 {fill:#FFFFFE}
    .fil10 {fill:white}
    .fil28 {fill:black;fill-rule:nonzero}
    .fil17 {fill:#1EC01E;fill-rule:nonzero}
    .fil31 {fill:#2EA7E0;fill-rule:nonzero}
    .fil29 {fill:#8347E5;fill-rule:nonzero}
    .fil21 {fill:#8A92B2;fill-rule:nonzero}
    .fil26 {fill:#DCAE12;fill-rule:nonzero}
    .fil9 {fill:white;fill-rule:nonzero}
    .fil19 {fill:white;fill-opacity:0.400000}
    .fil2 {fill:url(#id5)}
    .fil1 {fill:url(#id6)}
    .fil5 {fill:url(#id7)}
    .fil6 {fill:url(#id8)}
    .fil3 {fill:url(#id9)}
    .fil13 {fill:url(#id10)}
    .fil11 {fill:url(#id11)}
    .fil14 {fill:url(#id12)}
    .fil15 {fill:url(#id13)}
    .fil7 {fill:url(#id14)}
    .fil4 {fill:url(#id15)}
    .fil16 {fill:url(#id16)}
   ]]>
  </style>
     <mask id="id0">
  <linearGradient id="id1" gradientUnits="userSpaceOnUse" x1="4341.34" y1="1101.54" x2="4556.39" y2="1288.36">
   <stop offset="0" style="stop-opacity:1; stop-color:white"/>
   <stop offset="1" style="stop-opacity:0; stop-color:white"/>
  </linearGradient>
      <rect style="fill:url(#id1)" x="751.56" y="564.91" width="4428.21" height="1139.83"/>
     </mask>
     <clipPath id="id2">
      <path d="M-0 8043.32l0 -7619.99c0,-232.84 285.76,-423.33 635,-423.33l24130 0c349.26,0 635,190.49 635,423.33l0 7619.99c0,232.84 -285.74,423.34 -635,423.34l-24130 0c-349.24,0 -635,-190.5 -635,-423.34z"/>
     </clipPath>
       <mask id="id3">
  <linearGradient id="id4" gradientUnits="userSpaceOnUse" x1="27209.79" y1="-2084.56" x2="12973.94" y2="6570.04">
   <stop offset="0" style="stop-opacity:1; stop-color:white"/>
   <stop offset="1" style="stop-opacity:0; stop-color:white"/>
  </linearGradient>
        <rect style="fill:url(#id4)" x="13113.38" y="-1310.12" width="15236.33" height="9771.92"/>
       </mask>
  <linearGradient id="id5" gradientUnits="userSpaceOnUse" x1="13883.2" y1="7019.85" x2="11516.8" y2="-1400.19">
   <stop offset="0" style="stop-opacity:1; stop-color:#19A019"/>
   <stop offset="0.588235" style="stop-opacity:1; stop-color:#0D5B0D"/>
   <stop offset="1" style="stop-opacity:1; stop-color:#001501"/>
  </linearGradient>
  <linearGradient id="id6" gradientUnits="userSpaceOnUse" x1="-0" y1="6875.02" x2="25400" y2="6875.02">
   <stop offset="0" style="stop-opacity:1; stop-color:#001501"/>
   <stop offset="1" style="stop-opacity:1; stop-color:#157D15"/>
  </linearGradient>
  <linearGradient id="id7" gradientUnits="userSpaceOnUse" x1="-0" y1="7056.14" x2="25400" y2="7056.14">
   <stop offset="0" style="stop-opacity:1; stop-color:#1BAB1B"/>
   <stop offset="1" style="stop-opacity:1; stop-color:#001501"/>
  </linearGradient>
  <linearGradient id="id8" gradientUnits="userSpaceOnUse" x1="22276.53" y1="-380.99" x2="21078.48" y2="2884.67">
   <stop offset="0" style="stop-opacity:1; stop-color:#19A119"/>
   <stop offset="1" style="stop-opacity:1; stop-color:#001501"/>
  </linearGradient>
  <linearGradient id="id9" gradientUnits="userSpaceOnUse" x1="-0" y1="3214.98" x2="23142.49" y2="3214.98">
   <stop offset="0" style="stop-opacity:1; stop-color:#157D15"/>
   <stop offset="0.341176" style="stop-opacity:1; stop-color:#0B490B"/>
   <stop offset="1" style="stop-opacity:1; stop-color:#001501"/>
  </linearGradient>
  <linearGradient id="id10" gradientUnits="userSpaceOnUse" x1="1101.87" y1="1115.19" x2="1179.95" y2="1376.45">
   <stop offset="0" style="stop-opacity:1; stop-color:#1EC01E"/>
   <stop offset="0.529412" style="stop-opacity:1; stop-color:#1D6E1D"/>
   <stop offset="1" style="stop-opacity:1; stop-color:#1C1C1C"/>
  </linearGradient>
  <linearGradient id="id11" gradientUnits="userSpaceOnUse" x1="1728.02" y1="1158.22" x2="1809.8" y2="1381.04">
   <stop offset="0" style="stop-opacity:1; stop-color:#1EC01E"/>
   <stop offset="0.678431" style="stop-opacity:1; stop-color:#1D6E1D"/>
   <stop offset="1" style="stop-opacity:1; stop-color:#1C1C1C"/>
  </linearGradient>
  <linearGradient id="id12" gradientUnits="userSpaceOnUse" x1="1220.04" y1="1311.9" x2="1447.78" y2="1309.67">
   <stop offset="0" style="stop-opacity:1; stop-color:#1EC01E"/>
   <stop offset="0.631373" style="stop-opacity:1; stop-color:#1D6E1D"/>
   <stop offset="1" style="stop-opacity:1; stop-color:#1C1C1C"/>
  </linearGradient>
  <linearGradient id="id13" gradientUnits="userSpaceOnUse" x1="1342.11" y1="907.98" x2="1462.23" y2="619.7">
   <stop offset="0" style="stop-opacity:1; stop-color:#1EC01E"/>
   <stop offset="0.65098" style="stop-opacity:1; stop-color:#1D6E1D"/>
   <stop offset="1" style="stop-opacity:1; stop-color:#1C1C1C"/>
  </linearGradient>
  <linearGradient id="id14" gradientUnits="userSpaceOnUse" xlink:href="#id7" x1="10249.35" y1="3289.21" x2="9405.78" y2="-1016.72">
  </linearGradient>
  <linearGradient id="id15" gradientUnits="objectBoundingBox" xlink:href="#id7" x1="25.8519%" y1="354.968%" x2="19.2018%" y2="0%">
  </linearGradient>
  <linearGradient id="id16" gradientUnits="userSpaceOnUse" x1="1688.81" y1="888.53" x2="1849.99" y2="1139.04">
   <stop offset="0" style="stop-opacity:1; stop-color:#1EC01E"/>
   <stop offset="0.670588" style="stop-opacity:1; stop-color:#1D6E1D"/>
   <stop offset="1" style="stop-opacity:1; stop-color:#1C1C1C"/>
  </linearGradient>
 </defs>
 <g id="Layer_x0020_1">
  <metadata id="CorelCorpID_0Corel-Layer"/>
  <g id="_2288182976736">
   <g>
    <path class="fil0" d="M-0 8043.32l0 -7619.99c0,-232.84 285.76,-423.33 635,-423.33l24130 0c349.27,0 635,190.49 635,423.33l0 7619.99c0,232.84 -285.73,423.34 -635,423.34l-24130 0c-349.24,0 -635,-190.5 -635,-423.34z"/>
    <path class="fil1" d="M-0 5283.38l7231.32 1940.53c7664.89,-482.97 11497.33,-724.47 11497.33,-724.47 3193.69,1103.95 4790.54,1655.92 4790.54,1655.92l1880.81 -1034.94 0 922.9c0,232.84 -285.73,423.34 -635,423.34l-24130 0c-349.24,0 -635,-190.5 -635,-423.34l0 -2759.94z"/>
    <path class="fil2" d="M-0 5619.66l12917.42 -2311.7c3635.48,-1429.91 5453.21,-2144.87 5453.21,-2144.87l7029.37 4051.41 0 -4791.17c0,-232.84 -285.73,-423.33 -635,-423.33l-24130 0c-349.24,0 -635,190.49 -635,423.33l0 5196.33z"/>
    <path class="fil3" d="M-0 6429.97l9844.61 -4635.91 971.96 -1794.06 -10181.57 0c-349.24,0 -635,190.49 -635,423.33l0 6006.64zm19160.02 -6429.97l3982.47 0 -746.87 487.27 -3235.6 -487.27z"/>
    <path class="fil4" d="M3718.85 45.58c7586.79,745.69 11380.18,1118.53 11380.18,1118.53l4556.1 -1164.11 -15936.28 0 0 45.58z"/>
    <path class="fil5" d="M-0 5645.61l6970.01 2794.38c6039.01,-741.72 9058.51,-1112.57 9058.51,-1112.57l3568.15 1139.24 -18961.67 0c-349.24,0 -635,-190.5 -635,-423.34l0 -2397.71zm23624.01 2821.05l1775.99 -1346.23 0 922.89c0,232.84 -285.73,423.34 -635,423.34l-1140.99 0z"/>
    <path class="fil6" d="M23142.49 0l-3487.36 0 -1700.12 0c183.98,102.37 362.33,201.6 535.03,297.69 2643.16,1470.66 3964.75,2205.99 3964.75,2205.99 1963.47,-631.55 2945.21,-947.32 2945.21,-947.32l0 -1133.03c0,-232.84 -285.73,-423.33 -635,-423.33l-1622.51 0z"/>
    <path class="fil4" d="M3718.85 45.58c7586.79,745.69 11380.18,1118.53 11380.18,1118.53l4556.1 -1164.11 -15936.28 0 0 45.58z"/>
    <path class="fil7" d="M-0 2272.49l6970.01 -2236.21 0 -36.28 -6335.01 0c-349.24,0 -635,190.49 -635,423.33l0 1849.16z"/>
   </g>
   <g>
    <path class="fil8 str0" d="M846.67 4861.37l0 1045.39 522.7 0c143.37,0 273.29,-58.24 367.38,-153.82 10.45,-10.46 20.91,-20.91 29.87,-31.36 77.66,-91.1 123.95,-209.08 123.95,-337.52 0,-289.72 -234.47,-522.69 -522.7,-522.69l-521.2 0zm185.19 186.67l336.01 0c185.19,0 336.02,151.09 336.02,336.77 0,185.68 -150.83,336.77 -336.02,336.77l-336.01 0 0 -673.54z"/>
   </g>
   <g>
    <path id="1" class="fil8 str0" d="M2323.67 5048.04l763.14 0 0 -186.67 -763.14 0c-155.32,0 -280.77,126.94 -280.77,282.25l0 480.88c0,155.32 125.45,282.26 280.77,282.26l763.14 0 0 -186.68 -763.14 0c-52.27,0 -95.58,-43.31 -95.58,-95.58l0 -197.13 672.04 0 0 -186.68 -672.04 0 0 -97.07c0,-52.27 43.31,-95.58 95.58,-95.58z"/>
   </g>
   <g>
    <path id="2" class="fil8 str0" d="M3661.77 5048.04l522.7 0 0 -186.67 -522.7 0c-288.23,0 -522.69,234.46 -522.69,522.69 0,288.23 234.46,522.7 522.69,522.7l522.7 0 0 -186.68 -522.7 0c-185.18,0 -336.02,-150.83 -336.02,-336.02 0,-185.18 150.84,-336.02 336.02,-336.02z"/>
   </g>
   <g>
    <path id="3" class="fil8 str0" d="M4616.07 5048.04l763.14 0 0 -186.67 -763.14 0c-155.32,0 -280.77,126.94 -280.77,282.25l0 480.88c0,155.32 125.45,282.26 280.77,282.26l763.14 0 0 -186.68 -763.14 0c-52.27,0 -95.58,-43.31 -95.58,-95.58l0 -197.13 672.04 0 0 -186.68 -672.04 0 0 -97.07c0,-52.27 43.31,-95.58 95.58,-95.58z"/>
   </g>
   <g>
    <polygon id="4" class="fil8 str0" points="6387.27,4861.37 6387.27,5526.44 5715.23,5008.97 5528.55,4865.85 5528.55,5906.76 5715.23,5906.76 5715.23,5246.17 6387.27,5763.64 6573.95,5906.76 6573.95,4862.86 "/>
   </g>
   <g>
    <polygon id="5" class="fil8 str0" points="6723.29,4861.37 6723.29,5048.04 7151.9,5048.04 7151.9,5906.76 7338.58,5906.76 7338.58,5048.04 7767.19,5048.04 7767.19,4861.37 "/>
   </g>
   <g>
    <path id="6" class="fil8 str0" d="M8612.47 5424.39c0,0 0,0 0,0 28.38,-2.99 55.26,-10.46 80.65,-22.41 97.07,-44.8 164.27,-143.36 164.27,-256.86 0,-77.66 -31.36,-147.85 -82.14,-198.63 -50.77,-50.78 -120.96,-82.14 -198.62,-82.14l-660.09 0 0 1045.4 186.68 0 0 -480.88 186.67 0c67.21,0 125.45,35.84 158.31,89.6l4.48 8.96 100.05 195.64 95.58 186.68 209.08 0 -95.58 -186.68 -149.34 -298.68zm-509.25 -180.71l0 -192.65 473.41 0c32.85,0 55.26,14.93 67.2,26.88 10.46,10.46 28.38,34.35 28.38,68.7 0,37.33 -22.4,71.68 -56.75,86.62 -11.95,5.97 -25.39,8.96 -38.83,8.96l-473.41 1.49z"/>
   </g>
   <g>
    <polygon id="7" class="fil8 str0" points="9919.22,5720.08 9481.65,4861.37 9044.07,5720.08 8948.49,5906.76 9157.57,5906.76 9253.15,5720.08 9481.65,5272.06 9710.14,5720.08 9805.72,5906.76 10014.8,5906.76 "/>
   </g>
   <g>
    <path id="8" class="fil8 str0" d="M10379.19 5718.59c-65.71,-8.96 -117.98,-61.23 -126.94,-126.94l0 -730.28 -186.68 0 0 712.36c0,52.27 11.95,101.55 34.35,146.35 31.36,65.71 85.12,119.48 150.84,152.33 44.8,22.4 94.08,34.35 146.35,34.35l530.16 0 0 -186.68 -548.08 -1.49z"/>
   </g>
   <g>
    <polygon id="9" class="fil8 str0" points="11263.3,5906.76 11263.3,4861.37 11076.62,4861.37 11076.62,5906.76 "/>
   </g>
   <g>
    <polygon id="10" class="fil8 str0" points="11794.96,5720.08 11935.34,5539.13 12053.32,5386.3 12313.17,5048.04 12458.04,4861.37 12458.04,4861.37 12223.57,4861.37 12223.57,4861.37 11415.63,4861.37 11415.63,5048.04 12080.2,5048.04 11936.83,5233.48 11818.85,5386.3 11561.98,5720.08 11418.61,5906.76 11417.12,5906.76 11653.08,5906.76 11654.58,5906.76 12462.52,5906.76 12462.52,5720.08 "/>
   </g>
   <g>
    <path id="11" class="fil8 str0" d="M12889.64 5048.04l763.14 0 0 -186.67 -763.14 0c-155.32,0 -280.77,126.94 -280.77,282.25l0 480.88c0,155.32 125.45,282.26 280.77,282.26l763.14 0 0 -186.68 -763.14 0c-52.27,0 -95.58,-43.31 -95.58,-95.58l0 -197.13 672.04 0 0 -186.68 -672.04 0 0 -97.07c0,-52.27 43.31,-95.58 95.58,-95.58z"/>
   </g>
   <g>
    <path id="12" class="fil8 str0" d="M14324.82 4861.37l-522.7 0 0 1045.39 522.7 0c143.37,0 273.29,-58.24 367.38,-153.82 10.45,-10.46 20.91,-20.91 29.87,-31.36 77.66,-91.1 123.95,-209.08 123.95,-337.52 0,-289.72 -234.47,-522.69 -522.7,-522.69l1.5 0zm-1.5 860.21l-336.01 0 0 -673.54 336.01 0c185.19,0 336.02,151.09 336.02,336.77 0,185.68 -150.83,336.77 -336.02,336.77z"/>
   </g>
   <g>
    <path id="13" class="fil8 str0" d="M1705.39 6436.92c-50.78,-50.77 -120.97,-82.13 -198.63,-82.13l-658.6 0 0 0 0 0 0 1045.39 186.68 0 0 -480.88 500.3 0 0 -1.49c2.98,0 5.97,0 8.96,0 28.37,-2.99 55.25,-10.46 80.64,-22.41 97.08,-44.8 164.28,-143.36 164.28,-256.86 0,-77.66 -31.36,-147.85 -82.14,-198.63l-1.49 -2.99zm-158.31 289.73c-11.94,5.97 -25.38,8.96 -38.82,8.96l-473.42 0 0 -192.65 473.42 0c32.85,0 55.25,14.93 67.2,26.88 10.45,10.45 28.37,34.35 28.37,68.7 0,37.33 -22.4,71.68 -56.75,86.61l0 1.5z"/>
   </g>
   <g>
    <path id="14" class="fil8 str0" d="M2631.31 6917.81c0,0 0,0 0,0 28.38,-2.99 55.26,-10.46 80.65,-22.41 97.07,-44.8 164.27,-143.36 164.27,-257.61 0,-78.41 -31.36,-148.6 -82.14,-200.87 -50.77,-50.77 -120.96,-82.13 -198.62,-82.13l-660.09 0 0 1045.39 186.68 0 0 -479.39 186.67 0c67.21,0 125.45,35.6 158.31,89.36l4.48 8.71 100.05 195.14 95.58 186.18 209.08 0 -95.58 -186.18 -149.34 -296.19zm-509.25 -182.2l0 -194.15 473.41 0c32.85,0 55.26,14.94 67.2,27.13 10.46,10.46 28.38,34.6 28.38,69.2 0,37.58 -22.4,72.18 -56.75,87.36 -11.95,5.98 -25.39,8.96 -38.83,8.96l-473.41 1.5z"/>
   </g>
   <g>
    <path id="15" class="fil8 str0" d="M3512.43 6354.79c-288.23,0 -522.69,234.46 -522.69,522.69 0,288.23 234.46,522.7 522.69,522.7 288.23,0 522.7,-234.47 522.7,-522.7 0,-288.23 -234.47,-522.69 -522.7,-522.69zm0 858.71c-185.18,0 -336.02,-150.83 -336.02,-336.02 0,-185.18 150.84,-336.02 336.02,-336.02 185.19,0 336.02,150.84 336.02,336.02 0,185.19 -150.83,336.02 -336.02,336.02z"/>
   </g>
   <g>
    <polygon id="16" class="fil8 str0" points="4048.57,6354.79 4048.57,6541.46 4477.18,6541.46 4477.18,7400.18 4663.86,7400.18 4663.86,6541.46 5092.47,6541.46 5092.47,6354.79 "/>
   </g>
   <g>
    <path id="17" class="fil8 str0" d="M5630.1 6354.79c-288.23,0 -522.69,234.46 -522.69,522.69 0,288.23 234.46,522.7 522.69,522.7 288.23,0 522.7,-234.47 522.7,-522.7 0,-288.23 -234.47,-522.69 -522.7,-522.69zm0 858.71c-185.18,0 -336.02,-150.83 -336.02,-336.02 0,-185.18 150.84,-336.02 336.02,-336.02 185.19,0 336.02,150.84 336.02,336.02 0,185.19 -150.83,336.02 -336.02,336.02z"/>
   </g>
   <g>
    <path id="18" class="fil8 str0" d="M6772.57 6541.46l522.7 0 0 -186.67 -522.7 0c-288.23,0 -522.69,234.46 -522.69,522.69 0,288.23 234.46,522.7 522.69,522.7l522.7 0 0 -186.68 -522.7 0c-185.18,0 -336.02,-150.83 -336.02,-336.02 0,-185.18 150.84,-336.02 336.02,-336.02z"/>
   </g>
   <g>
    <path id="19" class="fil8 str0" d="M7864.26 6354.79c-288.23,0 -522.69,234.46 -522.69,522.69 0,288.23 234.46,522.7 522.69,522.7 288.23,0 522.7,-234.47 522.7,-522.7 0,-288.23 -234.47,-522.69 -522.7,-522.69zm0 858.71c-185.18,0 -336.02,-150.83 -336.02,-336.02 0,-185.18 150.84,-336.02 336.02,-336.02 185.19,0 336.02,150.84 336.02,336.02 0,185.19 -150.83,336.02 -336.02,336.02z"/>
   </g>
   <g>
    <path id="20" class="fil8 str0" d="M8812.59 7212.01c-65.71,-8.96 -117.98,-61.23 -126.94,-126.94l0 -730.28 -186.68 0 0 712.36c0,52.27 11.95,101.55 34.35,146.35 31.36,65.71 85.12,119.48 150.84,152.33 44.8,22.4 94.08,34.35 146.35,34.35l530.16 0 0 -186.68 -548.08 -1.49z"/>
   </g>
   <path id="21" class="fil9" d="M846.67 4861.37l0 1045.39 522.7 0c143.37,0 273.29,-58.24 367.38,-153.82 10.45,-10.46 20.91,-20.91 29.87,-31.36 77.66,-91.1 123.95,-209.08 123.95,-337.52 0,-289.72 -234.47,-522.69 -522.7,-522.69l-521.2 0zm185.19 186.67l336.01 0c185.19,0 336.02,151.09 336.02,336.77 0,185.68 -150.83,336.77 -336.02,336.77l-336.01 0 0 -673.54z"/>
   <path id="22" class="fil9" d="M2323.67 5048.04l763.14 0 0 -186.67 -763.14 0c-155.32,0 -280.77,126.94 -280.77,282.25l0 480.88c0,155.32 125.45,282.26 280.77,282.26l763.14 0 0 -186.68 -763.14 0c-52.27,0 -95.58,-43.31 -95.58,-95.58l0 -197.13 672.04 0 0 -186.68 -672.04 0 0 -97.07c0,-52.27 43.31,-95.58 95.58,-95.58z"/>
   <path id="23" class="fil9" d="M3661.77 5048.04l522.7 0 0 -186.67 -522.7 0c-288.23,0 -522.69,234.46 -522.69,522.69 0,288.23 234.46,522.7 522.69,522.7l522.7 0 0 -186.68 -522.7 0c-185.18,0 -336.02,-150.83 -336.02,-336.02 0,-185.18 150.84,-336.02 336.02,-336.02z"/>
   <path id="24" class="fil9" d="M4616.07 5048.04l763.14 0 0 -186.67 -763.14 0c-155.32,0 -280.77,126.94 -280.77,282.25l0 480.88c0,155.32 125.45,282.26 280.77,282.26l763.14 0 0 -186.68 -763.14 0c-52.27,0 -95.58,-43.31 -95.58,-95.58l0 -197.13 672.04 0 0 -186.68 -672.04 0 0 -97.07c0,-52.27 43.31,-95.58 95.58,-95.58z"/>
   <polygon id="25" class="fil9" points="6387.27,4861.37 6387.27,5526.44 5715.23,5008.97 5528.55,4865.85 5528.55,5906.76 5715.23,5906.76 5715.23,5246.17 6387.27,5763.64 6573.95,5906.76 6573.95,4862.86 "/>
   <polygon id="26" class="fil9" points="6723.29,4861.37 6723.29,5048.04 7151.9,5048.04 7151.9,5906.76 7338.58,5906.76 7338.58,5048.04 7767.19,5048.04 7767.19,4861.37 "/>
   <path id="27" class="fil9" d="M8612.47 5424.39c0,0 0,0 0,0 28.38,-2.99 55.26,-10.46 80.65,-22.41 97.07,-44.8 164.27,-143.36 164.27,-256.86 0,-77.66 -31.36,-147.85 -82.14,-198.63 -50.77,-50.78 -120.96,-82.14 -198.62,-82.14l-660.09 0 0 1045.4 186.68 0 0 -480.88 186.67 0c67.21,0 125.45,35.84 158.31,89.6l4.48 8.96 100.05 195.64 95.58 186.68 209.08 0 -95.58 -186.68 -149.34 -298.68zm-509.25 -180.71l0 -192.65 473.41 0c32.85,0 55.26,14.93 67.2,26.88 10.46,10.46 28.38,34.35 28.38,68.7 0,37.33 -22.4,71.68 -56.75,86.62 -11.95,5.97 -25.39,8.96 -38.83,8.96l-473.41 1.49z"/>
   <polygon id="28" class="fil9" points="9919.22,5720.08 9481.65,4861.37 9044.07,5720.08 8948.49,5906.76 9157.57,5906.76 9253.15,5720.08 9481.65,5272.06 9710.14,5720.08 9805.72,5906.76 10014.8,5906.76 "/>
   <path id="29" class="fil9" d="M10379.19 5718.59c-65.71,-8.96 -117.98,-61.23 -126.94,-126.94l0 -730.28 -186.68 0 0 712.36c0,52.27 11.95,101.55 34.35,146.35 31.36,65.71 85.12,119.48 150.84,152.33 44.8,22.4 94.08,34.35 146.35,34.35l530.16 0 0 -186.68 -548.08 -1.49z"/>
   <polygon id="30" class="fil9" points="11263.3,5906.76 11263.3,4861.37 11076.62,4861.37 11076.62,5906.76 "/>
   <polygon id="31" class="fil9" points="11794.96,5720.08 11935.34,5539.13 12053.32,5386.3 12313.17,5048.04 12458.04,4861.37 12458.04,4861.37 12223.57,4861.37 12223.57,4861.37 11415.63,4861.37 11415.63,5048.04 12080.2,5048.04 11936.83,5233.48 11818.85,5386.3 11561.98,5720.08 11418.61,5906.76 11417.12,5906.76 11653.08,5906.76 11654.58,5906.76 12462.52,5906.76 12462.52,5720.08 "/>
   <path id="32" class="fil9" d="M12889.64 5048.04l763.14 0 0 -186.67 -763.14 0c-155.32,0 -280.77,126.94 -280.77,282.25l0 480.88c0,155.32 125.45,282.26 280.77,282.26l763.14 0 0 -186.68 -763.14 0c-52.27,0 -95.58,-43.31 -95.58,-95.58l0 -197.13 672.04 0 0 -186.68 -672.04 0 0 -97.07c0,-52.27 43.31,-95.58 95.58,-95.58z"/>
   <path id="33" class="fil9" d="M14324.82 4861.37l-522.7 0 0 1045.39 522.7 0c143.37,0 273.29,-58.24 367.38,-153.82 10.45,-10.46 20.91,-20.91 29.87,-31.36 77.66,-91.1 123.95,-209.08 123.95,-337.52 0,-289.72 -234.47,-522.69 -522.7,-522.69l1.5 0zm-1.5 860.21l-336.01 0 0 -673.54 336.01 0c185.19,0 336.02,151.09 336.02,336.77 0,185.68 -150.83,336.77 -336.02,336.77z"/>
   <path id="34" class="fil9" d="M1705.39 6436.92c-50.78,-50.77 -120.97,-82.13 -198.63,-82.13l-658.6 0 0 0 0 0 0 1045.39 186.68 0 0 -480.88 500.3 0 0 -1.49c2.98,0 5.97,0 8.96,0 28.37,-2.99 55.25,-10.46 80.64,-22.41 97.08,-44.8 164.28,-143.36 164.28,-256.86 0,-77.66 -31.36,-147.85 -82.14,-198.63l-1.49 -2.99zm-158.31 289.73c-11.94,5.97 -25.38,8.96 -38.82,8.96l-473.42 0 0 -192.65 473.42 0c32.85,0 55.25,14.93 67.2,26.88 10.45,10.45 28.37,34.35 28.37,68.7 0,37.33 -22.4,71.68 -56.75,86.61l0 1.5z"/>
   <path id="35" class="fil9" d="M2631.31 6917.81c0,0 0,0 0,0 28.38,-2.99 55.26,-10.46 80.65,-22.41 97.07,-44.8 164.27,-143.36 164.27,-257.61 0,-78.41 -31.36,-148.6 -82.14,-200.87 -50.77,-50.77 -120.96,-82.13 -198.62,-82.13l-660.09 0 0 1045.39 186.68 0 0 -479.39 186.67 0c67.21,0 125.45,35.6 158.31,89.36l4.48 8.71 100.05 195.14 95.58 186.18 209.08 0 -95.58 -186.18 -149.34 -296.19zm-509.25 -182.2l0 -194.15 473.41 0c32.85,0 55.26,14.94 67.2,27.13 10.46,10.46 28.38,34.6 28.38,69.2 0,37.58 -22.4,72.18 -56.75,87.36 -11.95,5.98 -25.39,8.96 -38.83,8.96l-473.41 1.5z"/>
   <path id="36" class="fil9" d="M3512.43 6354.79c-288.23,0 -522.69,234.46 -522.69,522.69 0,288.23 234.46,522.7 522.69,522.7 288.23,0 522.7,-234.47 522.7,-522.7 0,-288.23 -234.47,-522.69 -522.7,-522.69zm0 858.71c-185.18,0 -336.02,-150.83 -336.02,-336.02 0,-185.18 150.84,-336.02 336.02,-336.02 185.19,0 336.02,150.84 336.02,336.02 0,185.19 -150.83,336.02 -336.02,336.02z"/>
   <polygon id="37" class="fil9" points="4048.57,6354.79 4048.57,6541.46 4477.18,6541.46 4477.18,7400.18 4663.86,7400.18 4663.86,6541.46 5092.47,6541.46 5092.47,6354.79 "/>
   <path id="38" class="fil9" d="M5630.1 6354.79c-288.23,0 -522.69,234.46 -522.69,522.69 0,288.23 234.46,522.7 522.69,522.7 288.23,0 522.7,-234.47 522.7,-522.7 0,-288.23 -234.47,-522.69 -522.7,-522.69zm0 858.71c-185.18,0 -336.02,-150.83 -336.02,-336.02 0,-185.18 150.84,-336.02 336.02,-336.02 185.19,0 336.02,150.84 336.02,336.02 0,185.19 -150.83,336.02 -336.02,336.02z"/>
   <path id="39" class="fil9" d="M6772.57 6541.46l522.7 0 0 -186.67 -522.7 0c-288.23,0 -522.69,234.46 -522.69,522.69 0,288.23 234.46,522.7 522.69,522.7l522.7 0 0 -186.68 -522.7 0c-185.18,0 -336.02,-150.83 -336.02,-336.02 0,-185.18 150.84,-336.02 336.02,-336.02z"/>
   <path id="40" class="fil9" d="M7864.26 6354.79c-288.23,0 -522.69,234.46 -522.69,522.69 0,288.23 234.46,522.7 522.69,522.7 288.23,0 522.7,-234.47 522.7,-522.7 0,-288.23 -234.47,-522.69 -522.7,-522.69zm0 858.71c-185.18,0 -336.02,-150.83 -336.02,-336.02 0,-185.18 150.84,-336.02 336.02,-336.02 185.19,0 336.02,150.84 336.02,336.02 0,185.19 -150.83,336.02 -336.02,336.02z"/>
   <path id="41" class="fil9" d="M8812.59 7212.01c-65.71,-8.96 -117.98,-61.23 -126.94,-126.94l0 -730.28 -186.68 0 0 712.36c0,52.27 11.95,101.55 34.35,146.35 31.36,65.71 85.12,119.48 150.84,152.33 44.8,22.4 94.08,34.35 146.35,34.35l530.16 0 0 -186.68 -548.08 -1.49z"/>
   <g>
    <polygon class="fil10" style="mask:url(#id0)" points="761.56,574.91 2483.7,574.91 2503.7,574.91 5169.77,574.91 4207,1694.74 2503.7,1694.74 2483.7,1694.74 761.56,1694.74 "/>
    <g>
     <g>
      <path class="fil11" d="M1816.62 1188.37l0.01 -276.54c0,0 -49.27,28.36 -146.58,84.38l-0.39 277 146.96 -84.84z"/>
      <polygon class="fil12" points="1816.63,1357.83 1816.62,1188.37 1283.61,1496.08 1430.39,1580.82 "/>
      <polygon class="fil13" points="1190.73,1166.55 1190.73,827.2 1044.14,911.83 1044.15,1250.98 "/>
      <path class="fil14" d="M1190.46 1442.3l94.14 -54.35 -0.58 -168.63 -239.88 138.5c16.01,9.22 66.44,38.37 146.32,84.48z"/>
      <path class="fil15" d="M1283.92 1388.34c-0.03,-262.07 -0.05,-614.92 -0.05,-614.92 97.58,56.3 146.37,84.45 146.37,84.45 0,149.45 0,445.45 0,445.45 -97.55,56.32 -146.32,85.02 -146.32,85.02z"/>
      <path class="fil16" d="M1283.87 773.42c257.45,148.53 386.18,222.79 386.18,222.79 97.31,-56.02 146.58,-84.38 146.58,-84.38 -257.08,-148.9 -386.24,-223 -386.24,-223 -97.68,56.4 -146.52,84.59 -146.52,84.59z"/>
     </g>
     <g>
      <path class="fil17" d="M2108.06 1116.19c-18.64,-2.54 -33.47,-17.37 -36.02,-36.02l0 -207.21 -52.96 0 0 202.13c0,14.83 3.39,28.81 9.74,41.52 8.9,18.65 24.16,33.9 42.8,43.22 12.71,6.36 26.7,9.75 41.53,9.75l150.42 0 0 -52.97 -155.51 -0.42z"/>
      <polygon id="1" class="fil17" points="2358.91,1169.58 2358.91,872.96 2305.95,872.96 2305.95,1169.58 "/>
      <polygon id="2" class="fil17" points="2401.29,872.96 2401.29,925.93 2522.9,925.93 2522.9,1169.58 2575.87,1169.58 2575.87,925.93 2697.48,925.93 2697.48,872.96 "/>
      <path id="3" class="fil17" d="M2820.36 925.93l216.55 0 0 -52.97 -216.55 0c-44.07,0 -79.66,36.02 -79.66,80.09l0 136.44c0,44.07 35.59,80.09 79.66,80.09l216.55 0 0 -52.97 -216.55 0c-14.83,0 -27.12,-12.29 -27.12,-27.12l0 -55.93 190.7 0 0 -52.97 -190.7 0 0 -27.54c0,-14.83 12.29,-27.12 27.12,-27.12z"/>
      <path id="4" class="fil17" d="M3079.28 872.96l0 296.62 148.31 0c40.68,0 77.54,-16.53 104.24,-43.65 2.96,-2.96 5.93,-5.93 8.47,-8.89 22.04,-25.85 35.17,-59.33 35.17,-95.77 0,-82.2 -66.53,-148.31 -148.31,-148.31l-147.88 0zm52.54 52.97l95.34 0c52.55,0 95.34,42.87 95.34,95.55 0,52.69 -42.79,95.56 -95.34,95.56l-95.34 0 0 -191.11z"/>
      <path id="5" class="fil17" d="M3498.35 925.93l216.54 0 0 -52.97 -216.54 0c-44.07,0 -79.66,36.02 -79.66,80.09l0 136.44c0,44.07 35.59,80.09 79.66,80.09l216.54 0 0 -52.97 -216.54 0c-14.83,0 -27.12,-12.29 -27.12,-27.12l0 -55.93 190.69 0 0 -52.97 -190.69 0 0 -27.54c0,-14.83 12.29,-27.12 27.12,-27.12z"/>
      <path id="6" class="fil17" d="M3746.66 1170.85l0.85 -0.85 -0.85 0 0 0.85zm296.63 -0.85l-0.42 0 0.42 0.85 0 -0.85zm0 -297.04l-66.53 0 -81.36 105.65 -81.36 -105.65 -66.95 0 114.83 148.95 -113.99 148.09 66.96 0 80.93 -104.8 80.94 104.8 66.96 0 -114.41 -148.09 114.83 -148.95 -0.85 0z"/>
      <path class="fil17" d="M2227.54 1396.71c-2.76,0 -4.93,-0.74 -6.52,-2.23 -1.59,-1.48 -2.38,-3.54 -2.38,-6.19l0 -82.3c0,-6.89 2.01,-12.29 6.04,-16.21 4.02,-3.92 9.63,-5.88 16.84,-5.88l27.01 0c15.67,0 27.56,3.29 35.67,9.85 8.1,6.57 12.15,16.26 12.15,29.08 0,12.6 -4,22.16 -12,28.68 -7.99,6.51 -19.67,9.77 -35.03,9.77l-32.57 0 0 27.01c0,2.54 -0.85,4.58 -2.54,6.12 -1.7,1.53 -3.92,2.3 -6.67,2.3zm41.62 -49.73c19.28,0 28.92,-8.05 28.92,-24.15 0,-8.47 -2.41,-14.72 -7.23,-18.75 -4.82,-4.02 -12,-6.04 -21.53,-6.04l-25.26 0c-2.33,0 -4.13,0.75 -5.4,2.23 -1.27,1.48 -1.91,3.49 -1.91,6.04l0 40.67 32.41 0z"/>
      <path id="1" class="fil17" d="M2434.77 1306.15c0,-6.89 2.01,-12.32 6.04,-16.29 4.02,-3.97 9.69,-5.96 17,-5.96l28.75 0c15.36,0 26.93,3.08 34.72,9.22 7.78,6.14 11.68,15.2 11.68,27.17 0,11.33 -3.45,20.12 -10.33,26.37 -6.88,6.25 -16.42,9.38 -28.6,9.38l26.38 26.69c1.69,1.69 2.54,3.55 2.54,5.56 0,2.22 -1.06,4.23 -3.18,6.04 -2.01,1.48 -3.97,2.22 -5.88,2.22 -2.65,0 -5.19,-1.27 -7.62,-3.81l-34.96 -36.23 -17.95 0 0 31.62c0,2.65 -0.88,4.74 -2.62,6.28 -1.75,1.53 -4,2.3 -6.76,2.3 -2.86,0 -5.11,-0.77 -6.75,-2.3 -1.64,-1.54 -2.46,-3.63 -2.46,-6.28l0 -81.98zm51.64 35.75c10.16,0 17.34,-1.62 21.52,-4.85 4.19,-3.23 6.28,-8.82 6.28,-16.76 0,-7.73 -2.28,-13.3 -6.83,-16.68 -4.56,-3.39 -11.55,-5.09 -20.97,-5.09l-25.9 0c-2.23,0 -3.97,0.72 -5.25,2.15 -1.27,1.43 -1.9,3.41 -1.9,5.95l0 35.28 33.05 0z"/>
      <path id="2" class="fil17" d="M2703.34 1396.71c-11.75,0 -22.05,-2.38 -30.91,-7.15 -8.84,-4.77 -15.65,-11.49 -20.42,-20.18 -4.76,-8.68 -7.14,-18.64 -7.14,-29.87 0,-11.23 2.38,-21.18 7.14,-29.87 4.77,-8.68 11.58,-15.41 20.42,-20.18 8.86,-4.76 19.16,-7.14 30.91,-7.14 11.76,0 22.06,2.38 30.91,7.14 8.84,4.77 15.64,11.5 20.41,20.18 4.77,8.69 7.15,18.64 7.15,29.87 0,11.23 -2.38,21.19 -7.15,29.87 -4.77,8.69 -11.57,15.41 -20.41,20.18 -8.85,4.77 -19.15,7.15 -30.91,7.15zm0 -14.46c12.4,0 22.19,-3.81 29.4,-11.44 7.2,-7.62 10.8,-18.06 10.8,-31.3 0,-13.34 -3.68,-23.8 -11.04,-31.38 -7.36,-7.57 -17.4,-11.36 -30.11,-11.36 -8.05,0 -15.04,1.75 -20.97,5.25 -5.94,3.49 -10.5,8.47 -13.68,14.93 -3.17,6.46 -4.76,13.98 -4.76,22.56 0,8.79 1.64,16.39 4.92,22.8 3.29,6.41 7.95,11.33 13.99,14.78 6.04,3.44 13.19,5.16 21.45,5.16z"/>
      <path id="3" class="fil17" d="M2915.03 1396.71c-2.75,0 -4.95,-0.74 -6.59,-2.23 -1.65,-1.48 -2.47,-3.54 -2.47,-6.19l0 -90.25 -32.57 0c-2.75,0 -4.87,-0.6 -6.35,-1.82 -1.48,-1.22 -2.23,-2.94 -2.23,-5.17 0,-2.33 0.75,-4.1 2.23,-5.32 1.48,-1.22 3.6,-1.83 6.35,-1.83l83.26 0c2.75,0 4.9,0.61 6.43,1.83 1.54,1.22 2.31,2.99 2.31,5.32 0,2.23 -0.77,3.95 -2.31,5.17 -1.53,1.22 -3.68,1.82 -6.43,1.82l-32.57 0 0 90.25c0,2.54 -0.82,4.58 -2.47,6.12 -1.64,1.53 -3.84,2.3 -6.59,2.3z"/>
      <path id="4" class="fil17" d="M3126.87 1396.71c-11.75,0 -22.05,-2.38 -30.9,-7.15 -8.84,-4.77 -15.65,-11.49 -20.42,-20.18 -4.76,-8.68 -7.14,-18.64 -7.14,-29.87 0,-11.23 2.38,-21.18 7.14,-29.87 4.77,-8.68 11.58,-15.41 20.42,-20.18 8.85,-4.76 19.15,-7.14 30.9,-7.14 11.76,0 22.06,2.38 30.91,7.14 8.84,4.77 15.64,11.5 20.41,20.18 4.77,8.69 7.15,18.64 7.15,29.87 0,11.23 -2.38,21.19 -7.15,29.87 -4.77,8.69 -11.57,15.41 -20.41,20.18 -8.85,4.77 -19.15,7.15 -30.91,7.15zm0 -14.46c12.4,0 22.19,-3.81 29.4,-11.44 7.2,-7.62 10.8,-18.06 10.8,-31.3 0,-13.34 -3.68,-23.8 -11.04,-31.38 -7.36,-7.57 -17.4,-11.36 -30.11,-11.36 -8.05,0 -15.04,1.75 -20.97,5.25 -5.93,3.49 -10.49,8.47 -13.67,14.93 -3.17,6.46 -4.76,13.98 -4.76,22.56 0,8.79 1.64,16.39 4.92,22.8 3.29,6.41 7.95,11.33 13.98,14.78 6.04,3.44 13.19,5.16 21.45,5.16z"/>
      <path id="5" class="fil17" d="M3358.58 1396.71c-11.65,0 -21.79,-2.3 -30.42,-6.91 -8.64,-4.61 -15.26,-11.2 -19.86,-19.78 -4.61,-8.58 -6.91,-18.7 -6.91,-30.35 0,-11.65 2.3,-21.79 6.91,-30.42 4.6,-8.64 11.2,-15.28 19.78,-19.94 8.58,-4.66 18.69,-6.99 30.34,-6.99 9.54,0 18.38,1.64 26.54,4.92 8.15,3.28 14.3,7.73 18.43,13.35 1.16,1.69 1.74,3.23 1.74,4.6 0,2.33 -1.21,4.4 -3.65,6.2 -1.38,0.85 -2.81,1.27 -4.29,1.27 -1.38,0 -2.73,-0.32 -4.05,-0.95 -1.33,-0.64 -2.46,-1.48 -3.42,-2.54 -3.49,-4.24 -7.81,-7.37 -12.95,-9.38 -5.13,-2.01 -11.25,-3.02 -18.35,-3.02 -12.18,0 -21.68,3.79 -28.52,11.36 -6.83,7.58 -10.24,18.09 -10.24,31.54 0,13.24 3.44,23.65 10.32,31.22 6.89,7.57 16.42,11.36 28.6,11.36 14.41,0 25.48,-4.13 33.21,-12.39 2.54,-2.54 5.13,-3.82 7.78,-3.82 1.7,0 3.23,0.53 4.61,1.59 2.12,1.8 3.18,3.76 3.18,5.88 0,1.8 -0.64,3.5 -1.91,5.09 -4.55,5.61 -10.96,10.03 -19.22,13.26 -8.26,3.23 -17.48,4.85 -27.65,4.85z"/>
      <path id="6" class="fil17" d="M3581.86 1396.71c-11.75,0 -22.05,-2.38 -30.9,-7.15 -8.84,-4.77 -15.65,-11.49 -20.42,-20.18 -4.76,-8.68 -7.14,-18.64 -7.14,-29.87 0,-11.23 2.38,-21.18 7.14,-29.87 4.77,-8.68 11.58,-15.41 20.42,-20.18 8.85,-4.76 19.15,-7.14 30.9,-7.14 11.76,0 22.06,2.38 30.91,7.14 8.84,4.77 15.64,11.5 20.41,20.18 4.77,8.69 7.15,18.64 7.15,29.87 0,11.23 -2.38,21.19 -7.15,29.87 -4.77,8.69 -11.57,15.41 -20.41,20.18 -8.85,4.77 -19.15,7.15 -30.91,7.15zm0 -14.46c12.4,0 22.19,-3.81 29.4,-11.44 7.2,-7.62 10.8,-18.06 10.8,-31.3 0,-13.34 -3.68,-23.8 -11.04,-31.38 -7.36,-7.57 -17.4,-11.36 -30.11,-11.36 -8.05,0 -15.04,1.75 -20.97,5.25 -5.93,3.49 -10.49,8.47 -13.67,14.93 -3.17,6.46 -4.76,13.98 -4.76,22.56 0,8.79 1.64,16.39 4.92,22.8 3.29,6.41 7.95,11.33 13.98,14.78 6.04,3.44 13.19,5.16 21.45,5.16z"/>
      <path id="7" class="fil17" d="M3782.6 1395.12c-7.41,0 -13.21,-1.99 -17.4,-5.96 -4.18,-3.97 -6.27,-9.5 -6.27,-16.6l0 -81.82c0,-2.65 0.79,-4.72 2.38,-6.2 1.59,-1.48 3.76,-2.22 6.51,-2.22 2.76,0 4.96,0.76 6.6,2.3 1.64,1.53 2.46,3.57 2.46,6.12l0 81.98c0,2.54 0.66,4.55 1.99,6.04 1.32,1.48 3.15,2.22 5.48,2.22l51.48 0c5.71,0 8.57,2.38 8.57,7.15 0,2.22 -0.74,3.94 -2.22,5.16 -1.48,1.22 -3.6,1.83 -6.35,1.83l-53.23 0z"/>
     </g>
    </g>
   </g>
   <g>
    <g>
    </g>
    <g style="clip-path:url(#id2)">
     <g>
      <path class="fil10 str1" style="mask:url(#id3)" d="M17083.07 -349.19l53.44 439.89m7510.36 3045.1l151.64 -464.16m1821.58 2032.31l426.99 -342.98m245.71 30.58l364.53 483.09m-23.63 -1146.66l-332.14 386.75m58.71 168.6l662.37 127.88m-2680.52 -174.55l525.17 -480.9m131.85 57.75l1.63 405.33m1026.98 -50.89l-871.37 -450.58m-5.03 -172.37l493.05 -292.33m-976.47 -123.23l233.3 357.37m-75.87 108.16l-1060.64 -249.46m-203.43 134.48l-123.95 714.57m-312.31 -607.04l314.58 -190.6m8.53 -197.1l-320 -234.04m-3515.69 -490.37l162.26 412.35m219.98 61.35l357.54 -273.01m-1890.88 210.03l1194.84 153.78m-1179.53 -554.86l-113.29 210.11m-274.35 123.25l-823.29 -194.35m621.92 1099.88l308.38 -689.03m206.74 -34.55l578.39 618.93m-2098 614.84l35.44 -519.1m-456.57 1122.03l275.21 -279.05m-42.68 -205.84l-391.69 -158.21m1633.43 -233.06l334.35 308.25m-50.13 131.56l-1160.86 19.28m-175.04 192.06l58.58 770.55m2669.1 -703.98l-1017.86 -237.93m-50.21 -176.74l433.02 -430.76m-1088.37 1356.62l416.94 -633.95m151.29 25.24l107.55 418.29m1558.72 -933.55l-242.12 486.29m104.69 158.85l717.65 -40.88m-1372.46 668.7l351.55 -465.83m261.81 -32.58l502.75 403.85m942.86 -1252.03l470.26 455.14m-1725.69 -653.3l-220.49 -553.89m94.9 -82.88l1079.91 610m80.06 262.57l-249.98 498.59m530.79 -1646.66l-158.7 792.89m148.45 147.81l455.21 -93.12m3195.01 1536.47l-25.75 442.38m173.92 147.99l439.11 -97.77m-1804.46 -602.84l1020 640.98m-837.8 -998.61l-191.02 143.17m-300.73 -3.25l-665.73 -521.91m102.95 1259.34l569.06 -496.02m202.16 55.4l265.24 804.5m-2162.33 -322.31l250.02 -456.33m-885.3 826.86l366.91 -137.78m47.65 -204.75l-289.14 -307.98m1580.45 473.91l174.12 420.1m-100.71 98.37l-1061.78 -469.63m-239.49 100.86l-270.18 724.01m2718.14 481.07l-824.06 -643.1m28.6 -181.49l573.81 -209.29m-1557.19 774.67l644.48 -400.48m126.74 86.4l-77.92 424.82m1806.58 -193.27l-423.83 339.79m28.37 188.12l668.55 264.06m-1526.38 31.03l514.58 -275.31m251.32 80.3l286.86 577.55m1381.23 -740.79l235.85 610.48m-1292.22 -1317.2l32.3 -595.27m120.91 -35.41l724.25 1006.87m-37.54 271.94l-436.12 347.65m1172.81 -1271.91l-476.79 653.1m72.72 196.47l452.28 106.5m-4345.43 -7973.17l56.26 439.54m198.22 113.4l413.56 -177.06m-1884.69 -259.8l1120.71 441.93m-1007.57 -827.04l-161.34 175.95m-296.19 52.25l-750.54 -390.21m333.39 1218.76l467.85 -592.44m208.91 17.18l409.03 741.81m-2184.69 81.88l161.59 -494.59m-717.64 975.93l335.19 -203.09m9.09 -210.02l-340.97 -249.39m1640.73 174.39l248.59 380.8m-80.84 115.25l-1130.17 -265.82m-216.78 143.3l-132.06 761.42m2760.23 -28.36l-928.49 -480.12m-5.36 -183.66l525.37 -311.5m-1387.65 1048.49l559.59 -512.42m140.49 61.54l1.74 431.89m1739.99 -523.03l-353.92 412.1m62.56 179.66l705.79 136.27m-1494.49 311.93l454.99 -365.47m261.82 32.58l388.42 514.76m1220.96 -982.75l344.37 556.51m-1512.94 -1056.34l-77.99 -591.04m112.3 -57.09l897.48 856.08m13.25 274.18l-364.55 422.12m918.19 -1466.35l-348.2 729.81m107.7 179.7l464.15 21.28m-7861.35 -958.39l414.68 -174.41m-1882.97 -271.86l1117.85 449.09m-1002.25 -833.45l-162.46 174.9m-296.51 50.35l-748.05 -395m325.6 1220.87l471.62 -589.43m208.79 18.52l404.28 744.41m-2185.17 67.89l164.76 -493.53m-723.89 971.29l336.5 -200.92m10.43 -209.97l-339.38 -251.57m1639.59 184.89l246.16 382.38m-81.58 114.74l-1128.45 -273.05m-217.69 141.91l-136.93 760.55m2760.35 -10.68l-925.41 -486.06m-4.18 -183.69l527.36 -308.13m-1394.34 1039.58l562.87 -508.83m140.09 62.45l-1.02 431.89m1743.3 -511.89l-356.54 409.84m61.4 180.06l704.9 140.77m-1496.45 302.36l457.32 -362.55m261.6 34.26l385.12 517.23m1227.23 -974.91l340.81 558.71m-1506.15 -1066.02l-74.22 -591.5m112.67 -56.37l891.97 861.79m11.5 274.26l-367.22 419.78m927.53 -1460.45l-352.86 727.57m106.54 180.38l464.01 24.25m-3239.61 -1932.97c31.51,8.18 59.08,23.82 81.35,44.54 49.31,45.88 72.53,116.67 54.42,186.44 -1.82,7.01 -4.03,13.81 -6.56,20.42l-1 2.6c-16.81,42.01 -47.6,75.31 -85.41,95.85 -40.73,22.14 -89.61,29.47 -138.01,16.9 -26.7,-6.93 -50.57,-19.22 -70.78,-35.42 -56.48,-45.26 -84.35,-120.99 -64.99,-195.56 3.77,-14.51 9.12,-28.18 15.82,-40.88 40.06,-76.02 128.4,-117.42 215.16,-94.89zm11491.79 4572.17c27.61,6.98 52.06,20.08 72.27,37.47 47.08,40.49 71.19,104.29 58.71,168.6 -0.63,3.29 -1.35,6.58 -2.19,9.88 -10.33,40.86 -34.04,74.81 -65.28,98.34 -41.53,31.3 -96.33,44.19 -150.67,30.46 -38.99,-9.86 -71.68,-31.89 -95.04,-61.04 -33.67,-41.98 -47.95,-98.7 -33.75,-154.91 3.41,-13.51 8.29,-26.25 14.41,-38.11 21.01,-40.71 56.72,-71.04 98.6,-85.92 31.98,-11.36 67.56,-13.72 102.94,-4.77zm-2353.09 -1674.03c74.86,18.92 120.2,94.94 101.27,169.79 -18.92,74.86 -94.94,120.2 -169.79,101.27 -2.68,-0.67 -5.3,-1.42 -7.9,-2.25l-1.26 -0.4c-69.35,-22.58 -110.25,-95.39 -92.12,-167.14 18.93,-74.86 94.95,-120.2 169.8,-101.27zm-826.67 344.47c74.86,18.93 120.2,94.95 101.28,169.8 -4.54,17.95 -12.37,34.2 -22.67,48.28 -26.14,35.73 -68.24,57.43 -113.19,57.28 -11.2,-0.03 -22.58,-1.42 -33.94,-4.29 -74.85,-18.92 -120.2,-94.95 -101.27,-169.79 18.92,-74.86 94.95,-120.19 169.79,-101.28zm-9.8 776.72c37.09,9.37 66.94,32.77 85.3,63.1 18.71,30.87 25.52,68.92 15.98,106.69 -18.93,74.85 -94.95,120.2 -169.8,101.27 -74.85,-18.92 -120.2,-94.94 -101.27,-169.79 16.72,-66.18 78.09,-109.28 143.81,-105.3 8.62,0.52 17.31,1.83 25.98,4.03zm407.98 672.35c22.8,5.76 42.84,16.82 59.19,31.53 37.31,33.59 55.25,86.21 42.08,138.26 -18.92,74.86 -94.94,120.19 -169.8,101.28 -74.85,-18.93 -120.19,-94.95 -101.27,-169.8 18.06,-71.4 88.05,-115.94 159.43,-103.48 3.46,0.6 6.92,1.33 10.37,2.21zm1178.06 -1319.92c74.86,18.92 120.2,94.95 101.27,169.8 -8.96,35.45 -30.72,64.27 -59.11,82.79 -31.55,20.59 -71.28,28.45 -110.68,18.48 -20.76,-5.24 -39.25,-14.89 -54.72,-27.68 -40.33,-33.32 -60.23,-88.02 -46.55,-142.12 18.92,-74.85 94.94,-120.18 169.79,-101.27zm1173.15 168.99c74.85,18.92 120.19,94.93 101.27,169.8 -11.38,45.01 -43.43,79.34 -83.44,95.46 -26.52,10.67 -56.53,13.34 -86.36,5.81 -37.55,-9.5 -67.68,-33.36 -85.99,-64.24 -18.19,-30.68 -24.71,-68.26 -15.28,-105.56 18.92,-74.86 94.94,-120.2 169.8,-101.27zm-1525.64 1149.69c27.51,6.96 51.03,21.64 68.84,41.13 24.28,26.57 37.94,62.08 36.64,99.23 -0.36,9.75 -1.72,19.61 -4.21,29.44 -18.92,74.86 -94.94,120.2 -169.8,101.27 -74.84,-18.92 -120.18,-94.94 -101.27,-169.8 18.93,-74.85 94.95,-120.19 169.8,-101.27zm762.32 27.61c74.86,18.91 120.2,94.93 101.26,169.79 -18.91,74.85 -94.93,120.19 -169.79,101.28 -65.11,-16.47 -107.88,-76.14 -105.46,-140.65 0.36,-9.66 1.72,-19.42 4.19,-29.16 15.98,-63.2 72.67,-105.36 134.97,-105.56 11.49,-0.05 23.17,1.34 34.83,4.3zm509.76 432.83c30.66,7.75 56.37,25.08 74.74,47.98 23.78,29.66 35.25,68.65 29.25,108.31 -0.68,4.49 -1.58,9 -2.72,13.5 -18.91,74.86 -94.94,120.2 -169.79,101.28 -74.85,-18.92 -120.19,-94.95 -101.27,-169.8 18.93,-74.85 94.94,-120.19 169.79,-101.27zm1230.44 194.72c74.84,18.93 120.19,94.94 101.27,169.79 -18.92,74.86 -94.95,120.21 -169.8,101.27 -70.76,-17.88 -115.13,-86.8 -103.79,-157.52 0.66,-4.08 1.49,-8.18 2.52,-12.27 8.12,-32.13 26.77,-58.82 51.33,-77.32 32.65,-24.61 75.75,-34.75 118.47,-23.95zm418.35 -548.51c74.86,18.92 120.2,94.95 101.27,169.8 -18.92,74.85 -94.94,120.19 -169.79,101.27 -72.27,-18.27 -117.02,-89.76 -102.99,-162.04 0.5,-2.59 1.06,-5.17 1.72,-7.76 10.14,-40.13 36.69,-71.76 70.68,-89.58 29.41,-15.41 64.38,-20.47 99.11,-11.69zm-435.1 -815.82c74.86,18.93 120.2,94.94 101.28,169.81 -9.52,37.67 -33.51,67.86 -64.54,86.15 -30.62,18.06 -68.08,24.51 -105.26,15.12 -21.71,-5.5 -40.93,-15.79 -56.83,-29.46 -38.92,-33.47 -57.87,-87.2 -44.44,-140.34 18.92,-74.86 94.95,-120.2 169.79,-101.28zm-3123.81 -353.93c3.95,0.99 7.82,2.13 11.64,3.37 1.87,0.61 3.75,1.24 5.58,1.91 83.89,30.42 133.08,119.42 112.26,207.8l-0.68 2.87c-22.96,90.81 -111.97,147.46 -202.75,131.61 -4.4,-0.76 -8.8,-1.7 -13.2,-2.81 -47.16,-11.93 -85.11,-41.69 -108.48,-80.26 -23.79,-39.26 -32.46,-87.66 -20.32,-135.69 5.78,-22.84 15.74,-43.5 28.85,-61.41 41.53,-56.74 114.74,-85.68 187.1,-67.39zm1406.76 330.87c47.76,12.08 86.08,42.43 109.35,81.7 23.13,39 31.44,86.82 19.45,134.25 -3.42,13.5 -8.29,26.26 -14.42,38.12 -30.33,58.78 -91.31,95.93 -157.24,96.14 -14.62,0.05 -29.48,-1.71 -44.29,-5.46 -34.99,-8.85 -64.91,-27.51 -87.56,-52.29 -38.37,-41.98 -55.88,-101.52 -41.93,-160.79l0.68 -2.87c11.4,-45.09 39.1,-81.73 75.19,-105.29 40.12,-26.18 90.65,-36.18 140.77,-23.51zm-6768.56 -790.81c32.54,0 63.18,8.21 89.93,22.67 59.26,32.03 99.52,94.7 99.52,166.79 0,7.87 -0.49,15.62 -1.43,23.23l-0.11 0.95c-5.71,44.87 -27.14,84.84 -58.58,114.23 -33.85,31.65 -79.33,51.04 -129.33,51.04 -27.58,0 -53.77,-5.9 -77.41,-16.49 -66.04,-29.6 -112.04,-95.91 -112.04,-172.96 0,-14.99 1.74,-29.56 5.03,-43.54 19.67,-83.64 94.77,-145.92 184.42,-145.92zm273.94 -467.55c82.27,0 148.96,66.7 148.96,148.97 0,82.27 -66.69,148.96 -148.96,148.96 -25.6,0 -49.69,-6.45 -70.72,-17.82 -39.44,-21.31 -68.16,-59.9 -76.06,-105.62 -1.43,-8.3 -2.19,-16.82 -2.19,-25.52 0,-82.27 66.7,-148.97 148.97,-148.97zm-1426.65 235.93c74.04,0 135.45,54.02 146.99,124.8 1.28,7.86 1.97,15.93 1.97,24.16 0,11.79 -1.38,23.23 -3.96,34.23 -15.47,65.77 -74.52,114.73 -145,114.73 -82.27,0 -148.97,-66.69 -148.97,-148.96 0,-82.27 66.7,-148.96 148.97,-148.96zm-191.99 976.58c82.27,0 148.97,66.69 148.97,148.96 0,82.27 -66.7,148.96 -148.97,148.96 -2.92,0 -5.8,-0.1 -8.68,-0.26l-1.46 -0.08c-77.54,-5.22 -138.82,-69.76 -138.82,-148.62 0,-82.27 66.69,-148.96 148.96,-148.96zm-764.02 571.75c82.27,0 148.96,66.69 148.96,148.96 0,19.74 -3.84,38.57 -10.81,55.8 -17.69,43.75 -55.53,77.17 -102.02,88.75 -11.57,2.88 -23.67,4.42 -36.13,4.42 -82.27,0 -148.96,-66.69 -148.96,-148.97 0,-82.27 66.69,-148.96 148.96,-148.96zm192.71 804.95c40.77,0 77.7,16.38 104.6,42.91 27.38,27.01 44.36,64.55 44.36,106.06 0,82.27 -66.69,148.96 -148.96,148.96 -82.27,0 -148.96,-66.69 -148.96,-148.96 0,-72.66 52.03,-133.17 120.86,-146.31 9.1,-1.74 18.49,-2.66 28.1,-2.66zm597.06 588.03c25.09,0 48.72,6.21 69.46,17.16 47.28,24.97 79.5,74.62 79.5,131.8 0,82.27 -66.69,148.97 -148.96,148.97 -82.27,0 -148.96,-66.7 -148.96,-148.97 0,-78.47 60.67,-142.77 137.67,-148.54 3.73,-0.28 7.49,-0.42 11.29,-0.42zm872.3 -1671.21c21.68,0 42.28,4.64 60.86,12.97 47.66,21.36 82.04,67.02 87.37,121.23 0.48,4.86 0.73,9.78 0.73,14.76 0,38.96 -14.96,74.42 -39.45,100.97 -27.22,29.51 -66.2,48 -109.51,48 -22.42,0 -43.68,-4.97 -62.75,-13.83 -50.92,-23.68 -86.22,-75.29 -86.22,-135.14 0,-82.27 66.7,-148.96 148.97,-148.96zm1256.06 -131.8c82.27,0 148.96,66.69 148.96,148.96 0,49.52 -24.17,93.4 -61.35,120.48 -24.59,17.91 -54.86,28.48 -87.61,28.48 -41.27,0 -78.63,-16.78 -105.6,-43.9 -23.35,-23.46 -38.92,-54.66 -42.54,-89.41 -0.54,-5.15 -0.82,-10.36 -0.82,-15.65 0,-42.95 18.18,-81.65 47.27,-108.84 26.62,-24.88 62.37,-40.12 101.69,-40.12zm-1275.82 1586.14c30.24,0 58.36,9.01 81.85,24.5 32.48,21.4 56.09,55.19 64.12,94.62 1.95,9.65 2.99,19.62 2.99,29.84 0,82.27 -66.69,148.96 -148.96,148.96 -82.28,0 -148.97,-66.69 -148.97,-148.96 0,-82.27 66.69,-148.96 148.97,-148.96zm794.73 -170.58c82.27,0 148.96,66.69 148.96,148.96 0,82.27 -66.69,148.96 -148.96,148.96 -71.44,0 -131.1,-50.27 -145.6,-117.37 -2.19,-10.18 -3.37,-20.75 -3.37,-31.59 0,-69.46 47.55,-127.81 111.87,-144.3 11.86,-3.04 24.29,-4.66 37.1,-4.66zm639.65 314.02c33.7,0 64.77,11.18 89.73,30.05 32.79,24.78 54.99,62.79 58.69,106.1 0.35,4.22 0.55,8.49 0.55,12.81 0,82.27 -66.7,148.96 -148.97,148.96 -82.27,0 -148.96,-66.69 -148.96,-148.96 0,-82.27 66.69,-148.96 148.96,-148.96zm1321.96 -120.18c82.27,0 148.97,66.69 148.97,148.96 0,82.27 -66.7,148.96 -148.97,148.96 -77.69,0 -141.48,-59.48 -148.34,-135.39 -0.41,-4.47 -0.62,-9 -0.62,-13.57 0,-35.32 12.31,-67.76 32.84,-93.29 27.31,-33.94 69.17,-55.67 116.12,-55.67zm288.95 -675.9c24,0 46.68,5.69 66.76,15.77 48.75,24.49 82.2,74.93 82.2,133.19 0,82.27 -66.69,148.97 -148.96,148.97 -79.43,0 -144.33,-62.17 -148.72,-140.5 -0.16,-2.8 -0.25,-5.62 -0.25,-8.47 0,-44.04 19.11,-83.6 49.5,-110.88 26.37,-23.67 61.24,-38.08 99.47,-38.08zm1115.08 -110.68c82.27,0 148.96,66.69 148.96,148.96 0,82.27 -66.69,148.96 -148.96,148.96 -82.27,0 -148.96,-66.69 -148.96,-148.96 0,-40.26 15.97,-76.79 41.93,-103.6l0.62 -0.63c27.04,-27.61 64.72,-44.73 106.41,-44.73zm73.41 -851.45c82.27,0 148.96,66.69 148.96,148.96 0,82.27 -66.69,148.96 -148.96,148.96 -72.05,0 -132.15,-51.14 -145.98,-119.1 -1.96,-9.64 -2.99,-19.63 -2.99,-29.86 0,-55.27 30.1,-103.51 74.8,-129.22 21.84,-12.56 47.17,-19.74 74.17,-19.74zm-561.7 -963.82c82.27,0 148.96,66.7 148.96,148.97 0,52.63 -27.3,98.89 -68.52,125.39 -23.19,14.91 -50.8,23.57 -80.44,23.57 -10.01,0 -19.78,-0.99 -29.24,-2.87 -68.27,-13.59 -119.72,-73.83 -119.72,-146.09 0,-82.27 66.69,-148.97 148.96,-148.97zm-1289.33 1196.79c82.27,0 148.97,66.69 148.97,148.97 0,41.77 -17.2,79.51 -44.9,106.57 -26.84,26.22 -63.57,42.39 -104.07,42.39 -23.86,0 -46.4,-5.62 -66.4,-15.6 -48.94,-24.41 -82.56,-74.95 -82.56,-133.36 0,-62.81 38.87,-116.52 93.86,-138.43 17.04,-6.79 35.64,-10.54 55.1,-10.54zm-631.9 -1595.71c82.27,0 148.96,66.69 148.96,148.96 0,12.91 -1.64,25.42 -4.72,37.37 -11.98,46.35 -45.72,83.97 -89.67,101.28 -16.9,6.66 -35.31,10.31 -54.57,10.31 -82.27,0 -148.96,-66.69 -148.96,-148.96 0,-82.27 66.69,-148.96 148.96,-148.96zm912.74 248.93c82.27,0 148.96,66.69 148.96,148.96 0,82.27 -66.69,148.96 -148.96,148.96 -48.27,0 -91.17,-22.96 -118.39,-58.55 -19.17,-25.07 -30.57,-56.41 -30.57,-90.41 0,-13.69 1.85,-26.96 5.32,-39.55 17.32,-63.07 75.06,-109.41 143.64,-109.41zm-3600.36 1796.96c4.33,0 8.63,0.16 12.9,0.44 2.2,0.15 4.39,0.32 6.57,0.55 94.46,9.64 168.36,88.68 169.93,185.31l0.05 3.15c0,99.79 -77.17,181.57 -175.09,188.91 -4.75,0.36 -9.53,0.54 -14.36,0.54 -51.85,0 -98.82,-20.84 -133.02,-54.58 -34.84,-34.36 -56.43,-82.08 -56.43,-134.87 0,-25.1 4.88,-49.05 13.75,-70.97 28.08,-69.46 96.16,-118.48 175.7,-118.48zm1539.67 -25.58c52.49,0 100,21.35 134.3,55.84 34.08,34.26 55.15,81.47 55.15,133.61 0,14.83 -1.71,29.28 -4.94,43.13 -15.98,68.64 -69.26,122.97 -137.33,140.41 -15.08,3.87 -30.89,5.92 -47.18,5.92 -38.46,0 -74.24,-11.47 -104.11,-31.16 -50.59,-33.34 -84.24,-90.28 -85.3,-155.15l-0.04 -3.15c0,-49.55 19.03,-94.65 50.17,-128.41 34.61,-37.53 84.19,-61.04 139.28,-61.04zm1386.88 324.19c30.35,0 59.02,7.15 84.45,19.83 59.2,29.54 100.78,89.16 104.69,158.85 0.2,3.56 0.31,7.15 0.31,10.77 0,44.91 -15.64,86.16 -41.76,118.64 -34.72,43.17 -87.97,70.81 -147.69,70.81 -42.86,0 -82.38,-14.24 -114.12,-38.23 -45.76,-34.59 -75.33,-89.45 -75.33,-151.22 0,-14.84 1.71,-29.28 4.94,-43.13 11,-47.26 39.69,-87.73 78.7,-114.05 30.21,-20.38 66.62,-32.27 105.81,-32.27zm1457.17 -861.28c12.73,0 25.17,1.26 37.19,3.65 74.54,14.84 133.31,73.38 148.45,147.81 2.5,12.27 3.81,24.98 3.81,37.99 0,49.47 -18.98,94.52 -50.03,128.26l-3.29 3.48c-34.44,35.58 -82.69,57.71 -136.13,57.71 -30.54,0 -59.37,-7.23 -84.92,-20.07 -61.99,-31.13 -104.54,-95.28 -104.54,-169.38 0,-33.88 8.9,-65.67 24.48,-93.19 32.53,-57.47 94.22,-96.26 164.98,-96.26zm-1409.87 -796.38c61.4,0 115.95,29.21 150.58,74.47 24.38,31.89 38.87,71.74 38.87,114.98 0,33.88 -8.89,65.67 -24.47,93.19 -21.15,37.36 -54.62,66.83 -94.9,82.88 -21.67,8.63 -45.32,13.38 -70.08,13.38 -104.64,0 -189.45,-84.82 -189.45,-189.45 0,-8.19 0.51,-16.26 1.53,-24.18l0.01 -0.13c8.9,-69.49 55.44,-127.18 118.51,-152.02 21.49,-8.47 44.91,-13.12 69.4,-13.12zm3947.62 2008.18c29.54,13.65 53.89,33.96 72.11,58.31 40.35,53.93 50.61,127.72 20.36,193.15 -2.87,6.2 -6.04,12.17 -9.47,17.9l-2.07 3.41c-24.02,38.33 -60.25,65.61 -101.11,79.1 -44.03,14.52 -93.43,13.04 -138.82,-7.95 -25.03,-11.57 -46.33,-27.92 -63.34,-47.45 -47.52,-54.59 -61.45,-134.07 -29.12,-204.02 6.29,-13.59 13.99,-26.08 22.84,-37.39 52.95,-67.67 147.25,-92.68 228.62,-55.06zm444.86 -309.43c74.67,34.51 107.22,123.04 72.7,197.72 -34.53,74.67 -123.05,107.22 -197.72,72.7 -23.23,-10.74 -42.39,-26.7 -56.71,-45.85 -27.48,-36.73 -37.2,-85.18 -23.84,-130.92 2.05,-7.07 4.66,-14.08 7.84,-20.96 34.53,-74.68 123.05,-107.22 197.73,-72.69zm-1393.96 -384.54c67.09,31.01 100.16,105.61 81.16,174.6 -2.15,7.79 -4.96,15.53 -8.46,23.12 -4.94,10.69 -10.99,20.51 -17.95,29.4 -41.64,53.22 -115.79,72.88 -179.77,43.29 -74.68,-34.52 -107.22,-123.04 -72.71,-197.72 34.53,-74.68 123.05,-107.22 197.73,-72.69zm-584.08 805.85c74.68,34.52 107.23,123.05 72.71,197.73 -34.53,74.67 -123.05,107.22 -197.73,72.7 -2.7,-1.25 -5.34,-2.57 -7.92,-3.96l-1.13 -0.62c-68.2,-37.28 -96.74,-121.57 -63.65,-193.15 34.53,-74.68 123.05,-107.22 197.72,-72.7zm-933.42 198.37c74.67,34.52 107.22,123.05 72.69,197.72 -8.28,17.91 -19.66,33.39 -33.22,46.11 -34.4,32.28 -82.77,46.74 -129.83,37.75 -11.71,-2.24 -23.35,-5.93 -34.67,-11.16 -74.67,-34.52 -107.22,-123.05 -72.7,-197.73 34.53,-74.67 123.05,-107.22 197.73,-72.69zm-162.87 811.5c36.99,17.12 63.64,47.48 76.92,82.84 13.52,36.01 13.19,77.21 -4.22,114.89 -34.53,74.67 -123.05,107.22 -197.72,72.7 -74.68,-34.53 -107.23,-123.05 -72.71,-197.72 30.51,-65.98 103.17,-99.07 171.19,-82.07 8.96,2.24 17.84,5.34 26.54,9.36zm295.17 784.31c22.71,10.49 41.52,26 55.73,44.58 32.53,42.51 40.99,101.18 16.97,153.14 -34.53,74.67 -123.04,107.23 -197.72,72.7 -74.68,-34.53 -107.23,-123.04 -72.7,-197.72 32.93,-71.23 114.99,-104.13 187.3,-77.06 3.49,1.31 6.97,2.76 10.42,4.36zm1493.1 -1150.89c19.68,9.1 36.44,21.96 49.8,37.32 33.62,38.6 45.84,93.07 29.44,143.66 -1.83,5.64 -4,11.22 -6.55,16.75 -16.35,35.36 -44.81,61.27 -78.17,75.09 -37.09,15.36 -80.24,15.79 -119.55,-2.39 -21.05,-9.73 -38.75,-23.75 -52.55,-40.54 -35.16,-42.78 -44.95,-103.56 -20.16,-157.18 34.53,-74.68 123.06,-107.23 197.74,-72.71zm1195.41 407.46c74.68,34.52 107.22,123.05 72.71,197.72 -20.76,44.9 -61.03,74.56 -106.08,83.58 -29.88,5.98 -61.87,2.89 -91.65,-10.87 -37.46,-17.33 -64.31,-48.23 -77.42,-84.17 -11.39,-31.22 -12.41,-66.23 -0.97,-99.42 1.64,-4.75 3.53,-9.48 5.69,-14.14 18.03,-38.99 50.77,-66.48 88.57,-78.96 34.61,-11.41 73.47,-10.24 109.15,6.26zm-1823.66 904.33c27.45,12.69 49.2,32.68 64.03,56.6 19.99,32.24 27.39,71.61 19.14,109.87 -2.27,10.56 -5.74,21.04 -10.46,31.26 -34.53,74.67 -123.05,107.22 -197.73,72.69 -74.67,-34.53 -107.22,-123.04 -72.7,-197.72 34.53,-74.68 123.05,-107.22 197.72,-72.7zm792.96 178.68c74.67,34.52 107.22,123.04 72.69,197.73 -34.52,74.67 -123.05,107.22 -197.72,72.69 -65.05,-30.07 -98.13,-101.13 -82.75,-168.31 2.26,-9.94 5.6,-19.78 10.05,-29.41 29.15,-63.05 96.79,-96.07 162.1,-84.04 12.04,2.22 24,5.96 35.63,11.34zm448.83 553.45c30.58,14.14 54.09,37.35 68.83,64.94 18.89,35.36 23.35,77.91 9.81,117.89 -1.7,5.02 -3.68,9.99 -5.94,14.9 -34.52,74.67 -123.05,107.22 -197.73,72.7 -74.67,-34.53 -107.22,-123.05 -72.69,-197.72 34.52,-74.68 123.04,-107.23 197.72,-72.71zm1250.36 445.67c74.67,34.53 107.22,123.05 72.7,197.73 -34.53,74.67 -123.04,107.23 -197.72,72.7 -70.65,-32.67 -103.59,-113.66 -77.7,-185.53 1.47,-4.1 3.13,-8.16 5,-12.19 14.82,-32.06 39.59,-56.35 68.95,-70.9 39.02,-19.36 86.15,-21.51 128.77,-1.81zm545.9 -492.25c21.79,10.08 39.99,24.76 53.99,42.33 33.97,42.68 43.16,102.51 18.72,155.4 -34.53,74.68 -123.06,107.22 -197.73,72.7 -72.1,-33.33 -104.91,-117 -76.03,-189.94 1.04,-2.61 2.14,-5.2 3.33,-7.79 18.52,-40.06 52.6,-67.98 91.73,-79.95 33.81,-10.33 71.38,-8.75 105.99,7.25zm1058.6 367.48c74.68,34.52 107.23,123.05 72.7,197.72 -34.52,74.68 -123.04,107.22 -197.72,72.7 -74.68,-34.52 -107.23,-123.05 -72.7,-197.73 16.9,-36.54 46.72,-62.98 81.53,-76.42l1.11 -0.44c36.05,-13.58 77.34,-13.28 115.08,4.17zm423.93 -742.05c74.68,34.52 107.23,123.04 72.71,197.72 -34.53,74.68 -123.05,107.23 -197.72,72.7 -65.4,-30.23 -98.47,-101.87 -82.51,-169.36 2.27,-9.58 5.51,-19.08 9.8,-28.36 23.22,-50.22 70.85,-81.38 122.27,-85.91 25.04,-2.21 50.99,1.9 75.45,13.21zm-105.38 -1110.55c74.68,34.52 107.22,123.05 72.7,197.72 -21.94,47.47 -65.72,77.91 -113.87,84.92 -27.61,4.02 -56.65,0.36 -83.85,-12.22 -9.08,-4.2 -17.53,-9.2 -25.33,-14.88 -56.26,-40.98 -77.7,-117.25 -47.37,-182.85 34.52,-74.67 123.04,-107.22 197.72,-72.69zm-1672.53 545.24c74.67,34.52 107.22,123.05 72.7,197.73 -17.3,37.42 -48.16,64.26 -84.04,77.38 -35.72,13.07 -76.43,12.54 -113.68,-4.69 -21.66,-10.01 -39.78,-24.58 -53.74,-42.02 -34.18,-42.7 -43.47,-102.68 -18.96,-155.7 26.35,-57.01 84.17,-89.46 143.29,-86.27 18.32,0.99 36.76,5.4 54.43,13.57zm96.06 -1713.58c74.68,34.52 107.22,123.04 72.7,197.72 -5.02,10.85 -11.18,20.8 -18.27,29.8 -30.27,38.42 -77.53,59.23 -125.6,56.44 -18.13,-1.05 -36.37,-5.46 -53.86,-13.54 -74.67,-34.52 -107.22,-123.05 -72.69,-197.73 34.52,-74.67 123.05,-107.22 197.72,-72.69zm724.02 608.98c74.68,34.53 107.22,123.05 72.7,197.72 -34.52,74.68 -123.04,107.22 -197.72,72.71 -43.81,-20.26 -73.12,-59.11 -82.89,-102.85 -6.87,-30.79 -4.08,-64.02 10.19,-94.88 5.82,-12.59 13.18,-23.98 21.75,-34.06 42.24,-49.68 113.89,-67.34 175.97,-38.64zm-4022.09 120.2c3.94,1.82 7.77,3.78 11.52,5.83 1.7,0.93 3.4,1.88 5.07,2.86 82.16,48.22 116.37,151.31 77.15,239.91l-1.28 2.87c-41.89,90.59 -146.24,132.43 -238.21,97.99 -4.45,-1.66 -8.87,-3.51 -13.25,-5.53 -47.06,-21.76 -80.96,-60.37 -97.85,-105.35 -17.2,-45.8 -16.77,-98.2 5.38,-146.11 10.53,-22.78 25.02,-42.46 42.27,-58.64 54.64,-51.27 137,-67.2 209.2,-33.83zm1408.27 622.9c47.65,22.03 81.81,61.34 98.48,107.05 16.56,45.4 15.86,97.09 -6.02,144.41 -6.22,13.47 -13.84,25.86 -22.58,37.08 -43.3,55.61 -114.46,82.53 -183.56,69.81 -15.32,-2.82 -30.53,-7.59 -45.32,-14.42 -34.9,-16.14 -62.57,-41.57 -81.42,-71.98 -31.93,-51.49 -38.58,-117.29 -12.33,-176.62l1.29 -2.87c20.79,-44.98 57,-77.93 99.42,-95.5 47.17,-19.54 102.04,-20.07 152.04,3.04zm1122.82 876.25c27.55,12.74 50.57,31.26 68.33,53.44 41.35,51.67 54.07,123.22 28.37,188.12 -1.31,3.32 -2.73,6.63 -4.24,9.91 -18.85,40.77 -50.36,71.66 -87.69,90.17 -49.63,24.62 -109.57,27.36 -163.78,2.3 -38.9,-17.99 -68.8,-47.49 -87.54,-82.6 -27.02,-50.58 -30.84,-112.8 -4.92,-168.87 6.24,-13.47 13.84,-25.85 22.59,-37.08 30.08,-38.61 73.59,-63.39 120.51,-70.67 35.62,-5.53 73.2,-0.97 108.37,15.28zm1684.09 -170.28c11.56,5.34 22.31,11.71 32.22,18.93 61.43,44.75 90.2,122.57 72.72,196.47 -2.88,12.19 -7.02,24.27 -12.48,36.07 -20.53,44.38 -56.04,77.06 -97.74,94.81 -1.97,0.84 -3.95,1.63 -5.95,2.4 -46.19,17.84 -99.28,17.67 -147.77,-4.75 -27.72,-12.81 -50.87,-31.48 -68.68,-53.84 -43.19,-54.28 -54.89,-130.37 -23.79,-197.63 14.22,-30.75 35.65,-55.87 61.33,-74.31 53.65,-38.52 125.91,-47.84 190.14,-18.15zm-945.53 -1314.5c55.73,25.76 92.99,75.17 105.42,130.78 8.75,39.18 5.19,81.43 -12.96,120.68 -14.22,30.75 -35.63,55.88 -61.32,74.32 -34.88,25.04 -77.62,37.74 -120.91,35.41 -23.3,-1.26 -46.76,-6.87 -69.24,-17.26 -94.97,-43.91 -136.37,-156.5 -92.46,-251.47 3.44,-7.45 7.3,-14.55 11.54,-21.31l0.3 -0.46c37.28,-59.11 103.59,-91.81 171.13,-87.9 23.07,1.33 46.27,6.93 68.5,17.21zm-4189.16 -6473.87c31.56,7.98 59.24,23.44 81.63,44.02 49.62,45.57 73.29,116.2 55.62,186.09 -1.78,7.03 -3.95,13.87 -6.44,20.5l-0.98 2.57c-16.54,42.1 -47.11,75.6 -84.78,96.38 -40.58,22.39 -89.43,30.04 -137.91,17.78 -26.74,-6.75 -50.68,-18.89 -71,-34.96 -56.77,-44.88 -85.13,-120.43 -66.24,-195.14 3.67,-14.52 8.93,-28.23 15.54,-40.97 39.58,-76.28 127.65,-118.24 214.56,-96.27zm380.18 -386.16c79.76,20.17 128.07,101.17 107.91,180.94 -20.17,79.75 -101.17,128.07 -180.93,107.9 -24.81,-6.27 -46.58,-18.44 -64.19,-34.61 -33.46,-30.73 -51.9,-75.96 -47.7,-122.89 0.7,-7.78 2.01,-15.61 3.98,-23.42 20.17,-79.76 101.17,-128.08 180.93,-107.92zm-1440.96 -120.93c71.71,18.14 117.99,85.44 111.95,156.82 -0.68,8 -2.01,16.07 -4.04,24.12 -2.89,11.42 -7.03,22.19 -12.23,32.21 -31.12,59.97 -100.36,92.98 -168.7,75.69 -79.77,-20.15 -128.08,-101.16 -107.91,-180.92 20.16,-79.76 101.17,-128.08 180.93,-107.92zm-425.47 899.75c79.76,20.16 128.07,101.17 107.91,180.92 -20.16,79.77 -101.17,128.08 -180.93,107.91 -2.85,-0.72 -5.65,-1.51 -8.41,-2.4l-1.34 -0.43c-73.9,-24.05 -117.48,-101.64 -98.16,-178.09 20.16,-79.77 101.16,-128.08 180.93,-107.91zm-880.86 367.05c79.76,20.17 128.07,101.17 107.91,180.94 -4.83,19.12 -13.18,36.44 -24.15,51.44 -27.86,38.07 -72.72,61.19 -120.62,61.04 -11.94,-0.04 -24.06,-1.52 -36.16,-4.58 -79.76,-20.15 -128.08,-101.16 -107.91,-180.92 20.16,-79.76 101.17,-128.07 180.93,-107.92zm-10.45 827.64c39.52,9.99 71.32,34.92 90.9,67.24 19.93,32.89 27.18,73.45 17.01,113.69 -20.16,79.76 -101.16,128.08 -180.93,107.91 -79.76,-20.16 -128.07,-101.17 -107.91,-180.93 17.83,-70.51 83.21,-116.44 153.25,-112.2 9.18,0.55 18.44,1.95 27.68,4.29zm434.73 716.43c24.29,6.14 45.64,17.93 63.06,33.6 39.76,35.79 58.87,91.86 44.84,147.33 -20.15,79.76 -101.16,128.07 -180.92,107.91 -79.76,-20.17 -128.08,-101.17 -107.92,-180.93 19.24,-76.07 93.82,-123.54 169.89,-110.26 3.68,0.64 7.36,1.42 11.05,2.35zm1255.29 -1406.45c21.02,5.32 39.86,14.87 55.83,27.49 40.5,32.02 62.59,83.89 55.25,137.1 -0.74,5.44 -1.79,10.9 -3.17,16.34 -9.55,37.77 -32.74,68.48 -62.99,88.22 -33.62,21.94 -75.95,30.31 -117.94,19.69 -22.11,-5.59 -41.81,-15.86 -58.3,-29.49 -42.98,-35.51 -64.18,-93.79 -49.61,-151.44 20.17,-79.76 101.17,-128.07 180.93,-107.91zm1250.05 180.06c79.77,20.17 128.08,101.17 107.91,180.93 -12.12,47.98 -46.27,84.55 -88.91,101.72 -28.25,11.37 -60.23,14.23 -92.01,6.19 -40.02,-10.11 -72.12,-35.54 -91.63,-68.44 -16.92,-28.54 -24.38,-62.7 -19.3,-97.36 0.73,-5.04 1.73,-10.08 3.01,-15.12 10.53,-41.64 37.64,-74.71 72.5,-93.94 31.91,-17.61 70.31,-23.61 108.43,-13.98zm-1625.65 1225.08c29.31,7.41 54.37,23.04 73.36,43.81 25.86,28.32 40.43,66.16 39.03,105.74 -0.37,10.39 -1.83,20.89 -4.48,31.37 -20.17,79.77 -101.17,128.08 -180.93,107.91 -79.76,-20.16 -128.07,-101.16 -107.91,-180.92 20.17,-79.77 101.17,-128.08 180.93,-107.91zm812.29 29.4c79.77,20.16 128.08,101.17 107.91,180.93 -20.16,79.76 -101.17,128.07 -180.92,107.91 -69.39,-17.54 -114.96,-81.12 -112.38,-149.86 0.38,-10.29 1.84,-20.69 4.46,-31.07 17.03,-67.34 77.43,-112.27 143.82,-112.49 12.25,-0.04 24.69,1.44 37.11,4.58zm543.19 461.22c32.67,8.25 60.06,26.72 79.63,51.13 25.34,31.59 37.57,73.14 31.17,115.4 -0.72,4.79 -1.68,9.59 -2.89,14.39 -20.16,79.77 -101.17,128.08 -180.93,107.92 -79.76,-20.17 -128.07,-101.17 -107.91,-180.94 20.17,-79.75 101.17,-128.07 180.93,-107.9zm1311.1 207.48c79.75,20.17 128.07,101.17 107.91,180.93 -20.16,79.76 -101.17,128.08 -180.93,107.91 -75.4,-19.06 -122.68,-92.5 -110.6,-167.85 0.7,-4.35 1.59,-8.71 2.69,-13.07 8.65,-34.24 28.53,-62.68 54.69,-82.4 34.8,-26.22 80.71,-37.03 126.24,-25.52zm445.78 -584.46c23.27,5.88 43.86,16.96 60.86,31.65 41.25,35.69 61.33,92.79 47.04,149.27 -20.15,79.77 -101.15,128.08 -180.92,107.92 -77,-19.47 -124.69,-95.64 -109.74,-172.66 0.53,-2.76 1.14,-5.51 1.83,-8.27 10.81,-42.77 39.1,-76.48 75.32,-95.46 31.34,-16.41 68.61,-21.81 105.61,-12.45zm1108.21 165.99c79.75,20.16 128.06,101.17 107.91,180.92 -20.17,79.77 -101.17,128.08 -180.94,107.92 -79.75,-20.17 -128.07,-101.17 -107.91,-180.94 9.88,-39.03 34.31,-70.52 66.04,-90.15l0.94 -0.57c32.95,-20.05 73.61,-27.39 113.96,-17.18zm279.84 -807.49c79.76,20.15 128.07,101.16 107.91,180.92 -20.16,79.76 -101.16,128.08 -180.93,107.92 -69.85,-17.67 -115.58,-81.98 -112.33,-151.25 0.47,-9.84 1.92,-19.77 4.42,-29.69 13.56,-53.61 54.61,-93.02 104.29,-106.96 24.23,-6.8 50.49,-7.56 76.64,-0.94zm-308.34 -1072.09c79.76,20.17 128.07,101.17 107.91,180.93 -12.84,50.79 -50.35,88.82 -96.5,104.55 -26.32,8.97 -55.45,10.69 -84.43,3.36 -9.7,-2.45 -18.94,-5.81 -27.64,-9.95 -62.86,-29.91 -97.98,-100.92 -80.27,-170.97 20.16,-79.77 101.17,-128.08 180.93,-107.92zm-1543.33 844.28c79.76,20.17 128.07,101.17 107.92,180.93 -10.16,40.15 -35.72,72.33 -68.78,91.82 -32.62,19.23 -72.54,26.11 -112.16,16.09 -23.13,-5.85 -43.61,-16.81 -60.55,-31.38 -41.47,-35.67 -61.67,-92.92 -47.35,-149.54 15.39,-60.89 66.23,-103.44 124.91,-111.21 18.19,-2.41 37.14,-1.48 56.01,3.29zm-221.53 -1701.91c79.76,20.16 128.07,101.16 107.91,180.92 -3.03,11.96 -7.43,23.2 -12.97,33.63 -22.8,42.8 -65.14,71.58 -112.53,77.66 -18,2.31 -36.76,1.35 -55.44,-3.38 -79.75,-20.16 -128.06,-101.17 -107.9,-180.92 20.16,-79.77 101.16,-128.08 180.93,-107.91zm823.89 465.04c79.76,20.17 128.08,101.17 107.92,180.93 -20.17,79.76 -101.17,128.08 -180.94,107.91 -46.79,-11.84 -82.75,-44.61 -100.42,-85.79 -12.44,-29 -15.81,-62.18 -7.48,-95.14 3.37,-13.38 8.48,-25.87 14.99,-37.31 32.32,-56.72 99.55,-87.38 165.93,-70.6zm-3930.97 859.73c4.21,1.07 8.33,2.27 12.4,3.59 2,0.65 3.99,1.33 5.95,2.04 89.39,32.41 141.8,127.26 119.62,221.42l-0.73 3.06c-24.46,96.76 -119.32,157.13 -216.05,140.24 -4.68,-0.81 -9.37,-1.81 -14.05,-3 -50.26,-12.7 -90.7,-44.41 -115.6,-85.51 -25.35,-41.84 -34.59,-93.41 -21.65,-144.59 6.16,-24.34 16.77,-46.36 30.74,-65.43 44.26,-60.47 122.26,-91.31 199.37,-71.82zm1498.98 352.57c50.89,12.87 91.72,45.2 116.53,87.06 24.64,41.56 33.49,92.5 20.71,143.05 -3.64,14.38 -8.83,27.96 -15.35,40.61 -32.32,62.63 -97.3,102.21 -167.56,102.45 -15.58,0.05 -31.4,-1.83 -47.19,-5.83 -37.28,-9.42 -69.16,-29.31 -93.3,-55.71 -40.87,-44.73 -59.55,-108.17 -44.68,-171.33l0.73 -3.06c12.14,-48.04 41.65,-87.09 80.11,-112.19 42.76,-27.9 96.6,-38.55 150,-25.05zm1265.13 654.2c29.42,7.45 55.47,21.4 77.01,39.93 50.17,43.15 75.86,111.14 62.56,179.66 -0.67,3.5 -1.44,7.02 -2.33,10.52 -11.01,43.54 -36.28,79.71 -69.56,104.79 -44.25,33.35 -102.65,47.09 -160.55,32.46 -41.55,-10.51 -76.38,-33.99 -101.27,-65.04 -35.88,-44.73 -51.1,-105.18 -35.97,-165.07 3.64,-14.39 8.84,-27.97 15.36,-40.61 22.39,-43.37 60.44,-75.7 105.06,-91.55 34.08,-12.11 71.99,-14.61 109.69,-5.09zm1623.81 -477.86c12.35,3.11 24.08,7.39 35.16,12.65 68.62,32.66 111.26,103.84 107.7,179.7 -0.58,12.51 -2.43,25.15 -5.61,37.75 -12.03,47.6 -41.11,86.39 -79.06,111.51 -1.63,1.08 -3.28,2.13 -4.94,3.16 -42.11,26.04 -94.31,35.67 -146.11,22.57 -29.61,-7.48 -55.8,-21.56 -77.42,-40.27 -52.46,-45.37 -77.98,-118 -59.82,-189.84 8.3,-32.84 24.72,-61.48 46.57,-84.34 45.63,-47.75 114.94,-70.23 183.53,-52.89zm-1171.68 -1117.64c59.52,15.05 105.26,56.74 127.73,109.11 15.83,36.89 20.11,79.08 9.51,121 -8.3,32.84 -24.73,61.48 -46.57,84.34 -29.67,31.04 -69.33,51.41 -112.3,57.09 -23.14,3.06 -47.23,1.88 -71.23,-4.19 -101.45,-25.64 -162.89,-128.66 -137.25,-230.1 2.01,-7.95 4.51,-15.64 7.42,-23.07l0.14 -0.35c25.71,-65.06 84.9,-109.51 152.06,-118.12 22.91,-2.94 46.74,-1.71 70.49,4.29zm-7296.52 -711.11c79.63,20.68 127.42,101.99 106.74,181.62 -20.67,79.63 -101.98,127.44 -181.61,106.76 -24.77,-6.44 -46.45,-18.73 -63.96,-35.02 -33.27,-30.96 -51.43,-76.34 -46.91,-123.26 0.74,-7.76 2.1,-15.56 4.12,-23.35 20.67,-79.62 101.99,-127.42 181.62,-106.75zm-1440.17 -130.14c71.6,18.59 117.44,86.19 110.95,157.51 -0.74,8.01 -2.11,16.06 -4.19,24.1 -2.96,11.41 -7.17,22.15 -12.44,32.14 -31.49,59.78 -100.95,92.33 -169.18,74.62 -79.63,-20.68 -127.42,-101.99 -106.75,-181.62 20.68,-79.63 101.98,-127.42 181.61,-106.75zm-431.21 897c79.64,20.67 127.42,101.98 106.75,181.62 -20.67,79.62 -101.99,127.42 -181.61,106.74 -2.85,-0.73 -5.65,-1.56 -8.41,-2.45l-1.32 -0.43c-73.74,-24.54 -116.84,-102.41 -97.02,-178.74 20.67,-79.62 101.98,-127.42 181.61,-106.74zm-883.19 361.4c79.63,20.68 127.42,102 106.74,181.63 -4.95,19.09 -13.41,36.36 -24.48,51.28 -28.09,37.88 -73.11,60.72 -121,60.27 -11.94,-0.11 -24.05,-1.67 -36.13,-4.8 -79.63,-20.67 -127.42,-101.99 -106.74,-181.61 20.66,-79.64 101.98,-127.43 181.61,-106.77zm-15.74 827.56c39.45,10.24 71.08,35.38 90.45,67.81 19.72,33.02 26.73,73.63 16.29,113.8 -20.67,79.63 -101.98,127.43 -181.61,106.75 -79.63,-20.67 -127.42,-101.98 -106.75,-181.61 18.28,-70.4 83.95,-115.91 153.96,-111.23 9.17,0.62 18.43,2.09 27.66,4.48zm430.12 719.2c24.26,6.29 45.54,18.22 62.86,34.01 39.53,36.04 58.27,92.22 43.9,147.6 -20.68,79.63 -101.99,127.43 -181.62,106.75 -79.63,-20.67 -127.43,-101.98 -106.75,-181.61 19.71,-75.95 94.61,-122.94 170.59,-109.18 3.67,0.67 7.35,1.48 11.02,2.43zm1264.28 -1398.39c20.99,5.46 39.76,15.12 55.66,27.85 40.27,32.27 62.03,84.27 54.37,137.42 -0.79,5.44 -1.87,10.9 -3.29,16.35 -9.78,37.71 -33.18,68.27 -63.55,87.81 -33.76,21.73 -76.14,29.83 -118.06,18.94 -22.09,-5.73 -41.72,-16.14 -58.13,-29.88 -42.74,-35.78 -63.57,-94.19 -48.62,-151.73 20.67,-79.64 101.99,-127.42 181.62,-106.76zm1248.87 188.07c79.63,20.66 127.43,101.98 106.75,181.61 -12.44,47.89 -46.81,84.26 -89.56,101.15 -28.33,11.19 -60.33,13.83 -92.06,5.59 -39.95,-10.37 -71.89,-36 -91.18,-69.02 -16.73,-28.65 -23.96,-62.85 -18.67,-97.48 0.77,-5.03 1.8,-10.08 3.1,-15.11 10.8,-41.57 38.11,-74.45 73.1,-93.46 32.02,-17.4 70.46,-23.16 108.52,-13.28zm-1633.46 1214.63c29.27,7.61 54.23,23.4 73.07,44.28 25.69,28.46 39.99,66.38 38.36,105.95 -0.44,10.39 -1.96,20.91 -4.68,31.39 -20.67,79.63 -101.99,127.43 -181.62,106.75 -79.62,-20.68 -127.42,-101.99 -106.74,-181.62 20.66,-79.63 101.98,-127.42 181.61,-106.75zm812.09 34.61c79.63,20.67 127.43,101.99 106.75,181.62 -20.67,79.62 -101.98,127.43 -181.62,106.75 -69.26,-17.98 -114.43,-81.85 -111.41,-150.6 0.46,-10.27 1.97,-20.66 4.67,-31.03 17.45,-67.22 78.13,-111.76 144.53,-111.56 12.25,0.04 24.69,1.6 37.08,4.82zm540.23 464.68c32.61,8.47 59.88,27.11 79.3,51.64 25.13,31.75 37.09,73.35 30.44,115.55 -0.76,4.81 -1.75,9.62 -2.99,14.43 -20.68,79.63 -101.99,127.42 -181.62,106.75 -79.63,-20.68 -127.43,-101.99 -106.75,-181.62 20.68,-79.63 101.98,-127.42 181.62,-106.75zm1309.73 215.88c79.63,20.67 127.43,101.99 106.76,181.61 -20.68,79.63 -101.99,127.43 -181.62,106.75 -75.28,-19.55 -122.09,-93.27 -109.52,-168.55 0.73,-4.35 1.65,-8.71 2.77,-13.07 8.88,-34.18 28.93,-62.49 55.22,-82.04 34.96,-25.99 80.94,-36.51 126.39,-24.7zm449.52 -581.6c23.24,6.02 43.78,17.22 60.68,32.04 41.02,35.94 60.71,93.18 46.07,149.57 -20.67,79.63 -101.98,127.42 -181.61,106.75 -76.88,-19.96 -124.07,-96.45 -108.64,-173.36 0.55,-2.76 1.17,-5.51 1.88,-8.26 11.09,-42.69 39.61,-76.22 75.95,-94.97 31.45,-16.21 68.73,-21.37 105.67,-11.77zm1107.12 173.08c79.63,20.67 127.42,101.98 106.75,181.62 -20.68,79.63 -101.98,127.42 -181.62,106.75 -79.63,-20.68 -127.42,-101.99 -106.75,-181.62 10.12,-38.98 34.77,-70.31 66.63,-89.73l0.93 -0.57c33.07,-19.84 73.79,-26.91 114.06,-16.45zm285.01 -805.69c79.63,20.68 127.43,101.99 106.75,181.62 -20.67,79.63 -102,127.42 -181.62,106.75 -69.74,-18.1 -115.06,-82.71 -111.36,-151.97 0.53,-9.83 2.03,-19.75 4.61,-29.65 13.9,-53.54 55.19,-92.69 104.98,-106.31 24.25,-6.64 50.54,-7.21 76.64,-0.44zm-301.48 -1074.03c79.64,20.68 127.43,101.99 106.76,181.62 -13.17,50.7 -50.92,88.48 -97.15,103.92 -26.4,8.8 -55.54,10.34 -84.47,2.83 -9.68,-2.52 -18.9,-5.94 -27.58,-10.14 -62.66,-30.31 -97.33,-101.54 -79.17,-171.48 20.67,-79.63 101.98,-127.43 181.61,-106.75zm-1548.69 834.38c79.63,20.68 127.42,101.99 106.75,181.62 -10.4,40.07 -36.16,72.07 -69.34,91.36 -32.75,19.02 -72.72,25.66 -112.28,15.39 -23.09,-6 -43.5,-17.1 -60.35,-31.78 -41.23,-35.93 -61.07,-93.3 -46.39,-149.84 15.78,-60.79 66.9,-103.02 125.63,-110.41 18.2,-2.29 37.14,-1.23 55.98,3.66zm-210.65 -1703.3c79.63,20.68 127.43,101.98 106.75,181.61 -3.09,11.93 -7.56,23.13 -13.16,33.51 -23.06,42.68 -65.59,71.21 -113.03,76.98 -18.03,2.2 -36.77,1.11 -55.42,-3.73 -79.64,-20.68 -127.42,-101.99 -106.75,-181.62 20.67,-79.63 101.99,-127.42 181.61,-106.75zm820.91 470.32c79.63,20.66 127.42,101.98 106.75,181.61 -20.67,79.64 -101.99,127.42 -181.62,106.75 -46.72,-12.13 -82.48,-45.15 -99.88,-86.44 -12.25,-29.08 -15.41,-62.27 -6.86,-95.17 3.47,-13.37 8.65,-25.83 15.24,-37.22 32.68,-56.52 100.1,-86.74 166.37,-69.53zm-3936.39 834.54c4.2,1.09 8.32,2.32 12.37,3.67 1.99,0.67 3.98,1.35 5.93,2.08 89.19,32.98 141,128.15 118.21,222.18l-0.75 3.06c-25.08,96.6 -120.31,156.36 -216.94,138.85 -4.68,-0.85 -9.37,-1.88 -14.04,-3.09 -50.18,-13.03 -90.41,-44.98 -115.04,-86.24 -25.07,-42 -33.98,-93.64 -20.72,-144.73 6.31,-24.29 17.06,-46.24 31.15,-65.24 44.64,-60.18 122.85,-90.52 199.83,-70.54zm1496.69 362.16c50.81,13.19 91.42,45.8 115.96,87.8 24.38,41.72 32.9,92.71 19.8,143.18 -3.72,14.36 -9.01,27.91 -15.62,40.51 -32.72,62.41 -97.93,101.6 -168.2,101.38 -15.57,-0.05 -31.39,-2.04 -47.15,-6.13 -37.22,-9.66 -68.97,-29.76 -92.94,-56.32 -40.59,-44.98 -58.86,-108.55 -43.58,-171.6l0.75 -3.05c12.45,-47.97 42.21,-86.84 80.83,-111.69 42.94,-27.63 96.84,-37.92 150.15,-24.08zm1260.92 662.29c29.37,7.63 55.33,21.75 76.76,40.42 49.88,43.46 75.13,111.62 61.4,180.06 -0.7,3.5 -1.49,7 -2.4,10.5 -11.29,43.48 -36.8,79.48 -70.23,104.34 -44.46,33.07 -102.96,46.43 -160.75,31.43 -41.49,-10.77 -76.17,-34.49 -100.85,-65.69 -35.6,-44.98 -50.43,-105.5 -34.91,-165.3 3.72,-14.36 9.01,-27.89 15.61,-40.5 22.67,-43.24 60.93,-75.32 105.66,-90.89 34.16,-11.88 72.07,-14.14 109.71,-4.37zm1626.83 -467.47c12.32,3.2 24.04,7.54 35.08,12.88 68.42,33.09 110.59,104.54 106.54,180.38 -0.66,12.51 -2.58,25.13 -5.85,37.72 -12.33,47.51 -41.65,86.11 -79.75,110.99 -1.64,1.07 -3.3,2.12 -4.97,3.14 -42.28,25.79 -94.55,35.07 -146.26,21.64 -29.56,-7.67 -55.66,-21.93 -77.16,-40.77 -52.18,-45.71 -77.23,-118.5 -58.61,-190.22 8.52,-32.79 25.12,-61.32 47.11,-84.04 45.93,-47.45 115.39,-69.5 183.87,-51.72zm-1164.5 -1125.11c59.42,15.43 104.89,57.41 127.02,109.92 15.6,36.99 19.61,79.21 8.75,121.06 -8.52,32.79 -25.12,61.34 -47.11,84.06 -29.86,30.85 -69.65,50.96 -112.67,56.37 -23.16,2.91 -47.25,1.56 -71.21,-4.66 -101.28,-26.29 -162.06,-129.7 -135.76,-230.99 2.06,-7.93 4.59,-15.6 7.56,-23.02l0.14 -0.35c26.11,-64.88 85.6,-108.94 152.82,-117.13 22.93,-2.79 46.75,-1.42 70.46,4.74z"/>
     </g>
    </g>
    <path class="fil18" d="M-0 8043.32l0 -7619.99c0,-232.84 285.76,-423.33 635,-423.33l24130 0c349.26,0 635,190.49 635,423.33l0 7619.99c0,232.84 -285.74,423.34 -635,423.34l-24130 0c-349.24,0 -635,-190.5 -635,-423.34z"/>
    <g>
     <g>
      <path class="fil19 str2" d="M23064.73 5380.56c401.01,0 726.09,325.08 726.09,726.08 0,401.01 -325.08,726.09 -726.09,726.09 -401,0 -726.08,-325.08 -726.08,-726.09 0,-401 325.08,-726.08 726.08,-726.08z"/>
      <circle class="fil20" cx="23064.73" cy="6106.64" r="650.66"/>
      <g>
       <path class="fil21" d="M23668.51 6106.64l-46.92 0 0 0 -0.73 -28.68 -2.15 -28.29 -3.54 -27.87 -4.89 -27.41 -6.22 -26.94 -7.5 -26.42 -8.75 -25.86 -9.96 -25.27 -11.16 -24.67 -12.29 -24 -13.42 -23.32 -14.48 -22.6 -15.52 -21.83 -16.54 -21.04 -17.51 -20.22 -18.44 -19.33 -19.35 -18.45 -20.2 -17.51 -21.04 -16.52 -21.84 -15.54 -22.59 -14.48 -23.32 -13.41 -24.01 -12.3 -24.65 -11.15 -25.29 -9.96 -25.86 -8.75 -26.42 -7.5 -26.94 -6.22 -27.41 -4.89 -27.87 -3.54 -28.29 -2.15 -28.68 -0.73 0 -46.92 31.04 0.79 30.65 2.33 30.23 3.84 29.73 5.31 29.22 6.74 28.66 8.14 28.06 9.49 27.43 10.82 26.75 12.09 26.03 13.34 25.3 14.53 24.49 15.72 23.66 16.82 22.82 17.92 21.9 18.97 20.97 19.99 19.98 20.97 18.97 21.9 17.92 22.8 16.84 23.67 15.7 24.5 14.54 25.28 13.33 26.04 12.1 26.75 10.82 27.43 9.49 28.06 8.14 28.66 6.74 29.22 5.31 29.73 3.84 30.23 2.33 30.65 0.79 31.04 0 0zm-603.78 603.78l0 -46.92 0 0 28.68 -0.73 28.29 -2.15 27.87 -3.54 27.41 -4.89 26.94 -6.22 26.42 -7.5 25.86 -8.75 25.28 -9.96 24.66 -11.16 24.01 -12.29 23.32 -13.42 22.59 -14.48 21.83 -15.52 21.05 -16.54 20.21 -17.51 19.34 -18.44 18.44 -19.34 17.51 -20.21 16.54 -21.05 15.52 -21.83 14.48 -22.59 13.42 -23.32 12.29 -24.01 11.16 -24.66 9.96 -25.28 8.75 -25.86 7.5 -26.42 6.22 -26.94 4.89 -27.41 3.54 -27.87 2.15 -28.29 0.73 -28.68 46.92 0 -0.79 31.04 -2.33 30.65 -3.84 30.23 -5.31 29.73 -6.74 29.22 -8.14 28.66 -9.49 28.06 -10.82 27.44 -12.1 26.74 -13.33 26.03 -14.54 25.3 -15.7 24.49 -16.84 23.67 -17.92 22.81 -18.97 21.89 -19.98 20.98 -20.98 19.98 -21.89 18.97 -22.81 17.92 -23.67 16.84 -24.49 15.7 -25.3 14.54 -26.03 13.33 -26.74 12.1 -27.44 10.82 -28.06 9.49 -28.66 8.14 -29.22 6.74 -29.73 5.31 -30.23 3.84 -30.65 2.33 -31.04 0.79 0 0zm-603.77 -603.78l46.92 0 0 0 0.73 28.68 2.15 28.29 3.54 27.87 4.89 27.41 6.22 26.94 7.5 26.42 8.75 25.86 9.96 25.29 11.15 24.65 12.3 24.01 13.41 23.32 14.48 22.59 15.54 21.84 16.52 21.04 17.51 20.2 18.45 19.35 19.33 18.44 20.22 17.51 21.04 16.54 21.83 15.52 22.6 14.48 23.32 13.42 24 12.29 24.67 11.16 25.27 9.96 25.86 8.75 26.42 7.5 26.94 6.22 27.41 4.89 27.87 3.54 28.29 2.15 28.68 0.73 0 46.92 -31.04 -0.79 -30.65 -2.33 -30.23 -3.84 -29.73 -5.31 -29.22 -6.74 -28.66 -8.14 -28.06 -9.49 -27.43 -10.82 -26.75 -12.1 -26.04 -13.33 -25.28 -14.54 -24.5 -15.7 -23.67 -16.84 -22.8 -17.92 -21.9 -18.97 -20.97 -19.98 -19.99 -20.97 -18.97 -21.9 -17.92 -22.82 -16.82 -23.66 -15.72 -24.49 -14.53 -25.3 -13.34 -26.03 -12.09 -26.75 -10.82 -27.43 -9.49 -28.06 -8.14 -28.66 -6.74 -29.22 -5.31 -29.73 -3.84 -30.23 -2.33 -30.65 -0.79 -31.04 0 0zm603.77 -603.77l0 46.92 0 0 -28.68 0.73 -28.29 2.15 -27.87 3.54 -27.41 4.89 -26.94 6.22 -26.42 7.5 -25.86 8.75 -25.28 9.96 -24.66 11.15 -24 12.3 -23.32 13.41 -22.6 14.49 -21.83 15.53 -21.04 16.52 -20.21 17.51 -19.34 18.45 -18.45 19.34 -17.51 20.21 -16.52 21.04 -15.53 21.83 -14.49 22.6 -13.41 23.32 -12.3 24 -11.15 24.66 -9.96 25.28 -8.75 25.86 -7.5 26.42 -6.22 26.94 -4.89 27.41 -3.54 27.87 -2.15 28.29 -0.73 28.68 -46.92 0 0.79 -31.04 2.33 -30.65 3.84 -30.23 5.31 -29.73 6.74 -29.22 8.14 -28.66 9.49 -28.06 10.82 -27.42 12.09 -26.76 13.34 -26.04 14.53 -25.28 15.71 -24.5 16.83 -23.67 17.92 -22.8 18.97 -21.91 19.99 -20.96 20.96 -19.99 21.91 -18.97 22.8 -17.92 23.67 -16.83 24.5 -15.71 25.28 -14.53 26.04 -13.34 26.76 -12.09 27.42 -10.82 28.06 -9.49 28.66 -8.14 29.22 -6.74 29.73 -5.31 30.23 -3.84 30.65 -2.33 31.04 -0.79 0 0z"/>
       <path id="1" class="fil22" d="M23064.73 5526.33c320.5,0 580.32,259.81 580.32,580.31 0,320.5 -259.82,580.32 -580.32,580.32 -320.5,0 -580.31,-259.82 -580.31,-580.32 0,-320.5 259.81,-580.31 580.31,-580.31z"/>
      </g>
      <g>
       <path class="fil23" d="M22754.44 6114.92l311.43 -140.35 -0.69 -376.67 -136.15 225.04c-6.73,11.16 -13.37,21.7 -19.79,32.35 -26.06,43.26 -51.56,85.71 -77.75,129.11l-58.23 96.49c-4.44,7.35 -17.46,27.03 -18.82,34.03z"/>
       <path class="fil24" d="M23065.87 5974.57l310.84 140.34c-2.08,-9.41 -150.35,-251.61 -155.04,-259.38l-156.49 -257.63 0.69 376.67z"/>
       <path class="fil24" d="M22754.44 6114.92c-1.22,0.5 -1.59,-0.77 -1.68,-0.68l0 3.06 0 0.28 273.4 160.5c6.87,4.16 12.64,7.24 19.14,11.13 7.11,4.27 13.13,8.68 21.73,11.68 -2.6,-13.61 -0.92,-138.14 -0.92,-163.13 0,-37.34 1.73,-132.92 -0.24,-163.19l-311.43 140.35z"/>
       <path class="fil25" d="M23067.03 6300.89l301.42 -178.13c4.94,-2.87 6.31,-2.04 8.26,-7.85l-310.84 -140.34c1.97,30.27 0.24,125.85 0.24,163.19 0,24.99 -1.68,149.52 0.92,163.13z"/>
       <path class="fil23" d="M23065.42 6615.39l0.32 -257.31 -312.98 -183.32c1.51,5.68 0.97,2.86 4.28,7.49l112.48 158.3c13.58,18.77 25.4,36.58 39.17,55 6.94,9.27 13.02,17.84 19.65,27.44l137.08 192.4z"/>
       <path class="fil25" d="M23065.74 6358.08l-0.32 257.31c8.62,-9.2 82.59,-116.36 97.44,-136.49l175.5 -246.63c6.42,-9.41 12.85,-18.36 19.6,-27.49 3.56,-4.83 6.17,-8.76 9.87,-13.68 3.41,-4.54 7.4,-9.1 8.88,-14.66 -8.75,2.34 -301.27,178.92 -310.97,181.64z"/>
      </g>
     </g>
     <g>
      <path class="fil19 str2" d="M20924.68 2516.94c401,0 726.09,325.08 726.09,726.09 0,401 -325.09,726.08 -726.09,726.08 -401,0 -726.08,-325.08 -726.08,-726.08 0,-401.01 325.08,-726.09 726.08,-726.09z"/>
      <path class="fil22" d="M20924.68 2592.37c359.35,0 650.66,291.31 650.66,650.66 0,359.34 -291.31,650.65 -650.66,650.65 -359.35,0 -650.65,-291.31 -650.65,-650.65 0,-359.35 291.3,-650.66 650.65,-650.66z"/>
      <g>
       <path class="fil26" d="M21528.46 3243.03l-46.92 0 0 0 -0.73 -28.68 -2.15 -28.29 -3.54 -27.87 -4.89 -27.41 -6.22 -26.94 -7.5 -26.42 -8.75 -25.86 -9.96 -25.28 -11.16 -24.66 -12.29 -24.01 -13.42 -23.32 -14.48 -22.59 -15.52 -21.83 -16.54 -21.05 -17.51 -20.21 -18.44 -19.34 -19.34 -18.44 -20.21 -17.51 -21.05 -16.54 -21.83 -15.52 -22.59 -14.48 -23.32 -13.42 -24.01 -12.29 -24.66 -11.16 -25.28 -9.96 -25.86 -8.75 -26.42 -7.5 -26.94 -6.22 -27.41 -4.89 -27.87 -3.54 -28.29 -2.15 -28.68 -0.73 0 -46.92 31.04 0.79 30.65 2.33 30.23 3.84 29.73 5.31 29.22 6.74 28.66 8.14 28.06 9.49 27.44 10.82 26.74 12.1 26.03 13.33 25.3 14.54 24.49 15.7 23.67 16.84 22.81 17.92 21.89 18.97 20.98 19.98 19.98 20.98 18.97 21.89 17.92 22.81 16.84 23.67 15.7 24.49 14.54 25.3 13.33 26.03 12.1 26.74 10.82 27.44 9.49 28.06 8.14 28.66 6.74 29.22 5.31 29.73 3.84 30.23 2.33 30.65 0.79 31.04 0 0zm-603.78 603.77l0 -46.92 0 0 28.68 -0.73 28.29 -2.15 27.87 -3.54 27.41 -4.89 26.94 -6.22 26.42 -7.5 25.86 -8.75 25.29 -9.96 24.65 -11.15 24.01 -12.3 23.32 -13.41 22.59 -14.48 21.84 -15.54 21.04 -16.52 20.2 -17.51 19.35 -18.45 18.44 -19.33 17.51 -20.22 16.54 -21.04 15.52 -21.83 14.48 -22.6 13.42 -23.32 12.29 -24 11.16 -24.67 9.96 -25.27 8.75 -25.86 7.5 -26.42 6.22 -26.94 4.89 -27.41 3.54 -27.87 2.15 -28.29 0.73 -28.68 46.92 0 -0.79 31.04 -2.33 30.65 -3.84 30.23 -5.31 29.73 -6.74 29.22 -8.14 28.66 -9.49 28.06 -10.82 27.43 -12.1 26.75 -13.33 26.04 -14.54 25.28 -15.7 24.5 -16.84 23.67 -17.92 22.8 -18.97 21.9 -19.98 20.97 -20.97 19.99 -21.9 18.97 -22.82 17.92 -23.66 16.82 -24.49 15.72 -25.3 14.53 -26.03 13.34 -26.75 12.09 -27.43 10.82 -28.06 9.49 -28.66 8.14 -29.22 6.74 -29.73 5.31 -30.23 3.84 -30.65 2.33 -31.04 0.79 0 0zm-603.78 -603.77l46.92 0 0 0 0.73 28.68 2.15 28.29 3.54 27.87 4.89 27.41 6.22 26.94 7.5 26.42 8.75 25.86 9.96 25.27 11.16 24.67 12.29 24 13.42 23.32 14.48 22.6 15.52 21.83 16.54 21.04 17.51 20.22 18.44 19.33 19.35 18.45 20.2 17.51 21.04 16.52 21.84 15.54 22.59 14.48 23.32 13.41 24.01 12.3 24.65 11.15 25.29 9.96 25.86 8.75 26.42 7.5 26.94 6.22 27.41 4.89 27.87 3.54 28.29 2.15 28.68 0.73 0 46.92 -31.04 -0.79 -30.65 -2.33 -30.23 -3.84 -29.73 -5.31 -29.22 -6.74 -28.66 -8.14 -28.06 -9.49 -27.43 -10.82 -26.75 -12.09 -26.03 -13.34 -25.3 -14.53 -24.49 -15.72 -23.66 -16.82 -22.82 -17.92 -21.9 -18.97 -20.97 -19.99 -19.98 -20.97 -18.97 -21.9 -17.92 -22.8 -16.84 -23.67 -15.7 -24.5 -14.54 -25.28 -13.33 -26.04 -12.1 -26.75 -10.82 -27.43 -9.49 -28.06 -8.14 -28.66 -6.74 -29.22 -5.31 -29.73 -3.84 -30.23 -2.33 -30.65 -0.79 -31.04 0 0zm603.78 -603.78l0 46.92 0 0 -28.68 0.73 -28.29 2.15 -27.87 3.54 -27.41 4.89 -26.94 6.22 -26.42 7.5 -25.86 8.75 -25.28 9.96 -24.66 11.16 -24.01 12.29 -23.32 13.42 -22.59 14.48 -21.83 15.52 -21.05 16.54 -20.21 17.51 -19.34 18.44 -18.44 19.34 -17.51 20.21 -16.54 21.05 -15.52 21.83 -14.48 22.59 -13.42 23.32 -12.29 24.01 -11.16 24.66 -9.96 25.28 -8.75 25.86 -7.5 26.42 -6.22 26.94 -4.89 27.41 -3.54 27.87 -2.15 28.29 -0.73 28.68 -46.92 0 0.79 -31.04 2.33 -30.65 3.84 -30.23 5.31 -29.73 6.74 -29.22 8.14 -28.66 9.49 -28.06 10.82 -27.44 12.1 -26.74 13.33 -26.03 14.54 -25.3 15.7 -24.49 16.84 -23.67 17.92 -22.81 18.97 -21.89 19.98 -20.98 20.98 -19.98 21.89 -18.97 22.81 -17.92 23.67 -16.84 24.49 -15.7 25.3 -14.54 26.03 -13.33 26.74 -12.1 27.44 -10.82 28.06 -9.49 28.66 -8.14 29.22 -6.74 29.73 -5.31 30.23 -3.84 30.65 -2.33 31.04 -0.79 0 0z"/>
       <path id="1" class="fil22" d="M20924.68 2662.71c320.5,0 580.32,259.82 580.32,580.32 0,320.5 -259.82,580.31 -580.32,580.31 -320.5,0 -580.32,-259.81 -580.32,-580.31 0,-320.5 259.82,-580.32 580.32,-580.32z"/>
      </g>
      <g>
       <polygon class="fil27" points="20924.68,2779.53 21125.38,2895.41 21326.08,3011.28 21326.08,3243.03 21326.08,3474.78 21125.38,3590.64 20924.68,3706.52 20723.98,3590.64 20523.28,3474.78 20523.28,3243.03 20523.28,3011.28 20723.98,2895.41 "/>
       <g>
        <path class="fil28" d="M21065.02 2999.96l-146.15 -84.37 11.62 -20.12 146.15 84.37 0 0 -11.62 20.12zm146.14 84.37l-146.14 -84.37 11.62 -20.12 146.14 84.37 5.8 10.06 -17.42 10.06zm11.62 -20.12l5.8 3.35 0 6.71 -5.8 -10.06zm-17.42 178.82l0 -168.76 23.22 0 0 168.76 0 0 -23.22 0zm0 168.75l0 -168.75 23.22 0 0 168.75 -5.8 10.06 -17.42 -10.06zm23.22 0l0 6.71 -5.8 3.35 5.8 -10.06zm-163.56 74.31l146.14 -84.37 11.62 20.12 -146.14 84.37 -11.62 -20.12zm-146.15 84.38l146.15 -84.38 11.62 20.12 -146.15 84.38 -11.62 0 0 -20.12zm11.62 20.12l-5.81 3.35 -5.81 -3.35 11.62 0zm-146.14 -104.5l146.14 84.38 -11.62 20.12 -146.14 -84.38 11.62 -20.12zm-146.15 -84.37l146.15 84.37 -11.62 20.12 -146.15 -84.37 -5.8 -10.06 17.42 -10.06zm-11.62 20.12l-5.8 -3.35 0 -6.71 5.8 10.06zm17.42 -178.81l0 168.75 -23.22 0 0 -168.75 0 0 23.22 0zm0 -168.76l0 168.76 -23.22 0 0 -168.76 5.8 -10.06 17.42 10.06zm-23.22 0l0 -6.71 5.8 -3.35 -5.8 10.06zm163.57 -74.31l-146.15 84.37 -11.62 -20.12 146.15 -84.37 11.62 20.12zm146.14 -84.37l-146.14 84.37 -11.62 -20.12 146.14 -84.37 11.62 0 0 20.12zm-11.62 -20.12l5.81 -3.35 5.81 3.35 -11.62 0z"/>
        <polygon id="1" class="fil22" points="20924.68,2905.53 21070.83,2989.9 21216.97,3074.27 21216.97,3243.03 21216.97,3411.78 21070.83,3496.15 20924.68,3580.53 20778.54,3496.15 20632.39,3411.78 20632.39,3243.03 20632.39,3074.27 20778.54,2989.9 "/>
       </g>
       <g>
        <path class="fil26" d="M21035.02 3051.91l-116.15 -67.06 11.62 -20.12 116.15 67.06 0 0 -11.62 20.12zm116.15 67.06l-116.15 -67.06 11.62 -20.12 116.15 67.06 5.8 10.06 -17.42 10.06zm11.62 -20.12l5.8 3.35 0 6.71 -5.8 -10.06zm-17.42 144.18l0 -134.12 23.22 0 0 134.12 0 0 -23.22 0zm0 134.11l0 -134.11 23.22 0 0 134.11 -5.8 10.06 -17.42 -10.06zm23.22 0l0 6.71 -5.8 3.35 5.8 -10.06zm-133.57 57l116.15 -67.06 11.62 20.12 -116.15 67.06 0 0 -11.62 -20.12zm-116.15 67.06l116.15 -67.06 11.62 20.12 -116.15 67.06 -11.62 0 0 -20.12zm11.62 20.12l-5.81 3.35 -5.81 -3.35 11.62 0zm-116.15 -87.18l116.15 67.06 -11.62 20.12 -116.15 -67.06 0 0 11.62 -20.12zm-116.15 -67.06l116.15 67.06 -11.62 20.12 -116.15 -67.06 -5.8 -10.06 17.42 -10.06zm-11.62 20.12l-5.8 -3.35 0 -6.71 5.8 10.06zm17.42 -144.17l0 134.11 -23.22 0 0 -134.11 0 0 23.22 0zm0 -134.12l0 134.12 -23.22 0 0 -134.12 5.8 -10.06 17.42 10.06zm-23.22 0l0 -6.71 5.8 -3.35 -5.8 10.06zm133.57 -57l-116.15 67.06 -11.62 -20.12 116.15 -67.06 0 0 11.62 20.12zm116.15 -67.06l-116.15 67.06 -11.62 -20.12 116.15 -67.06 11.62 0 0 20.12zm-11.62 -20.12l5.81 -3.35 5.81 3.35 -11.62 0z"/>
        <polygon id="1" class="fil27" points="20924.68,2974.79 21040.83,3041.85 21156.98,3108.91 21156.98,3243.03 21156.98,3377.14 21040.83,3444.2 20924.68,3511.26 20808.53,3444.2 20692.38,3377.14 20692.38,3243.03 20692.38,3108.91 20808.53,3041.85 "/>
       </g>
       <polygon class="fil22" points="21075.37,3424.26 21075.37,3327.84 21156.98,3280.72 21216.97,3246.09 21276.07,3211.97 21326.08,3183.09 21326.08,3112.18 21216.97,3175.17 21215.22,3176.18 21156.98,3209.8 21014.52,3292.05 21014.52,3459.39 21014.52,3523.8 21014.52,3528.66 21014.52,3654.65 21075.37,3619.52 21075.37,3559.59 21075.37,3493.53 "/>
       <polygon class="fil22" points="20773.99,3424.26 20773.99,3327.84 20692.38,3280.72 20632.39,3246.09 20573.3,3211.97 20523.28,3183.09 20523.28,3112.18 20632.39,3175.17 20634.14,3176.18 20692.38,3209.8 20834.84,3292.05 20834.84,3459.39 20834.84,3523.8 20834.84,3528.66 20834.84,3654.65 20773.99,3619.52 20773.99,3559.59 20773.99,3493.53 "/>
       <polygon class="fil22 str3" points="20842.88,3023.79 20926.38,3072 21007.99,3024.89 21067.98,2990.25 21127.08,2956.13 21177.09,2927.26 21238.5,2962.72 21129.39,3025.71 21127.65,3026.72 21069.41,3060.35 20926.96,3142.59 20782.03,3058.92 20726.25,3026.72 20722.05,3024.29 20612.93,2961.29 20673.78,2926.16 20725.68,2956.13 20782.89,2989.16 "/>
      </g>
     </g>
     <g>
      <path class="fil19 str2" d="M18448.52 747.83c401,0 726.08,325.08 726.08,726.08 0,401.01 -325.08,726.09 -726.08,726.09 -401.01,0 -726.09,-325.08 -726.09,-726.09 0,-401 325.08,-726.08 726.09,-726.08z"/>
      <circle class="fil20" cx="18448.52" cy="1473.91" r="650.66"/>
      <g>
       <path class="fil29" d="M19052.29 1473.91l-46.92 0 0 0 -0.73 -28.68 -2.15 -28.28 -3.54 -27.87 -4.89 -27.42 -6.22 -26.94 -7.5 -26.41 -8.75 -25.87 -9.96 -25.28 -11.15 -24.66 -12.3 -24 -13.41 -23.32 -14.49 -22.59 -15.53 -21.85 -16.52 -21.03 -17.51 -20.2 -18.45 -19.35 -19.33 -18.44 -20.22 -17.51 -21.04 -16.54 -21.83 -15.52 -22.6 -14.49 -23.31 -13.41 -24.01 -12.29 -24.67 -11.16 -25.27 -9.96 -25.86 -8.75 -26.42 -7.5 -26.94 -6.22 -27.41 -4.89 -27.87 -3.54 -28.29 -2.15 -28.68 -0.73 0 -46.92 31.04 0.79 30.65 2.33 30.23 3.84 29.73 5.31 29.22 6.74 28.66 8.14 28.06 9.49 27.43 10.82 26.75 12.1 26.03 13.33 25.29 14.53 24.5 15.71 23.67 16.84 22.8 17.92 21.9 18.97 20.97 19.98 19.99 20.97 18.97 21.9 17.92 22.81 16.83 23.67 15.71 24.49 14.53 25.28 13.34 26.04 12.09 26.76 10.82 27.42 9.49 28.07 8.14 28.65 6.74 29.22 5.31 29.74 3.84 30.21 2.33 30.66 0.79 31.04 0 0zm-603.77 603.78l0 -46.92 0 0 28.68 -0.73 28.29 -2.15 27.87 -3.54 27.41 -4.89 26.94 -6.22 26.42 -7.5 25.86 -8.75 25.27 -9.96 24.67 -11.16 24 -12.29 23.32 -13.42 22.6 -14.48 21.83 -15.52 21.04 -16.54 20.22 -17.51 19.33 -18.44 18.45 -19.35 17.51 -20.2 16.52 -21.04 15.54 -21.84 14.48 -22.59 13.41 -23.32 12.3 -24.01 11.15 -24.65 9.96 -25.29 8.75 -25.86 7.5 -26.42 6.22 -26.94 4.89 -27.41 3.54 -27.87 2.15 -28.29 0.73 -28.68 46.92 0 -0.79 31.04 -2.33 30.65 -3.84 30.23 -5.31 29.73 -6.74 29.22 -8.14 28.66 -9.49 28.06 -10.82 27.43 -12.09 26.75 -13.34 26.03 -14.53 25.3 -15.72 24.49 -16.82 23.66 -17.92 22.82 -18.97 21.9 -19.99 20.97 -20.97 19.98 -21.9 18.97 -22.8 17.92 -23.67 16.84 -24.5 15.7 -25.28 14.54 -26.04 13.33 -26.75 12.1 -27.43 10.82 -28.06 9.49 -28.66 8.14 -29.22 6.74 -29.73 5.31 -30.23 3.84 -30.65 2.33 -31.04 0.79 0 0zm-603.78 -603.78l46.92 0 0 0 0.73 28.68 2.15 28.29 3.54 27.87 4.89 27.41 6.22 26.94 7.5 26.42 8.75 25.86 9.96 25.28 11.16 24.66 12.29 24.01 13.42 23.32 14.48 22.59 15.52 21.83 16.54 21.05 17.51 20.21 18.44 19.34 19.34 18.44 20.21 17.51 21.05 16.54 21.83 15.52 22.59 14.48 23.32 13.42 24.01 12.29 24.66 11.16 25.28 9.96 25.86 8.75 26.42 7.5 26.94 6.22 27.41 4.89 27.87 3.54 28.29 2.15 28.68 0.73 0 46.92 -31.04 -0.79 -30.65 -2.33 -30.23 -3.84 -29.73 -5.31 -29.22 -6.74 -28.66 -8.14 -28.06 -9.49 -27.44 -10.82 -26.74 -12.1 -26.03 -13.33 -25.3 -14.54 -24.49 -15.7 -23.67 -16.84 -22.81 -17.92 -21.89 -18.97 -20.98 -19.98 -19.98 -20.98 -18.97 -21.89 -17.92 -22.81 -16.84 -23.67 -15.7 -24.49 -14.54 -25.3 -13.33 -26.03 -12.1 -26.74 -10.82 -27.44 -9.49 -28.06 -8.14 -28.66 -6.74 -29.22 -5.31 -29.73 -3.84 -30.23 -2.33 -30.65 -0.79 -31.04 0 0zm603.78 -603.77l0 46.92 0 0 -28.68 0.73 -28.29 2.15 -27.87 3.54 -27.41 4.89 -26.94 6.22 -26.42 7.5 -25.86 8.75 -25.28 9.96 -24.66 11.16 -24.01 12.29 -23.32 13.41 -22.59 14.48 -21.83 15.53 -21.05 16.54 -20.21 17.51 -19.34 18.44 -18.44 19.34 -17.51 20.21 -16.54 21.04 -15.52 21.84 -14.48 22.59 -13.42 23.32 -12.29 24 -11.16 24.67 -9.96 25.27 -8.75 25.87 -7.5 26.41 -6.22 26.94 -4.89 27.42 -3.54 27.87 -2.15 28.28 -0.73 28.68 -46.92 0 0.79 -31.04 2.33 -30.66 3.84 -30.21 5.31 -29.74 6.74 -29.22 8.14 -28.65 9.49 -28.07 10.82 -27.43 12.1 -26.75 13.33 -26.04 14.54 -25.28 15.7 -24.49 16.84 -23.68 17.92 -22.8 18.97 -21.89 19.98 -20.98 20.98 -19.98 21.89 -18.97 22.81 -17.92 23.67 -16.83 24.49 -15.72 25.3 -14.53 26.03 -13.33 26.74 -12.1 27.44 -10.82 28.06 -9.49 28.66 -8.14 29.22 -6.74 29.73 -5.31 30.23 -3.84 30.65 -2.33 31.04 -0.79 0 0z"/>
       <path id="1" class="fil22" d="M18448.52 893.6c320.5,0 580.31,259.82 580.31,580.31 0,320.5 -259.81,580.32 -580.31,580.32 -320.5,0 -580.32,-259.82 -580.32,-580.32 0,-320.49 259.82,-580.31 580.32,-580.31z"/>
      </g>
      <path class="fil30" d="M18033.16 1259.67l0 210.04c0,10.19 3.59,18.22 8.38,25.91 1.93,3.11 3.36,3.95 5.44,6.55 8.77,10.94 55.66,35.19 71.74,44.86l104.17 60.43c15,9.01 22.29,13.13 40.88,13.13 16.36,0 35.8,-13.32 49.03,-21.26 14.86,-8.91 29.64,-17.06 44.37,-25.94 36.59,-22.07 74.58,-42.5 111.22,-64.52 44.05,-26.46 89.41,-50.9 133.31,-77.59 25.42,-15.45 45.17,-11.34 69.34,3.23l70.51 40.93c13.92,7.75 25.88,15.48 32.56,30.88 3.5,8.05 4.9,16.48 4.9,27.68l0 93.45c0,11.69 -1.14,19.11 -4.17,27.55 -5.64,15.72 -18.26,23.66 -31.68,31.76l-59.69 35.48c-22.46,13.59 -39.37,25.77 -66.61,15.92 -5.94,-2.15 -8.04,-3.64 -13.11,-6.62 -8.64,-5.08 -16.42,-9.27 -24.98,-14.45l-50.47 -29.26c-4.49,-2.71 -8.06,-4.76 -12.45,-7.26 -12.65,-7.18 -21.41,-20.04 -24.07,-35.09 -2.25,-12.72 -0.83,-62.3 -0.83,-78.9 -6.08,1.42 -67.65,38.34 -78.73,44.72 -2.1,1.21 -4.42,1.62 -4.42,4.15l0 69.44c0,13.45 5.4,26.38 11.8,33.63 10.88,12.33 25.88,19.44 39.99,27.73l29.38 16.92c5.09,3.05 9.37,5.66 14.58,8.57l86.29 50.02c35.08,19.1 22.4,15.73 60.57,15.73 5.88,0 24.78,-12.13 30.3,-15.14 5.22,-2.84 9.5,-5.46 14.65,-8.5 5.25,-3.11 9.43,-5.35 14.7,-8.44l116.05 -67.42c10.75,-6.48 18.73,-9.56 26.39,-19.9 6.74,-9.09 11.38,-19.42 11.38,-34.92l0 -201.46c0,-15.81 -5.17,-26.2 -11.99,-35.17 -7.31,-9.62 -16.43,-13.63 -27.07,-20.07l-150.23 -87.24c-13.79,-8.27 -23.07,-13.55 -40.47,-13.55 -19.02,0 -34.91,12.23 -49.88,21.27 -15.17,9.16 -30.34,17.67 -45.33,26.69 -7.39,4.45 -14.59,8.55 -22.08,13.07l-34.17 19.84c-2.34,1.25 -3.2,2.01 -5.41,3.16l-52.02 28.56c-3.95,2.11 -7.85,4.45 -11.47,6.54l-118.23 70.37c-5.8,3.5 -11.51,7.16 -18.13,9.3 -24.86,8.04 -42.11,-3.72 -61.59,-15.39l-50.68 -30.76c-26.63,-15.94 -49.67,-24.91 -49.67,-64.35l0 -98.59c0,-17.73 5.21,-33.33 18.25,-44.33 6.01,-5.07 12.43,-8.28 19.3,-12.41 6.83,-4.11 13.24,-7.57 20.04,-11.69l59.58 -34.72c33.39,-18.6 56.8,0.4 85.11,17.46 4.01,2.42 7.93,4.94 12.2,7.52l37.93 22.93c16.78,10.09 33.55,19.18 37.13,43.46 3.03,20.59 1.08,57.1 1.08,80.37 5.67,-1.32 62.39,-35.89 72.58,-41.45 2.35,-1.28 3.26,-1.97 5.46,-3.11 1.87,-0.96 4.26,-1.62 4.26,-4.31l0 -75.44c0,-6.68 -2.05,-13.57 -4.27,-18.02 -1.13,-2.27 -2.34,-5.09 -3.81,-7.34 -7.58,-11.57 -19.41,-18.77 -31.35,-25.22l-156.62 -92c-15.62,-9.39 -23.51,-6.59 -41.42,-6.59 -10.34,0 -47.71,24.61 -60.05,31.68l-43.31 25.27c-2.63,1.59 -4.56,2.55 -7.08,4.07l-79.38 46.64c-10.59,6.26 -17.74,10.77 -23.38,22.92 -2.2,4.75 -4.55,12.04 -4.55,18.59z"/>
     </g>
     <g>
      <path class="fil19 str2" d="M23189.55 982.31c401,0 726.08,325.08 726.08,726.08 0,401.01 -325.08,726.09 -726.08,726.09 -401,0 -726.08,-325.08 -726.08,-726.09 0,-401 325.08,-726.08 726.08,-726.08z"/>
      <ellipse class="fil20" cx="23189.55" cy="1708.39" rx="650.65" ry="650.66"/>
      <g>
       <path class="fil31" d="M23793.33 1708.39l-46.92 0 0 0 -0.73 -28.68 -2.15 -28.28 -3.54 -27.87 -4.89 -27.42 -6.22 -26.94 -7.5 -26.41 -8.75 -25.87 -9.96 -25.27 -11.16 -24.67 -12.29 -24 -13.42 -23.32 -14.48 -22.59 -15.52 -21.84 -16.54 -21.04 -17.51 -20.21 -18.44 -19.34 -19.34 -18.44 -20.21 -17.51 -21.05 -16.54 -21.83 -15.53 -22.59 -14.48 -23.32 -13.41 -24.01 -12.29 -24.66 -11.16 -25.28 -9.96 -25.86 -8.75 -26.42 -7.5 -26.94 -6.22 -27.41 -4.89 -27.87 -3.54 -28.29 -2.15 -28.68 -0.73 0 -46.92 31.04 0.79 30.65 2.33 30.23 3.84 29.73 5.31 29.22 6.74 28.66 8.14 28.06 9.49 27.44 10.82 26.74 12.1 26.03 13.33 25.3 14.53 24.49 15.72 23.67 16.83 22.81 17.92 21.89 18.97 20.98 19.98 19.98 20.98 18.97 21.89 17.92 22.8 16.84 23.68 15.7 24.49 14.54 25.28 13.33 26.04 12.1 26.75 10.82 27.43 9.49 28.07 8.14 28.65 6.74 29.22 5.31 29.74 3.84 30.21 2.33 30.66 0.79 31.04 0 0zm-603.78 603.78l0 -46.92 0 0 28.68 -0.73 28.29 -2.15 27.87 -3.54 27.41 -4.89 26.94 -6.22 26.42 -7.5 25.86 -8.75 25.28 -9.96 24.66 -11.16 24.01 -12.29 23.32 -13.42 22.59 -14.48 21.83 -15.52 21.05 -16.54 20.21 -17.51 19.34 -18.44 18.44 -19.34 17.51 -20.21 16.54 -21.05 15.52 -21.83 14.48 -22.59 13.42 -23.32 12.29 -24.01 11.16 -24.66 9.96 -25.28 8.75 -25.86 7.5 -26.42 6.22 -26.94 4.89 -27.41 3.54 -27.87 2.15 -28.29 0.73 -28.68 46.92 0 -0.79 31.04 -2.33 30.65 -3.84 30.23 -5.31 29.73 -6.74 29.22 -8.14 28.66 -9.49 28.06 -10.82 27.44 -12.1 26.74 -13.33 26.03 -14.54 25.3 -15.7 24.49 -16.84 23.67 -17.92 22.81 -18.97 21.89 -19.98 20.98 -20.98 19.98 -21.89 18.97 -22.81 17.92 -23.67 16.84 -24.49 15.7 -25.3 14.54 -26.03 13.33 -26.74 12.1 -27.44 10.82 -28.06 9.49 -28.66 8.14 -29.22 6.74 -29.73 5.31 -30.23 3.84 -30.65 2.33 -31.04 0.79 0 0zm-603.77 -603.78l46.92 0 0 0 0.73 28.68 2.15 28.29 3.54 27.87 4.89 27.41 6.22 26.94 7.5 26.42 8.75 25.86 9.96 25.29 11.15 24.65 12.3 24.01 13.41 23.32 14.48 22.59 15.54 21.84 16.52 21.04 17.51 20.2 18.45 19.35 19.33 18.44 20.22 17.51 21.04 16.54 21.83 15.52 22.6 14.48 23.32 13.42 24 12.29 24.67 11.16 25.27 9.96 25.86 8.75 26.42 7.5 26.94 6.22 27.41 4.89 27.87 3.54 28.29 2.15 28.68 0.73 0 46.92 -31.04 -0.79 -30.65 -2.33 -30.23 -3.84 -29.73 -5.31 -29.22 -6.74 -28.66 -8.14 -28.06 -9.49 -27.43 -10.82 -26.75 -12.1 -26.04 -13.33 -25.28 -14.54 -24.5 -15.7 -23.67 -16.84 -22.8 -17.92 -21.9 -18.97 -20.97 -19.98 -19.99 -20.97 -18.97 -21.9 -17.92 -22.82 -16.82 -23.66 -15.72 -24.49 -14.53 -25.3 -13.34 -26.03 -12.09 -26.75 -10.82 -27.43 -9.49 -28.06 -8.14 -28.66 -6.74 -29.22 -5.31 -29.73 -3.84 -30.23 -2.33 -30.65 -0.79 -31.04 0 0zm603.77 -603.77l0 46.92 0 0 -28.68 0.73 -28.29 2.15 -27.87 3.54 -27.41 4.89 -26.94 6.22 -26.42 7.5 -25.86 8.75 -25.27 9.96 -24.67 11.16 -24.01 12.29 -23.31 13.41 -22.6 14.49 -21.83 15.52 -21.04 16.54 -20.22 17.51 -19.33 18.44 -18.45 19.35 -17.51 20.2 -16.52 21.03 -15.53 21.85 -14.49 22.59 -13.41 23.32 -12.3 24 -11.15 24.66 -9.96 25.28 -8.75 25.87 -7.5 26.41 -6.22 26.94 -4.89 27.42 -3.54 27.87 -2.15 28.28 -0.73 28.68 -46.92 0 0.79 -31.04 2.33 -30.66 3.84 -30.21 5.31 -29.74 6.74 -29.22 8.14 -28.65 9.49 -28.07 10.82 -27.42 12.09 -26.76 13.34 -26.04 14.53 -25.28 15.71 -24.49 16.83 -23.67 17.92 -22.81 18.97 -21.9 19.99 -20.97 20.97 -19.98 21.9 -18.97 22.8 -17.92 23.67 -16.84 24.5 -15.71 25.29 -14.53 26.03 -13.33 26.75 -12.1 27.43 -10.82 28.06 -9.49 28.66 -8.14 29.22 -6.74 29.73 -5.31 30.23 -3.84 30.65 -2.33 31.04 -0.79 0 0z"/>
       <path id="1" class="fil22" d="M23189.55 1128.08c320.5,0 580.32,259.82 580.32,580.31 0,320.5 -259.82,580.32 -580.32,580.32 -320.5,0 -580.31,-259.82 -580.31,-580.32 0,-320.49 259.81,-580.31 580.31,-580.31z"/>
      </g>
      <g>
       <path class="fil32" d="M22904.69 1861.58c0,43.08 6.16,83.96 21.84,115.45 29.24,58.7 15.58,36.92 50.94,83.52 23.53,31.02 110.97,105.17 170.23,96.48 1.11,-20.96 -17.85,-42.38 -24.29,-57.43 -3.49,-8.14 -5.96,-12.65 -9.3,-19.36 -14.27,-28.73 -20.77,-48.08 -27.87,-84.41 -3.21,-16.45 -3.48,-34.1 -3.03,-52.67 0.69,-28.89 12.16,-66 23.59,-89.74 3.46,-7.16 6.23,-9.84 10.27,-18.27 10.84,-22.64 9.87,-15.1 20.37,-34.95 5.17,-9.78 98.93,-124.3 128.72,-179.47 18.14,-33.61 24.51,-46.9 24.51,-94.28 0,-60.2 -6.73,-80.65 -23.48,-132.82 -15.49,-48.24 -41.54,-86.77 -71.49,-122.35 -37.93,-45.07 -8.2,42.24 -39.29,133.99 -3.44,10.12 -7.24,16.98 -10.81,28.23 -17.02,53.69 -37.43,79.61 -71.91,124.74 -10.85,14.19 -24.68,26.89 -36.46,40.72l-38.6 40.79c-11.4,12.83 -24.77,27.69 -34.42,42.76 -17.9,27.94 -29.78,42.96 -42.02,76.75 -2.96,8.18 -8.42,23.32 -9.69,29.83 -4.88,25.08 -7.81,43.61 -7.81,72.49z"/>
       <path class="fil33" d="M23284.4 2155.53c7.09,-5.18 13.94,-22.65 41.14,-36.79 26.74,-13.91 52.77,-34.31 72.7,-57.26 79,-90.96 95.69,-204.25 54.04,-317.35 -7.99,-21.7 -32.49,-65.78 -47.66,-82.15 -4.49,-4.84 -8.27,-9.5 -12.33,-14.13 -7.17,-8.19 -17.32,-23.12 -28.52,-24.8 -0.39,0.4 -0.95,0.5 -1.1,1.28 -0.15,0.79 -0.86,1.01 -1.05,1.32 -1.22,1.97 -16.27,46.41 -25.43,65.19l-60.93 104.23c-3.59,5.71 -5.14,10.77 -8.41,16.2 -3.32,5.5 -6.45,6.74 -10.05,13.62l-16.45 31.88c-3.09,7.45 -4.28,10.77 -7.08,17.59 -20.97,51.11 -35.71,105.49 -22.1,161.57 11.47,47.25 28.05,74.75 58.42,109.4 5.85,6.67 5.96,8.87 14.81,10.2z"/>
      </g>
     </g>
    </g>
   </g>
  </g>
 </g>
</svg>
