<?xml version="1.0" encoding="UTF-8"?>
<!DOCTYPE svg PUBLIC "-//W3C//DTD SVG 1.1//EN" "http://www.w3.org/Graphics/SVG/1.1/DTD/svg11.dtd">
<!-- Creator: CorelDRAW 2018 (64-Bit) -->
<svg xmlns="http://www.w3.org/2000/svg" xml:space="preserve" width="254.097mm" height="84.7658mm" version="1.1" style="shape-rendering:geometricPrecision; text-rendering:geometricPrecision; image-rendering:optimizeQuality; fill-rule:evenodd; clip-rule:evenodd"
viewBox="0 0 25399.74 8473.25"
 xmlns:xlink="http://www.w3.org/1999/xlink">
 <defs>
  <style type="text/css">
   <![CDATA[
    .str0 {stroke:#332C2B;stroke-width:19.99;stroke-miterlimit:22.9256}
    .str1 {stroke:white;stroke-width:230.49;stroke-linecap:round;stroke-linejoin:round;stroke-miterlimit:22.9256}
    .str2 {stroke:white;stroke-width:57.33;stroke-linecap:round;stroke-linejoin:round;stroke-miterlimit:22.9256}
    .fil18 {fill:none}
    .fil21 {fill:none;fill-rule:nonzero}
    .fil0 {fill:#001501}
    .fil2 {fill:#002402}
    .fil19 {fill:#00B147}
    .fil12 {fill:#1EC01E}
    .fil20 {fill:#EB003F}
    .fil10 {fill:white}
    .fil17 {fill:#1EC01E;fill-rule:nonzero}
    .fil22 {fill:white;fill-rule:nonzero}
    .fil8 {fill:url(#id2)}
    .fil6 {fill:url(#id3)}
    .fil5 {fill:url(#id4)}
    .fil4 {fill:url(#id5)}
    .fil9 {fill:url(#id6)}
    .fil7 {fill:url(#id7)}
    .fil3 {fill:url(#id8)}
    .fil1 {fill:url(#id9)}
    .fil13 {fill:url(#id10)}
    .fil11 {fill:url(#id11)}
    .fil14 {fill:url(#id12)}
    .fil15 {fill:url(#id13)}
    .fil16 {fill:url(#id14)}
   ]]>
  </style>
     <mask id="id0">
  <linearGradient id="id1" gradientUnits="userSpaceOnUse" x1="4349.36" y1="1101.07" x2="4564.33" y2="1287.81">
   <stop offset="0" style="stop-opacity:1; stop-color:white"/>
   <stop offset="1" style="stop-opacity:0; stop-color:white"/>
  </linearGradient>
      <rect style="fill:url(#id1)" x="760.99" y="564.65" width="4426.47" height="1139.38"/>
     </mask>
  <linearGradient id="id2" gradientUnits="userSpaceOnUse" x1="7589.41" y1="6341.88" x2="25399.75" y2="6341.88">
   <stop offset="0" style="stop-opacity:1; stop-color:#1BAB1B"/>
   <stop offset="1" style="stop-opacity:1; stop-color:#001501"/>
  </linearGradient>
  <linearGradient id="id3" gradientUnits="userSpaceOnUse" xlink:href="#id2" x1="19579.12" y1="114.27" x2="24392.51" y2="3601">
  </linearGradient>
  <linearGradient id="id4" gradientUnits="userSpaceOnUse" x1="21125.45" y1="2462.2" x2="17890.49" y2="8929.54">
   <stop offset="0" style="stop-opacity:1; stop-color:#157D15"/>
   <stop offset="1" style="stop-opacity:1; stop-color:#001501"/>
  </linearGradient>
  <linearGradient id="id5" gradientUnits="userSpaceOnUse" x1="12016.97" y1="3641.03" x2="25399.75" y2="3641.03">
   <stop offset="0" style="stop-opacity:1; stop-color:#126912"/>
   <stop offset="0.690196" style="stop-opacity:1; stop-color:#093F0A"/>
   <stop offset="1" style="stop-opacity:1; stop-color:#001501"/>
  </linearGradient>
  <linearGradient id="id6" gradientUnits="userSpaceOnUse" xlink:href="#id2" x1="7105.98" y1="3933.47" x2="8119.16" y2="-600.13">
  </linearGradient>
  <linearGradient id="id7" gradientUnits="userSpaceOnUse" xlink:href="#id2" x1="4186.57" y1="8834.33" x2="2464.75" y2="5422.23">
  </linearGradient>
  <linearGradient id="id8" gradientUnits="userSpaceOnUse" xlink:href="#id4" x1="10" y1="5585.51" x2="10814.29" y2="5585.51">
  </linearGradient>
  <linearGradient id="id9" gradientUnits="userSpaceOnUse" x1="19314.5" y1="-4064.98" x2="4885.78" y2="7924.99">
   <stop offset="0" style="stop-opacity:1; stop-color:#0F570F"/>
   <stop offset="0.8" style="stop-opacity:1; stop-color:#083608"/>
   <stop offset="1" style="stop-opacity:1; stop-color:#001501"/>
  </linearGradient>
  <linearGradient id="id10" gradientUnits="userSpaceOnUse" x1="1111.16" y1="1114.71" x2="1189.21" y2="1375.87">
   <stop offset="0" style="stop-opacity:1; stop-color:#1EC01E"/>
   <stop offset="0.529412" style="stop-opacity:1; stop-color:#1D6E1D"/>
   <stop offset="1" style="stop-opacity:1; stop-color:#1C1C1C"/>
  </linearGradient>
  <linearGradient id="id11" gradientUnits="userSpaceOnUse" x1="1737.07" y1="1157.72" x2="1818.81" y2="1380.46">
   <stop offset="0" style="stop-opacity:1; stop-color:#1EC01E"/>
   <stop offset="0.678431" style="stop-opacity:1; stop-color:#1D6E1D"/>
   <stop offset="1" style="stop-opacity:1; stop-color:#1C1C1C"/>
  </linearGradient>
  <linearGradient id="id12" gradientUnits="userSpaceOnUse" x1="1229.29" y1="1311.34" x2="1456.94" y2="1309.12">
   <stop offset="0" style="stop-opacity:1; stop-color:#1EC01E"/>
   <stop offset="0.631373" style="stop-opacity:1; stop-color:#1D6E1D"/>
   <stop offset="1" style="stop-opacity:1; stop-color:#1C1C1C"/>
  </linearGradient>
  <linearGradient id="id13" gradientUnits="userSpaceOnUse" x1="1351.31" y1="907.58" x2="1471.38" y2="619.42">
   <stop offset="0" style="stop-opacity:1; stop-color:#1EC01E"/>
   <stop offset="0.65098" style="stop-opacity:1; stop-color:#1D6E1D"/>
   <stop offset="1" style="stop-opacity:1; stop-color:#1C1C1C"/>
  </linearGradient>
  <linearGradient id="id14" gradientUnits="userSpaceOnUse" x1="1697.87" y1="888.14" x2="1858.99" y2="1138.55">
   <stop offset="0" style="stop-opacity:1; stop-color:#1EC01E"/>
   <stop offset="0.670588" style="stop-opacity:1; stop-color:#1D6E1D"/>
   <stop offset="1" style="stop-opacity:1; stop-color:#1C1C1C"/>
  </linearGradient>
 </defs>
 <g id="Layer_x0020_1">
  <metadata id="CorelCorpID_0Corel-Layer"/>
  <g id="_2288150979552">
   <g>
    <rect class="fil0" x="9.99" y="-0" width="25389.76" height="8463.25" rx="423.16" ry="423.16"/>
    <path class="fil1" d="M10 3860.01c5462.74,-1286.59 18710.03,-2610.1 24180.3,-3859.99 0,0 -9251.83,-0.01 -12173.33,0l-11583.81 0 -1.38 -0.02c-232.11,0.74 -421.78,190.87 -421.78,423.16l0 3436.85zm4858.07 -1918.46l-3791.86 0c-120.93,0 -219.88,-98.95 -219.88,-219.88l0 -655.46c0,-120.94 98.95,-219.88 219.88,-219.88l3791.86 0c120.94,0 219.88,98.94 219.88,219.88l0 655.46c0,120.93 -98.94,219.88 -219.88,219.88z"/>
    <path class="fil2" d="M24233.25 8463.24l-24223.26 -4080.58 0 3657.42c0,232.73 190.42,423.16 423.16,423.16l23800.09 -0.01z"/>
    <path class="fil3 str0" d="M10814.29 8463.24c-1770.16,-942.97 -5371.6,-2861.46 -10804.29,-5755.46l0 5332.3c0,232.74 190.42,423.16 423.16,423.16l10381.13 -0.01z"/>
    <path class="fil4" d="M25399.73 7282.05l0 -6858.88 0.01 -1.35c-0.73,-231.67 -190.14,-421.07 -421.8,-421.79l-1.35 0 -12959.62 0c8225.93,4476.02 12686.85,6903.37 13382.77,7282.03z"/>
    <path class="fil5" d="M21105.59 4945.46c-4992.93,2345.19 -7489.39,3517.79 -7489.39,3517.79l11360.38 0 0.66 0.01c231.98,-0.35 421.76,-189.91 422.48,-421.8l0 -1.36 0 -758.04 0.01 -4353.56c-1592.87,748.18 -3024.25,1420.5 -4294.15,2016.97z"/>
    <path class="fil6" d="M25399.73 2226.79l0 -1803.63 0.01 -1.35c-0.73,-231.67 -190.14,-421.07 -421.8,-421.79l-1.35 0 -6404.7 -0.02c2231.3,1214.13 4015.49,2184.97 5352.57,2912.51l0 0.01c248.52,135.23 481.61,262.06 699.24,380.48 285.22,155.2 543.9,295.94 776.04,422.27l0 -1488.48z"/>
    <path class="fil7" d="M6641.33 8463.25c-1325.41,-526.5 -3703.33,-1476.53 -6631.33,-2669.95l0 2246.79c0,232.74 190.42,423.16 423.16,423.16l6208.17 0z"/>
    <polygon class="fil8" points="25399.74,4220.5 25399.74,5735.88 13931,8463.25 7589.41,8463.25 "/>
    <polygon class="fil9" points="8246.23,0 15215.16,0 10,3333.34 10,1800.95 "/>
   </g>
   <g>
    <polygon class="fil10" style="mask:url(#id0)" points="770.99,574.64 2492.45,574.64 2512.44,574.64 5177.46,574.64 4215.07,1694.03 2512.44,1694.03 2492.45,1694.03 770.99,1694.03 "/>
    <g>
     <g>
      <path class="fil11" d="M1825.63 1187.86l0.01 -276.43c0,0 -49.25,28.35 -146.52,84.35l-0.39 276.89 146.9 -84.81z"/>
      <polygon class="fil12" points="1825.64,1357.26 1825.63,1187.86 1292.83,1495.45 1439.55,1580.16 "/>
      <polygon class="fil13" points="1199.99,1166.05 1199.99,826.83 1053.46,911.43 1053.47,1250.45 "/>
      <path class="fil14" d="M1199.72 1441.69l94.1 -54.33 -0.58 -168.56 -239.79 138.45c16,9.22 66.41,38.35 146.26,84.45z"/>
      <path class="fil15" d="M1293.14 1387.75c-0.03,-261.97 -0.05,-614.68 -0.05,-614.68 97.54,56.28 146.31,84.42 146.31,84.42 0,149.39 0,445.27 0,445.27 -97.51,56.3 -146.26,84.99 -146.26,84.99z"/>
      <path class="fil16" d="M1293.09 773.08c257.35,148.47 386.03,222.7 386.03,222.7 97.27,-56 146.52,-84.35 146.52,-84.35 -256.98,-148.84 -386.09,-222.91 -386.09,-222.91 -97.64,56.38 -146.46,84.56 -146.46,84.56z"/>
     </g>
     <g>
      <path class="fil17" d="M2116.96 1115.71c-18.63,-2.54 -33.46,-17.36 -36.01,-36.01l0 -207.13 -52.94 0 0 202.05c0,14.82 3.39,28.8 9.74,41.5 8.9,18.64 24.15,33.89 42.78,43.2 12.71,6.36 26.69,9.75 41.51,9.75l150.36 0 0 -52.95 -155.45 -0.42z"/>
      <polygon id="1" class="fil17" points="2367.71,1169.08 2367.71,872.58 2314.77,872.58 2314.77,1169.08 "/>
      <polygon id="2" class="fil17" points="2410.07,872.58 2410.07,925.53 2531.63,925.53 2531.63,1169.08 2584.58,1169.08 2584.58,925.53 2706.15,925.53 2706.15,872.58 "/>
      <path id="3" class="fil17" d="M2828.98 925.53l216.46 0 0 -52.95 -216.46 0c-44.05,0 -79.63,36.01 -79.63,80.06l0 136.39c0,44.05 35.58,80.06 79.63,80.06l216.46 0 0 -52.95 -216.46 0c-14.82,0 -27.11,-12.29 -27.11,-27.11l0 -55.91 190.63 0 0 -52.95 -190.63 0 0 -27.53c0,-14.82 12.29,-27.11 27.11,-27.11z"/>
      <path id="4" class="fil17" d="M3087.8 872.58l0 296.5 148.25 0c40.66,0 77.51,-16.52 104.2,-43.63 2.96,-2.96 5.93,-5.93 8.47,-8.89 22.03,-25.84 35.16,-59.31 35.16,-95.73 0,-82.17 -66.5,-148.25 -148.25,-148.25l-147.82 0zm52.52 52.95l95.3 0c52.53,0 95.3,42.85 95.3,95.51 0,52.67 -42.77,95.52 -95.3,95.52l-95.3 0 0 -191.03z"/>
      <path id="5" class="fil17" d="M3506.7 925.53l216.45 0 0 -52.95 -216.45 0c-44.05,0 -79.63,36.01 -79.63,80.06l0 136.39c0,44.05 35.58,80.06 79.63,80.06l216.45 0 0 -52.95 -216.45 0c-14.82,0 -27.11,-12.29 -27.11,-27.11l0 -55.91 190.62 0 0 -52.95 -190.62 0 0 -27.53c0,-14.82 12.29,-27.11 27.11,-27.11z"/>
      <path id="6" class="fil17" d="M3754.91 1170.35l0.85 -0.85 -0.85 0 0 0.85zm296.51 -0.85l-0.42 0 0.42 0.85 0 -0.85zm0 -296.92l-66.5 0 -81.33 105.61 -81.33 -105.61 -66.92 0 114.78 148.89 -113.95 148.03 66.93 0 80.9 -104.76 80.91 104.76 66.93 0 -114.37 -148.03 114.78 -148.89 -0.85 0z"/>
      <path class="fil17" d="M2236.39 1396.12c-2.76,0 -4.93,-0.74 -6.52,-2.23 -1.59,-1.48 -2.38,-3.54 -2.38,-6.19l0 -82.27c0,-6.89 2.01,-12.29 6.04,-16.2 4.02,-3.92 9.63,-5.88 16.83,-5.88l27 0c15.66,0 27.55,3.29 35.66,9.85 8.1,6.57 12.15,16.25 12.15,29.07 0,12.6 -4,22.15 -12,28.67 -7.99,6.51 -19.66,9.77 -35.02,9.77l-32.56 0 0 27c0,2.54 -0.85,4.58 -2.54,6.12 -1.7,1.53 -3.92,2.3 -6.67,2.3zm41.6 -49.71c19.27,0 28.91,-8.05 28.91,-24.14 0,-8.47 -2.41,-14.71 -7.23,-18.74 -4.82,-4.02 -12,-6.04 -21.52,-6.04l-25.25 0c-2.33,0 -4.13,0.75 -5.4,2.23 -1.27,1.48 -1.91,3.49 -1.91,6.04l0 40.65 32.4 0z"/>
      <path id="1" class="fil17" d="M2443.54 1305.6c0,-6.89 2.01,-12.32 6.04,-16.28 4.02,-3.97 9.69,-5.96 16.99,-5.96l28.74 0c15.35,0 26.92,3.08 34.71,9.22 7.78,6.14 11.68,15.19 11.68,27.16 0,11.33 -3.45,20.11 -10.33,26.36 -6.88,6.25 -16.41,9.38 -28.59,9.38l26.37 26.68c1.69,1.69 2.54,3.55 2.54,5.56 0,2.22 -1.06,4.23 -3.18,6.04 -2.01,1.48 -3.97,2.22 -5.88,2.22 -2.65,0 -5.19,-1.27 -7.62,-3.81l-34.95 -36.22 -17.94 0 0 31.61c0,2.65 -0.88,4.74 -2.62,6.28 -1.75,1.53 -4,2.3 -6.76,2.3 -2.86,0 -5.11,-0.77 -6.75,-2.3 -1.64,-1.54 -2.46,-3.63 -2.46,-6.28l0 -81.95zm51.62 35.74c10.16,0 17.33,-1.62 21.51,-4.85 4.19,-3.23 6.28,-8.82 6.28,-16.75 0,-7.73 -2.28,-13.29 -6.83,-16.67 -4.56,-3.39 -11.55,-5.09 -20.96,-5.09l-25.89 0c-2.23,0 -3.97,0.72 -5.25,2.15 -1.27,1.43 -1.9,3.41 -1.9,5.95l0 35.27 33.04 0z"/>
      <path id="2" class="fil17" d="M2712 1396.12c-11.75,0 -22.04,-2.38 -30.9,-7.15 -8.84,-4.77 -15.64,-11.49 -20.41,-20.17 -4.76,-8.68 -7.14,-18.63 -7.14,-29.86 0,-11.23 2.38,-21.17 7.14,-29.86 4.77,-8.68 11.58,-15.4 20.41,-20.17 8.86,-4.76 19.15,-7.14 30.9,-7.14 11.76,0 22.05,2.38 30.9,7.14 8.84,4.77 15.63,11.5 20.4,20.17 4.77,8.69 7.15,18.63 7.15,29.86 0,11.23 -2.38,21.18 -7.15,29.86 -4.77,8.69 -11.57,15.4 -20.4,20.17 -8.85,4.77 -19.14,7.15 -30.9,7.15zm0 -14.45c12.4,0 22.18,-3.81 29.39,-11.44 7.2,-7.62 10.8,-18.05 10.8,-31.29 0,-13.33 -3.68,-23.79 -11.04,-31.37 -7.36,-7.57 -17.39,-11.36 -30.1,-11.36 -8.05,0 -15.03,1.75 -20.96,5.25 -5.94,3.49 -10.5,8.47 -13.67,14.92 -3.17,6.46 -4.76,13.97 -4.76,22.55 0,8.79 1.64,16.38 4.92,22.79 3.29,6.41 7.95,11.33 13.98,14.77 6.04,3.44 13.18,5.16 21.44,5.16z"/>
      <path id="3" class="fil17" d="M2923.61 1396.12c-2.75,0 -4.95,-0.74 -6.59,-2.23 -1.65,-1.48 -2.47,-3.54 -2.47,-6.19l0 -90.21 -32.56 0c-2.75,0 -4.87,-0.6 -6.35,-1.82 -1.48,-1.22 -2.23,-2.94 -2.23,-5.17 0,-2.33 0.75,-4.1 2.23,-5.32 1.48,-1.22 3.6,-1.83 6.35,-1.83l83.23 0c2.75,0 4.9,0.61 6.43,1.83 1.54,1.22 2.31,2.99 2.31,5.32 0,2.23 -0.77,3.95 -2.31,5.17 -1.53,1.22 -3.68,1.82 -6.43,1.82l-32.56 0 0 90.21c0,2.54 -0.82,4.58 -2.47,6.12 -1.64,1.53 -3.84,2.3 -6.59,2.3z"/>
      <path id="4" class="fil17" d="M3135.37 1396.12c-11.75,0 -22.04,-2.38 -30.89,-7.15 -8.84,-4.77 -15.64,-11.49 -20.41,-20.17 -4.76,-8.68 -7.14,-18.63 -7.14,-29.86 0,-11.23 2.38,-21.17 7.14,-29.86 4.77,-8.68 11.58,-15.4 20.41,-20.17 8.85,-4.76 19.14,-7.14 30.89,-7.14 11.76,0 22.05,2.38 30.9,7.14 8.84,4.77 15.63,11.5 20.4,20.17 4.77,8.69 7.15,18.63 7.15,29.86 0,11.23 -2.38,21.18 -7.15,29.86 -4.77,8.69 -11.57,15.4 -20.4,20.17 -8.85,4.77 -19.14,7.15 -30.9,7.15zm0 -14.45c12.4,0 22.18,-3.81 29.39,-11.44 7.2,-7.62 10.8,-18.05 10.8,-31.29 0,-13.33 -3.68,-23.79 -11.04,-31.37 -7.36,-7.57 -17.39,-11.36 -30.1,-11.36 -8.05,0 -15.03,1.75 -20.96,5.25 -5.93,3.49 -10.49,8.47 -13.66,14.92 -3.17,6.46 -4.76,13.97 -4.76,22.55 0,8.79 1.64,16.38 4.92,22.79 3.29,6.41 7.95,11.33 13.97,14.77 6.04,3.44 13.18,5.16 21.44,5.16z"/>
      <path id="5" class="fil17" d="M3366.99 1396.12c-11.65,0 -21.78,-2.3 -30.41,-6.91 -8.64,-4.61 -15.25,-11.2 -19.85,-19.77 -4.61,-8.58 -6.91,-18.69 -6.91,-30.34 0,-11.65 2.3,-21.78 6.91,-30.41 4.6,-8.64 11.2,-15.27 19.77,-19.93 8.58,-4.66 18.68,-6.99 30.33,-6.99 9.54,0 18.37,1.64 26.53,4.92 8.15,3.28 14.29,7.73 18.42,13.34 1.16,1.69 1.74,3.23 1.74,4.6 0,2.33 -1.21,4.4 -3.65,6.2 -1.38,0.85 -2.81,1.27 -4.29,1.27 -1.38,0 -2.73,-0.32 -4.05,-0.95 -1.33,-0.64 -2.46,-1.48 -3.42,-2.54 -3.49,-4.24 -7.81,-7.37 -12.94,-9.38 -5.13,-2.01 -11.25,-3.02 -18.34,-3.02 -12.18,0 -21.67,3.79 -28.51,11.36 -6.83,7.58 -10.24,18.08 -10.24,31.53 0,13.23 3.44,23.64 10.32,31.21 6.89,7.57 16.41,11.36 28.59,11.36 14.4,0 25.47,-4.13 33.2,-12.39 2.54,-2.54 5.13,-3.82 7.78,-3.82 1.7,0 3.23,0.53 4.61,1.59 2.12,1.8 3.18,3.76 3.18,5.88 0,1.8 -0.64,3.5 -1.91,5.09 -4.55,5.61 -10.96,10.03 -19.21,13.25 -8.26,3.23 -17.47,4.85 -27.64,4.85z"/>
      <path id="6" class="fil17" d="M3590.18 1396.12c-11.75,0 -22.04,-2.38 -30.89,-7.15 -8.84,-4.77 -15.64,-11.49 -20.41,-20.17 -4.76,-8.68 -7.14,-18.63 -7.14,-29.86 0,-11.23 2.38,-21.17 7.14,-29.86 4.77,-8.68 11.58,-15.4 20.41,-20.17 8.85,-4.76 19.14,-7.14 30.89,-7.14 11.76,0 22.05,2.38 30.9,7.14 8.84,4.77 15.63,11.5 20.4,20.17 4.77,8.69 7.15,18.63 7.15,29.86 0,11.23 -2.38,21.18 -7.15,29.86 -4.77,8.69 -11.57,15.4 -20.4,20.17 -8.85,4.77 -19.14,7.15 -30.9,7.15zm0 -14.45c12.4,0 22.18,-3.81 29.39,-11.44 7.2,-7.62 10.8,-18.05 10.8,-31.29 0,-13.33 -3.68,-23.79 -11.04,-31.37 -7.36,-7.57 -17.39,-11.36 -30.1,-11.36 -8.05,0 -15.03,1.75 -20.96,5.25 -5.93,3.49 -10.49,8.47 -13.66,14.92 -3.17,6.46 -4.76,13.97 -4.76,22.55 0,8.79 1.64,16.38 4.92,22.79 3.29,6.41 7.95,11.33 13.97,14.77 6.04,3.44 13.18,5.16 21.44,5.16z"/>
      <path id="7" class="fil17" d="M3790.84 1394.53c-7.41,0 -13.2,-1.99 -17.39,-5.96 -4.18,-3.97 -6.27,-9.5 -6.27,-16.59l0 -81.79c0,-2.65 0.79,-4.72 2.38,-6.2 1.59,-1.48 3.76,-2.22 6.51,-2.22 2.76,0 4.96,0.76 6.6,2.3 1.64,1.53 2.46,3.57 2.46,6.12l0 81.95c0,2.54 0.66,4.55 1.99,6.04 1.32,1.48 3.15,2.22 5.48,2.22l51.46 0c5.71,0 8.57,2.38 8.57,7.15 0,2.22 -0.74,3.94 -2.22,5.16 -1.48,1.22 -3.6,1.83 -6.35,1.83l-53.21 0z"/>
     </g>
    </g>
   </g>
   <g>
    <g>
     <path class="fil18 str1" d="M15868.17 4976.33l297.74 0 0 -665.73 91.61 0 0 665.73 297.7 0 0 1139.38 -297.7 0 0 665.76 -91.61 0 0 -665.76 -297.74 0 0 -1139.38zm-669.09 1434.67l91.6 0 0 334.71 297.71 0 0 241.26 -297.71 0 0 334.71 -91.6 0 0 -334.71 -297.74 0 0 -241.26 297.74 0 0 -334.71zm1933.66 -1205l91.61 0 0 455.36 297.7 0 0 509.36 -297.7 0 0 455.36 -91.61 0 0 -455.36 -297.74 0 0 -509.36 297.74 0 0 -455.36zm1933.66 -620.84l91.61 0 0 350.96 297.7 0 0 1032.11 -297.7 0 0 350.99 -91.61 0 0 -350.99 -297.73 0 0 -1032.11 297.73 0 0 -350.96zm1933.67 -229.34l91.6 0 0 339.01 297.71 0 0 375.33 -297.71 0 0 339.07 -91.6 0 0 -339.07 -297.74 0 0 -375.33 297.74 0 0 -339.01zm1933.66 -1469.58l91.61 0 0 309.16 297.7 0 0 991.91 -297.7 0 0 309.17 -91.61 0 0 -309.17 -297.74 0 0 -991.91 297.74 0 0 -309.16zm-4834.16 1274.92l91.61 0 0 455.54 297.7 0 0 764.05 -297.7 0 0 455.58 -91.61 0 0 -455.58 -297.74 0 0 -764.05 297.74 0 0 -455.54zm1933.67 -478.59l91.6 0 0 288.61 297.7 0 0 1099.16 -297.7 0 0 288.64 -91.6 0 0 -288.64 -297.74 0 0 -1099.16 297.74 0 0 -288.61zm1933.66 -1150.43l91.6 0 0 406.72 297.71 0 0 1380.67 -297.71 0 0 406.74 -91.6 0 0 -406.74 -297.74 0 0 -1380.67 297.74 0 0 -406.72zm1933.66 -1390.56l91.61 0 0 269.2 297.7 0 0 1152.78 -297.7 0 0 269.22 -91.61 0 0 -269.22 -297.74 0 0 -1152.78 297.74 0 0 -269.2z"/>
     <path id="1" class="fil10" d="M15868.17 4976.33l297.74 0 0 -665.73 91.61 0 0 665.73 297.7 0 0 1139.38 -297.7 0 0 665.76 -91.61 0 0 -665.76 -297.74 0 0 -1139.38zm-669.09 1434.67l91.6 0 0 334.71 297.71 0 0 241.26 -297.71 0 0 334.71 -91.6 0 0 -334.71 -297.74 0 0 -241.26 297.74 0 0 -334.71zm1933.66 -1205l91.61 0 0 455.36 297.7 0 0 509.36 -297.7 0 0 455.36 -91.61 0 0 -455.36 -297.74 0 0 -509.36 297.74 0 0 -455.36zm1933.66 -620.84l91.61 0 0 350.96 297.7 0 0 1032.11 -297.7 0 0 350.99 -91.61 0 0 -350.99 -297.73 0 0 -1032.11 297.73 0 0 -350.96zm1933.67 -229.34l91.6 0 0 339.01 297.71 0 0 375.33 -297.71 0 0 339.07 -91.6 0 0 -339.07 -297.74 0 0 -375.33 297.74 0 0 -339.01zm1933.66 -1469.58l91.61 0 0 309.16 297.7 0 0 991.91 -297.7 0 0 309.17 -91.61 0 0 -309.17 -297.74 0 0 -991.91 297.74 0 0 -309.16zm-4834.16 1274.92l91.61 0 0 455.54 297.7 0 0 764.05 -297.7 0 0 455.58 -91.61 0 0 -455.58 -297.74 0 0 -764.05 297.74 0 0 -455.54zm1933.67 -478.59l91.6 0 0 288.61 297.7 0 0 1099.16 -297.7 0 0 288.64 -91.6 0 0 -288.64 -297.74 0 0 -1099.16 297.74 0 0 -288.61zm1933.66 -1150.43l91.6 0 0 406.72 297.71 0 0 1380.67 -297.71 0 0 406.74 -91.6 0 0 -406.74 -297.74 0 0 -1380.67 297.74 0 0 -406.72zm1933.66 -1390.56l91.61 0 0 269.2 297.7 0 0 1152.78 -297.7 0 0 269.22 -91.61 0 0 -269.22 -297.74 0 0 -1152.78 297.74 0 0 -269.2z"/>
    </g>
    <g>
     <rect class="fil19" x="15868.16" y="4976.32" width="687.05" height="1139.37"/>
     <rect class="fil19" x="17801.82" y="4616.7" width="687.05" height="764.04"/>
     <rect class="fil19" x="19735.49" y="3971.15" width="687.05" height="1099.16"/>
     <rect class="fil19" x="21669.15" y="2938.83" width="687.05" height="1380.66"/>
     <rect class="fil19" x="23602.81" y="1410.76" width="687.05" height="1152.77"/>
     <rect class="fil19" x="23900.57" y="1141.57" width="91.61" height="1691.2"/>
     <rect class="fil19" x="21966.9" y="2532.13" width="91.61" height="2194.13"/>
     <rect class="fil19" x="20033.24" y="3682.55" width="91.61" height="1676.41"/>
     <rect class="fil19" x="18099.58" y="4161.14" width="91.61" height="1675.18"/>
     <rect class="fil19" x="16165.92" y="4310.58" width="91.61" height="2470.88"/>
     <rect class="fil20" x="14901.33" y="6745.7" width="687.05" height="241.25"/>
     <rect class="fil20" x="16834.99" y="5661.36" width="687.05" height="509.35"/>
     <rect class="fil20" x="18768.65" y="4936.1" width="687.05" height="1032.12"/>
     <rect class="fil20" x="20702.32" y="4694.83" width="687.05" height="375.33"/>
     <rect class="fil20" x="22635.98" y="3195.38" width="687.05" height="991.91"/>
     <rect class="fil20" x="22933.74" y="2886.24" width="91.61" height="1610.23"/>
     <rect class="fil20" x="21000.07" y="4355.82" width="91.61" height="1053.4"/>
     <rect class="fil20" x="19066.41" y="4585.15" width="91.61" height="1734.07"/>
     <rect class="fil20" x="17132.75" y="5205.99" width="91.61" height="1420.1"/>
     <rect class="fil20" x="15199.08" y="6411" width="91.61" height="910.67"/>
    </g>
   </g>
   <g>
    <polygon class="fil21 str2" points="1708.09,6364.92 1708.09,6741.12 1041.6,6741.12 1041.6,6364.92 856.46,6364.92 856.46,7401.68 1041.6,7401.68 1041.6,6926.25 1708.09,6926.25 1708.09,7401.68 1893.23,7401.68 1893.23,6364.92 "/>
   </g>
   <g>
    <path id="1" class="fil21 str2" d="M2524.18 6364.92c-285.85,0 -518.39,232.53 -518.39,518.39 0,285.85 232.54,518.38 518.39,518.38 285.85,0 518.38,-232.53 518.38,-518.38 0,-285.86 -232.53,-518.39 -518.38,-518.39zm0 851.63c-183.66,0 -333.25,-149.59 -333.25,-333.24 0,-183.66 149.59,-333.25 333.25,-333.25 183.65,0 333.24,149.59 333.24,333.25 0,183.65 -149.59,333.24 -333.24,333.24z"/>
   </g>
   <g>
    <polygon id="2" class="fil21 str2" points="4341.47,6364.92 4148.93,6364.92 3962.31,6989.94 3805.32,6772.22 3775.7,6730.74 3691.28,6615.22 3606.85,6730.74 3577.23,6772.22 3420.24,6989.94 3420.24,6989.94 3420.24,6989.94 3233.62,6364.92 3041.07,6364.92 3282.5,7178.04 3349.14,7400.2 3349.14,7400.2 3349.14,7400.2 3485.4,7212.1 3689.79,6929.22 3895.67,7212.1 3895.67,7212.1 4031.92,7401.68 4031.92,7401.68 4031.92,7401.68 4098.58,7178.04 4098.58,7178.04 "/>
   </g>
   <g>
    <polygon id="3" class="fil21 str2" points="5210.86,6364.92 5210.86,6550.05 5635.93,6550.05 5635.93,7401.68 5821.07,7401.68 5821.07,6550.05 6246.14,6550.05 6246.14,6364.92 "/>
   </g>
   <g>
    <path id="4" class="fil21 str2" d="M6780.82 6364.92c-285.85,0 -518.39,232.53 -518.39,518.39 0,285.85 232.54,518.38 518.39,518.38 285.85,0 518.38,-232.53 518.38,-518.38 0,-285.86 -232.53,-518.39 -518.38,-518.39zm0 851.63c-183.66,0 -333.25,-149.59 -333.25,-333.24 0,-183.66 149.59,-333.25 333.25,-333.25 183.65,0 333.24,149.59 333.24,333.25 0,183.65 -149.59,333.24 -333.24,333.24z"/>
   </g>
   <g>
    <polygon id="5" class="fil21 str2" points="8133.05,6364.92 8133.05,6550.05 8558.13,6550.05 8558.13,7401.68 8743.26,7401.68 8743.26,6550.05 9168.34,6550.05 9168.34,6364.92 "/>
   </g>
   <g>
    <path id="6" class="fil21 str2" d="M10006.64 6923.29c0,0 0,0 0,0 28.14,-2.96 54.8,-10.37 79.98,-22.21 96.27,-44.43 162.92,-142.18 162.92,-255.49 0,-77.76 -31.1,-147.37 -81.46,-199.21 -50.35,-50.35 -119.96,-81.46 -196.98,-81.46l-654.64 0 0 1036.76 185.14 0 0 -475.43 185.14 0c66.64,0 124.41,35.31 157,88.63l4.44 8.64 99.23 193.53 94.79 184.64 207.35 0 -94.78 -184.64 -148.11 -293.75zm-505.05 -180.69l0 -192.54 469.51 0c32.59,0 54.8,14.81 66.65,26.91 10.37,10.37 28.14,34.31 28.14,68.62 0,37.28 -22.22,71.58 -56.29,86.65 -11.85,5.92 -25.18,8.89 -38.5,8.89l-469.51 1.48z"/>
   </g>
   <g>
    <polygon id="7" class="fil21 str2" points="11304.07,7216.54 10870.11,6364.92 10436.16,7216.54 10341.36,7401.68 10548.71,7401.68 10643.51,7216.54 10870.11,6772.22 11096.72,7216.54 11191.51,7401.68 11398.86,7401.68 "/>
   </g>
   <g>
    <path id="8" class="fil21 str2" d="M11487.72 6364.92l0 1036.76 518.39 0c142.18,0 271.03,-57.77 364.35,-152.55 10.37,-10.37 20.73,-20.74 29.62,-31.11 77.02,-90.34 122.93,-207.35 122.93,-334.72 0,-287.34 -232.53,-518.39 -518.38,-518.39l-516.91 0zm183.66 185.14l333.25 0c183.65,0 333.24,149.84 333.24,333.99 0,184.15 -149.59,333.98 -333.24,333.98l-333.25 0 0 -667.97z"/>
   </g>
   <g>
    <path id="9" class="fil21 str2" d="M12952.53 6550.05l756.83 0 0 -185.14 -756.83 0c-154.03,0 -278.44,125.89 -278.44,279.93l0 476.9c0,154.04 124.41,279.93 278.44,279.93l756.83 0 0 -185.14 -756.83 0c-51.84,0 -94.79,-42.95 -94.79,-94.79l0 -195.5 666.49 0 0 -185.13 -666.49 0 0 -96.27c0,-51.84 42.95,-94.79 94.79,-94.79z"/>
   </g>
   <polygon id="10" class="fil22" points="1708.09,6364.92 1708.09,6741.12 1041.6,6741.12 1041.6,6364.92 856.46,6364.92 856.46,7401.68 1041.6,7401.68 1041.6,6926.25 1708.09,6926.25 1708.09,7401.68 1893.23,7401.68 1893.23,6364.92 "/>
   <path id="11" class="fil22" d="M2524.18 6364.92c-285.85,0 -518.39,232.53 -518.39,518.39 0,285.85 232.54,518.38 518.39,518.38 285.85,0 518.38,-232.53 518.38,-518.38 0,-285.86 -232.53,-518.39 -518.38,-518.39zm0 851.63c-183.66,0 -333.25,-149.59 -333.25,-333.24 0,-183.66 149.59,-333.25 333.25,-333.25 183.65,0 333.24,149.59 333.24,333.25 0,183.65 -149.59,333.24 -333.24,333.24z"/>
   <polygon id="12" class="fil22" points="4341.47,6364.92 4148.93,6364.92 3962.31,6989.94 3805.32,6772.22 3775.7,6730.74 3691.28,6615.22 3606.85,6730.74 3577.23,6772.22 3420.24,6989.94 3420.24,6989.94 3420.24,6989.94 3233.62,6364.92 3041.07,6364.92 3282.5,7178.04 3349.14,7400.2 3349.14,7400.2 3349.14,7400.2 3485.4,7212.1 3689.79,6929.22 3895.67,7212.1 3895.67,7212.1 4031.92,7401.68 4031.92,7401.68 4031.92,7401.68 4098.58,7178.04 4098.58,7178.04 "/>
   <polygon id="13" class="fil22" points="5210.86,6364.92 5210.86,6550.05 5635.93,6550.05 5635.93,7401.68 5821.07,7401.68 5821.07,6550.05 6246.14,6550.05 6246.14,6364.92 "/>
   <path id="14" class="fil22" d="M6780.82 6364.92c-285.85,0 -518.39,232.53 -518.39,518.39 0,285.85 232.54,518.38 518.39,518.38 285.85,0 518.38,-232.53 518.38,-518.38 0,-285.86 -232.53,-518.39 -518.38,-518.39zm0 851.63c-183.66,0 -333.25,-149.59 -333.25,-333.24 0,-183.66 149.59,-333.25 333.25,-333.25 183.65,0 333.24,149.59 333.24,333.25 0,183.65 -149.59,333.24 -333.24,333.24z"/>
   <polygon id="15" class="fil22" points="8133.05,6364.92 8133.05,6550.05 8558.13,6550.05 8558.13,7401.68 8743.26,7401.68 8743.26,6550.05 9168.34,6550.05 9168.34,6364.92 "/>
   <path id="16" class="fil22" d="M10006.64 6923.29c0,0 0,0 0,0 28.14,-2.96 54.8,-10.37 79.98,-22.21 96.27,-44.43 162.92,-142.18 162.92,-255.49 0,-77.76 -31.1,-147.37 -81.46,-199.21 -50.35,-50.35 -119.96,-81.46 -196.98,-81.46l-654.64 0 0 1036.76 185.14 0 0 -475.43 185.14 0c66.64,0 124.41,35.31 157,88.63l4.44 8.64 99.23 193.53 94.79 184.64 207.35 0 -94.78 -184.64 -148.11 -293.75zm-505.05 -180.69l0 -192.54 469.51 0c32.59,0 54.8,14.81 66.65,26.91 10.37,10.37 28.14,34.31 28.14,68.62 0,37.28 -22.22,71.58 -56.29,86.65 -11.85,5.92 -25.18,8.89 -38.5,8.89l-469.51 1.48z"/>
   <polygon id="17" class="fil22" points="11304.07,7216.54 10870.11,6364.92 10436.16,7216.54 10341.36,7401.68 10548.71,7401.68 10643.51,7216.54 10870.11,6772.22 11096.72,7216.54 11191.51,7401.68 11398.86,7401.68 "/>
   <path id="18" class="fil22" d="M11487.72 6364.92l0 1036.76 518.39 0c142.18,0 271.03,-57.77 364.35,-152.55 10.37,-10.37 20.73,-20.74 29.62,-31.11 77.02,-90.34 122.93,-207.35 122.93,-334.72 0,-287.34 -232.53,-518.39 -518.38,-518.39l-516.91 0zm183.66 185.14l333.25 0c183.65,0 333.24,149.84 333.24,333.99 0,184.15 -149.59,333.98 -333.24,333.98l-333.25 0 0 -667.97z"/>
   <path id="19" class="fil22" d="M12952.53 6550.05l756.83 0 0 -185.14 -756.83 0c-154.03,0 -278.44,125.89 -278.44,279.93l0 476.9c0,154.04 124.41,279.93 278.44,279.93l756.83 0 0 -185.14 -756.83 0c-51.84,0 -94.79,-42.95 -94.79,-94.79l0 -195.5 666.49 0 0 -185.13 -666.49 0 0 -96.27c0,-51.84 42.95,-94.79 94.79,-94.79z"/>
  </g>
 </g>
</svg>
