<?xml version="1.0" encoding="UTF-8"?>
<!DOCTYPE svg PUBLIC "-//W3C//DTD SVG 1.1//EN" "http://www.w3.org/Graphics/SVG/1.1/DTD/svg11.dtd">
<!-- Creator: CorelDRAW 2018 (64-Bit) -->
<svg xmlns="http://www.w3.org/2000/svg" xml:space="preserve" width="253.997mm" height="84.6658mm" version="1.1" style="shape-rendering:geometricPrecision; text-rendering:geometricPrecision; image-rendering:optimizeQuality; fill-rule:evenodd; clip-rule:evenodd"
viewBox="0 0 25400 8466.67"
 xmlns:xlink="http://www.w3.org/1999/xlink">
 <defs>
  <style type="text/css">
   <![CDATA[
    .str0 {stroke:white;stroke-width:57.35;stroke-linecap:round;stroke-linejoin:round;stroke-miterlimit:22.9256}
    .fil26 {fill:none}
    .fil38 {fill:none;fill-rule:nonzero}
    .fil0 {fill:#001501}
    .fil2 {fill:#002402}
    .fil25 {fill:#008707}
    .fil27 {fill:#00B509}
    .fil12 {fill:#1EC01E}
    .fil33 {fill:#DA7D2D}
    .fil35 {fill:#EA8823}
    .fil36 {fill:#FAAB28}
    .fil34 {fill:#FEEA3B}
    .fil10 {fill:white}
    .fil28 {fill:white}
    .fil29 {fill:#F4A307;fill-rule:nonzero}
    .fil31 {fill:#FDE144;fill-rule:nonzero}
    .fil23 {fill:#97836D;fill-rule:nonzero}
    .fil21 {fill:#004704;fill-rule:nonzero}
    .fil22 {fill:#008707;fill-rule:nonzero}
    .fil20 {fill:#00B509;fill-rule:nonzero}
    .fil17 {fill:#1EC01E;fill-rule:nonzero}
    .fil24 {fill:#E3FFEA;fill-rule:nonzero}
    .fil30 {fill:#FBDE18;fill-rule:nonzero}
    .fil32 {fill:#FDB427;fill-rule:nonzero}
    .fil19 {fill:white;fill-rule:nonzero}
    .fil18 {fill:white;fill-opacity:0.121569}
    .fil37 {fill:white;fill-opacity:0.901961}
    .fil8 {fill:url(#id2)}
    .fil6 {fill:url(#id3)}
    .fil5 {fill:url(#id4)}
    .fil4 {fill:url(#id5)}
    .fil9 {fill:url(#id6)}
    .fil7 {fill:url(#id7)}
    .fil3 {fill:url(#id8)}
    .fil1 {fill:url(#id9)}
    .fil13 {fill:url(#id10)}
    .fil11 {fill:url(#id11)}
    .fil14 {fill:url(#id12)}
    .fil15 {fill:url(#id13)}
    .fil16 {fill:url(#id14)}
   ]]>
  </style>
     <mask id="id0">
  <linearGradient id="id1" gradientUnits="userSpaceOnUse" x1="4341.12" y1="1101.51" x2="4556.17" y2="1288.33">
   <stop offset="0" style="stop-opacity:1; stop-color:white"/>
   <stop offset="1" style="stop-opacity:0; stop-color:white"/>
  </linearGradient>
      <rect style="fill:url(#id1)" x="751.3" y="564.88" width="4428.26" height="1139.84"/>
     </mask>
  <linearGradient id="id2" gradientUnits="userSpaceOnUse" x1="7582.47" y1="6344.44" x2="25400.01" y2="6344.44">
   <stop offset="0" style="stop-opacity:1; stop-color:#1BAB1B"/>
   <stop offset="1" style="stop-opacity:1; stop-color:#001501"/>
  </linearGradient>
  <linearGradient id="id3" gradientUnits="userSpaceOnUse" xlink:href="#id2" x1="19577.03" y1="114.31" x2="24392.36" y2="3602.46">
  </linearGradient>
  <linearGradient id="id4" gradientUnits="userSpaceOnUse" x1="21123.98" y1="2463.2" x2="17887.71" y2="8933.14">
   <stop offset="0" style="stop-opacity:1; stop-color:#157D15"/>
   <stop offset="1" style="stop-opacity:1; stop-color:#001501"/>
  </linearGradient>
  <linearGradient id="id5" gradientUnits="userSpaceOnUse" x1="12011.82" y1="3642.5" x2="25400.01" y2="3642.5">
   <stop offset="0" style="stop-opacity:1; stop-color:#126912"/>
   <stop offset="0.690196" style="stop-opacity:1; stop-color:#093F0A"/>
   <stop offset="1" style="stop-opacity:1; stop-color:#001501"/>
  </linearGradient>
  <linearGradient id="id6" gradientUnits="userSpaceOnUse" xlink:href="#id2" x1="7098.85" y1="3935.06" x2="8112.44" y2="-600.38">
  </linearGradient>
  <linearGradient id="id7" gradientUnits="userSpaceOnUse" xlink:href="#id2" x1="4178.26" y1="8837.89" x2="2455.75" y2="5424.42">
  </linearGradient>
  <linearGradient id="id8" gradientUnits="userSpaceOnUse" xlink:href="#id4" x1="-0" y1="5587.77" x2="10808.65" y2="5587.77">
  </linearGradient>
  <linearGradient id="id9" gradientUnits="userSpaceOnUse" x1="19312.3" y1="-4066.62" x2="4877.75" y2="7928.19">
   <stop offset="0" style="stop-opacity:1; stop-color:#0F570F"/>
   <stop offset="0.8" style="stop-opacity:1; stop-color:#083608"/>
   <stop offset="1" style="stop-opacity:1; stop-color:#001501"/>
  </linearGradient>
  <linearGradient id="id10" gradientUnits="userSpaceOnUse" x1="1101.61" y1="1115.16" x2="1179.69" y2="1376.42">
   <stop offset="0" style="stop-opacity:1; stop-color:#1EC01E"/>
   <stop offset="0.529412" style="stop-opacity:1; stop-color:#1D6E1D"/>
   <stop offset="1" style="stop-opacity:1; stop-color:#1C1C1C"/>
  </linearGradient>
  <linearGradient id="id11" gradientUnits="userSpaceOnUse" x1="1727.77" y1="1158.19" x2="1809.55" y2="1381.01">
   <stop offset="0" style="stop-opacity:1; stop-color:#1EC01E"/>
   <stop offset="0.678431" style="stop-opacity:1; stop-color:#1D6E1D"/>
   <stop offset="1" style="stop-opacity:1; stop-color:#1C1C1C"/>
  </linearGradient>
  <linearGradient id="id12" gradientUnits="userSpaceOnUse" x1="1219.78" y1="1311.87" x2="1447.53" y2="1309.64">
   <stop offset="0" style="stop-opacity:1; stop-color:#1EC01E"/>
   <stop offset="0.631373" style="stop-opacity:1; stop-color:#1D6E1D"/>
   <stop offset="1" style="stop-opacity:1; stop-color:#1C1C1C"/>
  </linearGradient>
  <linearGradient id="id13" gradientUnits="userSpaceOnUse" x1="1341.85" y1="907.95" x2="1461.98" y2="619.67">
   <stop offset="0" style="stop-opacity:1; stop-color:#1EC01E"/>
   <stop offset="0.65098" style="stop-opacity:1; stop-color:#1D6E1D"/>
   <stop offset="1" style="stop-opacity:1; stop-color:#1C1C1C"/>
  </linearGradient>
  <linearGradient id="id14" gradientUnits="userSpaceOnUse" x1="1688.56" y1="888.5" x2="1849.74" y2="1139.01">
   <stop offset="0" style="stop-opacity:1; stop-color:#1EC01E"/>
   <stop offset="0.670588" style="stop-opacity:1; stop-color:#1D6E1D"/>
   <stop offset="1" style="stop-opacity:1; stop-color:#1C1C1C"/>
  </linearGradient>
 </defs>
 <g id="Layer_x0020_1">
  <metadata id="CorelCorpID_0Corel-Layer"/>
  <g id="_2288182963904">
   <g>
    <rect class="fil0" x="-0" y="-0" width="25400.01" height="8466.67" rx="423.33" ry="423.33"/>
    <path class="fil1" d="M-0 3861.57c5464.95,-1287.11 18717.59,-2611.16 24190.07,-3861.55 0,0 -9255.57,-0.01 -12178.25,0l-11588.48 0 -1.38 -0.02c-232.2,0.74 -421.95,190.95 -421.95,423.33l0 3438.24zm4860.03 -1919.23l-3793.39 0c-120.98,0 -219.97,-98.99 -219.97,-219.97l0 -655.73c0,-120.99 98.99,-219.97 219.97,-219.97l3793.39 0c120.99,0 219.97,98.98 219.97,219.97l0 655.73c0,120.98 -98.98,219.97 -219.97,219.97z"/>
    <path class="fil2" d="M24233.04 8466.66l-24233.04 -4082.22 0 3658.9c0,232.82 190.49,423.33 423.33,423.33l23809.7 -0.01z"/>
    <path class="fil3" d="M10808.65 8466.66c-1770.88,-943.35 -5373.77,-2862.61 -10808.65,-5757.78l0 5334.46c0,232.83 190.49,423.33 423.33,423.33l10385.32 -0.01z"/>
    <path class="fil4" d="M25399.99 7284.99l0 -6861.65 0.01 -1.35c-0.73,-231.76 -190.21,-421.24 -421.97,-421.96l-1.35 0 -12964.86 0c8229.25,4477.83 12691.97,6906.15 13388.17,7284.97z"/>
    <path class="fil5" d="M21104.11 4947.45c-4994.94,2346.13 -7492.41,3519.21 -7492.41,3519.21l11364.97 0 0.66 0.01c232.07,-0.35 421.93,-189.98 422.65,-421.97l0 -1.36 0 -758.35 0.01 -4355.32c-1593.52,748.48 -3025.47,1421.08 -4295.89,2017.78z"/>
    <path class="fil6" d="M25399.99 2227.69l0 -1804.36 0.01 -1.35c-0.73,-231.76 -190.21,-421.24 -421.97,-421.96l-1.35 0 -6407.29 -0.02c2232.2,1214.62 4017.11,2185.85 5354.73,2913.69l0 0.01c248.62,135.28 481.81,262.16 699.52,380.63 285.33,155.26 544.12,296.06 776.36,422.44l0 -1489.09z"/>
    <path class="fil7" d="M6634.01 8466.67c-1325.94,-526.72 -3704.83,-1477.13 -6634.01,-2671.03l0 2247.69c0,232.83 190.49,423.33 423.33,423.33l6210.68 0z"/>
    <polygon class="fil8" points="25400,4222.2 25400,5738.2 13926.63,8466.67 7582.47,8466.67 "/>
    <polygon class="fil9" points="8239.56,0 15211.3,0 -0,3334.69 -0,1801.68 "/>
   </g>
   <g>
    <polygon class="fil10" style="mask:url(#id0)" points="761.3,574.88 2483.46,574.88 2503.46,574.88 5169.55,574.88 4206.77,1694.72 2503.46,1694.72 2483.46,1694.72 761.3,1694.72 "/>
    <g>
     <g>
      <path class="fil11" d="M1816.37 1188.34l0.01 -276.54c0,0 -49.27,28.36 -146.58,84.38l-0.39 277 146.96 -84.84z"/>
      <polygon class="fil12" points="1816.38,1357.8 1816.37,1188.34 1283.35,1496.06 1430.14,1580.8 "/>
      <polygon class="fil13" points="1190.47,1166.52 1190.47,827.17 1043.88,911.8 1043.89,1250.95 "/>
      <path class="fil14" d="M1190.2 1442.28l94.14 -54.35 -0.58 -168.63 -239.88 138.5c16.01,9.22 66.44,38.37 146.32,84.48z"/>
      <path class="fil15" d="M1283.66 1388.31c-0.03,-262.07 -0.05,-614.93 -0.05,-614.93 97.58,56.3 146.37,84.45 146.37,84.45 0,149.45 0,445.45 0,445.45 -97.55,56.32 -146.32,85.02 -146.32,85.02z"/>
      <path class="fil16" d="M1283.61 773.39c257.45,148.53 386.18,222.79 386.18,222.79 97.31,-56.02 146.58,-84.38 146.58,-84.38 -257.08,-148.9 -386.24,-223 -386.24,-223 -97.68,56.4 -146.52,84.59 -146.52,84.59z"/>
     </g>
     <g>
      <path class="fil17" d="M2107.81 1116.16c-18.64,-2.54 -33.47,-17.37 -36.02,-36.02l0 -207.21 -52.96 0 0 202.13c0,14.83 3.39,28.81 9.74,41.52 8.9,18.65 24.16,33.9 42.8,43.22 12.71,6.36 26.7,9.75 41.53,9.75l150.42 0 0 -52.97 -155.51 -0.42z"/>
      <polygon id="1" class="fil17" points="2358.67,1169.55 2358.67,872.93 2305.7,872.93 2305.7,1169.55 "/>
      <polygon id="2" class="fil17" points="2401.05,872.93 2401.05,925.9 2522.66,925.9 2522.66,1169.55 2575.63,1169.55 2575.63,925.9 2697.24,925.9 2697.24,872.93 "/>
      <path id="3" class="fil17" d="M2820.12 925.9l216.55 0 0 -52.97 -216.55 0c-44.07,0 -79.66,36.02 -79.66,80.09l0 136.44c0,44.07 35.59,80.09 79.66,80.09l216.55 0 0 -52.97 -216.55 0c-14.83,0 -27.12,-12.29 -27.12,-27.12l0 -55.93 190.7 0 0 -52.97 -190.7 0 0 -27.54c0,-14.83 12.29,-27.12 27.12,-27.12z"/>
      <path id="4" class="fil17" d="M3079.04 872.93l0 296.62 148.31 0c40.68,0 77.54,-16.53 104.24,-43.65 2.96,-2.96 5.93,-5.93 8.47,-8.89 22.04,-25.85 35.17,-59.33 35.17,-95.77 0,-82.2 -66.53,-148.31 -148.31,-148.31l-147.88 0zm52.54 52.97l95.34 0c52.55,0 95.34,42.87 95.34,95.55 0,52.69 -42.79,95.56 -95.34,95.56l-95.34 0 0 -191.11z"/>
      <path id="5" class="fil17" d="M3498.12 925.9l216.54 0 0 -52.97 -216.54 0c-44.07,0 -79.66,36.02 -79.66,80.09l0 136.44c0,44.07 35.59,80.09 79.66,80.09l216.54 0 0 -52.97 -216.54 0c-14.83,0 -27.12,-12.29 -27.12,-27.12l0 -55.93 190.69 0 0 -52.97 -190.69 0 0 -27.54c0,-14.83 12.29,-27.12 27.12,-27.12z"/>
      <path id="6" class="fil17" d="M3746.43 1170.82l0.85 -0.85 -0.85 0 0 0.85zm296.63 -0.85l-0.42 0 0.42 0.85 0 -0.85zm0 -297.04l-66.53 0 -81.36 105.65 -81.36 -105.65 -66.95 0 114.83 148.95 -113.99 148.09 66.96 0 80.93 -104.8 80.94 104.8 66.96 0 -114.41 -148.09 114.83 -148.95 -0.85 0z"/>
      <path class="fil17" d="M2227.29 1396.68c-2.76,0 -4.93,-0.74 -6.52,-2.23 -1.59,-1.48 -2.38,-3.54 -2.38,-6.19l0 -82.3c0,-6.89 2.01,-12.29 6.04,-16.21 4.02,-3.92 9.63,-5.88 16.84,-5.88l27.01 0c15.67,0 27.56,3.29 35.67,9.85 8.1,6.57 12.15,16.26 12.15,29.08 0,12.6 -4,22.16 -12,28.68 -7.99,6.51 -19.67,9.77 -35.03,9.77l-32.57 0 0 27.01c0,2.54 -0.85,4.58 -2.54,6.12 -1.7,1.53 -3.92,2.3 -6.67,2.3zm41.62 -49.73c19.28,0 28.92,-8.05 28.92,-24.15 0,-8.47 -2.41,-14.72 -7.23,-18.75 -4.82,-4.02 -12,-6.04 -21.53,-6.04l-25.26 0c-2.33,0 -4.13,0.75 -5.4,2.23 -1.27,1.48 -1.91,3.49 -1.91,6.04l0 40.67 32.41 0z"/>
      <path id="1" class="fil17" d="M2434.53 1306.12c0,-6.89 2.01,-12.32 6.04,-16.29 4.02,-3.97 9.69,-5.96 17,-5.96l28.75 0c15.36,0 26.93,3.08 34.72,9.22 7.78,6.14 11.68,15.2 11.68,27.17 0,11.33 -3.45,20.12 -10.33,26.37 -6.88,6.25 -16.42,9.38 -28.6,9.38l26.38 26.69c1.69,1.69 2.54,3.55 2.54,5.56 0,2.22 -1.06,4.23 -3.18,6.04 -2.01,1.48 -3.97,2.22 -5.88,2.22 -2.65,0 -5.19,-1.27 -7.62,-3.81l-34.96 -36.23 -17.95 0 0 31.62c0,2.65 -0.88,4.74 -2.62,6.28 -1.75,1.53 -4,2.3 -6.76,2.3 -2.86,0 -5.11,-0.77 -6.75,-2.3 -1.64,-1.54 -2.46,-3.63 -2.46,-6.28l0 -81.98zm51.64 35.75c10.16,0 17.34,-1.62 21.52,-4.85 4.19,-3.23 6.28,-8.82 6.28,-16.76 0,-7.73 -2.28,-13.3 -6.83,-16.68 -4.56,-3.39 -11.55,-5.09 -20.97,-5.09l-25.9 0c-2.23,0 -3.97,0.72 -5.25,2.15 -1.27,1.43 -1.9,3.41 -1.9,5.95l0 35.28 33.05 0z"/>
      <path id="2" class="fil17" d="M2703.1 1396.68c-11.75,0 -22.05,-2.38 -30.91,-7.15 -8.84,-4.77 -15.65,-11.49 -20.42,-20.18 -4.76,-8.68 -7.14,-18.64 -7.14,-29.87 0,-11.23 2.38,-21.18 7.14,-29.87 4.77,-8.68 11.58,-15.41 20.42,-20.18 8.86,-4.76 19.16,-7.14 30.91,-7.14 11.76,0 22.06,2.38 30.91,7.14 8.84,4.77 15.64,11.5 20.41,20.18 4.77,8.69 7.15,18.64 7.15,29.87 0,11.23 -2.38,21.19 -7.15,29.87 -4.77,8.69 -11.57,15.41 -20.41,20.18 -8.85,4.77 -19.15,7.15 -30.91,7.15zm0 -14.46c12.4,0 22.19,-3.81 29.4,-11.44 7.2,-7.62 10.8,-18.06 10.8,-31.3 0,-13.34 -3.68,-23.8 -11.04,-31.38 -7.36,-7.57 -17.4,-11.36 -30.11,-11.36 -8.05,0 -15.04,1.75 -20.97,5.25 -5.94,3.49 -10.5,8.47 -13.68,14.93 -3.17,6.46 -4.76,13.98 -4.76,22.56 0,8.79 1.64,16.39 4.92,22.8 3.29,6.41 7.95,11.33 13.99,14.78 6.04,3.44 13.19,5.16 21.45,5.16z"/>
      <path id="3" class="fil17" d="M2914.79 1396.68c-2.75,0 -4.95,-0.74 -6.59,-2.23 -1.65,-1.48 -2.47,-3.54 -2.47,-6.19l0 -90.25 -32.57 0c-2.75,0 -4.87,-0.6 -6.35,-1.82 -1.48,-1.22 -2.23,-2.94 -2.23,-5.17 0,-2.33 0.75,-4.1 2.23,-5.32 1.48,-1.22 3.6,-1.83 6.35,-1.83l83.26 0c2.75,0 4.9,0.61 6.43,1.83 1.54,1.22 2.31,2.99 2.31,5.32 0,2.23 -0.77,3.95 -2.31,5.17 -1.53,1.22 -3.68,1.82 -6.43,1.82l-32.57 0 0 90.25c0,2.54 -0.82,4.58 -2.47,6.12 -1.64,1.53 -3.84,2.3 -6.59,2.3z"/>
      <path id="4" class="fil17" d="M3126.63 1396.68c-11.75,0 -22.05,-2.38 -30.9,-7.15 -8.84,-4.77 -15.65,-11.49 -20.42,-20.18 -4.76,-8.68 -7.14,-18.64 -7.14,-29.87 0,-11.23 2.38,-21.18 7.14,-29.87 4.77,-8.68 11.58,-15.41 20.42,-20.18 8.85,-4.76 19.15,-7.14 30.9,-7.14 11.76,0 22.06,2.38 30.91,7.14 8.84,4.77 15.64,11.5 20.41,20.18 4.77,8.69 7.15,18.64 7.15,29.87 0,11.23 -2.38,21.19 -7.15,29.87 -4.77,8.69 -11.57,15.41 -20.41,20.18 -8.85,4.77 -19.15,7.15 -30.91,7.15zm0 -14.46c12.4,0 22.19,-3.81 29.4,-11.44 7.2,-7.62 10.8,-18.06 10.8,-31.3 0,-13.34 -3.68,-23.8 -11.04,-31.38 -7.36,-7.57 -17.4,-11.36 -30.11,-11.36 -8.05,0 -15.04,1.75 -20.97,5.25 -5.93,3.49 -10.49,8.47 -13.67,14.93 -3.17,6.46 -4.76,13.98 -4.76,22.56 0,8.79 1.64,16.39 4.92,22.8 3.29,6.41 7.95,11.33 13.98,14.78 6.04,3.44 13.19,5.16 21.45,5.16z"/>
      <path id="5" class="fil17" d="M3358.35 1396.68c-11.65,0 -21.79,-2.3 -30.42,-6.91 -8.64,-4.61 -15.26,-11.2 -19.86,-19.78 -4.61,-8.58 -6.91,-18.7 -6.91,-30.35 0,-11.65 2.3,-21.79 6.91,-30.42 4.6,-8.64 11.2,-15.28 19.78,-19.94 8.58,-4.66 18.69,-6.99 30.34,-6.99 9.54,0 18.38,1.64 26.54,4.92 8.15,3.28 14.3,7.73 18.43,13.35 1.16,1.69 1.74,3.23 1.74,4.6 0,2.33 -1.21,4.4 -3.65,6.2 -1.38,0.85 -2.81,1.27 -4.29,1.27 -1.38,0 -2.73,-0.32 -4.05,-0.95 -1.33,-0.64 -2.46,-1.48 -3.42,-2.54 -3.49,-4.24 -7.81,-7.37 -12.95,-9.38 -5.13,-2.01 -11.25,-3.02 -18.35,-3.02 -12.18,0 -21.68,3.79 -28.52,11.36 -6.83,7.58 -10.24,18.09 -10.24,31.54 0,13.24 3.44,23.65 10.32,31.22 6.89,7.57 16.42,11.36 28.6,11.36 14.41,0 25.48,-4.13 33.21,-12.39 2.54,-2.54 5.13,-3.82 7.78,-3.82 1.7,0 3.23,0.53 4.61,1.59 2.12,1.8 3.18,3.76 3.18,5.88 0,1.8 -0.64,3.5 -1.91,5.09 -4.55,5.61 -10.96,10.03 -19.22,13.26 -8.26,3.23 -17.48,4.85 -27.65,4.85z"/>
      <path id="6" class="fil17" d="M3581.63 1396.68c-11.75,0 -22.05,-2.38 -30.9,-7.15 -8.84,-4.77 -15.65,-11.49 -20.42,-20.18 -4.76,-8.68 -7.14,-18.64 -7.14,-29.87 0,-11.23 2.38,-21.18 7.14,-29.87 4.77,-8.68 11.58,-15.41 20.42,-20.18 8.85,-4.76 19.15,-7.14 30.9,-7.14 11.76,0 22.06,2.38 30.91,7.14 8.84,4.77 15.64,11.5 20.41,20.18 4.77,8.69 7.15,18.64 7.15,29.87 0,11.23 -2.38,21.19 -7.15,29.87 -4.77,8.69 -11.57,15.41 -20.41,20.18 -8.85,4.77 -19.15,7.15 -30.91,7.15zm0 -14.46c12.4,0 22.19,-3.81 29.4,-11.44 7.2,-7.62 10.8,-18.06 10.8,-31.3 0,-13.34 -3.68,-23.8 -11.04,-31.38 -7.36,-7.57 -17.4,-11.36 -30.11,-11.36 -8.05,0 -15.04,1.75 -20.97,5.25 -5.93,3.49 -10.49,8.47 -13.67,14.93 -3.17,6.46 -4.76,13.98 -4.76,22.56 0,8.79 1.64,16.39 4.92,22.8 3.29,6.41 7.95,11.33 13.98,14.78 6.04,3.44 13.19,5.16 21.45,5.16z"/>
      <path id="7" class="fil17" d="M3782.37 1395.09c-7.41,0 -13.21,-1.99 -17.4,-5.96 -4.18,-3.97 -6.27,-9.5 -6.27,-16.6l0 -81.82c0,-2.65 0.79,-4.72 2.38,-6.2 1.59,-1.48 3.76,-2.22 6.51,-2.22 2.76,0 4.96,0.76 6.6,2.3 1.64,1.53 2.46,3.57 2.46,6.12l0 81.98c0,2.54 0.66,4.55 1.99,6.04 1.32,1.48 3.15,2.22 5.48,2.22l51.48 0c5.71,0 8.57,2.38 8.57,7.15 0,2.22 -0.74,3.94 -2.22,5.16 -1.48,1.22 -3.6,1.83 -6.35,1.83l-53.23 0z"/>
     </g>
    </g>
   </g>
   <g>
    <g>
     <path class="fil18" d="M16895.94 5440.89c2175.59,749.79 4383.83,720 6624.72,-89.39l-1066.12 -5351.5 -4225.34 0c0,0 -444.41,1813.63 -1333.25,5440.89z"/>
     <g>
      <path class="fil19" d="M20334.41 6436.34l-0.06 -0.37 211.4 -34.28 0.06 0.37 -143.04 117.5 -68.36 -83.22zm211.4 -34.28c9.46,58.37 -30.19,113.38 -88.56,122.84 -58.37,9.46 -113.38,-30.19 -122.84,-88.56l211.4 -34.28zm-83.95 -88.66l-61.78 205.06 65.63 -203.81 0.46 0.15 0.29 0.1 0.29 0.1 0.83 0.29 0.28 0.1 -0.25 -0.09 0.29 0.1 0.29 0.1 0.83 0.29 0.28 0.1 1.29 0.46 0.86 0.31 -1.29 -0.46 0.29 0.1 0.28 0.1 -0.25 -0.09 2.4 0.85 0.28 0.11 -1.28 -0.46 2.43 0.88 -0.3 -0.11 -1.28 -0.46 1.85 0.66 0.29 0.11 -0.73 -0.26 1.29 0.46 0.29 0.11 0.86 0.32 -0.3 -0.11 0.29 0.1 0.86 0.33 0.02 0 -74.68 200.72 -0.54 -0.2 0.3 0.11 -0.29 -0.1 -0.86 -0.33 0.3 0.12 -0.29 -0.11 0.73 0.26 -1.29 -0.46 -0.29 -0.11 1.29 0.46 -1.86 -0.66 -0.86 -0.33 1.87 0.68 -1.86 -0.66 -0.28 -0.11 1.82 0.65 -0.83 -0.29 -0.28 -0.1 -0.29 -0.1 -1.85 -0.66 0.28 0.09 0.71 0.26 -0.28 -0.1 0.25 0.09 -0.29 -0.1 -0.29 -0.1 -0.83 -0.29 -0.28 -0.1 0.25 0.09 -0.29 -0.1 -0.29 -0.1 -0.12 -0.05 65.63 -203.81zm-65.63 203.81c-55.93,-19.18 -85.72,-80.09 -66.54,-136.02 19.18,-55.93 80.09,-85.72 136.02,-66.54l-69.48 202.56zm149.52 -115.52l-211.4 34.28 71.11 84.2 -0.64 -0.22 0.28 0.09 0.81 0.28 -1.92 -0.65 0.28 0.09 1.35 0.45 -0.28 -0.09 -0.28 -0.09 -1.91 -0.63 -0.28 -0.1 1.35 0.45 -0.28 -0.09 -0.28 -0.09 0.25 0.08 -0.29 -0.09 -0.81 -0.26 0.25 0.08 -0.29 -0.09 -0.28 -0.09 -0.29 -0.09 -0.28 -0.09 0.21 0.07 -0.29 -0.09 -0.29 -0.09 -0.79 -0.25 -0.28 -0.09 0.21 0.07 -0.29 -0.09 1.8 0.53 -0.3 -0.08 -2.38 -0.71 0.56 0.17 61.78 -205.06 1.14 0.35 -1.8 -0.53 0.3 0.08 2.38 0.71 0.29 0.09 0.79 0.25 0.28 0.09 -0.21 -0.07 0.29 0.09 0.29 0.09 0.79 0.25 0.28 0.09 0.29 0.09 0.28 0.09 0.29 0.09 0.81 0.26 -0.25 -0.08 0.29 0.09 0.81 0.26 0.28 0.09 0.28 0.09 1.91 0.63 0.28 0.1 -1.35 -0.45 0.28 0.09 0.28 0.09 1.91 0.63 0.84 0.29 -1.38 -0.47 1.37 0.46 0.84 0.29 -0.1 -0.04 71.11 84.2zm-71.11 -84.2c55.96,19.1 85.85,79.97 66.75,135.93 -19.1,55.96 -79.97,85.85 -135.93,66.75l69.18 -202.68zm198.19 404.75l0.66 -0.26 78.5 199.26 -0.66 0.26 -145.41 -113.63 66.91 -85.63zm78.5 199.26c-55.02,21.67 -117.21,-5.36 -138.88,-60.38 -21.67,-55.02 5.36,-117.21 60.38,-138.88l78.5 199.26zm67.03 -86.54l-0.12 0.91 -212.32 -28 0.12 -0.91 188.52 -54.42 23.8 82.42zm-212.32 -28c7.73,-58.63 61.53,-99.89 120.16,-92.16 58.63,7.73 99.89,61.53 92.16,120.16l-212.32 -28zm24.34 83.07l-0.54 -0.65 164.72 -136.84 0.54 0.65 -43.11 168.05 -121.61 -31.21zm164.72 -136.84c37.78,45.48 31.54,113 -13.94,150.78 -45.48,37.78 -113,31.54 -150.78,-13.94l164.72 -136.84zm-336.46 -1189.47l0 0.05 -214.16 0 0 -0.05 57.14 -94.72 157.02 94.72zm-214.16 0c0,-59.13 47.95,-107.08 107.08,-107.08 59.13,0 107.08,47.95 107.08,107.08l-214.16 0zm118.23 115.37l-101.62 -188.52 0.07 -0.03 1.37 -0.74 1.24 -0.66 0.95 -0.52 1.53 -0.82 1.24 -0.66 1.24 -0.67 1.54 -0.82 0.94 -0.5 1.24 -0.67 1.54 -0.82 1.24 -0.66 1.24 -0.66 1.24 -0.66 0.94 -0.5 1.54 -0.83 1.54 -0.81 0.94 -0.5 1.24 -0.66 1.24 -0.66 1.24 -0.66 1.54 -0.82 1.24 -0.65 0.78 -0.42 1.53 -0.82 1.4 -0.73 1.24 -0.66 1.24 -0.65 1.24 -0.66 1.38 -0.73 0.93 -0.49 1.4 -0.74 1.31 -0.69 99.88 189.44 -1.17 0.61 -1.08 0.58 -1.53 0.81 -1.1 0.57 -1.24 0.66 -1.24 0.65 -1.24 0.66 -1.08 0.57 -0.93 0.5 -1.7 0.9 -1.24 0.65 -0.94 0.5 -1.24 0.66 -1.24 0.66 -1.24 0.66 -1.54 0.82 -0.94 0.49 -0.94 0.51 -1.54 0.82 -1.24 0.66 -1.24 0.66 -1.24 0.66 -0.94 0.5 -1.24 0.67 -1.54 0.82 -0.94 0.5 -1.24 0.67 -1.24 0.66 -0.95 0.52 -1.53 0.82 -1.24 0.66 -1.11 0.6 0.07 -0.03zm-0.07 0.03c-52.07,28.02 -117.01,8.52 -145.03,-43.55 -28.02,-52.07 -8.52,-117.01 43.55,-145.03l101.48 188.58zm-102.83 -187.86l1.28 -0.69 101.62 188.52 -1.28 0.69 -5.53 2.77 -96.09 -191.29zm101.62 188.52c-52.05,28.06 -117.01,8.6 -145.07,-43.45 -28.06,-52.05 -8.6,-117.01 43.45,-145.07l101.62 188.52zm-96.24 -191.22l0.15 -0.07 90.56 194.06 -0.15 0.07 -96.6 -191.01 6.04 -3.05zm90.56 194.06c-53.58,25 -117.31,1.83 -142.31,-51.75 -25,-53.58 -1.83,-117.31 51.75,-142.31l90.56 194.06zm-98.01 -190.24l1.41 -0.77 102.64 187.96 -1.41 0.77 -0.5 0.27 -102.14 -188.23zm102.64 187.96c-51.9,28.34 -116.96,9.24 -145.3,-42.66 -28.34,-51.9 -9.24,-116.96 42.66,-145.3l102.64 187.96zm-151.33 26.13l103.4 -187.54 -103.41 0.01 1.4 -0.78 1.51 -0.84 1.75 -0.96 1.64 -0.9 1.52 -0.83 1.38 -0.76 1.51 -0.83 1.75 -0.96 1.51 -0.82 1.27 -0.7 1.75 -0.96 1.51 -0.82 1.51 -0.83 1.51 -0.82 1.51 -0.83 1.51 -0.82 1.51 -0.83 1.75 -0.95 1.51 -0.82 1.51 -0.82 1.51 -0.82 1.51 -0.82 1.38 -0.75 1.74 -0.95 1.64 -0.88 1.27 -0.69 1.75 -0.95 1.51 -0.81 1.38 -0.75 1.5 -0.81 1.64 -0.89 1.55 -0.83 101.64 188.5 -1.47 0.79 -1.38 0.75 -1.5 0.81 -1.64 0.89 -1.51 0.81 -1.27 0.69 -1.75 0.95 -1.38 0.74 -1.26 0.69 -1.64 0.89 -1.51 0.82 -1.51 0.82 -1.51 0.82 -1.51 0.82 -1.27 0.69 -1.51 0.83 -1.51 0.82 -1.51 0.83 -1.51 0.82 -1.51 0.83 -1.51 0.82 -1.27 0.7 -1.75 0.96 -1.51 0.82 -1.27 0.7 -1.51 0.83 -1.64 0.9 -1.52 0.83 -1.38 0.76 -1.27 0.7 -1.51 0.84 -1.62 0.88 -103.41 0.01zm103.41 -0.01c-51.78,28.55 -116.92,9.73 -145.47,-42.05 -28.55,-51.78 -9.73,-116.92 42.05,-145.47l103.42 187.52zm-38.21 -144.17l-214.16 0 156.91 -94.78 2.98 1.57 3.04 1.6 2.85 1.51 3.12 1.64 3.03 1.62 2.85 1.51 2.92 1.55 2.92 1.55 3.05 1.62 3.05 1.63 2.98 1.59 2.93 1.57 2.98 1.59 3.05 1.64 2.98 1.6 2.93 1.58 2.92 1.57 3.17 1.72 2.92 1.59 2.87 1.54 3.12 1.69 2.92 1.59 2.99 1.62 2.93 1.6 2.93 1.59 3.17 1.74 2.93 1.61 2.93 1.6 3.06 1.68 2.86 1.57 3.06 1.68 3.01 1.66 -103.4 187.54 -2.85 -1.58 -2.82 -1.54 -3 -1.65 -2.8 -1.54 -2.93 -1.6 -2.93 -1.61 -2.69 -1.46 -2.93 -1.59 -2.93 -1.6 -2.87 -1.56 -2.92 -1.59 -2.74 -1.49 -2.99 -1.62 -2.92 -1.59 -2.69 -1.44 -2.92 -1.57 -2.93 -1.58 -2.86 -1.54 -2.79 -1.5 -2.86 -1.53 -2.93 -1.57 -2.86 -1.53 -2.79 -1.49 -2.79 -1.48 -2.92 -1.55 -2.92 -1.55 -2.99 -1.59 -2.79 -1.48 -2.72 -1.44 -2.99 -1.57 -2.78 -1.48 -2.86 -1.49 156.91 -94.78zm-156.91 94.78c-52.34,-27.52 -72.47,-92.27 -44.95,-144.61 27.52,-52.34 92.27,-72.47 144.61,-44.95l-99.66 189.56zm-57.25 -94.75l0 -0.03 214.16 0 0 0.03 -156.93 94.77 -57.23 -94.77zm214.16 0c0,59.13 -47.95,107.08 -107.08,107.08 -59.13,0 -107.08,-47.95 -107.08,-107.08l214.16 0zm-3145.19 -215.24l-59.4 -205.76 3.97 -1.06 105.7 -25.31 104.72 -23.35 103.79 -21.35 102.92 -19.3 102.1 -17.24 101.34 -15.13 100.62 -12.99 99.96 -10.83 99.36 -8.62 98.79 -6.38 98.28 -4.11 97.82 -1.81 97.39 0.55 97.03 2.91 96.7 5.31 96.42 7.76 96.17 10.21 95.99 12.7 95.83 15.24 95.72 17.78 95.66 20.36 95.64 22.96 95.66 25.59 95.73 28.24 95.84 30.92 96 33.61 96.22 36.33 96.48 39.07 96.78 41.84 97.13 44.63 97.56 47.43 98.01 50.27 -99.7 189.54 -94.03 -48.23 -93.38 -45.41 -92.81 -42.63 -92.28 -39.9 -91.8 -37.19 -91.4 -34.51 -91.06 -31.87 -90.76 -29.28 -90.51 -26.7 -90.36 -24.17 -90.26 -21.68 -90.22 -19.2 -90.24 -16.76 -90.33 -14.36 -90.47 -11.98 -90.71 -9.63 -90.98 -7.32 -91.32 -5.01 -91.75 -2.75 -92.21 -0.51 -92.74 1.71 -93.36 3.91 -94.01 6.06 -94.72 8.22 -95.5 10.35 -96.34 12.43 -97.22 14.53 -98.18 16.58 -99.18 18.6 -100.23 20.61 -101.34 22.59 -102.5 24.55 3.97 -1.06zm-3.97 1.06c-57.4,14.21 -115.46,-20.81 -129.67,-78.21 -14.21,-57.4 20.81,-115.46 78.21,-129.67l51.46 207.88zm-126.17 85.7l-179.88 -116.22 2.94 -4.31 6.09 -8.39 6.12 -8.18 6.09 -7.9 6.22 -7.82 6.27 -7.58 6.33 -7.41 6.58 -7.37 6.64 -7.1 6.71 -6.88 6.9 -6.72 7.07 -6.57 7.26 -6.39 7.41 -6.17 7.59 -5.98 7.73 -5.73 7.82 -5.47 8.01 -5.27 8.16 -5.05 8.21 -4.77 8.33 -4.56 8.42 -4.32 8.43 -4.07 8.54 -3.9 8.62 -3.7 8.69 -3.52 8.74 -3.36 8.83 -3.22 9.01 -3.12 9.03 -2.98 9.09 -2.88 9.27 -2.83 9.47 -2.78 59.4 205.76 -7.49 2.2 -7.13 2.17 -6.77 2.14 -6.31 2.08 -5.83 2.02 -5.53 2.02 -5.18 1.98 -4.81 1.96 -4.48 1.92 -4.18 1.9 -3.95 1.91 -3.62 1.86 -3.41 1.86 -3.25 1.89 -3.06 1.89 -2.95 1.95 -2.96 2.07 -2.87 2.13 -2.83 2.22 -2.89 2.41 -2.92 2.57 -3.03 2.81 -3.14 3.08 -3.29 3.36 -3.36 3.6 -3.42 3.83 -3.69 4.31 -3.83 4.64 -3.94 4.96 -4.19 5.44 -4.3 5.74 -4.47 6.15 2.94 -4.31zm-2.94 4.31c-34.47,48.04 -101.38,59.05 -149.42,24.58 -48.04,-34.47 -59.05,-101.38 -24.58,-149.42l174 124.84zm-484.67 720.63l-177.2 -120.24 -0.04 0.05 15.32 -22.59 15.34 -22.59 15.34 -22.55 15.34 -22.55 15.35 -22.52 15.34 -22.52 15.35 -22.51 15.35 -22.52 15.35 -22.49 15.32 -22.47 15.33 -22.5 15.32 -22.47 15.28 -22.45 15.3 -22.5 15.28 -22.49 15.24 -22.45 15.23 -22.48 15.21 -22.48 15.18 -22.49 15.16 -22.49 15.12 -22.49 15.09 -22.52 15.06 -22.51 15.03 -22.53 15 -22.55 14.95 -22.56 14.92 -22.57 14.85 -22.56 14.82 -22.62 14.79 -22.63 14.72 -22.64 14.68 -22.67 179.88 116.22 -14.92 23.03 -14.96 23 -14.99 22.95 -15.02 22.92 -15.09 22.92 -15.1 22.85 -15.13 22.82 -15.16 22.79 -15.17 22.77 -15.22 22.75 -15.23 22.7 -15.26 22.71 -15.28 22.67 -15.28 22.63 -15.31 22.64 -15.31 22.6 -15.34 22.61 -15.34 22.55 -15.32 22.54 -15.36 22.57 -15.36 22.53 -15.33 22.5 -15.36 22.53 -15.35 22.49 -15.33 22.48 -15.33 22.49 -15.32 22.48 -15.31 22.48 -15.3 22.47 -15.28 22.47 -15.26 22.47 -15.24 22.47 -0.04 0.05zm0.04 -0.05c-33.17,48.95 -99.76,61.74 -148.71,28.57 -48.95,-33.17 -61.74,-99.76 -28.57,-148.71l177.28 120.14zm-126.41 -114.86l24.04 212.8 -117.9 -122.4 0.83 -4.99 0.9 -4.58 1.01 -4.54 1.22 -4.86 1.22 -4.31 1.29 -4.22 1.5 -4.46 1.42 -3.91 1.51 -3.89 1.56 -3.75 1.63 -3.73 1.65 -3.56 1.66 -3.41 1.66 -3.26 1.59 -3 1.58 -2.87 1.66 -2.94 1.72 -2.92 1.48 -2.46 1.43 -2.31 1.45 -2.3 1.6 -2.5 1.44 -2.21 1.28 -1.92 1.29 -1.92 1.25 -1.85 1.16 -1.71 1.17 -1.71 1.17 -1.71 0.95 -1.37 0.81 -1.19 0.94 -1.37 177.2 120.24 -1.12 1.67 -1.27 1.85 -1.13 1.65 -0.91 1.31 -0.89 1.31 -0.9 1.31 -0.79 1.17 -0.75 1.12 -0.72 1.1 -0.56 0.83 -0.36 0.56 -0.47 0.76 -0.47 0.77 -0.38 0.62 -0.12 0.2 -0.1 0.18 -0.16 0.29 -0.09 0.18 0.02 -0.06 0.1 -0.19 0.13 -0.3 0.19 -0.43 0.18 -0.43 0.21 -0.53 0.18 -0.51 0.34 -1.02 0.23 -0.74 0.22 -0.79 0.32 -1.28 0.21 -0.92 0.18 -0.92 0.21 -1.27 -117.9 -122.4zm117.9 122.4c-8.83,58.47 -63.41,98.71 -121.88,89.88 -58.47,-8.83 -98.71,-63.41 -89.88,-121.88l211.76 32zm-90.23 89.99l-3.63 0.41 -24.04 -212.8 3.63 -0.41 71.81 195.23 -47.77 17.57zm-24.04 -212.8c58.76,-6.63 111.79,35.62 118.42,94.38 6.63,58.76 -35.62,111.79 -94.38,118.42l-24.04 -212.8zm-48.81 18.27l1.04 -0.7 119.58 177.66 -1.04 0.7 -127.32 -171.93 7.74 -5.73zm119.58 177.66c-49.05,33.02 -115.6,20.01 -148.62,-29.04 -33.02,-49.05 -20.01,-115.6 29.04,-148.62l119.58 177.66zm-361.18 615.16l-15.04 -213.62 -96.23 80.34 4.53 -16.39 5.27 -16.94 6 -17.7 6.7 -18.6 7.4 -19.51 8.04 -20.36 8.65 -21.16 9.21 -21.89 9.75 -22.56 10.23 -23.11 10.68 -23.57 11.06 -23.92 11.39 -24.17 11.7 -24.36 11.96 -24.4 12.15 -24.34 12.3 -24.19 12.43 -23.94 12.5 -23.57 12.52 -23.12 12.5 -22.52 12.44 -21.9 12.38 -21.16 12.25 -20.32 12.13 -19.43 12.01 -18.46 11.9 -17.47 11.89 -16.5 12 -15.54 12.38 -14.69 13.36 -14.14 15.42 -13.87 135.06 166.2 -0.18 0.23 -3.5 3.74 -5.66 6.75 -7.12 9.22 -8.19 11.38 -9.04 13.27 -9.69 14.92 -10.23 16.37 -10.65 17.66 -10.98 18.78 -11.24 19.78 -11.44 20.64 -11.56 21.32 -11.6 21.91 -11.61 22.36 -11.54 22.67 -11.43 22.9 -11.24 22.94 -11 22.9 -10.73 22.75 -10.36 22.42 -9.96 22.01 -9.49 21.43 -8.97 20.74 -8.39 19.93 -7.75 18.96 -7.04 17.82 -6.26 16.51 -5.42 15.02 -4.5 13.3 -3.51 11.22 -2.41 8.69 -96.23 80.34zm96.23 -80.34c-14.61,57.29 -72.93,91.89 -130.22,77.28 -57.29,-14.61 -91.89,-72.93 -77.28,-130.22l207.5 52.94zm-78.48 57.63l-201.56 -72.38 0 0.02 2.74 -7.2 3.14 -7.31 3.46 -7.19 3.7 -6.9 4.12 -6.92 4.43 -6.71 4.73 -6.5 5.03 -6.25 5.32 -6.02 5.5 -5.64 5.69 -5.33 5.97 -5.09 6.14 -4.75 6.23 -4.39 6.25 -4 6.28 -3.65 6.19 -3.27 6.21 -2.98 6.22 -2.71 6.28 -2.46 5.95 -2.1 5.98 -1.9 5.84 -1.65 5.63 -1.44 5.82 -1.31 5.45 -1.08 5.28 -0.92 5.28 -0.8 5.1 -0.67 5.09 -0.58 4.92 -0.45 4.8 -0.38 15.04 213.62 -1.5 0.12 -1.34 0.13 -1.09 0.12 -1.02 0.13 -0.76 0.12 -0.68 0.12 -0.43 0.08 0.02 -0.01 -0.07 0.02 0.22 -0.07 0.48 -0.14 0.53 -0.2 0.98 -0.38 1.02 -0.45 1.13 -0.54 1.23 -0.65 1.46 -0.85 1.53 -0.98 1.65 -1.17 1.7 -1.31 1.67 -1.43 1.55 -1.45 1.48 -1.52 1.48 -1.68 1.33 -1.65 1.19 -1.64 1.05 -1.59 0.92 -1.54 0.68 -1.26 0.6 -1.27 0.48 -1.09 0.26 -0.7 0 0.02zm0 -0.02c-19.97,55.65 -81.3,84.58 -136.95,64.61 -55.65,-19.97 -84.58,-81.3 -64.61,-136.95l201.56 72.34zm-5.9 -35.9l-163.62 138.18 0.01 0.01 -3.38 -4.11 -3.44 -4.42 -3.16 -4.32 -2.97 -4.28 -3.15 -4.83 -3.08 -5.07 -2.63 -4.66 -2.61 -4.96 -2.65 -5.45 -2.43 -5.49 -2.14 -5.32 -1.99 -5.43 -1.89 -5.8 -1.65 -5.73 -1.48 -5.92 -1.26 -6.01 -1.02 -5.84 -0.83 -6.06 -0.59 -5.89 -0.41 -6.1 -0.17 -6.32 0.04 -5.82 0.25 -6.01 0.49 -6.18 0.64 -5.66 0.84 -5.81 1.03 -5.72 1.19 -5.64 1.41 -5.74 1.52 -5.43 1.66 -5.33 1.81 -5.3 201.56 72.38 0.17 -0.52 0.18 -0.57 0.2 -0.71 0.25 -1.04 0.21 -0.98 0.19 -1.08 0.18 -1.21 0.12 -1.08 0.13 -1.64 0.07 -1.49 0 -1.34 -0.05 -1.86 -0.11 -1.66 -0.15 -1.49 -0.23 -1.7 -0.26 -1.48 -0.36 -1.71 -0.4 -1.62 -0.43 -1.47 -0.51 -1.58 -0.45 -1.23 -0.46 -1.14 -0.59 -1.33 -0.65 -1.33 -0.45 -0.88 -0.33 -0.58 -0.64 -1.03 -0.53 -0.83 -0.21 -0.3 -0.26 -0.36 -0.38 -0.48 -0.16 -0.21 0.01 0.01zm-0.01 -0.01c38.16,45.17 32.47,112.74 -12.7,150.9 -45.17,38.16 -112.74,32.47 -150.9,-12.7l163.6 -138.2zm-3.45 -14.82l0.06 214.16 -0.03 0 -2.47 0 -2.27 0.01 -2.88 0.02 -3.06 0 -3.07 0 -3.47 -0.03 -3.67 -0.06 -3.86 -0.1 -3.87 -0.14 -4.27 -0.22 -4.47 -0.31 -4.71 -0.4 -4.9 -0.53 -5.06 -0.66 -5.32 -0.83 -5.53 -1.02 -5.72 -1.23 -5.83 -1.44 -6.23 -1.78 -6.21 -2.02 -6.42 -2.37 -6.37 -2.65 -6.4 -2.97 -6.54 -3.39 -6.57 -3.78 -6.39 -4.1 -6.16 -4.35 -6.23 -4.85 -6.05 -5.2 -5.58 -5.28 -5.42 -5.59 -5.19 -5.88 163.62 -138.18 -1.19 -1.34 -1.32 -1.37 -1.42 -1.34 -1.79 -1.54 -1.89 -1.47 -1.76 -1.25 -1.91 -1.22 -2.01 -1.16 -1.92 -0.99 -1.72 -0.81 -1.63 -0.67 -1.62 -0.61 -1.37 -0.44 -1.31 -0.38 -0.89 -0.22 -0.72 -0.15 -0.49 -0.1 -0.22 -0.03 0.06 0 0.24 0.03 0.49 0.04 0.75 0.05 0.97 0.04 1.39 0.06 1.42 0.04 1.63 0.02 1.85 0.01 2.27 0 2.26 0 2.48 -0.02 3.07 -0.01 2.87 0 -0.03 0zm0.03 0c59.13,0 107.08,47.95 107.08,107.08 0,59.13 -47.95,107.08 -107.08,107.08l0 -214.16zm803.65 -0.02l0 214.16 0 0 -25.11 0 -25.12 0 -25.11 0 -25.12 0 -25.11 0 -25.14 0 -25.11 -0.01 -25.09 0 -25.12 0 -25.11 0 -25.12 0 -25.11 0 -25.11 0 -25.14 0 -25.11 -0.01 -25.09 0 -25.12 0 -25.11 0 -25.11 0 -25.12 0 -25.11 0 -25.09 0 -25.12 0.01 -25.13 0 -25.11 0 -25.1 0 -25.11 0.01 -25.14 0 -25.09 0 -25.11 0.01 -25.12 0 -25.1 0.01 -0.06 -214.16 25.12 -0.01 25.12 0 25.11 -0.01 25.13 0 25.1 0 25.11 -0.01 25.14 0 25.11 0 25.09 0 25.12 -0.01 25.13 0 25.11 0 25.12 0 25.11 0 25.11 0 25.12 0 25.13 0 25.11 0.01 25.1 0 25.11 0 25.11 0 25.12 0 25.11 0 25.12 0 25.13 0 25.11 0.01 25.1 0 25.11 0 25.12 0 25.11 0 25.12 0 25.11 0 0 0zm0 0c59.13,0 107.08,47.95 107.08,107.08 0,59.13 -47.95,107.08 -107.08,107.08l0 -214.16zm2629.34 0.21l-0.28 214.16 0.11 0 -82.16 -0.02 -82.16 -0.03 -82.16 -0.02 -82.16 -0.01 -82.17 -0.02 -82.15 -0.02 -82.15 -0.01 -82.17 -0.01 -82.16 -0.01 -82.16 -0.01 -82.16 -0.01 -82.16 -0.01 -82.16 -0.01 -82.16 0 -82.16 -0.01 -82.16 0 -82.17 -0.01 -82.15 0 -82.16 0 -82.16 0 -82.16 0 -82.16 0 -82.16 0 -82.16 0 -82.17 0 -82.16 0 -82.16 0 -82.16 0 -82.16 0 -82.17 0 -82.16 0 -82.16 0 0 -214.16 82.16 0 82.16 0 82.17 0 82.16 0 82.16 0 82.16 0 82.16 0 82.17 0 82.16 0 82.16 0 82.16 0 82.16 0 82.16 0 82.16 0 82.17 0 82.17 0.01 82.16 0 82.16 0.01 82.16 0 82.16 0.01 82.16 0.01 82.16 0.01 82.16 0.01 82.16 0.01 82.17 0.01 82.17 0.01 82.17 0.02 82.15 0.02 82.16 0.01 82.18 0.02 82.16 0.03 82.16 0.02 0.11 0zm-0.11 0c59.13,0.01 107.06,47.98 107.05,107.11 -0.01,59.13 -47.98,107.06 -107.11,107.05l0.06 -214.16zm167.72 105.94l-209.02 46.66 4.55 15.06 1.09 2.62 1.52 3.12 2.07 3.66 2.56 3.89 3.23 4.22 3.87 4.35 4.13 3.98 4.74 3.92 4.96 3.49 5.03 2.99 5.14 2.56 4.77 1.98 4.36 1.48 4.12 1.12 3.56 0.75 3.03 0.49 2.16 0.24 1.82 0.14 1.23 0.05 0.68 0.01 0.38 -0.01 -0.37 0.02 -0.86 0.05 -1.09 0.07 -1.57 0.12 -2.24 0.18 -2.72 0.2 -2.67 0.19 -3.37 0.23 -3.87 0.19 -4.35 0.15 -4.76 0.05 0.28 -214.16 -0.42 0.01 0.05 -0.01 0.57 -0.03 1.09 -0.07 1.83 -0.13 1.8 -0.14 2.28 -0.18 2.97 -0.22 3.43 -0.23 3.66 -0.19 4.13 -0.16 4.86 -0.09 5.12 0.05 5.65 0.21 6.16 0.46 6.48 0.72 7.25 1.15 7.74 1.63 8.2 2.22 8.38 2.84 8.67 3.58 8.96 4.46 8.73 5.19 8.56 6.01 8.2 6.78 7.47 7.2 7.09 7.95 6.27 8.22 5.48 8.31 4.81 8.52 4.1 8.42 3.49 8.4 4.55 15.06zm-4.55 -15.06c21.2,55.2 -6.37,117.15 -61.57,138.35 -55.2,21.2 -117.15,-6.37 -138.35,-61.57l199.92 -76.78zm-2.24 2.16l-0.26 214.16 0.09 0 -7.11 -0.09 -7.27 -0.27 -7.29 -0.48 -7.3 -0.67 -7.55 -0.92 -7.57 -1.17 -7.6 -1.44 -7.57 -1.7 -7.81 -2.04 -7.93 -2.42 -7.8 -2.72 -7.77 -3.07 -7.85 -3.51 -7.9 -3.96 -7.78 -4.38 -7.58 -4.76 -7.58 -5.29 -7.22 -5.62 -7 -6.02 -6.85 -6.55 -6.46 -6.86 -6.17 -7.26 -5.77 -7.57 -5.27 -7.69 -4.91 -7.99 -4.57 -8.32 -4.11 -8.44 -3.64 -8.45 -3.28 -8.62 -2.89 -8.72 -2.5 -8.76 -2.16 -8.84 209.02 -46.66 0.18 0.78 0.14 0.46 0.03 0.12 -0.06 -0.16 -0.16 -0.37 -0.35 -0.72 -0.53 -0.96 -0.61 -1.01 -0.71 -1.03 -0.97 -1.27 -1.11 -1.3 -1.16 -1.24 -1.31 -1.25 -1.22 -1.06 -1.24 -0.96 -1.36 -0.95 -1.14 -0.72 -1.14 -0.64 -1.04 -0.52 -0.81 -0.37 -0.53 -0.21 -0.36 -0.12 -0.31 -0.1 -0.01 0 0.39 0.08 0.54 0.1 0.73 0.11 0.91 0.12 1.3 0.11 1.47 0.1 1.63 0.05 1.93 0.03 0.09 0zm-0.09 0c59.13,0.02 107.06,47.99 107.04,107.12 -0.02,59.13 -47.99,107.06 -107.12,107.04l0.08 -214.16zm1083.59 -0.11l0.48 214.16 -0.04 0 -33.88 0.06 -33.89 0.06 -33.9 0.05 -33.87 0.04 -33.87 0.05 -33.9 0.04 -33.89 0.03 -33.87 0.03 -33.88 0.03 -33.89 0.02 -33.89 0.02 -33.89 0.01 -33.87 0.01 -33.87 0.01 -33.88 0.01 -33.89 0 -33.89 0 -33.88 -0.01 -33.87 -0.01 -33.87 -0.01 -33.89 -0.01 -33.89 -0.02 -33.87 -0.02 -33.89 -0.02 -33.87 -0.03 -33.87 -0.02 -33.88 -0.03 -33.89 -0.03 -33.87 -0.04 -33.87 -0.03 -33.89 -0.04 -33.87 -0.04 0.26 -214.16 33.87 0.04 33.85 0.04 33.87 0.03 33.87 0.04 33.85 0.03 33.86 0.03 33.87 0.02 33.87 0.03 33.85 0.02 33.87 0.02 33.87 0.02 33.85 0.01 33.87 0.01 33.87 0.01 33.86 0.01 33.85 0 33.85 0 33.86 -0.01 33.87 -0.01 33.87 -0.01 33.85 -0.01 33.87 -0.02 33.85 -0.02 33.86 -0.03 33.87 -0.03 33.85 -0.03 33.84 -0.04 33.87 -0.05 33.87 -0.04 33.84 -0.05 33.85 -0.06 33.86 -0.06 -0.04 0zm0.04 0c59.13,-0.11 107.17,47.75 107.28,106.88 0.11,59.13 -47.75,107.17 -106.88,107.28l-0.4 -214.16zm27.42 -55.57l143.02 159.4 34.52 -64.76 -1.44 9.05 -1.79 9.11 -2.17 9.08 -2.53 8.98 -2.9 8.87 -3.33 8.85 -3.78 8.79 -4.23 8.67 -4.65 8.46 -5.06 8.23 -5.54 8.04 -6.01 7.81 -6.41 7.48 -6.65 6.97 -7.22 6.82 -7.54 6.36 -7.56 5.74 -8 5.46 -8.16 4.95 -8.25 4.47 -8.46 4.06 -8.42 3.56 -8.55 3.16 -8.58 2.75 -8.46 2.31 -8.51 1.97 -8.61 1.64 -8.46 1.27 -8.33 0.96 -8.41 0.68 -8.28 0.39 -8.23 0.15 -0.48 -214.16 1.81 -0.03 1.54 -0.07 1.21 -0.1 1.07 -0.12 0.72 -0.11 0.35 -0.06 0.21 -0.05 0.02 -0.01 -0.32 0.11 -0.55 0.2 -0.66 0.28 -0.94 0.46 -0.99 0.53 -1.16 0.71 -1.26 0.86 -1.08 0.82 -1.32 1.12 -1.3 1.22 -0.99 1.03 -1.03 1.22 -0.93 1.19 -0.74 1.08 -0.56 0.91 -0.43 0.8 -0.33 0.65 -0.18 0.43 -0.05 0.11 0.08 -0.21 0.13 -0.48 0.17 -0.72 0.21 -1.07 0.24 -1.51 34.52 -64.76zm-34.52 64.76c8.25,-58.55 62.42,-99.34 120.97,-91.09 58.55,8.25 99.34,62.42 91.09,120.97l-212.06 -29.88zm172.28 -102.01l0.08 214.16 0.1 0 -4.27 -0.04 -3.86 -0.11 -3.87 -0.17 -3.36 -0.2 -3.09 -0.21 -2.86 -0.22 -2.11 -0.17 -2.12 -0.17 -2.14 -0.17 -1.64 -0.13 -0.9 -0.06 -0.9 -0.05 -0.9 -0.05 -0.38 -0.01 0.12 0 0.65 -0.01 0.42 -0.01 0.95 -0.07 1.47 -0.13 1.72 -0.23 1.95 -0.32 1.98 -0.41 2.65 -0.66 3.01 -0.91 2.66 -0.93 2.99 -1.24 3.19 -1.49 2.9 -1.57 2.95 -1.78 2.73 -1.87 2.85 -2.17 2.29 -1.95 -143.02 -159.4 6.03 -5.15 6.65 -5.07 6.59 -4.49 6.83 -4.14 6.84 -3.67 7.15 -3.37 7.01 -2.86 6.7 -2.37 7.09 -2.13 6.75 -1.68 6.12 -1.25 6.11 -1.02 5.9 -0.75 5.67 -0.53 5.17 -0.31 4.66 -0.17 4.89 -0.05 4.4 0.06 3.88 0.13 3.38 0.15 3.38 0.19 3.38 0.24 2.64 0.21 2.14 0.17 2.16 0.17 2.15 0.17 1.4 0.12 1.15 0.07 0.86 0.06 0.35 0.01 0.34 0.01 -0.11 0 0.1 0zm-0.1 0c59.13,-0.07 107.15,47.81 107.22,106.94 0.07,59.13 -47.81,107.15 -106.94,107.22l-0.28 -214.16zm3479.01 -0.45l0.08 214.16 -0.03 0 -108.72 0.01 -108.71 0.01 -108.72 0.01 -108.71 0.01 -108.72 0.01 -108.72 0.01 -108.71 0 -108.71 0.01 -108.72 0.01 -108.72 0 -108.7 0.01 -108.73 0.01 -108.71 0 -108.71 0.01 -108.71 0.01 -108.71 0.01 -108.72 0.01 -108.71 0.01 -108.72 0.01 -108.71 0.01 -108.72 0.01 -108.7 0.02 -108.73 0.02 -108.71 0.01 -108.71 0.02 -108.71 0.02 -108.71 0.03 -108.72 0.02 -108.7 0.03 -108.72 0.03 -108.71 0.03 -108.71 0.04 -0.08 -214.16 108.73 -0.04 108.71 -0.03 108.72 -0.03 108.72 -0.03 108.72 -0.02 108.71 -0.03 108.71 -0.02 108.73 -0.02 108.71 -0.01 108.71 -0.02 108.72 -0.02 108.72 -0.01 108.71 -0.01 108.72 -0.01 108.71 -0.01 108.72 -0.01 108.71 -0.01 108.71 -0.01 108.73 -0.01 108.71 0 108.71 -0.01 108.72 -0.01 108.72 0 108.7 -0.01 108.73 -0.01 108.71 0 108.7 -0.01 108.72 -0.01 108.71 -0.01 108.72 -0.01 108.71 -0.01 108.72 -0.01 -0.03 0zm0.03 0c59.13,0 107.09,47.94 107.09,107.07 0,59.13 -47.94,107.09 -107.07,107.09l-0.02 -214.16zm-13.38 34.95l213.54 16.26 0 -0.05 -0.83 8.56 -1.27 8.79 -1.72 8.87 -2.2 8.94 -2.69 8.85 -3.17 8.73 -3.84 8.98 -4.39 8.76 -4.83 8.37 -5.4 8.19 -5.91 7.88 -6.37 7.51 -6.84 7.13 -7.2 6.66 -7.32 6.01 -7.6 5.58 -8.06 5.24 -7.95 4.57 -7.91 4.05 -8.17 3.7 -8.09 3.21 -8.12 2.83 -8.12 2.45 -8.07 2.1 -8.05 1.78 -7.98 1.48 -8.12 1.22 -7.96 0.95 -7.94 0.72 -8.04 0.5 -7.94 0.29 -8.01 0.1 -0.08 -214.16 2.91 -0.04 2.66 -0.09 2.22 -0.14 2 -0.18 1.66 -0.19 1.16 -0.18 0.96 -0.18 0.59 -0.12 0.21 -0.06 -0.14 0.05 -0.5 0.17 -0.77 0.31 -1.19 0.54 -1.27 0.65 -1.61 0.93 -2.06 1.34 -1.94 1.42 -1.98 1.63 -2.18 2.02 -2.16 2.25 -2.01 2.37 -1.89 2.52 -1.7 2.57 -1.45 2.51 -1.33 2.66 -1.12 2.62 -0.79 2.15 -0.61 2.03 -0.46 1.86 -0.3 1.57 -0.19 1.23 -0.07 0.78 0 -0.05zm0 0.05c4.46,-58.96 55.89,-103.15 114.85,-98.69 58.96,4.46 103.15,55.89 98.69,114.85l-213.54 -16.16zm-81.61 -46.88l209.98 -42.12 -90.09 -84.98 7.9 1.21 7.77 1.38 7.81 1.6 7.83 1.82 7.82 2.07 7.68 2.29 7.64 2.54 7.8 2.9 7.63 3.17 7.73 3.56 7.62 3.91 7.49 4.24 7.6 4.79 7.27 5.08 7.19 5.56 7.15 6.18 6.85 6.61 6.41 6.91 6.21 7.53 5.87 8.06 5.29 8.28 4.79 8.61 4.35 9.06 3.67 9.09 3.12 9.22 2.6 9.58 1.97 9.44 1.4 9.25 0.9 9.14 0.42 9.17 -0.05 9.14 -0.47 8.8 -213.54 -16.26 -0.05 1.04 -0.01 1.58 0.08 1.77 0.2 1.96 0.34 2.23 0.55 2.64 0.8 2.94 0.94 2.8 1.15 2.83 1.45 3.02 1.53 2.75 1.67 2.62 1.89 2.58 1.85 2.27 1.71 1.83 1.79 1.73 1.73 1.5 1.39 1.08 1.13 0.78 1.12 0.71 0.63 0.36 0.42 0.21 0.15 0.08 -0.27 -0.11 -0.48 -0.18 -0.98 -0.32 -1.28 -0.39 -1.5 -0.39 -1.85 -0.44 -2.21 -0.44 -2.59 -0.46 -2.82 -0.43 -90.09 -84.98zm90.09 84.98c-58.56,-8.22 -99.36,-62.38 -91.14,-120.94 8.22,-58.56 62.38,-99.36 120.94,-91.14l-29.8 212.08zm-399.24 -687.82l211.76 -31.9 -41.46 -69.58 16.6 13.69 15.09 14.48 14.13 15.23 13.63 16.1 13.29 16.98 13.12 17.86 13.02 18.77 12.95 19.58 12.89 20.37 12.84 21.12 12.76 21.75 12.69 22.33 12.58 22.87 12.43 23.26 12.28 23.63 12.07 23.88 11.83 24.05 11.56 24.11 11.25 24.11 10.91 24.01 10.53 23.83 10.11 23.58 9.65 23.22 9.16 22.77 8.64 22.29 8.07 21.71 7.47 21.05 6.85 20.41 6.19 19.73 5.49 19.03 4.76 18.43 3.99 17.96 -209.98 42.12 -2.19 -9.86 -3.12 -12.03 -3.99 -13.83 -4.81 -15.33 -5.61 -16.69 -6.33 -17.85 -6.99 -18.81 -7.62 -19.65 -8.2 -20.39 -8.71 -20.96 -9.19 -21.4 -9.61 -21.77 -9.99 -21.99 -10.33 -22.13 -10.6 -22.13 -10.83 -22.01 -11.01 -21.78 -11.16 -21.47 -11.23 -21.02 -11.26 -20.45 -11.23 -19.79 -11.14 -18.99 -10.98 -18.04 -10.75 -16.99 -10.43 -15.8 -10.02 -14.43 -9.5 -12.94 -8.79 -11.24 -7.87 -9.32 -6.67 -7.21 -4.95 -4.78 -2.58 -2.17 -41.46 -69.58zm41.46 69.58c-47.23,-35.57 -56.68,-102.72 -21.11,-149.95 35.57,-47.23 102.72,-56.68 149.95,-21.11l-128.84 171.06zm-49.96 -77.07l177.28 -120.14 -0.04 -0.05 0.94 1.37 0.81 1.19 0.95 1.37 1.17 1.71 1.17 1.71 1.16 1.71 1.25 1.85 1.29 1.92 1.28 1.92 1.44 2.21 1.6 2.5 1.45 2.3 1.43 2.31 1.61 2.68 1.58 2.7 1.55 2.72 1.7 3.09 1.71 3.24 1.53 3.02 1.67 3.41 1.64 3.56 1.64 3.73 1.55 3.75 1.52 3.89 1.5 4.17 1.32 3.93 1.39 4.49 1.28 4.58 1.09 4.32 1.08 4.81 0.94 4.86 0.78 4.76 -211.76 31.9 0.16 1.04 0.24 1.2 0.26 1.19 0.19 0.74 0.3 1.06 0.31 1.01 0.16 0.49 0.28 0.77 0.2 0.53 0.19 0.43 0.18 0.43 0.14 0.3 0.09 0.19 -0.09 -0.18 0.03 0.06 -0.04 -0.07 -0.23 -0.4 -0.24 -0.42 -0.25 -0.4 -0.47 -0.77 -0.47 -0.76 -0.36 -0.56 -0.56 -0.83 -0.72 -1.1 -0.75 -1.12 -0.79 -1.17 -0.9 -1.31 -0.89 -1.31 -0.91 -1.31 -1.13 -1.65 -1.27 -1.85 -1.12 -1.67 -0.04 -0.05zm0.04 0.05c-33.2,-48.93 -20.45,-115.52 28.48,-148.72 48.93,-33.2 115.52,-20.45 148.72,28.48l-177.2 120.24zm-475.2 -709.19l155.06 -147.72 12.41 15.75 14.68 22.67 14.72 22.64 14.79 22.63 14.82 22.62 14.85 22.56 14.92 22.57 14.95 22.56 15 22.55 15.03 22.53 15.06 22.51 15.09 22.52 15.12 22.49 15.16 22.49 15.18 22.49 15.21 22.48 15.23 22.48 15.24 22.45 15.28 22.49 15.3 22.5 15.28 22.45 15.32 22.47 15.33 22.5 15.32 22.47 15.35 22.49 15.35 22.52 15.35 22.51 15.34 22.52 15.35 22.52 15.34 22.55 15.34 22.55 15.34 22.59 15.32 22.59 -177.28 120.14 -15.24 -22.47 -15.26 -22.47 -15.28 -22.47 -15.3 -22.47 -15.31 -22.48 -15.32 -22.48 -15.33 -22.49 -15.33 -22.48 -15.35 -22.49 -15.36 -22.53 -15.33 -22.5 -15.36 -22.53 -15.36 -22.57 -15.32 -22.54 -15.34 -22.55 -15.34 -22.61 -15.31 -22.6 -15.31 -22.64 -15.28 -22.63 -15.28 -22.67 -15.26 -22.71 -15.23 -22.7 -15.22 -22.75 -15.17 -22.77 -15.16 -22.79 -15.13 -22.82 -15.1 -22.85 -15.09 -22.92 -15.02 -22.92 -14.99 -22.95 -14.96 -23 -14.92 -23.03 12.41 15.75zm-12.41 -15.75c-32.09,-49.67 -17.84,-115.96 31.83,-148.05 49.67,-32.09 115.96,-17.84 148.05,31.83l-179.88 116.22zm-126.17 -85.7l51.46 -207.88 -0.88 -0.21 9.37 2.3 9.2 2.42 9.14 2.57 8.95 2.72 8.78 2.86 8.84 3.11 8.7 3.31 8.59 3.52 8.44 3.74 8.37 4 8.25 4.25 8.12 4.49 7.98 4.74 7.67 4.86 7.54 5.08 7.34 5.25 7.17 5.41 6.95 5.52 6.78 5.62 6.64 5.74 6.53 5.85 6.46 5.98 6.36 6.05 6.35 6.18 6.42 6.38 6.45 6.51 6.51 6.66 6.65 6.88 6.8 7.07 7 7.32 7.22 7.58 7.49 7.85 -155.06 147.72 -7.45 -7.83 -7.08 -7.42 -6.72 -7.02 -6.36 -6.63 -6.01 -6.2 -5.67 -5.8 -5.33 -5.39 -5 -4.96 -4.73 -4.6 -4.44 -4.23 -4.08 -3.78 -3.83 -3.43 -3.58 -3.1 -3.32 -2.76 -3.07 -2.44 -2.85 -2.15 -2.7 -1.93 -2.58 -1.74 -2.55 -1.62 -2.38 -1.42 -2.46 -1.35 -2.57 -1.33 -2.75 -1.3 -3 -1.34 -3.21 -1.32 -3.54 -1.35 -3.86 -1.35 -4.44 -1.44 -4.81 -1.46 -5.22 -1.47 -5.8 -1.52 -6.31 -1.56 -0.88 -0.21zm0.88 0.21c-57.52,-13.72 -93.02,-71.48 -79.3,-129 13.72,-57.52 71.48,-93.02 129,-79.3l-49.7 208.3zm-3158.06 215.42l214.16 0 -157.01 -94.73 98.22 -50.46 97.77 -47.62 97.36 -44.79 97.02 -42 96.72 -39.22 96.47 -36.46 96.28 -33.74 96.11 -31.01 96 -28.33 95.95 -25.68 95.93 -23.04 95.94 -20.42 96.01 -17.84 96.12 -15.28 96.29 -12.75 96.47 -10.25 96.7 -7.76 96.99 -5.34 97.32 -2.92 97.67 -0.55 98.09 1.81 98.56 4.11 99.05 6.4 99.61 8.63 100.21 10.85 100.86 13.01 101.57 15.16 102.31 17.26 103.13 19.34 103.97 21.38 104.89 23.37 105.87 25.36 -51.46 207.88 -102.65 -24.58 -101.51 -22.63 -100.43 -20.64 -99.37 -18.64 -98.39 -16.6 -97.45 -14.54 -96.58 -12.47 -95.75 -10.37 -94.99 -8.23 -94.27 -6.08 -93.62 -3.91 -93.03 -1.71 -92.49 0.51 -92.02 2.76 -91.63 5.04 -91.28 7.34 -90.99 9.65 -90.77 12.03 -90.62 14.4 -90.53 16.82 -90.5 19.26 -90.53 21.74 -90.63 24.26 -90.8 26.81 -91.03 29.37 -91.3 31.98 -91.63 34.64 -92.04 37.32 -92.5 40.04 -93.02 42.79 -93.59 45.58 -94.2 48.42 -157.01 -94.73zm157.01 94.73c-52.31,27.57 -117.09,7.51 -144.66,-44.8 -27.57,-52.31 -7.51,-117.09 44.8,-144.66l99.86 189.46z"/>
      <path id="1" class="fil19" d="M20440.05 6418.83l0.06 0.37c-3.01,-1.12 -6.05,-2.21 -9.14,-3.27 3.12,0.94 6.15,1.9 9.08,2.9zm272.69 402.78l-0.66 0.26 0.12 -0.91 0.54 0.65zm-361.18 -1257.84l0 -0.05c-13.2,6.96 -26.43,13.99 -39.66,21.11l-1.28 0.69 -0.15 0.07 -1.41 0.77c-16.08,8.67 -32.19,17.45 -48.31,26.34 -31.29,-17.25 -62.48,-34.06 -93.58,-50.41l0 0.03c-1027.35,-540.44 -1951.47,-594.46 -3067.81,-318.12 -92.04,26.57 -133.58,52.37 -190.38,131.53 -157.58,243.89 -323.33,482.53 -486.27,722.93 -11.02,16.24 -22.73,31.63 -25.75,51.61l3.63 -0.41 -1.04 0.7c-79.57,64.66 -276.99,472.06 -308.91,597.18 -33.8,2.38 -62.78,12.44 -75.51,47.91 -9.19,25.59 -4.46,48.61 13.07,69.36 21.12,25.01 49.88,23.16 78.38,23.16 267.88,-0.07 535.76,-0.02 803.65,-0.02 876.41,0 1752.79,-0.05 2629.2,0.21 23.02,0.03 50.9,-9.94 63.24,22.19 11.68,52.33 49.05,70.83 97.59,70.85 361.28,0.43 722.59,0.56 1083.87,-0.11 54.09,-0.12 90.66,-25.69 98.73,-82.95 19.86,-17.82 44.12,-9.84 66.29,-9.87 1159.64,-0.39 2319.26,-0.32 3478.91,-0.45 59.15,-0.02 90.19,-21.83 93.38,-64 3.19,-41.87 -25.32,-67.86 -83.39,-76.02 -28.3,-141.08 -208.39,-522.51 -308.26,-597.73 -3.01,-19.98 -14.72,-35.37 -25.74,-51.61 -162.93,-240.4 -328.68,-479.04 -486.27,-722.93 -81.45,-85.49 -104.83,-111.12 -190.38,-131.53 -1117.93,-276.71 -2046.51,-222.96 -3075.83,319.57z"/>
     </g>
     <path class="fil20" d="M24129.78 6150.26c-18.53,-14.88 -39.89,-21.23 -63.41,-23.8 -265.3,-28.98 -527.19,-79.61 -789.68,-126.11 -144.9,-24.57 -288.21,-57.3 -432.47,-85.16 -290.73,-56.15 -582.82,-97.49 -879.57,-98.16 -69.66,1.19 -139.36,0.43 -209.09,0.67 -76.6,-1.71 -151.59,12.36 -226.8,22.9 -337.16,47.17 -650.4,154.35 -913.84,378.24 -66.56,56.53 -138.72,110.65 -175.28,195.28 0.47,19.17 14.63,27.71 28.83,34.73 117.33,57.87 197.65,151.75 258.79,264.56 10.91,20.19 20.95,41.58 46.75,46.93 36.59,6.33 72.13,-0.02 107.4,-9.02 277.52,-72.16 561.44,-96.23 846.53,-102.41 201.6,-4.36 403.07,13.9 603.7,33.89 256.84,25.57 513.85,49.04 770.88,71.95 419.59,0.7 843.42,11.07 1265.44,10.56 24.42,-0.03 50.28,2.73 70.09,-17.32 -28.3,-141.08 -208.39,-522.51 -308.26,-597.74z"/>
     <path class="fil20" d="M19763.4 5867.43c-220.89,-105.18 -459.53,-130.42 -698.73,-144.19 -221.58,-12.77 -442.48,6.75 -662.6,36.34 -390.79,52.57 -773.08,147.75 -1158.45,227.42 -248.39,51.34 -497.91,96.09 -748.26,136.38 -33.43,5.4 -66.73,7.83 -95.82,27.16 -79.57,64.67 -276.99,472.07 -308.91,597.19 81.73,78.09 1623.01,-36.75 1965.32,-61.44 236.47,-17.03 473.08,-30.82 710,-38.41 147.07,-4.69 293.4,10.3 439.94,20.19 159.6,10.78 316.84,33.09 469.71,81.78 17.89,3.37 35.49,9.13 54.02,4.49 23.14,-10.7 30.8,-33.44 41.34,-53.59 89.53,-171.58 228.72,-270.55 422.42,-291.44 26.98,-2.93 57.54,-1.04 75.07,-29.61 0.03,-25.88 -11.58,-48.02 -23.62,-69.72 -111.41,-200.84 -275.74,-344.58 -481.45,-442.54z"/>
     <path class="fil21" d="M20764.16 6751.04c36.25,-2.07 72.86,-0.81 108.15,-11.75 622.85,-19.06 1245.84,-3.54 1868.77,-8.18 93.69,-0.7 187.31,3.21 280.76,11.18 24.38,2.09 49.47,4.28 73.83,-2.77 417.27,20.3 834.83,5.12 1252.22,9.71 30.04,0.31 60.1,-0.79 90.14,-1.24 58.06,8.16 86.58,34.16 83.4,76.02 -3.19,42.17 -34.24,63.98 -93.39,64 -1159.64,0.13 -2319.26,0.05 -3478.91,0.46 -22.17,0.02 -46.43,-7.97 -66.29,9.87 -40.49,7 -81.23,6.33 -121.21,-1.19 -32.45,-6.09 -62.48,-18.43 -59.06,-60.96 3.28,-11.06 8.92,-19.46 22,-12.73 42.96,22.13 44.53,-0.64 36.7,-33.53 -3.19,-13.39 -8.89,-26.72 2.88,-38.89z"/>
     <path class="fil21" d="M16090.63 6747.73c293.29,-1.38 586.71,11.37 879.84,-7.97 29.89,-1.97 59.98,-0.59 89.98,-0.76 83.03,11.04 165.97,-1.78 248.79,-3.4 76.02,-1.45 152.23,-4.18 228.27,-4.3 671.71,-0.86 1343.44,-0.15 2015.17,-1.26 46,-0.1 90.62,13.46 136.57,8.3 13.44,3.82 26.88,7.68 40.32,11.53 9.13,11.09 3.66,22.9 1.73,34.54 -2.47,14.89 -11.34,33.84 7.1,41.48 20.14,8.35 23.97,-13.42 31.7,-25.76 9.51,-15.15 12.58,-38.2 39.6,-31.59 26.76,18.39 35.06,44.08 24.95,73.69 -11.87,34.75 -37.93,54.19 -74.66,57.73 -52.35,5.04 -105.56,-2.98 -157.34,10.58 -12.34,-32.13 -40.22,-22.17 -63.25,-22.19 -876.4,-0.26 -1752.78,-0.21 -2629.19,-0.21 -267.89,0 -535.77,-0.05 -803.65,0.02 -28.5,0 -57.26,1.86 -78.38,-23.16 -17.53,-20.75 -22.27,-43.77 -13.08,-69.36 12.73,-35.47 41.72,-45.53 75.52,-47.91z"/>
     <path class="fil21" d="M20785.52 6886.66c-39.06,-5.73 -81.89,-6.99 -73.31,-65.74 11.35,-15.22 5.57,-31.18 -0.76,-45.27 -38.6,-85.98 -84.93,-166.75 -159.07,-228.12 -94.53,-78.23 -202.28,-108.27 -324.94,-101.8 -188,9.97 -323.6,99.13 -416.43,258.79 -11.01,18.95 -24.29,39.98 -13.35,64.64 23.24,19.15 38.92,42.65 24.48,72.6 -14.49,30.13 -38.68,47.66 -75.42,45.4 -34.83,-2.17 -69.86,-0.21 -104.83,-0.52 -18.31,-0.17 -35.74,0.16 -39.22,23.9 11.68,52.33 49.05,70.84 97.59,70.86 361.28,0.43 722.59,0.55 1083.87,-0.12 54.08,-0.12 90.67,-25.69 98.73,-82.94 -30.16,-22.95 -64.98,-6.92 -97.33,-11.68z"/>
     <path class="fil22" d="M22572.01 6689.93c-365.01,-36.82 -730.03,-73.99 -1097.68,-46.33 -203.23,15.29 -405.21,39.51 -602.02,95.69 14.65,15.03 33.45,8.87 50.45,8.87 703.85,0.31 1407.68,0.33 2111.5,-0.05 20.53,0 42.76,6.9 61.41,-8.59 -174.54,-16.48 -349.2,-31.98 -523.67,-49.59z"/>
     <path class="fil22" d="M19689.26 6738.34c-37.29,-11.2 -74.09,-24.53 -111.95,-33.26 -280.1,-64.45 -565.3,-77.58 -850.79,-70.85 -556.59,13.15 -1110.44,73.64 -1666.07,104.77 16.43,15.93 37.08,9.16 55.8,9.19 840.99,0.28 1682.01,0.2 2522.99,-0.17 16.91,-0.03 35.92,6.49 50.02,-9.68z"/>
     <path class="fil22" d="M23227 6142.89c-191.5,-40.38 -383.97,-76.25 -576.31,-112.57 -220.48,-41.68 -443.19,-68.03 -667.06,-79.18 -314.78,-15.71 -619.61,38.64 -914.68,148.06 -90.65,33.61 -179.99,70.57 -261.69,123.3 87.27,-28.66 172.06,-63.34 258.69,-92.67 230.22,-77.96 465.69,-129.62 709.79,-137.93 255.72,-8.68 507.71,21.45 759.57,61.89 339.63,54.52 677.04,120.95 1015.43,182.1 64.7,11.68 128.42,32.61 196.16,26 -173.26,-39.89 -345.96,-82.34 -519.91,-119z"/>
     <path class="fil22" d="M20806.07 6417.87c593.86,-250.55 1209.26,-252.88 1833.47,-153.72 -626.78,-129.06 -1244.03,-148 -1833.47,153.72z"/>
     <path class="fil22" d="M21011.93 6534.76c476.17,-149.57 959.94,-131.13 1445.74,-67.74 -486.94,-88.72 -971.45,-123.55 -1445.74,67.74z"/>
     <path class="fil23" d="M19593.24 5950.77c2.17,18.43 -0.38,35.91 -10.47,51.89 0.7,3.62 1.39,7.29 2.05,10.93 191.28,45.59 349.48,149.86 494.25,278.4 -120.5,-172.85 -290.35,-275.19 -485.83,-341.22z"/>
     <path class="fil24" d="M16422.7 6098.65c162.93,-240.4 328.68,-479.04 486.27,-722.93 56.8,-79.16 98.34,-104.96 190.38,-131.53 1150.13,-284.69 2096.22,-218.78 3161.39,368.5 1065.84,-588.1 2015.93,-653.34 3166.64,-368.5 85.55,20.41 108.93,46.04 190.38,131.53 157.58,243.89 323.33,482.53 486.27,722.93 11.02,16.24 22.73,31.63 25.74,51.61 -234.09,-25.49 -474.76,-71.03 -715.96,-119.22 -794.77,-158.83 -1686.93,-368.29 -2460.38,-11.54 -195.82,90.35 -382.19,224.57 -507.9,401.27 -80.87,-30.11 -258.37,-35.97 -365.41,-1.5 -15.23,-21.41 -27.22,-43.31 -44.92,-62.4 -131.89,-142.51 -284.61,-255.57 -461.91,-337.37 -662.86,-305.75 -1325.44,-177.84 -2008.54,-66.43 -394.09,64.36 -765.17,153.35 -1167.8,197.19 3.02,-19.98 14.73,-35.37 25.75,-51.61z"/>
     <path class="fil25" d="M20351.56 6397.99l0 -834.27c-30.19,15.9 -60.45,32.23 -90.81,48.98 -31.29,-17.25 -62.48,-34.06 -93.58,-50.41l0 627.81 0 210.09 0 1c27.92,-3.4 57.2,-5.16 86.25,-5.43 33.89,-0.3 67.45,1.43 98.14,4.94l0 -2.71z"/>
     <path class="fil22" d="M20466.27 6430.43c139.04,68.53 228.81,184.61 297.89,320.61 2.99,11.63 4.7,23.83 9.28,34.82 9.34,22.41 14.55,45.36 -8.69,60.55 -28.42,18.56 -38.79,-8.94 -52.57,-25.47 -55.95,-166.32 -152.79,-300.72 -328.21,-346.86 -244.1,-64.17 -488.72,44.62 -586.34,295.09 -7.43,17.6 -14.5,35.36 -22.38,52.76 -8.32,18.38 -19.5,36.24 -43.05,26.33 -20.65,-8.65 -24.83,-27.95 -18.83,-48.69 4.86,-16.73 10.79,-33.17 16.23,-49.7 59.85,-130.39 142.98,-239.16 275.96,-303.6 113.47,-64.56 338.44,-76.11 460.7,-15.84z"/>
     <path class="fil22" d="M17278.48 6167.41c191.5,-40.38 383.97,-76.25 576.31,-112.57 220.49,-41.68 443.19,-68.03 667.07,-79.18 314.78,-15.71 619.6,38.64 914.68,148.06 90.64,33.61 179.98,70.57 261.69,123.3 -87.27,-28.66 -172.07,-63.34 -258.69,-92.66 -230.22,-77.97 -465.7,-129.63 -709.8,-137.94 -255.71,-8.68 -507.7,21.45 -759.57,61.9 -339.63,54.51 -677.04,120.94 -1015.43,182.09 -64.7,11.68 -128.42,32.61 -196.16,26 173.26,-39.89 345.96,-82.34 519.91,-119z"/>
     <path class="fil22" d="M19699.41 6442.39c-593.86,-250.55 -1209.25,-252.88 -1833.47,-153.72 626.79,-129.06 1244.04,-148 1833.47,153.72z"/>
     <path class="fil22" d="M19493.55 6559.28c-476.16,-149.57 -959.94,-131.13 -1445.74,-67.74 486.94,-88.72 971.45,-123.55 1445.74,67.74z"/>
    </g>
    <g>
     <path class="fil26" d="M21465.97 2070.23c0,508.72 0,763.08 0,763.08 -18.92,786.82 -418.88,1353.43 -1199.87,1699.83"/>
     <path class="fil10" d="M20266.1 1217.68l0 0.01c-413.21,360.35 -813.17,562.73 -1199.87,607.14l0 1008.48c18.93,786.82 418.89,1353.43 1199.87,1699.83l0.01 0c780.98,-346.39 1180.94,-913.01 1199.86,-1699.83l0 -1008.48c-386.7,-44.41 -786.65,-246.78 -1199.86,-607.14l0 -0.01 -0.01 0z"/>
     <path class="fil27" d="M20266.1 1353.32l0 0c-379.4,330.87 -746.63,516.7 -1101.69,557.47l0 925.96c17.38,722.45 384.61,1242.7 1101.69,1560.75l0.01 0c717.08,-318.04 1084.31,-838.3 1101.69,-1560.75l0 -925.96c-355.06,-40.77 -722.29,-226.59 -1101.69,-557.47l0 0 -0.01 0z"/>
     <path class="fil25" d="M20266.11 4397.5c717.08,-318.05 1084.31,-838.3 1101.69,-1560.75l0 -925.96c-355.06,-40.77 -722.29,-226.59 -1101.69,-557.47l0 3044.17z"/>
     <g>
      <path class="fil28" d="M19791.27 2630.1l11.86 0 0 -259.47c0,-254.61 208.33,-462.95 462.96,-462.95 254.63,0 462.96,208.34 462.96,462.95l0 259.47 11.87 0c72.76,0 132.28,59.52 132.28,132.28l0 769.9c0,72.76 -59.52,132.28 -132.28,132.28l-949.66 0c-72.76,0 -132.28,-59.52 -132.28,-132.28l0 -769.9c0,-72.76 59.52,-132.28 132.28,-132.28zm474.83 268.17c62.67,0 113.48,50.8 113.48,113.47 0,45.12 -26.34,84.08 -64.47,102.37l50.01 264.75c1.59,8.42 -7.01,15.57 -15.57,15.57l-166.88 0c-8.56,0 -17.22,-7.17 -15.57,-15.57l52.06 -263.79c-39.24,-17.86 -66.53,-57.4 -66.53,-103.33 0,-62.67 50.81,-113.47 113.47,-113.47zm-304.63 -268.17l609.28 0 0 -266.72c0,-167.55 -137.09,-304.63 -304.63,-304.63 -167.55,0 -304.64,137.08 -304.64,304.63l0 266.72z"/>
      <g>
       <g>
        <path class="fil29" d="M21132.23 2685.37l-32.88 -18.99c-6.49,-3.74 -17.02,-3.71 -23.41,0l-26.15 15.2c-36.25,-14.8 -71.7,-21.33 -106.32,-19.55 -34.66,1.82 -64.43,9.96 -89.36,24.44 -26.47,15.38 -39.61,30.97 -39.35,46.64 0.21,15.7 8.26,32.72 24.13,50.99 1.31,1.89 5.52,6.74 12.41,14.56 14.87,16.91 24.43,29.89 28.62,38.93 4.12,9.05 1.13,16.51 -9,22.4 -23.27,13.52 -50.39,11.32 -81.35,-6.56 -18.1,-10.46 -33.52,-22.98 -46.1,-37.65 -6.2,-7.28 -11.24,-14.59 -15.16,-22.05 -1.18,-2.25 -3.21,-4.14 -5.8,-5.64 -8.51,-4.91 -23,-5.47 -32.42,0l-37.02 21.52c-5.23,3.03 -7.1,7.64 -4.38,11.7 13.36,19.52 34.16,38.5 62.67,56.95l-30.65 17.8c-6.38,3.71 -6.41,9.81 0.08,13.57l32.88 18.97c6.49,3.75 17.02,3.71 23.41,0l32.11 -18.65c33.22,13.55 67.19,19.37 101.8,17.59 34.67,-1.82 65.23,-10.43 91.76,-25.83 19.04,-11.06 30.61,-22.39 34.8,-33.97 4.25,-11.64 3.32,-23.34 -2.66,-35.12 -5.92,-11.81 -16.22,-25.29 -30.72,-40.57 -11.91,-12.91 -20.33,-22.48 -25.05,-28.69 -4.77,-6.16 -7.21,-12.34 -7.06,-18.52 0.15,-6.16 4.49,-11.77 13.03,-16.73 10.74,-6.24 23.41,-8.53 37.9,-6.85 14.43,1.71 28.93,6.75 43.46,15.14 16.12,9.3 28.69,20.54 37.57,33.72 3.86,5.63 7.21,11.41 10.02,17.22 1.18,2.41 3.32,4.44 6.07,6.03 8.56,4.94 22.98,5.59 32.46,0.08l37.46 -21.77c5.28,-3.07 7.1,-7.64 4.36,-11.7 -5.14,-7.82 -10.86,-15.03 -17.06,-21.59 -7.93,-8.36 -17.9,-16.74 -29.76,-25.09l24.74 -14.38c6.38,-3.71 6.41,-9.8 -0.08,-13.55z"/>
        <path class="fil30" d="M21371.8 2668.19c-21.39,-40.34 -59.67,-78.31 -114.89,-110.21 -61.27,-35.37 -135.41,-58.65 -213.6,-69.88l-26.68 -14.64 -165.3 0 -25.7 14.1c-79.48,11 -154.81,34.47 -216.7,70.42 -55.17,32.06 -93.13,70.3 -113.98,110.87l-19.07 10.46 0 105.04c1.29,67.23 46.31,134.29 135.17,185.59 179.48,103.63 469.66,103.62 647.98,0 88.01,-51.14 132.26,-117.95 133.05,-184.98l0 -105.65 -20.27 -11.12z"/>
        <path class="fil31" d="M21256.91 2489.09c-179.55,-103.67 -469.6,-103.67 -647.99,0 -178.31,103.63 -177.43,271.67 2.12,375.34 179.48,103.62 469.66,103.62 647.98,-0.01 178.39,-103.67 177.37,-271.71 -2.11,-375.33z"/>
        <path class="fil29" d="M20932.48 2442.35c-116.99,0 -226.37,26.12 -307.98,73.54 -76,44.18 -117.81,101.05 -117.72,160.18 0.08,59.61 42.61,116.97 119.75,161.5 82.15,47.43 191.87,73.56 308.93,73.56l0.02 0c117,0 226.36,-26.11 307.96,-73.51 75.99,-44.17 117.8,-101.06 117.72,-160.17 -0.09,-59.61 -42.62,-116.97 -119.76,-161.51 -82.2,-47.46 -191.92,-73.59 -308.92,-73.59z"/>
        <path class="fil32" d="M20949.7 2462.44c-116.99,0 -226.36,26.13 -307.98,73.55 -75.99,44.17 -117.8,101.05 -117.71,160.18 0.08,59.61 42.61,116.97 119.75,161.5 82.15,47.43 191.86,73.56 308.93,73.56l0.02 0c117,0 226.36,-26.11 307.96,-73.52 75.98,-44.17 117.8,-101.05 117.71,-160.17 -0.09,-59.6 -42.61,-116.97 -119.75,-161.51 -82.2,-47.46 -191.92,-73.59 -308.93,-73.59z"/>
        <g>
         <path class="fil33" d="M21103.04 2775.45l88.34 -91.21c-61.25,-105.09 -92.26,-157.65 -92.26,-157.65 -59.36,-2.66 -89.04,-3.99 -89.04,-3.99l-142.45 147.12 -145.72 -6.54c3.84,6.53 15.87,27.13 34.95,59.73l56.81 2.54 0.27 0.01 0.14 0.01 0 0c3.75,0.14 33.4,1.31 88.68,3.79 0,0 94.56,-97.64 142.3,-146.94l-4.08 -6.97 61.4 104.81 -88.65 91.29 -234.61 -10.52 35.06 59.9 234.73 10.53 54.13 -55.91zm-257.98 -143.44l108.41 -111.95 -89.09 -3.99 -108.33 111.87 89.01 4.07z"/>
         <path class="fil34" d="M21095.92 2763.22l88.35 -91.21c-61.26,-105.09 -92.27,-157.65 -92.27,-157.65 -59.36,-2.66 -89.04,-3.99 -89.04,-3.99l-142.45 147.12 -145.71 -6.54c3.83,6.53 15.86,27.12 34.95,59.72l56.8 2.55 0.28 0.01 0.13 0.01 0 0c3.76,0.14 33.41,1.31 88.69,3.79 0,0 94.55,-97.64 142.3,-146.94l-4.08 -6.97 61.39 104.81 -88.65 91.29 -234.61 -10.53 35.06 59.91 234.74 10.53 54.12 -55.91zm-257.97 -143.45l108.4 -111.94 -89.08 -3.99 -108.34 111.87 89.02 4.06z"/>
        </g>
        <path class="fil35" d="M20916.04 3047.43c120.56,2.94 242.59,-21.53 335.81,-73.41 2.41,-1.34 4.8,-2.7 7.16,-4.07 83.72,-48.65 127.83,-111.48 132.62,-175.18 0.25,-3.27 0.39,-6.54 0.43,-9.81l0 -101.8c-0.38,10.6 -1.85,21.19 -4.41,31.71l0 39.22c-0.3,25.74 -7.02,51.44 -20.15,76.24 -0.01,0.03 -0.02,0.05 -0.04,0.08 -9.42,17.77 -22.15,35.08 -38.18,51.6 -0.03,0.03 -0.06,0.06 -0.09,0.1 -19.82,20.39 -44.67,39.59 -74.59,56.97 -98.69,57.35 -231.64,82.96 -361.13,76.83 -20.71,-0.98 -41.33,-2.77 -61.7,-5.38 -82.43,-10.53 -160.88,-34.35 -225.14,-71.45 -73.61,-42.5 -117.15,-95.82 -130.64,-151.09 2.8,66.01 47.8,131.58 135.05,181.96 63.11,36.44 139.92,60.06 220.73,70.87 21.1,2.82 42.47,4.77 63.94,5.85 6.77,0.34 13.55,0.59 20.33,0.76z"/>
        <path class="fil36" d="M20952.71 2931.23c117,0 226.35,-26.11 307.96,-73.52 75.98,-44.17 117.8,-101.05 117.71,-160.17 -0.01,-9.2 -1.04,-18.35 -3.05,-27.41 -4.51,-20.33 -13.97,-40.2 -28.06,-59.17 1.57,5.41 2.79,10.85 3.65,16.32 0.56,3.52 0.96,7.04 1.22,10.59 0.21,2.96 0.33,5.93 0.33,8.91 0.09,59.12 -41.73,116 -117.72,160.17 -66.2,38.46 -150.67,62.91 -242.68,70.76 -21.39,1.83 -43.2,2.76 -65.3,2.76 -14.56,0 -29,-0.41 -43.29,-1.21 -17.49,-0.97 -34.75,-2.54 -51.71,-4.69 -66.41,-8.39 -128.23,-25.58 -181.18,-50.56 -11.33,-5.34 -22.26,-11.05 -32.74,-17.1 -38.49,-22.22 -68.36,-47.63 -88.64,-74.92 5.17,17.79 14.16,35.18 26.73,51.85 20.26,26.88 49.85,51.91 87.82,73.83 17.48,10.09 36.2,19.22 55.98,27.33 40.21,16.5 84.76,28.82 132.03,36.58 14.15,2.32 28.54,4.23 43.13,5.72 4.04,0.42 8.1,0.8 12.17,1.15 21.52,1.84 43.43,2.78 65.64,2.78z"/>
       </g>
       <polygon class="fil37" points="21274.57,2591.87 21286.91,2618.49 21323.28,2570.73 21302.63,2627.1 21332.05,2623.11 21305.43,2635.46 21353.19,2671.84 21296.82,2651.17 21300.81,2680.59 21288.46,2653.97 21252.08,2701.73 21272.74,2645.37 21243.33,2649.35 21269.94,2637.01 21222.18,2600.64 21278.55,2621.29 "/>
      </g>
      <path class="fil28" d="M19803.14 2630.1l0 -259.46c0,-254.62 208.32,-462.95 462.95,-462.95 254.62,0 462.95,208.33 462.95,462.95l0 259.46 -158.3 0 0 -266.72c0,-167.56 -137.11,-304.62 -304.64,-304.62 -167.55,0 -304.64,137.06 -304.64,304.62l0 266.72 -158.32 0z"/>
     </g>
    </g>
   </g>
   <g>
    <polygon class="fil38 str0" points="1698.78,6367.49 1698.78,6743.84 1032.02,6743.84 1032.02,6367.49 846.81,6367.49 846.81,7404.67 1032.02,7404.67 1032.02,6929.04 1698.78,6929.04 1698.78,7404.67 1883.99,7404.67 1883.99,6367.49 "/>
   </g>
   <g>
    <path id="1" class="fil38 str0" d="M2515.2 6367.49c-285.96,0 -518.6,232.62 -518.6,518.6 0,285.96 232.63,518.59 518.6,518.59 285.96,0 518.59,-232.62 518.59,-518.59 0,-285.97 -232.62,-518.6 -518.59,-518.6zm0 851.97c-183.73,0 -333.38,-149.65 -333.38,-333.37 0,-183.73 149.65,-333.38 333.38,-333.38 183.72,0 333.37,149.65 333.37,333.38 0,183.72 -149.65,333.37 -333.37,333.37z"/>
   </g>
   <g>
    <polygon id="2" class="fil38 str0" points="4333.23,6367.49 4140.6,6367.49 3953.91,6992.76 3796.86,6774.95 3767.22,6733.46 3682.77,6617.89 3598.31,6733.46 3568.68,6774.95 3411.62,6992.76 3411.62,6992.76 3411.62,6992.76 3224.92,6367.49 3032.3,6367.49 3273.82,7180.94 3340.5,7403.19 3340.5,7403.19 3340.5,7403.19 3476.81,7215.02 3681.28,6932.01 3887.24,7215.02 3887.24,7215.02 4023.55,7404.67 4023.55,7404.67 4023.55,7404.67 4090.23,7180.94 4090.23,7180.94 "/>
   </g>
   <g>
    <polygon id="3" class="fil38 str0" points="5202.97,6367.49 5202.97,6552.7 5628.21,6552.7 5628.21,7404.67 5813.42,7404.67 5813.42,6552.7 6238.67,6552.7 6238.67,6367.49 "/>
   </g>
   <g>
    <path id="4" class="fil38 str0" d="M6773.56 6367.49c-285.96,0 -518.6,232.62 -518.6,518.6 0,285.96 232.63,518.59 518.6,518.59 285.96,0 518.59,-232.62 518.59,-518.59 0,-285.97 -232.62,-518.6 -518.59,-518.6zm0 851.97c-183.73,0 -333.38,-149.65 -333.38,-333.37 0,-183.73 149.65,-333.38 333.38,-333.38 183.72,0 333.37,149.65 333.37,333.38 0,183.72 -149.65,333.37 -333.37,333.37z"/>
   </g>
   <g>
    <path id="5" class="fil38 str0" d="M9107.22 6653.45l0 -5.92c0,-154.1 -125.94,-280.04 -280.04,-280.04l-420.79 0c-154.09,0 -278.55,125.94 -278.55,280.04l0 5.92c0,59.27 17.78,114.09 48.89,158.54 10.37,16.3 22.23,31.12 35.56,44.45 50.38,48.9 118.53,78.53 194.1,78.53l373.38 0c78.53,0 143.72,63.71 143.72,142.24 0,78.53 -65.19,142.24 -143.72,142.24l-324.49 0c-78.52,0 -142.24,-63.71 -142.24,-142.24l-185.2 0c0,180.76 146.68,327.45 327.44,327.45l324.49 0c180.76,0 327.45,-146.69 327.45,-327.45 0,-78.53 -28.15,-151.13 -74.08,-207.43 -4.45,-4.45 -7.41,-8.89 -11.86,-13.34 -59.26,-65.19 -145.2,-106.68 -241.51,-106.68l-373.38 0c-51.86,0 -94.83,-42.97 -94.83,-94.83l0 -5.92c0,-51.86 42.97,-94.83 94.83,-94.83l420.79 0c51.86,0 94.83,42.97 94.83,94.83l0 5.92 185.21 -1.48z"/>
   </g>
   <g>
    <polygon id="6" class="fil38 str0" points="9206.49,6367.49 9206.49,6552.7 9631.73,6552.7 9631.73,7404.67 9816.94,7404.67 9816.94,6552.7 10242.19,6552.7 10242.19,6367.49 "/>
   </g>
   <g>
    <polygon id="7" class="fil38 str0" points="11003.78,7219.46 10569.64,6367.49 10135.52,7219.46 10040.69,7404.67 10248.12,7404.67 10342.95,7219.46 10569.64,6774.95 10796.34,7219.46 10891.18,7404.67 11098.61,7404.67 "/>
   </g>
   <g>
    <polygon id="8" class="fil38 str0" points="12224.69,6367.49 11950.58,6367.49 11661.65,6632.71 11523.85,6758.65 11371.24,6897.93 11371.24,6367.49 11186.03,6367.49 11186.03,7404.67 11371.24,7404.67 11371.24,7148.34 11633.5,6909.78 11992.07,7404.67 12220.25,7404.67 11771.3,6783.84 "/>
   </g>
   <g>
    <polygon id="9" class="fil38 str0" points="12558.07,7404.67 12558.07,6367.49 12372.86,6367.49 12372.86,7404.67 "/>
   </g>
   <g>
    <polygon id="10" class="fil38 str0" points="13558.21,6367.49 13558.21,7027.33 12891.46,6513.93 12706.25,6371.94 12706.25,7404.67 12891.46,7404.67 12891.46,6749.27 13558.21,7262.68 13743.43,7404.67 13743.43,6368.97 "/>
   </g>
   <g>
    <path id="11" class="fil38 str0" d="M14410.19 6552.7l518.59 0 0 -185.21 -518.59 0c-285.96,0 -518.6,232.62 -518.6,518.6 0,285.96 232.63,518.59 518.6,518.59l518.59 0 0 -568.97 -518.59 0 0 185.21 333.37 0 0 198.54 -333.37 0c-183.73,0 -333.38,-149.65 -333.38,-333.37 0,-183.73 149.65,-333.38 333.38,-333.38z"/>
   </g>
   <polygon id="12" class="fil19" points="1698.78,6367.49 1698.78,6743.84 1032.02,6743.84 1032.02,6367.49 846.81,6367.49 846.81,7404.67 1032.02,7404.67 1032.02,6929.04 1698.78,6929.04 1698.78,7404.67 1883.99,7404.67 1883.99,6367.49 "/>
   <path id="13" class="fil19" d="M2515.2 6367.49c-285.96,0 -518.6,232.62 -518.6,518.6 0,285.96 232.63,518.59 518.6,518.59 285.96,0 518.59,-232.62 518.59,-518.59 0,-285.97 -232.62,-518.6 -518.59,-518.6zm0 851.97c-183.73,0 -333.38,-149.65 -333.38,-333.37 0,-183.73 149.65,-333.38 333.38,-333.38 183.72,0 333.37,149.65 333.37,333.38 0,183.72 -149.65,333.37 -333.37,333.37z"/>
   <polygon id="14" class="fil19" points="4333.23,6367.49 4140.6,6367.49 3953.91,6992.76 3796.86,6774.95 3767.22,6733.46 3682.77,6617.89 3598.31,6733.46 3568.68,6774.95 3411.62,6992.76 3411.62,6992.76 3411.62,6992.76 3224.92,6367.49 3032.3,6367.49 3273.82,7180.94 3340.5,7403.19 3340.5,7403.19 3340.5,7403.19 3476.81,7215.02 3681.28,6932.01 3887.24,7215.02 3887.24,7215.02 4023.55,7404.67 4023.55,7404.67 4023.55,7404.67 4090.23,7180.94 4090.23,7180.94 "/>
   <polygon id="15" class="fil19" points="5202.97,6367.49 5202.97,6552.7 5628.21,6552.7 5628.21,7404.67 5813.42,7404.67 5813.42,6552.7 6238.67,6552.7 6238.67,6367.49 "/>
   <path id="16" class="fil19" d="M6773.56 6367.49c-285.96,0 -518.6,232.62 -518.6,518.6 0,285.96 232.63,518.59 518.6,518.59 285.96,0 518.59,-232.62 518.59,-518.59 0,-285.97 -232.62,-518.6 -518.59,-518.6zm0 851.97c-183.73,0 -333.38,-149.65 -333.38,-333.37 0,-183.73 149.65,-333.38 333.38,-333.38 183.72,0 333.37,149.65 333.37,333.38 0,183.72 -149.65,333.37 -333.37,333.37z"/>
   <path id="17" class="fil19" d="M9107.22 6653.45l0 -5.92c0,-154.1 -125.94,-280.04 -280.04,-280.04l-420.79 0c-154.09,0 -278.55,125.94 -278.55,280.04l0 5.92c0,59.27 17.78,114.09 48.89,158.54 10.37,16.3 22.23,31.12 35.56,44.45 50.38,48.9 118.53,78.53 194.1,78.53l373.38 0c78.53,0 143.72,63.71 143.72,142.24 0,78.53 -65.19,142.24 -143.72,142.24l-324.49 0c-78.52,0 -142.24,-63.71 -142.24,-142.24l-185.2 0c0,180.76 146.68,327.45 327.44,327.45l324.49 0c180.76,0 327.45,-146.69 327.45,-327.45 0,-78.53 -28.15,-151.13 -74.08,-207.43 -4.45,-4.45 -7.41,-8.89 -11.86,-13.34 -59.26,-65.19 -145.2,-106.68 -241.51,-106.68l-373.38 0c-51.86,0 -94.83,-42.97 -94.83,-94.83l0 -5.92c0,-51.86 42.97,-94.83 94.83,-94.83l420.79 0c51.86,0 94.83,42.97 94.83,94.83l0 5.92 185.21 -1.48z"/>
   <polygon id="18" class="fil19" points="9206.49,6367.49 9206.49,6552.7 9631.73,6552.7 9631.73,7404.67 9816.94,7404.67 9816.94,6552.7 10242.19,6552.7 10242.19,6367.49 "/>
   <polygon id="19" class="fil19" points="11003.78,7219.46 10569.64,6367.49 10135.52,7219.46 10040.69,7404.67 10248.12,7404.67 10342.95,7219.46 10569.64,6774.95 10796.34,7219.46 10891.18,7404.67 11098.61,7404.67 "/>
   <polygon id="20" class="fil19" points="12224.69,6367.49 11950.58,6367.49 11661.65,6632.71 11523.85,6758.65 11371.24,6897.93 11371.24,6367.49 11186.03,6367.49 11186.03,7404.67 11371.24,7404.67 11371.24,7148.34 11633.5,6909.78 11992.07,7404.67 12220.25,7404.67 11771.3,6783.84 "/>
   <polygon id="21" class="fil19" points="12558.07,7404.67 12558.07,6367.49 12372.86,6367.49 12372.86,7404.67 "/>
   <polygon id="22" class="fil19" points="13558.21,6367.49 13558.21,7027.33 12891.46,6513.93 12706.25,6371.94 12706.25,7404.67 12891.46,7404.67 12891.46,6749.27 13558.21,7262.68 13743.43,7404.67 13743.43,6368.97 "/>
   <path id="23" class="fil19" d="M14410.19 6552.7l518.59 0 0 -185.21 -518.59 0c-285.96,0 -518.6,232.62 -518.6,518.6 0,285.96 232.63,518.59 518.6,518.59l518.59 0 0 -568.97 -518.59 0 0 185.21 333.37 0 0 198.54 -333.37 0c-183.73,0 -333.38,-149.65 -333.38,-333.37 0,-183.73 149.65,-333.38 333.38,-333.38z"/>
  </g>
 </g>
</svg>
